<svg width="224" height="48" viewBox="0 0 224 48" fill="none" xmlns="http://www.w3.org/2000/svg">
<path d="M16.6036 3.72656H38.557C39.0228 3.72656 39.4454 3.99921 39.6378 4.42318L47.4052 21.577C47.7608 22.3622 47.1862 23.2526 46.3243 23.2526H24.4239C23.9595 23.2526 23.5376 22.9814 23.3445 22.5588L15.5241 5.40499C15.1664 4.61982 15.7403 3.72656 16.6036 3.72656ZM16.612 44.2654H37.9113C38.3736 44.2654 38.7934 43.9969 38.9879 43.5778L46.8334 26.6395C47.1974 25.8536 46.6235 24.9555 45.7574 24.9548L24.4232 24.9464C23.9602 24.9464 23.539 25.2156 23.3452 25.636L15.5346 42.5821C15.1727 43.3686 15.7466 44.2654 16.612 44.2654ZM12.0829 7.14199L5.74089 23.4486C5.63141 23.7296 5.6335 24.042 5.74577 24.3216L12.3367 40.6896C12.7258 41.6567 14.0842 41.6867 14.5165 40.7384L21.8292 24.6982C21.9715 24.3858 21.9715 24.0273 21.8299 23.715L14.2683 7.08132C13.8339 6.12531 12.4637 6.16366 12.0829 7.14199Z" fill="white"/>
<path d="M77.2583 31.187C77.2583 34.7294 74.4028 37.9091 67.4283 37.9091H56.8027V37.6929C59.2601 37.6929 59.4051 35.8855 59.4051 33.2113V16.2974C59.4051 13.6232 59.2608 11.8165 56.8027 11.8165V11.5996H66.9221C73.1742 11.5996 75.8846 14.1657 75.8846 17.7436C75.8846 21.719 72.7042 23.562 69.6688 24.0319V24.1045C73.4273 24.3932 77.2583 26.7787 77.2583 31.187ZM63.4523 13.4789V23.9232H66.1265C70.1381 23.9232 71.6924 21.3933 71.6924 18.3217C71.6924 14.6357 69.8494 12.1777 65.9821 12.1777H64.8253C63.9585 12.1777 63.4523 12.6114 63.4523 13.4789ZM72.8492 30.9709C72.8492 27.1399 70.4275 24.5019 66.2715 24.5019H63.4523V35.0188C63.4523 35.7781 63.4523 37.3317 66.3796 37.3317C70.3912 37.3317 72.8492 34.9462 72.8492 30.9709Z" fill="white"/>
<path d="M79.8594 28.5141C79.8594 22.5151 83.6179 18.5391 88.8219 18.5391C94.0984 18.5391 97.7126 22.2976 97.7126 28.369C97.7126 34.368 93.9541 38.3441 88.7501 38.3441C83.4735 38.3448 79.8594 34.5863 79.8594 28.5141ZM93.6647 28.4423C93.6647 23.3101 92.0749 19.0453 88.7494 19.0453C85.4246 19.0453 83.9066 23.0932 83.9066 28.4423C83.9066 33.5745 85.4964 37.8385 88.8219 37.8385C92.1467 37.8385 93.6647 33.7906 93.6647 28.4423Z" fill="white"/>
<path d="M111.951 18.8284L111.083 22.5869H110.867C109.999 21.8638 108.843 21.4301 107.976 21.4301C107.252 21.4301 106.457 21.7558 105.518 22.9482V34.1511C105.518 36.4641 105.626 37.6935 107.108 37.6935V37.9096H100.169V37.6935C101.651 37.6935 101.759 36.4648 101.759 34.1511V23.8156C101.759 21.5026 101.145 20.852 99.916 20.4183V20.2015L105.373 18.6109H105.518V22.4782C107.036 20.2014 108.589 18.5391 110.505 18.5391C110.975 18.5391 111.445 18.6109 111.951 18.8284Z" fill="white"/>
<path d="M131.106 36.8986V37.1155L126.371 38.3441H126.226L125.54 35.0187C124.202 36.8617 122.359 38.3441 119.866 38.3441C115.746 38.3441 112.71 34.5131 112.71 28.8754C112.71 22.6226 116.541 18.5391 121.781 18.5391C123.191 18.5391 124.455 18.9003 125.504 19.4429V14.5638C125.504 12.2508 124.889 11.6002 123.661 11.1665V10.9496L129.118 9.64844H129.262V33.1394C129.262 35.4538 129.876 36.4656 131.106 36.8986ZM125.504 34.5138V24.6113C125.504 21.3584 124.167 19.0454 121.637 19.0454C118.276 19.0454 116.758 23.2014 116.758 27.7192C116.758 32.5258 118.276 36.4649 121.673 36.4649C123.227 36.4656 124.492 35.5981 125.504 34.5138Z" fill="white"/>
<path d="M148.668 33.465C147.331 35.8142 145.091 38.3441 141.187 38.3441C136.128 38.3441 133.236 34.0431 133.236 28.7309C133.236 22.8763 137.067 18.5391 142.018 18.5391C146.03 18.5391 148.848 21.322 148.632 25.9117H137.175C137.139 26.2729 137.139 26.6704 137.139 27.0323C137.139 32.3451 138.982 36.2479 142.994 36.2479C145.343 36.2479 147.295 34.983 148.451 33.3206L148.668 33.465ZM137.248 25.3337H144.982C145.271 21.5026 144.404 19.0453 141.838 19.0453C139.128 19.0446 137.61 21.9719 137.248 25.3337Z" fill="white"/>
<path d="M162.618 18.8284L161.75 22.5869H161.534C160.666 21.8638 159.509 21.4301 158.643 21.4301C157.919 21.4301 157.124 21.7558 156.185 22.9482V34.1511C156.185 36.4641 156.293 37.6935 157.775 37.6935V37.9096H150.836V37.6935C152.318 37.6935 152.426 36.4648 152.426 34.1511V23.8156C152.426 21.5026 151.812 20.852 150.583 20.4183V20.2015L156.04 18.6109H156.185V22.4782C157.703 20.2014 159.256 18.5391 161.172 18.5391C161.642 18.5391 162.112 18.6109 162.618 18.8284Z" fill="white"/>
<path d="M164.134 37.6935C165.616 37.6935 165.724 36.4649 165.724 34.1512V14.5638C165.724 12.2508 165.11 11.6002 163.881 11.1665V10.9496L169.338 9.64844H169.482V34.1512C169.482 36.4642 169.591 37.6935 171.073 37.6935V37.9097H164.134V37.6935Z" fill="white"/>
<path d="M188.89 33.465C187.553 35.8142 185.312 38.3441 181.409 38.3441C176.349 38.3441 173.458 34.0431 173.458 28.7309C173.458 22.8763 177.289 18.5391 182.241 18.5391C186.252 18.5391 189.071 21.322 188.854 25.9117H177.398C177.362 26.2729 177.362 26.6704 177.362 27.0323C177.362 32.3451 179.205 36.2479 183.216 36.2479C185.565 36.2479 187.517 34.983 188.673 33.3206L188.89 33.465ZM177.47 25.3337H185.203C185.493 21.5026 184.625 19.0453 182.059 19.0453C179.349 19.0446 177.832 21.9719 177.47 25.3337Z" fill="white"/>
<path d="M191.419 37.2604L191.13 32.4901H191.347C192.757 35.5981 194.383 37.8392 197.31 37.8392C199.334 37.8392 201.177 36.7911 201.177 34.4775C201.177 32.3821 199.659 31.6227 196.985 30.1765L195.575 29.4178C193.805 28.4778 191.6 27.2129 191.6 24.0325C191.6 20.5989 194.31 18.5391 197.852 18.5391C199.298 18.5391 201.394 18.864 202.804 19.5509V23.5262H202.587C201.575 20.852 199.767 19.0446 197.418 19.0446C195.431 19.0446 194.093 20.3095 194.093 22.1163C194.093 24.1406 195.72 25.0798 197.346 25.9473L198.72 26.6697C201.178 27.9709 203.671 29.1277 203.671 32.4887C203.671 36.0666 200.852 38.3434 196.732 38.3434C194.888 38.3448 192.756 37.9103 191.419 37.2604Z" fill="white"/>
<path d="M206.308 37.2604L206.02 32.4901H206.236C207.646 35.5981 209.272 37.8392 212.2 37.8392C214.223 37.8392 216.067 36.7911 216.067 34.4775C216.067 32.3821 214.549 31.6227 211.875 30.1765L210.465 29.4178C208.694 28.4778 206.49 27.2129 206.49 24.0325C206.49 20.5989 209.2 18.5391 212.742 18.5391C214.188 18.5391 216.283 18.864 217.693 19.5509V23.5262H217.476C216.465 20.852 214.657 19.0446 212.308 19.0446C210.321 19.0446 208.983 20.3095 208.983 22.1163C208.983 24.1406 210.609 25.0798 212.236 25.9473L213.609 26.6697C216.067 27.9709 218.56 29.1277 218.56 32.4887C218.56 36.0666 215.741 38.3434 211.621 38.3434C209.778 38.3448 207.646 37.9103 206.308 37.2604Z" fill="white"/>
</svg>
