<svg width="992" height="344" viewBox="0 0 992 344" fill="none" xmlns="http://www.w3.org/2000/svg">
<path d="M481.874 34.4405L481.874 34.4404C478.275 30.9022 476.045 25.9812 476.045 20.5371C476.045 9.76922 484.774 1.04106 495.54 1.04106C506.308 1.04106 515.036 9.76922 515.036 20.5371C515.036 25.9435 512.837 30.8343 509.282 34.3662L509.282 34.3663C505.756 37.8698 500.902 40.0325 495.54 40.0325C490.217 40.0325 485.393 37.9 481.874 34.4405Z" stroke="#0ABAB5" stroke-width="2.08349"/>
<path d="M508.577 39.8742L508.577 39.8743C507.33 40.7167 505.997 41.4399 504.615 42.0248L504.614 42.0249C501.738 43.2416 498.682 43.8583 495.537 43.8583C492.392 43.8583 489.337 43.2416 486.46 42.0249L486.46 42.0248C485.078 41.4399 483.745 40.7168 482.498 39.8744C482.498 39.8744 482.498 39.8743 482.498 39.8743L483.081 39.0111C481.901 38.2142 480.793 37.2998 479.785 36.2923L508.577 39.8742ZM508.577 39.8742C509.811 39.0402 510.971 38.0835 512.026 37.029C512.06 36.9944 512.095 36.9597 512.129 36.9248C522.49 40.8265 529.62 48.8105 530.329 60.8465C520.517 67.845 508.51 71.9622 495.537 71.9622C482.706 71.9622 470.817 67.934 461.065 61.0735C461.693 49.0024 468.745 40.9756 479.037 37.0171L508.577 39.8742Z" stroke="#0ABAB5" stroke-width="2.08349"/>
<path d="M484.539 97.088H488.555V98H483.419V86.816H484.539V97.088ZM498.705 90.032C498.705 90.992 498.391 91.7653 497.761 92.352C497.132 92.9387 496.188 93.232 494.929 93.232H492.673V98H491.553V86.816H494.929C496.177 86.816 497.116 87.1093 497.745 87.696C498.385 88.2827 498.705 89.0613 498.705 90.032ZM494.929 92.272C496.679 92.272 497.553 91.5253 497.553 90.032C497.553 89.2853 497.345 88.72 496.929 88.336C496.513 87.952 495.847 87.76 494.929 87.76H492.673V92.272H494.929ZM504.993 98.128C503.99 98.128 503.169 97.8987 502.529 97.44C501.899 96.9707 501.547 96.336 501.473 95.536H502.625C502.678 96.0267 502.907 96.4267 503.313 96.736C503.729 97.0347 504.283 97.184 504.977 97.184C505.585 97.184 506.059 97.04 506.401 96.752C506.753 96.464 506.929 96.1067 506.929 95.68C506.929 95.3813 506.833 95.136 506.641 94.944C506.449 94.752 506.203 94.6027 505.905 94.496C505.617 94.3787 505.222 94.256 504.721 94.128C504.07 93.9573 503.542 93.7867 503.137 93.616C502.731 93.4453 502.385 93.1947 502.097 92.864C501.819 92.5227 501.681 92.0693 501.681 91.504C501.681 91.0773 501.809 90.6827 502.065 90.32C502.321 89.9573 502.683 89.6693 503.153 89.456C503.622 89.2427 504.155 89.136 504.753 89.136C505.691 89.136 506.449 89.376 507.025 89.856C507.601 90.3253 507.91 90.976 507.953 91.808H506.833C506.801 91.296 506.598 90.8853 506.225 90.576C505.862 90.256 505.361 90.096 504.721 90.096C504.155 90.096 503.697 90.2293 503.345 90.496C502.993 90.7627 502.817 91.0933 502.817 91.488C502.817 91.8293 502.918 92.112 503.121 92.336C503.334 92.5493 503.595 92.72 503.905 92.848C504.214 92.9653 504.63 93.0987 505.153 93.248C505.782 93.4187 506.283 93.584 506.657 93.744C507.03 93.904 507.35 94.1387 507.617 94.448C507.883 94.7573 508.022 95.168 508.033 95.68C508.033 96.1493 507.905 96.5707 507.649 96.944C507.393 97.3067 507.035 97.5947 506.577 97.808C506.118 98.0213 505.59 98.128 504.993 98.128Z" fill="white"/>
<g filter="url(#filter0_bi_585_15170)">
<rect x="1" y="110" width="309" height="81" fill="url(#paint0_radial_585_15170)" fill-opacity="0.35"/>
<rect x="0.698946" y="109.699" width="309.602" height="81.6021" stroke="url(#paint1_linear_585_15170)" stroke-width="0.602107"/>
<path d="M74.0127 158.14C73.0927 158.14 72.2793 157.98 71.5727 157.66C70.8793 157.34 70.3327 156.893 69.9327 156.32C69.5327 155.747 69.3193 155.107 69.2927 154.4H70.7727C70.8393 155.08 71.1393 155.68 71.6727 156.2C72.206 156.707 72.986 156.96 74.0127 156.96C74.9593 156.96 75.706 156.72 76.2527 156.24C76.8127 155.747 77.0927 155.127 77.0927 154.38C77.0927 153.78 76.9393 153.3 76.6327 152.94C76.326 152.567 75.946 152.293 75.4927 152.12C75.0393 151.933 74.4127 151.733 73.6127 151.52C72.6793 151.267 71.9393 151.02 71.3927 150.78C70.846 150.54 70.3793 150.167 69.9927 149.66C69.606 149.153 69.4127 148.467 69.4127 147.6C69.4127 146.88 69.5993 146.24 69.9727 145.68C70.346 145.107 70.8727 144.66 71.5527 144.34C72.2327 144.02 73.0127 143.86 73.8927 143.86C75.186 143.86 76.226 144.18 77.0127 144.82C77.8127 145.447 78.2727 146.26 78.3927 147.26H76.8727C76.7793 146.687 76.466 146.18 75.9327 145.74C75.3993 145.287 74.6793 145.06 73.7727 145.06C72.9327 145.06 72.2327 145.287 71.6727 145.74C71.1127 146.18 70.8327 146.787 70.8327 147.56C70.8327 148.147 70.986 148.62 71.2927 148.98C71.5993 149.34 71.9793 149.613 72.4327 149.8C72.8993 149.987 73.526 150.187 74.3127 150.4C75.2193 150.653 75.9527 150.907 76.5127 151.16C77.0727 151.4 77.546 151.773 77.9327 152.28C78.3193 152.787 78.5127 153.467 78.5127 154.32C78.5127 154.973 78.3393 155.593 77.9927 156.18C77.646 156.767 77.1327 157.24 76.4527 157.6C75.7727 157.96 74.9593 158.14 74.0127 158.14ZM88.898 158.14C87.6046 158.14 86.4313 157.84 85.378 157.24C84.3246 156.627 83.4913 155.78 82.878 154.7C82.278 153.607 81.978 152.373 81.978 151C81.978 149.627 82.278 148.4 82.878 147.32C83.4913 146.227 84.3246 145.38 85.378 144.78C86.4313 144.167 87.6046 143.86 88.898 143.86C90.2046 143.86 91.3846 144.167 92.438 144.78C93.4913 145.38 94.318 146.227 94.918 147.32C95.518 148.4 95.818 149.627 95.818 151C95.818 152.373 95.518 153.607 94.918 154.7C94.318 155.78 93.4913 156.627 92.438 157.24C91.3846 157.84 90.2046 158.14 88.898 158.14ZM88.898 156.92C89.938 156.92 90.8713 156.68 91.698 156.2C92.5246 155.72 93.178 155.033 93.658 154.14C94.138 153.233 94.378 152.187 94.378 151C94.378 149.813 94.138 148.773 93.658 147.88C93.178 146.987 92.5246 146.3 91.698 145.82C90.8713 145.34 89.938 145.1 88.898 145.1C87.858 145.1 86.9246 145.34 86.098 145.82C85.2713 146.3 84.618 146.987 84.138 147.88C83.658 148.773 83.418 149.813 83.418 151C83.418 152.187 83.658 153.233 84.138 154.14C84.618 155.033 85.2713 155.72 86.098 156.2C86.9246 156.68 87.858 156.92 88.898 156.92ZM101.18 156.86H106.2V158H99.7797V144.02H101.18V156.86ZM124.046 144.02V145.18H117.886V150.4H123.086V151.56H117.886V158H116.486V144.02H124.046ZM137.629 151.98C137.629 152.46 137.616 152.827 137.589 153.08H128.529C128.569 153.907 128.769 154.613 129.129 155.2C129.489 155.787 129.963 156.233 130.549 156.54C131.136 156.833 131.776 156.98 132.469 156.98C133.376 156.98 134.136 156.76 134.749 156.32C135.376 155.88 135.789 155.287 135.989 154.54H137.469C137.203 155.607 136.629 156.48 135.749 157.16C134.883 157.827 133.789 158.16 132.469 158.16C131.443 158.16 130.523 157.933 129.709 157.48C128.896 157.013 128.256 156.36 127.789 155.52C127.336 154.667 127.109 153.673 127.109 152.54C127.109 151.407 127.336 150.413 127.789 149.56C128.243 148.707 128.876 148.053 129.689 147.6C130.503 147.147 131.429 146.92 132.469 146.92C133.509 146.92 134.416 147.147 135.189 147.6C135.976 148.053 136.576 148.667 136.989 149.44C137.416 150.2 137.629 151.047 137.629 151.98ZM136.209 151.94C136.223 151.127 136.056 150.433 135.709 149.86C135.376 149.287 134.916 148.853 134.329 148.56C133.743 148.267 133.103 148.12 132.409 148.12C131.369 148.12 130.483 148.453 129.749 149.12C129.016 149.787 128.609 150.727 128.529 151.94H136.209ZM151.471 151.98C151.471 152.46 151.457 152.827 151.431 153.08H142.371C142.411 153.907 142.611 154.613 142.971 155.2C143.331 155.787 143.804 156.233 144.391 156.54C144.977 156.833 145.617 156.98 146.311 156.98C147.217 156.98 147.977 156.76 148.591 156.32C149.217 155.88 149.631 155.287 149.831 154.54H151.311C151.044 155.607 150.471 156.48 149.591 157.16C148.724 157.827 147.631 158.16 146.311 158.16C145.284 158.16 144.364 157.933 143.551 157.48C142.737 157.013 142.097 156.36 141.631 155.52C141.177 154.667 140.951 153.673 140.951 152.54C140.951 151.407 141.177 150.413 141.631 149.56C142.084 148.707 142.717 148.053 143.531 147.6C144.344 147.147 145.271 146.92 146.311 146.92C147.351 146.92 148.257 147.147 149.031 147.6C149.817 148.053 150.417 148.667 150.831 149.44C151.257 150.2 151.471 151.047 151.471 151.98ZM150.051 151.94C150.064 151.127 149.897 150.433 149.551 149.86C149.217 149.287 148.757 148.853 148.171 148.56C147.584 148.267 146.944 148.12 146.251 148.12C145.211 148.12 144.324 148.453 143.591 149.12C142.857 149.787 142.451 150.727 142.371 151.94H150.051ZM154.792 152.52C154.792 151.4 155.019 150.42 155.472 149.58C155.925 148.727 156.545 148.073 157.332 147.62C158.132 147.153 159.032 146.92 160.032 146.92C160.992 146.92 161.859 147.153 162.632 147.62C163.405 148.087 163.972 148.693 164.332 149.44V143.2H165.732V158H164.332V155.56C163.999 156.32 163.452 156.947 162.692 157.44C161.932 157.92 161.039 158.16 160.012 158.16C159.012 158.16 158.112 157.927 157.312 157.46C156.525 156.993 155.905 156.333 155.452 155.48C155.012 154.627 154.792 153.64 154.792 152.52ZM164.332 152.54C164.332 151.66 164.152 150.887 163.792 150.22C163.432 149.553 162.939 149.04 162.312 148.68C161.699 148.32 161.019 148.14 160.272 148.14C159.499 148.14 158.805 148.313 158.192 148.66C157.579 149.007 157.092 149.513 156.732 150.18C156.385 150.833 156.212 151.613 156.212 152.52C156.212 153.413 156.385 154.2 156.732 154.88C157.092 155.547 157.579 156.06 158.192 156.42C158.805 156.767 159.499 156.94 160.272 156.94C161.019 156.94 161.699 156.76 162.312 156.4C162.939 156.04 163.432 155.527 163.792 154.86C164.152 154.193 164.332 153.42 164.332 152.54ZM180.208 151.98C180.208 152.46 180.195 152.827 180.168 153.08H171.108C171.148 153.907 171.348 154.613 171.708 155.2C172.068 155.787 172.541 156.233 173.128 156.54C173.715 156.833 174.355 156.98 175.048 156.98C175.955 156.98 176.715 156.76 177.328 156.32C177.955 155.88 178.368 155.287 178.568 154.54H180.048C179.781 155.607 179.208 156.48 178.328 157.16C177.461 157.827 176.368 158.16 175.048 158.16C174.021 158.16 173.101 157.933 172.288 157.48C171.475 157.013 170.835 156.36 170.368 155.52C169.915 154.667 169.688 153.673 169.688 152.54C169.688 151.407 169.915 150.413 170.368 149.56C170.821 148.707 171.455 148.053 172.268 147.6C173.081 147.147 174.008 146.92 175.048 146.92C176.088 146.92 176.995 147.147 177.768 147.6C178.555 148.053 179.155 148.667 179.568 149.44C179.995 150.2 180.208 151.047 180.208 151.98ZM178.788 151.94C178.801 151.127 178.635 150.433 178.288 149.86C177.955 149.287 177.495 148.853 176.908 148.56C176.321 148.267 175.681 148.12 174.988 148.12C173.948 148.12 173.061 148.453 172.328 149.12C171.595 149.787 171.188 150.727 171.108 151.94H178.788ZM185.57 149.02C185.876 148.34 186.343 147.813 186.97 147.44C187.61 147.067 188.39 146.88 189.31 146.88V148.34H188.93C187.916 148.34 187.103 148.613 186.49 149.16C185.876 149.707 185.57 150.62 185.57 151.9V158H184.17V147.08H185.57V149.02ZM208.644 148.04C208.644 149.24 208.251 150.207 207.464 150.94C206.677 151.673 205.497 152.04 203.924 152.04H201.104V158H199.704V144.02H203.924C205.484 144.02 206.657 144.387 207.444 145.12C208.244 145.853 208.644 146.827 208.644 148.04ZM203.924 150.84C206.111 150.84 207.204 149.907 207.204 148.04C207.204 147.107 206.944 146.4 206.424 145.92C205.904 145.44 205.071 145.2 203.924 145.2H201.104V150.84H203.924ZM217.173 158.16C216.146 158.16 215.22 157.933 214.393 157.48C213.58 157.013 212.933 156.36 212.453 155.52C211.986 154.667 211.753 153.673 211.753 152.54C211.753 151.407 211.993 150.42 212.473 149.58C212.953 148.727 213.606 148.073 214.433 147.62C215.26 147.153 216.186 146.92 217.213 146.92C218.24 146.92 219.166 147.153 219.993 147.62C220.833 148.073 221.486 148.727 221.953 149.58C222.433 150.42 222.673 151.407 222.673 152.54C222.673 153.66 222.433 154.647 221.953 155.5C221.473 156.353 220.813 157.013 219.973 157.48C219.133 157.933 218.2 158.16 217.173 158.16ZM217.173 156.94C217.893 156.94 218.56 156.78 219.173 156.46C219.786 156.127 220.28 155.633 220.653 154.98C221.04 154.313 221.233 153.5 221.233 152.54C221.233 151.58 221.046 150.773 220.673 150.12C220.3 149.453 219.806 148.96 219.193 148.64C218.58 148.307 217.913 148.14 217.193 148.14C216.473 148.14 215.806 148.307 215.193 148.64C214.58 148.96 214.086 149.453 213.713 150.12C213.353 150.773 213.173 151.58 213.173 152.54C213.173 153.5 213.353 154.313 213.713 154.98C214.086 155.633 214.573 156.127 215.173 156.46C215.786 156.78 216.453 156.94 217.173 156.94ZM231.405 158.16C230.378 158.16 229.452 157.933 228.625 157.48C227.812 157.013 227.165 156.36 226.685 155.52C226.218 154.667 225.985 153.673 225.985 152.54C225.985 151.407 226.225 150.42 226.705 149.58C227.185 148.727 227.838 148.073 228.665 147.62C229.492 147.153 230.418 146.92 231.445 146.92C232.472 146.92 233.398 147.153 234.225 147.62C235.065 148.073 235.718 148.727 236.185 149.58C236.665 150.42 236.905 151.407 236.905 152.54C236.905 153.66 236.665 154.647 236.185 155.5C235.705 156.353 235.045 157.013 234.205 157.48C233.365 157.933 232.432 158.16 231.405 158.16ZM231.405 156.94C232.125 156.94 232.792 156.78 233.405 156.46C234.018 156.127 234.512 155.633 234.885 154.98C235.272 154.313 235.465 153.5 235.465 152.54C235.465 151.58 235.278 150.773 234.905 150.12C234.532 149.453 234.038 148.96 233.425 148.64C232.812 148.307 232.145 148.14 231.425 148.14C230.705 148.14 230.038 148.307 229.425 148.64C228.812 148.96 228.318 149.453 227.945 150.12C227.585 150.773 227.405 151.58 227.405 152.54C227.405 153.5 227.585 154.313 227.945 154.98C228.318 155.633 228.805 156.127 229.405 156.46C230.018 156.78 230.685 156.94 231.405 156.94ZM242.257 143.2V158H240.857V143.2H242.257Z" fill="white"/>
</g>
<g filter="url(#filter1_bi_585_15170)">
<rect x="1" y="309" width="91" height="34" fill="url(#paint2_radial_585_15170)" fill-opacity="0.35"/>
<rect x="0.698946" y="308.699" width="91.6021" height="34.6021" stroke="url(#paint3_linear_585_15170)" stroke-width="0.602107"/>
<path d="M50.1766 329.68H43.8166L42.5966 333H41.1166L46.2166 319.2H47.7966L52.8766 333H51.3966L50.1766 329.68ZM49.7566 328.52L46.9966 320.96L44.2366 328.52H49.7566Z" fill="white"/>
</g>
<g filter="url(#filter2_bi_585_15170)">
<rect x="110" y="309" width="91" height="34" fill="url(#paint4_radial_585_15170)" fill-opacity="0.35"/>
<rect x="109.699" y="308.699" width="91.6021" height="34.6021" stroke="url(#paint5_linear_585_15170)" stroke-width="0.602107"/>
<path d="M158.173 325.78C158.96 325.927 159.627 326.327 160.173 326.98C160.72 327.633 160.993 328.393 160.993 329.26C160.993 329.967 160.813 330.607 160.453 331.18C160.107 331.74 159.593 332.187 158.913 332.52C158.233 332.84 157.42 333 156.473 333H151.633V319.02H156.333C157.747 319.02 158.82 319.347 159.553 320C160.3 320.653 160.673 321.5 160.673 322.54C160.673 323.407 160.44 324.113 159.973 324.66C159.507 325.193 158.907 325.567 158.173 325.78ZM153.033 325.2H156.293C157.24 325.2 157.967 324.98 158.473 324.54C158.993 324.087 159.253 323.467 159.253 322.68C159.253 321.907 158.993 321.3 158.473 320.86C157.967 320.42 157.22 320.2 156.233 320.2H153.033V325.2ZM156.373 331.82C157.387 331.82 158.173 331.58 158.733 331.1C159.307 330.62 159.593 329.96 159.593 329.12C159.593 328.28 159.293 327.613 158.693 327.12C158.107 326.613 157.313 326.36 156.313 326.36H153.033V331.82H156.373Z" fill="white"/>
</g>
<g filter="url(#filter3_bi_585_15170)">
<rect x="219" y="309" width="91" height="34" fill="url(#paint6_radial_585_15170)" fill-opacity="0.35"/>
<rect x="218.699" y="308.699" width="91.6021" height="34.6021" stroke="url(#paint7_linear_585_15170)" stroke-width="0.602107"/>
<path d="M259.327 327.54C259.327 326.407 259.554 325.42 260.007 324.58C260.461 323.727 261.087 323.073 261.887 322.62C262.687 322.153 263.601 321.92 264.627 321.92C265.974 321.92 267.081 322.253 267.947 322.92C268.827 323.587 269.394 324.493 269.647 325.64H268.147C267.961 324.853 267.554 324.24 266.927 323.8C266.314 323.347 265.547 323.12 264.627 323.12C263.894 323.12 263.234 323.287 262.647 323.62C262.061 323.953 261.594 324.453 261.247 325.12C260.914 325.773 260.747 326.58 260.747 327.54C260.747 328.5 260.914 329.313 261.247 329.98C261.594 330.647 262.061 331.147 262.647 331.48C263.234 331.813 263.894 331.98 264.627 331.98C265.547 331.98 266.314 331.76 266.927 331.32C267.554 330.867 267.961 330.24 268.147 329.44H269.647C269.394 330.56 268.827 331.46 267.947 332.14C267.067 332.82 265.961 333.16 264.627 333.16C263.601 333.16 262.687 332.933 261.887 332.48C261.087 332.013 260.461 331.36 260.007 330.52C259.554 329.667 259.327 328.673 259.327 327.54Z" fill="white"/>
</g>
<path d="M155.646 239.36C155.842 239.555 156.158 239.555 156.354 239.36L159.536 236.178C159.731 235.983 159.731 235.666 159.536 235.471C159.34 235.276 159.024 235.276 158.828 235.471L156 238.299L153.172 235.471C152.976 235.276 152.66 235.276 152.464 235.471C152.269 235.666 152.269 235.983 152.464 236.178L155.646 239.36ZM155.5 190.996V239.007H156.5V190.996H155.5Z" fill="white"/>
<path d="M121.646 255.112C120.612 255.112 119.673 254.872 118.83 254.392C117.988 253.901 117.321 253.224 116.83 252.36C116.35 251.485 116.11 250.499 116.11 249.4C116.11 248.301 116.35 247.32 116.83 246.456C117.321 245.581 117.988 244.904 118.83 244.424C119.673 243.933 120.612 243.688 121.646 243.688C122.692 243.688 123.636 243.933 124.478 244.424C125.321 244.904 125.982 245.581 126.462 246.456C126.942 247.32 127.182 248.301 127.182 249.4C127.182 250.499 126.942 251.485 126.462 252.36C125.982 253.224 125.321 253.901 124.478 254.392C123.636 254.872 122.692 255.112 121.646 255.112ZM121.646 254.136C122.478 254.136 123.225 253.944 123.886 253.56C124.548 253.176 125.07 252.627 125.454 251.912C125.838 251.187 126.03 250.349 126.03 249.4C126.03 248.451 125.838 247.619 125.454 246.904C125.07 246.189 124.548 245.64 123.886 245.256C123.225 244.872 122.478 244.68 121.646 244.68C120.814 244.68 120.068 244.872 119.406 245.256C118.745 245.64 118.222 246.189 117.838 246.904C117.454 247.619 117.262 248.451 117.262 249.4C117.262 250.349 117.454 251.187 117.838 251.912C118.222 252.627 118.745 253.176 119.406 253.56C120.068 253.944 120.814 254.136 121.646 254.136ZM138.2 246.264V255H137.08V253.464C136.824 254.008 136.429 254.424 135.896 254.712C135.362 255 134.765 255.144 134.104 255.144C133.058 255.144 132.205 254.824 131.544 254.184C130.882 253.533 130.552 252.595 130.552 251.368V246.264H131.656V251.24C131.656 252.189 131.89 252.915 132.36 253.416C132.84 253.917 133.49 254.168 134.312 254.168C135.154 254.168 135.826 253.901 136.328 253.368C136.829 252.835 137.08 252.051 137.08 251.016V246.264H138.2ZM143.613 247.208V252.632C143.613 253.165 143.714 253.533 143.917 253.736C144.119 253.939 144.477 254.04 144.989 254.04H146.013V255H144.813C144.023 255 143.437 254.819 143.053 254.456C142.669 254.083 142.477 253.475 142.477 252.632V247.208H141.261V246.264H142.477V244.072H143.613V246.264H146.013V247.208H143.613ZM150.364 248.184C150.641 247.597 151.078 247.112 151.676 246.728C152.284 246.333 153.004 246.136 153.836 246.136C154.625 246.136 155.334 246.323 155.964 246.696C156.604 247.059 157.1 247.581 157.452 248.264C157.814 248.936 157.996 249.72 157.996 250.616C157.996 251.512 157.814 252.301 157.452 252.984C157.1 253.667 156.604 254.195 155.964 254.568C155.334 254.941 154.625 255.128 153.836 255.128C153.014 255.128 152.3 254.936 151.692 254.552C151.084 254.157 150.641 253.667 150.364 253.08V259.128H149.26V246.264H150.364V248.184ZM156.86 250.616C156.86 249.891 156.716 249.267 156.428 248.744C156.15 248.211 155.766 247.805 155.276 247.528C154.785 247.251 154.23 247.112 153.612 247.112C153.014 247.112 152.465 247.256 151.964 247.544C151.473 247.832 151.084 248.243 150.796 248.776C150.508 249.309 150.364 249.928 150.364 250.632C150.364 251.336 150.508 251.955 150.796 252.488C151.084 253.021 151.473 253.432 151.964 253.72C152.465 254.008 153.014 254.152 153.612 254.152C154.23 254.152 154.785 254.013 155.276 253.736C155.766 253.448 156.15 253.037 156.428 252.504C156.716 251.96 156.86 251.331 156.86 250.616ZM165.281 255.128C164.459 255.128 163.718 254.947 163.057 254.584C162.406 254.211 161.889 253.688 161.505 253.016C161.131 252.333 160.945 251.539 160.945 250.632C160.945 249.725 161.137 248.936 161.521 248.264C161.905 247.581 162.427 247.059 163.089 246.696C163.75 246.323 164.491 246.136 165.313 246.136C166.134 246.136 166.875 246.323 167.537 246.696C168.209 247.059 168.731 247.581 169.105 248.264C169.489 248.936 169.681 249.725 169.681 250.632C169.681 251.528 169.489 252.317 169.105 253C168.721 253.683 168.193 254.211 167.521 254.584C166.849 254.947 166.102 255.128 165.281 255.128ZM165.281 254.152C165.857 254.152 166.39 254.024 166.881 253.768C167.371 253.501 167.766 253.107 168.065 252.584C168.374 252.051 168.529 251.4 168.529 250.632C168.529 249.864 168.379 249.219 168.081 248.696C167.782 248.163 167.387 247.768 166.897 247.512C166.406 247.245 165.873 247.112 165.297 247.112C164.721 247.112 164.187 247.245 163.697 247.512C163.206 247.768 162.811 248.163 162.513 248.696C162.225 249.219 162.081 249.864 162.081 250.632C162.081 251.4 162.225 252.051 162.513 252.584C162.811 253.107 163.201 253.501 163.681 253.768C164.171 254.024 164.705 254.152 165.281 254.152ZM176.13 255.128C175.128 255.128 174.306 254.899 173.666 254.44C173.037 253.971 172.685 253.336 172.61 252.536H173.762C173.816 253.027 174.045 253.427 174.45 253.736C174.866 254.035 175.421 254.184 176.114 254.184C176.722 254.184 177.197 254.04 177.538 253.752C177.89 253.464 178.066 253.107 178.066 252.68C178.066 252.381 177.97 252.136 177.778 251.944C177.586 251.752 177.341 251.603 177.042 251.496C176.754 251.379 176.36 251.256 175.858 251.128C175.208 250.957 174.68 250.787 174.274 250.616C173.869 250.445 173.522 250.195 173.234 249.864C172.957 249.523 172.818 249.069 172.818 248.504C172.818 248.077 172.946 247.683 173.202 247.32C173.458 246.957 173.821 246.669 174.29 246.456C174.76 246.243 175.293 246.136 175.89 246.136C176.829 246.136 177.586 246.376 178.162 246.856C178.738 247.325 179.048 247.976 179.09 248.808H177.97C177.938 248.296 177.736 247.885 177.362 247.576C177 247.256 176.498 247.096 175.858 247.096C175.293 247.096 174.834 247.229 174.482 247.496C174.13 247.763 173.954 248.093 173.954 248.488C173.954 248.829 174.056 249.112 174.258 249.336C174.472 249.549 174.733 249.72 175.042 249.848C175.352 249.965 175.768 250.099 176.29 250.248C176.92 250.419 177.421 250.584 177.794 250.744C178.168 250.904 178.488 251.139 178.754 251.448C179.021 251.757 179.16 252.168 179.17 252.68C179.17 253.149 179.042 253.571 178.786 253.944C178.53 254.307 178.173 254.595 177.714 254.808C177.256 255.021 176.728 255.128 176.13 255.128ZM184.134 247.208V252.632C184.134 253.165 184.236 253.533 184.438 253.736C184.641 253.939 184.998 254.04 185.51 254.04H186.534V255H185.334C184.545 255 183.958 254.819 183.574 254.456C183.19 254.083 182.998 253.475 182.998 252.632V247.208H181.782V246.264H182.998V244.072H184.134V246.264H186.534V247.208H184.134ZM192.79 255.128C191.787 255.128 190.966 254.899 190.326 254.44C189.696 253.971 189.344 253.336 189.27 252.536H190.422C190.475 253.027 190.704 253.427 191.11 253.736C191.526 254.035 192.08 254.184 192.774 254.184C193.382 254.184 193.856 254.04 194.198 253.752C194.55 253.464 194.726 253.107 194.726 252.68C194.726 252.381 194.63 252.136 194.438 251.944C194.246 251.752 194 251.603 193.702 251.496C193.414 251.379 193.019 251.256 192.518 251.128C191.867 250.957 191.339 250.787 190.934 250.616C190.528 250.445 190.182 250.195 189.894 249.864C189.616 249.523 189.478 249.069 189.478 248.504C189.478 248.077 189.606 247.683 189.862 247.32C190.118 246.957 190.48 246.669 190.95 246.456C191.419 246.243 191.952 246.136 192.55 246.136C193.488 246.136 194.246 246.376 194.822 246.856C195.398 247.325 195.707 247.976 195.75 248.808H194.63C194.598 248.296 194.395 247.885 194.022 247.576C193.659 247.256 193.158 247.096 192.518 247.096C191.952 247.096 191.494 247.229 191.142 247.496C190.79 247.763 190.614 248.093 190.614 248.488C190.614 248.829 190.715 249.112 190.918 249.336C191.131 249.549 191.392 249.72 191.702 249.848C192.011 249.965 192.427 250.099 192.95 250.248C193.579 250.419 194.08 250.584 194.454 250.744C194.827 250.904 195.147 251.139 195.414 251.448C195.68 251.757 195.819 252.168 195.83 252.68C195.83 253.149 195.702 253.571 195.446 253.944C195.19 254.307 194.832 254.595 194.374 254.808C193.915 255.021 193.387 255.128 192.79 255.128Z" fill="white"/>
<path fill-rule="evenodd" clip-rule="evenodd" d="M264 304.992V280.992H48.1538V279.992H155.158V261H156.158V279.992H264H264.592H265V304.992H264ZM46.3155 279.992V304.992H47.3155V279.992H46.3155Z" fill="white"/>
<path d="M156 72L155.985 71.5002L155.5 71.5149V72H156ZM155.646 104.352C155.842 104.548 156.158 104.548 156.354 104.352L159.536 101.17C159.731 100.975 159.731 100.658 159.536 100.463C159.34 100.268 159.024 100.268 158.828 100.463L156 103.292L153.172 100.463C152.976 100.268 152.66 100.268 152.464 100.463C152.269 100.658 152.269 100.975 152.464 101.17L155.646 104.352ZM452.485 62.5002L155.985 71.5002L156.015 72.4998L452.515 63.4998L452.485 62.5002ZM155.5 72V103.999H156.5V72H155.5Z" fill="white"/>
<path d="M835.5 72L835.515 71.5002L836 71.5149V72H835.5ZM835.854 104.352C835.658 104.548 835.342 104.548 835.146 104.352L831.964 101.17C831.769 100.975 831.769 100.658 831.964 100.463C832.16 100.268 832.476 100.268 832.672 100.463L835.5 103.292L838.328 100.463C838.524 100.268 838.84 100.268 839.036 100.463C839.231 100.658 839.231 100.975 839.036 101.17L835.854 104.352ZM539.015 62.5002L835.515 71.5002L835.485 72.4998L538.985 63.4998L539.015 62.5002ZM836 72V103.999H835V72H836Z" fill="white"/>
<g filter="url(#filter4_bi_585_15170)">
<rect x="682" y="110" width="309" height="81" fill="url(#paint8_radial_585_15170)" fill-opacity="0.35"/>
<rect x="681.699" y="109.699" width="309.602" height="81.6021" stroke="url(#paint9_linear_585_15170)" stroke-width="0.602107"/>
<path d="M752.473 145.16V150.38H757.773V151.54H752.473V156.84H758.373V158H751.073V144H758.373V145.16H752.473ZM770.712 144.02V145.18H766.832V158H765.432V145.18H761.532V144.02H770.712ZM784.703 144.02V158H783.303V151.46H775.723V158H774.323V144.02H775.723V150.3H783.303V144.02H784.703ZM803.745 144.02V145.18H797.585V150.4H802.785V151.56H797.585V158H796.185V144.02H803.745ZM817.328 151.98C817.328 152.46 817.315 152.827 817.288 153.08H808.228C808.268 153.907 808.468 154.613 808.828 155.2C809.188 155.787 809.662 156.233 810.248 156.54C810.835 156.833 811.475 156.98 812.168 156.98C813.075 156.98 813.835 156.76 814.448 156.32C815.075 155.88 815.488 155.287 815.688 154.54H817.168C816.902 155.607 816.328 156.48 815.448 157.16C814.582 157.827 813.488 158.16 812.168 158.16C811.142 158.16 810.222 157.933 809.408 157.48C808.595 157.013 807.955 156.36 807.488 155.52C807.035 154.667 806.808 153.673 806.808 152.54C806.808 151.407 807.035 150.413 807.488 149.56C807.942 148.707 808.575 148.053 809.388 147.6C810.202 147.147 811.128 146.92 812.168 146.92C813.208 146.92 814.115 147.147 814.888 147.6C815.675 148.053 816.275 148.667 816.688 149.44C817.115 150.2 817.328 151.047 817.328 151.98ZM815.908 151.94C815.922 151.127 815.755 150.433 815.408 149.86C815.075 149.287 814.615 148.853 814.028 148.56C813.442 148.267 812.802 148.12 812.108 148.12C811.068 148.12 810.182 148.453 809.448 149.12C808.715 149.787 808.308 150.727 808.228 151.94H815.908ZM831.17 151.98C831.17 152.46 831.157 152.827 831.13 153.08H822.07C822.11 153.907 822.31 154.613 822.67 155.2C823.03 155.787 823.503 156.233 824.09 156.54C824.677 156.833 825.317 156.98 826.01 156.98C826.917 156.98 827.677 156.76 828.29 156.32C828.917 155.88 829.33 155.287 829.53 154.54H831.01C830.743 155.607 830.17 156.48 829.29 157.16C828.423 157.827 827.33 158.16 826.01 158.16C824.983 158.16 824.063 157.933 823.25 157.48C822.437 157.013 821.797 156.36 821.33 155.52C820.877 154.667 820.65 153.673 820.65 152.54C820.65 151.407 820.877 150.413 821.33 149.56C821.783 148.707 822.417 148.053 823.23 147.6C824.043 147.147 824.97 146.92 826.01 146.92C827.05 146.92 827.957 147.147 828.73 147.6C829.517 148.053 830.117 148.667 830.53 149.44C830.957 150.2 831.17 151.047 831.17 151.98ZM829.75 151.94C829.763 151.127 829.597 150.433 829.25 149.86C828.917 149.287 828.457 148.853 827.87 148.56C827.283 148.267 826.643 148.12 825.95 148.12C824.91 148.12 824.023 148.453 823.29 149.12C822.557 149.787 822.15 150.727 822.07 151.94H829.75ZM834.491 152.52C834.491 151.4 834.718 150.42 835.171 149.58C835.625 148.727 836.245 148.073 837.031 147.62C837.831 147.153 838.731 146.92 839.731 146.92C840.691 146.92 841.558 147.153 842.331 147.62C843.105 148.087 843.671 148.693 844.031 149.44V143.2H845.431V158H844.031V155.56C843.698 156.32 843.151 156.947 842.391 157.44C841.631 157.92 840.738 158.16 839.711 158.16C838.711 158.16 837.811 157.927 837.011 157.46C836.225 156.993 835.605 156.333 835.151 155.48C834.711 154.627 834.491 153.64 834.491 152.52ZM844.031 152.54C844.031 151.66 843.851 150.887 843.491 150.22C843.131 149.553 842.638 149.04 842.011 148.68C841.398 148.32 840.718 148.14 839.971 148.14C839.198 148.14 838.505 148.313 837.891 148.66C837.278 149.007 836.791 149.513 836.431 150.18C836.085 150.833 835.911 151.613 835.911 152.52C835.911 153.413 836.085 154.2 836.431 154.88C836.791 155.547 837.278 156.06 837.891 156.42C838.505 156.767 839.198 156.94 839.971 156.94C840.718 156.94 841.398 156.76 842.011 156.4C842.638 156.04 843.131 155.527 843.491 154.86C843.851 154.193 844.031 153.42 844.031 152.54ZM859.907 151.98C859.907 152.46 859.894 152.827 859.867 153.08H850.807C850.847 153.907 851.047 154.613 851.407 155.2C851.767 155.787 852.241 156.233 852.827 156.54C853.414 156.833 854.054 156.98 854.747 156.98C855.654 156.98 856.414 156.76 857.027 156.32C857.654 155.88 858.067 155.287 858.267 154.54H859.747C859.481 155.607 858.907 156.48 858.027 157.16C857.161 157.827 856.067 158.16 854.747 158.16C853.721 158.16 852.801 157.933 851.987 157.48C851.174 157.013 850.534 156.36 850.067 155.52C849.614 154.667 849.387 153.673 849.387 152.54C849.387 151.407 849.614 150.413 850.067 149.56C850.521 148.707 851.154 148.053 851.967 147.6C852.781 147.147 853.707 146.92 854.747 146.92C855.787 146.92 856.694 147.147 857.467 147.6C858.254 148.053 858.854 148.667 859.267 149.44C859.694 150.2 859.907 151.047 859.907 151.98ZM858.487 151.94C858.501 151.127 858.334 150.433 857.987 149.86C857.654 149.287 857.194 148.853 856.607 148.56C856.021 148.267 855.381 148.12 854.687 148.12C853.647 148.12 852.761 148.453 852.027 149.12C851.294 149.787 850.887 150.727 850.807 151.94H858.487ZM865.269 149.02C865.575 148.34 866.042 147.813 866.669 147.44C867.309 147.067 868.089 146.88 869.009 146.88V148.34H868.629C867.615 148.34 866.802 148.613 866.189 149.16C865.575 149.707 865.269 150.62 865.269 151.9V158H863.869V147.08H865.269V149.02ZM888.343 148.04C888.343 149.24 887.95 150.207 887.163 150.94C886.376 151.673 885.196 152.04 883.623 152.04H880.803V158H879.403V144.02H883.623C885.183 144.02 886.356 144.387 887.143 145.12C887.943 145.853 888.343 146.827 888.343 148.04ZM883.623 150.84C885.81 150.84 886.903 149.907 886.903 148.04C886.903 147.107 886.643 146.4 886.123 145.92C885.603 145.44 884.77 145.2 883.623 145.2H880.803V150.84H883.623ZM896.872 158.16C895.846 158.16 894.919 157.933 894.092 157.48C893.279 157.013 892.632 156.36 892.152 155.52C891.686 154.667 891.452 153.673 891.452 152.54C891.452 151.407 891.692 150.42 892.172 149.58C892.652 148.727 893.306 148.073 894.132 147.62C894.959 147.153 895.886 146.92 896.912 146.92C897.939 146.92 898.866 147.153 899.692 147.62C900.532 148.073 901.186 148.727 901.652 149.58C902.132 150.42 902.372 151.407 902.372 152.54C902.372 153.66 902.132 154.647 901.652 155.5C901.172 156.353 900.512 157.013 899.672 157.48C898.832 157.933 897.899 158.16 896.872 158.16ZM896.872 156.94C897.592 156.94 898.259 156.78 898.872 156.46C899.486 156.127 899.979 155.633 900.352 154.98C900.739 154.313 900.932 153.5 900.932 152.54C900.932 151.58 900.746 150.773 900.372 150.12C899.999 149.453 899.506 148.96 898.892 148.64C898.279 148.307 897.612 148.14 896.892 148.14C896.172 148.14 895.506 148.307 894.892 148.64C894.279 148.96 893.786 149.453 893.412 150.12C893.052 150.773 892.872 151.58 892.872 152.54C892.872 153.5 893.052 154.313 893.412 154.98C893.786 155.633 894.272 156.127 894.872 156.46C895.486 156.78 896.152 156.94 896.872 156.94ZM911.104 158.16C910.078 158.16 909.151 157.933 908.324 157.48C907.511 157.013 906.864 156.36 906.384 155.52C905.918 154.667 905.684 153.673 905.684 152.54C905.684 151.407 905.924 150.42 906.404 149.58C906.884 148.727 907.538 148.073 908.364 147.62C909.191 147.153 910.118 146.92 911.144 146.92C912.171 146.92 913.098 147.153 913.924 147.62C914.764 148.073 915.418 148.727 915.884 149.58C916.364 150.42 916.604 151.407 916.604 152.54C916.604 153.66 916.364 154.647 915.884 155.5C915.404 156.353 914.744 157.013 913.904 157.48C913.064 157.933 912.131 158.16 911.104 158.16ZM911.104 156.94C911.824 156.94 912.491 156.78 913.104 156.46C913.718 156.127 914.211 155.633 914.584 154.98C914.971 154.313 915.164 153.5 915.164 152.54C915.164 151.58 914.978 150.773 914.604 150.12C914.231 149.453 913.738 148.96 913.124 148.64C912.511 148.307 911.844 148.14 911.124 148.14C910.404 148.14 909.738 148.307 909.124 148.64C908.511 148.96 908.018 149.453 907.644 150.12C907.284 150.773 907.104 151.58 907.104 152.54C907.104 153.5 907.284 154.313 907.644 154.98C908.018 155.633 908.504 156.127 909.104 156.46C909.718 156.78 910.384 156.94 911.104 156.94ZM921.956 143.2V158H920.556V143.2H921.956Z" fill="white"/>
</g>
<g filter="url(#filter5_bi_585_15170)">
<rect x="682" y="309" width="91" height="34" fill="url(#paint10_radial_585_15170)" fill-opacity="0.35"/>
<rect x="681.699" y="308.699" width="91.6021" height="34.6021" stroke="url(#paint11_linear_585_15170)" stroke-width="0.602107"/>
<path d="M728.79 326.02L733.03 333H731.47L727.91 327.16L724.53 333H722.97L727.19 325.96L722.97 319.02H724.53L728.07 324.84L731.49 319.02H733.05L728.79 326.02Z" fill="white"/>
</g>
<g filter="url(#filter6_bi_585_15170)">
<rect x="791" y="309" width="91" height="34" fill="url(#paint12_radial_585_15170)" fill-opacity="0.35"/>
<rect x="790.699" y="308.699" width="91.6021" height="34.6021" stroke="url(#paint13_linear_585_15170)" stroke-width="0.602107"/>
<path d="M842.195 319.02L837.715 327.56V333H836.315V327.56L831.795 319.02H833.375L837.015 326.28L840.635 319.02H842.195Z" fill="white"/>
</g>
<g filter="url(#filter7_bi_585_15170)">
<rect x="900" y="309" width="91" height="34" fill="url(#paint14_radial_585_15170)" fill-opacity="0.35"/>
<rect x="899.699" y="308.699" width="91.6021" height="34.6021" stroke="url(#paint15_linear_585_15170)" stroke-width="0.602107"/>
<path d="M942.746 331.76H949.886V333H941.106V331.88L948.146 320.26H941.226V319.02H949.786V320.14L942.746 331.76Z" fill="white"/>
</g>
<path d="M836.646 239.36C836.842 239.555 837.158 239.555 837.354 239.36L840.536 236.178C840.731 235.983 840.731 235.666 840.536 235.471C840.34 235.276 840.024 235.276 839.828 235.471L837 238.299L834.172 235.471C833.976 235.276 833.66 235.276 833.464 235.471C833.269 235.666 833.269 235.983 833.464 236.178L836.646 239.36ZM836.5 190.996V239.007H837.5V190.996H836.5Z" fill="white"/>
<path d="M802.646 255.112C801.612 255.112 800.673 254.872 799.83 254.392C798.988 253.901 798.321 253.224 797.83 252.36C797.35 251.485 797.11 250.499 797.11 249.4C797.11 248.301 797.35 247.32 797.83 246.456C798.321 245.581 798.988 244.904 799.83 244.424C800.673 243.933 801.612 243.688 802.646 243.688C803.692 243.688 804.636 243.933 805.478 244.424C806.321 244.904 806.982 245.581 807.462 246.456C807.942 247.32 808.182 248.301 808.182 249.4C808.182 250.499 807.942 251.485 807.462 252.36C806.982 253.224 806.321 253.901 805.478 254.392C804.636 254.872 803.692 255.112 802.646 255.112ZM802.646 254.136C803.478 254.136 804.225 253.944 804.886 253.56C805.548 253.176 806.07 252.627 806.454 251.912C806.838 251.187 807.03 250.349 807.03 249.4C807.03 248.451 806.838 247.619 806.454 246.904C806.07 246.189 805.548 245.64 804.886 245.256C804.225 244.872 803.478 244.68 802.646 244.68C801.814 244.68 801.068 244.872 800.406 245.256C799.745 245.64 799.222 246.189 798.838 246.904C798.454 247.619 798.262 248.451 798.262 249.4C798.262 250.349 798.454 251.187 798.838 251.912C799.222 252.627 799.745 253.176 800.406 253.56C801.068 253.944 801.814 254.136 802.646 254.136ZM819.2 246.264V255H818.08V253.464C817.824 254.008 817.429 254.424 816.896 254.712C816.362 255 815.765 255.144 815.104 255.144C814.058 255.144 813.205 254.824 812.544 254.184C811.882 253.533 811.552 252.595 811.552 251.368V246.264H812.656V251.24C812.656 252.189 812.89 252.915 813.36 253.416C813.84 253.917 814.49 254.168 815.312 254.168C816.154 254.168 816.826 253.901 817.328 253.368C817.829 252.835 818.08 252.051 818.08 251.016V246.264H819.2ZM824.613 247.208V252.632C824.613 253.165 824.714 253.533 824.917 253.736C825.119 253.939 825.477 254.04 825.989 254.04H827.013V255H825.813C825.023 255 824.437 254.819 824.053 254.456C823.669 254.083 823.477 253.475 823.477 252.632V247.208H822.261V246.264H823.477V244.072H824.613V246.264H827.013V247.208H824.613ZM831.364 248.184C831.641 247.597 832.078 247.112 832.676 246.728C833.284 246.333 834.004 246.136 834.836 246.136C835.625 246.136 836.334 246.323 836.964 246.696C837.604 247.059 838.1 247.581 838.452 248.264C838.814 248.936 838.996 249.72 838.996 250.616C838.996 251.512 838.814 252.301 838.452 252.984C838.1 253.667 837.604 254.195 836.964 254.568C836.334 254.941 835.625 255.128 834.836 255.128C834.014 255.128 833.3 254.936 832.692 254.552C832.084 254.157 831.641 253.667 831.364 253.08V259.128H830.26V246.264H831.364V248.184ZM837.86 250.616C837.86 249.891 837.716 249.267 837.428 248.744C837.15 248.211 836.766 247.805 836.276 247.528C835.785 247.251 835.23 247.112 834.612 247.112C834.014 247.112 833.465 247.256 832.964 247.544C832.473 247.832 832.084 248.243 831.796 248.776C831.508 249.309 831.364 249.928 831.364 250.632C831.364 251.336 831.508 251.955 831.796 252.488C832.084 253.021 832.473 253.432 832.964 253.72C833.465 254.008 834.014 254.152 834.612 254.152C835.23 254.152 835.785 254.013 836.276 253.736C836.766 253.448 837.15 253.037 837.428 252.504C837.716 251.96 837.86 251.331 837.86 250.616ZM846.281 255.128C845.459 255.128 844.718 254.947 844.057 254.584C843.406 254.211 842.889 253.688 842.505 253.016C842.131 252.333 841.945 251.539 841.945 250.632C841.945 249.725 842.137 248.936 842.521 248.264C842.905 247.581 843.427 247.059 844.089 246.696C844.75 246.323 845.491 246.136 846.313 246.136C847.134 246.136 847.875 246.323 848.537 246.696C849.209 247.059 849.731 247.581 850.105 248.264C850.489 248.936 850.681 249.725 850.681 250.632C850.681 251.528 850.489 252.317 850.105 253C849.721 253.683 849.193 254.211 848.521 254.584C847.849 254.947 847.102 255.128 846.281 255.128ZM846.281 254.152C846.857 254.152 847.39 254.024 847.881 253.768C848.371 253.501 848.766 253.107 849.065 252.584C849.374 252.051 849.529 251.4 849.529 250.632C849.529 249.864 849.379 249.219 849.081 248.696C848.782 248.163 848.387 247.768 847.897 247.512C847.406 247.245 846.873 247.112 846.297 247.112C845.721 247.112 845.187 247.245 844.697 247.512C844.206 247.768 843.811 248.163 843.513 248.696C843.225 249.219 843.081 249.864 843.081 250.632C843.081 251.4 843.225 252.051 843.513 252.584C843.811 253.107 844.201 253.501 844.681 253.768C845.171 254.024 845.705 254.152 846.281 254.152ZM857.13 255.128C856.128 255.128 855.306 254.899 854.666 254.44C854.037 253.971 853.685 253.336 853.61 252.536H854.762C854.816 253.027 855.045 253.427 855.45 253.736C855.866 254.035 856.421 254.184 857.114 254.184C857.722 254.184 858.197 254.04 858.538 253.752C858.89 253.464 859.066 253.107 859.066 252.68C859.066 252.381 858.97 252.136 858.778 251.944C858.586 251.752 858.341 251.603 858.042 251.496C857.754 251.379 857.36 251.256 856.858 251.128C856.208 250.957 855.68 250.787 855.274 250.616C854.869 250.445 854.522 250.195 854.234 249.864C853.957 249.523 853.818 249.069 853.818 248.504C853.818 248.077 853.946 247.683 854.202 247.32C854.458 246.957 854.821 246.669 855.29 246.456C855.76 246.243 856.293 246.136 856.89 246.136C857.829 246.136 858.586 246.376 859.162 246.856C859.738 247.325 860.048 247.976 860.09 248.808H858.97C858.938 248.296 858.736 247.885 858.362 247.576C858 247.256 857.498 247.096 856.858 247.096C856.293 247.096 855.834 247.229 855.482 247.496C855.13 247.763 854.954 248.093 854.954 248.488C854.954 248.829 855.056 249.112 855.258 249.336C855.472 249.549 855.733 249.72 856.042 249.848C856.352 249.965 856.768 250.099 857.29 250.248C857.92 250.419 858.421 250.584 858.794 250.744C859.168 250.904 859.488 251.139 859.754 251.448C860.021 251.757 860.16 252.168 860.17 252.68C860.17 253.149 860.042 253.571 859.786 253.944C859.53 254.307 859.173 254.595 858.714 254.808C858.256 255.021 857.728 255.128 857.13 255.128ZM865.134 247.208V252.632C865.134 253.165 865.236 253.533 865.438 253.736C865.641 253.939 865.998 254.04 866.51 254.04H867.534V255H866.334C865.545 255 864.958 254.819 864.574 254.456C864.19 254.083 863.998 253.475 863.998 252.632V247.208H862.782V246.264H863.998V244.072H865.134V246.264H867.534V247.208H865.134ZM873.79 255.128C872.787 255.128 871.966 254.899 871.326 254.44C870.696 253.971 870.344 253.336 870.27 252.536H871.422C871.475 253.027 871.704 253.427 872.11 253.736C872.526 254.035 873.08 254.184 873.774 254.184C874.382 254.184 874.856 254.04 875.198 253.752C875.55 253.464 875.726 253.107 875.726 252.68C875.726 252.381 875.63 252.136 875.438 251.944C875.246 251.752 875 251.603 874.702 251.496C874.414 251.379 874.019 251.256 873.518 251.128C872.867 250.957 872.339 250.787 871.934 250.616C871.528 250.445 871.182 250.195 870.894 249.864C870.616 249.523 870.478 249.069 870.478 248.504C870.478 248.077 870.606 247.683 870.862 247.32C871.118 246.957 871.48 246.669 871.95 246.456C872.419 246.243 872.952 246.136 873.55 246.136C874.488 246.136 875.246 246.376 875.822 246.856C876.398 247.325 876.707 247.976 876.75 248.808H875.63C875.598 248.296 875.395 247.885 875.022 247.576C874.659 247.256 874.158 247.096 873.518 247.096C872.952 247.096 872.494 247.229 872.142 247.496C871.79 247.763 871.614 248.093 871.614 248.488C871.614 248.829 871.715 249.112 871.918 249.336C872.131 249.549 872.392 249.72 872.702 249.848C873.011 249.965 873.427 250.099 873.95 250.248C874.579 250.419 875.08 250.584 875.454 250.744C875.827 250.904 876.147 251.139 876.414 251.448C876.68 251.757 876.819 252.168 876.83 252.68C876.83 253.149 876.702 253.571 876.446 253.944C876.19 254.307 875.832 254.595 875.374 254.808C874.915 255.021 874.387 255.128 873.79 255.128Z" fill="white"/>
<path fill-rule="evenodd" clip-rule="evenodd" d="M945 304.992V280.992H729.154V279.992H836.158V261H837.158V279.992H945H945.592H946V304.992H945ZM727.315 279.992V304.992H728.315V279.992H727.315Z" fill="white"/>
<defs>
<filter id="filter0_bi_585_15170" x="-22.6021" y="86.3979" width="356.204" height="128.204" filterUnits="userSpaceOnUse" color-interpolation-filters="sRGB">
<feFlood flood-opacity="0" result="BackgroundImageFix"/>
<feGaussianBlur in="BackgroundImageFix" stdDeviation="11.5002"/>
<feComposite in2="SourceAlpha" operator="in" result="effect1_backgroundBlur_585_15170"/>
<feBlend mode="normal" in="SourceGraphic" in2="effect1_backgroundBlur_585_15170" result="shape"/>
<feColorMatrix in="SourceAlpha" type="matrix" values="0 0 0 0 0 0 0 0 0 0 0 0 0 0 0 0 0 0 127 0" result="hardAlpha"/>
<feOffset dx="3.01054" dy="3.01054"/>
<feGaussianBlur stdDeviation="14.8419"/>
<feComposite in2="hardAlpha" operator="arithmetic" k2="-1" k3="1"/>
<feColorMatrix type="matrix" values="0 0 0 0 0.273161 0 0 0 0 0.273161 0 0 0 0 0.273161 0 0 0 0.1 0"/>
<feBlend mode="normal" in2="shape" result="effect2_innerShadow_585_15170"/>
</filter>
<filter id="filter1_bi_585_15170" x="-22.6021" y="285.398" width="138.204" height="81.2041" filterUnits="userSpaceOnUse" color-interpolation-filters="sRGB">
<feFlood flood-opacity="0" result="BackgroundImageFix"/>
<feGaussianBlur in="BackgroundImageFix" stdDeviation="11.5002"/>
<feComposite in2="SourceAlpha" operator="in" result="effect1_backgroundBlur_585_15170"/>
<feBlend mode="normal" in="SourceGraphic" in2="effect1_backgroundBlur_585_15170" result="shape"/>
<feColorMatrix in="SourceAlpha" type="matrix" values="0 0 0 0 0 0 0 0 0 0 0 0 0 0 0 0 0 0 127 0" result="hardAlpha"/>
<feOffset dx="3.01054" dy="3.01054"/>
<feGaussianBlur stdDeviation="14.8419"/>
<feComposite in2="hardAlpha" operator="arithmetic" k2="-1" k3="1"/>
<feColorMatrix type="matrix" values="0 0 0 0 0.273161 0 0 0 0 0.273161 0 0 0 0 0.273161 0 0 0 0.1 0"/>
<feBlend mode="normal" in2="shape" result="effect2_innerShadow_585_15170"/>
</filter>
<filter id="filter2_bi_585_15170" x="86.3979" y="285.398" width="138.204" height="81.2041" filterUnits="userSpaceOnUse" color-interpolation-filters="sRGB">
<feFlood flood-opacity="0" result="BackgroundImageFix"/>
<feGaussianBlur in="BackgroundImageFix" stdDeviation="11.5002"/>
<feComposite in2="SourceAlpha" operator="in" result="effect1_backgroundBlur_585_15170"/>
<feBlend mode="normal" in="SourceGraphic" in2="effect1_backgroundBlur_585_15170" result="shape"/>
<feColorMatrix in="SourceAlpha" type="matrix" values="0 0 0 0 0 0 0 0 0 0 0 0 0 0 0 0 0 0 127 0" result="hardAlpha"/>
<feOffset dx="3.01054" dy="3.01054"/>
<feGaussianBlur stdDeviation="14.8419"/>
<feComposite in2="hardAlpha" operator="arithmetic" k2="-1" k3="1"/>
<feColorMatrix type="matrix" values="0 0 0 0 0.273161 0 0 0 0 0.273161 0 0 0 0 0.273161 0 0 0 0.1 0"/>
<feBlend mode="normal" in2="shape" result="effect2_innerShadow_585_15170"/>
</filter>
<filter id="filter3_bi_585_15170" x="195.398" y="285.398" width="138.204" height="81.2041" filterUnits="userSpaceOnUse" color-interpolation-filters="sRGB">
<feFlood flood-opacity="0" result="BackgroundImageFix"/>
<feGaussianBlur in="BackgroundImageFix" stdDeviation="11.5002"/>
<feComposite in2="SourceAlpha" operator="in" result="effect1_backgroundBlur_585_15170"/>
<feBlend mode="normal" in="SourceGraphic" in2="effect1_backgroundBlur_585_15170" result="shape"/>
<feColorMatrix in="SourceAlpha" type="matrix" values="0 0 0 0 0 0 0 0 0 0 0 0 0 0 0 0 0 0 127 0" result="hardAlpha"/>
<feOffset dx="3.01054" dy="3.01054"/>
<feGaussianBlur stdDeviation="14.8419"/>
<feComposite in2="hardAlpha" operator="arithmetic" k2="-1" k3="1"/>
<feColorMatrix type="matrix" values="0 0 0 0 0.273161 0 0 0 0 0.273161 0 0 0 0 0.273161 0 0 0 0.1 0"/>
<feBlend mode="normal" in2="shape" result="effect2_innerShadow_585_15170"/>
</filter>
<filter id="filter4_bi_585_15170" x="658.398" y="86.3979" width="356.204" height="128.204" filterUnits="userSpaceOnUse" color-interpolation-filters="sRGB">
<feFlood flood-opacity="0" result="BackgroundImageFix"/>
<feGaussianBlur in="BackgroundImageFix" stdDeviation="11.5002"/>
<feComposite in2="SourceAlpha" operator="in" result="effect1_backgroundBlur_585_15170"/>
<feBlend mode="normal" in="SourceGraphic" in2="effect1_backgroundBlur_585_15170" result="shape"/>
<feColorMatrix in="SourceAlpha" type="matrix" values="0 0 0 0 0 0 0 0 0 0 0 0 0 0 0 0 0 0 127 0" result="hardAlpha"/>
<feOffset dx="3.01054" dy="3.01054"/>
<feGaussianBlur stdDeviation="14.8419"/>
<feComposite in2="hardAlpha" operator="arithmetic" k2="-1" k3="1"/>
<feColorMatrix type="matrix" values="0 0 0 0 0.273161 0 0 0 0 0.273161 0 0 0 0 0.273161 0 0 0 0.1 0"/>
<feBlend mode="normal" in2="shape" result="effect2_innerShadow_585_15170"/>
</filter>
<filter id="filter5_bi_585_15170" x="658.398" y="285.398" width="138.204" height="81.2041" filterUnits="userSpaceOnUse" color-interpolation-filters="sRGB">
<feFlood flood-opacity="0" result="BackgroundImageFix"/>
<feGaussianBlur in="BackgroundImageFix" stdDeviation="11.5002"/>
<feComposite in2="SourceAlpha" operator="in" result="effect1_backgroundBlur_585_15170"/>
<feBlend mode="normal" in="SourceGraphic" in2="effect1_backgroundBlur_585_15170" result="shape"/>
<feColorMatrix in="SourceAlpha" type="matrix" values="0 0 0 0 0 0 0 0 0 0 0 0 0 0 0 0 0 0 127 0" result="hardAlpha"/>
<feOffset dx="3.01054" dy="3.01054"/>
<feGaussianBlur stdDeviation="14.8419"/>
<feComposite in2="hardAlpha" operator="arithmetic" k2="-1" k3="1"/>
<feColorMatrix type="matrix" values="0 0 0 0 0.273161 0 0 0 0 0.273161 0 0 0 0 0.273161 0 0 0 0.1 0"/>
<feBlend mode="normal" in2="shape" result="effect2_innerShadow_585_15170"/>
</filter>
<filter id="filter6_bi_585_15170" x="767.398" y="285.398" width="138.204" height="81.2041" filterUnits="userSpaceOnUse" color-interpolation-filters="sRGB">
<feFlood flood-opacity="0" result="BackgroundImageFix"/>
<feGaussianBlur in="BackgroundImageFix" stdDeviation="11.5002"/>
<feComposite in2="SourceAlpha" operator="in" result="effect1_backgroundBlur_585_15170"/>
<feBlend mode="normal" in="SourceGraphic" in2="effect1_backgroundBlur_585_15170" result="shape"/>
<feColorMatrix in="SourceAlpha" type="matrix" values="0 0 0 0 0 0 0 0 0 0 0 0 0 0 0 0 0 0 127 0" result="hardAlpha"/>
<feOffset dx="3.01054" dy="3.01054"/>
<feGaussianBlur stdDeviation="14.8419"/>
<feComposite in2="hardAlpha" operator="arithmetic" k2="-1" k3="1"/>
<feColorMatrix type="matrix" values="0 0 0 0 0.273161 0 0 0 0 0.273161 0 0 0 0 0.273161 0 0 0 0.1 0"/>
<feBlend mode="normal" in2="shape" result="effect2_innerShadow_585_15170"/>
</filter>
<filter id="filter7_bi_585_15170" x="876.398" y="285.398" width="138.204" height="81.2041" filterUnits="userSpaceOnUse" color-interpolation-filters="sRGB">
<feFlood flood-opacity="0" result="BackgroundImageFix"/>
<feGaussianBlur in="BackgroundImageFix" stdDeviation="11.5002"/>
<feComposite in2="SourceAlpha" operator="in" result="effect1_backgroundBlur_585_15170"/>
<feBlend mode="normal" in="SourceGraphic" in2="effect1_backgroundBlur_585_15170" result="shape"/>
<feColorMatrix in="SourceAlpha" type="matrix" values="0 0 0 0 0 0 0 0 0 0 0 0 0 0 0 0 0 0 127 0" result="hardAlpha"/>
<feOffset dx="3.01054" dy="3.01054"/>
<feGaussianBlur stdDeviation="14.8419"/>
<feComposite in2="hardAlpha" operator="arithmetic" k2="-1" k3="1"/>
<feColorMatrix type="matrix" values="0 0 0 0 0.273161 0 0 0 0 0.273161 0 0 0 0 0.273161 0 0 0 0.1 0"/>
<feBlend mode="normal" in2="shape" result="effect2_innerShadow_585_15170"/>
</filter>
<radialGradient id="paint0_radial_585_15170" cx="0" cy="0" r="1" gradientUnits="userSpaceOnUse" gradientTransform="translate(155.5 111.209) rotate(90) scale(79.791 304.387)">
<stop stop-color="#0044AA" stop-opacity="0.77"/>
<stop offset="1" stop-color="#041420" stop-opacity="0"/>
</radialGradient>
<linearGradient id="paint1_linear_585_15170" x1="155.5" y1="110" x2="155.023" y2="199.024" gradientUnits="userSpaceOnUse">
<stop stop-color="#8087C7"/>
<stop offset="1" stop-color="#ABABAB"/>
</linearGradient>
<radialGradient id="paint2_radial_585_15170" cx="0" cy="0" r="1" gradientUnits="userSpaceOnUse" gradientTransform="translate(46.5 309.507) rotate(90) scale(33.4925 89.6416)">
<stop stop-color="#0044AA" stop-opacity="0.77"/>
<stop offset="1" stop-color="#041420" stop-opacity="0"/>
</radialGradient>
<linearGradient id="paint3_linear_585_15170" x1="46.5" y1="309" x2="46.2144" y2="346.367" gradientUnits="userSpaceOnUse">
<stop stop-color="#8087C7"/>
<stop offset="1" stop-color="#ABABAB"/>
</linearGradient>
<radialGradient id="paint4_radial_585_15170" cx="0" cy="0" r="1" gradientUnits="userSpaceOnUse" gradientTransform="translate(155.5 309.507) rotate(90) scale(33.4925 89.6416)">
<stop stop-color="#0044AA" stop-opacity="0.77"/>
<stop offset="1" stop-color="#041420" stop-opacity="0"/>
</radialGradient>
<linearGradient id="paint5_linear_585_15170" x1="155.5" y1="309" x2="155.214" y2="346.367" gradientUnits="userSpaceOnUse">
<stop stop-color="#8087C7"/>
<stop offset="1" stop-color="#ABABAB"/>
</linearGradient>
<radialGradient id="paint6_radial_585_15170" cx="0" cy="0" r="1" gradientUnits="userSpaceOnUse" gradientTransform="translate(264.5 309.507) rotate(90) scale(33.4925 89.6416)">
<stop stop-color="#0044AA" stop-opacity="0.77"/>
<stop offset="1" stop-color="#041420" stop-opacity="0"/>
</radialGradient>
<linearGradient id="paint7_linear_585_15170" x1="264.5" y1="309" x2="264.214" y2="346.367" gradientUnits="userSpaceOnUse">
<stop stop-color="#8087C7"/>
<stop offset="1" stop-color="#ABABAB"/>
</linearGradient>
<radialGradient id="paint8_radial_585_15170" cx="0" cy="0" r="1" gradientUnits="userSpaceOnUse" gradientTransform="translate(836.5 111.209) rotate(90) scale(79.791 304.387)">
<stop stop-color="#707070"/>
<stop offset="1" stop-color="#041420" stop-opacity="0"/>
</radialGradient>
<linearGradient id="paint9_linear_585_15170" x1="836.5" y1="110" x2="836.023" y2="199.024" gradientUnits="userSpaceOnUse">
<stop stop-color="#487271"/>
<stop offset="1" stop-color="#ABABAB"/>
</linearGradient>
<radialGradient id="paint10_radial_585_15170" cx="0" cy="0" r="1" gradientUnits="userSpaceOnUse" gradientTransform="translate(727.5 309.507) rotate(90) scale(33.4925 89.6416)">
<stop stop-color="#707070"/>
<stop offset="1" stop-color="#041420" stop-opacity="0"/>
</radialGradient>
<linearGradient id="paint11_linear_585_15170" x1="727.5" y1="309" x2="727.214" y2="346.367" gradientUnits="userSpaceOnUse">
<stop stop-color="#487271"/>
<stop offset="1" stop-color="#ABABAB"/>
</linearGradient>
<radialGradient id="paint12_radial_585_15170" cx="0" cy="0" r="1" gradientUnits="userSpaceOnUse" gradientTransform="translate(836.5 309.507) rotate(90) scale(33.4925 89.6416)">
<stop stop-color="#707070"/>
<stop offset="1" stop-color="#041420" stop-opacity="0"/>
</radialGradient>
<linearGradient id="paint13_linear_585_15170" x1="836.5" y1="309" x2="836.214" y2="346.367" gradientUnits="userSpaceOnUse">
<stop stop-color="#487271"/>
<stop offset="1" stop-color="#ABABAB"/>
</linearGradient>
<radialGradient id="paint14_radial_585_15170" cx="0" cy="0" r="1" gradientUnits="userSpaceOnUse" gradientTransform="translate(945.5 309.507) rotate(90) scale(33.4925 89.6416)">
<stop stop-color="#707070"/>
<stop offset="1" stop-color="#041420" stop-opacity="0"/>
</radialGradient>
<linearGradient id="paint15_linear_585_15170" x1="945.5" y1="309" x2="945.214" y2="346.367" gradientUnits="userSpaceOnUse">
<stop stop-color="#487271"/>
<stop offset="1" stop-color="#ABABAB"/>
</linearGradient>
</defs>
</svg>
