<svg width="495" height="318" fill="none" xmlns="http://www.w3.org/2000/svg"><path fill-rule="evenodd" clip-rule="evenodd" d="M29 .5a.5.5 0 00-1 0v198h464.5v-1H29V.5z" fill="#fff"/><path d="M7.485 111.503h-.78v-1.992c0-.505-.131-.895-.392-1.172-.263-.277-.626-.415-1.088-.415h-.01c-.466 0-.829.138-1.089.415-.26.277-.39.667-.39 1.172v1.992h-.782v-2.217c0-.443.095-.833.283-1.172.19-.338.453-.604.791-.796.339-.195.731-.293 1.177-.293h.01c.446 0 .84.098 1.181.293.342.192.61.458.801.796.192.339.288.729.288 1.172v2.217zm2.515.439H2.954v-.879H10v.879zm0-6.357H2.954v-2.69c0-.453.088-.847.264-1.182.172-.339.415-.601.727-.786.313-.186.68-.279 1.104-.279h.01c.488 0 .911.126 1.27.376.357.251.606.598.746 1.04l2.925-1.63v1.03l-2.788 1.509v1.733H10v.879zm-3.57-.879v-1.733c0-.453-.115-.801-.346-1.045-.234-.248-.566-.371-.996-.371h-.01c-.42 0-.749.128-.986.385-.238.258-.357.614-.357 1.07v1.694h2.696zM10 99.052H2.954v-.88H10v.88zm.166-5.513c0 .638-.15 1.19-.45 1.655-.299.466-.723.825-1.274 1.08-.55.25-1.202.375-1.958.375h-.01c-.758 0-1.412-.125-1.962-.376-.55-.254-.975-.611-1.275-1.074-.3-.465-.449-1.017-.449-1.655 0-.495.098-.944.293-1.348.192-.407.46-.742.806-1.006.342-.263.737-.43 1.186-.498l.01.005v.884l-.01.005c-.302.078-.563.21-.781.395a1.886 1.886 0 00-.513.68c-.12.263-.18.557-.18.883 0 .45.117.84.351 1.172.235.329.567.583.996.762.43.179.94.268 1.529.268h.01c.585 0 1.093-.09 1.523-.268.43-.18.762-.433.996-.762.234-.332.351-.724.351-1.177a2.44 2.44 0 00-.156-.894 1.853 1.853 0 00-.454-.673 1.646 1.646 0 00-.703-.381l-.01-.01v-.889h.01c.43.079.804.248 1.123.508.316.26.562.591.737.991.176.397.264.847.264 1.348zM10 89.218H2.954v-4.365h.791v3.486h2.26v-3.306h.782v3.306H9.21v-3.486H10v4.365zM218.063 223v-7.046h1.021l2.412 5.879h.078l2.412-5.879h1.021V223h-.82v-5.381h-.43l.986-1.47-2.837 6.851h-.742l-2.832-6.851.981 1.47h-.429V223h-.821zm8.179 0l2.598-7.046h.674v1.138h-.279l-2.07 5.908h-.923zm1.177-2.017l.273-.747h3.184l.273.747h-3.73zm3.965 2.017l-2.071-5.908v-1.138h.396l2.598 7.046h-.923zm3.159 0v-6.255h-2.271v-.791h5.42v.791h-2.27V223h-.879zm7.3.166c-.583 0-1.084-.109-1.504-.327a2.338 2.338 0 01-.962-.908c-.225-.391-.337-.842-.337-1.353v-4.624h.879v4.566c0 .54.168.981.503 1.323.338.342.812.512 1.421.512.612 0 1.084-.17 1.416-.512.332-.342.498-.783.498-1.323v-4.566h.879v4.624c0 .511-.113.962-.337 1.353-.222.387-.541.69-.957.908-.417.218-.917.327-1.499.327zm4.58-.166v-7.046h2.69c.453 0 .847.088 1.182.264.338.172.601.415.786.727.186.313.278.681.278 1.104v.01c0 .488-.125.911-.376 1.269a1.94 1.94 0 01-1.04.747l1.631 2.925h-1.03l-1.509-2.788H247.302V223h-.879zm.879-3.569h1.733c.453 0 .801-.116 1.045-.347.247-.234.371-.566.371-.996v-.01c0-.42-.128-.749-.386-.986-.257-.238-.613-.357-1.069-.357h-1.694v2.696zm5.654 3.569v-7.046h.879V223h-.879zm4.507 0v-6.255h-2.271v-.791h5.42v.791h-2.27V223h-.879zm6.445 0v-3.032l-2.5-4.014h1.001l1.9 3.13h.078l1.899-3.13h1.001l-2.5 4.014V223h-.879zm9.097 1.758a6.576 6.576 0 01-.781-1.338 7.076 7.076 0 01-.459-1.509 9.46 9.46 0 01-.147-1.709c0-.605.049-1.173.147-1.704a6.846 6.846 0 01.454-1.509 6.42 6.42 0 01.786-1.343h.713a4.09 4.09 0 00-.493.85c-.15.342-.28.719-.391 1.133-.111.41-.197.836-.259 1.279-.062.44-.093.871-.093 1.294 0 .427.031.861.093 1.304.062.439.148.866.259 1.279.111.41.241.785.391 1.123.153.342.317.625.493.85h-.713zm2.148-1.758v-7.046h2.417c.697 0 1.293.14 1.787.42a2.76 2.76 0 011.143 1.201c.264.524.396 1.156.396 1.895v.009c0 .739-.132 1.373-.396 1.9a2.795 2.795 0 01-1.138 1.206c-.494.277-1.092.415-1.792.415h-2.417zm.879-.791h1.48c.524 0 .971-.107 1.342-.322a2.09 2.09 0 00.85-.933c.195-.407.293-.895.293-1.465v-.01c0-.572-.099-1.062-.298-1.469a2.09 2.09 0 00-.849-.938c-.371-.218-.817-.327-1.338-.327h-1.48v5.464zm5.484.791l2.597-7.046h.674v1.138h-.278L282.438 223h-.922zm1.176-2.017l.274-.747h3.183l.274.747h-3.731zm3.965 2.017l-2.07-5.908v-1.138h.395L287.58 223h-.923zm3.364 0v-3.032l-2.5-4.014h1.001l1.9 3.13h.078l1.899-3.13h1.001l-2.5 4.014V223h-.879zm6.827.166c-.515 0-.964-.083-1.348-.249a2.278 2.278 0 01-.908-.693 1.971 1.971 0 01-.386-1.016l-.005-.054h.879l.005.054c.023.234.112.438.269.61.159.17.371.301.634.396.267.094.57.141.908.141.319 0 .603-.05.85-.151.251-.104.448-.247.591-.43a.99.99 0 00.215-.629v-.005a.966.966 0 00-.323-.738c-.214-.201-.564-.356-1.049-.464l-.782-.17c-.706-.157-1.22-.398-1.543-.723-.319-.329-.478-.749-.478-1.26v-.005c.003-.39.109-.735.317-1.035.212-.299.503-.534.874-.703a3.105 3.105 0 011.289-.254c.469 0 .884.085 1.246.254.361.166.647.391.859.674.215.283.334.6.356.952l.005.068h-.879l-.009-.063a1.104 1.104 0 00-.254-.552 1.401 1.401 0 00-.547-.386 2.02 2.02 0 00-.801-.136 2.17 2.17 0 00-.791.136 1.322 1.322 0 00-.562.396.965.965 0 00-.205.625v.005c0 .28.105.516.313.708.208.192.552.34 1.03.444l.781.176c.736.163 1.262.399 1.578.708.315.309.473.718.473 1.225v.005c0 .44-.107.819-.322 1.138a2.11 2.11 0 01-.908.742c-.391.173-.848.259-1.372.259zm4.419 1.592h-.713c.175-.225.338-.508.488-.85a7.44 7.44 0 00.396-1.123c.11-.413.196-.84.258-1.279.062-.443.093-.877.093-1.304 0-.423-.031-.854-.093-1.294a10.6 10.6 0 00-.258-1.279 7.576 7.576 0 00-.396-1.133 4.002 4.002 0 00-.488-.85h.713c.319.42.581.868.786 1.343a6.9 6.9 0 01.454 1.509 9.48 9.48 0 01.146 1.704c0 .606-.05 1.175-.151 1.709a6.9 6.9 0 01-.454 1.509 6.31 6.31 0 01-.781 1.338z" fill="#CDCDCD"/><path d="M28.496 120l46.698-18.055A719.994 719.994 0 01334.836 53.5H494" stroke="#fff"/><path d="M10.166 313.185c0 .582-.109 1.084-.327 1.503a2.33 2.33 0 01-.908.962c-.391.225-.842.337-1.353.337H2.954v-.879H7.52c.54 0 .981-.167 1.323-.503.342-.338.512-.812.512-1.42 0-.612-.17-1.084-.512-1.416-.342-.332-.783-.498-1.323-.498H2.954v-.879h4.624c.511 0 .962.112 1.353.337.387.221.69.54.908.957.218.416.327.916.327 1.499zM10 308.604H2.954v-.854l5.791-4.038-.307.586v-.449H2.954v-.87H10v.855l-5.771 4.038.307-.586v.449H10v.869zm0-7.421H2.954v-.879H10v.879zm0-2.676H2.954v-4.278h.791v3.399h2.422v-3.12h.781v3.12H10v.879zm0-5.723H2.954v-.879H10v.879zm0-2.676H2.954v-4.365h.791v3.486h2.26v-3.305h.782v3.305H9.21v-3.486H10v4.365zm0-5.957H2.954v-2.417c0-.696.14-1.292.42-1.787a2.75 2.75 0 011.201-1.142c.524-.264 1.156-.396 1.895-.396h.01c.738 0 1.372.132 1.899.396.524.263.926.643 1.206 1.137.277.495.415 1.093.415 1.792v2.417zm-.791-.879v-1.479c0-.524-.107-.972-.322-1.343a2.092 2.092 0 00-.933-.849c-.407-.196-.895-.293-1.465-.293h-.01c-.572 0-1.062.099-1.47.297-.41.196-.722.479-.937.85-.218.371-.327.817-.327 1.338v1.479H9.21zm-1.724-9.638h-.78v-1.992c0-.505-.131-.896-.392-1.172-.263-.277-.626-.415-1.088-.415h-.01c-.466 0-.829.138-1.089.415-.26.276-.39.667-.39 1.172v1.992h-.782v-2.217c0-.443.095-.833.283-1.172.19-.338.453-.604.791-.796.339-.195.731-.293 1.177-.293h.01c.446 0 .84.098 1.181.293.342.192.61.458.801.796.192.339.288.729.288 1.172v2.217zm2.515.439H2.954v-.879H10v.879zm.166-9.316c0 .674-.15 1.251-.45 1.733a2.97 2.97 0 01-1.283 1.114c-.554.257-1.205.385-1.954.385h-.01c-.754 0-1.407-.13-1.957-.39a2.973 2.973 0 01-1.275-1.119c-.3-.485-.449-1.059-.449-1.723 0-.667.15-1.242.45-1.724.299-.485.725-.858 1.279-1.118.55-.26 1.2-.391 1.953-.391h.01c.748 0 1.4.131 1.953.391.55.257.976.628 1.279 1.113.303.482.454 1.058.454 1.729zm-.81 0c0-.482-.12-.897-.357-1.245a2.29 2.29 0 00-1.001-.806c-.433-.189-.94-.283-1.519-.283h-.01c-.585 0-1.093.094-1.523.283-.43.189-.761.457-.996.806-.234.348-.351.763-.351 1.245 0 .478.117.892.351 1.24.235.348.567.619.996.811.43.188.938.283 1.524.283h.01c.579 0 1.085-.093 1.518-.279.43-.185.763-.452 1.001-.8.238-.349.356-.767.356-1.255zm.81-7.715c0 .674-.15 1.252-.45 1.733a2.97 2.97 0 01-1.283 1.114c-.554.257-1.205.385-1.954.385h-.01c-.754 0-1.407-.13-1.957-.39a2.978 2.978 0 01-1.275-1.118c-.3-.485-.449-1.06-.449-1.724 0-.667.15-1.242.45-1.724.299-.485.725-.857 1.279-1.118.55-.26 1.2-.39 1.953-.39h.01c.748 0 1.4.13 1.953.39.55.257.976.628 1.279 1.113.303.482.454 1.058.454 1.729zm-.81 0c0-.482-.12-.897-.357-1.245a2.298 2.298 0 00-1.001-.806c-.433-.189-.94-.283-1.519-.283h-.01c-.585 0-1.093.094-1.523.283-.43.189-.761.458-.996.806-.234.348-.351.763-.351 1.245 0 .479.117.892.351 1.24.235.349.567.619.996.811.43.189.938.283 1.524.283h.01c.579 0 1.085-.093 1.518-.278.43-.186.763-.453 1.001-.801.238-.348.356-.767.356-1.255zm.644-4.756H2.954v-.879H9.21v-3.398H10v4.277zm.166-7.993c0 .514-.083.964-.249 1.348-.17.38-.4.683-.693.908-.297.221-.635.35-1.016.386l-.054.004v-.878l.054-.005c.234-.023.438-.113.61-.269.17-.159.301-.371.396-.635.094-.267.141-.569.141-.908 0-.319-.05-.602-.15-.849a1.426 1.426 0 00-.43-.591.987.987 0 00-.63-.215H8.14a.963.963 0 00-.738.322c-.201.215-.356.565-.464 1.05l-.17.781c-.157.707-.398 1.221-.723 1.543-.329.319-.749.479-1.26.479H4.78a1.796 1.796 0 01-1.035-.318 2.115 2.115 0 01-.703-.874 3.097 3.097 0 01-.254-1.289c0-.469.085-.884.254-1.245.166-.361.39-.648.674-.859.283-.215.6-.334.952-.357l.068-.005v.879l-.063.01a1.092 1.092 0 00-.552.254 1.397 1.397 0 00-.386.547c-.094.228-.14.495-.136.801 0 .293.045.556.136.791.091.234.223.421.396.561.17.137.377.205.625.205h.005c.28 0 .516-.104.708-.312.192-.209.34-.552.444-1.031l.176-.781c.163-.735.399-1.261.708-1.577.31-.316.718-.474 1.225-.474h.005c.44 0 .819.108 1.138.323.32.215.566.517.742.908.173.391.259.848.259 1.372z" fill="#CDCDCD"/><g clip-path="url(#prefix__clip0_659_4638)"><path d="M28 242h465v59c0 7.542 0 11.314-2.343 13.657S484.542 317 477 317H44c-7.542 0-11.314 0-13.657-2.343S28 308.542 28 301v-59z" fill="url(#prefix__paint0_linear_659_4638)"/><path d="M28 306.5h-.5v1h.5v-1zm10 1a.5.5 0 000-1v1zm-10 0h10v-1H28v1zM28 301.5h-.5v1h.5v-1zm5 1a.5.5 0 000-1v1zm-5 0h5v-1h-5v1zM28 286.5h-.5v1h.5v-1zm5 1a.5.5 0 000-1v1zm-5 0h5v-1h-5v1zM28 271.5h-.5v1h.5v-1zm5 1a.5.5 0 000-1v1zm-5 0h5v-1h-5v1zM28 256.5h-.5v1h.5v-1zm5 1a.5.5 0 000-1v1zm-5 0h5v-1h-5v1zM28 296.5h-.5v1h.5v-1zm5 1a.5.5 0 000-1v1zm-5 0h5v-1h-5v1zM28 281.5h-.5v1h.5v-1zm5 1a.5.5 0 000-1v1zm-5 0h5v-1h-5v1zM28 266.5h-.5v1h.5v-1zm5 1a.5.5 0 000-1v1zm-5 0h5v-1h-5v1zM28 251.5h-.5v1h.5v-1zm5 1a.5.5 0 000-1v1zm-5 0h5v-1h-5v1zM28 291.5h-.5v1h.5v-1zm10 1a.5.5 0 000-1v1zm-10 0h10v-1H28v1zM28 276.5h-.5v1h.5v-1zm10 1a.5.5 0 000-1v1zm-10 0h10v-1H28v1zM28 261.5h-.5v1h.5v-1zm10 1a.5.5 0 000-1v1zm-10 0h10v-1H28v1zM28 246.5h-.5v1h.5v-1zm10 1a.5.5 0 000-1v1zm-10 0h10v-1H28v1z" fill="#CCCDCD"/></g><path d="M28 242h465H28zm465.5 67a8.5 8.5 0 01-8.5 8.5H36a8.5 8.5 0 01-8.5-8.5h1a7.5 7.5 0 007.5 7.5h449a7.5 7.5 0 007.5-7.5h1zM36 317.5a8.5 8.5 0 01-8.5-8.5v-67h1v67a7.5 7.5 0 007.5 7.5v1zM493.5 242v67a8.5 8.5 0 01-8.5 8.5v-1a7.5 7.5 0 007.5-7.5v-67h1z" fill="#CCCDCD"/><path opacity=".5" d="M493 247.5c0 2.486-104.095 4.5-232.5 4.5S28 249.985 28 247.5c0-2.486 104.095-4.5 232.5-4.5s232.5 2.015 232.5 4.5z" fill="#000"/><path opacity=".5" d="M493 245c0 2.762-104.095 5-232.5 5S28 247.761 28 245c0-2.762 104.095-5 232.5-5s232.5 2.239 232.5 5z" fill="#0ABAB5"/><defs><linearGradient id="prefix__paint0_linear_659_4638" x1="260.5" y1="242" x2="260.501" y2="248" gradientUnits="userSpaceOnUse"><stop stop-opacity="0"/><stop offset="1" stop-color="#06B7D0" stop-opacity=".39"/></linearGradient><clipPath id="prefix__clip0_659_4638"><path d="M28 242h465v59c0 7.542 0 11.314-2.343 13.657S484.542 317 477 317H44c-7.542 0-11.314 0-13.657-2.343S28 308.542 28 301v-59z" fill="#fff"/></clipPath></defs></svg>