<svg width="495" height="318" viewBox="0 0 495 318" fill="none" xmlns="http://www.w3.org/2000/svg">
<path fill-rule="evenodd" clip-rule="evenodd" d="M29 0.5C29 0.223858 28.7761 0 28.5 0C28.2239 0 28 0.223858 28 0.5V197.5V198.5H29H492H492.5V197.5H492H29V0.5Z" fill="white"/>
<path d="M7.48535 111.503H6.7041V109.511C6.7041 109.006 6.57389 108.616 6.31348 108.339C6.0498 108.062 5.68685 107.924 5.22461 107.924H5.21484C4.74935 107.924 4.38639 108.062 4.12598 108.339C3.86556 108.616 3.73535 109.006 3.73535 109.511V111.503H2.9541L2.9541 109.286C2.9541 108.843 3.0485 108.453 3.2373 108.114C3.42611 107.776 3.68978 107.51 4.02832 107.318C4.36686 107.123 4.75911 107.025 5.20508 107.025H5.21484C5.66081 107.025 6.05469 107.123 6.39648 107.318C6.73828 107.51 7.00521 107.776 7.19727 108.114C7.38932 108.453 7.48535 108.843 7.48535 109.286V111.503ZM10 111.942H2.9541V111.063H10V111.942ZM10 105.585H2.9541V102.895C2.9541 102.442 3.04199 102.048 3.21777 101.713C3.3903 101.374 3.63281 101.112 3.94531 100.927C4.25781 100.741 4.62565 100.648 5.04883 100.648H5.05859C5.54688 100.648 5.97005 100.774 6.32813 101.024C6.6862 101.275 6.93522 101.622 7.0752 102.064L10 100.434V101.464L7.21191 102.973C7.21191 102.979 7.21191 102.987 7.21191 102.997C7.21191 103.007 7.21191 103.015 7.21191 103.021V104.706H10V105.585ZM6.43066 104.706V102.973C6.43066 102.52 6.3151 102.172 6.08398 101.928C5.84961 101.68 5.51758 101.557 5.08789 101.557H5.07813C4.6582 101.557 4.32943 101.685 4.0918 101.942C3.85417 102.2 3.73535 102.556 3.73535 103.012V104.706H6.43066ZM10 99.0518H2.9541V98.1729H10L10 99.0518ZM10.166 93.5391C10.166 94.1771 10.0163 94.7288 9.7168 95.1943C9.41732 95.6598 8.99251 96.0195 8.44238 96.2734C7.89225 96.5241 7.23958 96.6494 6.48438 96.6494H6.47461C5.71615 96.6494 5.06185 96.5241 4.51172 96.2734C3.96159 96.0195 3.53678 95.6615 3.2373 95.1992C2.93783 94.7337 2.78809 94.182 2.78809 93.5439C2.78809 93.0492 2.88574 92.5999 3.08105 92.1963C3.27311 91.7894 3.54167 91.4541 3.88672 91.1904C4.22852 90.9268 4.62402 90.7607 5.07324 90.6924L5.08301 90.6973L5.08301 91.5811L5.07324 91.5859C4.77051 91.6641 4.51009 91.7959 4.29199 91.9814C4.07064 92.167 3.89974 92.3932 3.7793 92.6602C3.65885 92.9238 3.59863 93.2184 3.59863 93.5439C3.59863 93.9932 3.71582 94.3838 3.9502 94.7158C4.18457 95.0446 4.5166 95.2985 4.94629 95.4775C5.37598 95.6566 5.88542 95.7461 6.47461 95.7461H6.48438C7.07031 95.7461 7.57813 95.6566 8.00781 95.4775C8.4375 95.2985 8.76953 95.0446 9.00391 94.7158C9.23828 94.3838 9.35547 93.9915 9.35547 93.5391C9.35547 93.2103 9.30339 92.9124 9.19922 92.6455C9.0918 92.3786 8.94043 92.154 8.74512 91.9717C8.54655 91.7894 8.31217 91.6624 8.04199 91.5908L8.03223 91.5811V90.6924H8.04199C8.47168 90.7705 8.84603 90.9398 9.16504 91.2002C9.48079 91.4606 9.72656 91.791 9.90234 92.1914C10.0781 92.5885 10.166 93.0378 10.166 93.5391ZM10 89.2178H2.9541L2.9541 84.8525H3.74512L3.74512 88.3389H6.00586V85.0332H6.78711V88.3389H9.20898V84.8525H10V89.2178Z" fill="#CDCDCD"/>
<path d="M218.063 223V215.954H219.084L221.496 221.833H221.574L223.986 215.954H225.007V223H224.187V217.619H223.757L224.743 216.149L221.906 223H221.164L218.332 216.149L219.313 217.619H218.884V223H218.063ZM226.242 223L228.84 215.954H229.514V217.092H229.235L227.165 223H226.242ZM227.419 220.983L227.692 220.236H230.876L231.149 220.983H227.419ZM231.384 223L229.313 217.092V215.954H229.709L232.307 223H231.384ZM234.543 223V216.745H232.272V215.954H237.692V216.745H235.422V223H234.543ZM241.843 223.166C241.26 223.166 240.759 223.057 240.339 222.839C239.922 222.621 239.602 222.318 239.377 221.931C239.152 221.54 239.04 221.089 239.04 220.578V215.954H239.919V220.52C239.919 221.06 240.087 221.501 240.422 221.843C240.76 222.185 241.234 222.355 241.843 222.355C242.455 222.355 242.927 222.185 243.259 221.843C243.591 221.501 243.757 221.06 243.757 220.52V215.954H244.636V220.578C244.636 221.089 244.523 221.54 244.299 221.931C244.077 222.318 243.758 222.621 243.342 222.839C242.925 223.057 242.425 223.166 241.843 223.166ZM246.423 223V215.954H249.113C249.566 215.954 249.96 216.042 250.295 216.218C250.633 216.39 250.896 216.633 251.081 216.945C251.267 217.258 251.359 217.626 251.359 218.049V218.059C251.359 218.547 251.234 218.97 250.983 219.328C250.733 219.686 250.386 219.935 249.943 220.075L251.574 223H250.544L249.035 220.212C249.029 220.212 249.021 220.212 249.011 220.212C249.001 220.212 248.993 220.212 248.986 220.212H247.302V223H246.423ZM247.302 219.431H249.035C249.488 219.431 249.836 219.315 250.08 219.084C250.327 218.85 250.451 218.518 250.451 218.088V218.078C250.451 217.658 250.323 217.329 250.065 217.092C249.808 216.854 249.452 216.735 248.996 216.735H247.302V219.431ZM252.956 223V215.954H253.835V223H252.956ZM257.463 223V216.745H255.192V215.954H260.612V216.745H258.342V223H257.463ZM263.908 223V219.968L261.408 215.954H262.409L264.309 219.084H264.387L266.286 215.954H267.287L264.787 219.968V223H263.908ZM273.005 224.758C272.689 224.338 272.429 223.892 272.224 223.42C272.019 222.948 271.866 222.445 271.765 221.911C271.667 221.377 271.618 220.808 271.618 220.202C271.618 219.597 271.667 219.029 271.765 218.498C271.862 217.964 272.014 217.461 272.219 216.989C272.424 216.514 272.686 216.066 273.005 215.646H273.718C273.542 215.871 273.378 216.154 273.225 216.496C273.075 216.838 272.945 217.215 272.834 217.629C272.723 218.039 272.637 218.465 272.575 218.908C272.513 219.348 272.482 219.779 272.482 220.202C272.482 220.629 272.513 221.063 272.575 221.506C272.637 221.945 272.723 222.372 272.834 222.785C272.945 223.195 273.075 223.57 273.225 223.908C273.378 224.25 273.542 224.533 273.718 224.758H273.005ZM275.153 223V215.954H277.57C278.267 215.954 278.863 216.094 279.357 216.374C279.855 216.651 280.236 217.051 280.5 217.575C280.764 218.099 280.896 218.731 280.896 219.47V219.479C280.896 220.218 280.764 220.852 280.5 221.379C280.236 221.903 279.857 222.305 279.362 222.585C278.868 222.862 278.27 223 277.57 223H275.153ZM276.032 222.209H277.512C278.036 222.209 278.483 222.102 278.854 221.887C279.226 221.672 279.509 221.361 279.704 220.954C279.899 220.547 279.997 220.059 279.997 219.489V219.479C279.997 218.907 279.898 218.417 279.699 218.01C279.504 217.6 279.221 217.287 278.85 217.072C278.479 216.854 278.033 216.745 277.512 216.745H276.032V222.209ZM281.516 223L284.113 215.954H284.787V217.092H284.509L282.438 223H281.516ZM282.692 220.983L282.966 220.236H286.149L286.423 220.983H282.692ZM286.657 223L284.587 217.092V215.954H284.982L287.58 223H286.657ZM290.021 223V219.968L287.521 215.954H288.522L290.422 219.084H290.5L292.399 215.954H293.4L290.9 219.968V223H290.021ZM296.848 223.166C296.333 223.166 295.884 223.083 295.5 222.917C295.119 222.748 294.816 222.517 294.592 222.224C294.37 221.927 294.242 221.589 294.206 221.208L294.201 221.154H295.08L295.085 221.208C295.108 221.442 295.197 221.646 295.354 221.818C295.513 221.988 295.725 222.119 295.988 222.214C296.255 222.308 296.558 222.355 296.896 222.355C297.215 222.355 297.499 222.305 297.746 222.204C297.997 222.1 298.194 221.957 298.337 221.774C298.48 221.592 298.552 221.382 298.552 221.145V221.14C298.552 220.847 298.444 220.601 298.229 220.402C298.015 220.201 297.665 220.046 297.18 219.938L296.398 219.768C295.692 219.611 295.178 219.37 294.855 219.045C294.536 218.716 294.377 218.296 294.377 217.785V217.78C294.38 217.39 294.486 217.045 294.694 216.745C294.906 216.446 295.197 216.211 295.568 216.042C295.943 215.873 296.372 215.788 296.857 215.788C297.326 215.788 297.741 215.873 298.103 216.042C298.464 216.208 298.75 216.433 298.962 216.716C299.177 216.999 299.296 217.316 299.318 217.668L299.323 217.736H298.444L298.435 217.673C298.402 217.465 298.317 217.281 298.181 217.121C298.044 216.958 297.862 216.83 297.634 216.735C297.406 216.641 297.139 216.595 296.833 216.599C296.54 216.599 296.276 216.644 296.042 216.735C295.808 216.826 295.62 216.958 295.48 217.131C295.344 217.3 295.275 217.508 295.275 217.756V217.761C295.275 218.041 295.38 218.277 295.588 218.469C295.796 218.661 296.14 218.809 296.618 218.913L297.399 219.089C298.135 219.252 298.661 219.488 298.977 219.797C299.292 220.106 299.45 220.515 299.45 221.022V221.027C299.45 221.467 299.343 221.846 299.128 222.165C298.913 222.484 298.61 222.731 298.22 222.907C297.829 223.08 297.372 223.166 296.848 223.166ZM301.267 224.758H300.554C300.729 224.533 300.892 224.25 301.042 223.908C301.195 223.57 301.327 223.195 301.438 222.785C301.548 222.372 301.634 221.945 301.696 221.506C301.758 221.063 301.789 220.629 301.789 220.202C301.789 219.779 301.758 219.348 301.696 218.908C301.634 218.465 301.548 218.039 301.438 217.629C301.327 217.215 301.195 216.838 301.042 216.496C300.892 216.154 300.729 215.871 300.554 215.646H301.267C301.586 216.066 301.848 216.514 302.053 216.989C302.258 217.461 302.409 217.964 302.507 218.498C302.604 219.029 302.653 219.597 302.653 220.202C302.653 220.808 302.603 221.377 302.502 221.911C302.404 222.445 302.253 222.948 302.048 223.42C301.846 223.892 301.586 224.338 301.267 224.758Z" fill="#CDCDCD"/>
<path d="M28.4958 120L75.194 101.945C158.014 69.9242 246.042 53.4995 334.836 53.4995L494 53.4995" stroke="white"/>
<g clip-path="url(#clip0_659_4074)">
<path d="M28 242H493V301C493 308.542 493 312.314 490.657 314.657C488.314 317 484.542 317 477 317H44C36.4575 317 32.6863 317 30.3431 314.657C28 312.314 28 308.542 28 301V242Z" fill="url(#paint0_linear_659_4074)"/>
<path d="M28 306.5H27.5V307.5H28V306.5ZM38 307.5C38.2761 307.5 38.5 307.276 38.5 307C38.5 306.724 38.2761 306.5 38 306.5V307.5ZM28 307.5H38V306.5H28V307.5Z" fill="#CCCDCD"/>
<path d="M28 301.5H27.5V302.5H28V301.5ZM33 302.5C33.2761 302.5 33.5 302.276 33.5 302C33.5 301.724 33.2761 301.5 33 301.5V302.5ZM28 302.5H33V301.5H28V302.5Z" fill="#CCCDCD"/>
<path d="M28 286.5H27.5V287.5H28V286.5ZM33 287.5C33.2761 287.5 33.5 287.276 33.5 287C33.5 286.724 33.2761 286.5 33 286.5V287.5ZM28 287.5H33V286.5H28V287.5Z" fill="#CCCDCD"/>
<path d="M28 271.5H27.5V272.5H28V271.5ZM33 272.5C33.2761 272.5 33.5 272.276 33.5 272C33.5 271.724 33.2761 271.5 33 271.5V272.5ZM28 272.5H33V271.5H28V272.5Z" fill="#CCCDCD"/>
<path d="M28 256.5H27.5V257.5H28V256.5ZM33 257.5C33.2761 257.5 33.5 257.276 33.5 257C33.5 256.724 33.2761 256.5 33 256.5V257.5ZM28 257.5H33V256.5H28V257.5Z" fill="#CCCDCD"/>
<path d="M28 296.5H27.5V297.5H28V296.5ZM33 297.5C33.2761 297.5 33.5 297.276 33.5 297C33.5 296.724 33.2761 296.5 33 296.5V297.5ZM28 297.5H33V296.5H28V297.5Z" fill="#CCCDCD"/>
<path d="M28 281.5H27.5V282.5H28V281.5ZM33 282.5C33.2761 282.5 33.5 282.276 33.5 282C33.5 281.724 33.2761 281.5 33 281.5V282.5ZM28 282.5H33V281.5H28V282.5Z" fill="#CCCDCD"/>
<path d="M28 266.5H27.5V267.5H28V266.5ZM33 267.5C33.2761 267.5 33.5 267.276 33.5 267C33.5 266.724 33.2761 266.5 33 266.5V267.5ZM28 267.5H33V266.5H28V267.5Z" fill="#CCCDCD"/>
<path d="M28 251.5H27.5V252.5H28V251.5ZM33 252.5C33.2761 252.5 33.5 252.276 33.5 252C33.5 251.724 33.2761 251.5 33 251.5V252.5ZM28 252.5H33V251.5H28V252.5Z" fill="#CCCDCD"/>
<path d="M28 291.5H27.5V292.5H28V291.5ZM38 292.5C38.2761 292.5 38.5 292.276 38.5 292C38.5 291.724 38.2761 291.5 38 291.5V292.5ZM28 292.5H38V291.5H28V292.5Z" fill="#CCCDCD"/>
<path d="M28 276.5H27.5V277.5H28V276.5ZM38 277.5C38.2761 277.5 38.5 277.276 38.5 277C38.5 276.724 38.2761 276.5 38 276.5V277.5ZM28 277.5H38V276.5H28V277.5Z" fill="#CCCDCD"/>
<path d="M28 261.5H27.5V262.5H28V261.5ZM38 262.5C38.2761 262.5 38.5 262.276 38.5 262C38.5 261.724 38.2761 261.5 38 261.5V262.5ZM28 262.5H38V261.5H28V262.5Z" fill="#CCCDCD"/>
<path d="M28 246.5H27.5V247.5H28V246.5ZM38 247.5C38.2761 247.5 38.5 247.276 38.5 247C38.5 246.724 38.2761 246.5 38 246.5V247.5ZM28 247.5H38V246.5H28V247.5Z" fill="#CCCDCD"/>
</g>
<path d="M28 242H493H28ZM493.5 309C493.5 313.694 489.694 317.5 485 317.5H36C31.3056 317.5 27.5 313.694 27.5 309H28.5C28.5 313.142 31.8579 316.5 36 316.5H485C489.142 316.5 492.5 313.142 492.5 309H493.5ZM36 317.5C31.3056 317.5 27.5 313.694 27.5 309V242H28.5V309C28.5 313.142 31.8579 316.5 36 316.5V317.5ZM493.5 242V309C493.5 313.694 489.694 317.5 485 317.5V316.5C489.142 316.5 492.5 313.142 492.5 309V242H493.5Z" fill="#CCCDCD"/>
<path d="M10.166 313.185C10.166 313.767 10.057 314.269 9.83887 314.688C9.62077 315.105 9.31803 315.426 8.93066 315.65C8.54004 315.875 8.08919 315.987 7.57812 315.987H2.9541V315.108H7.51953C8.0599 315.108 8.50098 314.941 8.84277 314.605C9.18457 314.267 9.35547 313.793 9.35547 313.185C9.35547 312.573 9.18457 312.101 8.84277 311.769C8.50098 311.437 8.0599 311.271 7.51953 311.271H2.9541V310.392H7.57812C8.08919 310.392 8.54004 310.504 8.93066 310.729C9.31803 310.95 9.62077 311.269 9.83887 311.686C10.057 312.102 10.166 312.602 10.166 313.185ZM10 308.604H2.9541V307.75L8.74512 303.712L8.4375 304.298V303.849H2.9541V302.979H10V303.834L4.22852 307.872L4.53613 307.286V307.735H10V308.604ZM10 301.183H2.9541V300.304H10V301.183ZM10 298.507H2.9541V294.229H3.74512V297.628H6.16699L6.16699 294.508H6.94824L6.94824 297.628H10V298.507ZM10 292.784H2.9541V291.905H10V292.784ZM10 290.108H2.9541V285.743H3.74512V289.229H6.00586V285.924H6.78711V289.229H9.20898V285.743H10V290.108ZM10 284.151H2.9541V281.734C2.9541 281.038 3.09408 280.442 3.37402 279.947C3.65072 279.449 4.05111 279.068 4.5752 278.805C5.09928 278.541 5.73079 278.409 6.46973 278.409H6.47949C7.21842 278.409 7.85156 278.541 8.37891 278.805C8.90299 279.068 9.30501 279.448 9.58496 279.942C9.86165 280.437 10 281.035 10 281.734V284.151ZM9.20898 283.272V281.793C9.20898 281.269 9.10156 280.821 8.88672 280.45C8.67188 280.079 8.361 279.796 7.9541 279.601C7.5472 279.405 7.05892 279.308 6.48926 279.308H6.47949C5.90658 279.308 5.41667 279.407 5.00977 279.605C4.59961 279.801 4.28711 280.084 4.07227 280.455C3.85417 280.826 3.74512 281.272 3.74512 281.793V283.272H9.20898ZM7.48535 273.634H6.7041V271.642C6.7041 271.137 6.57389 270.746 6.31348 270.47C6.0498 270.193 5.68685 270.055 5.22461 270.055H5.21484C4.74935 270.055 4.38639 270.193 4.12598 270.47C3.86556 270.746 3.73535 271.137 3.73535 271.642V273.634H2.9541V271.417C2.9541 270.974 3.0485 270.584 3.2373 270.245C3.42611 269.907 3.68978 269.641 4.02832 269.449C4.36686 269.254 4.75911 269.156 5.20508 269.156H5.21484C5.66081 269.156 6.05469 269.254 6.39648 269.449C6.73828 269.641 7.00521 269.907 7.19727 270.245C7.38932 270.584 7.48535 270.974 7.48535 271.417V273.634ZM10 274.073H2.9541V273.194H10L10 274.073ZM10.166 264.757C10.166 265.431 10.0163 266.008 9.7168 266.49C9.41406 266.972 8.986 267.343 8.43262 267.604C7.87923 267.861 7.22819 267.989 6.47949 267.989H6.46973C5.71452 267.989 5.06185 267.859 4.51172 267.599C3.96159 267.335 3.53678 266.962 3.2373 266.48C2.93783 265.995 2.78809 265.421 2.78809 264.757C2.78809 264.09 2.93783 263.515 3.2373 263.033C3.53678 262.548 3.96322 262.175 4.5166 261.915C5.06673 261.655 5.71777 261.524 6.46973 261.524H6.47949C7.22819 261.524 7.87923 261.655 8.43262 261.915C8.98275 262.172 9.40918 262.543 9.71191 263.028C10.0146 263.51 10.166 264.086 10.166 264.757ZM9.35547 264.757C9.35547 264.275 9.23665 263.86 8.99902 263.512C8.76139 263.163 8.42773 262.895 7.99805 262.706C7.5651 262.517 7.05892 262.423 6.47949 262.423H6.46973C5.88379 262.423 5.37598 262.517 4.94629 262.706C4.5166 262.895 4.18457 263.163 3.9502 263.512C3.71582 263.86 3.59863 264.275 3.59863 264.757C3.59863 265.235 3.71582 265.649 3.9502 265.997C4.18457 266.345 4.5166 266.616 4.94629 266.808C5.37598 266.996 5.88379 267.091 6.46973 267.091H6.47949C7.05892 267.091 7.5651 266.998 7.99805 266.812C8.42773 266.627 8.76139 266.36 8.99902 266.012C9.23665 265.663 9.35547 265.245 9.35547 264.757ZM10.166 257.042C10.166 257.716 10.0163 258.294 9.7168 258.775C9.41406 259.257 8.986 259.628 8.43262 259.889C7.87923 260.146 7.22819 260.274 6.47949 260.274H6.46973C5.71452 260.274 5.06185 260.144 4.51172 259.884C3.96159 259.62 3.53678 259.247 3.2373 258.766C2.93783 258.281 2.78809 257.706 2.78809 257.042C2.78809 256.375 2.93783 255.8 3.2373 255.318C3.53678 254.833 3.96322 254.461 4.5166 254.2C5.06673 253.94 5.71777 253.81 6.46973 253.81H6.47949C7.22819 253.81 7.87923 253.94 8.43262 254.2C8.98275 254.457 9.40918 254.828 9.71191 255.313C10.0146 255.795 10.166 256.371 10.166 257.042ZM9.35547 257.042C9.35547 256.56 9.23665 256.145 8.99902 255.797C8.76139 255.449 8.42773 255.18 7.99805 254.991C7.5651 254.802 7.05892 254.708 6.47949 254.708H6.46973C5.88379 254.708 5.37598 254.802 4.94629 254.991C4.5166 255.18 4.18457 255.449 3.9502 255.797C3.71582 256.145 3.59863 256.56 3.59863 257.042C3.59863 257.521 3.71582 257.934 3.9502 258.282C4.18457 258.631 4.5166 258.901 4.94629 259.093C5.37598 259.282 5.88379 259.376 6.46973 259.376H6.47949C7.05892 259.376 7.5651 259.283 7.99805 259.098C8.42773 258.912 8.76139 258.645 8.99902 258.297C9.23665 257.949 9.35547 257.53 9.35547 257.042ZM10 252.286H2.9541V251.407H9.20898V248.009H10V252.286ZM10.166 244.293C10.166 244.807 10.083 245.257 9.91699 245.641C9.74772 246.021 9.5166 246.324 9.22363 246.549C8.92741 246.77 8.58887 246.899 8.20801 246.935L8.1543 246.939V246.061L8.20801 246.056C8.44238 246.033 8.64583 245.943 8.81836 245.787C8.98763 245.628 9.11947 245.416 9.21387 245.152C9.30827 244.885 9.35547 244.583 9.35547 244.244C9.35547 243.925 9.30501 243.642 9.2041 243.395C9.09993 243.144 8.95671 242.947 8.77441 242.804C8.59212 242.66 8.38216 242.589 8.14453 242.589H8.13965C7.84668 242.589 7.60091 242.696 7.40234 242.911C7.20052 243.126 7.0459 243.476 6.93848 243.961L6.76758 244.742C6.61133 245.449 6.37044 245.963 6.04492 246.285C5.71615 246.604 5.29622 246.764 4.78516 246.764H4.78027C4.38965 246.76 4.0446 246.655 3.74512 246.446C3.44564 246.235 3.21126 245.943 3.04199 245.572C2.87272 245.198 2.78809 244.768 2.78809 244.283C2.78809 243.814 2.87272 243.399 3.04199 243.038C3.20801 242.677 3.43262 242.39 3.71582 242.179C3.99902 241.964 4.31641 241.845 4.66797 241.822L4.73633 241.817V242.696L4.67285 242.706C4.46452 242.739 4.2806 242.823 4.12109 242.96C3.95833 243.097 3.82975 243.279 3.73535 243.507C3.64095 243.735 3.59538 244.002 3.59863 244.308C3.59863 244.601 3.64421 244.864 3.73535 245.099C3.8265 245.333 3.95833 245.52 4.13086 245.66C4.30013 245.797 4.50846 245.865 4.75586 245.865H4.76074C5.04069 245.865 5.27669 245.761 5.46875 245.553C5.66081 245.344 5.80892 245.001 5.91309 244.522L6.08887 243.741C6.25163 243.006 6.48763 242.48 6.79688 242.164C7.10612 241.848 7.51465 241.69 8.02246 241.69H8.02734C8.4668 241.69 8.84603 241.798 9.16504 242.013C9.48405 242.228 9.73145 242.53 9.90723 242.921C10.0798 243.312 10.166 243.769 10.166 244.293Z" fill="#CDCDCD"/>
<defs>
<linearGradient id="paint0_linear_659_4074" x1="260.5" y1="242" x2="260.501" y2="248" gradientUnits="userSpaceOnUse">
<stop stop-opacity="0"/>
<stop offset="1" stop-color="#06B7D0" stop-opacity="0.39"/>
</linearGradient>
<clipPath id="clip0_659_4074">
<path d="M28 242H493V301C493 308.542 493 312.314 490.657 314.657C488.314 317 484.542 317 477 317H44C36.4575 317 32.6863 317 30.3431 314.657C28 312.314 28 308.542 28 301V242Z" fill="white"/>
</clipPath>
</defs>
</svg>
