<svg width="587" height="790" fill="none" xmlns="http://www.w3.org/2000/svg"><path d="M15.004 266.538c0 5.735 2.35 10.92 6.14 14.646a20.472 20.472 0 0014.397 5.891c5.647 0 10.762-2.28 14.475-5.969a20.47 20.47 0 006.062-14.568c0-11.343-9.194-20.538-20.537-20.538-11.342 0-20.537 9.195-20.537 20.538z" fill="#036B68"/><path d="M0 307.595c10.008 7.181 22.28 11.41 35.537 11.41 13.402 0 25.794-4.321 35.862-11.644-.55-13.08-8.352-21.658-19.55-25.648a22.499 22.499 0 01-3.855 3.299 22.141 22.141 0 01-12.457 3.805 22.14 22.14 0 01-12.456-3.805 22.486 22.486 0 01-3.77-3.209C8.18 285.855.462 294.481 0 307.595z" fill="#036B68"/><path d="M24.54 343.088h4.015V344H23.42v-11.184h1.12v10.272zm14.165-7.056c0 .96-.314 1.733-.944 2.32-.629.587-1.573.88-2.832.88h-2.256V344h-1.12v-11.184h3.376c1.248 0 2.187.293 2.816.88.64.587.96 1.365.96 2.336zm-3.776 2.24c1.75 0 2.624-.747 2.624-2.24 0-.747-.208-1.312-.624-1.696-.416-.384-1.082-.576-2-.576h-2.256v4.512h2.256zm10.064 5.856c-1.003 0-1.824-.229-2.464-.688-.63-.469-.982-1.104-1.056-1.904h1.152c.053.491.282.891.688 1.2.416.299.97.448 1.664.448.608 0 1.082-.144 1.424-.432.352-.288.528-.645.528-1.072a.996.996 0 00-.288-.736 1.953 1.953 0 00-.736-.448 9.562 9.562 0 00-1.184-.368 12.118 12.118 0 01-1.584-.512 2.805 2.805 0 01-1.04-.752c-.278-.341-.416-.795-.416-1.36 0-.427.128-.821.384-1.184s.618-.651 1.088-.864c.469-.213 1.002-.32 1.6-.32.938 0 1.696.24 2.272.72.576.469.885 1.12.928 1.952h-1.12c-.032-.512-.235-.923-.608-1.232-.363-.32-.864-.48-1.504-.48-.566 0-1.024.133-1.376.4-.352.267-.528.597-.528.992 0 .341.101.624.304.848.213.213.474.384.784.512.309.117.725.251 1.248.4.629.171 1.13.336 1.504.496.373.16.693.395.96.704.266.309.405.72.416 1.232 0 .469-.128.891-.384 1.264-.256.363-.614.651-1.072.864-.459.213-.987.32-1.584.32z" fill="#fff"/><g filter="url(#prefix__filter0_bi_659_4261)"><path fill="url(#prefix__paint0_radial_659_4261)" fill-opacity=".35" d="M277 1h309v81H277z"/><path stroke="url(#prefix__paint1_linear_659_4261)" stroke-width=".602" d="M276.699.699h309.602v81.602H276.699z"/><path d="M362.664 49.273c-.996 0-1.872-.162-2.627-.488-.755-.332-1.357-.788-1.807-1.367a3.843 3.843 0 01-.771-2.012l-.01-.107h1.328l.01.107c.059.528.261.99.606 1.387.351.39.813.697 1.386.918.573.221 1.224.332 1.953.332.717 0 1.348-.114 1.895-.342.547-.234.973-.556 1.279-.967.313-.416.469-.888.469-1.416v-.02c0-.657-.244-1.204-.732-1.64-.482-.443-1.267-.788-2.354-1.035l-1.465-.332c-1.406-.319-2.428-.784-3.066-1.396-.632-.612-.947-1.407-.947-2.383v-.01c0-.749.205-1.413.615-1.992.41-.58.976-1.035 1.699-1.367.729-.339 1.559-.508 2.49-.508.918 0 1.729.163 2.432.488.71.326 1.276.765 1.699 1.318.423.554.661 1.179.713 1.875l.01.127h-1.328l-.02-.117a2.49 2.49 0 00-.557-1.27c-.306-.37-.712-.663-1.22-.878-.508-.215-1.094-.32-1.758-.313-.658 0-1.244.11-1.758.332-.514.215-.921.518-1.221.908-.299.385-.449.84-.449 1.368v.01c0 .624.235 1.145.703 1.562.476.41 1.241.732 2.295.967l1.475.332c1.458.332 2.506.804 3.144 1.416.638.612.957 1.413.957 2.402v.02c0 .82-.211 1.54-.634 2.158-.417.612-1.006 1.087-1.768 1.426-.762.338-1.65.507-2.666.507zm13.594 0c-1.322 0-2.461-.296-3.418-.888-.951-.6-1.683-1.445-2.197-2.54-.515-1.1-.772-2.395-.772-3.886v-.02c0-1.497.261-2.79.781-3.877.521-1.093 1.257-1.936 2.207-2.529.957-.599 2.09-.898 3.399-.898 1.315 0 2.448.3 3.398.898.957.593 1.693 1.436 2.207 2.53.521 1.087.782 2.38.782 3.877v.019c0 1.49-.258 2.783-.772 3.877-.514 1.094-1.25 1.94-2.207 2.539-.951.599-2.087.898-3.408.898zm0-1.23c1.035 0 1.927-.25 2.676-.752.748-.501 1.328-1.208 1.738-2.12.41-.91.615-1.981.615-3.212v-.02c0-1.236-.205-2.31-.615-3.222-.41-.912-.993-1.615-1.748-2.11-.749-.494-1.638-.742-2.666-.742-1.029 0-1.921.248-2.676.742-.749.495-1.328 1.198-1.738 2.11-.41.911-.615 1.986-.615 3.223v.019c0 1.23.201 2.301.605 3.213.41.911.99 1.618 1.738 2.119.755.501 1.651.752 2.686.752zm9.199.957V34.908h1.328v12.89h7.061V49h-8.389zm15.996 0V34.908h8.369v1.201h-7.041v5.303h6.475v1.182h-6.475V49h-1.328zm14.981.176c-.977 0-1.82-.218-2.53-.654-.703-.437-1.246-1.055-1.631-1.856-.384-.807-.576-1.758-.576-2.851v-.01c0-1.094.192-2.045.576-2.852.385-.814.922-1.445 1.612-1.894.696-.45 1.51-.674 2.441-.674.931 0 1.735.218 2.412.654.684.436 1.208 1.045 1.573 1.826.364.775.546 1.68.546 2.715v.527h-8.496v-1.035h7.852l-.645.938v-.488c0-.873-.136-1.602-.41-2.188-.273-.593-.654-1.038-1.142-1.338-.489-.306-1.055-.459-1.7-.459-.638 0-1.207.156-1.709.469-.494.312-.885.765-1.171 1.357-.287.593-.43 1.312-.43 2.159v.488c0 .84.14 1.559.42 2.158.286.599.687 1.058 1.201 1.377.521.319 1.133.478 1.836.478.508 0 .96-.071 1.357-.214.397-.15.729-.349.996-.596.267-.248.456-.518.567-.81l.029-.079h1.289l-.019.088a3.447 3.447 0 01-.518 1.065 3.612 3.612 0 01-.898.879 4.624 4.624 0 01-1.26.605 5.427 5.427 0 01-1.572.215zm11.152 0c-.977 0-1.82-.218-2.529-.654-.703-.437-1.247-1.055-1.631-1.856-.384-.807-.576-1.758-.576-2.851v-.01c0-1.094.192-2.045.576-2.852.384-.814.921-1.445 1.611-1.894.697-.45 1.511-.674 2.442-.674.931 0 1.735.218 2.412.654.683.436 1.207 1.045 1.572 1.826.364.775.547 1.68.547 2.715v.527h-8.496v-1.035h7.851l-.644.938v-.488c0-.873-.137-1.602-.41-2.188-.274-.593-.655-1.038-1.143-1.338-.488-.306-1.055-.459-1.699-.459-.638 0-1.208.156-1.709.469-.495.312-.886.765-1.172 1.357-.287.593-.43 1.312-.43 2.159v.488c0 .84.14 1.559.42 2.158.287.599.687 1.058 1.201 1.377.521.319 1.133.478 1.836.478a3.99 3.99 0 001.358-.214c.397-.15.729-.349.996-.596.267-.248.455-.518.566-.81l.029-.079h1.29l-.02.088a3.424 3.424 0 01-.518 1.065 3.595 3.595 0 01-.898.879 4.624 4.624 0 01-1.26.605 5.427 5.427 0 01-1.572.215zm10.83 0c-.879 0-1.65-.225-2.314-.674-.658-.45-1.172-1.078-1.543-1.885-.371-.807-.557-1.748-.557-2.822v-.02c0-1.08.186-2.024.557-2.832.371-.807.885-1.435 1.543-1.884.664-.45 1.435-.674 2.314-.674.794 0 1.507.205 2.139.615.631.41 1.093.957 1.386 1.64h.098v-6.2h1.289V49h-1.289v-2.11h-.098a3.745 3.745 0 01-1.386 1.68c-.612.404-1.325.606-2.139.606zm.264-1.143c.677 0 1.269-.176 1.777-.527.508-.352.902-.846 1.182-1.484.28-.639.42-1.38.42-2.227v-.02c0-.859-.14-1.604-.42-2.236-.28-.631-.674-1.123-1.182-1.474-.508-.352-1.1-.528-1.777-.528-.684 0-1.28.176-1.787.528-.502.345-.889.833-1.163 1.464-.273.632-.41 1.38-.41 2.246v.01c0 .86.137 1.608.41 2.246.274.638.661 1.133 1.163 1.485.507.345 1.103.517 1.787.517zm11.992 1.143c-.977 0-1.82-.218-2.529-.654-.704-.437-1.247-1.055-1.631-1.856-.384-.807-.576-1.758-.576-2.851v-.01c0-1.094.192-2.045.576-2.852.384-.814.921-1.445 1.611-1.894.697-.45 1.51-.674 2.441-.674.931 0 1.735.218 2.413.654.683.436 1.207 1.045 1.572 1.826.364.775.547 1.68.547 2.715v.527H446.6v-1.035h7.851l-.644.938v-.488c0-.873-.137-1.602-.411-2.188-.273-.593-.654-1.038-1.142-1.338-.488-.306-1.055-.459-1.699-.459-.638 0-1.208.156-1.709.469-.495.312-.886.765-1.172 1.357-.287.593-.43 1.312-.43 2.159v.488c0 .84.14 1.559.42 2.158.287.599.687 1.058 1.201 1.377.521.319 1.133.478 1.836.478.508 0 .96-.071 1.358-.214.397-.15.729-.349.996-.596.267-.248.455-.518.566-.81l.029-.079h1.289l-.019.088a3.424 3.424 0 01-.518 1.065 3.612 3.612 0 01-.898.879 4.624 4.624 0 01-1.26.605 5.427 5.427 0 01-1.572.215zm6.943-.176V38.56h1.289v1.758h.098c.202-.605.544-1.077 1.025-1.416.482-.345 1.065-.517 1.748-.517.189 0 .365.013.528.039.162.02.302.042.42.068v1.26a3.181 3.181 0 00-.508-.098 4.025 4.025 0 00-.586-.039c-.527 0-.996.124-1.406.371-.411.241-.733.58-.967 1.016-.235.43-.352.93-.352 1.504V49h-1.289zm13.018-5.313v-1.19h3.974c1.088 0 1.937-.284 2.549-.85.619-.567.928-1.348.928-2.344v-.02c0-.996-.309-1.774-.928-2.334-.612-.566-1.461-.85-2.549-.85h-3.974v-1.19h4.287c.898 0 1.686.181 2.363.546a3.874 3.874 0 011.582 1.523c.384.658.576 1.423.576 2.295v.02c0 .872-.192 1.64-.576 2.305a4.005 4.005 0 01-1.582 1.543c-.677.364-1.465.547-2.363.547h-4.287zM469.969 49V34.908h1.328V49h-1.328zm15.83.176c-.964 0-1.8-.218-2.51-.654-.71-.437-1.26-1.058-1.65-1.866-.391-.807-.586-1.764-.586-2.87v-.02c0-1.107.195-2.06.586-2.862.39-.807.94-1.429 1.65-1.865.71-.436 1.546-.654 2.51-.654.963 0 1.8.218 2.51.654.709.436 1.259 1.058 1.65 1.865.391.801.586 1.755.586 2.862v.02c0 1.106-.195 2.063-.586 2.87-.391.808-.941 1.43-1.65 1.866-.704.436-1.54.654-2.51.654zm0-1.143c.709 0 1.318-.17 1.826-.508.514-.345.908-.833 1.182-1.465.28-.638.42-1.396.42-2.275v-.02c0-.878-.14-1.633-.42-2.265-.274-.632-.668-1.117-1.182-1.455-.508-.339-1.117-.508-1.826-.508-.71 0-1.322.17-1.836.508-.508.338-.902.823-1.182 1.455-.273.632-.41 1.387-.41 2.266v.02c0 .878.137 1.636.41 2.274.28.632.674 1.12 1.182 1.465.514.339 1.126.508 1.836.508zm11.484 1.143c-.963 0-1.8-.218-2.51-.654-.709-.437-1.259-1.058-1.65-1.866-.391-.807-.586-1.764-.586-2.87v-.02c0-1.107.195-2.06.586-2.862.391-.807.941-1.429 1.65-1.865.71-.436 1.547-.654 2.51-.654.964 0 1.8.218 2.51.654.71.436 1.26 1.058 1.65 1.865.391.801.586 1.755.586 2.862v.02c0 1.106-.195 2.063-.586 2.87-.39.808-.94 1.43-1.65 1.866-.703.436-1.54.654-2.51.654zm0-1.143c.71 0 1.319-.17 1.826-.508.515-.345.909-.833 1.182-1.465.28-.638.42-1.396.42-2.275v-.02c0-.878-.14-1.633-.42-2.265-.273-.632-.667-1.117-1.182-1.455-.507-.339-1.116-.508-1.826-.508-.709 0-1.321.17-1.836.508-.508.338-.901.823-1.181 1.455-.274.632-.411 1.387-.411 2.266v.02c0 .878.137 1.636.411 2.274.28.632.673 1.12 1.181 1.465.515.339 1.127.508 1.836.508zm7.363.967V34.44h1.28V49h-1.28z" fill="#fff"/></g><g filter="url(#prefix__filter1_bi_659_4261)"><path fill="url(#prefix__paint2_radial_659_4261)" fill-opacity=".35" d="M277 200h91v88h-91z"/><path stroke="url(#prefix__paint3_linear_659_4261)" stroke-width=".602" d="M276.699 199.699h91.602v88.602h-91.602z"/><path d="M307.641 231v-11.273h1.062v10.312h5.649V231h-6.711zm12.515.234c-.797 0-1.497-.132-2.101-.398-.599-.266-1.078-.63-1.438-1.094a3.016 3.016 0 01-.625-1.594l-.008-.086h1.063l.008.086a1.9 1.9 0 00.484 1.094c.281.318.651.565 1.109.742.464.177.985.266 1.563.266.568 0 1.07-.094 1.508-.281.437-.193.781-.453 1.031-.781.25-.334.375-.711.375-1.133v-.008c0-.526-.195-.966-.586-1.32-.391-.36-1.021-.638-1.891-.836l-1.156-.258c-1.135-.255-1.956-.628-2.461-1.117-.505-.495-.758-1.131-.758-1.907v-.007c0-.599.165-1.131.493-1.594.328-.469.781-.839 1.359-1.11.583-.27 1.25-.406 2-.406.734 0 1.383.13 1.945.391.568.26 1.019.609 1.352 1.047.338.432.529.919.57 1.461l.008.093h-1.062l-.016-.086a1.891 1.891 0 00-.445-.976 2.53 2.53 0 00-.977-.695c-.401-.172-.87-.256-1.406-.25-.521 0-.987.088-1.399.265a2.363 2.363 0 00-.984.735c-.24.312-.359.679-.359 1.101v.008c0 .495.187.906.562 1.234.375.328.99.589 1.844.782l1.156.265c1.177.266 2.021.643 2.531 1.133.511.49.766 1.128.766 1.914v.008c0 .667-.169 1.247-.508 1.742-.338.495-.812.88-1.422 1.156-.609.276-1.317.414-2.125.414zm9.43-.234v-10.312h-3.781v-.961h8.625v.961h-3.782V231h-1.062zm14.523-11.766l-3.687 14.555h-.992l3.695-14.555h.984zM309.883 250v-11.273h1.062v10.312h5.649V250h-6.711zm8.89 0v-11.273h4.032c.734 0 1.369.135 1.906.406.542.271.961.651 1.258 1.14.297.49.445 1.071.445 1.743v.015c0 .792-.216 1.472-.648 2.039-.427.563-1.019.943-1.774 1.141l2.735 4.789h-1.243l-2.593-4.625a.708.708 0 01-.11.008h-2.945V250h-1.063zm1.063-5.562h2.883c.823 0 1.461-.209 1.914-.626.458-.416.687-1 .687-1.75v-.015c0-.74-.234-1.318-.703-1.735-.469-.421-1.114-.632-1.937-.632h-2.844v4.758zM332.031 250v-10.312h-3.781v-.961h8.625v.961h-3.781V250h-1.063zm-28.664 19.141c-.708 0-1.331-.18-1.867-.539-.531-.365-.945-.873-1.242-1.524-.297-.656-.446-1.414-.446-2.273v-.016c0-.87.149-1.63.446-2.281.297-.651.711-1.156 1.242-1.516.536-.364 1.159-.547 1.867-.547.641 0 1.214.162 1.719.485.51.323.883.758 1.117 1.304h.094v-5h1.031V269h-1.031v-1.68h-.094a3.048 3.048 0 01-1.117 1.336c-.495.323-1.068.485-1.719.485zm.219-.914c.552 0 1.031-.141 1.437-.422.412-.287.73-.685.954-1.196.229-.515.343-1.119.343-1.812v-.016c0-.692-.114-1.294-.343-1.804-.224-.511-.542-.907-.954-1.188-.406-.286-.885-.43-1.437-.43s-1.034.141-1.445.422c-.407.281-.722.677-.946 1.188-.224.51-.336 1.114-.336 1.812v.016c0 .693.112 1.297.336 1.812.224.516.539.914.946 1.196.411.281.893.422 1.445.422zm5.719.773l4.218-11.273h.821v1.398H314L310.422 269h-1.117zm1.82-3.461l.328-.914h5.203l.328.914h-5.859zm6.547 3.461l-3.578-9.875v-1.398h.484L318.797 269h-1.125zm3.031 2.789v-11.203h1.031v1.68h.094a3.12 3.12 0 01.664-.969c.276-.276.597-.487.961-.633.37-.146.771-.219 1.203-.219.714 0 1.336.183 1.867.547.537.36.954.865 1.25 1.516.297.651.446 1.409.446 2.273v.016c0 .87-.149 1.63-.446 2.281-.296.651-.713 1.159-1.25 1.524-.531.359-1.153.539-1.867.539-.422 0-.82-.073-1.195-.219a3.152 3.152 0 01-.977-.625 2.812 2.812 0 01-.656-.945h-.094v4.437h-1.031zm3.742-3.562c.558 0 1.039-.141 1.446-.422.406-.282.718-.68.937-1.196.224-.515.336-1.119.336-1.812v-.016c0-.698-.112-1.302-.336-1.812-.219-.511-.531-.907-.937-1.188-.407-.281-.888-.422-1.446-.422-.557 0-1.041.144-1.453.43-.406.281-.721.677-.945 1.188-.224.51-.336 1.112-.336 1.804v.016c0 .693.112 1.297.336 1.812.224.511.542.909.953 1.196.411.281.893.422 1.445.422zm5.977 3.562v-11.203h1.031v1.68h.094a3.12 3.12 0 01.664-.969c.276-.276.596-.487.961-.633.37-.146.771-.219 1.203-.219.714 0 1.336.183 1.867.547.537.36.953.865 1.25 1.516.297.651.446 1.409.446 2.273v.016c0 .87-.149 1.63-.446 2.281-.297.651-.713 1.159-1.25 1.524-.531.359-1.153.539-1.867.539-.422 0-.82-.073-1.195-.219a3.14 3.14 0 01-.977-.625 2.812 2.812 0 01-.656-.945h-.094v4.437h-1.031zm3.742-3.562c.557 0 1.039-.141 1.445-.422.407-.282.719-.68.938-1.196.224-.515.336-1.119.336-1.812v-.016c0-.698-.112-1.302-.336-1.812-.219-.511-.531-.907-.938-1.188-.406-.281-.888-.422-1.445-.422s-1.042.144-1.453.43c-.406.281-.721.677-.945 1.188-.224.51-.336 1.112-.336 1.804v.016c0 .693.112 1.297.336 1.812.224.511.541.909.953 1.196.411.281.893.422 1.445.422zm8.805.914c-.61 0-1.151-.092-1.625-.274-.474-.187-.854-.448-1.141-.781a2.24 2.24 0 01-.515-1.195h1.054c.115.421.367.757.758 1.007.391.25.891.375 1.5.375.411 0 .779-.065 1.102-.195.328-.13.586-.31.773-.539a1.18 1.18 0 00.289-.781v-.016c0-.364-.138-.661-.414-.89-.276-.23-.721-.417-1.336-.563l-1.164-.273c-.781-.183-1.359-.446-1.734-.789-.375-.349-.563-.818-.563-1.407v-.008c0-.453.133-.859.399-1.218a2.7 2.7 0 011.093-.844 3.799 3.799 0 011.539-.305c.563 0 1.065.089 1.508.266.443.177.8.43 1.07.758.277.328.448.713.516 1.156h-1.016c-.088-.391-.317-.706-.687-.945-.37-.245-.836-.368-1.398-.368a2.59 2.59 0 00-1 .188 1.78 1.78 0 00-.711.516 1.157 1.157 0 00-.266.75v.015c0 .349.133.63.398.844.266.208.68.378 1.243.508l1.156.281c.812.193 1.419.466 1.82.82.401.349.602.826.602 1.43v.016c0 .484-.146.911-.438 1.281-.286.37-.674.659-1.164.867-.484.208-1.034.313-1.648.313z" fill="#fff"/></g><g filter="url(#prefix__filter2_bi_659_4261)"><path fill="url(#prefix__paint4_radial_659_4261)" fill-opacity=".35" d="M386 200h91v88h-91z"/><path stroke="url(#prefix__paint5_linear_659_4261)" stroke-width=".602" d="M385.699 199.699h91.602v88.602h-91.602z"/><path d="M407.945 231v-11.273h1.219l4.156 9.875h.102l4.156-9.875h1.219V231h-.992v-9.203h-.539l1.234-1.828L413.836 231h-.93l-4.656-11.031 1.227 1.828h-.539V231h-.993zm17.032.141c-.782 0-1.459-.175-2.032-.524-.573-.354-1.015-.857-1.328-1.508-.307-.651-.461-1.421-.461-2.312v-.016c0-.89.154-1.661.461-2.312.313-.651.755-1.151 1.328-1.5.573-.349 1.25-.524 2.032-.524.786 0 1.463.175 2.031.524.573.349 1.013.849 1.32 1.5.313.651.469 1.422.469 2.312v.016c0 .891-.156 1.661-.469 2.312-.307.651-.747 1.154-1.32 1.508-.568.349-1.245.524-2.031.524zm0-.914c.578 0 1.072-.138 1.484-.415.417-.276.734-.669.953-1.179.224-.516.336-1.128.336-1.836v-.016c0-.708-.112-1.317-.336-1.828-.219-.515-.536-.909-.953-1.18-.412-.276-.906-.414-1.484-.414-.579 0-1.076.138-1.493.414-.411.271-.729.662-.953 1.172-.219.511-.328 1.123-.328 1.836v.016c0 .708.109 1.32.328 1.836.224.51.542.903.953 1.179.417.277.914.415 1.493.415zm6.039.773v-8.414h1.031v1.476h.094c.224-.51.56-.906 1.007-1.187.454-.286 1.006-.43 1.657-.43.942 0 1.669.271 2.179.813.516.536.774 1.291.774 2.265V231h-1.024v-5.219c0-.797-.185-1.398-.554-1.804-.365-.412-.912-.618-1.641-.618-.495 0-.93.11-1.305.329a2.266 2.266 0 00-.875.921c-.208.396-.312.86-.312 1.391v5h-1.031zm12.703.141c-.787 0-1.466-.177-2.039-.532a3.48 3.48 0 01-1.313-1.5c-.307-.645-.461-1.408-.461-2.289v-.015c0-.875.154-1.638.461-2.289.307-.657.74-1.164 1.297-1.524.563-.364 1.219-.547 1.969-.547.755 0 1.403.177 1.945.532.547.349.966.838 1.258 1.468.297.625.445 1.352.445 2.18v.437h-6.843v-.843h6.32l-.508.758v-.391c0-.703-.112-1.292-.336-1.766-.219-.479-.526-.841-.922-1.086-.39-.244-.844-.367-1.359-.367a2.56 2.56 0 00-1.383.375c-.401.25-.719.617-.953 1.102-.229.479-.344 1.06-.344 1.742v.391c0 .671.115 1.25.344 1.734.229.484.552.857.969 1.117.416.261.908.391 1.476.391.406 0 .768-.058 1.086-.172.323-.115.591-.266.805-.453.213-.193.367-.396.461-.61l.023-.062h1.039l-.023.062c-.084.287-.222.56-.414.821a3.03 3.03 0 01-.719.687c-.292.198-.63.357-1.016.477-.38.114-.802.172-1.265.172zm6.25 2.765a3.158 3.158 0 01-.461-.031v-.859a2.725 2.725 0 00.43.031c.39 0 .71-.102.96-.305.256-.198.469-.549.641-1.054l.211-.633-3.156-8.469h1.101l2.782 7.976-.43-.671h.5l-.43.671 2.774-7.976h1.086l-3.407 9.148c-.208.552-.427.985-.656 1.297a1.856 1.856 0 01-.805.672c-.307.136-.687.203-1.14.203zM407.18 250v-11.273h1.218l4.157 9.875h.101l4.156-9.875h1.219V250h-.992v-9.203h-.539l1.234-1.828L413.07 250h-.929l-4.657-11.031 1.227 1.828h-.539V250h-.992zm15.953.141c-.542 0-1.024-.099-1.445-.297a2.434 2.434 0 01-1-.86c-.245-.369-.368-.804-.368-1.304v-.016c0-.729.261-1.302.782-1.719.526-.416 1.276-.659 2.25-.726l3.14-.203v.836l-3 .203c-.719.047-1.252.205-1.601.476-.344.266-.516.638-.516 1.117v.016c0 .484.182.87.547 1.156.364.282.833.422 1.406.422.505 0 .956-.104 1.352-.312.401-.214.718-.5.953-.86.234-.359.351-.76.351-1.203v-2.609c0-.62-.182-1.091-.546-1.414-.365-.323-.889-.485-1.571-.485-.573 0-1.049.112-1.429.336a1.561 1.561 0 00-.743.969l-.007.016h-1.032l.008-.032c.073-.453.255-.843.547-1.171a2.842 2.842 0 011.125-.758c.458-.183.979-.274 1.562-.274.662 0 1.224.112 1.688.336.463.219.815.537 1.055.953.244.417.367.922.367 1.516V250h-1.024v-1.453h-.101a2.83 2.83 0 01-.656.859 2.99 2.99 0 01-.938.547c-.354.125-.74.188-1.156.188zm6.476-.141v-8.414h1.032v1.383h.093c.167-.479.448-.852.844-1.117.396-.271.878-.407 1.445-.407a3.957 3.957 0 01.789.078v1.008a3.31 3.31 0 00-.437-.078 3.135 3.135 0 00-.461-.031c-.437 0-.828.101-1.172.305a2.161 2.161 0 00-.804.82c-.198.349-.297.75-.297 1.203V250h-1.032zm6.047 0v-11.766h1.032V250h-1.032zm5.367 0l-3.531-4.328.766-.656 4.07 4.984h-1.305zm-4.507-3.102l-.039-1.367h.304l4.102-3.945h1.281l-4.078 3.828-.195.18-1.375 1.304zm10.64 3.243c-.786 0-1.466-.177-2.039-.532-.568-.354-1.005-.854-1.312-1.5-.308-.645-.461-1.408-.461-2.289v-.015c0-.875.153-1.638.461-2.289.307-.657.739-1.164 1.297-1.524.562-.364 1.218-.547 1.968-.547.756 0 1.404.177 1.946.532.546.349.966.838 1.257 1.468.297.625.446 1.352.446 2.18v.437h-6.844v-.843h6.32l-.507.758v-.391c0-.703-.112-1.292-.336-1.766-.219-.479-.526-.841-.922-1.086-.391-.244-.844-.367-1.36-.367-.521 0-.981.125-1.382.375-.402.25-.719.617-.954 1.102-.229.479-.343 1.06-.343 1.742v.391c0 .671.114 1.25.343 1.734.23.484.552.857.969 1.117.417.261.909.391 1.477.391.406 0 .768-.058 1.086-.172.323-.115.591-.266.804-.453a1.8 1.8 0 00.461-.61l.024-.062h1.039l-.024.062c-.083.287-.221.56-.414.821a3.025 3.025 0 01-.718.687 3.83 3.83 0 01-1.016.477c-.38.114-.802.172-1.266.172zm8.555-.086c-.797 0-1.375-.167-1.734-.5-.355-.334-.532-.883-.532-1.649v-5.461h-1.351v-.859h1.351v-2.188h1.063v2.188h1.93v.859h-1.93v5.227c0 .521.101.896.304 1.125.204.229.542.344 1.016.344a5.614 5.614 0 00.61-.032v.883c-.12.016-.24.029-.36.039a2.651 2.651 0 01-.367.024zm-43.844 19.086c-.708 0-1.331-.18-1.867-.539-.531-.365-.945-.873-1.242-1.524-.297-.656-.446-1.414-.446-2.273v-.016c0-.87.149-1.63.446-2.281.297-.651.711-1.156 1.242-1.516.536-.364 1.159-.547 1.867-.547.641 0 1.214.162 1.719.485.51.323.883.758 1.117 1.304h.094v-5h1.031V269h-1.031v-1.68h-.094a3.048 3.048 0 01-1.117 1.336c-.495.323-1.068.485-1.719.485zm.219-.914c.552 0 1.031-.141 1.437-.422.412-.287.73-.685.954-1.196.229-.515.343-1.119.343-1.812v-.016c0-.692-.114-1.294-.343-1.804-.224-.511-.542-.907-.954-1.188-.406-.286-.885-.43-1.437-.43s-1.034.141-1.445.422c-.407.281-.722.677-.946 1.188-.224.51-.336 1.114-.336 1.812v.016c0 .693.112 1.297.336 1.812.224.516.539.914.946 1.196.411.281.893.422 1.445.422zm5.719.773l4.218-11.273h.821v1.398h-.344L418.922 269h-1.117zm1.82-3.461l.328-.914h5.203l.328.914h-5.859zm6.547 3.461l-3.578-9.875v-1.398h.484L427.297 269h-1.125zm3.031 2.789v-11.203h1.031v1.68h.094a3.12 3.12 0 01.664-.969c.276-.276.597-.487.961-.633.37-.146.771-.219 1.203-.219.714 0 1.336.183 1.867.547.537.36.954.865 1.25 1.516.297.651.446 1.409.446 2.273v.016c0 .87-.149 1.63-.446 2.281-.296.651-.713 1.159-1.25 1.524-.531.359-1.153.539-1.867.539-.422 0-.82-.073-1.195-.219a3.152 3.152 0 01-.977-.625 2.812 2.812 0 01-.656-.945h-.094v4.437h-1.031zm3.742-3.562c.558 0 1.039-.141 1.446-.422.406-.282.718-.68.937-1.196.224-.515.336-1.119.336-1.812v-.016c0-.698-.112-1.302-.336-1.812-.219-.511-.531-.907-.937-1.188-.407-.281-.888-.422-1.446-.422-.557 0-1.041.144-1.453.43-.406.281-.721.677-.945 1.188-.224.51-.336 1.112-.336 1.804v.016c0 .693.112 1.297.336 1.812.224.511.542.909.953 1.196.411.281.893.422 1.445.422zm5.977 3.562v-11.203h1.031v1.68h.094a3.12 3.12 0 01.664-.969c.276-.276.596-.487.961-.633.37-.146.771-.219 1.203-.219.714 0 1.336.183 1.867.547.537.36.953.865 1.25 1.516.297.651.446 1.409.446 2.273v.016c0 .87-.149 1.63-.446 2.281-.297.651-.713 1.159-1.25 1.524-.531.359-1.153.539-1.867.539-.422 0-.82-.073-1.195-.219a3.14 3.14 0 01-.977-.625 2.812 2.812 0 01-.656-.945h-.094v4.437h-1.031zm3.742-3.562c.557 0 1.039-.141 1.445-.422.407-.282.719-.68.938-1.196.224-.515.336-1.119.336-1.812v-.016c0-.698-.112-1.302-.336-1.812-.219-.511-.531-.907-.938-1.188-.406-.281-.888-.422-1.445-.422s-1.042.144-1.453.43c-.406.281-.721.677-.945 1.188-.224.51-.336 1.112-.336 1.804v.016c0 .693.112 1.297.336 1.812.224.511.541.909.953 1.196.411.281.893.422 1.445.422zm8.805.914c-.61 0-1.151-.092-1.625-.274-.474-.187-.854-.448-1.141-.781a2.24 2.24 0 01-.515-1.195h1.054c.115.421.367.757.758 1.007.391.25.891.375 1.5.375.411 0 .779-.065 1.102-.195.328-.13.586-.31.773-.539a1.18 1.18 0 00.289-.781v-.016c0-.364-.138-.661-.414-.89-.276-.23-.721-.417-1.336-.563l-1.164-.273c-.781-.183-1.359-.446-1.734-.789-.375-.349-.563-.818-.563-1.407v-.008c0-.453.133-.859.399-1.218a2.7 2.7 0 011.093-.844 3.799 3.799 0 011.539-.305c.563 0 1.065.089 1.508.266.443.177.8.43 1.07.758.277.328.448.713.516 1.156h-1.016c-.088-.391-.317-.706-.687-.945-.37-.245-.836-.368-1.398-.368a2.59 2.59 0 00-1 .188 1.78 1.78 0 00-.711.516 1.157 1.157 0 00-.266.75v.015c0 .349.133.63.398.844.266.208.68.378 1.243.508l1.156.281c.812.193 1.419.466 1.82.82.401.349.602.826.602 1.43v.016c0 .484-.146.911-.438 1.281-.286.37-.674.659-1.164.867-.484.208-1.034.313-1.648.313z" fill="#fff"/></g><g filter="url(#prefix__filter3_bi_659_4261)"><path fill="url(#prefix__paint6_radial_659_4261)" fill-opacity=".35" d="M495 200h91v88h-91z"/><path stroke="url(#prefix__paint7_linear_659_4261)" stroke-width=".602" d="M494.699 199.699h91.602v88.602h-91.602z"/><path d="M522.867 231v-4.875l-4.047-6.398h1.219l3.313 5.312h.093l3.305-5.312h1.219l-4.039 6.398V231h-1.063zm7.055 0v-8.414h1.031V231h-1.031zm.516-10.164a.74.74 0 01-.532-.219.736.736 0 01-.226-.539.71.71 0 01.226-.531.728.728 0 01.532-.227c.213 0 .393.076.539.227a.726.726 0 01.218.531.752.752 0 01-.218.539.733.733 0 01-.539.219zm6.593 10.305c-.786 0-1.466-.177-2.039-.532-.568-.354-1.005-.854-1.312-1.5-.308-.645-.461-1.408-.461-2.289v-.015c0-.875.153-1.638.461-2.289.307-.657.739-1.164 1.297-1.524.562-.364 1.218-.547 1.968-.547.756 0 1.404.177 1.946.532a3.37 3.37 0 011.257 1.468c.297.625.446 1.352.446 2.18v.437h-6.844v-.843h6.32l-.508.758v-.391c0-.703-.111-1.292-.335-1.766-.219-.479-.526-.841-.922-1.086-.391-.244-.844-.367-1.36-.367-.521 0-.981.125-1.383.375-.401.25-.718.617-.953 1.102-.229.479-.343 1.06-.343 1.742v.391c0 .671.114 1.25.343 1.734.23.484.552.857.969 1.117.417.261.909.391 1.477.391.406 0 .768-.058 1.086-.172.323-.115.591-.266.804-.453.214-.193.367-.396.461-.61l.024-.062h1.039l-.024.062c-.083.287-.221.56-.414.821a3.011 3.011 0 01-.719.687c-.291.198-.63.357-1.015.477-.38.114-.802.172-1.266.172zm5.86-.141v-11.766h1.031V231h-1.031zm6.882.141c-.708 0-1.33-.18-1.867-.539-.531-.365-.945-.873-1.242-1.524-.297-.656-.445-1.414-.445-2.273v-.016c0-.87.148-1.63.445-2.281.297-.651.711-1.156 1.242-1.516.537-.364 1.159-.547 1.867-.547.641 0 1.214.162 1.719.485.511.323.883.758 1.117 1.304h.094v-5h1.031V231h-1.031v-1.68h-.094a3.048 3.048 0 01-1.117 1.336c-.495.323-1.068.485-1.719.485zm.219-.914c.552 0 1.031-.141 1.438-.422.411-.287.729-.685.953-1.196.229-.515.344-1.119.344-1.812v-.016c0-.692-.115-1.294-.344-1.804-.224-.511-.542-.907-.953-1.188-.407-.286-.886-.43-1.438-.43-.552 0-1.034.141-1.445.422-.406.281-.721.677-.945 1.188-.224.51-.336 1.114-.336 1.812v.016c0 .693.112 1.297.336 1.812.224.516.539.914.945 1.196.411.281.893.422 1.445.422zm6.344-3.297v-.961h5.211v.961h-5.211zM513.961 250v-.945h3.422c.984 0 1.721-.19 2.211-.571.489-.385.734-.922.734-1.609v-.016c0-.474-.12-.875-.359-1.203-.24-.328-.586-.575-1.039-.742-.453-.172-1-.258-1.641-.258h-3.328v-.922h3.055c.875 0 1.549-.177 2.023-.531.479-.359.719-.864.719-1.515v-.016c0-.625-.222-1.115-.664-1.469-.438-.354-1.047-.531-1.828-.531h-3.305v-.945h3.516c.692 0 1.289.114 1.789.343.5.229.885.552 1.156.969.276.412.414.901.414 1.469v.015c0 .412-.091.795-.274 1.149a2.568 2.568 0 01-.726.89c-.307.24-.664.399-1.07.477v.086c.515.063.971.216 1.367.461.401.24.713.557.937.953.229.391.344.846.344 1.367v.016c0 .635-.151 1.185-.453 1.648-.297.459-.734.813-1.313 1.063-.572.245-1.278.367-2.117.367h-3.57zm-.531 0v-11.273h1.062V250h-1.062zm13.578.141c-.787 0-1.466-.177-2.039-.532-.568-.354-1.005-.854-1.313-1.5-.307-.645-.461-1.408-.461-2.289v-.015c0-.875.154-1.638.461-2.289.308-.657.74-1.164 1.297-1.524.563-.364 1.219-.547 1.969-.547.755 0 1.404.177 1.945.532.547.349.966.838 1.258 1.468.297.625.445 1.352.445 2.18v.437h-6.843v-.843h6.32l-.508.758v-.391c0-.703-.112-1.292-.336-1.766-.219-.479-.526-.841-.922-1.086-.39-.244-.843-.367-1.359-.367a2.56 2.56 0 00-1.383.375c-.401.25-.719.617-.953 1.102-.229.479-.344 1.06-.344 1.742v.391c0 .671.115 1.25.344 1.734.229.484.552.857.969 1.117.416.261.909.391 1.476.391.407 0 .768-.058 1.086-.172.323-.115.591-.266.805-.453.213-.193.367-.396.461-.61l.023-.062h1.039l-.023.062c-.083.287-.221.56-.414.821a3.03 3.03 0 01-.719.687c-.292.198-.63.357-1.016.477-.38.114-.802.172-1.265.172zm8.101 0c-.541 0-1.023-.099-1.445-.297a2.44 2.44 0 01-1-.86c-.245-.369-.367-.804-.367-1.304v-.016c0-.729.26-1.302.781-1.719.526-.416 1.276-.659 2.25-.726l3.141-.203v.836l-3 .203c-.719.047-1.253.205-1.602.476-.344.266-.515.638-.515 1.117v.016c0 .484.182.87.546 1.156.365.282.834.422 1.407.422a2.86 2.86 0 001.351-.312c.401-.214.719-.5.953-.86.235-.359.352-.76.352-1.203v-2.609c0-.62-.182-1.091-.547-1.414-.365-.323-.888-.485-1.57-.485-.573 0-1.05.112-1.43.336a1.56 1.56 0 00-.742.969l-.008.016h-1.031l.008-.032c.073-.453.255-.843.547-1.171a2.831 2.831 0 011.124-.758c.459-.183.98-.274 1.563-.274.661 0 1.224.112 1.687.336.464.219.816.537 1.055.953.245.417.367.922.367 1.516V250h-1.023v-1.453h-.102c-.166.333-.385.62-.656.859a2.985 2.985 0 01-.937.547c-.355.125-.74.188-1.157.188zm6.477-.141v-8.414h1.031v1.383h.094c.167-.479.448-.852.844-1.117.396-.271.877-.407 1.445-.407a4.016 4.016 0 01.789.078v1.008a3.37 3.37 0 00-.437-.078 3.144 3.144 0 00-.461-.031c-.438 0-.829.101-1.172.305a2.164 2.164 0 00-.805.82c-.198.349-.297.75-.297 1.203V250h-1.031zm6.016 0v-8.414h1.031V250h-1.031zm.515-10.164a.74.74 0 01-.531-.219.737.737 0 01-.227-.539c0-.208.076-.385.227-.531a.728.728 0 01.531-.227.72.72 0 01.539.227.723.723 0 01.219.531.75.75 0 01-.758.758zM551.32 250v-8.414h1.032v1.476h.093c.224-.51.56-.906 1.008-1.187.453-.286 1.005-.43 1.656-.43.943 0 1.67.271 2.18.813.516.536.773 1.291.773 2.265V250h-1.023v-5.219c0-.797-.185-1.398-.555-1.804-.364-.412-.911-.618-1.64-.618-.495 0-.93.11-1.305.329a2.26 2.26 0 00-.875.921c-.208.396-.312.86-.312 1.391v5h-1.032zm12.727 2.938c-.641 0-1.206-.092-1.695-.274-.49-.177-.883-.43-1.18-.758a2.173 2.173 0 01-.555-1.133l.016-.007h1.062l.008.007c.094.365.346.662.758.891.417.234.945.352 1.586.352.812 0 1.453-.196 1.922-.586.474-.391.711-.925.711-1.602v-1.89h-.094a3 3 0 01-.672.953 2.86 2.86 0 01-.961.609 3.414 3.414 0 01-1.195.203c-.719 0-1.344-.174-1.875-.523a3.523 3.523 0 01-1.235-1.453c-.291-.62-.437-1.334-.437-2.141v-.016c0-.802.146-1.513.437-2.132a3.509 3.509 0 011.235-1.461c.536-.355 1.169-.532 1.898-.532.433 0 .831.076 1.196.227.364.151.684.364.961.64a3.1 3.1 0 01.656.985h.078v-1.711h1.023v8.312c0 .61-.151 1.141-.453 1.594-.297.459-.721.813-1.273 1.063-.547.255-1.188.383-1.922.383zm-.086-4.157c.562 0 1.047-.133 1.453-.398.412-.271.729-.643.953-1.117.224-.48.336-1.032.336-1.657v-.015c0-.636-.114-1.196-.344-1.68a2.705 2.705 0 00-.953-1.141c-.406-.276-.888-.414-1.445-.414-.563 0-1.044.138-1.445.414a2.647 2.647 0 00-.93 1.133c-.219.485-.328 1.039-.328 1.664v.016c0 .63.109 1.185.328 1.664.219.479.529.854.93 1.125s.882.406 1.445.406zM520.328 269v-11.273h4.031c.735 0 1.37.135 1.907.406.541.271.961.651 1.257 1.14.297.49.446 1.071.446 1.743v.015c0 .792-.216 1.472-.649 2.039-.427.563-1.018.943-1.773 1.141l2.734 4.789h-1.242l-2.594-4.625a.685.685 0 01-.109.008h-2.945V269h-1.063zm1.063-5.562h2.882c.823 0 1.461-.209 1.915-.626.458-.416.687-1 .687-1.75v-.015c0-.74-.234-1.318-.703-1.735-.469-.421-1.115-.632-1.938-.632h-2.843v4.758zM532.773 269l-3.101-11.273h1.109l2.469 9.617h.078l2.711-9.617h1.055l2.718 9.617h.071l2.476-9.617h1.102L540.359 269h-.984l-2.766-9.422h-.078L533.766 269h-.993zm11.188 0l4.219-11.273h.82v1.398h-.344L545.078 269h-1.117zm1.82-3.461l.328-.914h5.203l.329.914h-5.86zm6.547 3.461l-3.578-9.875v-1.398h.484L553.453 269h-1.125zm5.672.141c-.609 0-1.151-.092-1.625-.274-.474-.187-.854-.448-1.141-.781a2.24 2.24 0 01-.515-1.195h1.054c.115.421.368.757.758 1.007.391.25.891.375 1.5.375a2.93 2.93 0 001.102-.195c.328-.13.586-.31.773-.539a1.18 1.18 0 00.289-.781v-.016c0-.364-.138-.661-.414-.89-.276-.23-.721-.417-1.336-.563l-1.164-.273c-.781-.183-1.359-.446-1.734-.789-.375-.349-.563-.818-.563-1.407v-.008c0-.453.133-.859.399-1.218.271-.36.635-.641 1.094-.844a3.792 3.792 0 011.539-.305 4.03 4.03 0 011.507.266c.443.177.8.43 1.071.758.276.328.448.713.515 1.156h-1.015c-.089-.391-.318-.706-.688-.945-.37-.245-.836-.368-1.398-.368a2.59 2.59 0 00-1 .188 1.78 1.78 0 00-.711.516 1.157 1.157 0 00-.266.75v.015c0 .349.133.63.399.844.265.208.679.378 1.242.508l1.156.281c.813.193 1.419.466 1.82.82.401.349.602.826.602 1.43v.016c0 .484-.146.911-.438 1.281-.286.37-.674.659-1.164.867-.484.208-1.033.313-1.648.313z" fill="#fff"/></g><path d="M431.646 130.36a.502.502 0 00.708 0l3.182-3.182a.5.5 0 00-.708-.707L432 129.299l-2.828-2.828a.5.5 0 00-.708.707l3.182 3.182zm-.146-48.364v48.011h1v-48.01h-1zM399.561 143.234c-1.063 0-1.974-.239-2.734-.718-.761-.48-1.347-1.157-1.758-2.032-.412-.88-.617-1.919-.617-3.117v-.015c0-1.204.205-2.243.617-3.118.416-.875 1.005-1.549 1.765-2.023.766-.479 1.675-.719 2.727-.719 1.052 0 1.958.24 2.719.719.765.474 1.354 1.151 1.765 2.031.412.875.617 1.912.617 3.11v.015c0 1.198-.205 2.235-.617 3.11-.411.875-1 1.554-1.765 2.039-.761.479-1.667.718-2.719.718zm0-.984c.823 0 1.534-.201 2.133-.602.599-.406 1.062-.974 1.39-1.703.328-.734.493-1.593.493-2.578v-.015c0-.995-.165-1.857-.493-2.586-.328-.73-.791-1.292-1.39-1.688-.599-.401-1.31-.601-2.133-.601s-1.537.2-2.141.601c-.599.396-1.062.958-1.39 1.688-.328.729-.493 1.591-.493 2.586v.015c0 .985.162 1.844.485 2.578.323.729.784 1.297 1.383 1.703.604.401 1.323.602 2.156.602zm11.705.891c-.625 0-1.159-.123-1.602-.368a2.393 2.393 0 01-1.008-1.062c-.229-.464-.344-1.016-.344-1.656v-5.469h1.032v5.211c0 .786.179 1.388.539 1.805.364.416.909.625 1.633.625.526 0 .976-.11 1.351-.329.375-.218.662-.526.86-.921.197-.396.296-.86.296-1.391v-5h1.032V143h-1.032v-1.469h-.093a2.44 2.44 0 01-.993 1.188c-.458.281-1.015.422-1.671.422zm10.603-.086c-.797 0-1.375-.167-1.735-.5-.354-.334-.531-.883-.531-1.649v-5.461h-1.351v-.859h1.351v-2.188h1.063v2.188h1.929v.859h-1.929v5.227c0 .521.101.896.304 1.125.203.229.542.344 1.016.344a5.549 5.549 0 00.609-.032v.883a7.159 7.159 0 01-.359.039 2.662 2.662 0 01-.367.024zm4.283 2.734v-11.203h1.031v1.68h.094c.166-.375.388-.698.664-.969.276-.276.596-.487.961-.633a3.24 3.24 0 011.203-.219c.713 0 1.336.183 1.867.547.536.36.953.865 1.25 1.516.297.651.445 1.409.445 2.273v.016c0 .87-.148 1.63-.445 2.281-.297.651-.714 1.159-1.25 1.524-.531.359-1.154.539-1.867.539-.422 0-.821-.073-1.196-.219a3.148 3.148 0 01-.976-.625 2.812 2.812 0 01-.656-.945h-.094v4.437h-1.031zm3.742-3.562c.557 0 1.039-.141 1.445-.422.406-.282.719-.68.938-1.196.224-.515.335-1.119.335-1.812v-.016c0-.698-.111-1.302-.335-1.812-.219-.511-.532-.907-.938-1.188-.406-.281-.888-.422-1.445-.422-.558 0-1.042.144-1.453.43-.407.281-.722.677-.946 1.188-.224.51-.336 1.112-.336 1.804v.016c0 .693.112 1.297.336 1.812.224.511.542.909.953 1.196.412.281.894.422 1.446.422zm10.775.914c-.782 0-1.459-.175-2.032-.524-.572-.354-1.015-.857-1.328-1.508-.307-.651-.461-1.421-.461-2.312v-.016c0-.89.154-1.661.461-2.312.313-.651.756-1.151 1.328-1.5.573-.349 1.25-.524 2.032-.524.786 0 1.463.175 2.031.524.573.349 1.013.849 1.32 1.5.313.651.469 1.422.469 2.312v.016c0 .891-.156 1.661-.469 2.312-.307.651-.747 1.154-1.32 1.508-.568.349-1.245.524-2.031.524zm0-.914c.578 0 1.073-.138 1.484-.415.417-.276.734-.669.953-1.179.224-.516.336-1.128.336-1.836v-.016c0-.708-.112-1.317-.336-1.828-.219-.515-.536-.909-.953-1.18-.411-.276-.906-.414-1.484-.414s-1.076.138-1.492.414c-.412.271-.73.662-.954 1.172-.218.511-.328 1.123-.328 1.836v.016c0 .708.11 1.32.328 1.836.224.51.542.903.954 1.179.416.277.914.415 1.492.415zm10.267.914c-.609 0-1.151-.092-1.625-.274-.474-.187-.854-.448-1.141-.781a2.24 2.24 0 01-.515-1.195h1.054c.115.421.368.757.758 1.007.391.25.891.375 1.5.375a2.93 2.93 0 001.102-.195c.328-.13.586-.31.773-.539a1.18 1.18 0 00.289-.781v-.016c0-.364-.138-.661-.414-.89-.276-.23-.721-.417-1.336-.563l-1.164-.273c-.781-.183-1.359-.446-1.734-.789-.375-.349-.563-.818-.563-1.407v-.008c0-.453.133-.859.399-1.218.271-.36.635-.641 1.093-.844a3.8 3.8 0 011.54-.305 4.03 4.03 0 011.507.266c.443.177.8.43 1.071.758.276.328.448.713.515 1.156h-1.015c-.089-.391-.318-.706-.688-.945-.37-.245-.836-.368-1.398-.368a2.59 2.59 0 00-1 .188 1.78 1.78 0 00-.711.516 1.157 1.157 0 00-.266.75v.015c0 .349.133.63.399.844.265.208.679.378 1.242.508l1.156.281c.813.193 1.419.466 1.82.82.401.349.602.826.602 1.43v.016c0 .484-.146.911-.438 1.281-.286.37-.674.659-1.164.867-.484.208-1.033.313-1.648.313zm9.564-.086c-.797 0-1.375-.167-1.734-.5-.355-.334-.532-.883-.532-1.649v-5.461h-1.351v-.859h1.351v-2.188h1.063v2.188h1.93v.859h-1.93v5.227c0 .521.101.896.305 1.125.203.229.541.344 1.015.344a5.614 5.614 0 00.61-.032v.883c-.12.016-.24.029-.36.039a2.651 2.651 0 01-.367.024zm6.923.086c-.609 0-1.151-.092-1.625-.274-.474-.187-.854-.448-1.14-.781a2.234 2.234 0 01-.516-1.195h1.055c.114.421.367.757.758 1.007.39.25.89.375 1.5.375.411 0 .778-.065 1.101-.195.328-.13.586-.31.774-.539.192-.229.289-.49.289-.781v-.016c0-.364-.138-.661-.414-.89-.276-.23-.722-.417-1.336-.563l-1.164-.273c-.782-.183-1.36-.446-1.735-.789-.375-.349-.562-.818-.562-1.407v-.008a2 2 0 01.398-1.218 2.71 2.71 0 011.094-.844 3.799 3.799 0 011.539-.305c.563 0 1.065.089 1.508.266.443.177.799.43 1.07.758a2.3 2.3 0 01.516 1.156h-1.016c-.088-.391-.318-.706-.687-.945-.37-.245-.836-.368-1.399-.368-.364 0-.698.063-1 .188a1.78 1.78 0 00-.711.516 1.156 1.156 0 00-.265.75v.015c0 .349.133.63.398.844.266.208.68.378 1.242.508l1.157.281c.812.193 1.419.466 1.82.82.401.349.601.826.601 1.43v.016c0 .484-.145.911-.437 1.281-.287.37-.675.659-1.164.867-.484.208-1.034.313-1.649.313z" fill="#fff"/><path fill-rule="evenodd" clip-rule="evenodd" d="M540 195.992v-24H324.154v-1h107.004V152h1v18.992H541v25h-1zm-217.685-25v25h1v-25h-1z" fill="#fff"/><path d="M88.465 42l-.482-.134.102-.366h.38v.5zm186.889-.354a.5.5 0 010 .708l-3.182 3.181a.501.501 0 01-.708-.707L274.293 42l-2.829-2.828a.5.5 0 01.708-.707l3.182 3.181zM35.518 230.866l52.465-189 .964.268-52.465 189-.964-.268zM88.465 41.5H275v1H88.465v-1zM88.465 547l-.482.134.102.366h.38v-.5zm186.889.354a.502.502 0 000-.708l-3.182-3.182a.502.502 0 00-.708.708l2.829 2.828-2.829 2.828a.502.502 0 00.708.708l3.182-3.182zM35.518 358.134l52.465 189 .964-.268-52.465-189-.964.268zM88.465 547.5H275v-1H88.465v1z" fill="#fff"/><g filter="url(#prefix__filter4_bi_659_4261)"><path fill="url(#prefix__paint8_radial_659_4261)" fill-opacity=".35" d="M277 505h309v81H277z"/><path stroke="url(#prefix__paint9_linear_659_4261)" stroke-width=".602" d="M276.699 504.699h309.602v81.602H276.699z"/><path d="M357.75 553v-14.092h8.506v1.201h-7.178v5.079h6.826v1.191h-6.826v5.42h7.178V553h-8.506zm15.225 0v-12.891h-4.707v-1.201h10.752v1.201h-4.717V553h-1.328zm8.486 0v-14.092h1.328v6.27h8.252v-6.27h1.328V553h-1.328v-6.621h-8.252V553h-1.328zm19.375 0v-14.092h8.369v1.201h-7.041v5.303h6.475v1.182h-6.475V553h-1.328zm14.98.176c-.976 0-1.819-.218-2.529-.655-.703-.436-1.247-1.054-1.631-1.855-.384-.807-.576-1.758-.576-2.852v-.009c0-1.094.192-2.045.576-2.852.384-.814.921-1.445 1.612-1.894.696-.45 1.51-.674 2.441-.674.931 0 1.735.218 2.412.654.684.436 1.208 1.045 1.572 1.826.365.775.547 1.68.547 2.715v.527h-8.496v-1.035h7.852l-.645.938v-.489c0-.872-.137-1.601-.41-2.187-.273-.592-.654-1.038-1.143-1.338-.488-.306-1.054-.459-1.699-.459a3.16 3.16 0 00-1.709.469c-.495.312-.885.765-1.172 1.357-.286.593-.429 1.312-.429 2.158v.489c0 .84.14 1.559.42 2.158.286.599.686 1.058 1.201 1.377.521.319 1.133.478 1.836.478.508 0 .96-.071 1.357-.214.397-.15.729-.349.996-.596a2.15 2.15 0 00.567-.811l.029-.078h1.289l-.02.088a3.429 3.429 0 01-.517 1.065 3.598 3.598 0 01-.899.878 4.61 4.61 0 01-1.259.606c-.476.143-1 .215-1.573.215zm11.153 0c-.977 0-1.82-.218-2.53-.655-.703-.436-1.246-1.054-1.63-1.855-.385-.807-.577-1.758-.577-2.852v-.009c0-1.094.192-2.045.577-2.852.384-.814.921-1.445 1.611-1.894.697-.45 1.51-.674 2.441-.674.931 0 1.735.218 2.412.654.684.436 1.208 1.045 1.573 1.826.364.775.547 1.68.547 2.715v.527h-8.497v-1.035h7.852l-.644.938v-.489c0-.872-.137-1.601-.411-2.187-.273-.592-.654-1.038-1.142-1.338-.489-.306-1.055-.459-1.699-.459-.638 0-1.208.156-1.709.469-.495.312-.886.765-1.172 1.357-.287.593-.43 1.312-.43 2.158v.489c0 .84.14 1.559.42 2.158.286.599.687 1.058 1.201 1.377.521.319 1.133.478 1.836.478.508 0 .96-.071 1.357-.214.398-.15.73-.349.997-.596.266-.248.455-.518.566-.811l.029-.078h1.289l-.019.088a3.432 3.432 0 01-.518 1.065 3.593 3.593 0 01-.898.878 4.63 4.63 0 01-1.26.606 5.437 5.437 0 01-1.572.215zm10.83 0c-.879 0-1.651-.225-2.315-.674-.657-.449-1.172-1.078-1.543-1.885-.371-.807-.556-1.748-.556-2.822v-.02c0-1.08.185-2.024.556-2.832.371-.807.886-1.435 1.543-1.884.664-.45 1.436-.674 2.315-.674.794 0 1.507.205 2.139.615.631.41 1.093.957 1.386 1.641h.098v-6.202h1.289V553h-1.289v-2.109h-.098a3.747 3.747 0 01-1.386 1.679c-.612.404-1.325.606-2.139.606zm.263-1.143c.678 0 1.27-.176 1.778-.527.508-.352.902-.846 1.181-1.485.28-.638.42-1.38.42-2.226v-.02c0-.859-.14-1.604-.42-2.236-.279-.631-.673-1.123-1.181-1.475-.508-.351-1.1-.527-1.778-.527-.683 0-1.279.176-1.787.527-.501.346-.888.834-1.162 1.465-.273.632-.41 1.381-.41 2.246v.01c0 .86.137 1.608.41 2.246.274.638.661 1.133 1.162 1.485.508.345 1.104.517 1.787.517zm11.993 1.143c-.977 0-1.82-.218-2.53-.655-.703-.436-1.246-1.054-1.63-1.855-.385-.807-.577-1.758-.577-2.852v-.009c0-1.094.192-2.045.577-2.852.384-.814.921-1.445 1.611-1.894.696-.45 1.51-.674 2.441-.674.931 0 1.735.218 2.412.654.684.436 1.208 1.045 1.573 1.826.364.775.547 1.68.547 2.715v.527h-8.497v-1.035h7.852l-.645.938v-.489c0-.872-.136-1.601-.41-2.187-.273-.592-.654-1.038-1.142-1.338-.489-.306-1.055-.459-1.699-.459-.639 0-1.208.156-1.709.469-.495.312-.886.765-1.172 1.357-.287.593-.43 1.312-.43 2.158v.489c0 .84.14 1.559.42 2.158.286.599.687 1.058 1.201 1.377.521.319 1.133.478 1.836.478.508 0 .96-.071 1.357-.214.398-.15.73-.349.997-.596.266-.248.455-.518.566-.811l.029-.078h1.289l-.019.088a3.432 3.432 0 01-.518 1.065 3.593 3.593 0 01-.898.878 4.63 4.63 0 01-1.26.606 5.437 5.437 0 01-1.572.215zm6.943-.176v-10.439h1.289v1.757h.098c.202-.605.543-1.077 1.025-1.416.482-.345 1.065-.517 1.748-.517.189 0 .365.013.528.039.162.019.302.042.419.068v1.26a3.18 3.18 0 00-.507-.098 4.026 4.026 0 00-.586-.039c-.528 0-.996.124-1.407.371a2.55 2.55 0 00-.966 1.016c-.235.43-.352.931-.352 1.504V553h-1.289zm13.018-5.312v-1.192h3.974c1.087 0 1.937-.283 2.549-.85.619-.566.928-1.347.928-2.343v-.02c0-.996-.309-1.774-.928-2.334-.612-.566-1.462-.849-2.549-.849h-3.974v-1.192h4.287c.898 0 1.686.182 2.363.547a3.877 3.877 0 011.582 1.524c.384.657.576 1.422.576 2.294v.02c0 .872-.192 1.641-.576 2.305a4.014 4.014 0 01-1.582 1.543c-.677.364-1.465.547-2.363.547h-4.287zm-.664 5.312v-14.092h1.328V553h-1.328zm15.83.176c-.964 0-1.8-.218-2.51-.655-.71-.436-1.26-1.057-1.651-1.865-.39-.807-.585-1.764-.585-2.871v-.019c0-1.107.195-2.061.585-2.862.391-.807.941-1.429 1.651-1.865.71-.436 1.546-.654 2.51-.654.963 0 1.8.218 2.509.654.71.436 1.26 1.058 1.651 1.865.39.801.586 1.755.586 2.862v.019c0 1.107-.196 2.064-.586 2.871-.391.808-.941 1.429-1.651 1.865-.703.437-1.539.655-2.509.655zm0-1.143c.709 0 1.318-.169 1.826-.508.514-.345.908-.833 1.181-1.464.28-.638.42-1.397.42-2.276v-.019c0-.879-.14-1.634-.42-2.266-.273-.632-.667-1.117-1.181-1.455-.508-.339-1.117-.508-1.826-.508-.71 0-1.322.169-1.836.508-.508.338-.902.823-1.182 1.455-.273.632-.41 1.387-.41 2.266v.019c0 .879.137 1.638.41 2.276.28.631.674 1.119 1.182 1.464.514.339 1.126.508 1.836.508zm11.484 1.143c-.964 0-1.8-.218-2.51-.655-.709-.436-1.26-1.057-1.65-1.865-.391-.807-.586-1.764-.586-2.871v-.019c0-1.107.195-2.061.586-2.862.39-.807.941-1.429 1.65-1.865.71-.436 1.546-.654 2.51-.654.964 0 1.8.218 2.51.654.709.436 1.26 1.058 1.65 1.865.391.801.586 1.755.586 2.862v.019c0 1.107-.195 2.064-.586 2.871-.39.808-.941 1.429-1.65 1.865-.703.437-1.54.655-2.51.655zm0-1.143c.71 0 1.318-.169 1.826-.508.515-.345.908-.833 1.182-1.464.28-.638.42-1.397.42-2.276v-.019c0-.879-.14-1.634-.42-2.266-.274-.632-.667-1.117-1.182-1.455-.508-.339-1.116-.508-1.826-.508s-1.322.169-1.836.508c-.508.338-.902.823-1.182 1.455-.273.632-.41 1.387-.41 2.266v.019c0 .879.137 1.638.41 2.276.28.631.674 1.119 1.182 1.464.514.339 1.126.508 1.836.508zm7.363.967v-14.561h1.28V553h-1.28z" fill="#fff"/></g><path d="M431.646 634.36a.502.502 0 00.708 0l3.182-3.182a.5.5 0 00-.708-.707L432 633.299l-2.828-2.828a.5.5 0 00-.708.707l3.182 3.182zm-.146-48.364v48.011h1v-48.011h-1zM399.561 647.234c-1.063 0-1.974-.239-2.734-.718-.761-.48-1.347-1.157-1.758-2.032-.412-.88-.617-1.919-.617-3.117v-.015c0-1.204.205-2.243.617-3.118.416-.875 1.005-1.549 1.765-2.023.766-.479 1.675-.719 2.727-.719 1.052 0 1.958.24 2.719.719.765.474 1.354 1.151 1.765 2.031.412.875.617 1.912.617 3.11v.015c0 1.198-.205 2.235-.617 3.11-.411.875-1 1.554-1.765 2.039-.761.479-1.667.718-2.719.718zm0-.984c.823 0 1.534-.201 2.133-.602.599-.406 1.062-.974 1.39-1.703.328-.734.493-1.593.493-2.578v-.015c0-.995-.165-1.857-.493-2.586-.328-.73-.791-1.292-1.39-1.688-.599-.401-1.31-.601-2.133-.601s-1.537.2-2.141.601c-.599.396-1.062.958-1.39 1.688-.328.729-.493 1.591-.493 2.586v.015c0 .985.162 1.844.485 2.578.323.729.784 1.297 1.383 1.703.604.401 1.323.602 2.156.602zm11.705.891c-.625 0-1.159-.123-1.602-.368a2.393 2.393 0 01-1.008-1.062c-.229-.464-.344-1.016-.344-1.656v-5.469h1.032v5.211c0 .786.179 1.388.539 1.805.364.416.909.625 1.633.625.526 0 .976-.11 1.351-.329.375-.218.662-.526.86-.921.197-.396.296-.86.296-1.391v-5h1.032V647h-1.032v-1.469h-.093a2.44 2.44 0 01-.993 1.188c-.458.281-1.015.422-1.671.422zm10.603-.086c-.797 0-1.375-.167-1.735-.5-.354-.334-.531-.883-.531-1.649v-5.461h-1.351v-.859h1.351v-2.188h1.063v2.188h1.929v.859h-1.929v5.227c0 .521.101.896.304 1.125.203.229.542.344 1.016.344a5.549 5.549 0 00.609-.032v.883a7.159 7.159 0 01-.359.039 2.662 2.662 0 01-.367.024zm4.283 2.734v-11.203h1.031v1.68h.094c.166-.375.388-.698.664-.969.276-.276.596-.487.961-.633a3.24 3.24 0 011.203-.219c.713 0 1.336.183 1.867.547.536.36.953.865 1.25 1.516.297.651.445 1.409.445 2.273v.016c0 .87-.148 1.63-.445 2.281-.297.651-.714 1.159-1.25 1.524-.531.359-1.154.539-1.867.539-.422 0-.821-.073-1.196-.219a3.148 3.148 0 01-.976-.625 2.812 2.812 0 01-.656-.945h-.094v4.437h-1.031zm3.742-3.562c.557 0 1.039-.141 1.445-.422.406-.282.719-.68.938-1.196.224-.515.335-1.119.335-1.812v-.016c0-.698-.111-1.302-.335-1.812-.219-.511-.532-.907-.938-1.188-.406-.281-.888-.422-1.445-.422-.558 0-1.042.144-1.453.43-.407.281-.722.677-.946 1.188-.224.51-.336 1.112-.336 1.804v.016c0 .693.112 1.297.336 1.812.224.511.542.909.953 1.196.412.281.894.422 1.446.422zm10.775.914c-.782 0-1.459-.175-2.032-.524-.572-.354-1.015-.857-1.328-1.508-.307-.651-.461-1.421-.461-2.312v-.016c0-.89.154-1.661.461-2.312.313-.651.756-1.151 1.328-1.5.573-.349 1.25-.524 2.032-.524.786 0 1.463.175 2.031.524.573.349 1.013.849 1.32 1.5.313.651.469 1.422.469 2.312v.016c0 .891-.156 1.661-.469 2.312-.307.651-.747 1.154-1.32 1.508-.568.349-1.245.524-2.031.524zm0-.914c.578 0 1.073-.138 1.484-.415.417-.276.734-.669.953-1.179.224-.516.336-1.128.336-1.836v-.016c0-.708-.112-1.317-.336-1.828-.219-.515-.536-.909-.953-1.18-.411-.276-.906-.414-1.484-.414s-1.076.138-1.492.414c-.412.271-.73.662-.954 1.172-.218.511-.328 1.123-.328 1.836v.016c0 .708.11 1.32.328 1.836.224.51.542.903.954 1.179.416.277.914.415 1.492.415zm10.267.914c-.609 0-1.151-.092-1.625-.274-.474-.187-.854-.448-1.141-.781a2.24 2.24 0 01-.515-1.195h1.054c.115.421.368.757.758 1.007.391.25.891.375 1.5.375a2.93 2.93 0 001.102-.195c.328-.13.586-.31.773-.539a1.18 1.18 0 00.289-.781v-.016c0-.364-.138-.661-.414-.89-.276-.23-.721-.417-1.336-.563l-1.164-.273c-.781-.183-1.359-.446-1.734-.789-.375-.349-.563-.818-.563-1.407v-.008c0-.453.133-.859.399-1.218.271-.36.635-.641 1.093-.844a3.8 3.8 0 011.54-.305 4.03 4.03 0 011.507.266c.443.177.8.43 1.071.758.276.328.448.713.515 1.156h-1.015c-.089-.391-.318-.706-.688-.945-.37-.245-.836-.368-1.398-.368a2.59 2.59 0 00-1 .188 1.78 1.78 0 00-.711.516 1.157 1.157 0 00-.266.75v.015c0 .349.133.63.399.844.265.208.679.378 1.242.508l1.156.281c.813.193 1.419.466 1.82.82.401.349.602.826.602 1.43v.016c0 .484-.146.911-.438 1.281-.286.37-.674.659-1.164.867-.484.208-1.033.313-1.648.313zm9.564-.086c-.797 0-1.375-.167-1.734-.5-.355-.334-.532-.883-.532-1.649v-5.461h-1.351v-.859h1.351v-2.188h1.063v2.188h1.93v.859h-1.93v5.227c0 .521.101.896.305 1.125.203.229.541.344 1.015.344a5.614 5.614 0 00.61-.032v.883c-.12.016-.24.029-.36.039a2.651 2.651 0 01-.367.024zm6.923.086c-.609 0-1.151-.092-1.625-.274-.474-.187-.854-.448-1.14-.781a2.234 2.234 0 01-.516-1.195h1.055c.114.421.367.757.758 1.007.39.25.89.375 1.5.375.411 0 .778-.065 1.101-.195.328-.13.586-.31.774-.539.192-.229.289-.49.289-.781v-.016c0-.364-.138-.661-.414-.89-.276-.23-.722-.417-1.336-.563l-1.164-.273c-.782-.183-1.36-.446-1.735-.789-.375-.349-.562-.818-.562-1.407v-.008a2 2 0 01.398-1.218 2.71 2.71 0 011.094-.844 3.799 3.799 0 011.539-.305c.563 0 1.065.089 1.508.266.443.177.799.43 1.07.758a2.3 2.3 0 01.516 1.156h-1.016c-.088-.391-.318-.706-.687-.945-.37-.245-.836-.368-1.399-.368-.364 0-.698.063-1 .188a1.78 1.78 0 00-.711.516 1.156 1.156 0 00-.265.75v.015c0 .349.133.63.398.844.266.208.68.378 1.242.508l1.157.281c.812.193 1.419.466 1.82.82.401.349.601.826.601 1.43v.016c0 .484-.145.911-.437 1.281-.287.37-.675.659-1.164.867-.484.208-1.034.313-1.649.313z" fill="#fff"/><path fill-rule="evenodd" clip-rule="evenodd" d="M540 699.992v-24H324.154v-1h107.004V656h1v18.992H541v25h-1zm-217.685-25v25h1v-25h-1z" fill="#fff"/><g filter="url(#prefix__filter5_bi_659_4261)"><path fill="url(#prefix__paint10_radial_659_4261)" fill-opacity=".35" d="M277 700h91v88h-91z"/><path stroke="url(#prefix__paint11_linear_659_4261)" stroke-width=".602" d="M276.699 699.699h91.602v88.602h-91.602z"/><path d="M307.641 731v-11.273h1.062v10.312h5.649V731h-6.711zm12.515.234c-.797 0-1.497-.132-2.101-.398-.599-.266-1.078-.63-1.438-1.094a3.016 3.016 0 01-.625-1.594l-.008-.086h1.063l.008.086a1.9 1.9 0 00.484 1.094c.281.318.651.565 1.109.742.464.177.985.266 1.563.266.568 0 1.07-.094 1.508-.281.437-.193.781-.453 1.031-.781.25-.334.375-.711.375-1.133v-.008c0-.526-.195-.966-.586-1.32-.391-.36-1.021-.638-1.891-.836l-1.156-.258c-1.135-.255-1.956-.628-2.461-1.117-.505-.495-.758-1.131-.758-1.907v-.007c0-.599.165-1.131.493-1.594.328-.469.781-.839 1.359-1.11.583-.27 1.25-.406 2-.406.734 0 1.383.13 1.945.391.568.26 1.019.609 1.352 1.047.338.432.529.919.57 1.461l.008.093h-1.062l-.016-.086a1.891 1.891 0 00-.445-.976 2.53 2.53 0 00-.977-.695c-.401-.172-.87-.256-1.406-.25-.521 0-.987.088-1.399.265a2.363 2.363 0 00-.984.735c-.24.312-.359.679-.359 1.101v.008c0 .495.187.906.562 1.234.375.328.99.589 1.844.782l1.156.265c1.177.266 2.021.643 2.531 1.133.511.49.766 1.128.766 1.914v.008c0 .667-.169 1.247-.508 1.742-.338.495-.812.88-1.422 1.156-.609.276-1.317.414-2.125.414zm9.43-.234v-10.312h-3.781v-.961h8.625v.961h-3.782V731h-1.062zm14.523-11.766l-3.687 14.555h-.992l3.695-14.555h.984zM309.883 750v-11.273h1.062v10.312h5.649V750h-6.711zm8.89 0v-11.273h4.032c.734 0 1.369.135 1.906.406.542.271.961.651 1.258 1.14.297.49.445 1.071.445 1.743v.015c0 .792-.216 1.472-.648 2.039-.427.563-1.019.943-1.774 1.141l2.735 4.789h-1.243l-2.593-4.625a.708.708 0 01-.11.008h-2.945V750h-1.063zm1.063-5.562h2.883c.823 0 1.461-.209 1.914-.626.458-.416.687-1 .687-1.75v-.015c0-.74-.234-1.318-.703-1.735-.469-.421-1.114-.632-1.937-.632h-2.844v4.758zM332.031 750v-10.312h-3.781v-.961h8.625v.961h-3.781V750h-1.063zm-28.664 19.141c-.708 0-1.331-.18-1.867-.539-.531-.365-.945-.873-1.242-1.524-.297-.656-.446-1.414-.446-2.273v-.016c0-.87.149-1.63.446-2.281.297-.651.711-1.156 1.242-1.516.536-.364 1.159-.547 1.867-.547.641 0 1.214.162 1.719.485.51.323.883.758 1.117 1.304h.094v-5h1.031V769h-1.031v-1.68h-.094a3.048 3.048 0 01-1.117 1.336c-.495.323-1.068.485-1.719.485zm.219-.914c.552 0 1.031-.141 1.437-.422.412-.287.73-.685.954-1.196.229-.515.343-1.119.343-1.812v-.016c0-.692-.114-1.294-.343-1.804-.224-.511-.542-.907-.954-1.188-.406-.286-.885-.43-1.437-.43s-1.034.141-1.445.422c-.407.281-.722.677-.946 1.188-.224.51-.336 1.114-.336 1.812v.016c0 .693.112 1.297.336 1.812.224.516.539.914.946 1.196.411.281.893.422 1.445.422zm5.719.773l4.218-11.273h.821v1.398H314L310.422 769h-1.117zm1.82-3.461l.328-.914h5.203l.328.914h-5.859zm6.547 3.461l-3.578-9.875v-1.398h.484L318.797 769h-1.125zm3.031 2.789v-11.203h1.031v1.68h.094a3.12 3.12 0 01.664-.969c.276-.276.597-.487.961-.633.37-.146.771-.219 1.203-.219.714 0 1.336.183 1.867.547.537.36.954.865 1.25 1.516.297.651.446 1.409.446 2.273v.016c0 .87-.149 1.63-.446 2.281-.296.651-.713 1.159-1.25 1.524-.531.359-1.153.539-1.867.539-.422 0-.82-.073-1.195-.219a3.152 3.152 0 01-.977-.625 2.812 2.812 0 01-.656-.945h-.094v4.437h-1.031zm3.742-3.562c.558 0 1.039-.141 1.446-.422.406-.282.718-.68.937-1.196.224-.515.336-1.119.336-1.812v-.016c0-.698-.112-1.302-.336-1.812-.219-.511-.531-.907-.937-1.188-.407-.281-.888-.422-1.446-.422-.557 0-1.041.144-1.453.43-.406.281-.721.677-.945 1.188-.224.51-.336 1.112-.336 1.804v.016c0 .693.112 1.297.336 1.812.224.511.542.909.953 1.196.411.281.893.422 1.445.422zm5.977 3.562v-11.203h1.031v1.68h.094a3.12 3.12 0 01.664-.969c.276-.276.596-.487.961-.633.37-.146.771-.219 1.203-.219.714 0 1.336.183 1.867.547.537.36.953.865 1.25 1.516.297.651.446 1.409.446 2.273v.016c0 .87-.149 1.63-.446 2.281-.297.651-.713 1.159-1.25 1.524-.531.359-1.153.539-1.867.539-.422 0-.82-.073-1.195-.219a3.14 3.14 0 01-.977-.625 2.812 2.812 0 01-.656-.945h-.094v4.437h-1.031zm3.742-3.562c.557 0 1.039-.141 1.445-.422.407-.282.719-.68.938-1.196.224-.515.336-1.119.336-1.812v-.016c0-.698-.112-1.302-.336-1.812-.219-.511-.531-.907-.938-1.188-.406-.281-.888-.422-1.445-.422s-1.042.144-1.453.43c-.406.281-.721.677-.945 1.188-.224.51-.336 1.112-.336 1.804v.016c0 .693.112 1.297.336 1.812.224.511.541.909.953 1.196.411.281.893.422 1.445.422zm8.805.914c-.61 0-1.151-.092-1.625-.274-.474-.187-.854-.448-1.141-.781a2.24 2.24 0 01-.515-1.195h1.054c.115.421.367.757.758 1.007.391.25.891.375 1.5.375.411 0 .779-.065 1.102-.195.328-.13.586-.31.773-.539a1.18 1.18 0 00.289-.781v-.016c0-.364-.138-.661-.414-.89-.276-.23-.721-.417-1.336-.563l-1.164-.273c-.781-.183-1.359-.446-1.734-.789-.375-.349-.563-.818-.563-1.407v-.008c0-.453.133-.859.399-1.218a2.7 2.7 0 011.093-.844 3.799 3.799 0 011.539-.305c.563 0 1.065.089 1.508.266.443.177.8.43 1.07.758.277.328.448.713.516 1.156h-1.016c-.088-.391-.317-.706-.687-.945-.37-.245-.836-.368-1.398-.368a2.59 2.59 0 00-1 .188 1.78 1.78 0 00-.711.516 1.157 1.157 0 00-.266.75v.015c0 .349.133.63.398.844.266.208.68.378 1.243.508l1.156.281c.812.193 1.419.466 1.82.82.401.349.602.826.602 1.43v.016c0 .484-.146.911-.438 1.281-.286.37-.674.659-1.164.867-.484.208-1.034.313-1.648.313z" fill="#fff"/></g><g filter="url(#prefix__filter6_bi_659_4261)"><path fill="url(#prefix__paint12_radial_659_4261)" fill-opacity=".35" d="M386 700h91v88h-91z"/><path stroke="url(#prefix__paint13_linear_659_4261)" stroke-width=".602" d="M385.699 699.699h91.602v88.602h-91.602z"/><path d="M407.945 731v-11.273h1.219l4.156 9.875h.102l4.156-9.875h1.219V731h-.992v-9.203h-.539l1.234-1.828L413.836 731h-.93l-4.656-11.031 1.227 1.828h-.539V731h-.993zm17.032.141c-.782 0-1.459-.175-2.032-.524-.573-.354-1.015-.857-1.328-1.508-.307-.651-.461-1.421-.461-2.312v-.016c0-.89.154-1.661.461-2.312.313-.651.755-1.151 1.328-1.5.573-.349 1.25-.524 2.032-.524.786 0 1.463.175 2.031.524.573.349 1.013.849 1.32 1.5.313.651.469 1.422.469 2.312v.016c0 .891-.156 1.661-.469 2.312-.307.651-.747 1.154-1.32 1.508-.568.349-1.245.524-2.031.524zm0-.914c.578 0 1.072-.138 1.484-.415.417-.276.734-.669.953-1.179.224-.516.336-1.128.336-1.836v-.016c0-.708-.112-1.317-.336-1.828-.219-.515-.536-.909-.953-1.18-.412-.276-.906-.414-1.484-.414-.579 0-1.076.138-1.493.414-.411.271-.729.662-.953 1.172-.219.511-.328 1.123-.328 1.836v.016c0 .708.109 1.32.328 1.836.224.51.542.903.953 1.179.417.277.914.415 1.493.415zm6.039.773v-8.414h1.031v1.476h.094c.224-.51.56-.906 1.007-1.187.454-.286 1.006-.43 1.657-.43.942 0 1.669.271 2.179.813.516.536.774 1.291.774 2.265V731h-1.024v-5.219c0-.797-.185-1.398-.554-1.804-.365-.412-.912-.618-1.641-.618-.495 0-.93.11-1.305.329a2.266 2.266 0 00-.875.921c-.208.396-.312.86-.312 1.391v5h-1.031zm12.703.141c-.787 0-1.466-.177-2.039-.532a3.48 3.48 0 01-1.313-1.5c-.307-.645-.461-1.408-.461-2.289v-.015c0-.875.154-1.638.461-2.289.307-.657.74-1.164 1.297-1.524.563-.364 1.219-.547 1.969-.547.755 0 1.403.177 1.945.532.547.349.966.838 1.258 1.468.297.625.445 1.352.445 2.18v.437h-6.843v-.843h6.32l-.508.758v-.391c0-.703-.112-1.292-.336-1.766-.219-.479-.526-.841-.922-1.086-.39-.244-.844-.367-1.359-.367a2.56 2.56 0 00-1.383.375c-.401.25-.719.617-.953 1.102-.229.479-.344 1.06-.344 1.742v.391c0 .671.115 1.25.344 1.734.229.484.552.857.969 1.117.416.261.908.391 1.476.391.406 0 .768-.058 1.086-.172.323-.115.591-.266.805-.453.213-.193.367-.396.461-.61l.023-.062h1.039l-.023.062c-.084.287-.222.56-.414.821a3.03 3.03 0 01-.719.687c-.292.198-.63.357-1.016.477-.38.114-.802.172-1.265.172zm6.25 2.765a3.158 3.158 0 01-.461-.031v-.859a2.725 2.725 0 00.43.031c.39 0 .71-.102.96-.305.256-.198.469-.549.641-1.054l.211-.633-3.156-8.469h1.101l2.782 7.976-.43-.671h.5l-.43.671 2.774-7.976h1.086l-3.407 9.148c-.208.552-.427.985-.656 1.297a1.856 1.856 0 01-.805.672c-.307.136-.687.203-1.14.203zM407.18 750v-11.273h1.218l4.157 9.875h.101l4.156-9.875h1.219V750h-.992v-9.203h-.539l1.234-1.828L413.07 750h-.929l-4.657-11.031 1.227 1.828h-.539V750h-.992zm15.953.141c-.542 0-1.024-.099-1.445-.297a2.434 2.434 0 01-1-.86c-.245-.369-.368-.804-.368-1.304v-.016c0-.729.261-1.302.782-1.719.526-.416 1.276-.659 2.25-.726l3.14-.203v.836l-3 .203c-.719.047-1.252.205-1.601.476-.344.266-.516.638-.516 1.117v.016c0 .484.182.87.547 1.156.364.282.833.422 1.406.422.505 0 .956-.104 1.352-.312.401-.214.718-.5.953-.86.234-.359.351-.76.351-1.203v-2.609c0-.62-.182-1.091-.546-1.414-.365-.323-.889-.485-1.571-.485-.573 0-1.049.112-1.429.336a1.561 1.561 0 00-.743.969l-.007.016h-1.032l.008-.032c.073-.453.255-.843.547-1.171a2.842 2.842 0 011.125-.758c.458-.183.979-.274 1.562-.274.662 0 1.224.112 1.688.336.463.219.815.537 1.055.953.244.417.367.922.367 1.516V750h-1.024v-1.453h-.101a2.83 2.83 0 01-.656.859 2.99 2.99 0 01-.938.547c-.354.125-.74.188-1.156.188zm6.476-.141v-8.414h1.032v1.383h.093c.167-.479.448-.852.844-1.117.396-.271.878-.407 1.445-.407a3.957 3.957 0 01.789.078v1.008a3.31 3.31 0 00-.437-.078 3.135 3.135 0 00-.461-.031c-.437 0-.828.101-1.172.305a2.161 2.161 0 00-.804.82c-.198.349-.297.75-.297 1.203V750h-1.032zm6.047 0v-11.766h1.032V750h-1.032zm5.367 0l-3.531-4.328.766-.656 4.07 4.984h-1.305zm-4.507-3.102l-.039-1.367h.304l4.102-3.945h1.281l-4.078 3.828-.195.18-1.375 1.304zm10.64 3.243c-.786 0-1.466-.177-2.039-.532-.568-.354-1.005-.854-1.312-1.5-.308-.645-.461-1.408-.461-2.289v-.015c0-.875.153-1.638.461-2.289.307-.657.739-1.164 1.297-1.524.562-.364 1.218-.547 1.968-.547.756 0 1.404.177 1.946.532.546.349.966.838 1.257 1.468.297.625.446 1.352.446 2.18v.437h-6.844v-.843h6.32l-.507.758v-.391c0-.703-.112-1.292-.336-1.766-.219-.479-.526-.841-.922-1.086-.391-.244-.844-.367-1.36-.367-.521 0-.981.125-1.382.375-.402.25-.719.617-.954 1.102-.229.479-.343 1.06-.343 1.742v.391c0 .671.114 1.25.343 1.734.23.484.552.857.969 1.117.417.261.909.391 1.477.391.406 0 .768-.058 1.086-.172.323-.115.591-.266.804-.453a1.8 1.8 0 00.461-.61l.024-.062h1.039l-.024.062c-.083.287-.221.56-.414.821a3.025 3.025 0 01-.718.687 3.83 3.83 0 01-1.016.477c-.38.114-.802.172-1.266.172zm8.555-.086c-.797 0-1.375-.167-1.734-.5-.355-.334-.532-.883-.532-1.649v-5.461h-1.351v-.859h1.351v-2.188h1.063v2.188h1.93v.859h-1.93v5.227c0 .521.101.896.304 1.125.204.229.542.344 1.016.344a5.614 5.614 0 00.61-.032v.883c-.12.016-.24.029-.36.039a2.651 2.651 0 01-.367.024zm-43.844 19.086c-.708 0-1.331-.18-1.867-.539-.531-.365-.945-.873-1.242-1.524-.297-.656-.446-1.414-.446-2.273v-.016c0-.87.149-1.63.446-2.281.297-.651.711-1.156 1.242-1.516.536-.364 1.159-.547 1.867-.547.641 0 1.214.162 1.719.485.51.323.883.758 1.117 1.304h.094v-5h1.031V769h-1.031v-1.68h-.094a3.048 3.048 0 01-1.117 1.336c-.495.323-1.068.485-1.719.485zm.219-.914c.552 0 1.031-.141 1.437-.422.412-.287.73-.685.954-1.196.229-.515.343-1.119.343-1.812v-.016c0-.692-.114-1.294-.343-1.804-.224-.511-.542-.907-.954-1.188-.406-.286-.885-.43-1.437-.43s-1.034.141-1.445.422c-.407.281-.722.677-.946 1.188-.224.51-.336 1.114-.336 1.812v.016c0 .693.112 1.297.336 1.812.224.516.539.914.946 1.196.411.281.893.422 1.445.422zm5.719.773l4.218-11.273h.821v1.398h-.344L418.922 769h-1.117zm1.82-3.461l.328-.914h5.203l.328.914h-5.859zm6.547 3.461l-3.578-9.875v-1.398h.484L427.297 769h-1.125zm3.031 2.789v-11.203h1.031v1.68h.094a3.12 3.12 0 01.664-.969c.276-.276.597-.487.961-.633.37-.146.771-.219 1.203-.219.714 0 1.336.183 1.867.547.537.36.954.865 1.25 1.516.297.651.446 1.409.446 2.273v.016c0 .87-.149 1.63-.446 2.281-.296.651-.713 1.159-1.25 1.524-.531.359-1.153.539-1.867.539-.422 0-.82-.073-1.195-.219a3.152 3.152 0 01-.977-.625 2.812 2.812 0 01-.656-.945h-.094v4.437h-1.031zm3.742-3.562c.558 0 1.039-.141 1.446-.422.406-.282.718-.68.937-1.196.224-.515.336-1.119.336-1.812v-.016c0-.698-.112-1.302-.336-1.812-.219-.511-.531-.907-.937-1.188-.407-.281-.888-.422-1.446-.422-.557 0-1.041.144-1.453.43-.406.281-.721.677-.945 1.188-.224.51-.336 1.112-.336 1.804v.016c0 .693.112 1.297.336 1.812.224.511.542.909.953 1.196.411.281.893.422 1.445.422zm5.977 3.562v-11.203h1.031v1.68h.094a3.12 3.12 0 01.664-.969c.276-.276.596-.487.961-.633.37-.146.771-.219 1.203-.219.714 0 1.336.183 1.867.547.537.36.953.865 1.25 1.516.297.651.446 1.409.446 2.273v.016c0 .87-.149 1.63-.446 2.281-.297.651-.713 1.159-1.25 1.524-.531.359-1.153.539-1.867.539-.422 0-.82-.073-1.195-.219a3.14 3.14 0 01-.977-.625 2.812 2.812 0 01-.656-.945h-.094v4.437h-1.031zm3.742-3.562c.557 0 1.039-.141 1.445-.422.407-.282.719-.68.938-1.196.224-.515.336-1.119.336-1.812v-.016c0-.698-.112-1.302-.336-1.812-.219-.511-.531-.907-.938-1.188-.406-.281-.888-.422-1.445-.422s-1.042.144-1.453.43c-.406.281-.721.677-.945 1.188-.224.51-.336 1.112-.336 1.804v.016c0 .693.112 1.297.336 1.812.224.511.541.909.953 1.196.411.281.893.422 1.445.422zm8.805.914c-.61 0-1.151-.092-1.625-.274-.474-.187-.854-.448-1.141-.781a2.24 2.24 0 01-.515-1.195h1.054c.115.421.367.757.758 1.007.391.25.891.375 1.5.375.411 0 .779-.065 1.102-.195.328-.13.586-.31.773-.539a1.18 1.18 0 00.289-.781v-.016c0-.364-.138-.661-.414-.89-.276-.23-.721-.417-1.336-.563l-1.164-.273c-.781-.183-1.359-.446-1.734-.789-.375-.349-.563-.818-.563-1.407v-.008c0-.453.133-.859.399-1.218a2.7 2.7 0 011.093-.844 3.799 3.799 0 011.539-.305c.563 0 1.065.089 1.508.266.443.177.8.43 1.07.758.277.328.448.713.516 1.156h-1.016c-.088-.391-.317-.706-.687-.945-.37-.245-.836-.368-1.398-.368a2.59 2.59 0 00-1 .188 1.78 1.78 0 00-.711.516 1.157 1.157 0 00-.266.75v.015c0 .349.133.63.398.844.266.208.68.378 1.243.508l1.156.281c.812.193 1.419.466 1.82.82.401.349.602.826.602 1.43v.016c0 .484-.146.911-.438 1.281-.286.37-.674.659-1.164.867-.484.208-1.034.313-1.648.313z" fill="#fff"/></g><g filter="url(#prefix__filter7_bi_659_4261)"><path fill="url(#prefix__paint14_radial_659_4261)" fill-opacity=".35" d="M495 700h91v88h-91z"/><path stroke="url(#prefix__paint15_linear_659_4261)" stroke-width=".602" d="M494.699 699.699h91.602v88.602h-91.602z"/><path d="M522.867 731v-4.875l-4.047-6.398h1.219l3.313 5.312h.093l3.305-5.312h1.219l-4.039 6.398V731h-1.063zm7.055 0v-8.414h1.031V731h-1.031zm.516-10.164a.74.74 0 01-.532-.219.736.736 0 01-.226-.539.71.71 0 01.226-.531.728.728 0 01.532-.227c.213 0 .393.076.539.227a.726.726 0 01.218.531.752.752 0 01-.218.539.733.733 0 01-.539.219zm6.593 10.305c-.786 0-1.466-.177-2.039-.532-.568-.354-1.005-.854-1.312-1.5-.308-.645-.461-1.408-.461-2.289v-.015c0-.875.153-1.638.461-2.289.307-.657.739-1.164 1.297-1.524.562-.364 1.218-.547 1.968-.547.756 0 1.404.177 1.946.532a3.37 3.37 0 011.257 1.468c.297.625.446 1.352.446 2.18v.437h-6.844v-.843h6.32l-.508.758v-.391c0-.703-.111-1.292-.335-1.766-.219-.479-.526-.841-.922-1.086-.391-.244-.844-.367-1.36-.367-.521 0-.981.125-1.383.375-.401.25-.718.617-.953 1.102-.229.479-.343 1.06-.343 1.742v.391c0 .671.114 1.25.343 1.734.23.484.552.857.969 1.117.417.261.909.391 1.477.391.406 0 .768-.058 1.086-.172.323-.115.591-.266.804-.453.214-.193.367-.396.461-.61l.024-.062h1.039l-.024.062c-.083.287-.221.56-.414.821a3.011 3.011 0 01-.719.687c-.291.198-.63.357-1.015.477-.38.114-.802.172-1.266.172zm5.86-.141v-11.766h1.031V731h-1.031zm6.882.141c-.708 0-1.33-.18-1.867-.539-.531-.365-.945-.873-1.242-1.524-.297-.656-.445-1.414-.445-2.273v-.016c0-.87.148-1.63.445-2.281.297-.651.711-1.156 1.242-1.516.537-.364 1.159-.547 1.867-.547.641 0 1.214.162 1.719.485.511.323.883.758 1.117 1.304h.094v-5h1.031V731h-1.031v-1.68h-.094a3.048 3.048 0 01-1.117 1.336c-.495.323-1.068.485-1.719.485zm.219-.914c.552 0 1.031-.141 1.438-.422.411-.287.729-.685.953-1.196.229-.515.344-1.119.344-1.812v-.016c0-.692-.115-1.294-.344-1.804-.224-.511-.542-.907-.953-1.188-.407-.286-.886-.43-1.438-.43-.552 0-1.034.141-1.445.422-.406.281-.721.677-.945 1.188-.224.51-.336 1.114-.336 1.812v.016c0 .693.112 1.297.336 1.812.224.516.539.914.945 1.196.411.281.893.422 1.445.422zm6.344-3.297v-.961h5.211v.961h-5.211zM513.961 750v-.945h3.422c.984 0 1.721-.19 2.211-.571.489-.385.734-.922.734-1.609v-.016c0-.474-.12-.875-.359-1.203-.24-.328-.586-.575-1.039-.742-.453-.172-1-.258-1.641-.258h-3.328v-.922h3.055c.875 0 1.549-.177 2.023-.531.479-.359.719-.864.719-1.515v-.016c0-.625-.222-1.115-.664-1.469-.438-.354-1.047-.531-1.828-.531h-3.305v-.945h3.516c.692 0 1.289.114 1.789.343.5.229.885.552 1.156.969.276.412.414.901.414 1.469v.015c0 .412-.091.795-.274 1.149a2.568 2.568 0 01-.726.89c-.307.24-.664.399-1.07.477v.086c.515.063.971.216 1.367.461.401.24.713.557.937.953.229.391.344.846.344 1.367v.016c0 .635-.151 1.185-.453 1.648-.297.459-.734.813-1.313 1.063-.572.245-1.278.367-2.117.367h-3.57zm-.531 0v-11.273h1.062V750h-1.062zm13.578.141c-.787 0-1.466-.177-2.039-.532-.568-.354-1.005-.854-1.313-1.5-.307-.645-.461-1.408-.461-2.289v-.015c0-.875.154-1.638.461-2.289.308-.657.74-1.164 1.297-1.524.563-.364 1.219-.547 1.969-.547.755 0 1.404.177 1.945.532.547.349.966.838 1.258 1.468.297.625.445 1.352.445 2.18v.437h-6.843v-.843h6.32l-.508.758v-.391c0-.703-.112-1.292-.336-1.766-.219-.479-.526-.841-.922-1.086-.39-.244-.843-.367-1.359-.367a2.56 2.56 0 00-1.383.375c-.401.25-.719.617-.953 1.102-.229.479-.344 1.06-.344 1.742v.391c0 .671.115 1.25.344 1.734.229.484.552.857.969 1.117.416.261.909.391 1.476.391.407 0 .768-.058 1.086-.172.323-.115.591-.266.805-.453.213-.193.367-.396.461-.61l.023-.062h1.039l-.023.062c-.083.287-.221.56-.414.821a3.03 3.03 0 01-.719.687c-.292.198-.63.357-1.016.477-.38.114-.802.172-1.265.172zm8.101 0c-.541 0-1.023-.099-1.445-.297a2.44 2.44 0 01-1-.86c-.245-.369-.367-.804-.367-1.304v-.016c0-.729.26-1.302.781-1.719.526-.416 1.276-.659 2.25-.726l3.141-.203v.836l-3 .203c-.719.047-1.253.205-1.602.476-.344.266-.515.638-.515 1.117v.016c0 .484.182.87.546 1.156.365.282.834.422 1.407.422a2.86 2.86 0 001.351-.312c.401-.214.719-.5.953-.86.235-.359.352-.76.352-1.203v-2.609c0-.62-.182-1.091-.547-1.414-.365-.323-.888-.485-1.57-.485-.573 0-1.05.112-1.43.336a1.56 1.56 0 00-.742.969l-.008.016h-1.031l.008-.032c.073-.453.255-.843.547-1.171a2.831 2.831 0 011.124-.758c.459-.183.98-.274 1.563-.274.661 0 1.224.112 1.687.336.464.219.816.537 1.055.953.245.417.367.922.367 1.516V750h-1.023v-1.453h-.102c-.166.333-.385.62-.656.859a2.985 2.985 0 01-.937.547c-.355.125-.74.188-1.157.188zm6.477-.141v-8.414h1.031v1.383h.094c.167-.479.448-.852.844-1.117.396-.271.877-.407 1.445-.407a4.016 4.016 0 01.789.078v1.008a3.37 3.37 0 00-.437-.078 3.144 3.144 0 00-.461-.031c-.438 0-.829.101-1.172.305a2.164 2.164 0 00-.805.82c-.198.349-.297.75-.297 1.203V750h-1.031zm6.016 0v-8.414h1.031V750h-1.031zm.515-10.164a.74.74 0 01-.531-.219.737.737 0 01-.227-.539c0-.208.076-.385.227-.531a.728.728 0 01.531-.227.72.72 0 01.539.227.723.723 0 01.219.531.75.75 0 01-.758.758zM551.32 750v-8.414h1.032v1.476h.093c.224-.51.56-.906 1.008-1.187.453-.286 1.005-.43 1.656-.43.943 0 1.67.271 2.18.813.516.536.773 1.291.773 2.265V750h-1.023v-5.219c0-.797-.185-1.398-.555-1.804-.364-.412-.911-.618-1.64-.618-.495 0-.93.11-1.305.329a2.26 2.26 0 00-.875.921c-.208.396-.312.86-.312 1.391v5h-1.032zm12.727 2.938c-.641 0-1.206-.092-1.695-.274-.49-.177-.883-.43-1.18-.758a2.173 2.173 0 01-.555-1.133l.016-.007h1.062l.008.007c.094.365.346.662.758.891.417.234.945.352 1.586.352.812 0 1.453-.196 1.922-.586.474-.391.711-.925.711-1.602v-1.89h-.094a3 3 0 01-.672.953 2.86 2.86 0 01-.961.609 3.414 3.414 0 01-1.195.203c-.719 0-1.344-.174-1.875-.523a3.523 3.523 0 01-1.235-1.453c-.291-.62-.437-1.334-.437-2.141v-.016c0-.802.146-1.513.437-2.132a3.509 3.509 0 011.235-1.461c.536-.355 1.169-.532 1.898-.532.433 0 .831.076 1.196.227.364.151.684.364.961.64a3.1 3.1 0 01.656.985h.078v-1.711h1.023v8.312c0 .61-.151 1.141-.453 1.594-.297.459-.721.813-1.273 1.063-.547.255-1.188.383-1.922.383zm-.086-4.157c.562 0 1.047-.133 1.453-.398.412-.271.729-.643.953-1.117.224-.48.336-1.032.336-1.657v-.015c0-.636-.114-1.196-.344-1.68a2.705 2.705 0 00-.953-1.141c-.406-.276-.888-.414-1.445-.414-.563 0-1.044.138-1.445.414a2.647 2.647 0 00-.93 1.133c-.219.485-.328 1.039-.328 1.664v.016c0 .63.109 1.185.328 1.664.219.479.529.854.93 1.125s.882.406 1.445.406zM520.328 769v-11.273h4.031c.735 0 1.37.135 1.907.406.541.271.961.651 1.257 1.14.297.49.446 1.071.446 1.743v.015c0 .792-.216 1.472-.649 2.039-.427.563-1.018.943-1.773 1.141l2.734 4.789h-1.242l-2.594-4.625a.685.685 0 01-.109.008h-2.945V769h-1.063zm1.063-5.562h2.882c.823 0 1.461-.209 1.915-.626.458-.416.687-1 .687-1.75v-.015c0-.74-.234-1.318-.703-1.735-.469-.421-1.115-.632-1.938-.632h-2.843v4.758zM532.773 769l-3.101-11.273h1.109l2.469 9.617h.078l2.711-9.617h1.055l2.718 9.617h.071l2.476-9.617h1.102L540.359 769h-.984l-2.766-9.422h-.078L533.766 769h-.993zm11.188 0l4.219-11.273h.82v1.398h-.344L545.078 769h-1.117zm1.82-3.461l.328-.914h5.203l.329.914h-5.86zm6.547 3.461l-3.578-9.875v-1.398h.484L553.453 769h-1.125zm5.672.141c-.609 0-1.151-.092-1.625-.274-.474-.187-.854-.448-1.141-.781a2.24 2.24 0 01-.515-1.195h1.054c.115.421.368.757.758 1.007.391.25.891.375 1.5.375a2.93 2.93 0 001.102-.195c.328-.13.586-.31.773-.539a1.18 1.18 0 00.289-.781v-.016c0-.364-.138-.661-.414-.89-.276-.23-.721-.417-1.336-.563l-1.164-.273c-.781-.183-1.359-.446-1.734-.789-.375-.349-.563-.818-.563-1.407v-.008c0-.453.133-.859.399-1.218.271-.36.635-.641 1.094-.844a3.792 3.792 0 011.539-.305 4.03 4.03 0 011.507.266c.443.177.8.43 1.071.758.276.328.448.713.515 1.156h-1.015c-.089-.391-.318-.706-.688-.945-.37-.245-.836-.368-1.398-.368a2.59 2.59 0 00-1 .188 1.78 1.78 0 00-.711.516 1.157 1.157 0 00-.266.75v.015c0 .349.133.63.399.844.265.208.679.378 1.242.508l1.156.281c.813.193 1.419.466 1.82.82.401.349.602.826.602 1.43v.016c0 .484-.146.911-.438 1.281-.286.37-.674.659-1.164.867-.484.208-1.033.313-1.648.313z" fill="#fff"/></g><defs><radialGradient id="prefix__paint0_radial_659_4261" cx="0" cy="0" r="1" gradientUnits="userSpaceOnUse" gradientTransform="matrix(0 79.791 -304.387 0 431.5 2.209)"><stop stop-color="#04A" stop-opacity=".77"/><stop offset="1" stop-color="#041420" stop-opacity="0"/></radialGradient><radialGradient id="prefix__paint2_radial_659_4261" cx="0" cy="0" r="1" gradientUnits="userSpaceOnUse" gradientTransform="matrix(0 86.6866 -89.6416 0 322.5 201.313)"><stop stop-color="#04A" stop-opacity=".77"/><stop offset="1" stop-color="#041420" stop-opacity="0"/></radialGradient><radialGradient id="prefix__paint4_radial_659_4261" cx="0" cy="0" r="1" gradientUnits="userSpaceOnUse" gradientTransform="matrix(0 86.6866 -89.6416 0 431.5 201.313)"><stop stop-color="#04A" stop-opacity=".77"/><stop offset="1" stop-color="#041420" stop-opacity="0"/></radialGradient><radialGradient id="prefix__paint6_radial_659_4261" cx="0" cy="0" r="1" gradientUnits="userSpaceOnUse" gradientTransform="matrix(0 86.6866 -89.6416 0 540.5 201.313)"><stop stop-color="#04A" stop-opacity=".77"/><stop offset="1" stop-color="#041420" stop-opacity="0"/></radialGradient><radialGradient id="prefix__paint8_radial_659_4261" cx="0" cy="0" r="1" gradientUnits="userSpaceOnUse" gradientTransform="matrix(0 79.791 -304.387 0 431.5 506.209)"><stop stop-color="#707070"/><stop offset="1" stop-color="#041420" stop-opacity="0"/></radialGradient><radialGradient id="prefix__paint10_radial_659_4261" cx="0" cy="0" r="1" gradientUnits="userSpaceOnUse" gradientTransform="matrix(0 86.6866 -89.6416 0 322.5 701.313)"><stop stop-color="#707070"/><stop offset="1" stop-color="#041420" stop-opacity="0"/></radialGradient><radialGradient id="prefix__paint12_radial_659_4261" cx="0" cy="0" r="1" gradientUnits="userSpaceOnUse" gradientTransform="matrix(0 86.6866 -89.6416 0 431.5 701.313)"><stop stop-color="#707070"/><stop offset="1" stop-color="#041420" stop-opacity="0"/></radialGradient><radialGradient id="prefix__paint14_radial_659_4261" cx="0" cy="0" r="1" gradientUnits="userSpaceOnUse" gradientTransform="matrix(0 86.6866 -89.6416 0 540.5 701.313)"><stop stop-color="#707070"/><stop offset="1" stop-color="#041420" stop-opacity="0"/></radialGradient><linearGradient id="prefix__paint1_linear_659_4261" x1="431.5" y1="1" x2="431.023" y2="90.025" gradientUnits="userSpaceOnUse"><stop stop-color="#8087C7"/><stop offset="1" stop-color="#ABABAB"/></linearGradient><linearGradient id="prefix__paint3_linear_659_4261" x1="322.5" y1="200" x2="320.588" y2="296.683" gradientUnits="userSpaceOnUse"><stop stop-color="#8087C7"/><stop offset="1" stop-color="#ABABAB"/></linearGradient><linearGradient id="prefix__paint5_linear_659_4261" x1="431.5" y1="200" x2="429.588" y2="296.683" gradientUnits="userSpaceOnUse"><stop stop-color="#8087C7"/><stop offset="1" stop-color="#ABABAB"/></linearGradient><linearGradient id="prefix__paint7_linear_659_4261" x1="540.5" y1="200" x2="538.588" y2="296.683" gradientUnits="userSpaceOnUse"><stop stop-color="#8087C7"/><stop offset="1" stop-color="#ABABAB"/></linearGradient><linearGradient id="prefix__paint9_linear_659_4261" x1="431.5" y1="505" x2="431.023" y2="594.024" gradientUnits="userSpaceOnUse"><stop stop-color="#487271"/><stop offset="1" stop-color="#ABABAB"/></linearGradient><linearGradient id="prefix__paint11_linear_659_4261" x1="322.5" y1="700" x2="320.588" y2="796.683" gradientUnits="userSpaceOnUse"><stop stop-color="#487271"/><stop offset="1" stop-color="#ABABAB"/></linearGradient><linearGradient id="prefix__paint13_linear_659_4261" x1="431.5" y1="700" x2="429.588" y2="796.683" gradientUnits="userSpaceOnUse"><stop stop-color="#487271"/><stop offset="1" stop-color="#ABABAB"/></linearGradient><linearGradient id="prefix__paint15_linear_659_4261" x1="540.5" y1="700" x2="538.588" y2="796.683" gradientUnits="userSpaceOnUse"><stop stop-color="#487271"/><stop offset="1" stop-color="#ABABAB"/></linearGradient><filter id="prefix__filter0_bi_659_4261" x="253.398" y="-22.602" width="356.204" height="128.204" filterUnits="userSpaceOnUse" color-interpolation-filters="sRGB"><feFlood flood-opacity="0" result="BackgroundImageFix"/><feGaussianBlur in="BackgroundImageFix" stdDeviation="11.5"/><feComposite in2="SourceAlpha" operator="in" result="effect1_backgroundBlur_659_4261"/><feBlend in="SourceGraphic" in2="effect1_backgroundBlur_659_4261" result="shape"/><feColorMatrix in="SourceAlpha" values="0 0 0 0 0 0 0 0 0 0 0 0 0 0 0 0 0 0 127 0" result="hardAlpha"/><feOffset dx="3.011" dy="3.011"/><feGaussianBlur stdDeviation="14.842"/><feComposite in2="hardAlpha" operator="arithmetic" k2="-1" k3="1"/><feColorMatrix values="0 0 0 0 0.273161 0 0 0 0 0.273161 0 0 0 0 0.273161 0 0 0 0.1 0"/><feBlend in2="shape" result="effect2_innerShadow_659_4261"/></filter><filter id="prefix__filter1_bi_659_4261" x="253.398" y="176.398" width="138.204" height="135.204" filterUnits="userSpaceOnUse" color-interpolation-filters="sRGB"><feFlood flood-opacity="0" result="BackgroundImageFix"/><feGaussianBlur in="BackgroundImageFix" stdDeviation="11.5"/><feComposite in2="SourceAlpha" operator="in" result="effect1_backgroundBlur_659_4261"/><feBlend in="SourceGraphic" in2="effect1_backgroundBlur_659_4261" result="shape"/><feColorMatrix in="SourceAlpha" values="0 0 0 0 0 0 0 0 0 0 0 0 0 0 0 0 0 0 127 0" result="hardAlpha"/><feOffset dx="3.011" dy="3.011"/><feGaussianBlur stdDeviation="14.842"/><feComposite in2="hardAlpha" operator="arithmetic" k2="-1" k3="1"/><feColorMatrix values="0 0 0 0 0.273161 0 0 0 0 0.273161 0 0 0 0 0.273161 0 0 0 0.1 0"/><feBlend in2="shape" result="effect2_innerShadow_659_4261"/></filter><filter id="prefix__filter2_bi_659_4261" x="362.398" y="176.398" width="138.204" height="135.204" filterUnits="userSpaceOnUse" color-interpolation-filters="sRGB"><feFlood flood-opacity="0" result="BackgroundImageFix"/><feGaussianBlur in="BackgroundImageFix" stdDeviation="11.5"/><feComposite in2="SourceAlpha" operator="in" result="effect1_backgroundBlur_659_4261"/><feBlend in="SourceGraphic" in2="effect1_backgroundBlur_659_4261" result="shape"/><feColorMatrix in="SourceAlpha" values="0 0 0 0 0 0 0 0 0 0 0 0 0 0 0 0 0 0 127 0" result="hardAlpha"/><feOffset dx="3.011" dy="3.011"/><feGaussianBlur stdDeviation="14.842"/><feComposite in2="hardAlpha" operator="arithmetic" k2="-1" k3="1"/><feColorMatrix values="0 0 0 0 0.273161 0 0 0 0 0.273161 0 0 0 0 0.273161 0 0 0 0.1 0"/><feBlend in2="shape" result="effect2_innerShadow_659_4261"/></filter><filter id="prefix__filter3_bi_659_4261" x="471.398" y="176.398" width="138.204" height="135.204" filterUnits="userSpaceOnUse" color-interpolation-filters="sRGB"><feFlood flood-opacity="0" result="BackgroundImageFix"/><feGaussianBlur in="BackgroundImageFix" stdDeviation="11.5"/><feComposite in2="SourceAlpha" operator="in" result="effect1_backgroundBlur_659_4261"/><feBlend in="SourceGraphic" in2="effect1_backgroundBlur_659_4261" result="shape"/><feColorMatrix in="SourceAlpha" values="0 0 0 0 0 0 0 0 0 0 0 0 0 0 0 0 0 0 127 0" result="hardAlpha"/><feOffset dx="3.011" dy="3.011"/><feGaussianBlur stdDeviation="14.842"/><feComposite in2="hardAlpha" operator="arithmetic" k2="-1" k3="1"/><feColorMatrix values="0 0 0 0 0.273161 0 0 0 0 0.273161 0 0 0 0 0.273161 0 0 0 0.1 0"/><feBlend in2="shape" result="effect2_innerShadow_659_4261"/></filter><filter id="prefix__filter4_bi_659_4261" x="253.398" y="481.398" width="356.204" height="128.204" filterUnits="userSpaceOnUse" color-interpolation-filters="sRGB"><feFlood flood-opacity="0" result="BackgroundImageFix"/><feGaussianBlur in="BackgroundImageFix" stdDeviation="11.5"/><feComposite in2="SourceAlpha" operator="in" result="effect1_backgroundBlur_659_4261"/><feBlend in="SourceGraphic" in2="effect1_backgroundBlur_659_4261" result="shape"/><feColorMatrix in="SourceAlpha" values="0 0 0 0 0 0 0 0 0 0 0 0 0 0 0 0 0 0 127 0" result="hardAlpha"/><feOffset dx="3.011" dy="3.011"/><feGaussianBlur stdDeviation="14.842"/><feComposite in2="hardAlpha" operator="arithmetic" k2="-1" k3="1"/><feColorMatrix values="0 0 0 0 0.273161 0 0 0 0 0.273161 0 0 0 0 0.273161 0 0 0 0.1 0"/><feBlend in2="shape" result="effect2_innerShadow_659_4261"/></filter><filter id="prefix__filter5_bi_659_4261" x="253.398" y="676.398" width="138.204" height="135.204" filterUnits="userSpaceOnUse" color-interpolation-filters="sRGB"><feFlood flood-opacity="0" result="BackgroundImageFix"/><feGaussianBlur in="BackgroundImageFix" stdDeviation="11.5"/><feComposite in2="SourceAlpha" operator="in" result="effect1_backgroundBlur_659_4261"/><feBlend in="SourceGraphic" in2="effect1_backgroundBlur_659_4261" result="shape"/><feColorMatrix in="SourceAlpha" values="0 0 0 0 0 0 0 0 0 0 0 0 0 0 0 0 0 0 127 0" result="hardAlpha"/><feOffset dx="3.011" dy="3.011"/><feGaussianBlur stdDeviation="14.842"/><feComposite in2="hardAlpha" operator="arithmetic" k2="-1" k3="1"/><feColorMatrix values="0 0 0 0 0.273161 0 0 0 0 0.273161 0 0 0 0 0.273161 0 0 0 0.1 0"/><feBlend in2="shape" result="effect2_innerShadow_659_4261"/></filter><filter id="prefix__filter6_bi_659_4261" x="362.398" y="676.398" width="138.204" height="135.204" filterUnits="userSpaceOnUse" color-interpolation-filters="sRGB"><feFlood flood-opacity="0" result="BackgroundImageFix"/><feGaussianBlur in="BackgroundImageFix" stdDeviation="11.5"/><feComposite in2="SourceAlpha" operator="in" result="effect1_backgroundBlur_659_4261"/><feBlend in="SourceGraphic" in2="effect1_backgroundBlur_659_4261" result="shape"/><feColorMatrix in="SourceAlpha" values="0 0 0 0 0 0 0 0 0 0 0 0 0 0 0 0 0 0 127 0" result="hardAlpha"/><feOffset dx="3.011" dy="3.011"/><feGaussianBlur stdDeviation="14.842"/><feComposite in2="hardAlpha" operator="arithmetic" k2="-1" k3="1"/><feColorMatrix values="0 0 0 0 0.273161 0 0 0 0 0.273161 0 0 0 0 0.273161 0 0 0 0.1 0"/><feBlend in2="shape" result="effect2_innerShadow_659_4261"/></filter><filter id="prefix__filter7_bi_659_4261" x="471.398" y="676.398" width="138.204" height="135.204" filterUnits="userSpaceOnUse" color-interpolation-filters="sRGB"><feFlood flood-opacity="0" result="BackgroundImageFix"/><feGaussianBlur in="BackgroundImageFix" stdDeviation="11.5"/><feComposite in2="SourceAlpha" operator="in" result="effect1_backgroundBlur_659_4261"/><feBlend in="SourceGraphic" in2="effect1_backgroundBlur_659_4261" result="shape"/><feColorMatrix in="SourceAlpha" values="0 0 0 0 0 0 0 0 0 0 0 0 0 0 0 0 0 0 127 0" result="hardAlpha"/><feOffset dx="3.011" dy="3.011"/><feGaussianBlur stdDeviation="14.842"/><feComposite in2="hardAlpha" operator="arithmetic" k2="-1" k3="1"/><feColorMatrix values="0 0 0 0 0.273161 0 0 0 0 0.273161 0 0 0 0 0.273161 0 0 0 0.1 0"/><feBlend in2="shape" result="effect2_innerShadow_659_4261"/></filter></defs></svg>