<svg width="649" height="435" fill="none" xmlns="http://www.w3.org/2000/svg"><g filter="url(#prefix__filter0_bi_1110_2093)"><rect x=".85" y=".85" width="647.624" height="433.3" rx="2.012" stroke="#464646" stroke-width=".3"/><path fill-rule="evenodd" clip-rule="evenodd" d="M59.746 46.15a.544.544 0 10-1.088 0v215.412h1.088l503.716-.001h.544v-1.087H59.746V46.149z" fill="#fff"/><path d="M36.46 166.689h-.85v-2.167c0-.549-.142-.974-.425-1.275-.287-.301-.682-.451-1.185-.451h-.01c-.507 0-.902.15-1.185.451-.284.301-.425.726-.425 1.275v2.167h-.85v-2.411c0-.482.102-.907.308-1.275.205-.369.492-.657.86-.866.369-.213.795-.319 1.28-.319h.011c.486 0 .914.106 1.286.319.372.209.662.497.871.866.21.368.313.793.313 1.275v2.411zm2.735.478H31.53v-.956h7.665v.956zm0-6.916H31.53v-2.927c0-.492.095-.921.287-1.286.187-.368.451-.653.791-.855.34-.202.74-.303 1.2-.303h.011c.532 0 .992.137 1.381.409.39.273.661.65.813 1.132l3.182-1.774v1.12l-3.033 1.642v1.886h3.033v.956zm-3.883-.956v-1.886c0-.492-.126-.871-.377-1.137-.255-.269-.616-.404-1.084-.404h-.01c-.457 0-.815.14-1.074.42-.258.28-.387.668-.387 1.163v1.844h2.932zm3.883-6.152H31.53v-.956h7.665v.956zm.18-5.997c0 .694-.162 1.294-.488 1.801-.326.506-.788.897-1.386 1.174-.599.272-1.309.409-2.13.409h-.011c-.825 0-1.537-.137-2.136-.409-.598-.277-1.06-.666-1.386-1.169-.326-.507-.489-1.107-.489-1.801 0-.538.106-1.027.319-1.466.209-.443.501-.808.876-1.094a2.75 2.75 0 011.291-.542l.01.005v.962l-.01.005c-.33.085-.612.228-.85.43a2.05 2.05 0 00-.557.739 2.282 2.282 0 00-.197.961c0 .489.127.914.383 1.275.255.358.616.634 1.083.829.468.194 1.022.292 1.663.292h.01c.638 0 1.19-.098 1.658-.292.467-.195.829-.471 1.084-.829.255-.361.382-.788.382-1.28 0-.358-.057-.682-.17-.972a2.008 2.008 0 00-.494-.733 1.786 1.786 0 00-.765-.415l-.01-.01v-.967h.01c.468.085.875.269 1.222.552.343.284.61.643.802 1.079.191.432.287.92.287 1.466zm-.18-4.702H31.53v-4.749h.86v3.793h2.46v-3.596h.85v3.596h2.635v-3.793h.86v4.749zM265.611 288.336v-7.666h1.11l2.624 6.396h.085l2.625-6.396h1.11v7.666h-.893v-5.854h-.467l1.073-1.599-3.086 7.453h-.808l-3.081-7.453 1.068 1.599h-.468v5.854h-.892zm8.898 0l2.826-7.666h.733v1.238h-.303l-2.252 6.428h-1.004zm1.28-2.194l.298-.813h3.463l.298.813h-4.059zm4.314 2.194l-2.253-6.428v-1.238h.431l2.826 7.666h-1.004zm3.437 0v-6.805h-2.471v-.861h5.897v.861h-2.47v6.805h-.956zm7.941.181c-.634 0-1.179-.119-1.636-.356a2.547 2.547 0 01-1.046-.988c-.245-.425-.367-.916-.367-1.472v-5.031h.956v4.967c0 .588.183 1.068.548 1.44.368.372.883.558 1.545.558.666 0 1.18-.186 1.541-.558.361-.372.542-.852.542-1.44v-4.967h.956v5.031c0 .556-.122 1.047-.367 1.472-.24.421-.587.75-1.041.988-.453.237-.997.356-1.631.356zm4.983-.181v-7.666h2.927c.493 0 .921.096 1.286.287.368.188.653.452.855.792.202.34.303.74.303 1.2v.011c0 .531-.136.992-.409 1.381-.273.39-.65.661-1.132.813l1.775 3.182h-1.121l-1.642-3.033h-1.886v3.033h-.956zm.956-3.883h1.886c.493 0 .871-.126 1.137-.377.269-.255.404-.617.404-1.084v-.011c0-.457-.14-.814-.42-1.073-.28-.258-.667-.388-1.163-.388h-1.844v2.933zm6.152 3.883v-7.666h.956v7.666h-.956zm4.903 0v-6.805h-2.47v-.861h5.896v.861h-2.47v6.805h-.956zm7.012 0v-3.299l-2.72-4.367h1.089l2.067 3.406h.085l2.066-3.406h1.089l-2.72 4.367v3.299h-.956zm9.897 1.912a7.156 7.156 0 01-.85-1.455 7.66 7.66 0 01-.499-1.642c-.107-.58-.16-1.2-.16-1.859s.053-1.277.16-1.854c.106-.581.27-1.128.494-1.641a6.981 6.981 0 01.855-1.461h.775c-.191.244-.37.552-.536.924a8.584 8.584 0 00-.425 1.233c-.12.446-.214.91-.282 1.391-.067.478-.101.948-.101 1.408 0 .464.034.937.101 1.418.068.479.162.942.282 1.392.12.446.262.854.425 1.222.166.372.345.68.536.924h-.775zm2.337-1.912v-7.666h2.63c.758 0 1.406.153 1.944.457.542.301.956.737 1.243 1.307.287.57.43 1.257.43 2.061v.011c0 .804-.143 1.493-.43 2.066a3.033 3.033 0 01-1.238 1.312c-.538.301-1.188.452-1.949.452h-2.63zm.956-.861h1.61c.57 0 1.057-.117 1.461-.35.404-.234.712-.572.924-1.015.213-.443.319-.974.319-1.594v-.01c0-.623-.108-1.156-.324-1.599a2.282 2.282 0 00-.924-1.02c-.404-.237-.889-.356-1.456-.356h-1.61v5.944zm5.966.861l2.826-7.666h.733v1.238h-.303l-2.252 6.428h-1.004zm1.28-2.194l.298-.813h3.463l.298.813h-4.059zm4.314 2.194l-2.253-6.428v-1.238h.431l2.826 7.666h-1.004zm3.66 0v-3.299l-2.72-4.367h1.089l2.066 3.406h.085l2.067-3.406h1.089l-2.72 4.367v3.299h-.956zm7.426.181c-.559 0-1.048-.091-1.466-.271a2.495 2.495 0 01-.988-.755 2.14 2.14 0 01-.42-1.105l-.005-.058h.956l.006.058c.024.255.122.477.292.664.173.185.404.328.69.431.291.102.62.154.988.154.348 0 .656-.055.925-.165a1.56 1.56 0 00.643-.467c.155-.199.233-.427.233-.686v-.005a1.05 1.05 0 00-.35-.802c-.234-.22-.615-.388-1.142-.505l-.85-.186c-.769-.17-1.328-.432-1.679-.786-.347-.358-.521-.814-.521-1.37v-.006c.004-.425.119-.8.346-1.126a2.3 2.3 0 01.951-.765c.407-.184.874-.276 1.402-.276.51 0 .961.092 1.355.276.393.181.704.425.935.733.233.308.363.654.387 1.036l.006.074h-.957l-.01-.069a1.2 1.2 0 00-.276-.6 1.524 1.524 0 00-.595-.42 2.212 2.212 0 00-.872-.148c-.318 0-.605.049-.86.148-.255.1-.459.243-.611.431-.149.184-.223.41-.223.68v.005c0 .305.113.561.34.77.226.209.6.37 1.121.484l.85.191c.8.177 1.372.434 1.715.77.344.337.516.781.516 1.333v.006c0 .478-.117.89-.351 1.238a2.288 2.288 0 01-.988.807c-.425.188-.922.282-1.493.282zm4.808 1.731h-.776c.192-.244.369-.552.532-.924.166-.368.309-.776.43-1.222.12-.45.214-.913.281-1.392a9.994 9.994 0 000-2.826 11.41 11.41 0 00-.281-1.391 8.34 8.34 0 00-.43-1.233 4.255 4.255 0 00-.532-.924h.776c.347.457.632.944.855 1.461a7.46 7.46 0 01.494 1.641c.106.577.16 1.195.16 1.854s-.055 1.279-.165 1.859a7.485 7.485 0 01-.494 1.642c-.22.513-.503.998-.85 1.455z" fill="#CDCDCD"/><path d="M102.688 142.377v-8.166h-2.965v-1.033h7.076v1.033h-2.964v8.166h-1.147zm6.017-3.187v-1.033h6.744v1.033h-6.744zm2.856 2.919v-6.872h1.032v6.872h-1.032zm7.56.268l4.13-8.083v-.089h-4.921v-1.027h6.088v1.065l-4.092 8.134h-1.205zm11.461.217c-.68 0-1.262-.196-1.747-.587-.48-.391-.85-.945-1.109-1.664-.259-.722-.389-1.576-.389-2.562v-.013c0-.986.13-1.838.389-2.556s.629-1.273 1.109-1.664c.485-.391 1.067-.586 1.747-.586.68 0 1.262.195 1.747.586.484.391.856.946 1.115 1.664.264.718.395 1.57.395 2.556v.013c0 .986-.131 1.84-.395 2.562-.259.719-.631 1.273-1.115 1.664-.485.391-1.067.587-1.747.587zm0-1.001c.442 0 .818-.155 1.128-.465.315-.311.555-.751.721-1.32.17-.569.255-1.245.255-2.027v-.013c0-.782-.085-1.455-.255-2.021-.166-.569-.406-1.007-.721-1.313a1.536 1.536 0 00-1.128-.465c-.438 0-.814.155-1.128.465-.311.306-.549.744-.714 1.313-.166.566-.249 1.239-.249 2.021v.013c0 .782.083 1.458.249 2.027.165.569.403 1.009.714 1.32.314.31.69.465 1.128.465zM295.217 153.256v-8.166h-2.965v-1.033h7.076v1.033h-2.964v8.166h-1.147zm6.017-3.187v-1.033h6.744v1.033h-6.744zm2.856 2.919v-6.872h1.032v6.872h-1.032zm10.186-9.147c.421 0 .835.08 1.243.242.412.161.784.423 1.116.784.335.361.603.839.803 1.434.2.591.299 1.32.299 2.187v.012c0 1.046-.14 1.94-.42 2.684-.281.74-.684 1.307-1.211 1.702-.527.391-1.163.587-1.906.587-.515 0-.98-.094-1.396-.281a2.851 2.851 0 01-1.607-1.982l-.019-.083h1.154l.025.07c.094.255.226.476.396.663.174.187.382.331.624.433.247.102.525.153.835.153.557 0 1.01-.161 1.358-.484.349-.327.608-.761.778-1.301.17-.539.265-1.128.287-1.765.004-.06.006-.117.006-.173v-.172l-.274-1.53a2.17 2.17 0 00-.281-1.096 2.085 2.085 0 00-.745-.778 1.938 1.938 0 00-1.052-.293c-.383 0-.731.096-1.046.287a2.098 2.098 0 00-.752.765 2.09 2.09 0 00-.28 1.077v.013c0 .408.089.771.267 1.09.179.315.423.563.733.746.311.178.663.268 1.059.268.399 0 .756-.09 1.071-.268.314-.179.563-.423.745-.733.187-.315.281-.672.281-1.071v-.007h.376v1.658h-.223a2.19 2.19 0 01-.51.701 2.557 2.557 0 01-.829.523 2.91 2.91 0 01-1.109.197 2.981 2.981 0 01-1.543-.401 2.938 2.938 0 01-1.077-1.097 3.166 3.166 0 01-.395-1.581v-.012c0-.612.138-1.156.414-1.632a3.02 3.02 0 011.148-1.129c.488-.272 1.041-.407 1.657-.407zm9.906 9.632c-.68 0-1.262-.196-1.747-.587-.48-.391-.85-.945-1.109-1.664-.259-.722-.389-1.576-.389-2.562v-.013c0-.986.13-1.838.389-2.556s.629-1.273 1.109-1.664c.485-.391 1.067-.586 1.747-.586.68 0 1.262.195 1.746.586.485.391.857.946 1.116 1.664.264.718.395 1.57.395 2.556v.013c0 .986-.131 1.84-.395 2.562-.259.719-.631 1.273-1.116 1.664-.484.391-1.066.587-1.746.587zm0-1.001c.442 0 .818-.155 1.128-.466.315-.31.555-.75.72-1.319.17-.57.255-1.245.255-2.027v-.013c0-.782-.085-1.456-.255-2.021-.165-.569-.405-1.007-.72-1.313a1.536 1.536 0 00-1.128-.465c-.438 0-.814.155-1.128.465-.311.306-.549.744-.714 1.313-.166.565-.249 1.239-.249 2.021v.013c0 .782.083 1.457.249 2.027.165.569.403 1.009.714 1.319.314.311.69.466 1.128.466zM494.521 107.562v-8.165h-2.964v-1.033h7.076v1.033h-2.965v8.165h-1.147zm6.017-3.187v-1.033h6.745v1.033h-6.745zm2.856 2.92v-6.872h1.033v6.872h-1.033zm9.428.267v-7.923h-.102l-2.34 1.695v-1.211l2.448-1.76h1.141v9.199h-1.147zm8.58.217c-.421 0-.838-.081-1.25-.242a3.048 3.048 0 01-1.115-.784c-.332-.361-.598-.837-.797-1.428-.2-.595-.3-1.326-.3-2.193v-.013c0-1.045.14-1.938.421-2.677.28-.744.684-1.311 1.211-1.702.527-.395 1.162-.593 1.906-.593.514 0 .977.096 1.39.287.416.187.763.45 1.039.79.28.336.472.731.574 1.186l.019.083h-1.154l-.026-.07a1.86 1.86 0 00-.401-.663 1.725 1.725 0 00-.625-.434 2.117 2.117 0 00-.829-.152c-.556 0-1.009.163-1.358.49-.348.323-.607.755-.777 1.294a6.854 6.854 0 00-.287 1.766 2.387 2.387 0 00-.006.172v.172l.274 1.53c0 .404.091.769.274 1.097.187.327.438.588.752.784.314.191.665.287 1.052.287a2.02 2.02 0 001.052-.281c.314-.191.563-.448.745-.771a2.11 2.11 0 00.281-1.077v-.013c0-.408-.089-.769-.268-1.084a1.884 1.884 0 00-.727-.746 2.063 2.063 0 00-1.064-.274 2.15 2.15 0 00-1.071.268 2.027 2.027 0 00-.752.739 2.057 2.057 0 00-.274 1.065v.006h-.376v-1.657h.223c.114-.251.284-.485.51-.701.225-.217.501-.391.828-.523a2.948 2.948 0 011.11-.198c.578 0 1.094.134 1.549.402.454.268.811.633 1.071 1.096.263.464.395.991.395 1.581v.013c0 .612-.14 1.156-.421 1.632a3.029 3.029 0 01-1.141 1.128c-.485.272-1.037.408-1.657.408zm9.663 0c-.68 0-1.262-.195-1.747-.586-.48-.391-.85-.946-1.109-1.664-.259-.722-.389-1.577-.389-2.563v-.012c0-.986.13-1.838.389-2.557.259-.718.629-1.272 1.109-1.663.485-.391 1.067-.587 1.747-.587.68 0 1.262.196 1.747.587.484.39.856.945 1.115 1.663.264.719.396 1.571.396 2.557v.012c0 .986-.132 1.841-.396 2.563-.259.718-.631 1.273-1.115 1.664-.485.391-1.067.586-1.747.586zm0-1.001c.442 0 .818-.155 1.128-.465.315-.31.555-.75.721-1.319.17-.57.255-1.246.255-2.028v-.012c0-.782-.085-1.456-.255-2.021-.166-.57-.406-1.007-.721-1.313a1.536 1.536 0 00-1.128-.466c-.438 0-.814.156-1.128.466-.31.306-.548.743-.714 1.313-.166.565-.249 1.239-.249 2.021v.012c0 .782.083 1.458.249 2.028.166.569.404 1.009.714 1.319.314.31.69.465 1.128.465zM579.271 66.22v-8.165h-2.964v-1.033h7.076v1.033h-2.964v8.166h-1.148zm6.017-3.187v-1.032h6.745v1.032h-6.745zm2.856 2.92v-6.872h1.033v6.872h-1.033zm10.308.42c-.634 0-1.186-.108-1.658-.324a2.803 2.803 0 01-1.122-.893 2.55 2.55 0 01-.471-1.294l-.007-.076h1.103l.006.063c.047.45.264.818.651 1.103.386.285.886.427 1.498.427.403 0 .756-.07 1.058-.21.306-.14.544-.334.714-.58.17-.25.255-.538.255-.86v-.014c0-.565-.189-.998-.568-1.3-.374-.306-.884-.459-1.53-.459h-1.153v-.969h1.102c.366 0 .689-.068.969-.204.281-.14.5-.33.657-.567a1.48 1.48 0 00.236-.822v-.013c0-.323-.068-.597-.204-.823a1.306 1.306 0 00-.599-.516c-.26-.119-.576-.178-.95-.178a2.42 2.42 0 00-.969.184 1.616 1.616 0 00-.676.517c-.17.225-.272.493-.306.803l-.006.064h-1.103l.006-.064c.051-.502.209-.94.472-1.313a2.708 2.708 0 011.058-.873c.442-.209.95-.313 1.524-.313.586 0 1.096.102 1.53.306.437.2.775.478 1.013.835.243.353.364.763.364 1.23v.013c0 .378-.083.714-.249 1.007a2.142 2.142 0 01-.688.733 2.882 2.882 0 01-1.014.415v.025c.672.056 1.213.283 1.626.682.416.396.624.92.624 1.575v.013c0 .51-.138.966-.414 1.37a2.856 2.856 0 01-1.135.957c-.48.229-1.028.344-1.644.344zm10.779-.152v-1.906h-4.482v-1.046a298.108 298.108 0 011.549-2.543 205.467 205.467 0 011.6-2.518c.268-.408.532-.803.791-1.186h1.664v6.266h1.306v1.027h-1.306v1.906h-1.122zm-3.309-2.926h3.315v-5.208h-.076a196.994 196.994 0 00-1.301 1.989 224.769 224.769 0 00-1.319 2.11c-.213.348-.419.692-.619 1.032v.077zm12.112 3.142c-.68 0-1.263-.195-1.747-.586-.48-.391-.85-.946-1.109-1.664-.259-.722-.389-1.576-.389-2.562v-.013c0-.986.13-1.838.389-2.556.259-.719.629-1.273 1.109-1.664.484-.391 1.067-.587 1.747-.587.68 0 1.262.196 1.746.587.485.39.857.945 1.116 1.664.263.718.395 1.57.395 2.556v.013c0 .986-.132 1.84-.395 2.562-.259.718-.631 1.273-1.116 1.664-.484.391-1.066.586-1.746.586zm0-1c.442 0 .818-.156 1.128-.466.314-.31.555-.75.72-1.32.17-.569.255-1.245.255-2.026v-.013c0-.782-.085-1.456-.255-2.02-.165-.57-.406-1.008-.72-1.314a1.536 1.536 0 00-1.128-.465c-.438 0-.814.155-1.129.465-.31.306-.548.744-.714 1.313-.165.565-.248 1.239-.248 2.02v.014c0 .782.083 1.457.248 2.027.166.57.404 1.009.714 1.32.315.31.691.465 1.129.465z" fill="#fff"/><path d="M86.401 259.927l-.002.544 1.087.006.003-.544-1.088-.006zm2.217-213.23a.544.544 0 00-1.088-.006l1.088.006zm-1.12 211.62a.545.545 0 00-1.088-.006l1.088.006zm-1.071-3.236a.543.543 0 101.088.005l-1.088-.005zm1.105-3.226a.543.543 0 10-1.088-.005l1.088.005zm-1.07-3.236a.545.545 0 001.087.006l-1.088-.006zm1.104-3.225a.543.543 0 10-1.088-.006l1.088.006zm-1.07-3.237a.544.544 0 101.087.006l-1.088-.006zm1.104-3.225a.545.545 0 00-1.087-.006l1.087.006zm-1.07-3.237a.543.543 0 101.088.006l-1.088-.006zm1.105-3.225a.543.543 0 10-1.088-.005l1.088.005zm-1.071-3.236a.545.545 0 001.088.006l-1.088-.006zm1.105-3.225a.543.543 0 10-1.088-.006l1.088.006zm-1.071-3.237a.545.545 0 001.088.006l-1.088-.006zm1.105-3.225a.545.545 0 00-1.088-.006l1.088.006zm-1.07-3.237a.543.543 0 101.087.006l-1.088-.006zm1.104-3.225a.545.545 0 00-1.088-.005l1.088.005zm-1.07-3.236a.545.545 0 001.087.005l-1.088-.005zm1.104-3.225a.543.543 0 10-1.088-.006l1.088.006zm-1.07-3.237a.545.545 0 001.087.006l-1.087-.006zm1.105-3.225a.544.544 0 10-1.088-.006l1.087.006zm-1.071-3.237a.543.543 0 101.088.006l-1.088-.006zm1.105-3.225a.545.545 0 00-1.088-.006l1.088.006zm-1.071-3.236a.543.543 0 101.088.005l-1.088-.005zm1.105-3.226a.543.543 0 10-1.088-.005l1.088.005zm-1.07-3.236a.545.545 0 001.087.006l-1.088-.006zm1.104-3.225a.544.544 0 00-1.088-.006l1.088.006zm-1.07-3.237a.544.544 0 101.087.006l-1.088-.006zm1.104-3.225a.545.545 0 00-1.088-.006l1.088.006zm-1.07-3.237a.543.543 0 101.087.006l-1.088-.006zm1.105-3.225a.543.543 0 10-1.089-.005l1.088.005zm-1.071-3.236a.545.545 0 001.088.006l-1.088-.006zm1.105-3.225a.543.543 0 10-1.088-.006l1.088.006zm-1.071-3.237a.545.545 0 001.088.006l-1.088-.006zm1.105-3.225a.545.545 0 00-1.088-.006l1.088.006zm-1.071-3.237a.543.543 0 101.088.006l-1.088-.006zm1.105-3.225a.545.545 0 00-1.088-.005l1.088.005zm-1.07-3.236a.545.545 0 001.087.005l-1.088-.005zm1.104-3.225a.543.543 0 10-1.088-.006l1.088.006zm-1.07-3.237a.545.545 0 001.087.006l-1.088-.006zm1.104-3.225a.544.544 0 00-1.088-.006l1.088.006zm-1.07-3.237a.543.543 0 101.088.006l-1.088-.006zm1.105-3.225a.545.545 0 00-1.088-.006l1.088.006zm-1.071-3.236a.543.543 0 101.088.005l-1.088-.005zm1.105-3.226a.543.543 0 10-1.088-.005l1.088.005zm-1.071-3.236a.545.545 0 001.088.006l-1.088-.006zm1.105-3.225a.544.544 0 00-1.088-.006l1.088.006zm-1.07-3.237a.544.544 0 001.087.006l-1.088-.006zm1.104-3.225a.545.545 0 00-1.088-.006l1.088.006zm-1.07-3.237a.543.543 0 101.087.006l-1.088-.006zm1.104-3.225a.543.543 0 10-1.088-.005l1.088.005zM87.248 100a.545.545 0 001.087.006L87.248 100zm1.105-3.225a.544.544 0 10-1.088-.006l1.088.006zm-1.071-3.237a.544.544 0 001.088.006l-1.088-.006zm1.105-3.225a.544.544 0 10-1.088-.006l1.088.006zm-1.071-3.237a.544.544 0 001.088.006l-1.088-.006zm1.105-3.225a.544.544 0 10-1.088-.005l1.088.005zm-1.07-3.236a.544.544 0 001.087.005l-1.088-.005zm1.104-3.225a.544.544 0 10-1.088-.006l1.088.006zm-1.07-3.237a.544.544 0 101.087.006l-1.088-.006zm1.104-3.225a.544.544 0 10-1.088-.006l1.088.006zm-1.07-3.237a.544.544 0 101.087.006l-1.088-.006zm1.105-3.225a.544.544 0 10-1.088-.006l1.087.006zm-1.071-3.236a.544.544 0 101.088.005l-1.088-.005zm1.105-3.225a.544.544 0 10-1.088-.006l1.088.005zm-1.071-3.237a.544.544 0 001.088.006l-1.088-.006zm1.105-3.225a.544.544 0 10-1.088-.006l1.088.006zm-1.071-3.237a.544.544 0 001.088.006l-1.088-.006zm-.032 211.627l.009-1.616-1.088-.006-.009 1.616 1.088.006zm.026-4.847l.017-3.231-1.088-.005-.017 3.231 1.088.005zm.034-6.461l.017-3.231-1.088-.006-.017 3.231 1.088.006zm.034-6.462l.017-3.231-1.087-.006-.018 3.231 1.088.006zm.035-6.462l.017-3.231-1.088-.005-.017 3.23 1.088.006zm.034-6.461l.017-3.231-1.088-.006-.017 3.231 1.088.006zm.034-6.462l.017-3.231-1.088-.006-.017 3.231 1.088.006zm.034-6.462l.017-3.231-1.088-.005-.017 3.23 1.088.006zm.034-6.462l.017-3.23-1.088-.006-.017 3.231 1.088.005zm.034-6.461l.017-3.231-1.087-.006-.017 3.231 1.087.006zm.035-6.462l.017-3.231-1.088-.006-.017 3.231 1.088.006zm.034-6.462l.017-3.231-1.088-.005-.017 3.231 1.088.005zm.034-6.461l.017-3.231-1.088-.006-.017 3.231 1.088.006zm.034-6.462l.017-3.231-1.088-.006-.017 3.231 1.088.006zm.034-6.462l.017-3.231-1.088-.005-.017 3.23 1.088.006zm.035-6.461l.017-3.231-1.088-.006-.017 3.231 1.088.006zm.034-6.462l.017-3.231-1.088-.006-.017 3.231 1.088.006zm.034-6.462l.017-3.231-1.088-.005-.017 3.23 1.088.006zm.034-6.462l.017-3.23-1.088-.006-.017 3.231 1.088.005zm.034-6.461l.017-3.231-1.088-.006-.017 3.231 1.088.006zm.035-6.462l.017-3.231-1.088-.006-.017 3.231 1.088.006zm.034-6.462l.017-3.231-1.088-.005-.017 3.231 1.088.005zm.034-6.461l.017-3.231-1.088-.006-.017 3.231 1.088.006zm.034-6.462l.017-3.231-1.088-.006-.017 3.231 1.088.006zm.034-6.462l.017-3.231-1.088-.005-.017 3.23 1.088.006zm.034-6.461l.018-3.231-1.088-.006-.017 3.23 1.087.007zm.035-6.462l.017-3.231-1.088-.006-.017 3.231 1.088.006zm.034-6.462l.017-3.23-1.088-.007-.017 3.231 1.088.006zm.034-6.462l.017-3.23-1.088-.006-.017 3.23 1.088.006zm.034-6.461l.017-3.231-1.088-.006-.017 3.231 1.088.006zm.034-6.462l.017-3.23-1.087-.007-.018 3.231 1.088.006zm.035-6.462l.017-3.23-1.088-.006-.017 3.23 1.088.006zm.034-6.461l.017-3.231-1.088-.006-.017 3.23 1.088.007zm.034-6.462l.009-1.615-1.088-.006-.009 1.615 1.088.006zM280.054 259.927l-.003.544 1.088.006.003-.544-1.088-.006zm2.216-213.23a.544.544 0 00-1.088-.006l1.088.006zm-1.12 211.62a.544.544 0 10-1.088-.006l1.088.006zm-1.071-3.236a.544.544 0 001.088.005l-1.088-.005zm1.105-3.226a.544.544 0 00-1.088-.005l1.088.005zm-1.07-3.236a.544.544 0 101.087.006l-1.087-.006zm1.105-3.225a.544.544 0 00-1.088-.006l1.088.006zm-1.071-3.237a.543.543 0 101.088.006l-1.088-.006zm1.105-3.225a.545.545 0 00-1.088-.006l1.088.006zm-1.071-3.237a.543.543 0 101.088.006l-1.088-.006zm1.105-3.225a.543.543 0 10-1.088-.005l1.088.005zm-1.071-3.236a.545.545 0 001.088.006l-1.088-.006zm1.105-3.225a.543.543 0 10-1.088-.006l1.088.006zm-1.071-3.237a.545.545 0 001.088.006l-1.088-.006zm1.105-3.225a.544.544 0 10-1.088-.006l1.088.006zm-1.071-3.237a.544.544 0 001.088.006l-1.088-.006zm1.105-3.225a.544.544 0 10-1.087-.005l1.087.005zm-1.07-3.236a.544.544 0 101.088.005l-1.088-.005zm1.105-3.225a.544.544 0 10-1.088-.006l1.088.006zm-1.071-3.237a.545.545 0 001.088.006l-1.088-.006zm1.105-3.225a.545.545 0 00-1.088-.006l1.088.006zm-1.071-3.237a.543.543 0 101.088.006l-1.088-.006zm1.105-3.225a.545.545 0 00-1.088-.006l1.088.006zm-1.071-3.236a.544.544 0 001.088.005l-1.088-.005zm1.105-3.226a.544.544 0 00-1.088-.005l1.088.005zm-1.071-3.236a.545.545 0 001.088.006l-1.088-.006zm1.105-3.225a.543.543 0 10-1.087-.006l1.087.006zm-1.07-3.237a.543.543 0 101.088.006l-1.088-.006zm1.105-3.225a.545.545 0 00-1.088-.006l1.088.006zm-1.071-3.237a.544.544 0 101.088.006l-1.088-.006zm1.105-3.225a.544.544 0 00-1.088-.005l1.088.005zm-1.071-3.236a.545.545 0 001.088.006l-1.088-.006zm1.105-3.225a.543.543 0 10-1.088-.006l1.088.006zm-1.071-3.237a.545.545 0 001.088.006l-1.088-.006zm1.105-3.225a.544.544 0 10-1.088-.006l1.088.006zm-1.071-3.237a.544.544 0 101.088.006l-1.088-.006zm1.105-3.225a.544.544 0 10-1.088-.005l1.088.005zm-1.07-3.236a.544.544 0 101.087.005l-1.087-.005zm1.105-3.225a.544.544 0 00-1.088-.006l1.088.006zm-1.071-3.237a.544.544 0 101.088.006l-1.088-.006zm1.105-3.225a.545.545 0 00-1.088-.006l1.088.006zm-1.071-3.237a.543.543 0 101.088.006l-1.088-.006zm1.105-3.225a.545.545 0 00-1.088-.006l1.088.006zm-1.071-3.236a.544.544 0 001.088.005l-1.088-.005zm1.105-3.226a.543.543 0 10-1.088-.005l1.088.005zm-1.071-3.236a.545.545 0 001.088.006l-1.088-.006zm1.105-3.225a.543.543 0 10-1.088-.006l1.088.006zm-1.071-3.237a.545.545 0 001.088.006l-1.088-.006zm1.106-3.225a.544.544 0 10-1.088-.006l1.088.006zm-1.071-3.237a.544.544 0 101.088.006l-1.088-.006zm1.105-3.225a.544.544 0 00-1.088-.005l1.088.005zM280.9 100a.545.545 0 001.088.006L280.9 100zm1.105-3.225a.545.545 0 00-1.088-.006l1.088.006zm-1.071-3.237a.544.544 0 101.088.006l-1.088-.006zm1.105-3.225a.544.544 0 10-1.088-.006l1.088.006zm-1.071-3.237a.545.545 0 001.088.006l-1.088-.006zm1.105-3.225a.543.543 0 10-1.088-.005l1.088.005zm-1.071-3.236a.545.545 0 001.088.005l-1.088-.005zm1.105-3.225a.543.543 0 10-1.087-.006l1.087.006zm-1.07-3.237a.543.543 0 101.088.006l-1.088-.006zm1.105-3.225a.545.545 0 00-1.088-.006l1.088.006zm-1.071-3.237a.543.543 0 101.088.006l-1.088-.006zm1.105-3.225a.545.545 0 00-1.088-.006l1.088.006zm-1.071-3.236a.544.544 0 101.088.005l-1.088-.005zm1.105-3.225a.544.544 0 10-1.088-.006l1.088.005zm-1.071-3.237a.545.545 0 001.088.006l-1.088-.006zm1.105-3.225a.543.543 0 10-1.088-.006l1.088.006zm-1.071-3.237a.545.545 0 001.088.006l-1.088-.006zm-.031 211.627l.008-1.616-1.088-.006-.008 1.616 1.088.006zm.025-4.847l.017-3.231-1.088-.005-.017 3.231 1.088.005zm.034-6.461l.018-3.231-1.088-.006-.017 3.231 1.087.006zm.035-6.462l.017-3.231-1.088-.006-.017 3.231 1.088.006zm.034-6.462l.017-3.231-1.088-.005-.017 3.23 1.088.006zm.034-6.461l.017-3.231-1.088-.006-.017 3.231 1.088.006zm.034-6.462l.017-3.231-1.088-.006-.017 3.231 1.088.006zm.034-6.462l.017-3.231-1.087-.005-.018 3.23 1.088.006zm.035-6.462l.017-3.23-1.088-.006-.017 3.231 1.088.005zm.034-6.461l.017-3.231-1.088-.006-.017 3.231 1.088.006zm.034-6.462l.017-3.231-1.088-.006-.017 3.231 1.088.006zm.034-6.462l.017-3.231-1.088-.005-.017 3.231 1.088.005zm.034-6.461l.017-3.231-1.087-.006-.018 3.231 1.088.006zm.035-6.462l.017-3.231-1.088-.006-.017 3.231 1.088.006zm.034-6.462l.017-3.231-1.088-.005-.017 3.23 1.088.006zm.034-6.461l.017-3.231-1.088-.006-.017 3.231 1.088.006zm.034-6.462l.017-3.231-1.088-.006-.017 3.231 1.088.006zm.034-6.462l.017-3.231-1.088-.005-.017 3.23 1.088.006zm.034-6.462l.018-3.23-1.088-.006-.017 3.231 1.087.005zm.035-6.461l.017-3.231-1.088-.006-.017 3.231 1.088.006zm.034-6.462l.017-3.231-1.088-.006-.017 3.231 1.088.006zm.034-6.462l.017-3.231-1.088-.005-.017 3.231 1.088.005zm.034-6.461l.017-3.231-1.088-.006-.017 3.231 1.088.006zm.034-6.462l.018-3.231-1.088-.006-.018 3.231 1.088.006zm.035-6.462l.017-3.231-1.088-.005-.017 3.23 1.088.006zm.034-6.461l.017-3.231-1.088-.006-.017 3.23 1.088.007zm.034-6.462l.017-3.231-1.088-.006-.017 3.231 1.088.006zm.034-6.462l.017-3.23-1.088-.007-.017 3.231 1.088.006zm.034-6.462l.017-3.23-1.087-.006-.018 3.23 1.088.006zm.035-6.461l.017-3.231-1.088-.006-.017 3.231 1.088.006zm.034-6.462l.017-3.23-1.088-.007-.017 3.231 1.088.006zm.034-6.462l.017-3.23-1.088-.006-.017 3.23 1.088.006zm.034-6.461l.017-3.231-1.088-.006-.017 3.23 1.088.007zm.034-6.462l.009-1.615-1.088-.006-.009 1.615 1.088.006zM478.06 259.927l-.003.544 1.088.006.002-.544-1.087-.006zm2.216-213.23a.544.544 0 00-1.088-.006l1.088.006zm-1.12 211.62a.545.545 0 00-1.088-.006l1.088.006zm-1.071-3.236a.544.544 0 001.088.005l-1.088-.005zm1.105-3.226a.544.544 0 00-1.088-.005l1.088.005zm-1.071-3.236a.545.545 0 001.088.006l-1.088-.006zm1.105-3.225a.545.545 0 00-1.088-.006l1.088.006zm-1.07-3.237a.543.543 0 101.087.006l-1.087-.006zm1.105-3.225a.545.545 0 00-1.088-.006l1.088.006zm-1.071-3.237a.544.544 0 101.088.006l-1.088-.006zm1.105-3.225a.544.544 0 00-1.088-.005l1.088.005zm-1.071-3.236a.545.545 0 001.088.006l-1.088-.006zm1.105-3.225a.543.543 0 10-1.088-.006l1.088.006zm-1.071-3.237a.545.545 0 001.088.006l-1.088-.006zm1.105-3.225a.545.545 0 00-1.088-.006l1.088.006zm-1.071-3.237a.544.544 0 101.088.006l-1.088-.006zm1.105-3.225a.544.544 0 10-1.088-.005l1.088.005zm-1.07-3.236a.544.544 0 101.087.005l-1.087-.005zm1.105-3.225a.544.544 0 00-1.088-.006l1.088.006zm-1.071-3.237a.544.544 0 101.088.006l-1.088-.006zm1.105-3.225a.545.545 0 00-1.088-.006l1.088.006zm-1.071-3.237a.543.543 0 101.088.006l-1.088-.006zm1.105-3.225a.545.545 0 00-1.088-.006l1.088.006zm-1.071-3.236a.543.543 0 101.088.005l-1.088-.005zm1.105-3.226a.543.543 0 10-1.088-.005l1.088.005zm-1.071-3.236a.545.545 0 001.088.006l-1.088-.006zm1.105-3.225a.543.543 0 10-1.088-.006l1.088.006zm-1.071-3.237a.545.545 0 001.088.006l-1.088-.006zm1.105-3.225a.544.544 0 10-1.087-.006l1.087.006zm-1.07-3.237a.544.544 0 101.088.006l-1.088-.006zm1.105-3.225a.544.544 0 00-1.088-.005l1.088.005zm-1.071-3.236a.545.545 0 001.088.006l-1.088-.006zm1.105-3.225a.544.544 0 10-1.088-.006l1.088.006zm-1.071-3.237a.545.545 0 001.088.006l-1.088-.006zm1.105-3.225a.545.545 0 00-1.088-.006l1.088.006zm-1.071-3.237a.544.544 0 101.088.006l-1.088-.006zm1.105-3.225a.544.544 0 10-1.088-.005l1.088.005zm-1.071-3.236a.545.545 0 001.088.005l-1.088-.005zm1.105-3.225a.543.543 0 10-1.087-.006l1.087.006zm-1.07-3.237a.544.544 0 101.088.006l-1.088-.006zm1.105-3.225a.545.545 0 00-1.088-.006l1.088.006zm-1.071-3.237a.545.545 0 001.088.006l-1.088-.006zm1.105-3.225a.545.545 0 00-1.088-.006l1.088.006zm-1.071-3.236a.543.543 0 101.088.005l-1.088-.005zm1.105-3.226a.543.543 0 10-1.088-.005l1.088.005zm-1.071-3.236a.545.545 0 001.088.006l-1.088-.006zm1.105-3.225a.543.543 0 10-1.088-.006l1.088.006zm-1.071-3.237a.545.545 0 001.088.006l-1.088-.006zm1.105-3.225a.544.544 0 10-1.088-.006l1.088.006zm-1.07-3.237a.543.543 0 101.087.006l-1.087-.006zm1.105-3.225a.544.544 0 00-1.088-.005l1.088.005zM478.906 100a.544.544 0 101.088.006l-1.088-.006zm1.105-3.225a.545.545 0 00-1.088-.006l1.088.006zm-1.071-3.237a.544.544 0 101.088.006l-1.088-.006zm1.105-3.225a.544.544 0 10-1.088-.006l1.088.006zm-1.071-3.237a.545.545 0 001.088.006l-1.088-.006zm1.105-3.225a.544.544 0 10-1.088-.005l1.088.005zm-1.071-3.236a.545.545 0 001.088.005l-1.088-.005zm1.105-3.225a.543.543 0 10-1.088-.006l1.088.006zm-1.071-3.237a.545.545 0 001.088.006l-1.088-.006zm1.106-3.225a.545.545 0 00-1.088-.006l1.088.006zm-1.071-3.237a.543.543 0 101.088.006l-1.088-.006zm1.105-3.225a.545.545 0 00-1.088-.006l1.088.006zm-1.071-3.236a.544.544 0 101.088.005l-1.088-.005zm1.105-3.225a.545.545 0 00-1.088-.006l1.088.005zm-1.071-3.237a.544.544 0 101.088.006l-1.088-.006zm1.105-3.225a.544.544 0 10-1.088-.006l1.088.006zm-1.071-3.237a.545.545 0 001.088.006l-1.088-.006zm-.032 211.627l.009-1.616-1.088-.006-.008 1.616 1.087.006zm.026-4.847l.017-3.231-1.088-.005-.017 3.231 1.088.005zm.034-6.461l.017-3.231-1.088-.006-.017 3.231 1.088.006zm.034-6.462l.018-3.231-1.088-.006-.017 3.231 1.087.006zm.035-6.462l.017-3.231-1.088-.005-.017 3.23 1.088.006zm.034-6.461l.017-3.231-1.088-.006-.017 3.231 1.088.006zm.034-6.462l.017-3.231-1.088-.006-.017 3.231 1.088.006zm.034-6.462l.017-3.231-1.088-.005-.017 3.23 1.088.006zm.034-6.462l.018-3.23-1.088-.006-.017 3.231 1.087.005zm.035-6.461l.017-3.231-1.088-.006-.017 3.231 1.088.006zm.034-6.462l.017-3.231-1.088-.006-.017 3.231 1.088.006zm.034-6.462l.017-3.231-1.088-.005-.017 3.231 1.088.005zm.034-6.461l.017-3.231-1.088-.006-.017 3.231 1.088.006zm.034-6.462l.017-3.231-1.087-.006-.018 3.231 1.088.006zm.035-6.462l.017-3.231-1.088-.005-.017 3.23 1.088.006zm.034-6.461l.017-3.231-1.088-.006-.017 3.231 1.088.006zm.034-6.462l.017-3.231-1.088-.006-.017 3.231 1.088.006zm.034-6.462l.017-3.231-1.088-.005-.017 3.23 1.088.006zm.034-6.462l.017-3.23-1.087-.006-.018 3.231 1.088.005zm.035-6.461l.017-3.231-1.088-.006-.017 3.231 1.088.006zm.034-6.462l.017-3.231-1.088-.006-.017 3.231 1.088.006zm.034-6.462l.017-3.231-1.088-.005-.017 3.231 1.088.005zm.034-6.461l.017-3.231-1.088-.006-.017 3.231 1.088.006zm.034-6.462l.017-3.231-1.088-.006-.017 3.231 1.088.006zm.034-6.462l.018-3.231-1.088-.005-.017 3.23 1.087.006zm.035-6.461l.017-3.231-1.088-.006-.017 3.23 1.088.007zm.034-6.462l.017-3.231-1.088-.006-.017 3.231 1.088.006zm.034-6.462l.017-3.23-1.088-.007-.017 3.231 1.088.006zm.034-6.462l.017-3.23-1.088-.006-.017 3.23 1.088.006zm.034-6.461l.018-3.231-1.088-.006-.018 3.231 1.088.006zm.035-6.462l.017-3.23-1.088-.007-.017 3.231 1.088.006zm.034-6.462l.017-3.23-1.088-.006-.017 3.23 1.088.006zm.034-6.461l.017-3.231-1.088-.006-.017 3.23 1.088.007zm.034-6.462l.009-1.615-1.088-.006-.009 1.615 1.088.006zM562.919 259.927l-.003.544 1.088.006.003-.544-1.088-.006zm2.216-213.23a.544.544 0 10-1.088-.006l1.088.006zm-1.12 211.62a.544.544 0 10-1.088-.006l1.088.006zm-1.07-3.236a.542.542 0 101.087.005l-1.087-.005zm1.105-3.226a.544.544 0 00-1.088-.005l1.088.005zm-1.071-3.236a.544.544 0 101.088.006l-1.088-.006zm1.105-3.225a.544.544 0 10-1.088-.006l1.088.006zm-1.071-3.237a.544.544 0 101.088.006l-1.088-.006zm1.105-3.225a.545.545 0 00-1.088-.006l1.088.006zm-1.071-3.237a.544.544 0 101.088.006l-1.088-.006zm1.105-3.225a.543.543 0 10-1.088-.005l1.088.005zm-1.071-3.236a.545.545 0 001.088.006l-1.088-.006zm1.105-3.225a.544.544 0 10-1.088-.006l1.088.006zm-1.07-3.237a.544.544 0 101.087.006l-1.087-.006zm1.105-3.225a.544.544 0 10-1.088-.006l1.088.006zm-1.071-3.237a.544.544 0 101.088.006l-1.088-.006zm1.105-3.225a.545.545 0 00-1.088-.005l1.088.005zm-1.071-3.236a.545.545 0 001.088.005l-1.088-.005zm1.105-3.225a.543.543 0 10-1.088-.006l1.088.006zm-1.071-3.237a.545.545 0 001.088.006l-1.088-.006zm1.105-3.225a.544.544 0 10-1.088-.006l1.088.006zm-1.071-3.237a.544.544 0 101.088.006l-1.088-.006zm1.105-3.225a.544.544 0 10-1.088-.006l1.088.006zm-1.071-3.236a.544.544 0 001.088.005l-1.088-.005zm1.105-3.226a.542.542 0 10-1.087-.005l1.087.005zm-1.07-3.236a.544.544 0 101.088.006l-1.088-.006zm1.105-3.225a.545.545 0 00-1.088-.006l1.088.006zm-1.071-3.237a.543.543 0 101.088.006l-1.088-.006zm1.105-3.225a.545.545 0 00-1.088-.006l1.088.006zm-1.071-3.237a.543.543 0 101.088.006l-1.088-.006zm1.105-3.225a.543.543 0 10-1.088-.005l1.088.005zm-1.071-3.236a.545.545 0 001.088.006l-1.088-.006zm1.105-3.225a.545.545 0 00-1.088-.006l1.088.006zm-1.071-3.237a.545.545 0 001.088.006l-1.088-.006zm1.105-3.225a.544.544 0 10-1.088-.006l1.088.006zm-1.07-3.237a.544.544 0 101.088.006l-1.088-.006zm1.105-3.225a.545.545 0 00-1.088-.005l1.088.005zm-1.071-3.236a.544.544 0 101.088.005l-1.088-.005zm1.105-3.225a.544.544 0 10-1.088-.006l1.088.006zm-1.071-3.237a.545.545 0 001.088.006l-1.088-.006zm1.105-3.225a.544.544 0 10-1.088-.006l1.088.006zm-1.071-3.237a.544.544 0 101.088.006l-1.088-.006zm1.105-3.225a.544.544 0 10-1.088-.006l1.088.006zm-1.071-3.236a.544.544 0 001.088.005l-1.088-.005zm1.105-3.226a.544.544 0 00-1.088-.005l1.088.005zm-1.07-3.236a.544.544 0 101.087.006l-1.087-.006zm1.105-3.225a.545.545 0 00-1.088-.006l1.088.006zm-1.071-3.237a.543.543 0 101.088.006l-1.088-.006zm1.105-3.225a.545.545 0 00-1.088-.006l1.088.006zm-1.071-3.237a.543.543 0 101.088.006l-1.088-.006zm1.105-3.225a.543.543 0 10-1.088-.005l1.088.005zM563.765 100a.545.545 0 001.088.006l-1.088-.006zm1.105-3.225a.544.544 0 10-1.088-.006l1.088.006zm-1.071-3.237a.545.545 0 001.088.006l-1.088-.006zm1.105-3.225a.543.543 0 10-1.088-.006l1.088.006zm-1.071-3.237a.545.545 0 001.088.006l-1.088-.006zm1.105-3.225a.543.543 0 10-1.087-.005l1.087.005zm-1.07-3.236a.543.543 0 101.088.005l-1.088-.005zm1.105-3.225a.545.545 0 00-1.088-.006l1.088.006zm-1.071-3.237a.544.544 0 101.088.006l-1.088-.006zm1.105-3.225a.545.545 0 00-1.088-.006l1.088.006zm-1.071-3.237a.544.544 0 101.088.006l-1.088-.006zm1.105-3.225a.544.544 0 10-1.088-.006l1.088.006zm-1.071-3.236a.545.545 0 001.088.005l-1.088-.005zm1.105-3.225a.543.543 0 10-1.088-.006l1.088.005zm-1.071-3.237a.545.545 0 001.088.006l-1.088-.006zm1.105-3.225a.543.543 0 10-1.087-.006l1.087.006zm-1.07-3.237a.543.543 0 101.088.006l-1.088-.006zm-.032 211.627l.008-1.616-1.088-.006-.008 1.616 1.088.006zm.025-4.847l.018-3.231-1.088-.005-.017 3.231 1.087.005zm.035-6.461l.017-3.231-1.088-.006-.017 3.231 1.088.006zm.034-6.462l.017-3.231-1.088-.006-.017 3.231 1.088.006zm.034-6.462l.017-3.231-1.088-.005-.017 3.23 1.088.006zm.034-6.461l.017-3.231-1.088-.006-.017 3.231 1.088.006zm.034-6.462l.018-3.231-1.088-.006-.017 3.231 1.087.006zm.035-6.462l.017-3.231-1.088-.005-.017 3.23 1.088.006zm.034-6.462l.017-3.23-1.088-.006-.017 3.231 1.088.005zm.034-6.461l.017-3.231-1.088-.006-.017 3.231 1.088.006zm.034-6.462l.017-3.231-1.088-.006-.017 3.231 1.088.006zm.034-6.462l.017-3.231-1.087-.005-.018 3.231 1.088.005zm.035-6.461l.017-3.231-1.088-.006-.017 3.231 1.088.006zm.034-6.462l.017-3.231-1.088-.006-.017 3.231 1.088.006zm.034-6.462l.017-3.231-1.088-.005-.017 3.23 1.088.006zm.034-6.461l.017-3.231-1.088-.006-.017 3.231 1.088.006zm.034-6.462l.017-3.231-1.088-.006-.017 3.231 1.088.006zm.035-6.462l.017-3.231-1.088-.005-.017 3.23 1.088.006zm.034-6.462l.017-3.23-1.088-.006-.017 3.231 1.088.005zm.034-6.461l.017-3.231-1.088-.006-.017 3.231 1.088.006zm.034-6.462l.017-3.231-1.088-.006-.017 3.231 1.088.006zm.034-6.462l.017-3.231-1.088-.005-.017 3.231 1.088.005zm.034-6.461l.018-3.231-1.088-.006-.017 3.231 1.087.006zm.035-6.462l.017-3.231-1.088-.006-.017 3.231 1.088.006zm.034-6.462l.017-3.231-1.088-.005-.017 3.23 1.088.006zm.034-6.461l.017-3.231-1.088-.006-.017 3.23 1.088.007zm.034-6.462l.017-3.231-1.088-.006-.017 3.231 1.088.006zm.034-6.462l.017-3.23-1.087-.007-.018 3.231 1.088.006zm.035-6.462l.017-3.23-1.088-.006-.017 3.23 1.088.006zm.034-6.461l.017-3.231-1.088-.006-.017 3.231 1.088.006zm.034-6.462l.017-3.23-1.088-.007-.017 3.231 1.088.006zm.034-6.462l.017-3.23-1.088-.006-.017 3.23 1.088.006zm.034-6.461l.017-3.231-1.087-.006-.018 3.23 1.088.007zm.035-6.462l.008-1.615-1.088-.006-.008 1.615 1.088.006z" fill="#fff" fill-opacity=".15"/><rect x="83.138" y="136.448" width="8.704" height="4.352" rx="2.176" fill="#0ABAB5"/><rect x="83.138" y="136.448" width="8.704" height="4.352" rx="2.176" stroke="#035A58" stroke-width="1.088"/><rect x="276.79" y="147.327" width="8.704" height="4.352" rx="2.176" fill="#0ABAB5"/><rect x="276.79" y="147.327" width="8.704" height="4.352" rx="2.176" stroke="#035A58" stroke-width="1.088"/><rect x="474.794" y="101.634" width="8.704" height="4.352" rx="2.176" fill="#0ABAB5"/><rect x="474.794" y="101.634" width="8.704" height="4.352" rx="2.176" stroke="#035A58" stroke-width="1.088"/><rect x="559.653" y="60.292" width="8.704" height="4.352" rx="2.176" fill="#0ABAB5"/><rect x="559.653" y="60.292" width="8.704" height="4.352" rx="2.176" stroke="#035A58" stroke-width="1.088"/><path d="M38.288 384.505c0 .559-.09 1.048-.27 1.466a2.488 2.488 0 01-.755.988c-.322.241-.69.381-1.105.42l-.059.005v-.956l.059-.006c.255-.024.476-.122.664-.292a1.73 1.73 0 00.43-.69c.103-.291.154-.62.154-.988a2.43 2.43 0 00-.164-.925 1.561 1.561 0 00-.468-.643 1.083 1.083 0 00-.685-.233h-.005a1.05 1.05 0 00-.803.35c-.22.234-.387.615-.504 1.142l-.186.85c-.17.769-.432 1.328-.787 1.679-.357.347-.814.521-1.37.521h-.005a1.954 1.954 0 01-1.127-.346 2.303 2.303 0 01-.764-.951c-.185-.407-.277-.874-.277-1.402 0-.51.092-.961.277-1.355.18-.393.424-.704.733-.935a1.88 1.88 0 011.035-.387l.075-.006v.957l-.07.01a1.198 1.198 0 00-.6.276 1.52 1.52 0 00-.42.595 2.208 2.208 0 00-.148.872c0 .318.05.605.149.86.099.255.242.459.43.611.184.149.411.223.68.223h.005c.305 0 .562-.113.77-.34.21-.226.37-.6.484-1.121l.191-.85c.177-.8.434-1.372.77-1.715.337-.344.782-.516 1.334-.516h.005c.478 0 .891.117 1.238.351.347.234.616.563.808.988.187.425.281.922.281 1.493zm-.18-4.425h-7.666v-.957h7.665v.957zm0-2.911h-7.666v-.957h6.805v-3.697h.86v4.654zm.18-9.084c0 .733-.163 1.361-.489 1.885-.329.525-.795.928-1.397 1.212-.602.279-1.31.419-2.125.419h-.01c-.822 0-1.532-.141-2.13-.425-.599-.287-1.061-.692-1.387-1.216-.326-.528-.489-1.153-.489-1.875 0-.726.163-1.351.489-1.876.326-.527.79-.933 1.392-1.216.598-.283 1.307-.425 2.125-.425h.01c.815 0 1.523.142 2.125.425.599.28 1.063.683 1.392 1.211.33.524.494 1.151.494 1.881zm-.882 0c0-.525-.13-.976-.388-1.355s-.621-.671-1.089-.876c-.47-.206-1.021-.309-1.652-.309h-.01c-.638 0-1.19.103-1.658.309-.467.205-.828.497-1.083.876s-.383.83-.383 1.355c0 .52.128.97.383 1.349s.616.673 1.083.882c.468.205 1.02.308 1.658.308h.01c.63 0 1.181-.101 1.652-.303.468-.202.83-.492 1.09-.871.258-.379.387-.834.387-1.365zm.701-5.174h-7.665v-4.75h.86v3.793h2.46v-3.596h.85v3.596h2.635v-3.793h.86v4.75zm0-6.481h-7.665v-2.63c0-.758.152-1.406.457-1.944a2.997 2.997 0 011.307-1.243c.57-.287 1.257-.43 2.06-.43h.011c.804 0 1.493.143 2.067.43.57.287 1.007.699 1.312 1.238.3.538.451 1.188.451 1.949v2.63zm-.86-.957v-1.609c0-.57-.117-1.057-.35-1.461a2.273 2.273 0 00-1.015-.924c-.443-.213-.974-.319-1.594-.319h-.01c-.624 0-1.157.108-1.6.324a2.274 2.274 0 00-1.02.924c-.237.404-.356.889-.356 1.456v1.609h5.945zm-1.875-10.486h-.85v-2.167c0-.549-.142-.974-.425-1.275-.287-.301-.682-.452-1.185-.452h-.01c-.507 0-.902.151-1.185.452-.284.301-.425.726-.425 1.275v2.167h-.85v-2.412c0-.481.103-.906.308-1.275.205-.368.492-.656.86-.865.369-.213.796-.319 1.28-.319h.011c.486 0 .914.106 1.286.319.372.209.662.497.871.865.21.369.314.794.314 1.275v2.412zm2.735.478h-7.665v-.956h7.665v.956zm.181-10.135c0 .733-.163 1.361-.489 1.885-.329.525-.795.928-1.397 1.212-.602.279-1.31.419-2.125.419h-.01c-.822 0-1.532-.141-2.13-.425-.599-.287-1.061-.692-1.387-1.216-.326-.528-.489-1.153-.489-1.875 0-.726.163-1.351.489-1.876.326-.527.79-.933 1.392-1.216.598-.283 1.307-.425 2.125-.425h.01c.815 0 1.523.142 2.125.425.599.28 1.063.683 1.392 1.211.33.524.494 1.151.494 1.881zm-.882 0c0-.525-.13-.976-.388-1.355s-.621-.671-1.089-.877c-.47-.205-1.021-.308-1.652-.308h-.01c-.638 0-1.19.103-1.658.308-.467.206-.828.498-1.083.877s-.383.83-.383 1.355c0 .52.128.97.383 1.349s.616.673 1.083.882c.468.205 1.02.308 1.658.308h.01c.63 0 1.181-.101 1.652-.303.468-.202.83-.492 1.09-.871.258-.379.387-.834.387-1.365zm.882-8.394c0 .733-.163 1.362-.489 1.886-.329.524-.795.928-1.397 1.211-.602.28-1.31.42-2.125.42h-.01c-.822 0-1.532-.142-2.13-.425-.599-.287-1.061-.692-1.387-1.216-.326-.528-.489-1.153-.489-1.876 0-.726.163-1.351.489-1.875.326-.528.79-.933 1.392-1.216.598-.284 1.307-.425 2.125-.425h.01c.815 0 1.523.141 2.125.425a3.18 3.18 0 011.392 1.211c.33.524.494 1.151.494 1.88zm-.882 0c0-.524-.13-.975-.388-1.354-.258-.379-.621-.671-1.089-.877-.47-.205-1.021-.308-1.652-.308h-.01c-.638 0-1.19.103-1.658.308-.467.206-.828.498-1.083.877s-.383.83-.383 1.354c0 .521.128.971.383 1.35.255.379.616.672 1.083.881.468.206 1.02.309 1.658.309h.01c.63 0 1.181-.101 1.652-.303.468-.202.83-.493 1.09-.871.258-.379.387-.834.387-1.366zm.701-5.174h-7.665v-.956h6.805v-3.697h.86v4.653zm.181-8.696c0 .56-.09 1.048-.27 1.466a2.48 2.48 0 01-.755.988c-.322.241-.69.381-1.105.42l-.059.005v-.956l.059-.005c.255-.025.476-.122.664-.292.184-.174.328-.404.43-.691.103-.29.154-.62.154-.988 0-.347-.055-.655-.164-.924a1.555 1.555 0 00-.468-.643 1.078 1.078 0 00-.685-.234h-.005c-.32 0-.587.117-.803.351-.22.234-.387.614-.504 1.142l-.186.85c-.17.768-.432 1.328-.787 1.679-.357.347-.814.52-1.37.52h-.005a1.954 1.954 0 01-1.127-.345 2.303 2.303 0 01-.764-.951c-.185-.407-.277-.875-.277-1.402 0-.51.092-.962.277-1.355.18-.393.424-.705.733-.935a1.88 1.88 0 011.035-.388l.075-.005v.956l-.07.011a1.181 1.181 0 00-.6.276 1.52 1.52 0 00-.42.595 2.203 2.203 0 00-.148.871c0 .319.05.606.149.861.099.255.242.458.43.611.184.148.411.223.68.223h.005c.305 0 .562-.114.77-.34.21-.227.37-.601.484-1.121l.191-.85c.177-.801.434-1.372.77-1.716.337-.344.782-.515 1.334-.515h.005c.478 0 .891.117 1.238.35.347.234.616.563.808.988.187.425.281.923.281 1.493z" fill="#CDCDCD"/><path d="M64.7 309s-6.04 2.132-5.685 4.263c.355 2.132 4.263 4.974 5.33 9.593.118.515.237 1 .355 1.462v57.098a6.1 6.1 0 006.099 6.099h42.158a6.1 6.1 0 006.099-6.099v-67.402l1.445-3.816a.885.885 0 00-.827-1.198H64.7z" stroke="#fff" stroke-width=".457" stroke-miterlimit="10" stroke-linecap="round" stroke-linejoin="round"/><path d="M66.316 323.178v53.401c0 4.605 2.55 8.338 5.696 8.338h39.372c3.146 0 5.696-3.733 5.696-8.338v-53.401H66.316z" fill="#035A58" stroke="#fff" stroke-width=".457" stroke-miterlimit="10" stroke-linecap="round" stroke-linejoin="round"/><path d="M110.516 332.947v43.903s0 3.177-2.889 5.488M110.516 325.15v4.333" stroke="#fff" stroke-width=".457" stroke-miterlimit="10"/><path d="M116.552 313.275H69.81M76.739 372.203h-7.413M76.739 362.93h-7.413M76.739 353.658h-7.413M76.739 344.387h-7.413v37.087h7.413M76.737 353.705h-7.413M76.737 344.432h-7.413M76.737 335.16h-7.413" stroke="#fff" stroke-width=".457" stroke-miterlimit="10" stroke-linecap="round" stroke-linejoin="round"/><path d="M76.737 325.889h-7.413v37.087h7.413M160.258 309s-6.039 2.132-5.684 4.263c.355 2.132 4.263 4.974 5.329 9.593.119.515.238 1 .355 1.462v57.098a6.1 6.1 0 006.099 6.099h42.158a6.1 6.1 0 006.099-6.099v-67.402l1.445-3.816a.884.884 0 00-.827-1.198h-54.974z" stroke="#fff" stroke-width=".457" stroke-miterlimit="10" stroke-linecap="round" stroke-linejoin="round"/><path d="M206.074 332.947v43.903s0 3.177-2.888 5.488M206.074 325.15v4.333" stroke="#fff" stroke-width=".457" stroke-miterlimit="10"/><path d="M212.111 313.275h-46.742M172.296 372.203h-7.413M172.296 362.93h-7.413M172.296 353.658h-7.413M172.296 344.387h-7.413v37.087h7.413M172.294 353.705h-7.413M172.294 344.432h-7.413M172.294 335.16h-7.413" stroke="#fff" stroke-width=".457" stroke-miterlimit="10" stroke-linecap="round" stroke-linejoin="round"/><path d="M172.294 325.889h-7.413v37.087h7.413M255.817 309s-6.04 2.132-5.685 4.263c.356 2.132 4.263 4.974 5.329 9.593.119.515.238 1 .356 1.462v57.098a6.099 6.099 0 006.099 6.099h42.158a6.1 6.1 0 006.099-6.099v-67.402l1.445-3.816a.885.885 0 00-.827-1.198h-54.974z" stroke="#fff" stroke-width=".457" stroke-miterlimit="10" stroke-linecap="round" stroke-linejoin="round"/><path d="M257.623 347.469v32.462c0 2.799 2.545 5.068 5.685 5.068h39.296c3.14 0 5.685-2.269 5.685-5.068v-32.462h-50.666z" fill="#035A58" stroke="#fff" stroke-width=".457" stroke-miterlimit="10" stroke-linecap="round" stroke-linejoin="round"/><path d="M301.633 332.947v43.903s0 3.177-2.889 5.488M301.633 325.15v4.333" stroke="#fff" stroke-width=".457" stroke-miterlimit="10"/><path d="M307.669 313.275h-46.741M267.854 372.203h-7.413M267.854 362.93h-7.413M267.854 353.658h-7.413M267.854 344.387h-7.413v37.087h7.413M267.852 353.705h-7.413M267.852 344.432h-7.413M267.852 335.16h-7.413" stroke="#fff" stroke-width=".457" stroke-miterlimit="10" stroke-linecap="round" stroke-linejoin="round"/><path d="M267.852 325.889h-7.413v37.087h7.413M351.375 309s-6.039 2.132-5.684 4.263c.355 2.132 4.263 4.974 5.329 9.593.119.515.238 1 .355 1.462v57.098a6.1 6.1 0 006.099 6.099h42.158a6.099 6.099 0 006.099-6.099v-67.402l1.445-3.816a.884.884 0 00-.826-1.198h-54.975z" stroke="#fff" stroke-width=".457" stroke-miterlimit="10" stroke-linecap="round" stroke-linejoin="round"/><path d="M397.191 332.947v43.903s0 3.177-2.888 5.488M397.191 325.15v4.333" stroke="#fff" stroke-width=".457" stroke-miterlimit="10"/><path d="M403.228 313.275h-46.742M363.419 372.203h-7.413M363.419 362.93h-7.413M363.419 353.658h-7.413M363.419 344.387h-7.413v37.087h7.413M363.417 353.705h-7.413M363.417 344.432h-7.413M363.417 335.16h-7.413" stroke="#fff" stroke-width=".457" stroke-miterlimit="10" stroke-linecap="round" stroke-linejoin="round"/><path d="M363.417 325.889h-7.413v37.087h7.413M446.934 309s-6.039 2.132-5.685 4.263c.356 2.132 4.264 4.974 5.33 9.593.119.515.237 1 .355 1.462v57.098a6.1 6.1 0 006.099 6.099h42.158a6.1 6.1 0 006.099-6.099v-67.402l1.445-3.816a.884.884 0 00-.827-1.198h-54.974z" stroke="#fff" stroke-width=".457" stroke-miterlimit="10" stroke-linecap="round" stroke-linejoin="round"/><path d="M449 341v38.058c0 3.282 2.512 5.942 5.61 5.942h38.78c3.098 0 5.61-2.66 5.61-5.942V341h-50z" fill="#035A58" stroke="#fff" stroke-width=".457" stroke-miterlimit="10" stroke-linecap="round" stroke-linejoin="round"/><path d="M492.75 332.947v43.903s0 3.177-2.888 5.488M492.75 325.15v4.333" stroke="#fff" stroke-width=".457" stroke-miterlimit="10"/><path d="M498.786 313.275h-46.741M458.975 372.203h-7.413M458.975 362.93h-7.413M458.975 353.658h-7.413M458.975 344.387h-7.413v37.087h7.413M458.973 353.705h-7.412M458.973 344.432h-7.412M458.973 335.16h-7.412" stroke="#fff" stroke-width=".457" stroke-miterlimit="10" stroke-linecap="round" stroke-linejoin="round"/><path d="M458.973 325.889h-7.412v37.087h7.412M542.493 309s-6.04 2.132-5.685 4.263c.355 2.132 4.263 4.974 5.329 9.593.119.515.238 1 .356 1.462v57.098a6.099 6.099 0 006.098 6.099h42.159a6.1 6.1 0 006.099-6.099v-67.402l1.445-3.816a.885.885 0 00-.827-1.198h-54.974z" stroke="#fff" stroke-width=".457" stroke-miterlimit="10" stroke-linecap="round" stroke-linejoin="round"/><path d="M544.109 323.178v53.401c0 4.605 2.55 8.338 5.696 8.338h39.372c3.146 0 5.696-3.733 5.696-8.338v-53.401h-50.764z" fill="#035A58" stroke="#fff" stroke-width=".457" stroke-miterlimit="10" stroke-linecap="round" stroke-linejoin="round"/><path d="M588.309 332.947v43.903s0 3.177-2.889 5.488M588.309 325.15v4.333" stroke="#fff" stroke-width=".457" stroke-miterlimit="10"/><path d="M594.345 313.275h-46.741M554.534 372.203h-7.413M554.534 362.93h-7.413M554.534 353.658h-7.413M554.534 344.387h-7.413v37.087h7.413M554.532 353.705h-7.413M554.532 344.432h-7.413M554.532 335.16h-7.413" stroke="#fff" stroke-width=".457" stroke-miterlimit="10" stroke-linecap="round" stroke-linejoin="round"/><path d="M554.532 325.889h-7.413v37.087h7.413" stroke="#fff" stroke-width=".457" stroke-miterlimit="10" stroke-linecap="round" stroke-linejoin="round"/></g><defs><filter id="prefix__filter0_bi_1110_2093" x="-20.718" y="-20.718" width="690.761" height="476.437" filterUnits="userSpaceOnUse" color-interpolation-filters="sRGB"><feFlood flood-opacity="0" result="BackgroundImageFix"/><feGaussianBlur in="BackgroundImageFix" stdDeviation="10.709"/><feComposite in2="SourceAlpha" operator="in" result="effect1_backgroundBlur_1110_2093"/><feBlend in="SourceGraphic" in2="effect1_backgroundBlur_1110_2093" result="shape"/><feColorMatrix in="SourceAlpha" values="0 0 0 0 0 0 0 0 0 0 0 0 0 0 0 0 0 0 127 0" result="hardAlpha"/><feOffset dx="2.803" dy="2.803"/><feGaussianBlur stdDeviation="13.821"/><feComposite in2="hardAlpha" operator="arithmetic" k2="-1" k3="1"/><feColorMatrix values="0 0 0 0 0.273161 0 0 0 0 0.273161 0 0 0 0 0.273161 0 0 0 0.1 0"/><feBlend in2="shape" result="effect2_innerShadow_1110_2093"/></filter></defs></svg>