<svg width="547" height="317" viewBox="0 0 547 317" fill="none" xmlns="http://www.w3.org/2000/svg">
<path d="M492.5 196.997L492.497 197.497L493.497 197.503L493.5 197.003L492.5 196.997ZM494.537 1.00284C494.538 0.726704 494.316 0.501665 494.04 0.500204C493.764 0.498743 493.539 0.721413 493.537 0.997552L494.537 1.00284ZM493.508 195.518C493.509 195.242 493.287 195.017 493.011 195.015C492.734 195.014 492.509 195.236 492.508 195.513L493.508 195.518ZM492.524 192.543C492.522 192.819 492.745 193.044 493.021 193.045C493.297 193.047 493.522 192.824 493.524 192.548L492.524 192.543ZM493.539 189.578C493.541 189.302 493.318 189.077 493.042 189.076C492.766 189.074 492.541 189.297 492.539 189.573L493.539 189.578ZM492.555 186.603C492.554 186.88 492.776 187.105 493.052 187.106C493.328 187.108 493.554 186.885 493.555 186.609L492.555 186.603ZM493.571 183.639C493.572 183.363 493.349 183.138 493.073 183.136C492.797 183.135 492.572 183.358 492.571 183.634L493.571 183.639ZM492.586 180.664C492.585 180.94 492.808 181.165 493.084 181.167C493.36 181.168 493.585 180.945 493.586 180.669L492.586 180.664ZM493.602 177.7C493.604 177.423 493.381 177.198 493.105 177.197C492.829 177.196 492.604 177.418 492.602 177.694L493.602 177.7ZM492.618 174.725C492.616 175.001 492.839 175.226 493.115 175.227C493.391 175.229 493.616 175.006 493.618 174.73L492.618 174.725ZM493.634 171.76C493.635 171.484 493.412 171.259 493.136 171.258C492.86 171.256 492.635 171.479 492.634 171.755L493.634 171.76ZM492.649 168.785C492.648 169.061 492.87 169.286 493.147 169.288C493.423 169.289 493.648 169.067 493.649 168.791L492.649 168.785ZM493.665 165.821C493.666 165.545 493.444 165.32 493.168 165.318C492.891 165.317 492.666 165.539 492.665 165.816L493.665 165.821ZM492.681 162.846C492.679 163.122 492.902 163.347 493.178 163.349C493.454 163.35 493.679 163.127 493.681 162.851L492.681 162.846ZM493.696 159.881C493.698 159.605 493.475 159.38 493.199 159.379C492.923 159.377 492.698 159.6 492.696 159.876L493.696 159.881ZM492.712 156.906C492.711 157.183 492.933 157.408 493.209 157.409C493.486 157.411 493.711 157.188 493.712 156.912L492.712 156.906ZM493.728 153.942C493.729 153.666 493.507 153.441 493.23 153.439C492.954 153.438 492.729 153.661 492.728 153.937L493.728 153.942ZM492.744 150.967C492.742 151.243 492.965 151.468 493.241 151.47C493.517 151.471 493.742 151.249 493.744 150.972L492.744 150.967ZM493.759 148.003C493.761 147.727 493.538 147.502 493.262 147.5C492.986 147.499 492.761 147.721 492.759 147.997L493.759 148.003ZM492.775 145.028C492.774 145.304 492.996 145.529 493.272 145.53C493.548 145.532 493.774 145.309 493.775 145.033L492.775 145.028ZM493.791 142.063C493.792 141.787 493.569 141.562 493.293 141.561C493.017 141.559 492.792 141.782 492.791 142.058L493.791 142.063ZM492.806 139.088C492.805 139.364 493.028 139.59 493.304 139.591C493.58 139.592 493.805 139.37 493.806 139.094L492.806 139.088ZM493.822 136.124C493.824 135.848 493.601 135.623 493.325 135.621C493.049 135.62 492.824 135.843 492.822 136.119L493.822 136.124ZM492.838 133.149C492.836 133.425 493.059 133.65 493.335 133.652C493.611 133.653 493.836 133.43 493.838 133.154L492.838 133.149ZM493.854 130.185C493.855 129.908 493.632 129.683 493.356 129.682C493.08 129.68 492.855 129.903 492.854 130.179L493.854 130.185ZM492.869 127.21C492.868 127.486 493.09 127.711 493.367 127.712C493.643 127.714 493.868 127.491 493.869 127.215L492.869 127.21ZM493.885 124.245C493.886 123.969 493.664 123.744 493.388 123.743C493.111 123.741 492.886 123.964 492.885 124.24L493.885 124.245ZM492.901 121.27C492.899 121.546 493.122 121.771 493.398 121.773C493.674 121.774 493.899 121.552 493.901 121.275L492.901 121.27ZM493.916 118.306C493.918 118.03 493.695 117.805 493.419 117.803C493.143 117.802 492.918 118.024 492.916 118.3L493.916 118.306ZM492.932 115.331C492.931 115.607 493.153 115.832 493.429 115.833C493.706 115.835 493.931 115.612 493.932 115.336L492.932 115.331ZM493.948 112.366C493.949 112.09 493.727 111.865 493.45 111.864C493.174 111.862 492.949 112.085 492.948 112.361L493.948 112.366ZM492.964 109.391C492.962 109.668 493.185 109.893 493.461 109.894C493.737 109.896 493.962 109.673 493.964 109.397L492.964 109.391ZM493.979 106.427C493.981 106.151 493.758 105.926 493.482 105.924C493.206 105.923 492.981 106.146 492.979 106.422L493.979 106.427ZM492.995 103.452C492.993 103.728 493.216 103.953 493.492 103.955C493.768 103.956 493.993 103.733 493.995 103.457L492.995 103.452ZM494.011 100.488C494.012 100.211 493.789 99.9864 493.513 99.985C493.237 99.9835 493.012 100.206 493.011 100.482L494.011 100.488ZM493.026 97.5126C493.025 97.7888 493.248 98.0138 493.524 98.0153C493.8 98.0167 494.025 97.7941 494.026 97.5179L493.026 97.5126ZM494.042 94.5482C494.044 94.2721 493.821 94.0471 493.545 94.0456C493.269 94.0441 493.044 94.2668 493.042 94.5429L494.042 94.5482ZM493.058 91.5732C493.056 91.8494 493.279 92.0744 493.555 92.0759C493.831 92.0773 494.056 91.8547 494.058 91.5785L493.058 91.5732ZM494.074 88.6088C494.075 88.3327 493.852 88.1077 493.576 88.1062C493.3 88.1047 493.075 88.3274 493.074 88.6036L494.074 88.6088ZM493.089 85.6339C493.088 85.91 493.31 86.135 493.587 86.1365C493.863 86.138 494.088 85.9153 494.089 85.6392L493.089 85.6339ZM494.105 82.6695C494.106 82.3933 493.884 82.1683 493.608 82.1668C493.331 82.1654 493.106 82.388 493.105 82.6642L494.105 82.6695ZM493.121 79.6945C493.119 79.9706 493.342 80.1956 493.618 80.1971C493.894 80.1986 494.119 79.9759 494.121 79.6998L493.121 79.6945ZM494.136 76.7301C494.138 76.4539 493.915 76.2289 493.639 76.2274C493.363 76.226 493.138 76.4486 493.136 76.7248L494.136 76.7301ZM493.152 73.7551C493.151 74.0312 493.373 74.2563 493.649 74.2577C493.926 74.2592 494.151 74.0365 494.152 73.7604L493.152 73.7551ZM494.168 70.7907C494.169 70.5146 493.947 70.2895 493.67 70.2881C493.394 70.2866 493.169 70.5093 493.168 70.7854L494.168 70.7907ZM493.184 67.8157C493.182 68.0918 493.405 68.3169 493.681 68.3183C493.957 68.3198 494.182 68.0971 494.183 67.821L493.184 67.8157ZM494.199 64.8513C494.201 64.5752 493.978 64.3501 493.702 64.3487C493.426 64.3472 493.201 64.5699 493.199 64.846L494.199 64.8513ZM493.215 61.8763C493.213 62.1524 493.436 62.3775 493.712 62.3789C493.988 62.3804 494.213 62.1577 494.215 61.8816L493.215 61.8763ZM494.231 58.9119C494.232 58.6358 494.009 58.4107 493.733 58.4093C493.457 58.4078 493.232 58.6305 493.231 58.9066L494.231 58.9119ZM493.246 55.9369C493.245 56.213 493.468 56.4381 493.744 56.4395C494.02 56.441 494.245 56.2183 494.246 55.9422L493.246 55.9369ZM494.262 52.9725C494.264 52.6964 494.041 52.4713 493.765 52.4699C493.489 52.4684 493.264 52.6911 493.262 52.9672L494.262 52.9725ZM493.278 49.9975C493.276 50.2736 493.499 50.4987 493.775 50.5001C494.051 50.5016 494.276 50.2789 494.278 50.0028L493.278 49.9975ZM494.293 47.0331C494.295 46.757 494.072 46.5319 493.796 46.5305C493.52 46.529 493.295 46.7517 493.293 47.0278L494.293 47.0331ZM493.309 44.0581C493.308 44.3342 493.53 44.5593 493.807 44.5607C494.083 44.5622 494.308 44.3395 494.309 44.0634L493.309 44.0581ZM494.325 41.0937C494.326 40.8176 494.104 40.5925 493.828 40.5911C493.551 40.5896 493.326 40.8123 493.325 41.0884L494.325 41.0937ZM493.341 38.1187C493.339 38.3948 493.562 38.6199 493.838 38.6213C494.114 38.6228 494.339 38.4001 494.341 38.124L493.341 38.1187ZM494.356 35.1543C494.358 34.8782 494.135 34.6531 493.859 34.6517C493.583 34.6502 493.358 34.8729 493.356 35.149L494.356 35.1543ZM493.372 32.1793C493.371 32.4554 493.593 32.6805 493.869 32.6819C494.146 32.6834 494.371 32.4607 494.372 32.1846L493.372 32.1793ZM494.388 29.2149C494.389 28.9388 494.167 28.7137 493.89 28.7123C493.614 28.7108 493.389 28.9335 493.388 29.2096L494.388 29.2149ZM493.403 26.2399C493.402 26.516 493.625 26.7411 493.901 26.7425C494.177 26.744 494.402 26.5213 494.403 26.2452L493.403 26.2399ZM494.419 23.2755C494.421 22.9994 494.198 22.7743 493.922 22.7729C493.646 22.7714 493.421 22.9941 493.419 23.2702L494.419 23.2755ZM493.435 20.3005C493.433 20.5766 493.656 20.8017 493.932 20.8031C494.208 20.8046 494.433 20.5819 494.435 20.3058L493.435 20.3005ZM494.451 17.3361C494.452 17.06 494.229 16.8349 493.953 16.8335C493.677 16.832 493.452 17.0547 493.451 17.3308L494.451 17.3361ZM493.466 14.3611C493.465 14.6372 493.688 14.8623 493.964 14.8637C494.24 14.8652 494.465 14.6425 494.466 14.3664L493.466 14.3611ZM494.482 11.3967C494.483 11.1206 494.261 10.8955 493.985 10.8941C493.709 10.8926 493.484 11.1153 493.482 11.3914L494.482 11.3967ZM493.498 8.4217C493.496 8.69784 493.719 8.92288 493.995 8.92434C494.271 8.9258 494.496 8.70313 494.498 8.42699L493.498 8.4217ZM494.513 5.4573C494.515 5.18116 494.292 4.95612 494.016 4.95466C493.74 4.9532 493.515 5.17587 493.513 5.45201L494.513 5.4573ZM493.529 2.4823C493.528 2.75844 493.75 2.98348 494.027 2.98494C494.303 2.9864 494.528 2.76373 494.529 2.48759L493.529 2.4823ZM493.5 197.003L493.508 195.518L492.508 195.513L492.5 196.997L493.5 197.003ZM493.524 192.548L493.539 189.578L492.539 189.573L492.524 192.543L493.524 192.548ZM493.555 186.609L493.571 183.639L492.571 183.634L492.555 186.603L493.555 186.609ZM493.586 180.669L493.602 177.7L492.602 177.694L492.586 180.664L493.586 180.669ZM493.618 174.73L493.634 171.76L492.634 171.755L492.618 174.725L493.618 174.73ZM493.649 168.791L493.665 165.821L492.665 165.816L492.649 168.785L493.649 168.791ZM493.681 162.851L493.696 159.881L492.696 159.876L492.681 162.846L493.681 162.851ZM493.712 156.912L493.728 153.942L492.728 153.937L492.712 156.906L493.712 156.912ZM493.744 150.972L493.759 148.003L492.759 147.997L492.744 150.967L493.744 150.972ZM493.775 145.033L493.791 142.063L492.791 142.058L492.775 145.028L493.775 145.033ZM493.806 139.094L493.822 136.124L492.822 136.119L492.806 139.088L493.806 139.094ZM493.838 133.154L493.854 130.185L492.854 130.179L492.838 133.149L493.838 133.154ZM493.869 127.215L493.885 124.245L492.885 124.24L492.869 127.21L493.869 127.215ZM493.901 121.275L493.916 118.306L492.916 118.3L492.901 121.27L493.901 121.275ZM493.932 115.336L493.948 112.366L492.948 112.361L492.932 115.331L493.932 115.336ZM493.964 109.397L493.979 106.427L492.979 106.422L492.964 109.391L493.964 109.397ZM493.995 103.457L494.011 100.488L493.011 100.482L492.995 103.452L493.995 103.457ZM494.026 97.5179L494.042 94.5482L493.042 94.5429L493.026 97.5126L494.026 97.5179ZM494.058 91.5785L494.074 88.6088L493.074 88.6036L493.058 91.5732L494.058 91.5785ZM494.089 85.6392L494.105 82.6695L493.105 82.6642L493.089 85.6339L494.089 85.6392ZM494.121 79.6998L494.136 76.7301L493.136 76.7248L493.121 79.6945L494.121 79.6998ZM494.152 73.7604L494.168 70.7907L493.168 70.7854L493.152 73.7551L494.152 73.7604ZM494.183 67.821L494.199 64.8513L493.199 64.846L493.184 67.8157L494.183 67.821ZM494.215 61.8816L494.231 58.9119L493.231 58.9066L493.215 61.8763L494.215 61.8816ZM494.246 55.9422L494.262 52.9725L493.262 52.9672L493.246 55.9369L494.246 55.9422ZM494.278 50.0028L494.293 47.0331L493.293 47.0278L493.278 49.9975L494.278 50.0028ZM494.309 44.0634L494.325 41.0937L493.325 41.0884L493.309 44.0581L494.309 44.0634ZM494.341 38.124L494.356 35.1543L493.356 35.149L493.341 38.1187L494.341 38.124ZM494.372 32.1846L494.388 29.2149L493.388 29.2096L493.372 32.1793L494.372 32.1846ZM494.403 26.2452L494.419 23.2755L493.419 23.2702L493.403 26.2399L494.403 26.2452ZM494.435 20.3058L494.451 17.3361L493.451 17.3308L493.435 20.3005L494.435 20.3058ZM494.466 14.3664L494.482 11.3967L493.482 11.3914L493.466 14.3611L494.466 14.3664ZM494.498 8.42699L494.513 5.4573L493.513 5.45201L493.498 8.4217L494.498 8.42699ZM494.529 2.48759L494.537 1.00284L493.537 0.997552L493.529 2.4823L494.529 2.48759Z" fill="white" fill-opacity="0.15"/>
<rect x="489.5" y="13.5" width="8" height="4" rx="2" fill="#0ABAB5"/>
<rect x="489.5" y="13.5" width="8" height="4" rx="2" stroke="#035A58"/>
<path fill-rule="evenodd" clip-rule="evenodd" d="M30 0.5C30 0.223858 29.7761 0 29.5 0C29.2239 0 29 0.223858 29 0.5V197.5V198.5H30H493H493.5V197.5H493H30V0.5Z" fill="white"/>
<path d="M8.48535 111.503H7.7041V109.511C7.7041 109.006 7.57389 108.616 7.31348 108.339C7.0498 108.062 6.68685 107.924 6.22461 107.924H6.21484C5.74935 107.924 5.38639 108.062 5.12598 108.339C4.86556 108.616 4.73535 109.006 4.73535 109.511V111.503H3.9541L3.9541 109.286C3.9541 108.843 4.0485 108.453 4.2373 108.114C4.42611 107.776 4.68978 107.51 5.02832 107.318C5.36686 107.123 5.75911 107.025 6.20508 107.025H6.21484C6.66081 107.025 7.05469 107.123 7.39648 107.318C7.73828 107.51 8.00521 107.776 8.19727 108.114C8.38932 108.453 8.48535 108.843 8.48535 109.286V111.503ZM11 111.942H3.9541V111.063H11V111.942ZM11 105.585H3.9541V102.895C3.9541 102.442 4.04199 102.048 4.21777 101.713C4.3903 101.374 4.63281 101.112 4.94531 100.927C5.25781 100.741 5.62565 100.648 6.04883 100.648H6.05859C6.54688 100.648 6.97005 100.774 7.32813 101.024C7.6862 101.275 7.93522 101.622 8.0752 102.064L11 100.434V101.464L8.21191 102.973C8.21191 102.979 8.21191 102.987 8.21191 102.997C8.21191 103.007 8.21191 103.015 8.21191 103.021V104.706H11V105.585ZM7.43066 104.706V102.973C7.43066 102.52 7.3151 102.172 7.08398 101.928C6.84961 101.68 6.51758 101.557 6.08789 101.557H6.07813C5.6582 101.557 5.32943 101.685 5.0918 101.942C4.85417 102.2 4.73535 102.556 4.73535 103.012V104.706H7.43066ZM11 99.0518H3.9541V98.1729H11L11 99.0518ZM11.166 93.5391C11.166 94.1771 11.0163 94.7288 10.7168 95.1943C10.4173 95.6598 9.99251 96.0195 9.44238 96.2734C8.89225 96.5241 8.23958 96.6494 7.48438 96.6494H7.47461C6.71615 96.6494 6.06185 96.5241 5.51172 96.2734C4.96159 96.0195 4.53678 95.6615 4.2373 95.1992C3.93783 94.7337 3.78809 94.182 3.78809 93.5439C3.78809 93.0492 3.88574 92.5999 4.08105 92.1963C4.27311 91.7894 4.54167 91.4541 4.88672 91.1904C5.22852 90.9268 5.62402 90.7607 6.07324 90.6924L6.08301 90.6973L6.08301 91.5811L6.07324 91.5859C5.77051 91.6641 5.51009 91.7959 5.29199 91.9814C5.07064 92.167 4.89974 92.3932 4.7793 92.6602C4.65885 92.9238 4.59863 93.2184 4.59863 93.5439C4.59863 93.9932 4.71582 94.3838 4.9502 94.7158C5.18457 95.0446 5.5166 95.2985 5.94629 95.4775C6.37598 95.6566 6.88542 95.7461 7.47461 95.7461H7.48438C8.07031 95.7461 8.57812 95.6566 9.00781 95.4775C9.4375 95.2985 9.76953 95.0446 10.0039 94.7158C10.2383 94.3838 10.3555 93.9915 10.3555 93.5391C10.3555 93.2103 10.3034 92.9124 10.1992 92.6455C10.0918 92.3786 9.94043 92.154 9.74512 91.9717C9.54655 91.7894 9.31217 91.6624 9.04199 91.5908L9.03223 91.5811V90.6924H9.04199C9.47168 90.7705 9.84603 90.9398 10.165 91.2002C10.4808 91.4606 10.7266 91.791 10.9023 92.1914C11.0781 92.5885 11.166 93.0378 11.166 93.5391ZM11 89.2178H3.9541L3.9541 84.8525H4.74512V88.3389H7.00586V85.0332H7.78711V88.3389H10.209V84.8525H11V89.2178Z" fill="#CDCDCD"/>
<path d="M219.063 223V215.954H220.084L222.496 221.833H222.574L224.986 215.954H226.007V223H225.187V217.619H224.757L225.743 216.149L222.906 223H222.164L219.332 216.149L220.313 217.619H219.884V223H219.063ZM227.242 223L229.84 215.954H230.514V217.092H230.235L228.165 223H227.242ZM228.419 220.983L228.692 220.236H231.876L232.149 220.983H228.419ZM232.384 223L230.313 217.092V215.954H230.709L233.307 223H232.384ZM235.543 223V216.745H233.272V215.954H238.692V216.745H236.422V223H235.543ZM242.843 223.166C242.26 223.166 241.759 223.057 241.339 222.839C240.922 222.621 240.602 222.318 240.377 221.931C240.152 221.54 240.04 221.089 240.04 220.578V215.954H240.919V220.52C240.919 221.06 241.087 221.501 241.422 221.843C241.76 222.185 242.234 222.355 242.843 222.355C243.455 222.355 243.927 222.185 244.259 221.843C244.591 221.501 244.757 221.06 244.757 220.52V215.954H245.636V220.578C245.636 221.089 245.523 221.54 245.299 221.931C245.077 222.318 244.758 222.621 244.342 222.839C243.925 223.057 243.425 223.166 242.843 223.166ZM247.423 223V215.954H250.113C250.566 215.954 250.96 216.042 251.295 216.218C251.633 216.39 251.896 216.633 252.081 216.945C252.267 217.258 252.359 217.626 252.359 218.049V218.059C252.359 218.547 252.234 218.97 251.983 219.328C251.733 219.686 251.386 219.935 250.943 220.075L252.574 223H251.544L250.035 220.212C250.029 220.212 250.021 220.212 250.011 220.212C250.001 220.212 249.993 220.212 249.986 220.212H248.302V223H247.423ZM248.302 219.431H250.035C250.488 219.431 250.836 219.315 251.08 219.084C251.327 218.85 251.451 218.518 251.451 218.088V218.078C251.451 217.658 251.323 217.329 251.065 217.092C250.808 216.854 250.452 216.735 249.996 216.735H248.302V219.431ZM253.956 223V215.954H254.835V223H253.956ZM258.463 223V216.745H256.192V215.954H261.612V216.745H259.342V223H258.463ZM264.908 223V219.968L262.408 215.954H263.409L265.309 219.084H265.387L267.286 215.954H268.287L265.787 219.968V223H264.908ZM274.005 224.758C273.689 224.338 273.429 223.892 273.224 223.42C273.019 222.948 272.866 222.445 272.765 221.911C272.667 221.377 272.618 220.808 272.618 220.202C272.618 219.597 272.667 219.029 272.765 218.498C272.862 217.964 273.014 217.461 273.219 216.989C273.424 216.514 273.686 216.066 274.005 215.646H274.718C274.542 215.871 274.378 216.154 274.225 216.496C274.075 216.838 273.945 217.215 273.834 217.629C273.723 218.039 273.637 218.465 273.575 218.908C273.513 219.348 273.482 219.779 273.482 220.202C273.482 220.629 273.513 221.063 273.575 221.506C273.637 221.945 273.723 222.372 273.834 222.785C273.945 223.195 274.075 223.57 274.225 223.908C274.378 224.25 274.542 224.533 274.718 224.758H274.005ZM276.153 223V215.954H278.57C279.267 215.954 279.863 216.094 280.357 216.374C280.855 216.651 281.236 217.051 281.5 217.575C281.764 218.099 281.896 218.731 281.896 219.47V219.479C281.896 220.218 281.764 220.852 281.5 221.379C281.236 221.903 280.857 222.305 280.362 222.585C279.868 222.862 279.27 223 278.57 223H276.153ZM277.032 222.209H278.512C279.036 222.209 279.483 222.102 279.854 221.887C280.226 221.672 280.509 221.361 280.704 220.954C280.899 220.547 280.997 220.059 280.997 219.489V219.479C280.997 218.907 280.898 218.417 280.699 218.01C280.504 217.6 280.221 217.287 279.85 217.072C279.479 216.854 279.033 216.745 278.512 216.745H277.032V222.209ZM282.516 223L285.113 215.954H285.787V217.092H285.509L283.438 223H282.516ZM283.692 220.983L283.966 220.236H287.149L287.423 220.983H283.692ZM287.657 223L285.587 217.092V215.954H285.982L288.58 223H287.657ZM291.021 223V219.968L288.521 215.954H289.522L291.422 219.084H291.5L293.399 215.954H294.4L291.9 219.968V223H291.021ZM297.848 223.166C297.333 223.166 296.884 223.083 296.5 222.917C296.119 222.748 295.816 222.517 295.592 222.224C295.37 221.927 295.242 221.589 295.206 221.208L295.201 221.154H296.08L296.085 221.208C296.108 221.442 296.197 221.646 296.354 221.818C296.513 221.988 296.725 222.119 296.988 222.214C297.255 222.308 297.558 222.355 297.896 222.355C298.215 222.355 298.499 222.305 298.746 222.204C298.997 222.1 299.194 221.957 299.337 221.774C299.48 221.592 299.552 221.382 299.552 221.145V221.14C299.552 220.847 299.444 220.601 299.229 220.402C299.015 220.201 298.665 220.046 298.18 219.938L297.398 219.768C296.692 219.611 296.178 219.37 295.855 219.045C295.536 218.716 295.377 218.296 295.377 217.785V217.78C295.38 217.39 295.486 217.045 295.694 216.745C295.906 216.446 296.197 216.211 296.568 216.042C296.943 215.873 297.372 215.788 297.857 215.788C298.326 215.788 298.741 215.873 299.103 216.042C299.464 216.208 299.75 216.433 299.962 216.716C300.177 216.999 300.296 217.316 300.318 217.668L300.323 217.736H299.444L299.435 217.673C299.402 217.465 299.317 217.281 299.181 217.121C299.044 216.958 298.862 216.83 298.634 216.735C298.406 216.641 298.139 216.595 297.833 216.599C297.54 216.599 297.276 216.644 297.042 216.735C296.808 216.826 296.62 216.958 296.48 217.131C296.344 217.3 296.275 217.508 296.275 217.756V217.761C296.275 218.041 296.38 218.277 296.588 218.469C296.796 218.661 297.14 218.809 297.618 218.913L298.399 219.089C299.135 219.252 299.661 219.488 299.977 219.797C300.292 220.106 300.45 220.515 300.45 221.022V221.027C300.45 221.467 300.343 221.846 300.128 222.165C299.913 222.484 299.61 222.731 299.22 222.907C298.829 223.08 298.372 223.166 297.848 223.166ZM302.267 224.758H301.554C301.729 224.533 301.892 224.25 302.042 223.908C302.195 223.57 302.327 223.195 302.438 222.785C302.548 222.372 302.634 221.945 302.696 221.506C302.758 221.063 302.789 220.629 302.789 220.202C302.789 219.779 302.758 219.348 302.696 218.908C302.634 218.465 302.548 218.039 302.438 217.629C302.327 217.215 302.195 216.838 302.042 216.496C301.892 216.154 301.729 215.871 301.554 215.646H302.267C302.586 216.066 302.848 216.514 303.053 216.989C303.258 217.461 303.409 217.964 303.507 218.498C303.604 219.029 303.653 219.597 303.653 220.202C303.653 220.808 303.603 221.377 303.502 221.911C303.404 222.445 303.253 222.948 303.048 223.42C302.846 223.892 302.586 224.338 302.267 224.758Z" fill="#CDCDCD"/>
<path d="M69.4254 89V81.4941H66.7008V80.5449H73.2047V81.4941H70.4801V89H69.4254ZM74.9562 86.0703V85.1211H81.1555V86.0703H74.9562ZM77.5812 88.7539V82.4375H78.5305V88.7539H77.5812ZM84.5301 89L88.327 81.5703V81.4883H83.8035V80.5449H89.3992V81.5234L85.6375 89H84.5301ZM95.0648 89.1992C94.4398 89.1992 93.9047 89.0195 93.4594 88.6602C93.018 88.3008 92.6781 87.791 92.4398 87.1309C92.2016 86.4668 92.0824 85.6816 92.0824 84.7754V84.7637C92.0824 83.8574 92.2016 83.0742 92.4398 82.4141C92.6781 81.7539 93.018 81.2441 93.4594 80.8848C93.9047 80.5254 94.4398 80.3457 95.0648 80.3457C95.6898 80.3457 96.225 80.5254 96.6703 80.8848C97.1156 81.2441 97.4574 81.7539 97.6957 82.4141C97.9379 83.0742 98.059 83.8574 98.059 84.7637V84.7754C98.059 85.6816 97.9379 86.4668 97.6957 87.1309C97.4574 87.791 97.1156 88.3008 96.6703 88.6602C96.225 89.0195 95.6898 89.1992 95.0648 89.1992ZM95.0648 88.2793C95.4711 88.2793 95.8168 88.1367 96.102 87.8516C96.391 87.5664 96.6117 87.1621 96.7641 86.6387C96.9203 86.1152 96.9984 85.4941 96.9984 84.7754V84.7637C96.9984 84.0449 96.9203 83.4258 96.7641 82.9062C96.6117 82.3828 96.391 81.9805 96.102 81.6992C95.8168 81.4141 95.4711 81.2715 95.0648 81.2715C94.6625 81.2715 94.3168 81.4141 94.0277 81.6992C93.7426 81.9805 93.5238 82.3828 93.3715 82.9062C93.2191 83.4258 93.143 84.0449 93.143 84.7637V84.7754C93.143 85.4941 93.2191 86.1152 93.3715 86.6387C93.5238 87.1621 93.7426 87.5664 94.0277 87.8516C94.3168 88.1367 94.6625 88.2793 95.0648 88.2793Z" fill="white"/>
<path d="M246.433 99V91.4941H243.709V90.5449H250.212V91.4941H247.488V99H246.433ZM251.964 96.0703V95.1211H258.163V96.0703H251.964ZM254.589 98.7539V92.4375H255.538V98.7539H254.589ZM263.952 90.3457C264.339 90.3457 264.72 90.4199 265.095 90.5684C265.473 90.7168 265.815 90.957 266.12 91.2891C266.429 91.6211 266.675 92.0605 266.858 92.6074C267.042 93.1504 267.134 93.8203 267.134 94.6172V94.6289C267.134 95.5898 267.005 96.4121 266.747 97.0957C266.489 97.7754 266.118 98.2969 265.634 98.6602C265.149 99.0195 264.565 99.1992 263.882 99.1992C263.409 99.1992 262.981 99.1133 262.598 98.9414C262.22 98.7656 261.903 98.5215 261.649 98.209C261.395 97.8965 261.22 97.5332 261.122 97.1191L261.104 97.043H262.165L262.188 97.1074C262.274 97.3418 262.395 97.5449 262.552 97.7168C262.712 97.8887 262.903 98.0215 263.126 98.1152C263.352 98.209 263.608 98.2559 263.893 98.2559C264.405 98.2559 264.821 98.1074 265.141 97.8105C265.462 97.5098 265.7 97.1113 265.856 96.6152C266.012 96.1191 266.1 95.5781 266.12 94.9922C266.124 94.9375 266.126 94.8848 266.126 94.834C266.126 94.7793 266.126 94.7266 266.126 94.6758L265.874 93.2695C265.874 92.8984 265.788 92.5625 265.616 92.2617C265.448 91.9609 265.22 91.7227 264.93 91.5469C264.645 91.3672 264.323 91.2773 263.964 91.2773C263.612 91.2773 263.292 91.3652 263.003 91.541C262.714 91.7129 262.483 91.9473 262.311 92.2441C262.139 92.5371 262.054 92.8672 262.054 93.2344V93.2461C262.054 93.6211 262.136 93.9551 262.3 94.248C262.464 94.5371 262.688 94.7656 262.973 94.9336C263.259 95.0977 263.583 95.1797 263.946 95.1797C264.313 95.1797 264.641 95.0977 264.93 94.9336C265.22 94.7695 265.448 94.5449 265.616 94.2598C265.788 93.9707 265.874 93.6426 265.874 93.2754V93.2695H266.22V94.793H266.014C265.913 95.0234 265.757 95.2383 265.546 95.4375C265.339 95.6367 265.085 95.7969 264.784 95.918C264.487 96.0391 264.147 96.0996 263.764 96.0996C263.237 96.0996 262.764 95.9766 262.346 95.7305C261.929 95.4844 261.598 95.1484 261.356 94.7227C261.114 94.293 260.993 93.8086 260.993 93.2695V93.2578C260.993 92.6953 261.12 92.1953 261.374 91.7578C261.632 91.3164 261.983 90.9707 262.429 90.7207C262.878 90.4707 263.386 90.3457 263.952 90.3457ZM273.057 99.1992C272.432 99.1992 271.897 99.0195 271.452 98.6602C271.01 98.3008 270.67 97.791 270.432 97.1309C270.194 96.4668 270.075 95.6816 270.075 94.7754V94.7637C270.075 93.8574 270.194 93.0742 270.432 92.4141C270.67 91.7539 271.01 91.2441 271.452 90.8848C271.897 90.5254 272.432 90.3457 273.057 90.3457C273.682 90.3457 274.217 90.5254 274.663 90.8848C275.108 91.2441 275.45 91.7539 275.688 92.4141C275.93 93.0742 276.051 93.8574 276.051 94.7637V94.7754C276.051 95.6816 275.93 96.4668 275.688 97.1309C275.45 97.791 275.108 98.3008 274.663 98.6602C274.217 99.0195 273.682 99.1992 273.057 99.1992ZM273.057 98.2793C273.463 98.2793 273.809 98.1367 274.094 97.8516C274.383 97.5664 274.604 97.1621 274.756 96.6387C274.913 96.1152 274.991 95.4941 274.991 94.7754V94.7637C274.991 94.0449 274.913 93.4258 274.756 92.9062C274.604 92.3828 274.383 91.9805 274.094 91.6992C273.809 91.4141 273.463 91.2715 273.057 91.2715C272.655 91.2715 272.309 91.4141 272.02 91.6992C271.735 91.9805 271.516 92.3828 271.364 92.9062C271.211 93.4258 271.135 94.0449 271.135 94.7637V94.7754C271.135 95.4941 271.211 96.1152 271.364 96.6387C271.516 97.1621 271.735 97.5664 272.02 97.8516C272.309 98.1367 272.655 98.2793 273.057 98.2793Z" fill="white"/>
<path d="M429.45 57V49.4941H426.725V48.5449H433.229V49.4941H430.505V57H429.45ZM434.981 54.0703V53.1211H441.18V54.0703H434.981ZM437.606 56.7539V50.4375H438.555V56.7539H437.606ZM446.271 57V49.7168H446.178L444.027 51.2754V50.1621L446.277 48.5449H447.326V57H446.271ZM454.158 57.1992C453.771 57.1992 453.388 57.125 453.009 56.9766C452.634 56.8281 452.293 56.5879 451.984 56.2559C451.679 55.9238 451.435 55.4863 451.252 54.9434C451.068 54.3965 450.976 53.7246 450.976 52.9277V52.916C450.976 51.9551 451.105 51.1348 451.363 50.4551C451.621 49.7715 451.992 49.25 452.476 48.8906C452.961 48.5273 453.545 48.3457 454.228 48.3457C454.701 48.3457 455.127 48.4336 455.505 48.6094C455.888 48.7812 456.207 49.0234 456.461 49.3359C456.718 49.6445 456.894 50.0078 456.988 50.4258L457.005 50.502H455.945L455.921 50.4375C455.836 50.1992 455.713 49.9961 455.552 49.8281C455.396 49.6562 455.205 49.5234 454.978 49.4297C454.755 49.3359 454.502 49.2891 454.216 49.2891C453.705 49.2891 453.289 49.4395 452.968 49.7402C452.648 50.0371 452.41 50.4336 452.254 50.9297C452.101 51.4219 452.013 51.9629 451.99 52.5527C451.986 52.6035 451.984 52.6562 451.984 52.7109C451.984 52.7617 451.984 52.8145 451.984 52.8691L452.236 54.2754C452.236 54.6465 452.32 54.9824 452.488 55.2832C452.66 55.584 452.89 55.8242 453.179 56.0039C453.468 56.1797 453.791 56.2676 454.146 56.2676C454.502 56.2676 454.824 56.1816 455.113 56.0098C455.402 55.834 455.63 55.5977 455.798 55.3008C455.97 55.0039 456.056 54.6738 456.056 54.3105V54.2988C456.056 53.9238 455.974 53.5918 455.81 53.3027C455.65 53.0098 455.427 52.7812 455.142 52.6172C454.857 52.4492 454.531 52.3652 454.164 52.3652C453.8 52.3652 453.472 52.4473 453.179 52.6113C452.89 52.7754 452.66 53.002 452.488 53.291C452.32 53.5762 452.236 53.9023 452.236 54.2695V54.2754H451.89V52.752H452.095C452.201 52.5215 452.357 52.3066 452.564 52.1074C452.771 51.9082 453.025 51.748 453.326 51.627C453.627 51.5059 453.966 51.4453 454.345 51.4453C454.877 51.4453 455.351 51.5684 455.769 51.8145C456.187 52.0605 456.515 52.3965 456.754 52.8223C456.996 53.248 457.117 53.7324 457.117 54.2754V54.2871C457.117 54.8496 456.988 55.3496 456.73 55.7871C456.476 56.2246 456.127 56.5703 455.681 56.8242C455.236 57.0742 454.728 57.1992 454.158 57.1992ZM463.04 57.1992C462.415 57.1992 461.88 57.0195 461.435 56.6602C460.993 56.3008 460.654 55.791 460.415 55.1309C460.177 54.4668 460.058 53.6816 460.058 52.7754V52.7637C460.058 51.8574 460.177 51.0742 460.415 50.4141C460.654 49.7539 460.993 49.2441 461.435 48.8848C461.88 48.5254 462.415 48.3457 463.04 48.3457C463.665 48.3457 464.2 48.5254 464.646 48.8848C465.091 49.2441 465.433 49.7539 465.671 50.4141C465.913 51.0742 466.034 51.8574 466.034 52.7637V52.7754C466.034 53.6816 465.913 54.4668 465.671 55.1309C465.433 55.791 465.091 56.3008 464.646 56.6602C464.2 57.0195 463.665 57.1992 463.04 57.1992ZM463.04 56.2793C463.446 56.2793 463.792 56.1367 464.077 55.8516C464.366 55.5664 464.587 55.1621 464.739 54.6387C464.896 54.1152 464.974 53.4941 464.974 52.7754V52.7637C464.974 52.0449 464.896 51.4258 464.739 50.9062C464.587 50.3828 464.366 49.9805 464.077 49.6992C463.792 49.4141 463.446 49.2715 463.04 49.2715C462.638 49.2715 462.292 49.4141 462.003 49.6992C461.718 49.9805 461.499 50.3828 461.347 50.9062C461.195 51.4258 461.118 52.0449 461.118 52.7637V52.7754C461.118 53.4941 461.195 54.1152 461.347 54.6387C461.499 55.1621 461.718 55.5664 462.003 55.8516C462.292 56.1367 462.638 56.2793 463.04 56.2793Z" fill="white"/>
<path d="M507.43 19V11.4941H504.706V10.5449H511.21V11.4941H508.485V19H507.43ZM512.961 16.0703V15.1211H519.161V16.0703H512.961ZM515.586 18.7539V12.4375H516.536V18.7539H515.586ZM525.061 19.1406C524.479 19.1406 523.971 19.041 523.537 18.8418C523.104 18.6426 522.76 18.3691 522.506 18.0215C522.256 17.6738 522.111 17.2773 522.072 16.832L522.066 16.7617H523.08L523.086 16.8203C523.129 17.2344 523.328 17.5723 523.684 17.834C524.039 18.0957 524.498 18.2266 525.061 18.2266C525.432 18.2266 525.756 18.1621 526.033 18.0332C526.314 17.9043 526.533 17.7266 526.689 17.5C526.846 17.2695 526.924 17.0059 526.924 16.709V16.6973C526.924 16.1777 526.75 15.7793 526.402 15.502C526.059 15.2207 525.59 15.0801 524.996 15.0801H523.936V14.1895H524.949C525.285 14.1895 525.582 14.127 525.84 14.002C526.098 13.873 526.299 13.6992 526.443 13.4805C526.588 13.2578 526.66 13.0059 526.66 12.7246V12.7129C526.66 12.416 526.598 12.1641 526.473 11.957C526.348 11.75 526.164 11.5918 525.922 11.4824C525.684 11.373 525.393 11.3184 525.049 11.3184C524.717 11.3184 524.42 11.375 524.158 11.4883C523.9 11.5977 523.693 11.7559 523.537 11.9629C523.381 12.1699 523.287 12.416 523.256 12.7012L523.25 12.7598H522.236L522.242 12.7012C522.289 12.2402 522.434 11.8379 522.676 11.4941C522.922 11.1504 523.246 10.8828 523.648 10.6914C524.055 10.5 524.521 10.4043 525.049 10.4043C525.588 10.4043 526.057 10.498 526.455 10.6855C526.857 10.8691 527.168 11.125 527.387 11.4531C527.609 11.7773 527.721 12.1543 527.721 12.584V12.5957C527.721 12.9434 527.645 13.252 527.492 13.5215C527.34 13.791 527.129 14.0156 526.859 14.1953C526.59 14.375 526.279 14.502 525.928 14.5762V14.5996C526.545 14.6504 527.043 14.8594 527.422 15.2266C527.805 15.5898 527.996 16.0723 527.996 16.6738V16.6855C527.996 17.1543 527.869 17.5742 527.615 17.9453C527.361 18.3164 527.014 18.6094 526.572 18.8242C526.131 19.0352 525.627 19.1406 525.061 19.1406ZM534.968 19V17.248H530.849V16.2871C531.08 15.9043 531.314 15.5176 531.552 15.127C531.791 14.7324 532.031 14.3398 532.273 13.9492C532.519 13.5547 532.765 13.1641 533.011 12.7773C533.257 12.3906 533.502 12.0098 533.744 11.6348C533.99 11.2598 534.232 10.8965 534.47 10.5449H536V16.3047H537.201V17.248H536V19H534.968ZM531.927 16.3105H534.974V11.5234H534.904C534.713 11.8086 534.517 12.1055 534.318 12.4141C534.119 12.7188 533.916 13.0312 533.709 13.3516C533.505 13.6719 533.302 13.9941 533.099 14.3184C532.896 14.6426 532.695 14.9668 532.496 15.291C532.3 15.6113 532.111 15.9277 531.927 16.2402V16.3105ZM543.06 19.1992C542.435 19.1992 541.9 19.0195 541.454 18.6602C541.013 18.3008 540.673 17.791 540.435 17.1309C540.196 16.4668 540.077 15.6816 540.077 14.7754V14.7637C540.077 13.8574 540.196 13.0742 540.435 12.4141C540.673 11.7539 541.013 11.2441 541.454 10.8848C541.9 10.5254 542.435 10.3457 543.06 10.3457C543.685 10.3457 544.22 10.5254 544.665 10.8848C545.111 11.2441 545.452 11.7539 545.691 12.4141C545.933 13.0742 546.054 13.8574 546.054 14.7637V14.7754C546.054 15.6816 545.933 16.4668 545.691 17.1309C545.452 17.791 545.111 18.3008 544.665 18.6602C544.22 19.0195 543.685 19.1992 543.06 19.1992ZM543.06 18.2793C543.466 18.2793 543.812 18.1367 544.097 17.8516C544.386 17.5664 544.607 17.1621 544.759 16.6387C544.915 16.1152 544.993 15.4941 544.993 14.7754V14.7637C544.993 14.0449 544.915 13.4258 544.759 12.9062C544.607 12.3828 544.386 11.9805 544.097 11.6992C543.812 11.4141 543.466 11.2715 543.06 11.2715C542.657 11.2715 542.312 11.4141 542.023 11.6992C541.737 11.9805 541.519 12.3828 541.366 12.9062C541.214 13.4258 541.138 14.0449 541.138 14.7637V14.7754C541.138 15.4941 541.214 16.1152 541.366 16.6387C541.519 17.1621 541.737 17.5664 542.023 17.8516C542.312 18.1367 542.657 18.2793 543.06 18.2793Z" fill="white"/>
<g clip-path="url(#clip0_659_4641)">
<path d="M28 241H79V300C79 307.542 79 311.314 76.6569 313.657C74.3137 316 70.5425 316 63 316H44C36.4575 316 32.6863 316 30.3431 313.657C28 311.314 28 307.542 28 300V241Z" fill="url(#paint0_linear_659_4641)"/>
<path opacity="0.5" d="M79 271.5C79 272.329 67.5832 273 53.5 273C39.4169 273 28 272.328 28 271.5C28 270.671 39.4169 270 53.5 270C67.5832 270 79 270.672 79 271.5Z" fill="black"/>
<path opacity="0.5" d="M79 270.5C79 271.329 67.5832 272 53.5 272C39.4169 272 28 271.328 28 270.5C28 269.671 39.4169 269 53.5 269C67.5832 269 79 269.672 79 270.5Z" fill="#0ABAB5"/>
<path d="M28 305.5H27.5V306.5H28V305.5ZM38 306.5C38.2761 306.5 38.5 306.276 38.5 306C38.5 305.724 38.2761 305.5 38 305.5V306.5ZM28 306.5H38V305.5H28V306.5Z" fill="#CCCDCD"/>
<path d="M28 300.5H27.5V301.5H28V300.5ZM33 301.5C33.2761 301.5 33.5 301.276 33.5 301C33.5 300.724 33.2761 300.5 33 300.5V301.5ZM28 301.5H33V300.5H28V301.5Z" fill="#CCCDCD"/>
<path d="M28 285.5H27.5V286.5H28V285.5ZM33 286.5C33.2761 286.5 33.5 286.276 33.5 286C33.5 285.724 33.2761 285.5 33 285.5V286.5ZM28 286.5H33V285.5H28V286.5Z" fill="#CCCDCD"/>
<path d="M28 270.5H27.5V271.5H28V270.5ZM33 271.5C33.2761 271.5 33.5 271.276 33.5 271C33.5 270.724 33.2761 270.5 33 270.5V271.5ZM28 271.5H33V270.5H28V271.5Z" fill="#CCCDCD"/>
<path d="M28 255.5H27.5V256.5H28V255.5ZM33 256.5C33.2761 256.5 33.5 256.276 33.5 256C33.5 255.724 33.2761 255.5 33 255.5V256.5ZM28 256.5H33V255.5H28V256.5Z" fill="#CCCDCD"/>
<path d="M28 295.5H27.5V296.5H28V295.5ZM33 296.5C33.2761 296.5 33.5 296.276 33.5 296C33.5 295.724 33.2761 295.5 33 295.5V296.5ZM28 296.5H33V295.5H28V296.5Z" fill="#CCCDCD"/>
<path d="M28 280.5H27.5V281.5H28V280.5ZM33 281.5C33.2761 281.5 33.5 281.276 33.5 281C33.5 280.724 33.2761 280.5 33 280.5V281.5ZM28 281.5H33V280.5H28V281.5Z" fill="#CCCDCD"/>
<path d="M28 265.5H27.5V266.5H28V265.5ZM33 266.5C33.2761 266.5 33.5 266.276 33.5 266C33.5 265.724 33.2761 265.5 33 265.5V266.5ZM28 266.5H33V265.5H28V266.5Z" fill="#CCCDCD"/>
<path d="M28 250.5H27.5V251.5H28V250.5ZM33 251.5C33.2761 251.5 33.5 251.276 33.5 251C33.5 250.724 33.2761 250.5 33 250.5V251.5ZM28 251.5H33V250.5H28V251.5Z" fill="#CCCDCD"/>
<path d="M28 290.5H27.5V291.5H28V290.5ZM38 291.5C38.2761 291.5 38.5 291.276 38.5 291C38.5 290.724 38.2761 290.5 38 290.5V291.5ZM28 291.5H38V290.5H28V291.5Z" fill="#CCCDCD"/>
<path d="M28 275.5H27.5V276.5H28V275.5ZM38 276.5C38.2761 276.5 38.5 276.276 38.5 276C38.5 275.724 38.2761 275.5 38 275.5V276.5ZM28 276.5H38V275.5H28V276.5Z" fill="#CCCDCD"/>
<path d="M28 260.5H27.5V261.5H28V260.5ZM38 261.5C38.2761 261.5 38.5 261.276 38.5 261C38.5 260.724 38.2761 260.5 38 260.5V261.5ZM28 261.5H38V260.5H28V261.5Z" fill="#CCCDCD"/>
<path d="M28 245.5H27.5V246.5H28V245.5ZM38 246.5C38.2761 246.5 38.5 246.276 38.5 246C38.5 245.724 38.2761 245.5 38 245.5V246.5ZM28 246.5H38V245.5H28V246.5Z" fill="#CCCDCD"/>
</g>
<path d="M28 241H79H28ZM79.5 308C79.5 312.694 75.6944 316.5 71 316.5H36C31.3056 316.5 27.5 312.694 27.5 308H28.5C28.5 312.142 31.8579 315.5 36 315.5H71C75.1421 315.5 78.5 312.142 78.5 308H79.5ZM36 316.5C31.3056 316.5 27.5 312.694 27.5 308V241H28.5V308C28.5 312.142 31.8579 315.5 36 315.5V316.5ZM79.5 241V308C79.5 312.694 75.6944 316.5 71 316.5V315.5C75.1421 315.5 78.5 312.142 78.5 308V241H79.5Z" fill="#CCCDCD"/>
<g clip-path="url(#clip1_659_4641)">
<path d="M117 305.5H116.5V306.5H117V305.5ZM127 306.5C127.276 306.5 127.5 306.276 127.5 306C127.5 305.724 127.276 305.5 127 305.5V306.5ZM117 306.5H127V305.5H117V306.5Z" fill="#CCCDCD"/>
<path d="M117 300.5H116.5V301.5H117V300.5ZM122 301.5C122.276 301.5 122.5 301.276 122.5 301C122.5 300.724 122.276 300.5 122 300.5V301.5ZM117 301.5H122V300.5H117V301.5Z" fill="#CCCDCD"/>
<path d="M117 285.5H116.5V286.5H117V285.5ZM122 286.5C122.276 286.5 122.5 286.276 122.5 286C122.5 285.724 122.276 285.5 122 285.5V286.5ZM117 286.5H122V285.5H117V286.5Z" fill="#CCCDCD"/>
<path d="M117 270.5H116.5V271.5H117V270.5ZM122 271.5C122.276 271.5 122.5 271.276 122.5 271C122.5 270.724 122.276 270.5 122 270.5V271.5ZM117 271.5H122V270.5H117V271.5Z" fill="#CCCDCD"/>
<path d="M117 255.5H116.5V256.5H117V255.5ZM122 256.5C122.276 256.5 122.5 256.276 122.5 256C122.5 255.724 122.276 255.5 122 255.5V256.5ZM117 256.5H122V255.5H117V256.5Z" fill="#CCCDCD"/>
<path d="M117 295.5H116.5V296.5H117V295.5ZM122 296.5C122.276 296.5 122.5 296.276 122.5 296C122.5 295.724 122.276 295.5 122 295.5V296.5ZM117 296.5H122V295.5H117V296.5Z" fill="#CCCDCD"/>
<path d="M117 280.5H116.5V281.5H117V280.5ZM122 281.5C122.276 281.5 122.5 281.276 122.5 281C122.5 280.724 122.276 280.5 122 280.5V281.5ZM117 281.5H122V280.5H117V281.5Z" fill="#CCCDCD"/>
<path d="M117 265.5H116.5V266.5H117V265.5ZM122 266.5C122.276 266.5 122.5 266.276 122.5 266C122.5 265.724 122.276 265.5 122 265.5V266.5ZM117 266.5H122V265.5H117V266.5Z" fill="#CCCDCD"/>
<path d="M117 250.5H116.5V251.5H117V250.5ZM122 251.5C122.276 251.5 122.5 251.276 122.5 251C122.5 250.724 122.276 250.5 122 250.5V251.5ZM117 251.5H122V250.5H117V251.5Z" fill="#CCCDCD"/>
<path d="M117 290.5H116.5V291.5H117V290.5ZM127 291.5C127.276 291.5 127.5 291.276 127.5 291C127.5 290.724 127.276 290.5 127 290.5V291.5ZM117 291.5H127V290.5H117V291.5Z" fill="#CCCDCD"/>
<path d="M117 275.5H116.5V276.5H117V275.5ZM127 276.5C127.276 276.5 127.5 276.276 127.5 276C127.5 275.724 127.276 275.5 127 275.5V276.5ZM117 276.5H127V275.5H117V276.5Z" fill="#CCCDCD"/>
<path d="M117 260.5H116.5V261.5H117V260.5ZM127 261.5C127.276 261.5 127.5 261.276 127.5 261C127.5 260.724 127.276 260.5 127 260.5V261.5ZM117 261.5H127V260.5H117V261.5Z" fill="#CCCDCD"/>
<path d="M117 245.5H116.5V246.5H117V245.5ZM127 246.5C127.276 246.5 127.5 246.276 127.5 246C127.5 245.724 127.276 245.5 127 245.5V246.5ZM117 246.5H127V245.5H117V246.5Z" fill="#CCCDCD"/>
</g>
<path d="M117 241H168H117ZM168.5 308C168.5 312.694 164.694 316.5 160 316.5H125C120.306 316.5 116.5 312.694 116.5 308H117.5C117.5 312.142 120.858 315.5 125 315.5H160C164.142 315.5 167.5 312.142 167.5 308H168.5ZM125 316.5C120.306 316.5 116.5 312.694 116.5 308V241H117.5V308C117.5 312.142 120.858 315.5 125 315.5V316.5ZM168.5 241V308C168.5 312.694 164.694 316.5 160 316.5V315.5C164.142 315.5 167.5 312.142 167.5 308V241H168.5Z" fill="#CCCDCD"/>
<g clip-path="url(#clip2_659_4641)">
<path d="M206 241H257V300C257 307.542 257 311.314 254.657 313.657C252.314 316 248.542 316 241 316H222C214.458 316 210.686 316 208.343 313.657C206 311.314 206 307.542 206 300V241Z" fill="url(#paint1_linear_659_4641)"/>
<path d="M206 305.5H205.5V306.5H206V305.5ZM216 306.5C216.276 306.5 216.5 306.276 216.5 306C216.5 305.724 216.276 305.5 216 305.5V306.5ZM206 306.5H216V305.5H206V306.5Z" fill="#CCCDCD"/>
<path d="M206 300.5H205.5V301.5H206V300.5ZM211 301.5C211.276 301.5 211.5 301.276 211.5 301C211.5 300.724 211.276 300.5 211 300.5V301.5ZM206 301.5H211V300.5H206V301.5Z" fill="#CCCDCD"/>
<path d="M206 285.5H205.5V286.5H206V285.5ZM211 286.5C211.276 286.5 211.5 286.276 211.5 286C211.5 285.724 211.276 285.5 211 285.5V286.5ZM206 286.5H211V285.5H206V286.5Z" fill="#CCCDCD"/>
<path d="M206 270.5H205.5V271.5H206V270.5ZM211 271.5C211.276 271.5 211.5 271.276 211.5 271C211.5 270.724 211.276 270.5 211 270.5V271.5ZM206 271.5H211V270.5H206V271.5Z" fill="#CCCDCD"/>
<path d="M206 255.5H205.5V256.5H206V255.5ZM211 256.5C211.276 256.5 211.5 256.276 211.5 256C211.5 255.724 211.276 255.5 211 255.5V256.5ZM206 256.5H211V255.5H206V256.5Z" fill="#CCCDCD"/>
<path d="M206 295.5H205.5V296.5H206V295.5ZM211 296.5C211.276 296.5 211.5 296.276 211.5 296C211.5 295.724 211.276 295.5 211 295.5V296.5ZM206 296.5H211V295.5H206V296.5Z" fill="#CCCDCD"/>
<path d="M206 280.5H205.5V281.5H206V280.5ZM211 281.5C211.276 281.5 211.5 281.276 211.5 281C211.5 280.724 211.276 280.5 211 280.5V281.5ZM206 281.5H211V280.5H206V281.5Z" fill="#CCCDCD"/>
<path d="M206 265.5H205.5V266.5H206V265.5ZM211 266.5C211.276 266.5 211.5 266.276 211.5 266C211.5 265.724 211.276 265.5 211 265.5V266.5ZM206 266.5H211V265.5H206V266.5Z" fill="#CCCDCD"/>
<path d="M206 250.5H205.5V251.5H206V250.5ZM211 251.5C211.276 251.5 211.5 251.276 211.5 251C211.5 250.724 211.276 250.5 211 250.5V251.5ZM206 251.5H211V250.5H206V251.5Z" fill="#CCCDCD"/>
<path d="M206 290.5H205.5V291.5H206V290.5ZM216 291.5C216.276 291.5 216.5 291.276 216.5 291C216.5 290.724 216.276 290.5 216 290.5V291.5ZM206 291.5H216V290.5H206V291.5Z" fill="#CCCDCD"/>
<path d="M206 275.5H205.5V276.5H206V275.5ZM216 276.5C216.276 276.5 216.5 276.276 216.5 276C216.5 275.724 216.276 275.5 216 275.5V276.5ZM206 276.5H216V275.5H206V276.5Z" fill="#CCCDCD"/>
<path d="M206 260.5H205.5V261.5H206V260.5ZM216 261.5C216.276 261.5 216.5 261.276 216.5 261C216.5 260.724 216.276 260.5 216 260.5V261.5ZM206 261.5H216V260.5H206V261.5Z" fill="#CCCDCD"/>
<path d="M206 245.5H205.5V246.5H206V245.5ZM216 246.5C216.276 246.5 216.5 246.276 216.5 246C216.5 245.724 216.276 245.5 216 245.5V246.5ZM206 246.5H216V245.5H206V246.5Z" fill="#CCCDCD"/>
<path opacity="0.5" d="M257 288.5C257 289.329 245.583 290 231.5 290C217.417 290 206 289.328 206 288.5C206 287.671 217.417 287 231.5 287C245.583 287 257 287.672 257 288.5Z" fill="black"/>
<path opacity="0.5" d="M257 287.5C257 288.329 245.583 289 231.5 289C217.417 289 206 288.328 206 287.5C206 286.671 217.417 286 231.5 286C245.583 286 257 286.672 257 287.5Z" fill="#0ABAB5"/>
</g>
<path d="M206 241H257H206ZM257.5 308C257.5 312.694 253.694 316.5 249 316.5H214C209.306 316.5 205.5 312.694 205.5 308H206.5C206.5 312.142 209.858 315.5 214 315.5H249C253.142 315.5 256.5 312.142 256.5 308H257.5ZM214 316.5C209.306 316.5 205.5 312.694 205.5 308V241H206.5V308C206.5 312.142 209.858 315.5 214 315.5V316.5ZM257.5 241V308C257.5 312.694 253.694 316.5 249 316.5V315.5C253.142 315.5 256.5 312.142 256.5 308V241H257.5Z" fill="#CCCDCD"/>
<g clip-path="url(#clip3_659_4641)">
<path d="M295 305.5H294.5V306.5H295V305.5ZM305 306.5C305.276 306.5 305.5 306.276 305.5 306C305.5 305.724 305.276 305.5 305 305.5V306.5ZM295 306.5H305V305.5H295V306.5Z" fill="#CCCDCD"/>
<path d="M295 300.5H294.5V301.5H295V300.5ZM300 301.5C300.276 301.5 300.5 301.276 300.5 301C300.5 300.724 300.276 300.5 300 300.5V301.5ZM295 301.5H300V300.5H295V301.5Z" fill="#CCCDCD"/>
<path d="M295 285.5H294.5V286.5H295V285.5ZM300 286.5C300.276 286.5 300.5 286.276 300.5 286C300.5 285.724 300.276 285.5 300 285.5V286.5ZM295 286.5H300V285.5H295V286.5Z" fill="#CCCDCD"/>
<path d="M295 270.5H294.5V271.5H295V270.5ZM300 271.5C300.276 271.5 300.5 271.276 300.5 271C300.5 270.724 300.276 270.5 300 270.5V271.5ZM295 271.5H300V270.5H295V271.5Z" fill="#CCCDCD"/>
<path d="M295 255.5H294.5V256.5H295V255.5ZM300 256.5C300.276 256.5 300.5 256.276 300.5 256C300.5 255.724 300.276 255.5 300 255.5V256.5ZM295 256.5H300V255.5H295V256.5Z" fill="#CCCDCD"/>
<path d="M295 295.5H294.5V296.5H295V295.5ZM300 296.5C300.276 296.5 300.5 296.276 300.5 296C300.5 295.724 300.276 295.5 300 295.5V296.5ZM295 296.5H300V295.5H295V296.5Z" fill="#CCCDCD"/>
<path d="M295 280.5H294.5V281.5H295V280.5ZM300 281.5C300.276 281.5 300.5 281.276 300.5 281C300.5 280.724 300.276 280.5 300 280.5V281.5ZM295 281.5H300V280.5H295V281.5Z" fill="#CCCDCD"/>
<path d="M295 265.5H294.5V266.5H295V265.5ZM300 266.5C300.276 266.5 300.5 266.276 300.5 266C300.5 265.724 300.276 265.5 300 265.5V266.5ZM295 266.5H300V265.5H295V266.5Z" fill="#CCCDCD"/>
<path d="M295 250.5H294.5V251.5H295V250.5ZM300 251.5C300.276 251.5 300.5 251.276 300.5 251C300.5 250.724 300.276 250.5 300 250.5V251.5ZM295 251.5H300V250.5H295V251.5Z" fill="#CCCDCD"/>
<path d="M295 290.5H294.5V291.5H295V290.5ZM305 291.5C305.276 291.5 305.5 291.276 305.5 291C305.5 290.724 305.276 290.5 305 290.5V291.5ZM295 291.5H305V290.5H295V291.5Z" fill="#CCCDCD"/>
<path d="M295 275.5H294.5V276.5H295V275.5ZM305 276.5C305.276 276.5 305.5 276.276 305.5 276C305.5 275.724 305.276 275.5 305 275.5V276.5ZM295 276.5H305V275.5H295V276.5Z" fill="#CCCDCD"/>
<path d="M295 260.5H294.5V261.5H295V260.5ZM305 261.5C305.276 261.5 305.5 261.276 305.5 261C305.5 260.724 305.276 260.5 305 260.5V261.5ZM295 261.5H305V260.5H295V261.5Z" fill="#CCCDCD"/>
<path d="M295 245.5H294.5V246.5H295V245.5ZM305 246.5C305.276 246.5 305.5 246.276 305.5 246C305.5 245.724 305.276 245.5 305 245.5V246.5ZM295 246.5H305V245.5H295V246.5Z" fill="#CCCDCD"/>
</g>
<path d="M295 241H346H295ZM346.5 308C346.5 312.694 342.694 316.5 338 316.5H303C298.306 316.5 294.5 312.694 294.5 308H295.5C295.5 312.142 298.858 315.5 303 315.5H338C342.142 315.5 345.5 312.142 345.5 308H346.5ZM303 316.5C298.306 316.5 294.5 312.694 294.5 308V241H295.5V308C295.5 312.142 298.858 315.5 303 315.5V316.5ZM346.5 241V308C346.5 312.694 342.694 316.5 338 316.5V315.5C342.142 315.5 345.5 312.142 345.5 308V241H346.5Z" fill="#CCCDCD"/>
<g clip-path="url(#clip4_659_4641)">
<path d="M384 241H435V300C435 307.542 435 311.314 432.657 313.657C430.314 316 426.542 316 419 316H400C392.458 316 388.686 316 386.343 313.657C384 311.314 384 307.542 384 300V241Z" fill="url(#paint2_linear_659_4641)"/>
<path opacity="0.5" d="M435 261.5C435 262.329 423.583 263 409.5 263C395.417 263 384 262.328 384 261.5C384 260.671 395.417 260 409.5 260C423.583 260 435 260.672 435 261.5Z" fill="black"/>
<path opacity="0.5" d="M435 260.5C435 261.329 423.583 262 409.5 262C395.417 262 384 261.328 384 260.5C384 259.671 395.417 259 409.5 259C423.583 259 435 259.672 435 260.5Z" fill="#0ABAB5"/>
<path d="M384 305.5H383.5V306.5H384V305.5ZM394 306.5C394.276 306.5 394.5 306.276 394.5 306C394.5 305.724 394.276 305.5 394 305.5V306.5ZM384 306.5H394V305.5H384V306.5Z" fill="#CCCDCD"/>
<path d="M384 300.5H383.5V301.5H384V300.5ZM389 301.5C389.276 301.5 389.5 301.276 389.5 301C389.5 300.724 389.276 300.5 389 300.5V301.5ZM384 301.5H389V300.5H384V301.5Z" fill="#CCCDCD"/>
<path d="M384 285.5H383.5V286.5H384V285.5ZM389 286.5C389.276 286.5 389.5 286.276 389.5 286C389.5 285.724 389.276 285.5 389 285.5V286.5ZM384 286.5H389V285.5H384V286.5Z" fill="#CCCDCD"/>
<path d="M384 270.5H383.5V271.5H384V270.5ZM389 271.5C389.276 271.5 389.5 271.276 389.5 271C389.5 270.724 389.276 270.5 389 270.5V271.5ZM384 271.5H389V270.5H384V271.5Z" fill="#CCCDCD"/>
<path d="M384 255.5H383.5V256.5H384V255.5ZM389 256.5C389.276 256.5 389.5 256.276 389.5 256C389.5 255.724 389.276 255.5 389 255.5V256.5ZM384 256.5H389V255.5H384V256.5Z" fill="#CCCDCD"/>
<path d="M384 295.5H383.5V296.5H384V295.5ZM389 296.5C389.276 296.5 389.5 296.276 389.5 296C389.5 295.724 389.276 295.5 389 295.5V296.5ZM384 296.5H389V295.5H384V296.5Z" fill="#CCCDCD"/>
<path d="M384 280.5H383.5V281.5H384V280.5ZM389 281.5C389.276 281.5 389.5 281.276 389.5 281C389.5 280.724 389.276 280.5 389 280.5V281.5ZM384 281.5H389V280.5H384V281.5Z" fill="#CCCDCD"/>
<path d="M384 265.5H383.5V266.5H384V265.5ZM389 266.5C389.276 266.5 389.5 266.276 389.5 266C389.5 265.724 389.276 265.5 389 265.5V266.5ZM384 266.5H389V265.5H384V266.5Z" fill="#CCCDCD"/>
<path d="M384 250.5H383.5V251.5H384V250.5ZM389 251.5C389.276 251.5 389.5 251.276 389.5 251C389.5 250.724 389.276 250.5 389 250.5V251.5ZM384 251.5H389V250.5H384V251.5Z" fill="#CCCDCD"/>
<path d="M384 290.5H383.5V291.5H384V290.5ZM394 291.5C394.276 291.5 394.5 291.276 394.5 291C394.5 290.724 394.276 290.5 394 290.5V291.5ZM384 291.5H394V290.5H384V291.5Z" fill="#CCCDCD"/>
<path d="M384 275.5H383.5V276.5H384V275.5ZM394 276.5C394.276 276.5 394.5 276.276 394.5 276C394.5 275.724 394.276 275.5 394 275.5V276.5ZM384 276.5H394V275.5H384V276.5Z" fill="#CCCDCD"/>
<path d="M384 260.5H383.5V261.5H384V260.5ZM394 261.5C394.276 261.5 394.5 261.276 394.5 261C394.5 260.724 394.276 260.5 394 260.5V261.5ZM384 261.5H394V260.5H384V261.5Z" fill="#CCCDCD"/>
<path d="M384 245.5H383.5V246.5H384V245.5ZM394 246.5C394.276 246.5 394.5 246.276 394.5 246C394.5 245.724 394.276 245.5 394 245.5V246.5ZM384 246.5H394V245.5H384V246.5Z" fill="#CCCDCD"/>
</g>
<path d="M384 241H435H384ZM435.5 308C435.5 312.694 431.694 316.5 427 316.5H392C387.306 316.5 383.5 312.694 383.5 308H384.5C384.5 312.142 387.858 315.5 392 315.5H427C431.142 315.5 434.5 312.142 434.5 308H435.5ZM392 316.5C387.306 316.5 383.5 312.694 383.5 308V241H384.5V308C384.5 312.142 387.858 315.5 392 315.5V316.5ZM435.5 241V308C435.5 312.694 431.694 316.5 427 316.5V315.5C431.142 315.5 434.5 312.142 434.5 308V241H435.5Z" fill="#CCCDCD"/>
<g clip-path="url(#clip5_659_4641)">
<path d="M473 241H524V300C524 307.542 524 311.314 521.657 313.657C519.314 316 515.542 316 508 316H489C481.458 316 477.686 316 475.343 313.657C473 311.314 473 307.542 473 300V241Z" fill="url(#paint3_linear_659_4641)"/>
<path opacity="0.5" d="M525 246.5C525 247.329 513.583 248 499.5 248C485.417 248 474 247.328 474 246.5C474 245.671 485.417 245 499.5 245C513.583 245 525 245.672 525 246.5Z" fill="black"/>
<path opacity="0.5" d="M525 245.5C525 246.329 513.583 247 499.5 247C485.417 247 474 246.328 474 245.5C474 244.671 485.417 244 499.5 244C513.583 244 525 244.672 525 245.5Z" fill="#0ABAB5"/>
<path d="M473 305.5H472.5V306.5H473V305.5ZM483 306.5C483.276 306.5 483.5 306.276 483.5 306C483.5 305.724 483.276 305.5 483 305.5V306.5ZM473 306.5H483V305.5H473V306.5Z" fill="#CCCDCD"/>
<path d="M473 300.5H472.5V301.5H473V300.5ZM478 301.5C478.276 301.5 478.5 301.276 478.5 301C478.5 300.724 478.276 300.5 478 300.5V301.5ZM473 301.5H478V300.5H473V301.5Z" fill="#CCCDCD"/>
<path d="M473 285.5H472.5V286.5H473V285.5ZM478 286.5C478.276 286.5 478.5 286.276 478.5 286C478.5 285.724 478.276 285.5 478 285.5V286.5ZM473 286.5H478V285.5H473V286.5Z" fill="#CCCDCD"/>
<path d="M473 270.5H472.5V271.5H473V270.5ZM478 271.5C478.276 271.5 478.5 271.276 478.5 271C478.5 270.724 478.276 270.5 478 270.5V271.5ZM473 271.5H478V270.5H473V271.5Z" fill="#CCCDCD"/>
<path d="M473 255.5H472.5V256.5H473V255.5ZM478 256.5C478.276 256.5 478.5 256.276 478.5 256C478.5 255.724 478.276 255.5 478 255.5V256.5ZM473 256.5H478V255.5H473V256.5Z" fill="#CCCDCD"/>
<path d="M473 295.5H472.5V296.5H473V295.5ZM478 296.5C478.276 296.5 478.5 296.276 478.5 296C478.5 295.724 478.276 295.5 478 295.5V296.5ZM473 296.5H478V295.5H473V296.5Z" fill="#CCCDCD"/>
<path d="M473 280.5H472.5V281.5H473V280.5ZM478 281.5C478.276 281.5 478.5 281.276 478.5 281C478.5 280.724 478.276 280.5 478 280.5V281.5ZM473 281.5H478V280.5H473V281.5Z" fill="#CCCDCD"/>
<path d="M473 265.5H472.5V266.5H473V265.5ZM478 266.5C478.276 266.5 478.5 266.276 478.5 266C478.5 265.724 478.276 265.5 478 265.5V266.5ZM473 266.5H478V265.5H473V266.5Z" fill="#CCCDCD"/>
<path d="M473 250.5H472.5V251.5H473V250.5ZM478 251.5C478.276 251.5 478.5 251.276 478.5 251C478.5 250.724 478.276 250.5 478 250.5V251.5ZM473 251.5H478V250.5H473V251.5Z" fill="#CCCDCD"/>
<path d="M473 290.5H472.5V291.5H473V290.5ZM483 291.5C483.276 291.5 483.5 291.276 483.5 291C483.5 290.724 483.276 290.5 483 290.5V291.5ZM473 291.5H483V290.5H473V291.5Z" fill="#CCCDCD"/>
<path d="M473 275.5H472.5V276.5H473V275.5ZM483 276.5C483.276 276.5 483.5 276.276 483.5 276C483.5 275.724 483.276 275.5 483 275.5V276.5ZM473 276.5H483V275.5H473V276.5Z" fill="#CCCDCD"/>
<path d="M473 260.5H472.5V261.5H473V260.5ZM483 261.5C483.276 261.5 483.5 261.276 483.5 261C483.5 260.724 483.276 260.5 483 260.5V261.5ZM473 261.5H483V260.5H473V261.5Z" fill="#CCCDCD"/>
<path d="M473 245.5H472.5V246.5H473V245.5ZM483 246.5C483.276 246.5 483.5 246.276 483.5 246C483.5 245.724 483.276 245.5 483 245.5V246.5ZM473 246.5H483V245.5H473V246.5Z" fill="#CCCDCD"/>
</g>
<path d="M473 241H524H473ZM524.5 308C524.5 312.694 520.694 316.5 516 316.5H481C476.306 316.5 472.5 312.694 472.5 308H473.5C473.5 312.142 476.858 315.5 481 315.5H516C520.142 315.5 523.5 312.142 523.5 308H524.5ZM481 316.5C476.306 316.5 472.5 312.694 472.5 308V241H473.5V308C473.5 312.142 476.858 315.5 481 315.5V316.5ZM524.5 241V308C524.5 312.694 520.694 316.5 516 316.5V315.5C520.142 315.5 523.5 312.142 523.5 308V241H524.5Z" fill="#CCCDCD"/>
<path d="M54.5 196.997L54.4974 197.497L55.4973 197.503L55.5 197.003L54.5 196.997ZM56.537 1.00284C56.5385 0.726704 56.3158 0.501665 56.0397 0.500204C55.7635 0.498743 55.5385 0.721413 55.537 0.997552L56.537 1.00284ZM55.5078 195.518C55.5093 195.242 55.2866 195.017 55.0105 195.015C54.7344 195.014 54.5093 195.236 54.5079 195.513L55.5078 195.518ZM54.5236 192.543C54.5221 192.819 54.7448 193.044 55.0209 193.045C55.2971 193.047 55.5221 192.824 55.5236 192.548L54.5236 192.543ZM55.5393 189.578C55.5407 189.302 55.3181 189.077 55.0419 189.076C54.7658 189.074 54.5407 189.297 54.5393 189.573L55.5393 189.578ZM54.555 186.603C54.5535 186.88 54.7762 187.105 55.0523 187.106C55.3285 187.108 55.5535 186.885 55.555 186.609L54.555 186.603ZM55.5707 183.639C55.5722 183.363 55.3495 183.138 55.0734 183.136C54.7972 183.135 54.5722 183.358 54.5707 183.634L55.5707 183.639ZM54.5864 180.664C54.585 180.94 54.8076 181.165 55.0838 181.167C55.3599 181.168 55.585 180.945 55.5864 180.669L54.5864 180.664ZM55.6021 177.7C55.6036 177.423 55.3809 177.198 55.1048 177.197C54.8286 177.196 54.6036 177.418 54.6021 177.694L55.6021 177.7ZM54.6179 174.725C54.6164 175.001 54.8391 175.226 55.1152 175.227C55.3913 175.229 55.6164 175.006 55.6178 174.73L54.6179 174.725ZM55.6336 171.76C55.635 171.484 55.4123 171.259 55.1362 171.258C54.8601 171.256 54.635 171.479 54.6336 171.755L55.6336 171.76ZM54.6493 168.785C54.6478 169.061 54.8705 169.286 55.1466 169.288C55.4228 169.289 55.6478 169.067 55.6493 168.791L54.6493 168.785ZM55.665 165.821C55.6664 165.545 55.4438 165.32 55.1676 165.318C54.8915 165.317 54.6665 165.539 54.665 165.816L55.665 165.821ZM54.6807 162.846C54.6792 163.122 54.9019 163.347 55.1781 163.349C55.4542 163.35 55.6792 163.127 55.6807 162.851L54.6807 162.846ZM55.6964 159.881C55.6979 159.605 55.4752 159.38 55.1991 159.379C54.9229 159.377 54.6979 159.6 54.6964 159.876L55.6964 159.881ZM54.7121 156.906C54.7107 157.183 54.9333 157.408 55.2095 157.409C55.4856 157.411 55.7107 157.188 55.7121 156.912L54.7121 156.906ZM55.7278 153.942C55.7293 153.666 55.5066 153.441 55.2305 153.439C54.9543 153.438 54.7293 153.661 54.7278 153.937L55.7278 153.942ZM54.7436 150.967C54.7421 151.243 54.9648 151.468 55.2409 151.47C55.517 151.471 55.7421 151.249 55.7435 150.972L54.7436 150.967ZM55.7593 148.003C55.7607 147.727 55.538 147.502 55.2619 147.5C54.9858 147.499 54.7607 147.721 54.7593 147.997L55.7593 148.003ZM54.775 145.028C54.7735 145.304 54.9962 145.529 55.2723 145.53C55.5485 145.532 55.7735 145.309 55.775 145.033L54.775 145.028ZM55.7907 142.063C55.7921 141.787 55.5695 141.562 55.2933 141.561C55.0172 141.559 54.7922 141.782 54.7907 142.058L55.7907 142.063ZM54.8064 139.088C54.8049 139.364 55.0276 139.59 55.3038 139.591C55.5799 139.592 55.8049 139.37 55.8064 139.094L54.8064 139.088ZM55.8221 136.124C55.8236 135.848 55.6009 135.623 55.3248 135.621C55.0486 135.62 54.8236 135.843 54.8221 136.119L55.8221 136.124ZM54.8378 133.149C54.8364 133.425 55.059 133.65 55.3352 133.652C55.6113 133.653 55.8364 133.43 55.8378 133.154L54.8378 133.149ZM55.8535 130.185C55.855 129.908 55.6323 129.683 55.3562 129.682C55.08 129.68 54.855 129.903 54.8535 130.179L55.8535 130.185ZM54.8693 127.21C54.8678 127.486 55.0905 127.711 55.3666 127.712C55.6427 127.714 55.8678 127.491 55.8692 127.215L54.8693 127.21ZM55.885 124.245C55.8864 123.969 55.6637 123.744 55.3876 123.743C55.1115 123.741 54.8864 123.964 54.885 124.24L55.885 124.245ZM54.9007 121.27C54.8992 121.546 55.1219 121.771 55.398 121.773C55.6742 121.774 55.8992 121.552 55.9007 121.275L54.9007 121.27ZM55.9164 118.306C55.9178 118.03 55.6952 117.805 55.419 117.803C55.1429 117.802 54.9179 118.024 54.9164 118.3L55.9164 118.306ZM54.9321 115.331C54.9306 115.607 55.1533 115.832 55.4295 115.833C55.7056 115.835 55.9306 115.612 55.9321 115.336L54.9321 115.331ZM55.9478 112.366C55.9493 112.09 55.7266 111.865 55.4505 111.864C55.1743 111.862 54.9493 112.085 54.9478 112.361L55.9478 112.366ZM54.9635 109.391C54.9621 109.668 55.1847 109.893 55.4609 109.894C55.737 109.896 55.9621 109.673 55.9635 109.397L54.9635 109.391ZM55.9792 106.427C55.9807 106.151 55.758 105.926 55.4819 105.924C55.2057 105.923 54.9807 106.146 54.9792 106.422L55.9792 106.427ZM54.995 103.452C54.9935 103.728 55.2162 103.953 55.4923 103.955C55.7684 103.956 55.9935 103.733 55.9949 103.457L54.995 103.452ZM56.0107 100.488C56.0121 100.211 55.7894 99.9864 55.5133 99.985C55.2372 99.9835 55.0121 100.206 55.0107 100.482L56.0107 100.488ZM55.0264 97.5126C55.0249 97.7888 55.2476 98.0138 55.5237 98.0153C55.7999 98.0167 56.0249 97.7941 56.0264 97.5179L55.0264 97.5126ZM56.0421 94.5482C56.0435 94.2721 55.8209 94.0471 55.5447 94.0456C55.2686 94.0441 55.0436 94.2668 55.0421 94.5429L56.0421 94.5482ZM55.0578 91.5732C55.0563 91.8494 55.279 92.0744 55.5552 92.0759C55.8313 92.0773 56.0563 91.8547 56.0578 91.5785L55.0578 91.5732ZM56.0735 88.6088C56.075 88.3327 55.8523 88.1077 55.5762 88.1062C55.3 88.1047 55.075 88.3274 55.0735 88.6036L56.0735 88.6088ZM55.0892 85.6339C55.0878 85.91 55.3104 86.135 55.5866 86.1365C55.8627 86.138 56.0878 85.9153 56.0892 85.6392L55.0892 85.6339ZM56.1049 82.6695C56.1064 82.3933 55.8837 82.1683 55.6076 82.1668C55.3314 82.1654 55.1064 82.388 55.1049 82.6642L56.1049 82.6695ZM55.1207 79.6945C55.1192 79.9706 55.3419 80.1956 55.618 80.1971C55.8941 80.1986 56.1192 79.9759 56.1206 79.6998L55.1207 79.6945ZM56.1364 76.7301C56.1378 76.4539 55.9151 76.2289 55.639 76.2274C55.3629 76.226 55.1378 76.4486 55.1364 76.7248L56.1364 76.7301ZM55.1521 73.7551C55.1506 74.0312 55.3733 74.2563 55.6494 74.2577C55.9256 74.2592 56.1506 74.0365 56.1521 73.7604L55.1521 73.7551ZM56.1678 70.7907C56.1692 70.5146 55.9466 70.2895 55.6704 70.2881C55.3943 70.2866 55.1693 70.5093 55.1678 70.7854L56.1678 70.7907ZM55.1835 67.8157C55.182 68.0918 55.4047 68.3169 55.6809 68.3183C55.957 68.3198 56.182 68.0971 56.1835 67.821L55.1835 67.8157ZM56.1992 64.8513C56.2007 64.5752 55.978 64.3501 55.7019 64.3487C55.4257 64.3472 55.2007 64.5699 55.1992 64.846L56.1992 64.8513ZM55.2149 61.8763C55.2135 62.1524 55.4361 62.3775 55.7123 62.3789C55.9884 62.3804 56.2135 62.1577 56.2149 61.8816L55.2149 61.8763ZM56.2306 58.9119C56.2321 58.6358 56.0094 58.4107 55.7333 58.4093C55.4571 58.4078 55.2321 58.6305 55.2306 58.9066L56.2306 58.9119ZM55.2464 55.9369C55.2449 56.213 55.4676 56.4381 55.7437 56.4395C56.0198 56.441 56.2449 56.2183 56.2463 55.9422L55.2464 55.9369ZM56.2621 52.9725C56.2635 52.6964 56.0408 52.4713 55.7647 52.4699C55.4886 52.4684 55.2635 52.6911 55.2621 52.9672L56.2621 52.9725ZM55.2778 49.9975C55.2763 50.2736 55.499 50.4987 55.7751 50.5001C56.0513 50.5016 56.2763 50.2789 56.2778 50.0028L55.2778 49.9975ZM56.2935 47.0331C56.2949 46.757 56.0723 46.5319 55.7961 46.5305C55.52 46.529 55.295 46.7517 55.2935 47.0278L56.2935 47.0331ZM55.3092 44.0581C55.3077 44.3342 55.5304 44.5593 55.8066 44.5607C56.0827 44.5622 56.3077 44.3395 56.3092 44.0634L55.3092 44.0581ZM56.3249 41.0937C56.3264 40.8176 56.1037 40.5925 55.8276 40.5911C55.5514 40.5896 55.3264 40.8123 55.3249 41.0884L56.3249 41.0937ZM55.3406 38.1187C55.3392 38.3948 55.5618 38.6199 55.838 38.6213C56.1141 38.6228 56.3392 38.4001 56.3406 38.124L55.3406 38.1187ZM56.3563 35.1543C56.3578 34.8782 56.1351 34.6531 55.859 34.6517C55.5828 34.6502 55.3578 34.8729 55.3563 35.149L56.3563 35.1543ZM55.3721 32.1793C55.3706 32.4554 55.5933 32.6805 55.8694 32.6819C56.1455 32.6834 56.3706 32.4607 56.372 32.1846L55.3721 32.1793ZM56.3878 29.2149C56.3892 28.9388 56.1665 28.7137 55.8904 28.7123C55.6143 28.7108 55.3892 28.9335 55.3878 29.2096L56.3878 29.2149ZM55.4035 26.2399C55.402 26.516 55.6247 26.7411 55.9008 26.7425C56.177 26.744 56.402 26.5213 56.4035 26.2452L55.4035 26.2399ZM56.4192 23.2755C56.4206 22.9994 56.198 22.7743 55.9218 22.7729C55.6457 22.7714 55.4207 22.9941 55.4192 23.2702L56.4192 23.2755ZM55.4349 20.3005C55.4334 20.5766 55.6561 20.8017 55.9323 20.8031C56.2084 20.8046 56.4334 20.5819 56.4349 20.3058L55.4349 20.3005ZM56.4506 17.3361C56.4521 17.06 56.2294 16.8349 55.9533 16.8335C55.6771 16.832 55.4521 17.0547 55.4506 17.3308L56.4506 17.3361ZM55.4663 14.3611C55.4649 14.6372 55.6875 14.8623 55.9637 14.8637C56.2398 14.8652 56.4649 14.6425 56.4663 14.3664L55.4663 14.3611ZM56.482 11.3967C56.4835 11.1206 56.2608 10.8955 55.9847 10.8941C55.7085 10.8926 55.4835 11.1153 55.482 11.3914L56.482 11.3967ZM55.4978 8.4217C55.4963 8.69784 55.719 8.92288 55.9951 8.92434C56.2712 8.9258 56.4963 8.70313 56.4977 8.42699L55.4978 8.4217ZM56.5135 5.4573C56.5149 5.18116 56.2923 4.95612 56.0161 4.95466C55.74 4.9532 55.5149 5.17587 55.5135 5.45201L56.5135 5.4573ZM55.5292 2.4823C55.5277 2.75844 55.7504 2.98348 56.0265 2.98494C56.3027 2.9864 56.5277 2.76373 56.5292 2.48759L55.5292 2.4823ZM55.5 197.003L55.5078 195.518L54.5079 195.513L54.5 196.997L55.5 197.003ZM55.5236 192.548L55.5393 189.578L54.5393 189.573L54.5236 192.543L55.5236 192.548ZM55.555 186.609L55.5707 183.639L54.5707 183.634L54.555 186.603L55.555 186.609ZM55.5864 180.669L55.6021 177.7L54.6021 177.694L54.5864 180.664L55.5864 180.669ZM55.6178 174.73L55.6336 171.76L54.6336 171.755L54.6179 174.725L55.6178 174.73ZM55.6493 168.791L55.665 165.821L54.665 165.816L54.6493 168.785L55.6493 168.791ZM55.6807 162.851L55.6964 159.881L54.6964 159.876L54.6807 162.846L55.6807 162.851ZM55.7121 156.912L55.7278 153.942L54.7278 153.937L54.7121 156.906L55.7121 156.912ZM55.7435 150.972L55.7593 148.003L54.7593 147.997L54.7436 150.967L55.7435 150.972ZM55.775 145.033L55.7907 142.063L54.7907 142.058L54.775 145.028L55.775 145.033ZM55.8064 139.094L55.8221 136.124L54.8221 136.119L54.8064 139.088L55.8064 139.094ZM55.8378 133.154L55.8535 130.185L54.8535 130.179L54.8378 133.149L55.8378 133.154ZM55.8692 127.215L55.885 124.245L54.885 124.24L54.8693 127.21L55.8692 127.215ZM55.9007 121.275L55.9164 118.306L54.9164 118.3L54.9007 121.27L55.9007 121.275ZM55.9321 115.336L55.9478 112.366L54.9478 112.361L54.9321 115.331L55.9321 115.336ZM55.9635 109.397L55.9792 106.427L54.9792 106.422L54.9635 109.391L55.9635 109.397ZM55.9949 103.457L56.0107 100.488L55.0107 100.482L54.995 103.452L55.9949 103.457ZM56.0264 97.5179L56.0421 94.5482L55.0421 94.5429L55.0264 97.5126L56.0264 97.5179ZM56.0578 91.5785L56.0735 88.6088L55.0735 88.6036L55.0578 91.5732L56.0578 91.5785ZM56.0892 85.6392L56.1049 82.6695L55.1049 82.6642L55.0892 85.6339L56.0892 85.6392ZM56.1206 79.6998L56.1364 76.7301L55.1364 76.7248L55.1207 79.6945L56.1206 79.6998ZM56.1521 73.7604L56.1678 70.7907L55.1678 70.7854L55.1521 73.7551L56.1521 73.7604ZM56.1835 67.821L56.1992 64.8513L55.1992 64.846L55.1835 67.8157L56.1835 67.821ZM56.2149 61.8816L56.2306 58.9119L55.2306 58.9066L55.2149 61.8763L56.2149 61.8816ZM56.2463 55.9422L56.2621 52.9725L55.2621 52.9672L55.2464 55.9369L56.2463 55.9422ZM56.2778 50.0028L56.2935 47.0331L55.2935 47.0278L55.2778 49.9975L56.2778 50.0028ZM56.3092 44.0634L56.3249 41.0937L55.3249 41.0884L55.3092 44.0581L56.3092 44.0634ZM56.3406 38.124L56.3563 35.1543L55.3563 35.149L55.3406 38.1187L56.3406 38.124ZM56.372 32.1846L56.3878 29.2149L55.3878 29.2096L55.3721 32.1793L56.372 32.1846ZM56.4035 26.2452L56.4192 23.2755L55.4192 23.2702L55.4035 26.2399L56.4035 26.2452ZM56.4349 20.3058L56.4506 17.3361L55.4506 17.3308L55.4349 20.3005L56.4349 20.3058ZM56.4663 14.3664L56.482 11.3967L55.482 11.3914L55.4663 14.3611L56.4663 14.3664ZM56.4977 8.42699L56.5135 5.4573L55.5135 5.45201L55.4978 8.4217L56.4977 8.42699ZM56.5292 2.48759L56.537 1.00284L55.537 0.997552L55.5292 2.4823L56.5292 2.48759Z" fill="white" fill-opacity="0.15"/>
<path d="M232.5 196.997L232.497 197.497L233.497 197.503L233.5 197.003L232.5 196.997ZM234.537 1.00284C234.538 0.726704 234.316 0.501665 234.04 0.500204C233.764 0.498743 233.539 0.721413 233.537 0.997552L234.537 1.00284ZM233.508 195.518C233.509 195.242 233.287 195.017 233.011 195.015C232.734 195.014 232.509 195.236 232.508 195.513L233.508 195.518ZM232.524 192.543C232.522 192.819 232.745 193.044 233.021 193.045C233.297 193.047 233.522 192.824 233.524 192.548L232.524 192.543ZM233.539 189.578C233.541 189.302 233.318 189.077 233.042 189.076C232.766 189.074 232.541 189.297 232.539 189.573L233.539 189.578ZM232.555 186.603C232.554 186.88 232.776 187.105 233.052 187.106C233.328 187.108 233.554 186.885 233.555 186.609L232.555 186.603ZM233.571 183.639C233.572 183.363 233.349 183.138 233.073 183.136C232.797 183.135 232.572 183.358 232.571 183.634L233.571 183.639ZM232.586 180.664C232.585 180.94 232.808 181.165 233.084 181.167C233.36 181.168 233.585 180.945 233.586 180.669L232.586 180.664ZM233.602 177.7C233.604 177.423 233.381 177.198 233.105 177.197C232.829 177.196 232.604 177.418 232.602 177.694L233.602 177.7ZM232.618 174.725C232.616 175.001 232.839 175.226 233.115 175.227C233.391 175.229 233.616 175.006 233.618 174.73L232.618 174.725ZM233.634 171.76C233.635 171.484 233.412 171.259 233.136 171.258C232.86 171.256 232.635 171.479 232.634 171.755L233.634 171.76ZM232.649 168.785C232.648 169.061 232.87 169.286 233.147 169.288C233.423 169.289 233.648 169.067 233.649 168.791L232.649 168.785ZM233.665 165.821C233.666 165.545 233.444 165.32 233.168 165.318C232.891 165.317 232.666 165.539 232.665 165.816L233.665 165.821ZM232.681 162.846C232.679 163.122 232.902 163.347 233.178 163.349C233.454 163.35 233.679 163.127 233.681 162.851L232.681 162.846ZM233.696 159.881C233.698 159.605 233.475 159.38 233.199 159.379C232.923 159.377 232.698 159.6 232.696 159.876L233.696 159.881ZM232.712 156.906C232.711 157.183 232.933 157.408 233.209 157.409C233.486 157.411 233.711 157.188 233.712 156.912L232.712 156.906ZM233.728 153.942C233.729 153.666 233.507 153.441 233.23 153.439C232.954 153.438 232.729 153.661 232.728 153.937L233.728 153.942ZM232.744 150.967C232.742 151.243 232.965 151.468 233.241 151.47C233.517 151.471 233.742 151.249 233.744 150.972L232.744 150.967ZM233.759 148.003C233.761 147.727 233.538 147.502 233.262 147.5C232.986 147.499 232.761 147.721 232.759 147.997L233.759 148.003ZM232.775 145.028C232.774 145.304 232.996 145.529 233.272 145.53C233.548 145.532 233.774 145.309 233.775 145.033L232.775 145.028ZM233.791 142.063C233.792 141.787 233.569 141.562 233.293 141.561C233.017 141.559 232.792 141.782 232.791 142.058L233.791 142.063ZM232.806 139.088C232.805 139.364 233.028 139.59 233.304 139.591C233.58 139.592 233.805 139.37 233.806 139.094L232.806 139.088ZM233.822 136.124C233.824 135.848 233.601 135.623 233.325 135.621C233.049 135.62 232.824 135.843 232.822 136.119L233.822 136.124ZM232.838 133.149C232.836 133.425 233.059 133.65 233.335 133.652C233.611 133.653 233.836 133.43 233.838 133.154L232.838 133.149ZM233.854 130.185C233.855 129.908 233.632 129.683 233.356 129.682C233.08 129.68 232.855 129.903 232.854 130.179L233.854 130.185ZM232.869 127.21C232.868 127.486 233.09 127.711 233.367 127.712C233.643 127.714 233.868 127.491 233.869 127.215L232.869 127.21ZM233.885 124.245C233.886 123.969 233.664 123.744 233.388 123.743C233.111 123.741 232.886 123.964 232.885 124.24L233.885 124.245ZM232.901 121.27C232.899 121.546 233.122 121.771 233.398 121.773C233.674 121.774 233.899 121.552 233.901 121.275L232.901 121.27ZM233.916 118.306C233.918 118.03 233.695 117.805 233.419 117.803C233.143 117.802 232.918 118.024 232.916 118.3L233.916 118.306ZM232.932 115.331C232.931 115.607 233.153 115.832 233.429 115.833C233.706 115.835 233.931 115.612 233.932 115.336L232.932 115.331ZM233.948 112.366C233.949 112.09 233.727 111.865 233.45 111.864C233.174 111.862 232.949 112.085 232.948 112.361L233.948 112.366ZM232.964 109.391C232.962 109.668 233.185 109.893 233.461 109.894C233.737 109.896 233.962 109.673 233.964 109.397L232.964 109.391ZM233.979 106.427C233.981 106.151 233.758 105.926 233.482 105.924C233.206 105.923 232.981 106.146 232.979 106.422L233.979 106.427ZM232.995 103.452C232.993 103.728 233.216 103.953 233.492 103.955C233.768 103.956 233.993 103.733 233.995 103.457L232.995 103.452ZM234.011 100.488C234.012 100.211 233.789 99.9864 233.513 99.985C233.237 99.9835 233.012 100.206 233.011 100.482L234.011 100.488ZM233.026 97.5126C233.025 97.7888 233.248 98.0138 233.524 98.0153C233.8 98.0167 234.025 97.7941 234.026 97.5179L233.026 97.5126ZM234.042 94.5482C234.044 94.2721 233.821 94.0471 233.545 94.0456C233.269 94.0441 233.044 94.2668 233.042 94.5429L234.042 94.5482ZM233.058 91.5732C233.056 91.8494 233.279 92.0744 233.555 92.0759C233.831 92.0773 234.056 91.8547 234.058 91.5785L233.058 91.5732ZM234.074 88.6088C234.075 88.3327 233.852 88.1077 233.576 88.1062C233.3 88.1047 233.075 88.3274 233.074 88.6036L234.074 88.6088ZM233.089 85.6339C233.088 85.91 233.31 86.135 233.587 86.1365C233.863 86.138 234.088 85.9153 234.089 85.6392L233.089 85.6339ZM234.105 82.6695C234.106 82.3933 233.884 82.1683 233.608 82.1668C233.331 82.1654 233.106 82.388 233.105 82.6642L234.105 82.6695ZM233.121 79.6945C233.119 79.9706 233.342 80.1956 233.618 80.1971C233.894 80.1986 234.119 79.9759 234.121 79.6998L233.121 79.6945ZM234.136 76.7301C234.138 76.4539 233.915 76.2289 233.639 76.2274C233.363 76.226 233.138 76.4486 233.136 76.7248L234.136 76.7301ZM233.152 73.7551C233.151 74.0312 233.373 74.2563 233.649 74.2577C233.926 74.2592 234.151 74.0365 234.152 73.7604L233.152 73.7551ZM234.168 70.7907C234.169 70.5146 233.947 70.2895 233.67 70.2881C233.394 70.2866 233.169 70.5093 233.168 70.7854L234.168 70.7907ZM233.184 67.8157C233.182 68.0918 233.405 68.3169 233.681 68.3183C233.957 68.3198 234.182 68.0971 234.183 67.821L233.184 67.8157ZM234.199 64.8513C234.201 64.5752 233.978 64.3501 233.702 64.3487C233.426 64.3472 233.201 64.5699 233.199 64.846L234.199 64.8513ZM233.215 61.8763C233.213 62.1524 233.436 62.3775 233.712 62.3789C233.988 62.3804 234.213 62.1577 234.215 61.8816L233.215 61.8763ZM234.231 58.9119C234.232 58.6358 234.009 58.4107 233.733 58.4093C233.457 58.4078 233.232 58.6305 233.231 58.9066L234.231 58.9119ZM233.246 55.9369C233.245 56.213 233.468 56.4381 233.744 56.4395C234.02 56.441 234.245 56.2183 234.246 55.9422L233.246 55.9369ZM234.262 52.9725C234.264 52.6964 234.041 52.4713 233.765 52.4699C233.489 52.4684 233.264 52.6911 233.262 52.9672L234.262 52.9725ZM233.278 49.9975C233.276 50.2736 233.499 50.4987 233.775 50.5001C234.051 50.5016 234.276 50.2789 234.278 50.0028L233.278 49.9975ZM234.293 47.0331C234.295 46.757 234.072 46.5319 233.796 46.5305C233.52 46.529 233.295 46.7517 233.293 47.0278L234.293 47.0331ZM233.309 44.0581C233.308 44.3342 233.53 44.5593 233.807 44.5607C234.083 44.5622 234.308 44.3395 234.309 44.0634L233.309 44.0581ZM234.325 41.0937C234.326 40.8176 234.104 40.5925 233.828 40.5911C233.551 40.5896 233.326 40.8123 233.325 41.0884L234.325 41.0937ZM233.341 38.1187C233.339 38.3948 233.562 38.6199 233.838 38.6213C234.114 38.6228 234.339 38.4001 234.341 38.124L233.341 38.1187ZM234.356 35.1543C234.358 34.8782 234.135 34.6531 233.859 34.6517C233.583 34.6502 233.358 34.8729 233.356 35.149L234.356 35.1543ZM233.372 32.1793C233.371 32.4554 233.593 32.6805 233.869 32.6819C234.146 32.6834 234.371 32.4607 234.372 32.1846L233.372 32.1793ZM234.388 29.2149C234.389 28.9388 234.167 28.7137 233.89 28.7123C233.614 28.7108 233.389 28.9335 233.388 29.2096L234.388 29.2149ZM233.403 26.2399C233.402 26.516 233.625 26.7411 233.901 26.7425C234.177 26.744 234.402 26.5213 234.403 26.2452L233.403 26.2399ZM234.419 23.2755C234.421 22.9994 234.198 22.7743 233.922 22.7729C233.646 22.7714 233.421 22.9941 233.419 23.2702L234.419 23.2755ZM233.435 20.3005C233.433 20.5766 233.656 20.8017 233.932 20.8031C234.208 20.8046 234.433 20.5819 234.435 20.3058L233.435 20.3005ZM234.451 17.3361C234.452 17.06 234.229 16.8349 233.953 16.8335C233.677 16.832 233.452 17.0547 233.451 17.3308L234.451 17.3361ZM233.466 14.3611C233.465 14.6372 233.688 14.8623 233.964 14.8637C234.24 14.8652 234.465 14.6425 234.466 14.3664L233.466 14.3611ZM234.482 11.3967C234.483 11.1206 234.261 10.8955 233.985 10.8941C233.709 10.8926 233.484 11.1153 233.482 11.3914L234.482 11.3967ZM233.498 8.4217C233.496 8.69784 233.719 8.92288 233.995 8.92434C234.271 8.9258 234.496 8.70313 234.498 8.42699L233.498 8.4217ZM234.513 5.4573C234.515 5.18116 234.292 4.95612 234.016 4.95466C233.74 4.9532 233.515 5.17587 233.513 5.45201L234.513 5.4573ZM233.529 2.4823C233.528 2.75844 233.75 2.98348 234.027 2.98494C234.303 2.9864 234.528 2.76373 234.529 2.48759L233.529 2.4823ZM233.5 197.003L233.508 195.518L232.508 195.513L232.5 196.997L233.5 197.003ZM233.524 192.548L233.539 189.578L232.539 189.573L232.524 192.543L233.524 192.548ZM233.555 186.609L233.571 183.639L232.571 183.634L232.555 186.603L233.555 186.609ZM233.586 180.669L233.602 177.7L232.602 177.694L232.586 180.664L233.586 180.669ZM233.618 174.73L233.634 171.76L232.634 171.755L232.618 174.725L233.618 174.73ZM233.649 168.791L233.665 165.821L232.665 165.816L232.649 168.785L233.649 168.791ZM233.681 162.851L233.696 159.881L232.696 159.876L232.681 162.846L233.681 162.851ZM233.712 156.912L233.728 153.942L232.728 153.937L232.712 156.906L233.712 156.912ZM233.744 150.972L233.759 148.003L232.759 147.997L232.744 150.967L233.744 150.972ZM233.775 145.033L233.791 142.063L232.791 142.058L232.775 145.028L233.775 145.033ZM233.806 139.094L233.822 136.124L232.822 136.119L232.806 139.088L233.806 139.094ZM233.838 133.154L233.854 130.185L232.854 130.179L232.838 133.149L233.838 133.154ZM233.869 127.215L233.885 124.245L232.885 124.24L232.869 127.21L233.869 127.215ZM233.901 121.275L233.916 118.306L232.916 118.3L232.901 121.27L233.901 121.275ZM233.932 115.336L233.948 112.366L232.948 112.361L232.932 115.331L233.932 115.336ZM233.964 109.397L233.979 106.427L232.979 106.422L232.964 109.391L233.964 109.397ZM233.995 103.457L234.011 100.488L233.011 100.482L232.995 103.452L233.995 103.457ZM234.026 97.5179L234.042 94.5482L233.042 94.5429L233.026 97.5126L234.026 97.5179ZM234.058 91.5785L234.074 88.6088L233.074 88.6036L233.058 91.5732L234.058 91.5785ZM234.089 85.6392L234.105 82.6695L233.105 82.6642L233.089 85.6339L234.089 85.6392ZM234.121 79.6998L234.136 76.7301L233.136 76.7248L233.121 79.6945L234.121 79.6998ZM234.152 73.7604L234.168 70.7907L233.168 70.7854L233.152 73.7551L234.152 73.7604ZM234.183 67.821L234.199 64.8513L233.199 64.846L233.184 67.8157L234.183 67.821ZM234.215 61.8816L234.231 58.9119L233.231 58.9066L233.215 61.8763L234.215 61.8816ZM234.246 55.9422L234.262 52.9725L233.262 52.9672L233.246 55.9369L234.246 55.9422ZM234.278 50.0028L234.293 47.0331L233.293 47.0278L233.278 49.9975L234.278 50.0028ZM234.309 44.0634L234.325 41.0937L233.325 41.0884L233.309 44.0581L234.309 44.0634ZM234.341 38.124L234.356 35.1543L233.356 35.149L233.341 38.1187L234.341 38.124ZM234.372 32.1846L234.388 29.2149L233.388 29.2096L233.372 32.1793L234.372 32.1846ZM234.403 26.2452L234.419 23.2755L233.419 23.2702L233.403 26.2399L234.403 26.2452ZM234.435 20.3058L234.451 17.3361L233.451 17.3308L233.435 20.3005L234.435 20.3058ZM234.466 14.3664L234.482 11.3967L233.482 11.3914L233.466 14.3611L234.466 14.3664ZM234.498 8.42699L234.513 5.4573L233.513 5.45201L233.498 8.4217L234.498 8.42699ZM234.529 2.48759L234.537 1.00284L233.537 0.997552L233.529 2.4823L234.529 2.48759Z" fill="white" fill-opacity="0.15"/>
<path d="M414.5 196.997L414.497 197.497L415.497 197.503L415.5 197.003L414.5 196.997ZM416.537 1.00284C416.538 0.726704 416.316 0.501665 416.04 0.500204C415.764 0.498743 415.539 0.721413 415.537 0.997552L416.537 1.00284ZM415.508 195.518C415.509 195.242 415.287 195.017 415.011 195.015C414.734 195.014 414.509 195.236 414.508 195.513L415.508 195.518ZM414.524 192.543C414.522 192.819 414.745 193.044 415.021 193.045C415.297 193.047 415.522 192.824 415.524 192.548L414.524 192.543ZM415.539 189.578C415.541 189.302 415.318 189.077 415.042 189.076C414.766 189.074 414.541 189.297 414.539 189.573L415.539 189.578ZM414.555 186.603C414.554 186.88 414.776 187.105 415.052 187.106C415.328 187.108 415.554 186.885 415.555 186.609L414.555 186.603ZM415.571 183.639C415.572 183.363 415.349 183.138 415.073 183.136C414.797 183.135 414.572 183.358 414.571 183.634L415.571 183.639ZM414.586 180.664C414.585 180.94 414.808 181.165 415.084 181.167C415.36 181.168 415.585 180.945 415.586 180.669L414.586 180.664ZM415.602 177.7C415.604 177.423 415.381 177.198 415.105 177.197C414.829 177.196 414.604 177.418 414.602 177.694L415.602 177.7ZM414.618 174.725C414.616 175.001 414.839 175.226 415.115 175.227C415.391 175.229 415.616 175.006 415.618 174.73L414.618 174.725ZM415.634 171.76C415.635 171.484 415.412 171.259 415.136 171.258C414.86 171.256 414.635 171.479 414.634 171.755L415.634 171.76ZM414.649 168.785C414.648 169.061 414.87 169.286 415.147 169.288C415.423 169.289 415.648 169.067 415.649 168.791L414.649 168.785ZM415.665 165.821C415.666 165.545 415.444 165.32 415.168 165.318C414.891 165.317 414.666 165.539 414.665 165.816L415.665 165.821ZM414.681 162.846C414.679 163.122 414.902 163.347 415.178 163.349C415.454 163.35 415.679 163.127 415.681 162.851L414.681 162.846ZM415.696 159.881C415.698 159.605 415.475 159.38 415.199 159.379C414.923 159.377 414.698 159.6 414.696 159.876L415.696 159.881ZM414.712 156.906C414.711 157.183 414.933 157.408 415.209 157.409C415.486 157.411 415.711 157.188 415.712 156.912L414.712 156.906ZM415.728 153.942C415.729 153.666 415.507 153.441 415.23 153.439C414.954 153.438 414.729 153.661 414.728 153.937L415.728 153.942ZM414.744 150.967C414.742 151.243 414.965 151.468 415.241 151.47C415.517 151.471 415.742 151.249 415.744 150.972L414.744 150.967ZM415.759 148.003C415.761 147.727 415.538 147.502 415.262 147.5C414.986 147.499 414.761 147.721 414.759 147.997L415.759 148.003ZM414.775 145.028C414.774 145.304 414.996 145.529 415.272 145.53C415.548 145.532 415.774 145.309 415.775 145.033L414.775 145.028ZM415.791 142.063C415.792 141.787 415.569 141.562 415.293 141.561C415.017 141.559 414.792 141.782 414.791 142.058L415.791 142.063ZM414.806 139.088C414.805 139.364 415.028 139.59 415.304 139.591C415.58 139.592 415.805 139.37 415.806 139.094L414.806 139.088ZM415.822 136.124C415.824 135.848 415.601 135.623 415.325 135.621C415.049 135.62 414.824 135.843 414.822 136.119L415.822 136.124ZM414.838 133.149C414.836 133.425 415.059 133.65 415.335 133.652C415.611 133.653 415.836 133.43 415.838 133.154L414.838 133.149ZM415.854 130.185C415.855 129.908 415.632 129.683 415.356 129.682C415.08 129.68 414.855 129.903 414.854 130.179L415.854 130.185ZM414.869 127.21C414.868 127.486 415.09 127.711 415.367 127.712C415.643 127.714 415.868 127.491 415.869 127.215L414.869 127.21ZM415.885 124.245C415.886 123.969 415.664 123.744 415.388 123.743C415.111 123.741 414.886 123.964 414.885 124.24L415.885 124.245ZM414.901 121.27C414.899 121.546 415.122 121.771 415.398 121.773C415.674 121.774 415.899 121.552 415.901 121.275L414.901 121.27ZM415.916 118.306C415.918 118.03 415.695 117.805 415.419 117.803C415.143 117.802 414.918 118.024 414.916 118.3L415.916 118.306ZM414.932 115.331C414.931 115.607 415.153 115.832 415.429 115.833C415.706 115.835 415.931 115.612 415.932 115.336L414.932 115.331ZM415.948 112.366C415.949 112.09 415.727 111.865 415.45 111.864C415.174 111.862 414.949 112.085 414.948 112.361L415.948 112.366ZM414.964 109.391C414.962 109.668 415.185 109.893 415.461 109.894C415.737 109.896 415.962 109.673 415.964 109.397L414.964 109.391ZM415.979 106.427C415.981 106.151 415.758 105.926 415.482 105.924C415.206 105.923 414.981 106.146 414.979 106.422L415.979 106.427ZM414.995 103.452C414.993 103.728 415.216 103.953 415.492 103.955C415.768 103.956 415.993 103.733 415.995 103.457L414.995 103.452ZM416.011 100.488C416.012 100.211 415.789 99.9864 415.513 99.985C415.237 99.9835 415.012 100.206 415.011 100.482L416.011 100.488ZM415.026 97.5126C415.025 97.7888 415.248 98.0138 415.524 98.0153C415.8 98.0167 416.025 97.7941 416.026 97.5179L415.026 97.5126ZM416.042 94.5482C416.044 94.2721 415.821 94.0471 415.545 94.0456C415.269 94.0441 415.044 94.2668 415.042 94.5429L416.042 94.5482ZM415.058 91.5732C415.056 91.8494 415.279 92.0744 415.555 92.0759C415.831 92.0773 416.056 91.8547 416.058 91.5785L415.058 91.5732ZM416.074 88.6088C416.075 88.3327 415.852 88.1077 415.576 88.1062C415.3 88.1047 415.075 88.3274 415.074 88.6036L416.074 88.6088ZM415.089 85.6339C415.088 85.91 415.31 86.135 415.587 86.1365C415.863 86.138 416.088 85.9153 416.089 85.6392L415.089 85.6339ZM416.105 82.6695C416.106 82.3933 415.884 82.1683 415.608 82.1668C415.331 82.1654 415.106 82.388 415.105 82.6642L416.105 82.6695ZM415.121 79.6945C415.119 79.9706 415.342 80.1956 415.618 80.1971C415.894 80.1986 416.119 79.9759 416.121 79.6998L415.121 79.6945ZM416.136 76.7301C416.138 76.4539 415.915 76.2289 415.639 76.2274C415.363 76.226 415.138 76.4486 415.136 76.7248L416.136 76.7301ZM415.152 73.7551C415.151 74.0312 415.373 74.2563 415.649 74.2577C415.926 74.2592 416.151 74.0365 416.152 73.7604L415.152 73.7551ZM416.168 70.7907C416.169 70.5146 415.947 70.2895 415.67 70.2881C415.394 70.2866 415.169 70.5093 415.168 70.7854L416.168 70.7907ZM415.184 67.8157C415.182 68.0918 415.405 68.3169 415.681 68.3183C415.957 68.3198 416.182 68.0971 416.183 67.821L415.184 67.8157ZM416.199 64.8513C416.201 64.5752 415.978 64.3501 415.702 64.3487C415.426 64.3472 415.201 64.5699 415.199 64.846L416.199 64.8513ZM415.215 61.8763C415.213 62.1524 415.436 62.3775 415.712 62.3789C415.988 62.3804 416.213 62.1577 416.215 61.8816L415.215 61.8763ZM416.231 58.9119C416.232 58.6358 416.009 58.4107 415.733 58.4093C415.457 58.4078 415.232 58.6305 415.231 58.9066L416.231 58.9119ZM415.246 55.9369C415.245 56.213 415.468 56.4381 415.744 56.4395C416.02 56.441 416.245 56.2183 416.246 55.9422L415.246 55.9369ZM416.262 52.9725C416.264 52.6964 416.041 52.4713 415.765 52.4699C415.489 52.4684 415.264 52.6911 415.262 52.9672L416.262 52.9725ZM415.278 49.9975C415.276 50.2736 415.499 50.4987 415.775 50.5001C416.051 50.5016 416.276 50.2789 416.278 50.0028L415.278 49.9975ZM416.293 47.0331C416.295 46.757 416.072 46.5319 415.796 46.5305C415.52 46.529 415.295 46.7517 415.293 47.0278L416.293 47.0331ZM415.309 44.0581C415.308 44.3342 415.53 44.5593 415.807 44.5607C416.083 44.5622 416.308 44.3395 416.309 44.0634L415.309 44.0581ZM416.325 41.0937C416.326 40.8176 416.104 40.5925 415.828 40.5911C415.551 40.5896 415.326 40.8123 415.325 41.0884L416.325 41.0937ZM415.341 38.1187C415.339 38.3948 415.562 38.6199 415.838 38.6213C416.114 38.6228 416.339 38.4001 416.341 38.124L415.341 38.1187ZM416.356 35.1543C416.358 34.8782 416.135 34.6531 415.859 34.6517C415.583 34.6502 415.358 34.8729 415.356 35.149L416.356 35.1543ZM415.372 32.1793C415.371 32.4554 415.593 32.6805 415.869 32.6819C416.146 32.6834 416.371 32.4607 416.372 32.1846L415.372 32.1793ZM416.388 29.2149C416.389 28.9388 416.167 28.7137 415.89 28.7123C415.614 28.7108 415.389 28.9335 415.388 29.2096L416.388 29.2149ZM415.403 26.2399C415.402 26.516 415.625 26.7411 415.901 26.7425C416.177 26.744 416.402 26.5213 416.403 26.2452L415.403 26.2399ZM416.419 23.2755C416.421 22.9994 416.198 22.7743 415.922 22.7729C415.646 22.7714 415.421 22.9941 415.419 23.2702L416.419 23.2755ZM415.435 20.3005C415.433 20.5766 415.656 20.8017 415.932 20.8031C416.208 20.8046 416.433 20.5819 416.435 20.3058L415.435 20.3005ZM416.451 17.3361C416.452 17.06 416.229 16.8349 415.953 16.8335C415.677 16.832 415.452 17.0547 415.451 17.3308L416.451 17.3361ZM415.466 14.3611C415.465 14.6372 415.688 14.8623 415.964 14.8637C416.24 14.8652 416.465 14.6425 416.466 14.3664L415.466 14.3611ZM416.482 11.3967C416.483 11.1206 416.261 10.8955 415.985 10.8941C415.709 10.8926 415.484 11.1153 415.482 11.3914L416.482 11.3967ZM415.498 8.4217C415.496 8.69784 415.719 8.92288 415.995 8.92434C416.271 8.9258 416.496 8.70313 416.498 8.42699L415.498 8.4217ZM416.513 5.4573C416.515 5.18116 416.292 4.95612 416.016 4.95466C415.74 4.9532 415.515 5.17587 415.513 5.45201L416.513 5.4573ZM415.529 2.4823C415.528 2.75844 415.75 2.98348 416.027 2.98494C416.303 2.9864 416.528 2.76373 416.529 2.48759L415.529 2.4823ZM415.5 197.003L415.508 195.518L414.508 195.513L414.5 196.997L415.5 197.003ZM415.524 192.548L415.539 189.578L414.539 189.573L414.524 192.543L415.524 192.548ZM415.555 186.609L415.571 183.639L414.571 183.634L414.555 186.603L415.555 186.609ZM415.586 180.669L415.602 177.7L414.602 177.694L414.586 180.664L415.586 180.669ZM415.618 174.73L415.634 171.76L414.634 171.755L414.618 174.725L415.618 174.73ZM415.649 168.791L415.665 165.821L414.665 165.816L414.649 168.785L415.649 168.791ZM415.681 162.851L415.696 159.881L414.696 159.876L414.681 162.846L415.681 162.851ZM415.712 156.912L415.728 153.942L414.728 153.937L414.712 156.906L415.712 156.912ZM415.744 150.972L415.759 148.003L414.759 147.997L414.744 150.967L415.744 150.972ZM415.775 145.033L415.791 142.063L414.791 142.058L414.775 145.028L415.775 145.033ZM415.806 139.094L415.822 136.124L414.822 136.119L414.806 139.088L415.806 139.094ZM415.838 133.154L415.854 130.185L414.854 130.179L414.838 133.149L415.838 133.154ZM415.869 127.215L415.885 124.245L414.885 124.24L414.869 127.21L415.869 127.215ZM415.901 121.275L415.916 118.306L414.916 118.3L414.901 121.27L415.901 121.275ZM415.932 115.336L415.948 112.366L414.948 112.361L414.932 115.331L415.932 115.336ZM415.964 109.397L415.979 106.427L414.979 106.422L414.964 109.391L415.964 109.397ZM415.995 103.457L416.011 100.488L415.011 100.482L414.995 103.452L415.995 103.457ZM416.026 97.5179L416.042 94.5482L415.042 94.5429L415.026 97.5126L416.026 97.5179ZM416.058 91.5785L416.074 88.6088L415.074 88.6036L415.058 91.5732L416.058 91.5785ZM416.089 85.6392L416.105 82.6695L415.105 82.6642L415.089 85.6339L416.089 85.6392ZM416.121 79.6998L416.136 76.7301L415.136 76.7248L415.121 79.6945L416.121 79.6998ZM416.152 73.7604L416.168 70.7907L415.168 70.7854L415.152 73.7551L416.152 73.7604ZM416.183 67.821L416.199 64.8513L415.199 64.846L415.184 67.8157L416.183 67.821ZM416.215 61.8816L416.231 58.9119L415.231 58.9066L415.215 61.8763L416.215 61.8816ZM416.246 55.9422L416.262 52.9725L415.262 52.9672L415.246 55.9369L416.246 55.9422ZM416.278 50.0028L416.293 47.0331L415.293 47.0278L415.278 49.9975L416.278 50.0028ZM416.309 44.0634L416.325 41.0937L415.325 41.0884L415.309 44.0581L416.309 44.0634ZM416.341 38.124L416.356 35.1543L415.356 35.149L415.341 38.1187L416.341 38.124ZM416.372 32.1846L416.388 29.2149L415.388 29.2096L415.372 32.1793L416.372 32.1846ZM416.403 26.2452L416.419 23.2755L415.419 23.2702L415.403 26.2399L416.403 26.2452ZM416.435 20.3058L416.451 17.3361L415.451 17.3308L415.435 20.3005L416.435 20.3058ZM416.466 14.3664L416.482 11.3967L415.482 11.3914L415.466 14.3611L416.466 14.3664ZM416.498 8.42699L416.513 5.4573L415.513 5.45201L415.498 8.4217L416.498 8.42699ZM416.529 2.48759L416.537 1.00284L415.537 0.997552L415.529 2.4823L416.529 2.48759Z" fill="white" fill-opacity="0.15"/>
<rect x="51.5" y="83.5" width="8" height="4" rx="2" fill="#0ABAB5"/>
<rect x="51.5" y="83.5" width="8" height="4" rx="2" stroke="#035A58"/>
<rect x="229.5" y="93.5" width="8" height="4" rx="2" fill="#0ABAB5"/>
<rect x="229.5" y="93.5" width="8" height="4" rx="2" stroke="#035A58"/>
<rect x="411.5" y="51.5" width="8" height="4" rx="2" fill="#0ABAB5"/>
<rect x="411.5" y="51.5" width="8" height="4" rx="2" stroke="#035A58"/>
<path d="M10.166 311.312C10.166 311.827 10.083 312.276 9.91699 312.66C9.74772 313.041 9.5166 313.344 9.22363 313.568C8.92741 313.79 8.58887 313.918 8.20801 313.954L8.1543 313.959V313.08L8.20801 313.075C8.44238 313.052 8.64583 312.963 8.81836 312.807C8.98763 312.647 9.11947 312.436 9.21387 312.172C9.30827 311.905 9.35547 311.602 9.35547 311.264C9.35547 310.945 9.30501 310.661 9.2041 310.414C9.09993 310.163 8.95671 309.966 8.77441 309.823C8.59212 309.68 8.38216 309.608 8.14453 309.608H8.13965C7.84668 309.608 7.60091 309.716 7.40234 309.931C7.20052 310.146 7.0459 310.495 6.93848 310.98L6.76758 311.762C6.61133 312.468 6.37044 312.982 6.04492 313.305C5.71615 313.624 5.29622 313.783 4.78516 313.783H4.78027C4.38965 313.78 4.0446 313.674 3.74512 313.466C3.44564 313.254 3.21126 312.963 3.04199 312.592C2.87272 312.217 2.78809 311.788 2.78809 311.303C2.78809 310.834 2.87272 310.419 3.04199 310.058C3.20801 309.696 3.43262 309.41 3.71582 309.198C3.99902 308.983 4.31641 308.865 4.66797 308.842L4.73633 308.837V309.716L4.67285 309.726C4.46452 309.758 4.2806 309.843 4.12109 309.979C3.95833 310.116 3.82975 310.299 3.73535 310.526C3.64095 310.754 3.59538 311.021 3.59863 311.327C3.59863 311.62 3.64421 311.884 3.73535 312.118C3.8265 312.353 3.95833 312.54 4.13086 312.68C4.30013 312.816 4.50846 312.885 4.75586 312.885H4.76074C5.04069 312.885 5.27669 312.781 5.46875 312.572C5.66081 312.364 5.80892 312.021 5.91309 311.542L6.08887 310.761C6.25163 310.025 6.48763 309.499 6.79688 309.184C7.10612 308.868 7.51465 308.71 8.02246 308.71H8.02734C8.4668 308.71 8.84603 308.817 9.16504 309.032C9.48405 309.247 9.73145 309.55 9.90723 309.94C10.0798 310.331 10.166 310.788 10.166 311.312ZM10 307.245H2.9541V306.366H10V307.245ZM10 304.569H2.9541L2.9541 303.69H9.20898L9.20898 300.292H10L10 304.569ZM10.166 296.22C10.166 296.894 10.0163 297.471 9.7168 297.953C9.41406 298.435 8.986 298.806 8.43262 299.066C7.87923 299.324 7.22819 299.452 6.47949 299.452H6.46973C5.71452 299.452 5.06185 299.322 4.51172 299.062C3.96159 298.798 3.53678 298.425 3.2373 297.943C2.93783 297.458 2.78809 296.884 2.78809 296.22C2.78809 295.552 2.93783 294.978 3.2373 294.496C3.53678 294.011 3.96322 293.638 4.5166 293.378C5.06673 293.118 5.71777 292.987 6.46973 292.987H6.47949C7.22819 292.987 7.87923 293.118 8.43262 293.378C8.98275 293.635 9.40918 294.006 9.71191 294.491C10.0146 294.973 10.166 295.549 10.166 296.22ZM9.35547 296.22C9.35547 295.738 9.23665 295.323 8.99902 294.975C8.76139 294.626 8.42773 294.358 7.99805 294.169C7.5651 293.98 7.05892 293.886 6.47949 293.886H6.46973C5.88379 293.886 5.37598 293.98 4.94629 294.169C4.5166 294.358 4.18457 294.626 3.9502 294.975C3.71582 295.323 3.59863 295.738 3.59863 296.22C3.59863 296.698 3.71582 297.112 3.9502 297.46C4.18457 297.808 4.5166 298.078 4.94629 298.271C5.37598 298.459 5.88379 298.554 6.46973 298.554H6.47949C7.05892 298.554 7.5651 298.461 7.99805 298.275C8.42773 298.09 8.76139 297.823 8.99902 297.475C9.23665 297.126 9.35547 296.708 9.35547 296.22ZM10 291.464H2.9541L2.9541 287.099H3.74512L3.74512 290.585H6.00586V287.279H6.78711V290.585H9.20898V287.099H10V291.464ZM10 285.507H2.9541V283.09C2.9541 282.393 3.09408 281.798 3.37402 281.303C3.65072 280.805 4.05111 280.424 4.5752 280.16C5.09928 279.896 5.73079 279.765 6.46973 279.765H6.47949C7.21842 279.765 7.85156 279.896 8.37891 280.16C8.90299 280.424 9.30501 280.803 9.58496 281.298C9.86165 281.793 10 282.39 10 283.09V285.507ZM9.20898 284.628V283.148C9.20898 282.624 9.10156 282.177 8.88672 281.806C8.67188 281.435 8.361 281.151 7.9541 280.956C7.5472 280.761 7.05892 280.663 6.48926 280.663H6.47949C5.90658 280.663 5.41667 280.762 5.00977 280.961C4.59961 281.156 4.28711 281.439 4.07227 281.811C3.85417 282.182 3.74512 282.628 3.74512 283.148V284.628H9.20898ZM7.48535 274.989H6.7041V272.997C6.7041 272.493 6.57389 272.102 6.31348 271.825C6.0498 271.549 5.68685 271.41 5.22461 271.41H5.21484C4.74935 271.41 4.38639 271.549 4.12598 271.825C3.86556 272.102 3.73535 272.493 3.73535 272.997V274.989H2.9541V272.772C2.9541 272.33 3.0485 271.939 3.2373 271.601C3.42611 271.262 3.68978 270.997 4.02832 270.805C4.36686 270.609 4.75911 270.512 5.20508 270.512H5.21484C5.66081 270.512 6.05469 270.609 6.39648 270.805C6.73828 270.997 7.00521 271.262 7.19727 271.601C7.38932 271.939 7.48535 272.33 7.48535 272.772V274.989ZM10 275.429H2.9541L2.9541 274.55H10V275.429ZM10.166 266.112C10.166 266.786 10.0163 267.364 9.7168 267.846C9.41406 268.327 8.986 268.699 8.43262 268.959C7.87923 269.216 7.22819 269.345 6.47949 269.345H6.46973C5.71452 269.345 5.06185 269.215 4.51172 268.954C3.96159 268.69 3.53678 268.318 3.2373 267.836C2.93783 267.351 2.78809 266.776 2.78809 266.112C2.78809 265.445 2.93783 264.87 3.2373 264.389C3.53678 263.904 3.96322 263.531 4.5166 263.271C5.06673 263.01 5.71777 262.88 6.46973 262.88H6.47949C7.22819 262.88 7.87923 263.01 8.43262 263.271C8.98275 263.528 9.40918 263.899 9.71191 264.384C10.0146 264.866 10.166 265.442 10.166 266.112ZM9.35547 266.112C9.35547 265.631 9.23665 265.215 8.99902 264.867C8.76139 264.519 8.42773 264.25 7.99805 264.062C7.5651 263.873 7.05892 263.778 6.47949 263.778H6.46973C5.88379 263.778 5.37598 263.873 4.94629 264.062C4.5166 264.25 4.18457 264.519 3.9502 264.867C3.71582 265.215 3.59863 265.631 3.59863 266.112C3.59863 266.591 3.71582 267.004 3.9502 267.353C4.18457 267.701 4.5166 267.971 4.94629 268.163C5.37598 268.352 5.88379 268.446 6.46973 268.446H6.47949C7.05892 268.446 7.5651 268.354 7.99805 268.168C8.42773 267.982 8.76139 267.715 8.99902 267.367C9.23665 267.019 9.35547 266.601 9.35547 266.112ZM10.166 258.397C10.166 259.071 10.0163 259.649 9.7168 260.131C9.41406 260.613 8.986 260.984 8.43262 261.244C7.87923 261.501 7.22819 261.63 6.47949 261.63H6.46973C5.71452 261.63 5.06185 261.5 4.51172 261.239C3.96159 260.976 3.53678 260.603 3.2373 260.121C2.93783 259.636 2.78809 259.062 2.78809 258.397C2.78809 257.73 2.93783 257.156 3.2373 256.674C3.53678 256.189 3.96322 255.816 4.5166 255.556C5.06673 255.295 5.71777 255.165 6.46973 255.165H6.47949C7.22819 255.165 7.87923 255.295 8.43262 255.556C8.98275 255.813 9.40918 256.184 9.71191 256.669C10.0146 257.151 10.166 257.727 10.166 258.397ZM9.35547 258.397C9.35547 257.916 9.23665 257.501 8.99902 257.152C8.76139 256.804 8.42773 256.535 7.99805 256.347C7.5651 256.158 7.05892 256.063 6.47949 256.063H6.46973C5.88379 256.063 5.37598 256.158 4.94629 256.347C4.5166 256.535 4.18457 256.804 3.9502 257.152C3.71582 257.501 3.59863 257.916 3.59863 258.397C3.59863 258.876 3.71582 259.289 3.9502 259.638C4.18457 259.986 4.5166 260.256 4.94629 260.448C5.37598 260.637 5.88379 260.731 6.46973 260.731H6.47949C7.05892 260.731 7.5651 260.639 7.99805 260.453C8.42773 260.268 8.76139 260.001 8.99902 259.652C9.23665 259.304 9.35547 258.886 9.35547 258.397ZM10 253.642H2.9541L2.9541 252.763H9.20898V249.364H10V253.642ZM10.166 245.648C10.166 246.163 10.083 246.612 9.91699 246.996C9.74772 247.377 9.5166 247.68 9.22363 247.904C8.92741 248.126 8.58887 248.254 8.20801 248.29L8.1543 248.295V247.416L8.20801 247.411C8.44238 247.388 8.64583 247.299 8.81836 247.143C8.98763 246.983 9.11947 246.771 9.21387 246.508C9.30827 246.241 9.35547 245.938 9.35547 245.6C9.35547 245.281 9.30501 244.997 9.2041 244.75C9.09993 244.499 8.95671 244.302 8.77441 244.159C8.59212 244.016 8.38216 243.944 8.14453 243.944H8.13965C7.84668 243.944 7.60091 244.052 7.40234 244.267C7.20052 244.481 7.0459 244.831 6.93848 245.316L6.76758 246.098C6.61133 246.804 6.37044 247.318 6.04492 247.641C5.71615 247.96 5.29622 248.119 4.78516 248.119H4.78027C4.38965 248.116 4.0446 248.01 3.74512 247.802C3.44564 247.59 3.21126 247.299 3.04199 246.928C2.87272 246.553 2.78809 246.124 2.78809 245.639C2.78809 245.17 2.87272 244.755 3.04199 244.394C3.20801 244.032 3.43262 243.746 3.71582 243.534C3.99902 243.319 4.31641 243.201 4.66797 243.178L4.73633 243.173V244.052L4.67285 244.062C4.46452 244.094 4.2806 244.179 4.12109 244.315C3.95833 244.452 3.82975 244.634 3.73535 244.862C3.64095 245.09 3.59538 245.357 3.59863 245.663C3.59863 245.956 3.64421 246.22 3.73535 246.454C3.8265 246.688 3.95833 246.876 4.13086 247.016C4.30013 247.152 4.50846 247.221 4.75586 247.221H4.76074C5.04069 247.221 5.27669 247.117 5.46875 246.908C5.66081 246.7 5.80892 246.356 5.91309 245.878L6.08887 245.097C6.25163 244.361 6.48763 243.835 6.79688 243.52C7.10612 243.204 7.51465 243.046 8.02246 243.046H8.02734C8.4668 243.046 8.84603 243.153 9.16504 243.368C9.48405 243.583 9.73145 243.886 9.90723 244.276C10.0798 244.667 10.166 245.124 10.166 245.648Z" fill="#CDCDCD"/>
<defs>
<linearGradient id="paint0_linear_659_4641" x1="53.5" y1="241" x2="53.5395" y2="271.5" gradientUnits="userSpaceOnUse">
<stop offset="0.867288" stop-opacity="0"/>
<stop offset="1" stop-color="#06B7D0" stop-opacity="0.39"/>
</linearGradient>
<linearGradient id="paint1_linear_659_4641" x1="232" y1="283" x2="232.009" y2="290" gradientUnits="userSpaceOnUse">
<stop stop-opacity="0"/>
<stop offset="1" stop-color="#06B7D0" stop-opacity="0.39"/>
</linearGradient>
<linearGradient id="paint2_linear_659_4641" x1="409.5" y1="241" x2="409.54" y2="271.5" gradientUnits="userSpaceOnUse">
<stop offset="0.600951" stop-opacity="0"/>
<stop offset="0.686203" stop-color="#06B7D0" stop-opacity="0.39"/>
</linearGradient>
<linearGradient id="paint3_linear_659_4641" x1="498.5" y1="241" x2="498.51" y2="248.5" gradientUnits="userSpaceOnUse">
<stop stop-opacity="0"/>
<stop offset="1" stop-color="#06B7D0" stop-opacity="0.39"/>
</linearGradient>
<clipPath id="clip0_659_4641">
<path d="M28 241H79V300C79 307.542 79 311.314 76.6569 313.657C74.3137 316 70.5425 316 63 316H44C36.4575 316 32.6863 316 30.3431 313.657C28 311.314 28 307.542 28 300V241Z" fill="white"/>
</clipPath>
<clipPath id="clip1_659_4641">
<path d="M117 241H168V300C168 307.542 168 311.314 165.657 313.657C163.314 316 159.542 316 152 316H133C125.458 316 121.686 316 119.343 313.657C117 311.314 117 307.542 117 300V241Z" fill="white"/>
</clipPath>
<clipPath id="clip2_659_4641">
<path d="M206 241H257V300C257 307.542 257 311.314 254.657 313.657C252.314 316 248.542 316 241 316H222C214.458 316 210.686 316 208.343 313.657C206 311.314 206 307.542 206 300V241Z" fill="white"/>
</clipPath>
<clipPath id="clip3_659_4641">
<path d="M295 241H346V300C346 307.542 346 311.314 343.657 313.657C341.314 316 337.542 316 330 316H311C303.458 316 299.686 316 297.343 313.657C295 311.314 295 307.542 295 300V241Z" fill="white"/>
</clipPath>
<clipPath id="clip4_659_4641">
<path d="M384 241H435V300C435 307.542 435 311.314 432.657 313.657C430.314 316 426.542 316 419 316H400C392.458 316 388.686 316 386.343 313.657C384 311.314 384 307.542 384 300V241Z" fill="white"/>
</clipPath>
<clipPath id="clip5_659_4641">
<path d="M473 241H524V300C524 307.542 524 311.314 521.657 313.657C519.314 316 515.542 316 508 316H489C481.458 316 477.686 316 475.343 313.657C473 311.314 473 307.542 473 300V241Z" fill="white"/>
</clipPath>
</defs>
</svg>
