<svg width="587" height="739" viewBox="0 0 587 739" fill="none" xmlns="http://www.w3.org/2000/svg">
<path d="M21.8745 280.44L21.8744 280.44C18.275 276.902 16.0451 271.981 16.0451 266.537C16.0451 255.769 24.7739 247.041 35.5405 247.041C46.308 247.041 55.0364 255.769 55.0364 266.537C55.0364 271.944 52.8372 276.834 49.2817 280.366L49.2815 280.366C45.756 283.87 40.9019 286.032 35.5405 286.032C30.2174 286.032 25.3933 283.9 21.8745 280.44Z" stroke="#0ABAB5" stroke-width="2.08349"/>
<path d="M22.4979 285.874C23.7446 286.717 25.0775 287.44 26.4595 288.025L26.4598 288.025C29.337 289.242 32.3922 289.858 35.5367 289.858C38.6817 289.858 41.7375 289.242 44.6145 288.025L44.6146 288.025C45.9971 287.44 47.3298 286.717 48.5766 285.874L48.5767 285.874C49.8108 285.04 50.9709 284.083 52.0256 283.029C52.0602 282.994 52.0948 282.96 52.1292 282.925C62.4895 286.827 69.6205 294.81 70.3295 306.846C60.5173 313.845 48.5095 317.962 35.5367 317.962C22.7057 317.962 10.8172 313.934 1.06512 307.074C1.69269 295.002 8.74454 286.976 19.0366 283.017C19.04 283.021 19.0435 283.024 19.0469 283.027L19.0486 283.029C20.1034 284.083 21.2629 285.04 22.4979 285.874ZM22.4979 285.874L23.0781 285.016L22.4981 285.874C22.498 285.874 22.498 285.874 22.4979 285.874ZM51.2891 282.292L51.5488 282.552L51.2891 282.292ZM51.2891 282.292C51.479 282.102 51.6655 281.909 51.848 281.712M51.2891 282.292C50.2814 283.3 49.1725 284.214 47.9934 285.011L51.848 281.712M51.848 281.712C63.0467 285.702 70.8489 294.28 71.3984 307.36C61.3312 314.684 48.9388 319.004 35.5367 319.004C22.2791 319.004 10.0076 314.776 -0.000289917 307.594L51.848 281.712Z" stroke="#0ABAB5" stroke-width="2.08349"/>
<path d="M24.5391 343.088H28.5551V344H23.4191V332.816H24.5391V343.088ZM38.7054 336.032C38.7054 336.992 38.3908 337.765 37.7614 338.352C37.1321 338.939 36.1881 339.232 34.9294 339.232H32.6734V344H31.5534V332.816H34.9294C36.1774 332.816 37.1161 333.109 37.7454 333.696C38.3854 334.283 38.7054 335.061 38.7054 336.032ZM34.9294 338.272C36.6788 338.272 37.5534 337.525 37.5534 336.032C37.5534 335.285 37.3454 334.72 36.9294 334.336C36.5134 333.952 35.8468 333.76 34.9294 333.76H32.6734V338.272H34.9294ZM44.9927 344.128C43.99 344.128 43.1687 343.899 42.5287 343.44C41.8994 342.971 41.5474 342.336 41.4727 341.536H42.6247C42.678 342.027 42.9074 342.427 43.3127 342.736C43.7287 343.035 44.2834 343.184 44.9767 343.184C45.5847 343.184 46.0594 343.04 46.4007 342.752C46.7527 342.464 46.9287 342.107 46.9287 341.68C46.9287 341.381 46.8327 341.136 46.6407 340.944C46.4487 340.752 46.2034 340.603 45.9047 340.496C45.6167 340.379 45.222 340.256 44.7207 340.128C44.07 339.957 43.542 339.787 43.1367 339.616C42.7314 339.445 42.3847 339.195 42.0967 338.864C41.8194 338.523 41.6807 338.069 41.6807 337.504C41.6807 337.077 41.8087 336.683 42.0647 336.32C42.3207 335.957 42.6834 335.669 43.1527 335.456C43.622 335.243 44.1554 335.136 44.7527 335.136C45.6914 335.136 46.4487 335.376 47.0247 335.856C47.6007 336.325 47.91 336.976 47.9527 337.808H46.8327C46.8007 337.296 46.598 336.885 46.2247 336.576C45.862 336.256 45.3607 336.096 44.7207 336.096C44.1554 336.096 43.6967 336.229 43.3447 336.496C42.9927 336.763 42.8167 337.093 42.8167 337.488C42.8167 337.829 42.918 338.112 43.1207 338.336C43.334 338.549 43.5954 338.72 43.9047 338.848C44.214 338.965 44.63 339.099 45.1527 339.248C45.782 339.419 46.2834 339.584 46.6567 339.744C47.03 339.904 47.35 340.139 47.6167 340.448C47.8834 340.757 48.022 341.168 48.0327 341.68C48.0327 342.149 47.9047 342.571 47.6487 342.944C47.3927 343.307 47.0354 343.595 46.5767 343.808C46.118 344.021 45.59 344.128 44.9927 344.128Z" fill="white"/>
<g filter="url(#filter0_bi_608_2614)">
<rect x="277" y="1" width="309" height="81" fill="url(#paint0_radial_608_2614)" fill-opacity="0.35"/>
<rect x="276.699" y="0.698946" width="309.602" height="81.6021" stroke="url(#paint1_linear_608_2614)" stroke-width="0.602107"/>
<path d="M350.013 49.14C349.093 49.14 348.279 48.98 347.573 48.66C346.879 48.34 346.333 47.8933 345.933 47.32C345.533 46.7467 345.319 46.1067 345.293 45.4H346.773C346.839 46.08 347.139 46.68 347.673 47.2C348.206 47.7067 348.986 47.96 350.013 47.96C350.959 47.96 351.706 47.72 352.253 47.24C352.813 46.7467 353.093 46.1267 353.093 45.38C353.093 44.78 352.939 44.3 352.633 43.94C352.326 43.5667 351.946 43.2933 351.493 43.12C351.039 42.9333 350.413 42.7333 349.613 42.52C348.679 42.2667 347.939 42.02 347.393 41.78C346.846 41.54 346.379 41.1667 345.993 40.66C345.606 40.1533 345.413 39.4667 345.413 38.6C345.413 37.88 345.599 37.24 345.973 36.68C346.346 36.1067 346.873 35.66 347.553 35.34C348.233 35.02 349.013 34.86 349.893 34.86C351.186 34.86 352.226 35.18 353.013 35.82C353.813 36.4467 354.273 37.26 354.393 38.26H352.873C352.779 37.6867 352.466 37.18 351.933 36.74C351.399 36.2867 350.679 36.06 349.773 36.06C348.933 36.06 348.233 36.2867 347.673 36.74C347.113 37.18 346.833 37.7867 346.833 38.56C346.833 39.1467 346.986 39.62 347.293 39.98C347.599 40.34 347.979 40.6133 348.433 40.8C348.899 40.9867 349.526 41.1867 350.313 41.4C351.219 41.6533 351.953 41.9067 352.513 42.16C353.073 42.4 353.546 42.7733 353.933 43.28C354.319 43.7867 354.513 44.4667 354.513 45.32C354.513 45.9733 354.339 46.5933 353.993 47.18C353.646 47.7667 353.133 48.24 352.453 48.6C351.773 48.96 350.959 49.14 350.013 49.14ZM364.898 49.14C363.605 49.14 362.431 48.84 361.378 48.24C360.325 47.6267 359.491 46.78 358.878 45.7C358.278 44.6067 357.978 43.3733 357.978 42C357.978 40.6267 358.278 39.4 358.878 38.32C359.491 37.2267 360.325 36.38 361.378 35.78C362.431 35.1667 363.605 34.86 364.898 34.86C366.205 34.86 367.385 35.1667 368.438 35.78C369.491 36.38 370.318 37.2267 370.918 38.32C371.518 39.4 371.818 40.6267 371.818 42C371.818 43.3733 371.518 44.6067 370.918 45.7C370.318 46.78 369.491 47.6267 368.438 48.24C367.385 48.84 366.205 49.14 364.898 49.14ZM364.898 47.92C365.938 47.92 366.871 47.68 367.698 47.2C368.525 46.72 369.178 46.0333 369.658 45.14C370.138 44.2333 370.378 43.1867 370.378 42C370.378 40.8133 370.138 39.7733 369.658 38.88C369.178 37.9867 368.525 37.3 367.698 36.82C366.871 36.34 365.938 36.1 364.898 36.1C363.858 36.1 362.925 36.34 362.098 36.82C361.271 37.3 360.618 37.9867 360.138 38.88C359.658 39.7733 359.418 40.8133 359.418 42C359.418 43.1867 359.658 44.2333 360.138 45.14C360.618 46.0333 361.271 46.72 362.098 47.2C362.925 47.68 363.858 47.92 364.898 47.92ZM377.18 47.86H382.2V49H375.78V35.02H377.18V47.86ZM400.046 35.02V36.18H393.886V41.4H399.086V42.56H393.886V49H392.486V35.02H400.046ZM413.629 42.98C413.629 43.46 413.616 43.8267 413.589 44.08H404.529C404.569 44.9067 404.769 45.6133 405.129 46.2C405.489 46.7867 405.963 47.2333 406.549 47.54C407.136 47.8333 407.776 47.98 408.469 47.98C409.376 47.98 410.136 47.76 410.749 47.32C411.376 46.88 411.789 46.2867 411.989 45.54H413.469C413.203 46.6067 412.629 47.48 411.749 48.16C410.883 48.8267 409.789 49.16 408.469 49.16C407.443 49.16 406.523 48.9333 405.709 48.48C404.896 48.0133 404.256 47.36 403.789 46.52C403.336 45.6667 403.109 44.6733 403.109 43.54C403.109 42.4067 403.336 41.4133 403.789 40.56C404.243 39.7067 404.876 39.0533 405.689 38.6C406.503 38.1467 407.429 37.92 408.469 37.92C409.509 37.92 410.416 38.1467 411.189 38.6C411.976 39.0533 412.576 39.6667 412.989 40.44C413.416 41.2 413.629 42.0467 413.629 42.98ZM412.209 42.94C412.223 42.1267 412.056 41.4333 411.709 40.86C411.376 40.2867 410.916 39.8533 410.329 39.56C409.743 39.2667 409.103 39.12 408.409 39.12C407.369 39.12 406.483 39.4533 405.749 40.12C405.016 40.7867 404.609 41.7267 404.529 42.94H412.209ZM427.471 42.98C427.471 43.46 427.457 43.8267 427.431 44.08H418.371C418.411 44.9067 418.611 45.6133 418.971 46.2C419.331 46.7867 419.804 47.2333 420.391 47.54C420.977 47.8333 421.617 47.98 422.311 47.98C423.217 47.98 423.977 47.76 424.591 47.32C425.217 46.88 425.631 46.2867 425.831 45.54H427.311C427.044 46.6067 426.471 47.48 425.591 48.16C424.724 48.8267 423.631 49.16 422.311 49.16C421.284 49.16 420.364 48.9333 419.551 48.48C418.737 48.0133 418.097 47.36 417.631 46.52C417.177 45.6667 416.951 44.6733 416.951 43.54C416.951 42.4067 417.177 41.4133 417.631 40.56C418.084 39.7067 418.717 39.0533 419.531 38.6C420.344 38.1467 421.271 37.92 422.311 37.92C423.351 37.92 424.257 38.1467 425.031 38.6C425.817 39.0533 426.417 39.6667 426.831 40.44C427.257 41.2 427.471 42.0467 427.471 42.98ZM426.051 42.94C426.064 42.1267 425.897 41.4333 425.551 40.86C425.217 40.2867 424.757 39.8533 424.171 39.56C423.584 39.2667 422.944 39.12 422.251 39.12C421.211 39.12 420.324 39.4533 419.591 40.12C418.857 40.7867 418.451 41.7267 418.371 42.94H426.051ZM430.792 43.52C430.792 42.4 431.019 41.42 431.472 40.58C431.925 39.7267 432.545 39.0733 433.332 38.62C434.132 38.1533 435.032 37.92 436.032 37.92C436.992 37.92 437.859 38.1533 438.632 38.62C439.405 39.0867 439.972 39.6933 440.332 40.44V34.2H441.732V49H440.332V46.56C439.999 47.32 439.452 47.9467 438.692 48.44C437.932 48.92 437.039 49.16 436.012 49.16C435.012 49.16 434.112 48.9267 433.312 48.46C432.525 47.9933 431.905 47.3333 431.452 46.48C431.012 45.6267 430.792 44.64 430.792 43.52ZM440.332 43.54C440.332 42.66 440.152 41.8867 439.792 41.22C439.432 40.5533 438.939 40.04 438.312 39.68C437.699 39.32 437.019 39.14 436.272 39.14C435.499 39.14 434.805 39.3133 434.192 39.66C433.579 40.0067 433.092 40.5133 432.732 41.18C432.385 41.8333 432.212 42.6133 432.212 43.52C432.212 44.4133 432.385 45.2 432.732 45.88C433.092 46.5467 433.579 47.06 434.192 47.42C434.805 47.7667 435.499 47.94 436.272 47.94C437.019 47.94 437.699 47.76 438.312 47.4C438.939 47.04 439.432 46.5267 439.792 45.86C440.152 45.1933 440.332 44.42 440.332 43.54ZM456.208 42.98C456.208 43.46 456.195 43.8267 456.168 44.08H447.108C447.148 44.9067 447.348 45.6133 447.708 46.2C448.068 46.7867 448.541 47.2333 449.128 47.54C449.715 47.8333 450.355 47.98 451.048 47.98C451.955 47.98 452.715 47.76 453.328 47.32C453.955 46.88 454.368 46.2867 454.568 45.54H456.048C455.781 46.6067 455.208 47.48 454.328 48.16C453.461 48.8267 452.368 49.16 451.048 49.16C450.021 49.16 449.101 48.9333 448.288 48.48C447.475 48.0133 446.835 47.36 446.368 46.52C445.915 45.6667 445.688 44.6733 445.688 43.54C445.688 42.4067 445.915 41.4133 446.368 40.56C446.821 39.7067 447.455 39.0533 448.268 38.6C449.081 38.1467 450.008 37.92 451.048 37.92C452.088 37.92 452.995 38.1467 453.768 38.6C454.555 39.0533 455.155 39.6667 455.568 40.44C455.995 41.2 456.208 42.0467 456.208 42.98ZM454.788 42.94C454.801 42.1267 454.635 41.4333 454.288 40.86C453.955 40.2867 453.495 39.8533 452.908 39.56C452.321 39.2667 451.681 39.12 450.988 39.12C449.948 39.12 449.061 39.4533 448.328 40.12C447.595 40.7867 447.188 41.7267 447.108 42.94H454.788ZM461.57 40.02C461.876 39.34 462.343 38.8133 462.97 38.44C463.61 38.0667 464.39 37.88 465.31 37.88V39.34H464.93C463.916 39.34 463.103 39.6133 462.49 40.16C461.876 40.7067 461.57 41.62 461.57 42.9V49H460.17V38.08H461.57V40.02ZM484.644 39.04C484.644 40.24 484.251 41.2067 483.464 41.94C482.677 42.6733 481.497 43.04 479.924 43.04H477.104V49H475.704V35.02H479.924C481.484 35.02 482.657 35.3867 483.444 36.12C484.244 36.8533 484.644 37.8267 484.644 39.04ZM479.924 41.84C482.111 41.84 483.204 40.9067 483.204 39.04C483.204 38.1067 482.944 37.4 482.424 36.92C481.904 36.44 481.071 36.2 479.924 36.2H477.104V41.84H479.924ZM493.173 49.16C492.146 49.16 491.22 48.9333 490.393 48.48C489.58 48.0133 488.933 47.36 488.453 46.52C487.986 45.6667 487.753 44.6733 487.753 43.54C487.753 42.4067 487.993 41.42 488.473 40.58C488.953 39.7267 489.606 39.0733 490.433 38.62C491.26 38.1533 492.186 37.92 493.213 37.92C494.24 37.92 495.166 38.1533 495.993 38.62C496.833 39.0733 497.486 39.7267 497.953 40.58C498.433 41.42 498.673 42.4067 498.673 43.54C498.673 44.66 498.433 45.6467 497.953 46.5C497.473 47.3533 496.813 48.0133 495.973 48.48C495.133 48.9333 494.2 49.16 493.173 49.16ZM493.173 47.94C493.893 47.94 494.56 47.78 495.173 47.46C495.786 47.1267 496.28 46.6333 496.653 45.98C497.04 45.3133 497.233 44.5 497.233 43.54C497.233 42.58 497.046 41.7733 496.673 41.12C496.3 40.4533 495.806 39.96 495.193 39.64C494.58 39.3067 493.913 39.14 493.193 39.14C492.473 39.14 491.806 39.3067 491.193 39.64C490.58 39.96 490.086 40.4533 489.713 41.12C489.353 41.7733 489.173 42.58 489.173 43.54C489.173 44.5 489.353 45.3133 489.713 45.98C490.086 46.6333 490.573 47.1267 491.173 47.46C491.786 47.78 492.453 47.94 493.173 47.94ZM507.405 49.16C506.378 49.16 505.452 48.9333 504.625 48.48C503.812 48.0133 503.165 47.36 502.685 46.52C502.218 45.6667 501.985 44.6733 501.985 43.54C501.985 42.4067 502.225 41.42 502.705 40.58C503.185 39.7267 503.838 39.0733 504.665 38.62C505.492 38.1533 506.418 37.92 507.445 37.92C508.472 37.92 509.398 38.1533 510.225 38.62C511.065 39.0733 511.718 39.7267 512.185 40.58C512.665 41.42 512.905 42.4067 512.905 43.54C512.905 44.66 512.665 45.6467 512.185 46.5C511.705 47.3533 511.045 48.0133 510.205 48.48C509.365 48.9333 508.432 49.16 507.405 49.16ZM507.405 47.94C508.125 47.94 508.792 47.78 509.405 47.46C510.018 47.1267 510.512 46.6333 510.885 45.98C511.272 45.3133 511.465 44.5 511.465 43.54C511.465 42.58 511.278 41.7733 510.905 41.12C510.532 40.4533 510.038 39.96 509.425 39.64C508.812 39.3067 508.145 39.14 507.425 39.14C506.705 39.14 506.038 39.3067 505.425 39.64C504.812 39.96 504.318 40.4533 503.945 41.12C503.585 41.7733 503.405 42.58 503.405 43.54C503.405 44.5 503.585 45.3133 503.945 45.98C504.318 46.6333 504.805 47.1267 505.405 47.46C506.018 47.78 506.685 47.94 507.405 47.94ZM518.257 34.2V49H516.857V34.2H518.257Z" fill="white"/>
</g>
<g filter="url(#filter1_bi_608_2614)">
<rect x="277" y="200" width="91" height="34" fill="url(#paint2_radial_608_2614)" fill-opacity="0.35"/>
<rect x="276.699" y="199.699" width="91.6021" height="34.6021" stroke="url(#paint3_linear_608_2614)" stroke-width="0.602107"/>
<path d="M326.177 220.68H319.817L318.597 224H317.117L322.217 210.2H323.797L328.877 224H327.397L326.177 220.68ZM325.757 219.52L322.997 211.96L320.237 219.52H325.757Z" fill="white"/>
</g>
<g filter="url(#filter2_bi_608_2614)">
<rect x="386" y="200" width="91" height="34" fill="url(#paint4_radial_608_2614)" fill-opacity="0.35"/>
<rect x="385.699" y="199.699" width="91.6021" height="34.6021" stroke="url(#paint5_linear_608_2614)" stroke-width="0.602107"/>
<path d="M434.173 216.78C434.96 216.927 435.627 217.327 436.173 217.98C436.72 218.633 436.993 219.393 436.993 220.26C436.993 220.967 436.813 221.607 436.453 222.18C436.107 222.74 435.593 223.187 434.913 223.52C434.233 223.84 433.42 224 432.473 224H427.633V210.02H432.333C433.747 210.02 434.82 210.347 435.553 211C436.3 211.653 436.673 212.5 436.673 213.54C436.673 214.407 436.44 215.113 435.973 215.66C435.507 216.193 434.907 216.567 434.173 216.78ZM429.033 216.2H432.293C433.24 216.2 433.967 215.98 434.473 215.54C434.993 215.087 435.253 214.467 435.253 213.68C435.253 212.907 434.993 212.3 434.473 211.86C433.967 211.42 433.22 211.2 432.233 211.2H429.033V216.2ZM432.373 222.82C433.387 222.82 434.173 222.58 434.733 222.1C435.307 221.62 435.593 220.96 435.593 220.12C435.593 219.28 435.293 218.613 434.693 218.12C434.107 217.613 433.313 217.36 432.313 217.36H429.033V222.82H432.373Z" fill="white"/>
</g>
<g filter="url(#filter3_bi_608_2614)">
<rect x="495" y="200" width="91" height="34" fill="url(#paint6_radial_608_2614)" fill-opacity="0.35"/>
<rect x="494.699" y="199.699" width="91.6021" height="34.6021" stroke="url(#paint7_linear_608_2614)" stroke-width="0.602107"/>
<path d="M535.327 218.54C535.327 217.407 535.554 216.42 536.007 215.58C536.461 214.727 537.087 214.073 537.887 213.62C538.687 213.153 539.601 212.92 540.627 212.92C541.974 212.92 543.081 213.253 543.947 213.92C544.827 214.587 545.394 215.493 545.647 216.64H544.147C543.961 215.853 543.554 215.24 542.927 214.8C542.314 214.347 541.547 214.12 540.627 214.12C539.894 214.12 539.234 214.287 538.647 214.62C538.061 214.953 537.594 215.453 537.247 216.12C536.914 216.773 536.747 217.58 536.747 218.54C536.747 219.5 536.914 220.313 537.247 220.98C537.594 221.647 538.061 222.147 538.647 222.48C539.234 222.813 539.894 222.98 540.627 222.98C541.547 222.98 542.314 222.76 542.927 222.32C543.554 221.867 543.961 221.24 544.147 220.44H545.647C545.394 221.56 544.827 222.46 543.947 223.14C543.067 223.82 541.961 224.16 540.627 224.16C539.601 224.16 538.687 223.933 537.887 223.48C537.087 223.013 536.461 222.36 536.007 221.52C535.554 220.667 535.327 219.673 535.327 218.54Z" fill="white"/>
</g>
<path d="M431.646 130.36C431.842 130.555 432.158 130.555 432.354 130.36L435.536 127.178C435.731 126.983 435.731 126.666 435.536 126.471C435.34 126.276 435.024 126.276 434.828 126.471L432 129.299L429.172 126.471C428.976 126.276 428.66 126.276 428.464 126.471C428.269 126.666 428.269 126.983 428.464 127.178L431.646 130.36ZM431.5 81.9961V130.007H432.5V81.9961H431.5Z" fill="white"/>
<path d="M397.646 146.112C396.612 146.112 395.673 145.872 394.83 145.392C393.988 144.901 393.321 144.224 392.83 143.36C392.35 142.485 392.11 141.499 392.11 140.4C392.11 139.301 392.35 138.32 392.83 137.456C393.321 136.581 393.988 135.904 394.83 135.424C395.673 134.933 396.612 134.688 397.646 134.688C398.692 134.688 399.636 134.933 400.478 135.424C401.321 135.904 401.982 136.581 402.462 137.456C402.942 138.32 403.182 139.301 403.182 140.4C403.182 141.499 402.942 142.485 402.462 143.36C401.982 144.224 401.321 144.901 400.478 145.392C399.636 145.872 398.692 146.112 397.646 146.112ZM397.646 145.136C398.478 145.136 399.225 144.944 399.886 144.56C400.548 144.176 401.07 143.627 401.454 142.912C401.838 142.187 402.03 141.349 402.03 140.4C402.03 139.451 401.838 138.619 401.454 137.904C401.07 137.189 400.548 136.64 399.886 136.256C399.225 135.872 398.478 135.68 397.646 135.68C396.814 135.68 396.068 135.872 395.406 136.256C394.745 136.64 394.222 137.189 393.838 137.904C393.454 138.619 393.262 139.451 393.262 140.4C393.262 141.349 393.454 142.187 393.838 142.912C394.222 143.627 394.745 144.176 395.406 144.56C396.068 144.944 396.814 145.136 397.646 145.136ZM414.2 137.264V146H413.08V144.464C412.824 145.008 412.429 145.424 411.896 145.712C411.362 146 410.765 146.144 410.104 146.144C409.058 146.144 408.205 145.824 407.544 145.184C406.882 144.533 406.552 143.595 406.552 142.368V137.264H407.656V142.24C407.656 143.189 407.89 143.915 408.36 144.416C408.84 144.917 409.49 145.168 410.312 145.168C411.154 145.168 411.826 144.901 412.328 144.368C412.829 143.835 413.08 143.051 413.08 142.016V137.264H414.2ZM419.613 138.208V143.632C419.613 144.165 419.714 144.533 419.917 144.736C420.119 144.939 420.477 145.04 420.989 145.04H422.013V146H420.813C420.023 146 419.437 145.819 419.053 145.456C418.669 145.083 418.477 144.475 418.477 143.632V138.208H417.261V137.264H418.477V135.072H419.613V137.264H422.013V138.208H419.613ZM426.364 139.184C426.641 138.597 427.078 138.112 427.676 137.728C428.284 137.333 429.004 137.136 429.836 137.136C430.625 137.136 431.334 137.323 431.964 137.696C432.604 138.059 433.1 138.581 433.452 139.264C433.814 139.936 433.996 140.72 433.996 141.616C433.996 142.512 433.814 143.301 433.452 143.984C433.1 144.667 432.604 145.195 431.964 145.568C431.334 145.941 430.625 146.128 429.836 146.128C429.014 146.128 428.3 145.936 427.692 145.552C427.084 145.157 426.641 144.667 426.364 144.08V150.128H425.26V137.264H426.364V139.184ZM432.86 141.616C432.86 140.891 432.716 140.267 432.428 139.744C432.15 139.211 431.766 138.805 431.276 138.528C430.785 138.251 430.23 138.112 429.612 138.112C429.014 138.112 428.465 138.256 427.964 138.544C427.473 138.832 427.084 139.243 426.796 139.776C426.508 140.309 426.364 140.928 426.364 141.632C426.364 142.336 426.508 142.955 426.796 143.488C427.084 144.021 427.473 144.432 427.964 144.72C428.465 145.008 429.014 145.152 429.612 145.152C430.23 145.152 430.785 145.013 431.276 144.736C431.766 144.448 432.15 144.037 432.428 143.504C432.716 142.96 432.86 142.331 432.86 141.616ZM441.281 146.128C440.459 146.128 439.718 145.947 439.057 145.584C438.406 145.211 437.889 144.688 437.505 144.016C437.131 143.333 436.945 142.539 436.945 141.632C436.945 140.725 437.137 139.936 437.521 139.264C437.905 138.581 438.427 138.059 439.089 137.696C439.75 137.323 440.491 137.136 441.313 137.136C442.134 137.136 442.875 137.323 443.537 137.696C444.209 138.059 444.731 138.581 445.105 139.264C445.489 139.936 445.681 140.725 445.681 141.632C445.681 142.528 445.489 143.317 445.105 144C444.721 144.683 444.193 145.211 443.521 145.584C442.849 145.947 442.102 146.128 441.281 146.128ZM441.281 145.152C441.857 145.152 442.39 145.024 442.881 144.768C443.371 144.501 443.766 144.107 444.065 143.584C444.374 143.051 444.529 142.4 444.529 141.632C444.529 140.864 444.379 140.219 444.081 139.696C443.782 139.163 443.387 138.768 442.897 138.512C442.406 138.245 441.873 138.112 441.297 138.112C440.721 138.112 440.187 138.245 439.697 138.512C439.206 138.768 438.811 139.163 438.513 139.696C438.225 140.219 438.081 140.864 438.081 141.632C438.081 142.4 438.225 143.051 438.513 143.584C438.811 144.107 439.201 144.501 439.681 144.768C440.171 145.024 440.705 145.152 441.281 145.152ZM452.13 146.128C451.128 146.128 450.306 145.899 449.666 145.44C449.037 144.971 448.685 144.336 448.61 143.536H449.762C449.816 144.027 450.045 144.427 450.45 144.736C450.866 145.035 451.421 145.184 452.114 145.184C452.722 145.184 453.197 145.04 453.538 144.752C453.89 144.464 454.066 144.107 454.066 143.68C454.066 143.381 453.97 143.136 453.778 142.944C453.586 142.752 453.341 142.603 453.042 142.496C452.754 142.379 452.36 142.256 451.858 142.128C451.208 141.957 450.68 141.787 450.274 141.616C449.869 141.445 449.522 141.195 449.234 140.864C448.957 140.523 448.818 140.069 448.818 139.504C448.818 139.077 448.946 138.683 449.202 138.32C449.458 137.957 449.821 137.669 450.29 137.456C450.76 137.243 451.293 137.136 451.89 137.136C452.829 137.136 453.586 137.376 454.162 137.856C454.738 138.325 455.048 138.976 455.09 139.808H453.97C453.938 139.296 453.736 138.885 453.362 138.576C453 138.256 452.498 138.096 451.858 138.096C451.293 138.096 450.834 138.229 450.482 138.496C450.13 138.763 449.954 139.093 449.954 139.488C449.954 139.829 450.056 140.112 450.258 140.336C450.472 140.549 450.733 140.72 451.042 140.848C451.352 140.965 451.768 141.099 452.29 141.248C452.92 141.419 453.421 141.584 453.794 141.744C454.168 141.904 454.488 142.139 454.754 142.448C455.021 142.757 455.16 143.168 455.17 143.68C455.17 144.149 455.042 144.571 454.786 144.944C454.53 145.307 454.173 145.595 453.714 145.808C453.256 146.021 452.728 146.128 452.13 146.128ZM460.134 138.208V143.632C460.134 144.165 460.236 144.533 460.438 144.736C460.641 144.939 460.998 145.04 461.51 145.04H462.534V146H461.334C460.545 146 459.958 145.819 459.574 145.456C459.19 145.083 458.998 144.475 458.998 143.632V138.208H457.782V137.264H458.998V135.072H460.134V137.264H462.534V138.208H460.134ZM468.79 146.128C467.787 146.128 466.966 145.899 466.326 145.44C465.696 144.971 465.344 144.336 465.27 143.536H466.422C466.475 144.027 466.704 144.427 467.11 144.736C467.526 145.035 468.08 145.184 468.774 145.184C469.382 145.184 469.856 145.04 470.198 144.752C470.55 144.464 470.726 144.107 470.726 143.68C470.726 143.381 470.63 143.136 470.438 142.944C470.246 142.752 470 142.603 469.702 142.496C469.414 142.379 469.019 142.256 468.518 142.128C467.867 141.957 467.339 141.787 466.934 141.616C466.528 141.445 466.182 141.195 465.894 140.864C465.616 140.523 465.478 140.069 465.478 139.504C465.478 139.077 465.606 138.683 465.862 138.32C466.118 137.957 466.48 137.669 466.95 137.456C467.419 137.243 467.952 137.136 468.55 137.136C469.488 137.136 470.246 137.376 470.822 137.856C471.398 138.325 471.707 138.976 471.75 139.808H470.63C470.598 139.296 470.395 138.885 470.022 138.576C469.659 138.256 469.158 138.096 468.518 138.096C467.952 138.096 467.494 138.229 467.142 138.496C466.79 138.763 466.614 139.093 466.614 139.488C466.614 139.829 466.715 140.112 466.918 140.336C467.131 140.549 467.392 140.72 467.702 140.848C468.011 140.965 468.427 141.099 468.95 141.248C469.579 141.419 470.08 141.584 470.454 141.744C470.827 141.904 471.147 142.139 471.414 142.448C471.68 142.757 471.819 143.168 471.83 143.68C471.83 144.149 471.702 144.571 471.446 144.944C471.19 145.307 470.832 145.595 470.374 145.808C469.915 146.021 469.387 146.128 468.79 146.128Z" fill="white"/>
<path fill-rule="evenodd" clip-rule="evenodd" d="M540 195.992V171.992H324.154V170.992H431.158V152H432.158V170.992H540H540.592H541V195.992H540ZM322.315 170.992V195.992H323.315V170.992H322.315Z" fill="white"/>
<path d="M88.4651 42L87.9833 41.8663L88.085 41.5H88.4651V42ZM275.354 41.6464C275.549 41.8417 275.549 42.1583 275.354 42.3536L272.172 45.5355C271.976 45.7308 271.66 45.7308 271.464 45.5355C271.269 45.3403 271.269 45.0237 271.464 44.8284L274.293 42L271.464 39.1716C271.269 38.9763 271.269 38.6597 271.464 38.4645C271.66 38.2692 271.976 38.2692 272.172 38.4645L275.354 41.6464ZM35.5182 230.866L87.9833 41.8663L88.9469 42.1337L36.4818 231.134L35.5182 230.866ZM88.4651 41.5H275V42.5H88.4651V41.5Z" fill="white"/>
<path d="M88.4651 547L87.9833 547.134L88.085 547.5H88.4651V547ZM275.354 547.354C275.549 547.158 275.549 546.842 275.354 546.646L272.172 543.464C271.976 543.269 271.66 543.269 271.464 543.464C271.269 543.66 271.269 543.976 271.464 544.172L274.293 547L271.464 549.828C271.269 550.024 271.269 550.34 271.464 550.536C271.66 550.731 271.976 550.731 272.172 550.536L275.354 547.354ZM35.5182 358.134L87.9833 547.134L88.9469 546.866L36.4818 357.866L35.5182 358.134ZM88.4651 547.5H275V546.5H88.4651V547.5Z" fill="white"/>
<g filter="url(#filter4_bi_608_2614)">
<rect x="277" y="505" width="309" height="81" fill="url(#paint8_radial_608_2614)" fill-opacity="0.35"/>
<rect x="276.699" y="504.699" width="309.602" height="81.6021" stroke="url(#paint9_linear_608_2614)" stroke-width="0.602107"/>
<path d="M347.473 540.16V545.38H352.773V546.54H347.473V551.84H353.373V553H346.073V539H353.373V540.16H347.473ZM365.712 539.02V540.18H361.832V553H360.432V540.18H356.532V539.02H365.712ZM379.703 539.02V553H378.303V546.46H370.723V553H369.323V539.02H370.723V545.3H378.303V539.02H379.703ZM398.745 539.02V540.18H392.585V545.4H397.785V546.56H392.585V553H391.185V539.02H398.745ZM412.328 546.98C412.328 547.46 412.315 547.827 412.288 548.08H403.228C403.268 548.907 403.468 549.613 403.828 550.2C404.188 550.787 404.662 551.233 405.248 551.54C405.835 551.833 406.475 551.98 407.168 551.98C408.075 551.98 408.835 551.76 409.448 551.32C410.075 550.88 410.488 550.287 410.688 549.54H412.168C411.902 550.607 411.328 551.48 410.448 552.16C409.582 552.827 408.488 553.16 407.168 553.16C406.142 553.16 405.222 552.933 404.408 552.48C403.595 552.013 402.955 551.36 402.488 550.52C402.035 549.667 401.808 548.673 401.808 547.54C401.808 546.407 402.035 545.413 402.488 544.56C402.942 543.707 403.575 543.053 404.388 542.6C405.202 542.147 406.128 541.92 407.168 541.92C408.208 541.92 409.115 542.147 409.888 542.6C410.675 543.053 411.275 543.667 411.688 544.44C412.115 545.2 412.328 546.047 412.328 546.98ZM410.908 546.94C410.922 546.127 410.755 545.433 410.408 544.86C410.075 544.287 409.615 543.853 409.028 543.56C408.442 543.267 407.802 543.12 407.108 543.12C406.068 543.12 405.182 543.453 404.448 544.12C403.715 544.787 403.308 545.727 403.228 546.94H410.908ZM426.17 546.98C426.17 547.46 426.157 547.827 426.13 548.08H417.07C417.11 548.907 417.31 549.613 417.67 550.2C418.03 550.787 418.503 551.233 419.09 551.54C419.677 551.833 420.317 551.98 421.01 551.98C421.917 551.98 422.677 551.76 423.29 551.32C423.917 550.88 424.33 550.287 424.53 549.54H426.01C425.743 550.607 425.17 551.48 424.29 552.16C423.423 552.827 422.33 553.16 421.01 553.16C419.983 553.16 419.063 552.933 418.25 552.48C417.437 552.013 416.797 551.36 416.33 550.52C415.877 549.667 415.65 548.673 415.65 547.54C415.65 546.407 415.877 545.413 416.33 544.56C416.783 543.707 417.417 543.053 418.23 542.6C419.043 542.147 419.97 541.92 421.01 541.92C422.05 541.92 422.957 542.147 423.73 542.6C424.517 543.053 425.117 543.667 425.53 544.44C425.957 545.2 426.17 546.047 426.17 546.98ZM424.75 546.94C424.763 546.127 424.597 545.433 424.25 544.86C423.917 544.287 423.457 543.853 422.87 543.56C422.283 543.267 421.643 543.12 420.95 543.12C419.91 543.12 419.023 543.453 418.29 544.12C417.557 544.787 417.15 545.727 417.07 546.94H424.75ZM429.491 547.52C429.491 546.4 429.718 545.42 430.171 544.58C430.625 543.727 431.245 543.073 432.031 542.62C432.831 542.153 433.731 541.92 434.731 541.92C435.691 541.92 436.558 542.153 437.331 542.62C438.105 543.087 438.671 543.693 439.031 544.44V538.2H440.431V553H439.031V550.56C438.698 551.32 438.151 551.947 437.391 552.44C436.631 552.92 435.738 553.16 434.711 553.16C433.711 553.16 432.811 552.927 432.011 552.46C431.225 551.993 430.605 551.333 430.151 550.48C429.711 549.627 429.491 548.64 429.491 547.52ZM439.031 547.54C439.031 546.66 438.851 545.887 438.491 545.22C438.131 544.553 437.638 544.04 437.011 543.68C436.398 543.32 435.718 543.14 434.971 543.14C434.198 543.14 433.505 543.313 432.891 543.66C432.278 544.007 431.791 544.513 431.431 545.18C431.085 545.833 430.911 546.613 430.911 547.52C430.911 548.413 431.085 549.2 431.431 549.88C431.791 550.547 432.278 551.06 432.891 551.42C433.505 551.767 434.198 551.94 434.971 551.94C435.718 551.94 436.398 551.76 437.011 551.4C437.638 551.04 438.131 550.527 438.491 549.86C438.851 549.193 439.031 548.42 439.031 547.54ZM454.907 546.98C454.907 547.46 454.894 547.827 454.867 548.08H445.807C445.847 548.907 446.047 549.613 446.407 550.2C446.767 550.787 447.241 551.233 447.827 551.54C448.414 551.833 449.054 551.98 449.747 551.98C450.654 551.98 451.414 551.76 452.027 551.32C452.654 550.88 453.067 550.287 453.267 549.54H454.747C454.481 550.607 453.907 551.48 453.027 552.16C452.161 552.827 451.067 553.16 449.747 553.16C448.721 553.16 447.801 552.933 446.987 552.48C446.174 552.013 445.534 551.36 445.067 550.52C444.614 549.667 444.387 548.673 444.387 547.54C444.387 546.407 444.614 545.413 445.067 544.56C445.521 543.707 446.154 543.053 446.967 542.6C447.781 542.147 448.707 541.92 449.747 541.92C450.787 541.92 451.694 542.147 452.467 542.6C453.254 543.053 453.854 543.667 454.267 544.44C454.694 545.2 454.907 546.047 454.907 546.98ZM453.487 546.94C453.501 546.127 453.334 545.433 452.987 544.86C452.654 544.287 452.194 543.853 451.607 543.56C451.021 543.267 450.381 543.12 449.687 543.12C448.647 543.12 447.761 543.453 447.027 544.12C446.294 544.787 445.887 545.727 445.807 546.94H453.487ZM460.269 544.02C460.575 543.34 461.042 542.813 461.669 542.44C462.309 542.067 463.089 541.88 464.009 541.88V543.34H463.629C462.615 543.34 461.802 543.613 461.189 544.16C460.575 544.707 460.269 545.62 460.269 546.9V553H458.869V542.08H460.269V544.02ZM483.343 543.04C483.343 544.24 482.95 545.207 482.163 545.94C481.376 546.673 480.196 547.04 478.623 547.04H475.803V553H474.403V539.02H478.623C480.183 539.02 481.356 539.387 482.143 540.12C482.943 540.853 483.343 541.827 483.343 543.04ZM478.623 545.84C480.81 545.84 481.903 544.907 481.903 543.04C481.903 542.107 481.643 541.4 481.123 540.92C480.603 540.44 479.77 540.2 478.623 540.2H475.803V545.84H478.623ZM491.872 553.16C490.846 553.16 489.919 552.933 489.092 552.48C488.279 552.013 487.632 551.36 487.152 550.52C486.686 549.667 486.452 548.673 486.452 547.54C486.452 546.407 486.692 545.42 487.172 544.58C487.652 543.727 488.306 543.073 489.132 542.62C489.959 542.153 490.886 541.92 491.912 541.92C492.939 541.92 493.866 542.153 494.692 542.62C495.532 543.073 496.186 543.727 496.652 544.58C497.132 545.42 497.372 546.407 497.372 547.54C497.372 548.66 497.132 549.647 496.652 550.5C496.172 551.353 495.512 552.013 494.672 552.48C493.832 552.933 492.899 553.16 491.872 553.16ZM491.872 551.94C492.592 551.94 493.259 551.78 493.872 551.46C494.486 551.127 494.979 550.633 495.352 549.98C495.739 549.313 495.932 548.5 495.932 547.54C495.932 546.58 495.746 545.773 495.372 545.12C494.999 544.453 494.506 543.96 493.892 543.64C493.279 543.307 492.612 543.14 491.892 543.14C491.172 543.14 490.506 543.307 489.892 543.64C489.279 543.96 488.786 544.453 488.412 545.12C488.052 545.773 487.872 546.58 487.872 547.54C487.872 548.5 488.052 549.313 488.412 549.98C488.786 550.633 489.272 551.127 489.872 551.46C490.486 551.78 491.152 551.94 491.872 551.94ZM506.104 553.16C505.078 553.16 504.151 552.933 503.324 552.48C502.511 552.013 501.864 551.36 501.384 550.52C500.918 549.667 500.684 548.673 500.684 547.54C500.684 546.407 500.924 545.42 501.404 544.58C501.884 543.727 502.538 543.073 503.364 542.62C504.191 542.153 505.118 541.92 506.144 541.92C507.171 541.92 508.098 542.153 508.924 542.62C509.764 543.073 510.418 543.727 510.884 544.58C511.364 545.42 511.604 546.407 511.604 547.54C511.604 548.66 511.364 549.647 510.884 550.5C510.404 551.353 509.744 552.013 508.904 552.48C508.064 552.933 507.131 553.16 506.104 553.16ZM506.104 551.94C506.824 551.94 507.491 551.78 508.104 551.46C508.718 551.127 509.211 550.633 509.584 549.98C509.971 549.313 510.164 548.5 510.164 547.54C510.164 546.58 509.978 545.773 509.604 545.12C509.231 544.453 508.738 543.96 508.124 543.64C507.511 543.307 506.844 543.14 506.124 543.14C505.404 543.14 504.738 543.307 504.124 543.64C503.511 543.96 503.018 544.453 502.644 545.12C502.284 545.773 502.104 546.58 502.104 547.54C502.104 548.5 502.284 549.313 502.644 549.98C503.018 550.633 503.504 551.127 504.104 551.46C504.718 551.78 505.384 551.94 506.104 551.94ZM516.956 538.2V553H515.556V538.2H516.956Z" fill="white"/>
</g>
<g filter="url(#filter5_bi_608_2614)">
<rect x="277" y="704" width="91" height="34" fill="url(#paint10_radial_608_2614)" fill-opacity="0.35"/>
<rect x="276.699" y="703.699" width="91.6021" height="34.6021" stroke="url(#paint11_linear_608_2614)" stroke-width="0.602107"/>
<path d="M323.79 721.02L328.03 728H326.47L322.91 722.16L319.53 728H317.97L322.19 720.96L317.97 714.02H319.53L323.07 719.84L326.49 714.02H328.05L323.79 721.02Z" fill="white"/>
</g>
<g filter="url(#filter6_bi_608_2614)">
<rect x="386" y="704" width="91" height="34" fill="url(#paint12_radial_608_2614)" fill-opacity="0.35"/>
<rect x="385.699" y="703.699" width="91.6021" height="34.6021" stroke="url(#paint13_linear_608_2614)" stroke-width="0.602107"/>
<path d="M437.195 714.02L432.715 722.56V728H431.315V722.56L426.795 714.02H428.375L432.015 721.28L435.635 714.02H437.195Z" fill="white"/>
</g>
<g filter="url(#filter7_bi_608_2614)">
<rect x="495" y="704" width="91" height="34" fill="url(#paint14_radial_608_2614)" fill-opacity="0.35"/>
<rect x="494.699" y="703.699" width="91.6021" height="34.6021" stroke="url(#paint15_linear_608_2614)" stroke-width="0.602107"/>
<path d="M537.746 726.76H544.886V728H536.106V726.88L543.146 715.26H536.226V714.02H544.786V715.14L537.746 726.76Z" fill="white"/>
</g>
<path d="M431.646 634.36C431.842 634.555 432.158 634.555 432.354 634.36L435.536 631.178C435.731 630.983 435.731 630.666 435.536 630.471C435.34 630.276 435.024 630.276 434.828 630.471L432 633.299L429.172 630.471C428.976 630.276 428.66 630.276 428.464 630.471C428.269 630.666 428.269 630.983 428.464 631.178L431.646 634.36ZM431.5 585.996V634.007H432.5V585.996H431.5Z" fill="white"/>
<path d="M397.646 650.112C396.612 650.112 395.673 649.872 394.83 649.392C393.988 648.901 393.321 648.224 392.83 647.36C392.35 646.485 392.11 645.499 392.11 644.4C392.11 643.301 392.35 642.32 392.83 641.456C393.321 640.581 393.988 639.904 394.83 639.424C395.673 638.933 396.612 638.688 397.646 638.688C398.692 638.688 399.636 638.933 400.478 639.424C401.321 639.904 401.982 640.581 402.462 641.456C402.942 642.32 403.182 643.301 403.182 644.4C403.182 645.499 402.942 646.485 402.462 647.36C401.982 648.224 401.321 648.901 400.478 649.392C399.636 649.872 398.692 650.112 397.646 650.112ZM397.646 649.136C398.478 649.136 399.225 648.944 399.886 648.56C400.548 648.176 401.07 647.627 401.454 646.912C401.838 646.187 402.03 645.349 402.03 644.4C402.03 643.451 401.838 642.619 401.454 641.904C401.07 641.189 400.548 640.64 399.886 640.256C399.225 639.872 398.478 639.68 397.646 639.68C396.814 639.68 396.068 639.872 395.406 640.256C394.745 640.64 394.222 641.189 393.838 641.904C393.454 642.619 393.262 643.451 393.262 644.4C393.262 645.349 393.454 646.187 393.838 646.912C394.222 647.627 394.745 648.176 395.406 648.56C396.068 648.944 396.814 649.136 397.646 649.136ZM414.2 641.264V650H413.08V648.464C412.824 649.008 412.429 649.424 411.896 649.712C411.362 650 410.765 650.144 410.104 650.144C409.058 650.144 408.205 649.824 407.544 649.184C406.882 648.533 406.552 647.595 406.552 646.368V641.264H407.656V646.24C407.656 647.189 407.89 647.915 408.36 648.416C408.84 648.917 409.49 649.168 410.312 649.168C411.154 649.168 411.826 648.901 412.328 648.368C412.829 647.835 413.08 647.051 413.08 646.016V641.264H414.2ZM419.613 642.208V647.632C419.613 648.165 419.714 648.533 419.917 648.736C420.119 648.939 420.477 649.04 420.989 649.04H422.013V650H420.813C420.023 650 419.437 649.819 419.053 649.456C418.669 649.083 418.477 648.475 418.477 647.632V642.208H417.261V641.264H418.477V639.072H419.613V641.264H422.013V642.208H419.613ZM426.364 643.184C426.641 642.597 427.078 642.112 427.676 641.728C428.284 641.333 429.004 641.136 429.836 641.136C430.625 641.136 431.334 641.323 431.964 641.696C432.604 642.059 433.1 642.581 433.452 643.264C433.814 643.936 433.996 644.72 433.996 645.616C433.996 646.512 433.814 647.301 433.452 647.984C433.1 648.667 432.604 649.195 431.964 649.568C431.334 649.941 430.625 650.128 429.836 650.128C429.014 650.128 428.3 649.936 427.692 649.552C427.084 649.157 426.641 648.667 426.364 648.08V654.128H425.26V641.264H426.364V643.184ZM432.86 645.616C432.86 644.891 432.716 644.267 432.428 643.744C432.15 643.211 431.766 642.805 431.276 642.528C430.785 642.251 430.23 642.112 429.612 642.112C429.014 642.112 428.465 642.256 427.964 642.544C427.473 642.832 427.084 643.243 426.796 643.776C426.508 644.309 426.364 644.928 426.364 645.632C426.364 646.336 426.508 646.955 426.796 647.488C427.084 648.021 427.473 648.432 427.964 648.72C428.465 649.008 429.014 649.152 429.612 649.152C430.23 649.152 430.785 649.013 431.276 648.736C431.766 648.448 432.15 648.037 432.428 647.504C432.716 646.96 432.86 646.331 432.86 645.616ZM441.281 650.128C440.459 650.128 439.718 649.947 439.057 649.584C438.406 649.211 437.889 648.688 437.505 648.016C437.131 647.333 436.945 646.539 436.945 645.632C436.945 644.725 437.137 643.936 437.521 643.264C437.905 642.581 438.427 642.059 439.089 641.696C439.75 641.323 440.491 641.136 441.313 641.136C442.134 641.136 442.875 641.323 443.537 641.696C444.209 642.059 444.731 642.581 445.105 643.264C445.489 643.936 445.681 644.725 445.681 645.632C445.681 646.528 445.489 647.317 445.105 648C444.721 648.683 444.193 649.211 443.521 649.584C442.849 649.947 442.102 650.128 441.281 650.128ZM441.281 649.152C441.857 649.152 442.39 649.024 442.881 648.768C443.371 648.501 443.766 648.107 444.065 647.584C444.374 647.051 444.529 646.4 444.529 645.632C444.529 644.864 444.379 644.219 444.081 643.696C443.782 643.163 443.387 642.768 442.897 642.512C442.406 642.245 441.873 642.112 441.297 642.112C440.721 642.112 440.187 642.245 439.697 642.512C439.206 642.768 438.811 643.163 438.513 643.696C438.225 644.219 438.081 644.864 438.081 645.632C438.081 646.4 438.225 647.051 438.513 647.584C438.811 648.107 439.201 648.501 439.681 648.768C440.171 649.024 440.705 649.152 441.281 649.152ZM452.13 650.128C451.128 650.128 450.306 649.899 449.666 649.44C449.037 648.971 448.685 648.336 448.61 647.536H449.762C449.816 648.027 450.045 648.427 450.45 648.736C450.866 649.035 451.421 649.184 452.114 649.184C452.722 649.184 453.197 649.04 453.538 648.752C453.89 648.464 454.066 648.107 454.066 647.68C454.066 647.381 453.97 647.136 453.778 646.944C453.586 646.752 453.341 646.603 453.042 646.496C452.754 646.379 452.36 646.256 451.858 646.128C451.208 645.957 450.68 645.787 450.274 645.616C449.869 645.445 449.522 645.195 449.234 644.864C448.957 644.523 448.818 644.069 448.818 643.504C448.818 643.077 448.946 642.683 449.202 642.32C449.458 641.957 449.821 641.669 450.29 641.456C450.76 641.243 451.293 641.136 451.89 641.136C452.829 641.136 453.586 641.376 454.162 641.856C454.738 642.325 455.048 642.976 455.09 643.808H453.97C453.938 643.296 453.736 642.885 453.362 642.576C453 642.256 452.498 642.096 451.858 642.096C451.293 642.096 450.834 642.229 450.482 642.496C450.13 642.763 449.954 643.093 449.954 643.488C449.954 643.829 450.056 644.112 450.258 644.336C450.472 644.549 450.733 644.72 451.042 644.848C451.352 644.965 451.768 645.099 452.29 645.248C452.92 645.419 453.421 645.584 453.794 645.744C454.168 645.904 454.488 646.139 454.754 646.448C455.021 646.757 455.16 647.168 455.17 647.68C455.17 648.149 455.042 648.571 454.786 648.944C454.53 649.307 454.173 649.595 453.714 649.808C453.256 650.021 452.728 650.128 452.13 650.128ZM460.134 642.208V647.632C460.134 648.165 460.236 648.533 460.438 648.736C460.641 648.939 460.998 649.04 461.51 649.04H462.534V650H461.334C460.545 650 459.958 649.819 459.574 649.456C459.19 649.083 458.998 648.475 458.998 647.632V642.208H457.782V641.264H458.998V639.072H460.134V641.264H462.534V642.208H460.134ZM468.79 650.128C467.787 650.128 466.966 649.899 466.326 649.44C465.696 648.971 465.344 648.336 465.27 647.536H466.422C466.475 648.027 466.704 648.427 467.11 648.736C467.526 649.035 468.08 649.184 468.774 649.184C469.382 649.184 469.856 649.04 470.198 648.752C470.55 648.464 470.726 648.107 470.726 647.68C470.726 647.381 470.63 647.136 470.438 646.944C470.246 646.752 470 646.603 469.702 646.496C469.414 646.379 469.019 646.256 468.518 646.128C467.867 645.957 467.339 645.787 466.934 645.616C466.528 645.445 466.182 645.195 465.894 644.864C465.616 644.523 465.478 644.069 465.478 643.504C465.478 643.077 465.606 642.683 465.862 642.32C466.118 641.957 466.48 641.669 466.95 641.456C467.419 641.243 467.952 641.136 468.55 641.136C469.488 641.136 470.246 641.376 470.822 641.856C471.398 642.325 471.707 642.976 471.75 643.808H470.63C470.598 643.296 470.395 642.885 470.022 642.576C469.659 642.256 469.158 642.096 468.518 642.096C467.952 642.096 467.494 642.229 467.142 642.496C466.79 642.763 466.614 643.093 466.614 643.488C466.614 643.829 466.715 644.112 466.918 644.336C467.131 644.549 467.392 644.72 467.702 644.848C468.011 644.965 468.427 645.099 468.95 645.248C469.579 645.419 470.08 645.584 470.454 645.744C470.827 645.904 471.147 646.139 471.414 646.448C471.68 646.757 471.819 647.168 471.83 647.68C471.83 648.149 471.702 648.571 471.446 648.944C471.19 649.307 470.832 649.595 470.374 649.808C469.915 650.021 469.387 650.128 468.79 650.128Z" fill="white"/>
<path fill-rule="evenodd" clip-rule="evenodd" d="M540 699.992V675.992H324.154V674.992H431.158V656H432.158V674.992H540H540.592H541V699.992H540ZM322.315 674.992V699.992H323.315V674.992H322.315Z" fill="white"/>
<defs>
<filter id="filter0_bi_608_2614" x="253.398" y="-22.6021" width="356.204" height="128.204" filterUnits="userSpaceOnUse" color-interpolation-filters="sRGB">
<feFlood flood-opacity="0" result="BackgroundImageFix"/>
<feGaussianBlur in="BackgroundImageFix" stdDeviation="11.5002"/>
<feComposite in2="SourceAlpha" operator="in" result="effect1_backgroundBlur_608_2614"/>
<feBlend mode="normal" in="SourceGraphic" in2="effect1_backgroundBlur_608_2614" result="shape"/>
<feColorMatrix in="SourceAlpha" type="matrix" values="0 0 0 0 0 0 0 0 0 0 0 0 0 0 0 0 0 0 127 0" result="hardAlpha"/>
<feOffset dx="3.01054" dy="3.01054"/>
<feGaussianBlur stdDeviation="14.8419"/>
<feComposite in2="hardAlpha" operator="arithmetic" k2="-1" k3="1"/>
<feColorMatrix type="matrix" values="0 0 0 0 0.273161 0 0 0 0 0.273161 0 0 0 0 0.273161 0 0 0 0.1 0"/>
<feBlend mode="normal" in2="shape" result="effect2_innerShadow_608_2614"/>
</filter>
<filter id="filter1_bi_608_2614" x="253.398" y="176.398" width="138.204" height="81.2041" filterUnits="userSpaceOnUse" color-interpolation-filters="sRGB">
<feFlood flood-opacity="0" result="BackgroundImageFix"/>
<feGaussianBlur in="BackgroundImageFix" stdDeviation="11.5002"/>
<feComposite in2="SourceAlpha" operator="in" result="effect1_backgroundBlur_608_2614"/>
<feBlend mode="normal" in="SourceGraphic" in2="effect1_backgroundBlur_608_2614" result="shape"/>
<feColorMatrix in="SourceAlpha" type="matrix" values="0 0 0 0 0 0 0 0 0 0 0 0 0 0 0 0 0 0 127 0" result="hardAlpha"/>
<feOffset dx="3.01054" dy="3.01054"/>
<feGaussianBlur stdDeviation="14.8419"/>
<feComposite in2="hardAlpha" operator="arithmetic" k2="-1" k3="1"/>
<feColorMatrix type="matrix" values="0 0 0 0 0.273161 0 0 0 0 0.273161 0 0 0 0 0.273161 0 0 0 0.1 0"/>
<feBlend mode="normal" in2="shape" result="effect2_innerShadow_608_2614"/>
</filter>
<filter id="filter2_bi_608_2614" x="362.398" y="176.398" width="138.204" height="81.2041" filterUnits="userSpaceOnUse" color-interpolation-filters="sRGB">
<feFlood flood-opacity="0" result="BackgroundImageFix"/>
<feGaussianBlur in="BackgroundImageFix" stdDeviation="11.5002"/>
<feComposite in2="SourceAlpha" operator="in" result="effect1_backgroundBlur_608_2614"/>
<feBlend mode="normal" in="SourceGraphic" in2="effect1_backgroundBlur_608_2614" result="shape"/>
<feColorMatrix in="SourceAlpha" type="matrix" values="0 0 0 0 0 0 0 0 0 0 0 0 0 0 0 0 0 0 127 0" result="hardAlpha"/>
<feOffset dx="3.01054" dy="3.01054"/>
<feGaussianBlur stdDeviation="14.8419"/>
<feComposite in2="hardAlpha" operator="arithmetic" k2="-1" k3="1"/>
<feColorMatrix type="matrix" values="0 0 0 0 0.273161 0 0 0 0 0.273161 0 0 0 0 0.273161 0 0 0 0.1 0"/>
<feBlend mode="normal" in2="shape" result="effect2_innerShadow_608_2614"/>
</filter>
<filter id="filter3_bi_608_2614" x="471.398" y="176.398" width="138.204" height="81.2041" filterUnits="userSpaceOnUse" color-interpolation-filters="sRGB">
<feFlood flood-opacity="0" result="BackgroundImageFix"/>
<feGaussianBlur in="BackgroundImageFix" stdDeviation="11.5002"/>
<feComposite in2="SourceAlpha" operator="in" result="effect1_backgroundBlur_608_2614"/>
<feBlend mode="normal" in="SourceGraphic" in2="effect1_backgroundBlur_608_2614" result="shape"/>
<feColorMatrix in="SourceAlpha" type="matrix" values="0 0 0 0 0 0 0 0 0 0 0 0 0 0 0 0 0 0 127 0" result="hardAlpha"/>
<feOffset dx="3.01054" dy="3.01054"/>
<feGaussianBlur stdDeviation="14.8419"/>
<feComposite in2="hardAlpha" operator="arithmetic" k2="-1" k3="1"/>
<feColorMatrix type="matrix" values="0 0 0 0 0.273161 0 0 0 0 0.273161 0 0 0 0 0.273161 0 0 0 0.1 0"/>
<feBlend mode="normal" in2="shape" result="effect2_innerShadow_608_2614"/>
</filter>
<filter id="filter4_bi_608_2614" x="253.398" y="481.398" width="356.204" height="128.204" filterUnits="userSpaceOnUse" color-interpolation-filters="sRGB">
<feFlood flood-opacity="0" result="BackgroundImageFix"/>
<feGaussianBlur in="BackgroundImageFix" stdDeviation="11.5002"/>
<feComposite in2="SourceAlpha" operator="in" result="effect1_backgroundBlur_608_2614"/>
<feBlend mode="normal" in="SourceGraphic" in2="effect1_backgroundBlur_608_2614" result="shape"/>
<feColorMatrix in="SourceAlpha" type="matrix" values="0 0 0 0 0 0 0 0 0 0 0 0 0 0 0 0 0 0 127 0" result="hardAlpha"/>
<feOffset dx="3.01054" dy="3.01054"/>
<feGaussianBlur stdDeviation="14.8419"/>
<feComposite in2="hardAlpha" operator="arithmetic" k2="-1" k3="1"/>
<feColorMatrix type="matrix" values="0 0 0 0 0.273161 0 0 0 0 0.273161 0 0 0 0 0.273161 0 0 0 0.1 0"/>
<feBlend mode="normal" in2="shape" result="effect2_innerShadow_608_2614"/>
</filter>
<filter id="filter5_bi_608_2614" x="253.398" y="680.398" width="138.204" height="81.2041" filterUnits="userSpaceOnUse" color-interpolation-filters="sRGB">
<feFlood flood-opacity="0" result="BackgroundImageFix"/>
<feGaussianBlur in="BackgroundImageFix" stdDeviation="11.5002"/>
<feComposite in2="SourceAlpha" operator="in" result="effect1_backgroundBlur_608_2614"/>
<feBlend mode="normal" in="SourceGraphic" in2="effect1_backgroundBlur_608_2614" result="shape"/>
<feColorMatrix in="SourceAlpha" type="matrix" values="0 0 0 0 0 0 0 0 0 0 0 0 0 0 0 0 0 0 127 0" result="hardAlpha"/>
<feOffset dx="3.01054" dy="3.01054"/>
<feGaussianBlur stdDeviation="14.8419"/>
<feComposite in2="hardAlpha" operator="arithmetic" k2="-1" k3="1"/>
<feColorMatrix type="matrix" values="0 0 0 0 0.273161 0 0 0 0 0.273161 0 0 0 0 0.273161 0 0 0 0.1 0"/>
<feBlend mode="normal" in2="shape" result="effect2_innerShadow_608_2614"/>
</filter>
<filter id="filter6_bi_608_2614" x="362.398" y="680.398" width="138.204" height="81.2041" filterUnits="userSpaceOnUse" color-interpolation-filters="sRGB">
<feFlood flood-opacity="0" result="BackgroundImageFix"/>
<feGaussianBlur in="BackgroundImageFix" stdDeviation="11.5002"/>
<feComposite in2="SourceAlpha" operator="in" result="effect1_backgroundBlur_608_2614"/>
<feBlend mode="normal" in="SourceGraphic" in2="effect1_backgroundBlur_608_2614" result="shape"/>
<feColorMatrix in="SourceAlpha" type="matrix" values="0 0 0 0 0 0 0 0 0 0 0 0 0 0 0 0 0 0 127 0" result="hardAlpha"/>
<feOffset dx="3.01054" dy="3.01054"/>
<feGaussianBlur stdDeviation="14.8419"/>
<feComposite in2="hardAlpha" operator="arithmetic" k2="-1" k3="1"/>
<feColorMatrix type="matrix" values="0 0 0 0 0.273161 0 0 0 0 0.273161 0 0 0 0 0.273161 0 0 0 0.1 0"/>
<feBlend mode="normal" in2="shape" result="effect2_innerShadow_608_2614"/>
</filter>
<filter id="filter7_bi_608_2614" x="471.398" y="680.398" width="138.204" height="81.2041" filterUnits="userSpaceOnUse" color-interpolation-filters="sRGB">
<feFlood flood-opacity="0" result="BackgroundImageFix"/>
<feGaussianBlur in="BackgroundImageFix" stdDeviation="11.5002"/>
<feComposite in2="SourceAlpha" operator="in" result="effect1_backgroundBlur_608_2614"/>
<feBlend mode="normal" in="SourceGraphic" in2="effect1_backgroundBlur_608_2614" result="shape"/>
<feColorMatrix in="SourceAlpha" type="matrix" values="0 0 0 0 0 0 0 0 0 0 0 0 0 0 0 0 0 0 127 0" result="hardAlpha"/>
<feOffset dx="3.01054" dy="3.01054"/>
<feGaussianBlur stdDeviation="14.8419"/>
<feComposite in2="hardAlpha" operator="arithmetic" k2="-1" k3="1"/>
<feColorMatrix type="matrix" values="0 0 0 0 0.273161 0 0 0 0 0.273161 0 0 0 0 0.273161 0 0 0 0.1 0"/>
<feBlend mode="normal" in2="shape" result="effect2_innerShadow_608_2614"/>
</filter>
<radialGradient id="paint0_radial_608_2614" cx="0" cy="0" r="1" gradientUnits="userSpaceOnUse" gradientTransform="translate(431.5 2.20896) rotate(90) scale(79.791 304.387)">
<stop stop-color="#0044AA" stop-opacity="0.77"/>
<stop offset="1" stop-color="#041420" stop-opacity="0"/>
</radialGradient>
<linearGradient id="paint1_linear_608_2614" x1="431.5" y1="1" x2="431.023" y2="90.0245" gradientUnits="userSpaceOnUse">
<stop stop-color="#8087C7"/>
<stop offset="1" stop-color="#ABABAB"/>
</linearGradient>
<radialGradient id="paint2_radial_608_2614" cx="0" cy="0" r="1" gradientUnits="userSpaceOnUse" gradientTransform="translate(322.5 200.507) rotate(90) scale(33.4925 89.6416)">
<stop stop-color="#0044AA" stop-opacity="0.77"/>
<stop offset="1" stop-color="#041420" stop-opacity="0"/>
</radialGradient>
<linearGradient id="paint3_linear_608_2614" x1="322.5" y1="200" x2="322.214" y2="237.367" gradientUnits="userSpaceOnUse">
<stop stop-color="#8087C7"/>
<stop offset="1" stop-color="#ABABAB"/>
</linearGradient>
<radialGradient id="paint4_radial_608_2614" cx="0" cy="0" r="1" gradientUnits="userSpaceOnUse" gradientTransform="translate(431.5 200.507) rotate(90) scale(33.4925 89.6416)">
<stop stop-color="#0044AA" stop-opacity="0.77"/>
<stop offset="1" stop-color="#041420" stop-opacity="0"/>
</radialGradient>
<linearGradient id="paint5_linear_608_2614" x1="431.5" y1="200" x2="431.214" y2="237.367" gradientUnits="userSpaceOnUse">
<stop stop-color="#8087C7"/>
<stop offset="1" stop-color="#ABABAB"/>
</linearGradient>
<radialGradient id="paint6_radial_608_2614" cx="0" cy="0" r="1" gradientUnits="userSpaceOnUse" gradientTransform="translate(540.5 200.507) rotate(90) scale(33.4925 89.6416)">
<stop stop-color="#0044AA" stop-opacity="0.77"/>
<stop offset="1" stop-color="#041420" stop-opacity="0"/>
</radialGradient>
<linearGradient id="paint7_linear_608_2614" x1="540.5" y1="200" x2="540.214" y2="237.367" gradientUnits="userSpaceOnUse">
<stop stop-color="#8087C7"/>
<stop offset="1" stop-color="#ABABAB"/>
</linearGradient>
<radialGradient id="paint8_radial_608_2614" cx="0" cy="0" r="1" gradientUnits="userSpaceOnUse" gradientTransform="translate(431.5 506.209) rotate(90) scale(79.791 304.387)">
<stop stop-color="#707070"/>
<stop offset="1" stop-color="#041420" stop-opacity="0"/>
</radialGradient>
<linearGradient id="paint9_linear_608_2614" x1="431.5" y1="505" x2="431.023" y2="594.024" gradientUnits="userSpaceOnUse">
<stop stop-color="#487271"/>
<stop offset="1" stop-color="#ABABAB"/>
</linearGradient>
<radialGradient id="paint10_radial_608_2614" cx="0" cy="0" r="1" gradientUnits="userSpaceOnUse" gradientTransform="translate(322.5 704.507) rotate(90) scale(33.4925 89.6416)">
<stop stop-color="#707070"/>
<stop offset="1" stop-color="#041420" stop-opacity="0"/>
</radialGradient>
<linearGradient id="paint11_linear_608_2614" x1="322.5" y1="704" x2="322.214" y2="741.367" gradientUnits="userSpaceOnUse">
<stop stop-color="#487271"/>
<stop offset="1" stop-color="#ABABAB"/>
</linearGradient>
<radialGradient id="paint12_radial_608_2614" cx="0" cy="0" r="1" gradientUnits="userSpaceOnUse" gradientTransform="translate(431.5 704.507) rotate(90) scale(33.4925 89.6416)">
<stop stop-color="#707070"/>
<stop offset="1" stop-color="#041420" stop-opacity="0"/>
</radialGradient>
<linearGradient id="paint13_linear_608_2614" x1="431.5" y1="704" x2="431.214" y2="741.367" gradientUnits="userSpaceOnUse">
<stop stop-color="#487271"/>
<stop offset="1" stop-color="#ABABAB"/>
</linearGradient>
<radialGradient id="paint14_radial_608_2614" cx="0" cy="0" r="1" gradientUnits="userSpaceOnUse" gradientTransform="translate(540.5 704.507) rotate(90) scale(33.4925 89.6416)">
<stop stop-color="#707070"/>
<stop offset="1" stop-color="#041420" stop-opacity="0"/>
</radialGradient>
<linearGradient id="paint15_linear_608_2614" x1="540.5" y1="704" x2="540.214" y2="741.367" gradientUnits="userSpaceOnUse">
<stop stop-color="#487271"/>
<stop offset="1" stop-color="#ABABAB"/>
</linearGradient>
</defs>
</svg>
