<svg width="649" height="435" viewBox="0 0 649 435" fill="none" xmlns="http://www.w3.org/2000/svg">
<g filter="url(#filter0_bi_1110_1520)">
<rect x="0.85" y="0.85" width="647.624" height="433.3" rx="2.01237" stroke="#464646" stroke-width="0.3"/>
<path fill-rule="evenodd" clip-rule="evenodd" d="M87.5489 45.544C87.5489 45.2435 87.3053 45 87.0049 45C86.7045 45 86.4609 45.2435 86.4609 45.544V259.868V260.956H87.5489H591.265H591.809V259.868H591.265H87.5489V45.544Z" fill="white"/>
<path d="M64.2642 166.084H63.4143V163.917C63.4143 163.368 63.2726 162.943 62.9893 162.642C62.7024 162.341 62.3076 162.19 61.8047 162.19H61.794C61.2876 162.19 60.8927 162.341 60.6094 162.642C60.3261 162.943 60.1844 163.368 60.1844 163.917V166.084H59.3345V163.672C59.3345 163.191 59.4372 162.766 59.6426 162.397C59.848 162.029 60.1349 161.74 60.5032 161.531C60.8715 161.319 61.2982 161.213 61.7834 161.213H61.794C62.2792 161.213 62.7077 161.319 63.0796 161.531C63.4514 161.74 63.7418 162.029 63.9508 162.397C64.1597 162.766 64.2642 163.191 64.2642 163.672V166.084ZM67 166.562H59.3345V165.606H67V166.562ZM67 159.646H59.3345V156.718C59.3345 156.226 59.4301 155.798 59.6213 155.433C59.809 155.065 60.0729 154.78 60.4129 154.578C60.7528 154.376 61.153 154.275 61.6134 154.275H61.624C62.1553 154.275 62.6157 154.411 63.0052 154.684C63.3948 154.957 63.6657 155.334 63.818 155.815L67 154.041V155.162L63.9667 156.803C63.9667 156.811 63.9667 156.819 63.9667 156.83C63.9667 156.841 63.9667 156.85 63.9667 156.857V158.689H67V159.646ZM63.1168 158.689V156.803C63.1168 156.311 62.9911 155.932 62.7396 155.667C62.4846 155.398 62.1234 155.263 61.6559 155.263H61.6453C61.1884 155.263 60.8308 155.403 60.5722 155.683C60.3137 155.962 60.1844 156.35 60.1844 156.846V158.689H63.1168ZM67 152.538H59.3345V151.582H67V152.538ZM67.1806 146.54C67.1806 147.234 67.0177 147.835 66.6919 148.341C66.3661 148.848 65.9039 149.239 65.3054 149.515C64.7069 149.788 63.9968 149.924 63.1752 149.924H63.1646C62.3394 149.924 61.6276 149.788 61.0291 149.515C60.4306 149.239 59.9684 148.849 59.6426 148.346C59.3168 147.84 59.1539 147.24 59.1539 146.546C59.1539 146.007 59.2601 145.519 59.4726 145.079C59.6816 144.637 59.9737 144.272 60.3491 143.985C60.721 143.698 61.1513 143.518 61.64 143.443L61.6506 143.449V144.41L61.64 144.415C61.3106 144.5 61.0273 144.644 60.79 144.846C60.5492 145.048 60.3633 145.294 60.2322 145.584C60.1012 145.871 60.0357 146.191 60.0357 146.546C60.0357 147.034 60.1632 147.459 60.4182 147.821C60.6732 148.178 61.0344 148.454 61.5019 148.649C61.9693 148.844 62.5236 148.941 63.1646 148.941H63.1752C63.8127 148.941 64.3651 148.844 64.8326 148.649C65.3001 148.454 65.6613 148.178 65.9163 147.821C66.1713 147.459 66.2988 147.033 66.2988 146.54C66.2988 146.183 66.2421 145.859 66.1288 145.568C66.0119 145.278 65.8473 145.033 65.6348 144.835C65.4187 144.637 65.1637 144.499 64.8698 144.421L64.8592 144.41V143.443H64.8698C65.3373 143.528 65.7445 143.712 66.0916 143.996C66.4351 144.279 66.7025 144.639 66.8938 145.074C67.085 145.506 67.1806 145.995 67.1806 146.54ZM67 141.839H59.3345V137.09H60.1951V140.883H62.6546V137.286H63.5046V140.883H66.1394V137.09H67V141.839Z" fill="#CDCDCD"/>
<path d="M293.414 287.73V280.065H294.524L297.148 286.461H297.233L299.857 280.065H300.968V287.73H300.075V281.876H299.608L300.681 280.277L297.594 287.73H296.787L293.706 280.277L294.774 281.876H294.306V287.73H293.414ZM302.312 287.73L305.138 280.065H305.871V281.303H305.568L303.316 287.73H302.312ZM303.592 285.537L303.889 284.724H307.353L307.65 285.537H303.592ZM307.905 287.73L305.653 281.303V280.065H306.083L308.909 287.73H307.905ZM311.342 287.73V280.926H308.872V280.065H314.769V280.926H312.299V287.73H311.342ZM319.284 287.911C318.65 287.911 318.105 287.792 317.648 287.555C317.195 287.318 316.846 286.989 316.601 286.567C316.357 286.142 316.235 285.652 316.235 285.096V280.065H317.191V285.032C317.191 285.62 317.373 286.1 317.738 286.471C318.107 286.843 318.622 287.029 319.284 287.029C319.95 287.029 320.463 286.843 320.825 286.471C321.186 286.1 321.366 285.62 321.366 285.032V280.065H322.323V285.096C322.323 285.652 322.2 286.142 321.956 286.567C321.715 286.989 321.368 287.318 320.915 287.555C320.462 287.792 319.918 287.911 319.284 287.911ZM324.267 287.73V280.065H327.194C327.686 280.065 328.115 280.161 328.48 280.352C328.848 280.54 329.133 280.803 329.335 281.143C329.537 281.483 329.638 281.884 329.638 282.344V282.355C329.638 282.886 329.501 283.346 329.229 283.736C328.956 284.125 328.579 284.396 328.097 284.548L329.871 287.73H328.75L327.109 284.697C327.102 284.697 327.093 284.697 327.082 284.697C327.072 284.697 327.063 284.697 327.056 284.697H325.223V287.73H324.267ZM325.223 283.847H327.109C327.601 283.847 327.98 283.722 328.246 283.47C328.515 283.215 328.65 282.854 328.65 282.386V282.376C328.65 281.919 328.51 281.561 328.23 281.303C327.95 281.044 327.562 280.915 327.066 280.915H325.223V283.847ZM331.375 287.73V280.065H332.331V287.73H331.375ZM336.278 287.73V280.926H333.808V280.065H339.704V280.926H337.234V287.73H336.278ZM343.29 287.73V284.432L340.57 280.065H341.659L343.726 283.47H343.811L345.877 280.065H346.966L344.246 284.432V287.73H343.29ZM353.187 289.643C352.843 289.186 352.56 288.701 352.337 288.187C352.114 287.674 351.947 287.127 351.837 286.546C351.731 285.965 351.678 285.345 351.678 284.687C351.678 284.028 351.731 283.41 351.837 282.833C351.944 282.252 352.108 281.705 352.331 281.191C352.554 280.674 352.84 280.187 353.187 279.73H353.962C353.771 279.975 353.592 280.283 353.426 280.655C353.263 281.026 353.121 281.437 353.001 281.887C352.88 282.333 352.786 282.797 352.719 283.279C352.652 283.757 352.618 284.226 352.618 284.687C352.618 285.151 352.652 285.623 352.719 286.105C352.786 286.583 352.88 287.047 353.001 287.497C353.121 287.943 353.263 288.35 353.426 288.719C353.592 289.09 353.771 289.399 353.962 289.643H353.187ZM355.524 287.73V280.065H358.154C358.911 280.065 359.559 280.217 360.098 280.522C360.64 280.823 361.054 281.258 361.341 281.829C361.628 282.399 361.771 283.086 361.771 283.89V283.9C361.771 284.704 361.628 285.393 361.341 285.967C361.054 286.537 360.641 286.974 360.103 287.279C359.565 287.58 358.915 287.73 358.154 287.73H355.524ZM356.48 286.87H358.09C358.66 286.87 359.147 286.753 359.551 286.519C359.954 286.286 360.262 285.947 360.475 285.505C360.687 285.062 360.794 284.531 360.794 283.911V283.9C360.794 283.277 360.686 282.744 360.47 282.301C360.257 281.855 359.949 281.515 359.545 281.281C359.142 281.044 358.656 280.926 358.09 280.926H356.48V286.87ZM362.446 287.73L365.272 280.065H366.005V281.303H365.702L363.45 287.73H362.446ZM363.726 285.537L364.023 284.724H367.487L367.785 285.537H363.726ZM368.04 287.73L365.787 281.303V280.065H366.217L369.044 287.73H368.04ZM371.7 287.73V284.432L368.98 280.065H370.069L372.135 283.47H372.22L374.287 280.065H375.376L372.656 284.432V287.73H371.7ZM379.126 287.911C378.567 287.911 378.078 287.821 377.66 287.64C377.246 287.456 376.916 287.205 376.672 286.886C376.431 286.564 376.291 286.195 376.252 285.781L376.247 285.722H377.203L377.208 285.781C377.233 286.036 377.331 286.257 377.501 286.445C377.674 286.629 377.904 286.773 378.191 286.875C378.482 286.978 378.811 287.029 379.179 287.029C379.526 287.029 379.834 286.974 380.104 286.865C380.376 286.751 380.59 286.595 380.746 286.397C380.902 286.199 380.98 285.97 380.98 285.712V285.707C380.98 285.388 380.863 285.12 380.629 284.904C380.396 284.685 380.015 284.517 379.487 284.4L378.637 284.214C377.869 284.044 377.309 283.782 376.959 283.428C376.612 283.07 376.438 282.613 376.438 282.057V282.052C376.442 281.627 376.557 281.251 376.783 280.926C377.014 280.6 377.331 280.345 377.734 280.161C378.142 279.976 378.609 279.884 379.137 279.884C379.647 279.884 380.098 279.976 380.491 280.161C380.884 280.341 381.196 280.586 381.426 280.894C381.66 281.202 381.789 281.547 381.814 281.93L381.819 282.004H380.863L380.853 281.935C380.817 281.708 380.725 281.508 380.576 281.335C380.428 281.157 380.229 281.018 379.981 280.915C379.733 280.812 379.443 280.763 379.11 280.766C378.791 280.766 378.505 280.816 378.25 280.915C377.995 281.014 377.791 281.157 377.639 281.345C377.49 281.529 377.416 281.756 377.416 282.025V282.03C377.416 282.335 377.529 282.592 377.756 282.801C377.982 283.01 378.356 283.171 378.876 283.284L379.726 283.475C380.527 283.652 381.099 283.909 381.442 284.246C381.786 284.582 381.957 285.027 381.957 285.579V285.584C381.957 286.062 381.841 286.475 381.607 286.822C381.373 287.169 381.044 287.438 380.619 287.63C380.194 287.817 379.696 287.911 379.126 287.911ZM383.934 289.643H383.158C383.349 289.399 383.526 289.09 383.689 288.719C383.856 288.35 383.999 287.943 384.12 287.497C384.24 287.047 384.334 286.583 384.401 286.105C384.468 285.623 384.502 285.151 384.502 284.687C384.502 284.226 384.468 283.757 384.401 283.279C384.334 282.797 384.24 282.333 384.12 281.887C383.999 281.437 383.856 281.026 383.689 280.655C383.526 280.283 383.349 279.975 383.158 279.73H383.934C384.281 280.187 384.566 280.674 384.789 281.191C385.012 281.705 385.177 282.252 385.283 282.833C385.389 283.41 385.442 284.028 385.442 284.687C385.442 285.345 385.387 285.965 385.278 286.546C385.171 287.127 385.007 287.674 384.784 288.187C384.564 288.701 384.281 289.186 383.934 289.643Z" fill="#CDCDCD"/>
<path d="M87.0045 175.553L137.809 155.911C227.912 121.074 323.682 103.205 420.284 103.205L593.445 103.205" stroke="white" stroke-width="1.08794"/>
<path d="M67.1806 385.568C67.1806 386.202 67.062 386.747 66.8247 387.204C66.5874 387.657 66.2581 388.006 65.8366 388.25C65.4117 388.495 64.9212 388.617 64.3651 388.617H59.3345V387.661H64.3014C64.8893 387.661 65.3692 387.478 65.741 387.114C66.1129 386.745 66.2988 386.23 66.2988 385.568C66.2988 384.902 66.1129 384.388 65.741 384.027C65.3692 383.666 64.8893 383.485 64.3014 383.485H59.3345V382.529H64.3651C64.9212 382.529 65.4117 382.651 65.8366 382.896C66.2581 383.136 66.5874 383.484 66.8247 383.937C67.062 384.39 67.1806 384.934 67.1806 385.568ZM67 380.585H59.3345V379.655L65.6348 375.262L65.3001 375.899V375.411H59.3345V374.465H67V375.395L60.721 379.788L61.0556 379.151V379.639H67V380.585ZM67 372.51H59.3345V371.554H67V372.51ZM67 369.599H59.3345V364.946H60.1951V368.643H62.8299V365.249H63.6799V368.643H67V369.599ZM67 363.373H59.3345V362.417H67V363.373ZM67 360.462H59.3345V355.713H60.1951V359.506H62.6546V355.91H63.5046V359.506H66.1394V355.713H67V360.462ZM67 353.981H59.3345V351.352C59.3345 350.594 59.4868 349.946 59.7913 349.408C60.0924 348.866 60.528 348.451 61.0981 348.164C61.6683 347.878 62.3554 347.734 63.1593 347.734H63.1699C63.9738 347.734 64.6626 347.878 65.2363 348.164C65.8065 348.451 66.2439 348.864 66.5485 349.402C66.8495 349.941 67 350.59 67 351.352V353.981ZM66.1394 353.025V351.416C66.1394 350.845 66.0226 350.358 65.7888 349.955C65.5551 349.551 65.2169 349.243 64.7742 349.03C64.3315 348.818 63.8003 348.712 63.1805 348.712H63.1699C62.5466 348.712 62.0136 348.82 61.5709 349.036C61.1247 349.248 60.7847 349.556 60.551 349.96C60.3137 350.364 60.1951 350.849 60.1951 351.416V353.025H66.1394ZM64.2642 342.539H63.4143V340.371C63.4143 339.823 63.2726 339.398 62.9893 339.097C62.7024 338.796 62.3076 338.645 61.8047 338.645H61.794C61.2876 338.645 60.8927 338.796 60.6094 339.097C60.3261 339.398 60.1844 339.823 60.1844 340.371V342.539H59.3345V340.127C59.3345 339.645 59.4372 339.22 59.6426 338.852C59.848 338.484 60.1349 338.195 60.5032 337.986C60.8715 337.774 61.2982 337.668 61.7834 337.668H61.794C62.2792 337.668 62.7077 337.774 63.0796 337.986C63.4514 338.195 63.7418 338.484 63.9508 338.852C64.1597 339.22 64.2642 339.645 64.2642 340.127V342.539ZM67 343.017H59.3345V342.061H67V343.017ZM67.1806 332.881C67.1806 333.614 67.0177 334.243 66.6919 334.767C66.3625 335.291 65.8968 335.695 65.2948 335.978C64.6927 336.258 63.9844 336.398 63.1699 336.398H63.1593C62.3377 336.398 61.6276 336.256 61.0291 335.973C60.4306 335.686 59.9684 335.281 59.6426 334.756C59.3168 334.229 59.1539 333.604 59.1539 332.881C59.1539 332.155 59.3168 331.53 59.6426 331.006C59.9684 330.478 60.4323 330.073 61.0344 329.79C61.6329 329.506 62.3412 329.365 63.1593 329.365H63.1699C63.9844 329.365 64.6927 329.506 65.2948 329.79C65.8933 330.069 66.3572 330.473 66.6866 331.001C67.0159 331.525 67.1806 332.152 67.1806 332.881ZM66.2988 332.881C66.2988 332.357 66.1695 331.906 65.911 331.527C65.6525 331.148 65.2895 330.856 64.822 330.65C64.351 330.445 63.8003 330.342 63.1699 330.342H63.1593C62.5218 330.342 61.9693 330.445 61.5019 330.65C61.0344 330.856 60.6732 331.148 60.4182 331.527C60.1632 331.906 60.0357 332.357 60.0357 332.881C60.0357 333.402 60.1632 333.852 60.4182 334.231C60.6732 334.609 61.0344 334.903 61.5019 335.112C61.9693 335.318 62.5218 335.42 63.1593 335.42H63.1699C63.8003 335.42 64.351 335.32 64.822 335.118C65.2895 334.916 65.6525 334.625 65.911 334.246C66.1695 333.868 66.2988 333.412 66.2988 332.881ZM67.1806 324.488C67.1806 325.221 67.0177 325.85 66.6919 326.374C66.3625 326.898 65.8968 327.302 65.2948 327.585C64.6927 327.865 63.9844 328.005 63.1699 328.005H63.1593C62.3377 328.005 61.6276 327.863 61.0291 327.58C60.4306 327.293 59.9684 326.887 59.6426 326.363C59.3168 325.835 59.1539 325.21 59.1539 324.488C59.1539 323.762 59.3168 323.137 59.6426 322.613C59.9684 322.085 60.4323 321.68 61.0344 321.396C61.6329 321.113 62.3412 320.971 63.1593 320.971H63.1699C63.9844 320.971 64.6927 321.113 65.2948 321.396C65.8933 321.676 66.3572 322.08 66.6866 322.607C67.0159 323.132 67.1806 323.758 67.1806 324.488ZM66.2988 324.488C66.2988 323.964 66.1695 323.512 65.911 323.133C65.6525 322.754 65.2895 322.462 64.822 322.257C64.351 322.051 63.8003 321.949 63.1699 321.949H63.1593C62.5218 321.949 61.9693 322.051 61.5019 322.257C61.0344 322.462 60.6732 322.754 60.4182 323.133C60.1632 323.512 60.0357 323.964 60.0357 324.488C60.0357 325.009 60.1632 325.458 60.4182 325.837C60.6732 326.216 61.0344 326.51 61.5019 326.719C61.9693 326.924 62.5218 327.027 63.1593 327.027H63.1699C63.8003 327.027 64.351 326.926 64.822 326.724C65.2895 326.523 65.6525 326.232 65.911 325.853C66.1695 325.474 66.2988 325.019 66.2988 324.488ZM67 319.314H59.3345V318.358H66.1394V314.66H67V319.314ZM67.1806 310.618C67.1806 311.177 67.0903 311.666 66.9097 312.084C66.7255 312.498 66.4741 312.828 66.1554 313.072C65.8331 313.313 65.4648 313.453 65.0504 313.492L64.992 313.497V312.541L65.0504 312.536C65.3054 312.511 65.5267 312.413 65.7144 312.243C65.8986 312.07 66.042 311.84 66.1447 311.553C66.2474 311.262 66.2988 310.933 66.2988 310.565C66.2988 310.218 66.2439 309.91 66.1341 309.64C66.0208 309.368 65.865 309.153 65.6666 308.998C65.4683 308.842 65.2399 308.764 64.9814 308.764H64.976C64.6573 308.764 64.3899 308.881 64.1739 309.114C63.9543 309.348 63.7861 309.729 63.6692 310.257L63.4833 311.107C63.3133 311.875 63.0513 312.435 62.6971 312.785C62.3394 313.132 61.8826 313.306 61.3266 313.306H61.3213C60.8963 313.302 60.5209 313.187 60.1951 312.96C59.8692 312.73 59.6143 312.413 59.4301 312.01C59.246 311.602 59.1539 311.135 59.1539 310.607C59.1539 310.097 59.246 309.646 59.4301 309.253C59.6107 308.859 59.8551 308.548 60.1632 308.318C60.4713 308.084 60.8166 307.955 61.1991 307.93L61.2734 307.925V308.881L61.2044 308.891C60.9777 308.927 60.7776 309.019 60.6041 309.168C60.427 309.316 60.2871 309.515 60.1844 309.763C60.0817 310.01 60.0322 310.301 60.0357 310.634C60.0357 310.952 60.0853 311.239 60.1844 311.494C60.2836 311.749 60.427 311.953 60.6147 312.105C60.7989 312.254 61.0255 312.328 61.2947 312.328H61.3C61.6046 312.328 61.8613 312.215 62.0703 311.988C62.2792 311.762 62.4404 311.388 62.5537 310.867L62.7449 310.018C62.922 309.217 63.1788 308.645 63.5152 308.302C63.8516 307.958 64.2961 307.786 64.8486 307.786H64.8539C65.332 307.786 65.7445 307.903 66.0916 308.137C66.4387 308.371 66.7078 308.7 66.8991 309.125C67.0868 309.55 67.1806 310.048 67.1806 310.618Z" fill="#CDCDCD"/>
<g clip-path="url(#clip0_1110_1520)">
<path d="M89 312V381.184C89 387.655 114.127 385.664 145.112 385.664H532.888C563.873 385.664 589 387.6 589 382.18V312H89Z" fill="#035A58" stroke="white" stroke-width="0.480342" stroke-miterlimit="10" stroke-linecap="round" stroke-linejoin="round"/>
<path d="M584.033 329.191V375.303C584.033 375.303 584.033 378.64 580.999 381.067" stroke="white" stroke-width="0.480342" stroke-miterlimit="10"/>
<path d="M584.033 321V325.55" stroke="white" stroke-width="0.480342" stroke-miterlimit="10"/>
<path d="M99.7878 362.645H92.002" stroke="white" stroke-width="0.480342" stroke-miterlimit="10" stroke-linecap="round" stroke-linejoin="round"/>
<path d="M99.7878 352.906H92.002" stroke="white" stroke-width="0.480342" stroke-miterlimit="10" stroke-linecap="round" stroke-linejoin="round"/>
<path d="M99.7878 343.168H92.002" stroke="white" stroke-width="0.480342" stroke-miterlimit="10" stroke-linecap="round" stroke-linejoin="round"/>
<path d="M99.7878 333.43H92.002V372.384H99.7878" stroke="white" stroke-width="0.480342" stroke-miterlimit="10" stroke-linecap="round" stroke-linejoin="round"/>
<path d="M99.7859 343.215H92" stroke="white" stroke-width="0.480342" stroke-miterlimit="10" stroke-linecap="round" stroke-linejoin="round"/>
<path d="M99.7859 333.477H92" stroke="white" stroke-width="0.480342" stroke-miterlimit="10" stroke-linecap="round" stroke-linejoin="round"/>
<path d="M99.7859 323.738H92" stroke="white" stroke-width="0.480342" stroke-miterlimit="10" stroke-linecap="round" stroke-linejoin="round"/>
<path d="M99.7859 314H92V352.954H99.7859" stroke="white" stroke-width="0.480342" stroke-miterlimit="10" stroke-linecap="round" stroke-linejoin="round"/>
<path d="M588 307H89" stroke="white" stroke-miterlimit="10" stroke-linecap="round" stroke-linejoin="round"/>
</g>
<path d="M86 307H591.892H86ZM592.436 379.892C592.436 384.999 588.296 389.139 583.188 389.139H94.7035C89.5963 389.139 85.456 384.999 85.456 379.892L86.544 379.892C86.544 384.398 90.1971 388.052 94.7035 388.052H583.188C587.695 388.052 591.348 384.398 591.348 379.892L592.436 379.892ZM94.7035 389.139C89.5963 389.139 85.456 384.999 85.456 379.892V307H86.544V379.892C86.544 384.398 90.1971 388.052 94.7035 388.052L94.7035 389.139ZM592.436 307V379.892C592.436 384.999 588.296 389.139 583.188 389.139L583.188 388.052C587.695 388.052 591.348 384.398 591.348 379.892V307H592.436Z" fill="#CCCDCD"/>
<line x1="591.709" y1="307.593" x2="598.709" y2="302.593" stroke="#CCCDCD"/>
<line y1="-0.5" x2="8.60233" y2="-0.5" transform="matrix(-0.813733 -0.581238 -0.581238 0.813733 86 308)" stroke="#CCCDCD"/>
</g>
<defs>
<filter id="filter0_bi_1110_1520" x="-20.7184" y="-20.7184" width="690.761" height="476.437" filterUnits="userSpaceOnUse" color-interpolation-filters="sRGB">
<feFlood flood-opacity="0" result="BackgroundImageFix"/>
<feGaussianBlur in="BackgroundImageFix" stdDeviation="10.7088"/>
<feComposite in2="SourceAlpha" operator="in" result="effect1_backgroundBlur_1110_1520"/>
<feBlend mode="normal" in="SourceGraphic" in2="effect1_backgroundBlur_1110_1520" result="shape"/>
<feColorMatrix in="SourceAlpha" type="matrix" values="0 0 0 0 0 0 0 0 0 0 0 0 0 0 0 0 0 0 127 0" result="hardAlpha"/>
<feOffset dx="2.80336" dy="2.80336"/>
<feGaussianBlur stdDeviation="13.8206"/>
<feComposite in2="hardAlpha" operator="arithmetic" k2="-1" k3="1"/>
<feColorMatrix type="matrix" values="0 0 0 0 0.273161 0 0 0 0 0.273161 0 0 0 0 0.273161 0 0 0 0.1 0"/>
<feBlend mode="normal" in2="shape" result="effect2_innerShadow_1110_1520"/>
</filter>
<clipPath id="clip0_1110_1520">
<path d="M86 307H591.892V371.188C591.892 379.394 591.892 383.497 589.343 386.046C586.794 388.595 582.691 388.595 574.485 388.595H103.407C95.2013 388.595 91.0984 388.595 88.5492 386.046C86 383.497 86 379.394 86 371.188V307Z" fill="white"/>
</clipPath>
</defs>
</svg>
