<svg width="649" height="435" fill="none" xmlns="http://www.w3.org/2000/svg"><g filter="url(#prefix__filter0_bi_1110_1520)"><rect x=".85" y=".85" width="647.624" height="433.3" rx="2.012" stroke="#464646" stroke-width=".3"/><path fill-rule="evenodd" clip-rule="evenodd" d="M87.549 45.544a.544.544 0 10-1.088 0v215.412h505.348v-1.088H87.549V45.544z" fill="#fff"/><path d="M64.264 166.084h-.85v-2.167c0-.549-.141-.974-.425-1.275-.287-.301-.681-.452-1.184-.452h-.011c-.506 0-.901.151-1.185.452-.283.301-.425.726-.425 1.275v2.167h-.85v-2.412c0-.481.103-.906.309-1.275.205-.368.492-.657.86-.866.368-.212.795-.318 1.28-.318h.011c.485 0 .914.106 1.286.318.371.209.662.498.87.866.21.369.314.794.314 1.275v2.412zm2.736.478h-7.666v-.956H67v.956zm0-6.916h-7.666v-2.928c0-.492.096-.92.287-1.285.188-.368.452-.653.792-.855.34-.202.74-.303 1.2-.303h.011c.531 0 .992.136 1.381.409.39.273.66.65.813 1.131L67 154.041v1.121l-3.033 1.641V158.689H67v.957zm-3.883-.957v-1.886c0-.492-.126-.871-.377-1.136-.255-.269-.617-.404-1.084-.404h-.01c-.458 0-.815.14-1.074.42-.258.279-.388.667-.388 1.163v1.843h2.933zM67 152.538h-7.666v-.956H67v.956zm.18-5.998c0 .694-.162 1.295-.488 1.801-.326.507-.788.898-1.387 1.174-.598.273-1.308.409-2.13.409h-.01c-.826 0-1.537-.136-2.136-.409-.598-.276-1.06-.666-1.386-1.169-.326-.506-.49-1.106-.49-1.8 0-.539.107-1.027.32-1.467a2.93 2.93 0 01.876-1.094 2.76 2.76 0 011.291-.542l.01.006v.961l-.01.005a2.1 2.1 0 00-.85.431c-.24.202-.427.448-.558.738a2.288 2.288 0 00-.196.962c0 .488.127.913.382 1.275.255.357.616.633 1.084.828.467.195 1.022.292 1.663.292h.01c.638 0 1.19-.097 1.658-.292.467-.195.828-.471 1.083-.828.255-.362.383-.788.383-1.281a2.66 2.66 0 00-.17-.972 2.017 2.017 0 00-.494-.733 1.796 1.796 0 00-.765-.414l-.01-.011v-.967h.01c.467.085.874.269 1.222.553.343.283.61.643.802 1.078.191.432.287.921.287 1.466zm-.18-4.701h-7.666v-4.749h.861v3.793h2.46v-3.597h.85v3.597h2.634v-3.793H67v4.749zM293.414 287.73v-7.665h1.11l2.624 6.396h.085l2.624-6.396h1.111v7.665h-.893v-5.854h-.467l1.073-1.599-3.087 7.453h-.807l-3.081-7.453 1.068 1.599h-.468v5.854h-.892zm8.898 0l2.826-7.665h.733v1.238h-.303l-2.252 6.427h-1.004zm1.28-2.193l.297-.813h3.464l.297.813h-4.058zm4.313 2.193l-2.252-6.427v-1.238h.43l2.826 7.665h-1.004zm3.437 0v-6.804h-2.47v-.861h5.897v.861h-2.47v6.804h-.957zm7.942.181c-.634 0-1.179-.119-1.636-.356a2.543 2.543 0 01-1.047-.988c-.244-.425-.366-.915-.366-1.471v-5.031h.956v4.967c0 .588.182 1.068.547 1.439.369.372.884.558 1.546.558.666 0 1.179-.186 1.541-.558.361-.371.541-.851.541-1.439v-4.967h.957v5.031c0 .556-.123 1.046-.367 1.471a2.503 2.503 0 01-1.041.988c-.453.237-.997.356-1.631.356zm4.983-.181v-7.665h2.927c.492 0 .921.096 1.286.287.368.188.653.451.855.791.202.34.303.741.303 1.201v.011c0 .531-.137.991-.409 1.381-.273.389-.65.66-1.132.812l1.774 3.182h-1.121l-1.641-3.033h-1.886v3.033h-.956zm.956-3.883h1.886c.492 0 .871-.125 1.137-.377.269-.255.404-.616.404-1.084v-.01c0-.457-.14-.815-.42-1.073-.28-.259-.668-.388-1.164-.388h-1.843v2.932zm6.152 3.883v-7.665h.956v7.665h-.956zm4.903 0v-6.804h-2.47v-.861h5.896v.861h-2.47v6.804h-.956zm7.012 0v-3.298l-2.72-4.367h1.089l2.067 3.405h.085l2.066-3.405h1.089l-2.72 4.367v3.298h-.956zm9.897 1.913a7.136 7.136 0 01-.85-1.456 7.691 7.691 0 01-.5-1.641 10.358 10.358 0 01-.159-1.859c0-.659.053-1.277.159-1.854a7.54 7.54 0 01.494-1.642 6.986 6.986 0 01.856-1.461h.775c-.191.245-.37.553-.536.925a8.527 8.527 0 00-.425 1.232c-.121.446-.215.91-.282 1.392-.067.478-.101.947-.101 1.408 0 .464.034.936.101 1.418.067.478.161.942.282 1.392.12.446.262.853.425 1.222.166.371.345.68.536.924h-.775zm2.337-1.913v-7.665h2.63c.757 0 1.405.152 1.944.457.542.301.956.736 1.243 1.307.287.57.43 1.257.43 2.061v.01c0 .804-.143 1.493-.43 2.067-.287.57-.7 1.007-1.238 1.312-.538.301-1.188.451-1.949.451h-2.63zm.956-.86h1.61c.57 0 1.057-.117 1.461-.351.403-.233.711-.572.924-1.014.212-.443.319-.974.319-1.594v-.011c0-.623-.108-1.156-.324-1.599a2.279 2.279 0 00-.925-1.02c-.403-.237-.889-.355-1.455-.355h-1.61v5.944zm5.966.86l2.826-7.665h.733v1.238h-.303l-2.252 6.427h-1.004zm1.28-2.193l.297-.813h3.464l.298.813h-4.059zm4.314 2.193l-2.253-6.427v-1.238h.43l2.827 7.665h-1.004zm3.66 0v-3.298l-2.72-4.367h1.089l2.066 3.405h.085l2.067-3.405h1.089l-2.72 4.367v3.298h-.956zm7.426.181c-.559 0-1.048-.09-1.466-.271a2.484 2.484 0 01-.988-.754 2.144 2.144 0 01-.42-1.105l-.005-.059h.956l.005.059c.025.255.123.476.293.664.173.184.403.328.69.43.291.103.62.154.988.154.347 0 .655-.055.925-.164.272-.114.486-.27.642-.468.156-.198.234-.427.234-.685v-.005a1.05 1.05 0 00-.351-.803c-.233-.219-.614-.387-1.142-.504l-.85-.186c-.768-.17-1.328-.432-1.678-.786-.347-.358-.521-.815-.521-1.371v-.005c.004-.425.119-.801.345-1.126.231-.326.548-.581.951-.765.408-.185.875-.277 1.403-.277.51 0 .961.092 1.354.277.393.18.705.425.935.733.234.308.363.653.388 1.036l.005.074h-.956l-.01-.069a1.186 1.186 0 00-.277-.6 1.507 1.507 0 00-.595-.42 2.206 2.206 0 00-.871-.149c-.319 0-.605.05-.86.149a1.432 1.432 0 00-.611.43 1.046 1.046 0 00-.223.68v.005c0 .305.113.562.34.771.226.209.6.37 1.12.483l.85.191c.801.177 1.373.434 1.716.771.344.336.515.781.515 1.333v.005c0 .478-.116.891-.35 1.238a2.297 2.297 0 01-.988.808c-.425.187-.923.281-1.493.281zm4.808 1.732h-.776a4.32 4.32 0 00.531-.924c.167-.369.31-.776.431-1.222.12-.45.214-.914.281-1.392.067-.482.101-.954.101-1.418 0-.461-.034-.93-.101-1.408a11.388 11.388 0 00-.281-1.392 8.173 8.173 0 00-.431-1.232 4.33 4.33 0 00-.531-.925h.776c.347.457.632.944.855 1.461.223.514.388 1.061.494 1.642.106.577.159 1.195.159 1.854 0 .658-.055 1.278-.164 1.859a7.515 7.515 0 01-.494 1.641 6.87 6.87 0 01-.85 1.456z" fill="#CDCDCD"/><path d="M87.004 175.553l50.805-19.642a783.306 783.306 0 01282.475-52.706h173.161" stroke="#fff" stroke-width="1.088"/><path d="M67.18 385.568c0 .634-.118 1.179-.355 1.636a2.54 2.54 0 01-.988 1.046c-.425.245-.916.367-1.472.367h-5.03v-.956H64.3c.588 0 1.068-.183 1.44-.547.372-.369.558-.884.558-1.546 0-.666-.186-1.18-.558-1.541-.372-.361-.852-.542-1.44-.542h-4.967v-.956h5.031c.556 0 1.047.122 1.472.367.421.24.75.588.988 1.041.237.453.356.997.356 1.631zm-.18-4.983h-7.666v-.93l6.3-4.393-.334.637v-.488h-5.965v-.946H67v.93l-6.279 4.393.335-.637v.488H67v.946zm0-8.075h-7.666v-.956H67v.956zm0-2.911h-7.666v-4.653h.861v3.697h2.635v-3.394h.85v3.394H67v.956zm0-6.226h-7.666v-.956H67v.956zm0-2.911h-7.666v-4.749h.861v3.793h2.46v-3.596h.85v3.596h2.634v-3.793H67v4.749zm0-6.481h-7.666v-2.629c0-.758.153-1.406.457-1.944a3 3 0 011.307-1.244c.57-.286 1.257-.43 2.061-.43h.01c.805 0 1.494.144 2.067.43.57.287 1.008.7 1.313 1.238.3.539.451 1.188.451 1.95v2.629zm-.86-.956v-1.609c0-.571-.117-1.058-.351-1.461a2.281 2.281 0 00-1.015-.925c-.442-.212-.974-.318-1.593-.318h-.011c-.623 0-1.156.108-1.6.324-.445.212-.785.52-1.019.924-.237.404-.356.889-.356 1.456v1.609h5.944zm-1.876-10.486h-.85v-2.168c0-.548-.141-.973-.425-1.274-.287-.301-.681-.452-1.184-.452h-.011c-.506 0-.901.151-1.185.452-.283.301-.425.726-.425 1.274v2.168h-.85v-2.412c0-.482.103-.907.309-1.275.205-.368.492-.657.86-.866.368-.212.795-.318 1.28-.318h.011c.485 0 .914.106 1.286.318.371.209.662.498.87.866.21.368.314.793.314 1.275v2.412zm2.736.478h-7.666v-.956H67v.956zm.18-10.136c0 .733-.162 1.362-.488 1.886-.33.524-.795.928-1.397 1.211-.602.28-1.31.42-2.125.42h-.01c-.822 0-1.532-.142-2.13-.425-.6-.287-1.062-.692-1.387-1.217-.326-.527-.49-1.152-.49-1.875 0-.726.164-1.351.49-1.875.325-.528.79-.933 1.391-1.216.599-.284 1.307-.425 2.125-.425h.01c.815 0 1.524.141 2.126.425a3.18 3.18 0 011.392 1.211c.329.524.494 1.151.494 1.88zm-.881 0c0-.524-.13-.975-.388-1.354-.258-.379-.621-.671-1.089-.877-.471-.205-1.022-.308-1.652-.308h-.01c-.638 0-1.19.103-1.658.308-.468.206-.829.498-1.084.877-.255.379-.382.83-.382 1.354 0 .521.127.971.382 1.35.255.378.616.672 1.084.881.467.206 1.02.308 1.657.308h.01c.631 0 1.182-.1 1.653-.302.468-.202.83-.493 1.089-.872.258-.378.388-.834.388-1.365zm.882-8.393c0 .733-.163 1.362-.49 1.886-.329.524-.794.928-1.396 1.211-.602.28-1.31.42-2.125.42h-.01c-.822 0-1.532-.142-2.13-.425a3.235 3.235 0 01-1.387-1.217c-.326-.528-.49-1.153-.49-1.875 0-.726.164-1.351.49-1.875.325-.528.79-.933 1.391-1.217.599-.283 1.307-.425 2.125-.425h.01c.815 0 1.524.142 2.126.425.598.28 1.062.684 1.392 1.211.329.525.494 1.151.494 1.881zm-.882 0c0-.524-.13-.976-.388-1.355s-.621-.671-1.089-.876c-.471-.206-1.022-.308-1.652-.308h-.01c-.638 0-1.19.102-1.658.308-.468.205-.829.497-1.084.876-.255.379-.382.831-.382 1.355 0 .521.127.97.382 1.349s.616.673 1.084.882c.467.205 1.02.308 1.657.308h.01c.631 0 1.182-.101 1.653-.303.468-.201.83-.492 1.089-.871.258-.379.388-.834.388-1.365zm.701-5.174h-7.666v-.956h6.805v-3.698H67v4.654zm.18-8.696c0 .559-.09 1.048-.27 1.466a2.489 2.489 0 01-.755.988c-.322.241-.69.381-1.105.42l-.058.005v-.956l.058-.005c.255-.025.477-.123.664-.293.185-.173.328-.403.43-.69.103-.291.155-.62.155-.988 0-.347-.055-.655-.165-.925a1.55 1.55 0 00-.467-.642 1.077 1.077 0 00-.686-.234h-.005a1.05 1.05 0 00-.802.35c-.22.234-.388.615-.505 1.143l-.186.85c-.17.768-.432 1.328-.786 1.678-.358.347-.814.521-1.37.521h-.006a1.954 1.954 0 01-1.126-.346 2.305 2.305 0 01-.765-.95c-.184-.408-.276-.875-.276-1.403 0-.51.092-.961.276-1.354a2.37 2.37 0 01.733-.935 1.88 1.88 0 011.036-.388l.074-.005v.956l-.069.01a1.19 1.19 0 00-.6.277 1.512 1.512 0 00-.42.595 2.2 2.2 0 00-.148.871c0 .318.05.605.148.86.1.255.243.459.43.611.185.149.412.223.68.223h.006c.305 0 .561-.113.77-.34.21-.226.37-.6.484-1.121l.19-.849c.178-.801.435-1.373.771-1.716.337-.344.781-.516 1.334-.516h.005c.478 0 .89.117 1.238.351.347.234.616.563.807.988.188.425.282.923.282 1.493z" fill="#CDCDCD"/><g clip-path="url(#prefix__clip0_1110_1520)" stroke="#fff" stroke-miterlimit="10"><path d="M89 312v69.184c0 6.471 25.127 4.48 56.112 4.48h387.776c30.985 0 56.112 1.936 56.112-3.484V312H89z" fill="#035A58" stroke-width=".48" stroke-linecap="round" stroke-linejoin="round"/><path d="M584.033 329.191v46.112s0 3.337-3.034 5.764M584.033 321v4.55" stroke-width=".48"/><path d="M99.788 362.645h-7.786M99.788 352.906h-7.786M99.788 343.168h-7.786M99.788 333.43h-7.786v38.954h7.786M99.786 343.215H92M99.786 333.477H92M99.786 323.738H92" stroke-width=".48" stroke-linecap="round" stroke-linejoin="round"/><path d="M99.786 314H92v38.954h7.786" stroke-width=".48" stroke-linecap="round" stroke-linejoin="round"/><path d="M588 307H89" stroke-linecap="round" stroke-linejoin="round"/></g><path d="M86 307h505.892H86zm506.436 72.892a9.247 9.247 0 01-9.248 9.247H94.704a9.247 9.247 0 01-9.248-9.247h1.088a8.16 8.16 0 008.16 8.16h488.484a8.16 8.16 0 008.16-8.16h1.088zm-497.733 9.247a9.247 9.247 0 01-9.247-9.247V307h1.088v72.892a8.16 8.16 0 008.16 8.16v1.087zM592.437 307v72.892a9.247 9.247 0 01-9.248 9.247v-1.087a8.16 8.16 0 008.16-8.16V307h1.088z" fill="#CCCDCD"/><path stroke="#CCCDCD" d="M591.709 307.593l7-5M86.29 307.593l-7-5"/></g><defs><clipPath id="prefix__clip0_1110_1520"><path d="M86 307h505.892v64.188c0 8.206 0 12.309-2.549 14.858-2.549 2.549-6.652 2.549-14.858 2.549H103.407c-8.206 0-12.309 0-14.858-2.549C86 383.497 86 379.394 86 371.188V307z" fill="#fff"/></clipPath><filter id="prefix__filter0_bi_1110_1520" x="-20.718" y="-20.718" width="690.761" height="476.437" filterUnits="userSpaceOnUse" color-interpolation-filters="sRGB"><feFlood flood-opacity="0" result="BackgroundImageFix"/><feGaussianBlur in="BackgroundImageFix" stdDeviation="10.709"/><feComposite in2="SourceAlpha" operator="in" result="effect1_backgroundBlur_1110_1520"/><feBlend in="SourceGraphic" in2="effect1_backgroundBlur_1110_1520" result="shape"/><feColorMatrix in="SourceAlpha" values="0 0 0 0 0 0 0 0 0 0 0 0 0 0 0 0 0 0 127 0" result="hardAlpha"/><feOffset dx="2.803" dy="2.803"/><feGaussianBlur stdDeviation="13.821"/><feComposite in2="hardAlpha" operator="arithmetic" k2="-1" k3="1"/><feColorMatrix values="0 0 0 0 0.273161 0 0 0 0 0.273161 0 0 0 0 0.273161 0 0 0 0.1 0"/><feBlend in2="shape" result="effect2_innerShadow_1110_1520"/></filter></defs></svg>