<svg width="547" height="317" fill="none" xmlns="http://www.w3.org/2000/svg"><path d="M492.5 196.997l-.003.5 1 .006.003-.5-1-.006zm2.037-195.994a.5.5 0 00-1-.005l1 .005zm-1.029 194.515a.5.5 0 00-1-.005l1 .005zm-.984-2.975a.5.5 0 001 .005l-1-.005zm1.015-2.965a.5.5 0 00-1-.005l1 .005zm-.984-2.975a.5.5 0 101 .006l-1-.006zm1.016-2.964a.5.5 0 10-1-.005l1 .005zm-.985-2.975a.5.5 0 101 .005l-1-.005zm1.016-2.964a.499.499 0 10-1-.006l1 .006zm-.984-2.975a.5.5 0 001 .005l-1-.005zm1.016-2.965a.5.5 0 00-1-.005l1 .005zm-.985-2.975a.501.501 0 001 .006l-1-.006zm1.016-2.964a.5.5 0 00-1-.005l1 .005zm-.984-2.975a.5.5 0 101 .005l-1-.005zm1.015-2.965a.5.5 0 00-1-.005l1 .005zm-.984-2.975a.5.5 0 101 .006l-1-.006zm1.016-2.964a.501.501 0 00-1-.005l1 .005zm-.984-2.975a.5.5 0 101 .005l-1-.005zm1.015-2.964a.5.5 0 00-1-.006l1 .006zm-.984-2.975a.5.5 0 101 .005l-1-.005zm1.016-2.965a.5.5 0 00-1-.005l1 .005zm-.985-2.975a.501.501 0 001 .006l-1-.006zm1.016-2.964a.5.5 0 10-1-.005l1 .005zm-.984-2.975a.5.5 0 101 .005l-1-.005zm1.016-2.964a.5.5 0 00-1-.006l1 .006zm-.985-2.975a.5.5 0 001 .005l-1-.005zm1.016-2.965a.5.5 0 10-1-.005l1 .005zm-.984-2.975a.5.5 0 101 .005l-1-.005zm1.015-2.964a.5.5 0 00-1-.006l1 .006zm-.984-2.975a.5.5 0 101 .005l-1-.005zm1.016-2.965a.5.5 0 00-1-.005l1 .005zm-.984-2.975a.499.499 0 101 .006l-1-.006zm1.015-2.964a.5.5 0 10-1-.005l1 .005zm-.984-2.975a.5.5 0 101 .005l-1-.005zm1.016-2.964a.5.5 0 00-1-.006l1 .006zm-.985-2.975a.501.501 0 001 .005l-1-.005zm1.016-2.965a.5.5 0 10-1-.005l1 .005zm-.984-2.975a.5.5 0 101 .006l-1-.006zm1.016-2.964a.501.501 0 00-1-.005l1 .005zm-.985-2.975a.5.5 0 001 .005l-1-.005zm1.016-2.965a.5.5 0 00-1-.005l1 .005zm-.984-2.974a.5.5 0 101 .005l-1-.005zm1.015-2.965a.5.5 0 10-1-.005l1 .005zm-.984-2.975a.5.5 0 001 .005l-1-.005zm1.016-2.964a.5.5 0 00-1-.006l1 .006zm-.984-2.975a.5.5 0 10.999.005l-.999-.005zm1.015-2.965a.5.5 0 10-1-.005l1 .005zm-.984-2.975a.5.5 0 101 .006l-1-.006zm1.016-2.964a.5.5 0 00-1-.005l1 .005zm-.985-2.975a.5.5 0 001 .005l-1-.005zm1.016-2.965a.5.5 0 10-1-.005l1 .005zm-.984-2.974a.5.5 0 101 .005l-1-.005zm1.015-2.965a.5.5 0 10-1-.005l1 .005zm-.984-2.975a.5.5 0 001 .005l-1-.005zm1.016-2.964a.5.5 0 00-1-.006l1 .006zm-.984-2.975a.5.5 0 101 .005l-1-.005zm1.015-2.965a.5.5 0 10-1-.005l1 .005zm-.984-2.975a.5.5 0 001 .006l-1-.006zm1.016-2.964a.5.5 0 00-1-.005l1 .005zm-.985-2.975a.5.5 0 001 .005l-1-.005zm1.016-2.964a.5.5 0 10-1-.006l1 .006zm-.984-2.976a.5.5 0 101 .006l-1-.006zm1.016-2.964a.5.5 0 00-1-.005l1 .005zm-.985-2.975a.5.5 0 001 .005l-1-.005zm1.016-2.964a.5.5 0 00-1-.006l1 .006zm-.984-2.975a.5.5 0 101 .005l-1-.005zm1.015-2.965a.5.5 0 10-1-.005l1 .005zm-.984-2.975a.5.5 0 001 .006l-1-.006zm-.029 194.521l.008-1.485-1-.005-.008 1.484 1 .006zm.024-4.455l.015-2.97-1-.005-.015 2.97 1 .005zm.031-5.939l.016-2.97-1-.005-.016 2.969 1 .006zm.031-5.94l.016-2.969-1-.006-.016 2.97 1 .005zm.032-5.939l.016-2.97-1-.005-.016 2.97 1 .005zm.031-5.939l.016-2.97-1-.005-.016 2.969 1 .006zm.032-5.94l.015-2.97-1-.005-.015 2.97 1 .005zm.031-5.939l.016-2.97-1-.005-.016 2.969 1 .006zm.032-5.94l.015-2.969-1-.006-.015 2.97 1 .005zm.031-5.939l.016-2.97-1-.005-.016 2.97 1 .005zm.031-5.939l.016-2.97-1-.005-.016 2.969 1 .006zm.032-5.94l.016-2.969-1-.006-.016 2.97 1 .005zm.031-5.939l.016-2.97-1-.005-.016 2.97 1 .005zm.032-5.94l.015-2.969-1-.006-.015 2.97 1 .005zm.031-5.939l.016-2.97-1-.005-.016 2.97 1 .005zm.032-5.939l.015-2.97-1-.005-.015 2.969 1 .006zm.031-5.94l.016-2.969-1-.006-.016 2.97 1 .005zm.031-5.94l.016-2.969-1-.005-.016 2.97 1 .005zm.032-5.938l.016-2.97-1-.005-.016 2.97 1 .005zm.031-5.94l.016-2.97-1-.005-.016 2.97 1 .005zm.032-5.94l.015-2.969-1-.005-.015 2.97 1 .005zm.031-5.939l.016-2.97-1-.005-.016 2.97 1 .005zm.031-5.939l.016-2.97-1-.005-.015 2.97.999.005zm.032-5.94l.016-2.97-1-.004-.016 2.97 1 .005zm.031-5.939l.016-2.97-1-.005-.016 2.97 1 .005zm.032-5.94l.015-2.969-1-.005-.015 2.97 1 .005zm.031-5.939l.016-2.97-1-.005-.016 2.97 1 .005zm.032-5.939l.015-2.97-1-.005-.015 2.97 1 .005zm.031-5.94l.016-2.97-1-.004-.016 2.97 1 .005zm.031-5.939l.016-2.97-1-.005-.016 2.97 1 .005zm.032-5.94l.016-2.969-1-.005-.016 2.97 1 .005zm.031-5.939l.016-2.97-1-.005-.016 2.97 1 .005zm.032-5.939l.015-2.97-1-.005-.015 2.97 1 .005zm.031-5.94l.008-1.484-1-.005-.008 1.484 1 .006z" fill="#fff" fill-opacity=".15"/><rect x="489.5" y="13.5" width="8" height="4" rx="2" fill="#0ABAB5"/><rect x="489.5" y="13.5" width="8" height="4" rx="2" stroke="#035A58"/><path fill-rule="evenodd" clip-rule="evenodd" d="M30 .5a.5.5 0 00-1 0v198h464.5v-1H30V.5z" fill="#fff"/><path d="M8.485 111.503h-.78v-1.992c0-.505-.131-.895-.392-1.172-.263-.277-.626-.415-1.088-.415h-.01c-.466 0-.829.138-1.089.415-.26.277-.39.667-.39 1.172v1.992h-.782v-2.217c0-.443.094-.833.283-1.172.19-.338.453-.604.791-.796.339-.195.731-.293 1.177-.293h.01c.446 0 .84.098 1.181.293.342.192.61.458.801.796.192.339.288.729.288 1.172v2.217zm2.515.439H3.954v-.879H11v.879zm0-6.357H3.954v-2.69c0-.453.088-.847.264-1.182.172-.339.415-.601.727-.786.313-.186.68-.279 1.104-.279h.01c.488 0 .911.126 1.27.376.357.251.606.598.746 1.04l2.925-1.63v1.03l-2.788 1.509v1.733H11v.879zm-3.57-.879v-1.733c0-.453-.115-.801-.346-1.045-.234-.248-.566-.371-.996-.371h-.01c-.42 0-.749.128-.986.385-.238.258-.357.614-.357 1.07v1.694h2.696zM11 99.052H3.954v-.88H11v.88zm.166-5.513c0 .638-.15 1.19-.45 1.655-.299.466-.723.825-1.274 1.08-.55.25-1.202.375-1.958.375h-.01c-.758 0-1.412-.125-1.962-.376-.55-.254-.975-.611-1.275-1.074-.3-.465-.449-1.017-.449-1.655 0-.495.098-.944.293-1.348.192-.407.46-.742.806-1.006.342-.263.737-.43 1.186-.498l.01.005v.884l-.01.005c-.302.078-.563.21-.781.395a1.886 1.886 0 00-.513.68c-.12.263-.18.557-.18.883 0 .45.117.84.351 1.172.235.329.567.583.996.762.43.179.94.268 1.529.268h.01c.585 0 1.093-.09 1.523-.268.43-.18.762-.433.996-.762.234-.332.351-.724.351-1.177a2.44 2.44 0 00-.156-.894 1.853 1.853 0 00-.454-.673 1.646 1.646 0 00-.703-.381l-.01-.01v-.889h.01c.43.079.804.248 1.123.508.316.26.562.591.737.991.176.397.264.847.264 1.348zM11 89.218H3.954v-4.365h.791v3.486h2.26v-3.306h.782v3.306h2.422v-3.486H11v4.365zM219.063 223v-7.046h1.021l2.412 5.879h.078l2.412-5.879h1.021V223h-.82v-5.381h-.43l.986-1.47-2.837 6.851h-.742l-2.832-6.851.981 1.47h-.429V223h-.821zm8.179 0l2.598-7.046h.674v1.138h-.279l-2.07 5.908h-.923zm1.177-2.017l.273-.747h3.184l.273.747h-3.73zm3.965 2.017l-2.071-5.908v-1.138h.396l2.598 7.046h-.923zm3.159 0v-6.255h-2.271v-.791h5.42v.791h-2.27V223h-.879zm7.3.166c-.583 0-1.084-.109-1.504-.327a2.338 2.338 0 01-.962-.908c-.225-.391-.337-.842-.337-1.353v-4.624h.879v4.566c0 .54.168.981.503 1.323.338.342.812.512 1.421.512.612 0 1.084-.17 1.416-.512.332-.342.498-.783.498-1.323v-4.566h.879v4.624c0 .511-.113.962-.337 1.353-.222.387-.541.69-.957.908-.417.218-.917.327-1.499.327zm4.58-.166v-7.046h2.69c.453 0 .847.088 1.182.264.338.172.601.415.786.727.186.313.278.681.278 1.104v.01c0 .488-.125.911-.376 1.269a1.94 1.94 0 01-1.04.747l1.631 2.925h-1.03l-1.509-2.788H248.302V223h-.879zm.879-3.569h1.733c.453 0 .801-.116 1.045-.347.247-.234.371-.566.371-.996v-.01c0-.42-.128-.749-.386-.986-.257-.238-.613-.357-1.069-.357h-1.694v2.696zm5.654 3.569v-7.046h.879V223h-.879zm4.507 0v-6.255h-2.271v-.791h5.42v.791h-2.27V223h-.879zm6.445 0v-3.032l-2.5-4.014h1.001l1.9 3.13h.078l1.899-3.13h1.001l-2.5 4.014V223h-.879zm9.097 1.758a6.576 6.576 0 01-.781-1.338 7.076 7.076 0 01-.459-1.509 9.46 9.46 0 01-.147-1.709c0-.605.049-1.173.147-1.704a6.846 6.846 0 01.454-1.509 6.42 6.42 0 01.786-1.343h.713a4.09 4.09 0 00-.493.85c-.15.342-.28.719-.391 1.133-.111.41-.197.836-.259 1.279-.062.44-.093.871-.093 1.294 0 .427.031.861.093 1.304.062.439.148.866.259 1.279.111.41.241.785.391 1.123.153.342.317.625.493.85h-.713zm2.148-1.758v-7.046h2.417c.697 0 1.293.14 1.787.42a2.76 2.76 0 011.143 1.201c.264.524.396 1.156.396 1.895v.009c0 .739-.132 1.373-.396 1.9a2.795 2.795 0 01-1.138 1.206c-.494.277-1.092.415-1.792.415h-2.417zm.879-.791h1.48c.524 0 .971-.107 1.342-.322a2.09 2.09 0 00.85-.933c.195-.407.293-.895.293-1.465v-.01c0-.572-.099-1.062-.298-1.469a2.09 2.09 0 00-.849-.938c-.371-.218-.817-.327-1.338-.327h-1.48v5.464zm5.484.791l2.597-7.046h.674v1.138h-.278L283.438 223h-.922zm1.176-2.017l.274-.747h3.183l.274.747h-3.731zm3.965 2.017l-2.07-5.908v-1.138h.395L288.58 223h-.923zm3.364 0v-3.032l-2.5-4.014h1.001l1.9 3.13h.078l1.899-3.13h1.001l-2.5 4.014V223h-.879zm6.827.166c-.515 0-.964-.083-1.348-.249a2.278 2.278 0 01-.908-.693 1.971 1.971 0 01-.386-1.016l-.005-.054h.879l.005.054c.023.234.112.438.269.61.159.17.371.301.634.396.267.094.57.141.908.141.319 0 .603-.05.85-.151.251-.104.448-.247.591-.43a.99.99 0 00.215-.629v-.005a.966.966 0 00-.323-.738c-.214-.201-.564-.356-1.049-.464l-.782-.17c-.706-.157-1.22-.398-1.543-.723-.319-.329-.478-.749-.478-1.26v-.005c.003-.39.109-.735.317-1.035.212-.299.503-.534.874-.703a3.105 3.105 0 011.289-.254c.469 0 .884.085 1.246.254.361.166.647.391.859.674.215.283.334.6.356.952l.005.068h-.879l-.009-.063a1.104 1.104 0 00-.254-.552 1.401 1.401 0 00-.547-.386 2.02 2.02 0 00-.801-.136 2.17 2.17 0 00-.791.136 1.322 1.322 0 00-.562.396.965.965 0 00-.205.625v.005c0 .28.105.516.313.708.208.192.552.34 1.03.444l.781.176c.736.163 1.262.399 1.578.708.315.309.473.718.473 1.225v.005c0 .44-.107.819-.322 1.138a2.11 2.11 0 01-.908.742c-.391.173-.848.259-1.372.259zm4.419 1.592h-.713c.175-.225.338-.508.488-.85a7.44 7.44 0 00.396-1.123c.11-.413.196-.84.258-1.279.062-.443.093-.877.093-1.304 0-.423-.031-.854-.093-1.294a10.6 10.6 0 00-.258-1.279 7.576 7.576 0 00-.396-1.133 4.002 4.002 0 00-.488-.85h.713c.319.42.581.868.786 1.343a6.9 6.9 0 01.454 1.509 9.48 9.48 0 01.146 1.704c0 .606-.05 1.175-.151 1.709a6.9 6.9 0 01-.454 1.509 6.31 6.31 0 01-.781 1.338z" fill="#CDCDCD"/><path d="M69.425 89v-7.506h-2.724v-.95h6.504v.95H70.48V89h-1.055zm5.531-2.93v-.949h6.2v.95h-6.2zm2.625 2.684v-6.317h.95v6.317h-.95zm6.95.246l3.796-7.43v-.082h-4.523v-.943h5.595v.978L85.638 89H84.53zm10.534.2c-.625 0-1.16-.18-1.606-.54-.441-.36-.78-.869-1.02-1.53-.237-.663-.357-1.448-.357-2.355v-.011c0-.907.12-1.69.358-2.35.238-.66.578-1.17 1.02-1.53.445-.359.98-.538 1.605-.538s1.16.18 1.605.539c.446.36.787.869 1.026 1.53.242.66.363 1.442.363 2.349v.011c0 .907-.121 1.692-.363 2.356-.239.66-.58 1.17-1.026 1.53-.445.358-.98.538-1.605.538zm0-.92c.406 0 .752-.143 1.037-.428.289-.286.51-.69.662-1.213.156-.524.234-1.145.234-1.864v-.011c0-.72-.078-1.338-.234-1.858-.152-.523-.373-.925-.662-1.207a1.413 1.413 0 00-1.037-.427c-.403 0-.748.142-1.037.427-.285.282-.504.684-.657 1.207-.152.52-.228 1.139-.228 1.858v.011c0 .72.076 1.34.228 1.864.153.523.372.927.657 1.213.289.285.634.427 1.037.427zM246.433 99v-7.506h-2.724v-.95h6.503v.95h-2.724V99h-1.055zm5.531-2.93v-.949h6.199v.95h-6.199zm2.625 2.684v-6.317h.949v6.317h-.949zm9.363-8.408c.387 0 .768.074 1.143.222.378.149.72.389 1.025.721.309.332.555.772.738 1.318.184.543.276 1.213.276 2.01v.012c0 .96-.129 1.783-.387 2.467-.258.68-.629 1.2-1.113 1.564-.485.36-1.069.54-1.752.54-.473 0-.901-.087-1.284-.259a2.638 2.638 0 01-.949-.732 2.68 2.68 0 01-.527-1.09l-.018-.076h1.061l.023.064c.086.235.207.438.364.61.16.172.351.305.574.398.226.094.482.14.767.14.512 0 .928-.148 1.248-.444.321-.301.559-.7.715-1.196a6.085 6.085 0 00.264-1.623 2.17 2.17 0 00.006-.158v-.158l-.252-1.407c0-.37-.086-.707-.258-1.007a1.907 1.907 0 00-.686-.715 1.773 1.773 0 00-.966-.27c-.352 0-.672.088-.961.264a1.93 1.93 0 00-.692.703 1.919 1.919 0 00-.257.99v.012c0 .375.082.71.246 1.002.164.29.388.518.673.686.286.164.61.246.973.246.367 0 .695-.082.984-.246.29-.165.518-.39.686-.674.172-.29.258-.617.258-.985v-.006h.346v1.524h-.206c-.101.23-.257.445-.468.644-.207.2-.461.36-.762.481a2.684 2.684 0 01-1.02.182c-.527 0-1-.123-1.418-.37a2.7 2.7 0 01-.99-1.007 2.91 2.91 0 01-.363-1.454v-.011c0-.563.127-1.063.381-1.5a2.77 2.77 0 011.055-1.037c.449-.25.957-.375 1.523-.375zm9.105 8.853c-.625 0-1.16-.18-1.605-.539-.442-.36-.782-.869-1.02-1.53-.238-.663-.357-1.448-.357-2.355v-.011c0-.907.119-1.69.357-2.35.238-.66.578-1.17 1.02-1.53.445-.359.98-.538 1.605-.538s1.16.18 1.606.539c.445.36.787.869 1.025 1.53.242.66.363 1.442.363 2.349v.011c0 .907-.121 1.692-.363 2.356-.238.66-.58 1.17-1.025 1.53-.446.358-.981.538-1.606.538zm0-.92c.406 0 .752-.142 1.037-.427.289-.286.51-.69.662-1.213.157-.524.235-1.145.235-1.864v-.011c0-.72-.078-1.338-.235-1.858-.152-.523-.373-.925-.662-1.207a1.412 1.412 0 00-1.037-.427c-.402 0-.748.142-1.037.427-.285.282-.504.684-.656 1.207-.153.52-.229 1.139-.229 1.858v.011c0 .72.076 1.34.229 1.864.152.523.371.927.656 1.213.289.285.635.427 1.037.427zM429.45 57v-7.506h-2.725v-.95h6.504v.95h-2.724V57h-1.055zm5.531-2.93v-.949h6.199v.95h-6.199zm2.625 2.684v-6.316h.949v6.316h-.949zm8.665.246v-7.283h-.093l-2.151 1.558v-1.113l2.25-1.617h1.049V57h-1.055zm7.887.2c-.387 0-.77-.075-1.149-.223a2.815 2.815 0 01-1.025-.721c-.305-.332-.549-.77-.732-1.313-.184-.546-.276-1.218-.276-2.015v-.012c0-.96.129-1.781.387-2.46.258-.684.629-1.206 1.113-1.565.485-.364 1.069-.545 1.752-.545.473 0 .899.088 1.277.263.383.172.702.414.956.727.257.309.433.672.527 1.09l.017.076h-1.06l-.024-.065a1.686 1.686 0 00-.369-.609 1.573 1.573 0 00-.574-.398 1.946 1.946 0 00-.762-.14c-.511 0-.927.15-1.248.45-.32.297-.558.694-.714 1.19a6.28 6.28 0 00-.264 1.623c-.004.05-.006.103-.006.158v.158l.252 1.406c0 .372.084.707.252 1.008.172.301.402.541.691.72.289.177.612.265.967.265.356 0 .678-.086.967-.258.289-.176.517-.412.685-.71a1.94 1.94 0 00.258-.99V54.3c0-.375-.082-.707-.246-.996a1.735 1.735 0 00-.668-.686 1.89 1.89 0 00-.978-.252 1.98 1.98 0 00-.985.246c-.289.164-.519.391-.691.68a1.891 1.891 0 00-.252.979v.005h-.346v-1.523h.205c.106-.23.262-.445.469-.645.207-.199.461-.359.762-.48s.64-.182 1.019-.182c.532 0 1.006.123 1.424.37.418.245.746.582.985 1.007.242.426.363.91.363 1.453v.012c0 .563-.129 1.063-.387 1.5a2.781 2.781 0 01-1.049 1.037c-.445.25-.953.375-1.523.375zm8.882 0c-.625 0-1.16-.18-1.605-.54-.442-.36-.781-.869-1.02-1.53-.238-.663-.357-1.448-.357-2.355v-.011c0-.907.119-1.69.357-2.35.239-.66.578-1.17 1.02-1.53.445-.359.98-.538 1.605-.538s1.16.18 1.606.539c.445.36.787.869 1.025 1.53.242.66.363 1.442.363 2.349v.011c0 .907-.121 1.692-.363 2.356-.238.66-.58 1.17-1.025 1.53-.446.358-.981.538-1.606.538zm0-.92c.406 0 .752-.143 1.037-.428.289-.286.51-.69.662-1.213.157-.524.235-1.145.235-1.864v-.011c0-.72-.078-1.338-.235-1.858-.152-.523-.373-.925-.662-1.207a1.412 1.412 0 00-1.037-.427c-.402 0-.748.142-1.037.427-.285.282-.504.684-.656 1.207-.152.52-.229 1.139-.229 1.858v.011c0 .72.077 1.34.229 1.864.152.523.371.927.656 1.213.289.285.635.427 1.037.427zM507.43 19v-7.506h-2.724v-.95h6.504v.95h-2.725V19h-1.055zm5.531-2.93v-.949h6.2v.95h-6.2zm2.625 2.684v-6.317h.95v6.317h-.95zm9.475.387c-.582 0-1.09-.1-1.524-.3a2.583 2.583 0 01-1.031-.82 2.35 2.35 0 01-.434-1.189l-.006-.07h1.014l.006.058c.043.414.242.752.598 1.014.355.262.814.393 1.377.393.371 0 .695-.065.972-.194.281-.129.5-.306.656-.533.157-.23.235-.494.235-.791v-.012c0-.52-.174-.918-.522-1.195-.343-.281-.812-.422-1.406-.422h-1.06v-.89h1.013c.336 0 .633-.063.891-.188.258-.129.459-.303.603-.522.145-.222.217-.474.217-.755v-.012c0-.297-.062-.549-.187-.756a1.2 1.2 0 00-.551-.475c-.238-.109-.529-.164-.873-.164-.332 0-.629.057-.891.17-.258.11-.465.268-.621.475-.156.207-.25.453-.281.738l-.006.059h-1.014l.006-.059c.047-.46.192-.863.434-1.207.246-.344.57-.611.972-.803.407-.191.873-.287 1.401-.287.539 0 1.008.094 1.406.281.402.184.713.44.932.768.222.324.334.701.334 1.131v.012c0 .347-.076.656-.229.925-.152.27-.363.495-.633.674-.269.18-.58.307-.931.381v.024c.617.05 1.115.26 1.494.627.383.363.574.845.574 1.447v.012c0 .468-.127.888-.381 1.26a2.62 2.62 0 01-1.043.878c-.441.211-.945.317-1.511.317zm9.907-.141v-1.752h-4.119v-.96a315.462 315.462 0 011.424-2.339 155.811 155.811 0 011.471-2.314c.246-.375.488-.739.726-1.09H536v5.76h1.201v.943H536V19h-1.032zm-3.041-2.69h3.047v-4.787h-.07a225.908 225.908 0 00-1.195 1.828 146.166 146.166 0 00-1.213 1.94c-.196.32-.385.637-.569.95v.07zm11.133 2.89c-.625 0-1.16-.18-1.606-.54-.441-.36-.781-.869-1.019-1.53-.239-.663-.358-1.448-.358-2.355v-.011c0-.907.119-1.69.358-2.35.238-.66.578-1.17 1.019-1.53.446-.359.981-.538 1.606-.538.625 0 1.16.18 1.605.539.446.36.787.869 1.026 1.53.242.66.363 1.442.363 2.349v.011c0 .907-.121 1.692-.363 2.356-.239.66-.58 1.17-1.026 1.53-.445.358-.98.538-1.605.538zm0-.92c.406 0 .752-.143 1.037-.428.289-.286.51-.69.662-1.213.156-.524.234-1.145.234-1.864v-.011c0-.72-.078-1.338-.234-1.858-.152-.523-.373-.926-.662-1.207a1.412 1.412 0 00-1.037-.428c-.403 0-.748.143-1.037.428-.286.281-.504.684-.657 1.207-.152.52-.228 1.139-.228 1.858v.011c0 .72.076 1.34.228 1.864.153.523.371.927.657 1.213.289.285.634.427 1.037.427z" fill="#fff"/><g clip-path="url(#prefix__clip0_659_4641)"><path d="M28 241h51v59c0 7.542 0 11.314-2.343 13.657S70.543 316 63 316H44c-7.542 0-11.314 0-13.657-2.343S28 307.542 28 300v-59z" fill="url(#prefix__paint0_linear_659_4641)"/><path opacity=".5" d="M79 271.5c0 .829-11.417 1.5-25.5 1.5s-25.5-.672-25.5-1.5c0-.829 11.417-1.5 25.5-1.5s25.5.672 25.5 1.5z" fill="#000"/><path opacity=".5" d="M79 270.5c0 .829-11.417 1.5-25.5 1.5s-25.5-.672-25.5-1.5c0-.829 11.417-1.5 25.5-1.5s25.5.672 25.5 1.5z" fill="#0ABAB5"/><path d="M28 305.5h-.5v1h.5v-1zm10 1a.5.5 0 000-1v1zm-10 0h10v-1H28v1zM28 300.5h-.5v1h.5v-1zm5 1a.5.5 0 000-1v1zm-5 0h5v-1h-5v1zM28 285.5h-.5v1h.5v-1zm5 1a.5.5 0 000-1v1zm-5 0h5v-1h-5v1zM28 270.5h-.5v1h.5v-1zm5 1a.5.5 0 000-1v1zm-5 0h5v-1h-5v1zM28 255.5h-.5v1h.5v-1zm5 1a.5.5 0 000-1v1zm-5 0h5v-1h-5v1zM28 295.5h-.5v1h.5v-1zm5 1a.5.5 0 000-1v1zm-5 0h5v-1h-5v1zM28 280.5h-.5v1h.5v-1zm5 1a.5.5 0 000-1v1zm-5 0h5v-1h-5v1zM28 265.5h-.5v1h.5v-1zm5 1a.5.5 0 000-1v1zm-5 0h5v-1h-5v1zM28 250.5h-.5v1h.5v-1zm5 1a.5.5 0 000-1v1zm-5 0h5v-1h-5v1zM28 290.5h-.5v1h.5v-1zm10 1a.5.5 0 000-1v1zm-10 0h10v-1H28v1zM28 275.5h-.5v1h.5v-1zm10 1a.5.5 0 000-1v1zm-10 0h10v-1H28v1zM28 260.5h-.5v1h.5v-1zm10 1a.5.5 0 000-1v1zm-10 0h10v-1H28v1zM28 245.5h-.5v1h.5v-1zm10 1a.5.5 0 000-1v1zm-10 0h10v-1H28v1z" fill="#CCCDCD"/></g><path d="M28 241h51-51zm51.5 67a8.5 8.5 0 01-8.5 8.5H36a8.5 8.5 0 01-8.5-8.5h1a7.5 7.5 0 007.5 7.5h35a7.5 7.5 0 007.5-7.5h1zM36 316.5a8.5 8.5 0 01-8.5-8.5v-67h1v67a7.5 7.5 0 007.5 7.5v1zM79.5 241v67a8.5 8.5 0 01-8.5 8.5v-1a7.5 7.5 0 007.5-7.5v-67h1z" fill="#CCCDCD"/><g clip-path="url(#prefix__clip1_659_4641)" fill="#CCCDCD"><path d="M117 305.5h-.5v1h.5v-1zm10 1a.5.5 0 000-1v1zm-10 0h10v-1h-10v1zM117 300.5h-.5v1h.5v-1zm5 1a.5.5 0 000-1v1zm-5 0h5v-1h-5v1zM117 285.5h-.5v1h.5v-1zm5 1a.5.5 0 000-1v1zm-5 0h5v-1h-5v1zM117 270.5h-.5v1h.5v-1zm5 1a.5.5 0 000-1v1zm-5 0h5v-1h-5v1zM117 255.5h-.5v1h.5v-1zm5 1a.5.5 0 000-1v1zm-5 0h5v-1h-5v1zM117 295.5h-.5v1h.5v-1zm5 1a.5.5 0 000-1v1zm-5 0h5v-1h-5v1zM117 280.5h-.5v1h.5v-1zm5 1a.5.5 0 000-1v1zm-5 0h5v-1h-5v1zM117 265.5h-.5v1h.5v-1zm5 1a.5.5 0 000-1v1zm-5 0h5v-1h-5v1zM117 250.5h-.5v1h.5v-1zm5 1a.5.5 0 000-1v1zm-5 0h5v-1h-5v1zM117 290.5h-.5v1h.5v-1zm10 1a.5.5 0 000-1v1zm-10 0h10v-1h-10v1zM117 275.5h-.5v1h.5v-1zm10 1a.5.5 0 000-1v1zm-10 0h10v-1h-10v1zM117 260.5h-.5v1h.5v-1zm10 1a.5.5 0 000-1v1zm-10 0h10v-1h-10v1zM117 245.5h-.5v1h.5v-1zm10 1a.5.5 0 000-1v1zm-10 0h10v-1h-10v1z"/></g><path d="M117 241h51-51zm51.5 67a8.5 8.5 0 01-8.5 8.5h-35a8.5 8.5 0 01-8.5-8.5h1a7.5 7.5 0 007.5 7.5h35a7.5 7.5 0 007.5-7.5h1zm-43.5 8.5a8.5 8.5 0 01-8.5-8.5v-67h1v67a7.5 7.5 0 007.5 7.5v1zm43.5-75.5v67a8.5 8.5 0 01-8.5 8.5v-1a7.5 7.5 0 007.5-7.5v-67h1z" fill="#CCCDCD"/><g clip-path="url(#prefix__clip2_659_4641)"><path d="M206 241h51v59c0 7.542 0 11.314-2.343 13.657S248.542 316 241 316h-19c-7.542 0-11.314 0-13.657-2.343S206 307.542 206 300v-59z" fill="url(#prefix__paint1_linear_659_4641)"/><path d="M206 305.5h-.5v1h.5v-1zm10 1a.5.5 0 000-1v1zm-10 0h10v-1h-10v1zM206 300.5h-.5v1h.5v-1zm5 1a.5.5 0 000-1v1zm-5 0h5v-1h-5v1zM206 285.5h-.5v1h.5v-1zm5 1a.5.5 0 000-1v1zm-5 0h5v-1h-5v1zM206 270.5h-.5v1h.5v-1zm5 1a.5.5 0 000-1v1zm-5 0h5v-1h-5v1zM206 255.5h-.5v1h.5v-1zm5 1a.5.5 0 000-1v1zm-5 0h5v-1h-5v1zM206 295.5h-.5v1h.5v-1zm5 1a.5.5 0 000-1v1zm-5 0h5v-1h-5v1zM206 280.5h-.5v1h.5v-1zm5 1a.5.5 0 000-1v1zm-5 0h5v-1h-5v1zM206 265.5h-.5v1h.5v-1zm5 1a.5.5 0 000-1v1zm-5 0h5v-1h-5v1zM206 250.5h-.5v1h.5v-1zm5 1a.5.5 0 000-1v1zm-5 0h5v-1h-5v1zM206 290.5h-.5v1h.5v-1zm10 1a.5.5 0 000-1v1zm-10 0h10v-1h-10v1zM206 275.5h-.5v1h.5v-1zm10 1a.5.5 0 000-1v1zm-10 0h10v-1h-10v1zM206 260.5h-.5v1h.5v-1zm10 1a.5.5 0 000-1v1zm-10 0h10v-1h-10v1zM206 245.5h-.5v1h.5v-1zm10 1a.5.5 0 000-1v1zm-10 0h10v-1h-10v1z" fill="#CCCDCD"/><path opacity=".5" d="M257 288.5c0 .829-11.417 1.5-25.5 1.5s-25.5-.672-25.5-1.5c0-.829 11.417-1.5 25.5-1.5s25.5.672 25.5 1.5z" fill="#000"/><path opacity=".5" d="M257 287.5c0 .829-11.417 1.5-25.5 1.5s-25.5-.672-25.5-1.5c0-.829 11.417-1.5 25.5-1.5s25.5.672 25.5 1.5z" fill="#0ABAB5"/></g><path d="M206 241h51-51zm51.5 67a8.5 8.5 0 01-8.5 8.5h-35a8.5 8.5 0 01-8.5-8.5h1a7.5 7.5 0 007.5 7.5h35a7.5 7.5 0 007.5-7.5h1zm-43.5 8.5a8.5 8.5 0 01-8.5-8.5v-67h1v67a7.5 7.5 0 007.5 7.5v1zm43.5-75.5v67a8.5 8.5 0 01-8.5 8.5v-1a7.5 7.5 0 007.5-7.5v-67h1z" fill="#CCCDCD"/><g clip-path="url(#prefix__clip3_659_4641)" fill="#CCCDCD"><path d="M295 305.5h-.5v1h.5v-1zm10 1a.5.5 0 000-1v1zm-10 0h10v-1h-10v1zM295 300.5h-.5v1h.5v-1zm5 1a.5.5 0 000-1v1zm-5 0h5v-1h-5v1zM295 285.5h-.5v1h.5v-1zm5 1a.5.5 0 000-1v1zm-5 0h5v-1h-5v1zM295 270.5h-.5v1h.5v-1zm5 1a.5.5 0 000-1v1zm-5 0h5v-1h-5v1zM295 255.5h-.5v1h.5v-1zm5 1a.5.5 0 000-1v1zm-5 0h5v-1h-5v1zM295 295.5h-.5v1h.5v-1zm5 1a.5.5 0 000-1v1zm-5 0h5v-1h-5v1zM295 280.5h-.5v1h.5v-1zm5 1a.5.5 0 000-1v1zm-5 0h5v-1h-5v1zM295 265.5h-.5v1h.5v-1zm5 1a.5.5 0 000-1v1zm-5 0h5v-1h-5v1zM295 250.5h-.5v1h.5v-1zm5 1a.5.5 0 000-1v1zm-5 0h5v-1h-5v1zM295 290.5h-.5v1h.5v-1zm10 1a.5.5 0 000-1v1zm-10 0h10v-1h-10v1zM295 275.5h-.5v1h.5v-1zm10 1a.5.5 0 000-1v1zm-10 0h10v-1h-10v1zM295 260.5h-.5v1h.5v-1zm10 1a.5.5 0 000-1v1zm-10 0h10v-1h-10v1zM295 245.5h-.5v1h.5v-1zm10 1a.5.5 0 000-1v1zm-10 0h10v-1h-10v1z"/></g><path d="M295 241h51-51zm51.5 67a8.5 8.5 0 01-8.5 8.5h-35a8.5 8.5 0 01-8.5-8.5h1a7.5 7.5 0 007.5 7.5h35a7.5 7.5 0 007.5-7.5h1zm-43.5 8.5a8.5 8.5 0 01-8.5-8.5v-67h1v67a7.5 7.5 0 007.5 7.5v1zm43.5-75.5v67a8.5 8.5 0 01-8.5 8.5v-1a7.5 7.5 0 007.5-7.5v-67h1z" fill="#CCCDCD"/><g clip-path="url(#prefix__clip4_659_4641)"><path d="M384 241h51v59c0 7.542 0 11.314-2.343 13.657S426.542 316 419 316h-19c-7.542 0-11.314 0-13.657-2.343S384 307.542 384 300v-59z" fill="url(#prefix__paint2_linear_659_4641)"/><path opacity=".5" d="M435 261.5c0 .829-11.417 1.5-25.5 1.5s-25.5-.672-25.5-1.5c0-.829 11.417-1.5 25.5-1.5s25.5.672 25.5 1.5z" fill="#000"/><path opacity=".5" d="M435 260.5c0 .829-11.417 1.5-25.5 1.5s-25.5-.672-25.5-1.5c0-.829 11.417-1.5 25.5-1.5s25.5.672 25.5 1.5z" fill="#0ABAB5"/><path d="M384 305.5h-.5v1h.5v-1zm10 1a.5.5 0 000-1v1zm-10 0h10v-1h-10v1zM384 300.5h-.5v1h.5v-1zm5 1a.5.5 0 000-1v1zm-5 0h5v-1h-5v1zM384 285.5h-.5v1h.5v-1zm5 1a.5.5 0 000-1v1zm-5 0h5v-1h-5v1zM384 270.5h-.5v1h.5v-1zm5 1a.5.5 0 000-1v1zm-5 0h5v-1h-5v1zM384 255.5h-.5v1h.5v-1zm5 1a.5.5 0 000-1v1zm-5 0h5v-1h-5v1zM384 295.5h-.5v1h.5v-1zm5 1a.5.5 0 000-1v1zm-5 0h5v-1h-5v1zM384 280.5h-.5v1h.5v-1zm5 1a.5.5 0 000-1v1zm-5 0h5v-1h-5v1zM384 265.5h-.5v1h.5v-1zm5 1a.5.5 0 000-1v1zm-5 0h5v-1h-5v1zM384 250.5h-.5v1h.5v-1zm5 1a.5.5 0 000-1v1zm-5 0h5v-1h-5v1zM384 290.5h-.5v1h.5v-1zm10 1a.5.5 0 000-1v1zm-10 0h10v-1h-10v1zM384 275.5h-.5v1h.5v-1zm10 1a.5.5 0 000-1v1zm-10 0h10v-1h-10v1zM384 260.5h-.5v1h.5v-1zm10 1a.5.5 0 000-1v1zm-10 0h10v-1h-10v1zM384 245.5h-.5v1h.5v-1zm10 1a.5.5 0 000-1v1zm-10 0h10v-1h-10v1z" fill="#CCCDCD"/></g><path d="M384 241h51-51zm51.5 67a8.5 8.5 0 01-8.5 8.5h-35a8.5 8.5 0 01-8.5-8.5h1a7.5 7.5 0 007.5 7.5h35a7.5 7.5 0 007.5-7.5h1zm-43.5 8.5a8.5 8.5 0 01-8.5-8.5v-67h1v67a7.5 7.5 0 007.5 7.5v1zm43.5-75.5v67a8.5 8.5 0 01-8.5 8.5v-1a7.5 7.5 0 007.5-7.5v-67h1z" fill="#CCCDCD"/><g clip-path="url(#prefix__clip5_659_4641)"><path d="M473 241h51v59c0 7.542 0 11.314-2.343 13.657S515.542 316 508 316h-19c-7.542 0-11.314 0-13.657-2.343S473 307.542 473 300v-59z" fill="url(#prefix__paint3_linear_659_4641)"/><path opacity=".5" d="M525 246.5c0 .829-11.417 1.5-25.5 1.5s-25.5-.672-25.5-1.5c0-.829 11.417-1.5 25.5-1.5s25.5.672 25.5 1.5z" fill="#000"/><path opacity=".5" d="M525 245.5c0 .829-11.417 1.5-25.5 1.5s-25.5-.672-25.5-1.5c0-.829 11.417-1.5 25.5-1.5s25.5.672 25.5 1.5z" fill="#0ABAB5"/><path d="M473 305.5h-.5v1h.5v-1zm10 1a.5.5 0 000-1v1zm-10 0h10v-1h-10v1zM473 300.5h-.5v1h.5v-1zm5 1a.5.5 0 000-1v1zm-5 0h5v-1h-5v1zM473 285.5h-.5v1h.5v-1zm5 1a.5.5 0 000-1v1zm-5 0h5v-1h-5v1zM473 270.5h-.5v1h.5v-1zm5 1a.5.5 0 000-1v1zm-5 0h5v-1h-5v1zM473 255.5h-.5v1h.5v-1zm5 1a.5.5 0 000-1v1zm-5 0h5v-1h-5v1zM473 295.5h-.5v1h.5v-1zm5 1a.5.5 0 000-1v1zm-5 0h5v-1h-5v1zM473 280.5h-.5v1h.5v-1zm5 1a.5.5 0 000-1v1zm-5 0h5v-1h-5v1zM473 265.5h-.5v1h.5v-1zm5 1a.5.5 0 000-1v1zm-5 0h5v-1h-5v1zM473 250.5h-.5v1h.5v-1zm5 1a.5.5 0 000-1v1zm-5 0h5v-1h-5v1zM473 290.5h-.5v1h.5v-1zm10 1a.5.5 0 000-1v1zm-10 0h10v-1h-10v1zM473 275.5h-.5v1h.5v-1zm10 1a.5.5 0 000-1v1zm-10 0h10v-1h-10v1zM473 260.5h-.5v1h.5v-1zm10 1a.5.5 0 000-1v1zm-10 0h10v-1h-10v1zM473 245.5h-.5v1h.5v-1zm10 1a.5.5 0 000-1v1zm-10 0h10v-1h-10v1z" fill="#CCCDCD"/></g><path d="M473 241h51-51zm51.5 67a8.5 8.5 0 01-8.5 8.5h-35a8.5 8.5 0 01-8.5-8.5h1a7.5 7.5 0 007.5 7.5h35a7.5 7.5 0 007.5-7.5h1zm-43.5 8.5a8.5 8.5 0 01-8.5-8.5v-67h1v67a7.5 7.5 0 007.5 7.5v1zm43.5-75.5v67a8.5 8.5 0 01-8.5 8.5v-1a7.5 7.5 0 007.5-7.5v-67h1z" fill="#CCCDCD"/><path d="M54.5 196.997l-.003.5 1 .006.003-.5-1-.006zM56.537 1.003a.5.5 0 10-1-.005l1 .005zm-1.03 194.515a.5.5 0 00-1-.005l1 .005zm-.983-2.975a.5.5 0 101 .005l-1-.005zm1.015-2.965a.5.5 0 10-1-.005l1 .005zm-.984-2.975a.5.5 0 101 .006l-1-.006zm1.016-2.964a.5.5 0 00-1-.005l1 .005zm-.985-2.975a.5.5 0 001 .005l-1-.005zm1.016-2.964a.5.5 0 10-1-.006l1 .006zm-.984-2.975a.5.5 0 101 .005l-1-.005zm1.016-2.965a.5.5 0 10-1-.005l1 .005zm-.985-2.975a.5.5 0 001 .006l-1-.006zm1.016-2.964a.5.5 0 00-1-.005l1 .005zm-.984-2.975a.5.5 0 001 .005l-1-.005zm1.015-2.965a.5.5 0 10-1-.005l1 .005zm-.984-2.975a.5.5 0 101 .006l-1-.006zm1.016-2.964a.5.5 0 00-1-.005l1 .005zm-.984-2.975a.5.5 0 001 .005l-1-.005zm1.015-2.964a.5.5 0 00-1-.006l1 .006zm-.984-2.975a.5.5 0 101 .005l-1-.005zm1.016-2.965a.5.5 0 10-1-.005l1 .005zm-.985-2.975a.5.5 0 001 .006l-1-.006zm1.016-2.964a.5.5 0 00-1-.005l1 .005zm-.984-2.975a.5.5 0 001 .005l-1-.005zm1.015-2.964a.5.5 0 10-1-.006l1 .006zm-.984-2.975a.5.5 0 101 .005l-1-.005zm1.016-2.965a.5.5 0 10-1-.005l1 .005zm-.984-2.975a.5.5 0 001 .005l-1-.005zm1.015-2.964a.5.5 0 00-1-.006l1 .006zm-.984-2.975a.5.5 0 101 .005l-1-.005zm1.016-2.965a.5.5 0 10-1-.005l1 .005zm-.984-2.975a.5.5 0 101 .006l-1-.006zm1.015-2.964a.5.5 0 00-1-.005l1 .005zm-.984-2.975a.5.5 0 001 .005l-1-.005zm1.016-2.964a.5.5 0 10-1-.006l1 .006zm-.985-2.975a.5.5 0 101 .005l-1-.005zm1.016-2.965a.5.5 0 00-1-.005l1 .005zm-.984-2.975a.5.5 0 101 .006l-1-.006zm1.016-2.964a.5.5 0 10-1-.005l1 .005zm-.985-2.975a.5.5 0 001 .005l-1-.005zm1.016-2.965a.5.5 0 10-1-.005l1 .005zm-.984-2.974a.5.5 0 001 .005l-1-.005zm1.015-2.965a.5.5 0 00-1-.005l1 .005zm-.984-2.975a.5.5 0 101 .005l-1-.005zm1.016-2.964a.5.5 0 00-1-.006l1 .006zm-.984-2.975a.5.5 0 101 .005l-1-.005zm1.015-2.965a.5.5 0 10-1-.005l1 .005zm-.984-2.975a.5.5 0 001 .006l-1-.006zm1.016-2.964a.5.5 0 10-1-.005l1 .005zm-.985-2.975a.5.5 0 101 .005l-1-.005zm1.016-2.965a.5.5 0 00-1-.005l1 .005zm-.984-2.974a.5.5 0 101 .005l-1-.005zm1.016-2.965a.5.5 0 00-1-.005l1 .005zm-.985-2.975a.5.5 0 101 .005l-1-.005zm1.016-2.964a.5.5 0 10-1-.006l1 .006zm-.984-2.975a.5.5 0 001 .005l-1-.005zm1.015-2.965a.5.5 0 10-1-.005l1 .005zm-.984-2.975a.5.5 0 101 .006l-1-.006zm1.016-2.964a.5.5 0 00-1-.005l1 .005zm-.984-2.975a.5.5 0 101 .005l-1-.005zm1.015-2.964a.5.5 0 00-1-.006l1 .006zm-.984-2.976a.5.5 0 101 .006l-1-.006zm1.016-2.964a.5.5 0 10-1-.005l1 .005zm-.985-2.975a.5.5 0 001 .005l-1-.005zm1.016-2.964a.5.5 0 10-1-.006l1 .006zm-.984-2.975a.5.5 0 101 .005l-1-.005zm1.016-2.965a.5.5 0 00-1-.005l1 .005zm-.985-2.975a.5.5 0 101 .006l-1-.006zM55.5 197.003l.008-1.485-1-.005-.008 1.484 1 .006zm.024-4.455l.015-2.97-1-.005-.015 2.97 1 .005zm.031-5.939l.016-2.97-1-.005-.016 2.969 1 .006zm.031-5.94l.016-2.969-1-.006-.016 2.97 1 .005zm.032-5.939l.016-2.97-1-.005-.016 2.97 1 .005zm.031-5.939l.016-2.97-1-.005-.016 2.969 1 .006zm.032-5.94l.015-2.97-1-.005-.015 2.97 1 .005zm.031-5.939l.016-2.97-1-.005-.016 2.969 1 .006zm.031-5.94l.016-2.969-1-.006-.015 2.97 1 .005zm.032-5.939l.016-2.97-1-.005-.016 2.97 1 .005zm.031-5.939l.016-2.97-1-.005-.016 2.969 1 .006zm.032-5.94l.015-2.969-1-.006-.015 2.97 1 .005zm.031-5.939l.016-2.97-1-.005-.016 2.97 1 .005zm.032-5.94l.015-2.969-1-.006-.015 2.97 1 .005zm.031-5.939l.016-2.97-1-.005-.016 2.97 1 .005zm.032-5.939l.015-2.97-1-.005-.015 2.969 1 .006zm.03-5.94l.017-2.969-1-.006-.016 2.97 1 .005zm.032-5.94l.016-2.969-1-.005-.016 2.97 1 .005zm.032-5.938l.016-2.97-1-.005-.016 2.97 1 .005zm.031-5.94l.016-2.97-1-.005-.016 2.97 1 .005zm.032-5.94l.015-2.969-1-.005-.015 2.97 1 .005zm.031-5.939l.016-2.97-1-.005-.016 2.97 1 .005zm.032-5.939l.015-2.97-1-.005-.015 2.97 1 .005zm.03-5.94l.017-2.97-1-.004-.016 2.97 1 .005zm.032-5.939l.016-2.97-1-.005-.016 2.97 1 .005zm.032-5.94l.016-2.969-1-.005-.016 2.97 1 .005zm.031-5.939l.016-2.97-1-.005-.016 2.97 1 .005zm.032-5.939l.015-2.97-1-.005-.015 2.97 1 .005zm.031-5.94l.016-2.97-1-.004-.016 2.97 1 .005zm.032-5.939l.015-2.97-1-.005-.015 2.97 1 .005zm.03-5.94l.017-2.969-1-.005-.016 2.97 1 .005zm.032-5.939l.016-2.97-1-.005-.016 2.97 1 .005zm.032-5.939l.016-2.97-1-.005-.016 2.97 1 .005zm.031-5.94l.008-1.484-1-.005-.008 1.484 1 .006zM232.5 196.997l-.003.5 1 .006.003-.5-1-.006zm2.037-195.994a.5.5 0 00-1-.005l1 .005zm-1.029 194.515a.5.5 0 00-1-.005l1 .005zm-.984-2.975a.5.5 0 001 .005l-1-.005zm1.015-2.965a.5.5 0 00-1-.005l1 .005zm-.984-2.975a.5.5 0 101 .006l-1-.006zm1.016-2.964a.5.5 0 10-1-.005l1 .005zm-.985-2.975a.5.5 0 101 .005l-1-.005zm1.016-2.964a.499.499 0 10-1-.006l1 .006zm-.984-2.975a.5.5 0 001 .005l-1-.005zm1.016-2.965a.5.5 0 00-1-.005l1 .005zm-.985-2.975a.501.501 0 001 .006l-1-.006zm1.016-2.964a.5.5 0 00-1-.005l1 .005zm-.984-2.975a.5.5 0 101 .005l-1-.005zm1.015-2.965a.5.5 0 00-1-.005l1 .005zm-.984-2.975a.5.5 0 101 .006l-1-.006zm1.016-2.964a.501.501 0 00-1-.005l1 .005zm-.984-2.975a.5.5 0 101 .005l-1-.005zm1.015-2.964a.5.5 0 00-1-.006l1 .006zm-.984-2.975a.5.5 0 101 .005l-1-.005zm1.016-2.965a.5.5 0 00-1-.005l1 .005zm-.985-2.975a.501.501 0 001 .006l-1-.006zm1.016-2.964a.5.5 0 10-1-.005l1 .005zm-.984-2.975a.5.5 0 101 .005l-1-.005zm1.016-2.964a.5.5 0 00-1-.006l1 .006zm-.985-2.975a.5.5 0 001 .005l-1-.005zm1.016-2.965a.5.5 0 10-1-.005l1 .005zm-.984-2.975a.5.5 0 101 .005l-1-.005zm1.015-2.964a.5.5 0 00-1-.006l1 .006zm-.984-2.975a.5.5 0 101 .005l-1-.005zm1.016-2.965a.5.5 0 00-1-.005l1 .005zm-.984-2.975a.499.499 0 101 .006l-1-.006zm1.015-2.964a.5.5 0 10-1-.005l1 .005zm-.984-2.975a.5.5 0 101 .005l-1-.005zm1.016-2.964a.5.5 0 00-1-.006l1 .006zm-.985-2.975a.501.501 0 001 .005l-1-.005zm1.016-2.965a.5.5 0 10-1-.005l1 .005zm-.984-2.975a.5.5 0 101 .006l-1-.006zm1.016-2.964a.501.501 0 00-1-.005l1 .005zm-.985-2.975a.5.5 0 001 .005l-1-.005zm1.016-2.965a.5.5 0 00-1-.005l1 .005zm-.984-2.974a.5.5 0 101 .005l-1-.005zm1.015-2.965a.5.5 0 10-1-.005l1 .005zm-.984-2.975a.5.5 0 001 .005l-1-.005zm1.016-2.964a.5.5 0 00-1-.006l1 .006zm-.984-2.975a.5.5 0 10.999.005l-.999-.005zm1.015-2.965a.5.5 0 10-1-.005l1 .005zm-.984-2.975a.5.5 0 101 .006l-1-.006zm1.016-2.964a.5.5 0 00-1-.005l1 .005zm-.985-2.975a.5.5 0 001 .005l-1-.005zm1.016-2.965a.5.5 0 10-1-.005l1 .005zm-.984-2.974a.5.5 0 101 .005l-1-.005zm1.015-2.965a.5.5 0 10-1-.005l1 .005zm-.984-2.975a.5.5 0 001 .005l-1-.005zm1.016-2.964a.5.5 0 00-1-.006l1 .006zm-.984-2.975a.5.5 0 101 .005l-1-.005zm1.015-2.965a.5.5 0 10-1-.005l1 .005zm-.984-2.975a.5.5 0 001 .006l-1-.006zm1.016-2.964a.5.5 0 00-1-.005l1 .005zm-.985-2.975a.5.5 0 001 .005l-1-.005zm1.016-2.964a.5.5 0 10-1-.006l1 .006zm-.984-2.976a.5.5 0 101 .006l-1-.006zm1.016-2.964a.5.5 0 00-1-.005l1 .005zm-.985-2.975a.5.5 0 001 .005l-1-.005zm1.016-2.964a.5.5 0 00-1-.006l1 .006zm-.984-2.975a.5.5 0 101 .005l-1-.005zm1.015-2.965a.5.5 0 10-1-.005l1 .005zm-.984-2.975a.5.5 0 001 .006l-1-.006zm-.029 194.521l.008-1.485-1-.005-.008 1.484 1 .006zm.024-4.455l.015-2.97-1-.005-.015 2.97 1 .005zm.031-5.939l.016-2.97-1-.005-.016 2.969 1 .006zm.031-5.94l.016-2.969-1-.006-.016 2.97 1 .005zm.032-5.939l.016-2.97-1-.005-.016 2.97 1 .005zm.031-5.939l.016-2.97-1-.005-.016 2.969 1 .006zm.032-5.94l.015-2.97-1-.005-.015 2.97 1 .005zm.031-5.939l.016-2.97-1-.005-.016 2.969 1 .006zm.032-5.94l.015-2.969-1-.006-.015 2.97 1 .005zm.031-5.939l.016-2.97-1-.005-.016 2.97 1 .005zm.031-5.939l.016-2.97-1-.005-.016 2.969 1 .006zm.032-5.94l.016-2.969-1-.006-.016 2.97 1 .005zm.031-5.939l.016-2.97-1-.005-.016 2.97 1 .005zm.032-5.94l.015-2.969-1-.006-.015 2.97 1 .005zm.031-5.939l.016-2.97-1-.005-.016 2.97 1 .005zm.032-5.939l.015-2.97-1-.005-.015 2.969 1 .006zm.031-5.94l.016-2.969-1-.006-.016 2.97 1 .005zm.031-5.94l.016-2.969-1-.005-.016 2.97 1 .005zm.032-5.938l.016-2.97-1-.005-.016 2.97 1 .005zm.031-5.94l.016-2.97-1-.005-.016 2.97 1 .005zm.032-5.94l.015-2.969-1-.005-.015 2.97 1 .005zm.031-5.939l.016-2.97-1-.005-.016 2.97 1 .005zm.031-5.939l.016-2.97-1-.005-.015 2.97.999.005zm.032-5.94l.016-2.97-1-.004-.016 2.97 1 .005zm.031-5.939l.016-2.97-1-.005-.016 2.97 1 .005zm.032-5.94l.015-2.969-1-.005-.015 2.97 1 .005zm.031-5.939l.016-2.97-1-.005-.016 2.97 1 .005zm.032-5.939l.015-2.97-1-.005-.015 2.97 1 .005zm.031-5.94l.016-2.97-1-.004-.016 2.97 1 .005zm.031-5.939l.016-2.97-1-.005-.016 2.97 1 .005zm.032-5.94l.016-2.969-1-.005-.016 2.97 1 .005zm.031-5.939l.016-2.97-1-.005-.016 2.97 1 .005zm.032-5.939l.015-2.97-1-.005-.015 2.97 1 .005zm.031-5.94l.008-1.484-1-.005-.008 1.484 1 .006zM414.5 196.997l-.003.5 1 .006.003-.5-1-.006zm2.037-195.994a.5.5 0 00-1-.005l1 .005zm-1.029 194.515a.5.5 0 00-1-.005l1 .005zm-.984-2.975a.5.5 0 001 .005l-1-.005zm1.015-2.965a.5.5 0 00-1-.005l1 .005zm-.984-2.975a.5.5 0 101 .006l-1-.006zm1.016-2.964a.5.5 0 10-1-.005l1 .005zm-.985-2.975a.5.5 0 101 .005l-1-.005zm1.016-2.964a.499.499 0 10-1-.006l1 .006zm-.984-2.975a.5.5 0 001 .005l-1-.005zm1.016-2.965a.5.5 0 00-1-.005l1 .005zm-.985-2.975a.501.501 0 001 .006l-1-.006zm1.016-2.964a.5.5 0 00-1-.005l1 .005zm-.984-2.975a.5.5 0 101 .005l-1-.005zm1.015-2.965a.5.5 0 00-1-.005l1 .005zm-.984-2.975a.5.5 0 101 .006l-1-.006zm1.016-2.964a.501.501 0 00-1-.005l1 .005zm-.984-2.975a.5.5 0 101 .005l-1-.005zm1.015-2.964a.5.5 0 00-1-.006l1 .006zm-.984-2.975a.5.5 0 101 .005l-1-.005zm1.016-2.965a.5.5 0 00-1-.005l1 .005zm-.985-2.975a.501.501 0 001 .006l-1-.006zm1.016-2.964a.5.5 0 10-1-.005l1 .005zm-.984-2.975a.5.5 0 101 .005l-1-.005zm1.016-2.964a.5.5 0 00-1-.006l1 .006zm-.985-2.975a.5.5 0 001 .005l-1-.005zm1.016-2.965a.5.5 0 10-1-.005l1 .005zm-.984-2.975a.5.5 0 101 .005l-1-.005zm1.015-2.964a.5.5 0 00-1-.006l1 .006zm-.984-2.975a.5.5 0 101 .005l-1-.005zm1.016-2.965a.5.5 0 00-1-.005l1 .005zm-.984-2.975a.499.499 0 101 .006l-1-.006zm1.015-2.964a.5.5 0 10-1-.005l1 .005zm-.984-2.975a.5.5 0 101 .005l-1-.005zm1.016-2.964a.5.5 0 00-1-.006l1 .006zm-.985-2.975a.501.501 0 001 .005l-1-.005zm1.016-2.965a.5.5 0 10-1-.005l1 .005zm-.984-2.975a.5.5 0 101 .006l-1-.006zm1.016-2.964a.501.501 0 00-1-.005l1 .005zm-.985-2.975a.5.5 0 001 .005l-1-.005zm1.016-2.965a.5.5 0 00-1-.005l1 .005zm-.984-2.974a.5.5 0 101 .005l-1-.005zm1.015-2.965a.5.5 0 10-1-.005l1 .005zm-.984-2.975a.5.5 0 001 .005l-1-.005zm1.016-2.964a.5.5 0 00-1-.006l1 .006zm-.984-2.975a.5.5 0 10.999.005l-.999-.005zm1.015-2.965a.5.5 0 10-1-.005l1 .005zm-.984-2.975a.5.5 0 101 .006l-1-.006zm1.016-2.964a.5.5 0 00-1-.005l1 .005zm-.985-2.975a.5.5 0 001 .005l-1-.005zm1.016-2.965a.5.5 0 10-1-.005l1 .005zm-.984-2.974a.5.5 0 101 .005l-1-.005zm1.015-2.965a.5.5 0 10-1-.005l1 .005zm-.984-2.975a.5.5 0 001 .005l-1-.005zm1.016-2.964a.5.5 0 00-1-.006l1 .006zm-.984-2.975a.5.5 0 101 .005l-1-.005zm1.015-2.965a.5.5 0 10-1-.005l1 .005zm-.984-2.975a.5.5 0 001 .006l-1-.006zm1.016-2.964a.5.5 0 00-1-.005l1 .005zm-.985-2.975a.5.5 0 001 .005l-1-.005zm1.016-2.964a.5.5 0 10-1-.006l1 .006zm-.984-2.976a.5.5 0 101 .006l-1-.006zm1.016-2.964a.5.5 0 00-1-.005l1 .005zm-.985-2.975a.5.5 0 001 .005l-1-.005zm1.016-2.964a.5.5 0 00-1-.006l1 .006zm-.984-2.975a.5.5 0 101 .005l-1-.005zm1.015-2.965a.5.5 0 10-1-.005l1 .005zm-.984-2.975a.5.5 0 001 .006l-1-.006zm-.029 194.521l.008-1.485-1-.005-.008 1.484 1 .006zm.024-4.455l.015-2.97-1-.005-.015 2.97 1 .005zm.031-5.939l.016-2.97-1-.005-.016 2.969 1 .006zm.031-5.94l.016-2.969-1-.006-.016 2.97 1 .005zm.032-5.939l.016-2.97-1-.005-.016 2.97 1 .005zm.031-5.939l.016-2.97-1-.005-.016 2.969 1 .006zm.032-5.94l.015-2.97-1-.005-.015 2.97 1 .005zm.031-5.939l.016-2.97-1-.005-.016 2.969 1 .006zm.032-5.94l.015-2.969-1-.006-.015 2.97 1 .005zm.031-5.939l.016-2.97-1-.005-.016 2.97 1 .005zm.031-5.939l.016-2.97-1-.005-.016 2.969 1 .006zm.032-5.94l.016-2.969-1-.006-.016 2.97 1 .005zm.031-5.939l.016-2.97-1-.005-.016 2.97 1 .005zm.032-5.94l.015-2.969-1-.006-.015 2.97 1 .005zm.031-5.939l.016-2.97-1-.005-.016 2.97 1 .005zm.032-5.939l.015-2.97-1-.005-.015 2.969 1 .006zm.031-5.94l.016-2.969-1-.006-.016 2.97 1 .005zm.031-5.94l.016-2.969-1-.005-.016 2.97 1 .005zm.032-5.938l.016-2.97-1-.005-.016 2.97 1 .005zm.031-5.94l.016-2.97-1-.005-.016 2.97 1 .005zm.032-5.94l.015-2.969-1-.005-.015 2.97 1 .005zm.031-5.939l.016-2.97-1-.005-.016 2.97 1 .005zm.031-5.939l.016-2.97-1-.005-.015 2.97.999.005zm.032-5.94l.016-2.97-1-.004-.016 2.97 1 .005zm.031-5.939l.016-2.97-1-.005-.016 2.97 1 .005zm.032-5.94l.015-2.969-1-.005-.015 2.97 1 .005zm.031-5.939l.016-2.97-1-.005-.016 2.97 1 .005zm.032-5.939l.015-2.97-1-.005-.015 2.97 1 .005zm.031-5.94l.016-2.97-1-.004-.016 2.97 1 .005zm.031-5.939l.016-2.97-1-.005-.016 2.97 1 .005zm.032-5.94l.016-2.969-1-.005-.016 2.97 1 .005zm.031-5.939l.016-2.97-1-.005-.016 2.97 1 .005zm.032-5.939l.015-2.97-1-.005-.015 2.97 1 .005zm.031-5.94l.008-1.484-1-.005-.008 1.484 1 .006z" fill="#fff" fill-opacity=".15"/><rect x="51.5" y="83.5" width="8" height="4" rx="2" fill="#0ABAB5"/><rect x="51.5" y="83.5" width="8" height="4" rx="2" stroke="#035A58"/><rect x="229.5" y="93.5" width="8" height="4" rx="2" fill="#0ABAB5"/><rect x="229.5" y="93.5" width="8" height="4" rx="2" stroke="#035A58"/><rect x="411.5" y="51.5" width="8" height="4" rx="2" fill="#0ABAB5"/><rect x="411.5" y="51.5" width="8" height="4" rx="2" stroke="#035A58"/><path d="M10.166 311.312c0 .515-.083.964-.249 1.348-.17.381-.4.684-.693.908-.297.222-.635.35-1.016.386l-.054.005v-.879l.054-.005c.234-.023.438-.112.61-.268.17-.16.301-.371.396-.635.094-.267.141-.57.141-.908 0-.319-.05-.603-.15-.85a1.426 1.426 0 00-.43-.591.992.992 0 00-.63-.215H8.14a.964.964 0 00-.738.323c-.201.215-.356.564-.464 1.049l-.17.782c-.157.706-.398 1.22-.723 1.543-.329.319-.749.478-1.26.478H4.78a1.795 1.795 0 01-1.035-.317 2.122 2.122 0 01-.703-.874 3.1 3.1 0 01-.254-1.289c0-.469.085-.884.254-1.245.166-.362.39-.648.674-.86.283-.215.6-.333.952-.356l.068-.005v.879l-.063.01a1.09 1.09 0 00-.552.253c-.163.137-.291.32-.386.547-.094.228-.14.495-.136.801 0 .293.045.557.136.791.091.235.223.422.396.562.17.136.377.205.625.205h.005c.28 0 .516-.104.708-.313.192-.208.34-.551.444-1.03l.176-.781c.163-.736.399-1.262.708-1.577.31-.316.718-.474 1.225-.474h.005c.44 0 .819.107 1.138.322.32.215.566.518.742.908.173.391.259.848.259 1.372zM10 307.245H2.954v-.879H10v.879zm0-2.676H2.954v-.879H9.21v-3.398H10v4.277zm.166-8.349c0 .674-.15 1.251-.45 1.733-.302.482-.73.853-1.283 1.113-.554.258-1.205.386-1.954.386h-.01c-.754 0-1.407-.13-1.957-.39a2.973 2.973 0 01-1.275-1.119c-.3-.485-.449-1.059-.449-1.723 0-.668.15-1.242.45-1.724.299-.485.725-.858 1.279-1.118.55-.26 1.2-.391 1.953-.391h.01c.748 0 1.4.131 1.953.391.55.257.976.628 1.279 1.113.303.482.454 1.058.454 1.729zm-.81 0c0-.482-.12-.897-.357-1.245a2.29 2.29 0 00-1.001-.806c-.433-.189-.94-.283-1.519-.283h-.01c-.585 0-1.093.094-1.523.283-.43.189-.761.457-.996.806-.234.348-.351.763-.351 1.245 0 .478.117.892.351 1.24.235.348.567.618.996.811.43.188.938.283 1.524.283h.01c.579 0 1.085-.093 1.518-.279.43-.185.763-.452 1.001-.8.238-.349.356-.767.356-1.255zm.644-4.756H2.954v-4.365h.791v3.486h2.26v-3.306h.782v3.306H9.21v-3.486H10v4.365zm0-5.957H2.954v-2.417c0-.697.14-1.292.42-1.787a2.759 2.759 0 011.201-1.143c.524-.264 1.156-.395 1.895-.395h.01c.738 0 1.372.131 1.899.395.524.264.926.643 1.206 1.138.277.495.415 1.092.415 1.792v2.417zm-.791-.879v-1.48c0-.524-.107-.971-.322-1.342a2.094 2.094 0 00-.933-.85c-.407-.195-.895-.293-1.465-.293h-.01c-.572 0-1.062.099-1.47.298-.41.195-.722.478-.937.85-.218.371-.327.817-.327 1.337v1.48H9.21zm-1.724-9.639h-.78v-1.992c0-.504-.131-.895-.392-1.172-.263-.276-.626-.415-1.088-.415h-.01c-.466 0-.829.139-1.089.415-.26.277-.39.668-.39 1.172v1.992h-.782v-2.217c0-.442.095-.833.283-1.171a2.04 2.04 0 01.791-.796c.339-.196.731-.293 1.177-.293h.01c.446 0 .84.097 1.181.293.342.192.61.457.801.796.192.338.288.729.288 1.171v2.217zm2.515.44H2.954v-.879H10v.879zm.166-9.317c0 .674-.15 1.252-.45 1.734-.302.481-.73.853-1.283 1.113-.554.257-1.205.386-1.954.386h-.01c-.754 0-1.407-.13-1.957-.391a2.971 2.971 0 01-1.275-1.118c-.3-.485-.449-1.06-.449-1.724 0-.667.15-1.242.45-1.723.299-.485.725-.858 1.279-1.118.55-.261 1.2-.391 1.953-.391h.01c.748 0 1.4.13 1.953.391.55.257.976.628 1.279 1.113.303.482.454 1.058.454 1.728zm-.81 0c0-.481-.12-.897-.357-1.245a2.289 2.289 0 00-1.001-.805c-.433-.189-.94-.284-1.519-.284h-.01c-.585 0-1.093.095-1.523.284-.43.188-.761.457-.996.805-.234.348-.351.764-.351 1.245 0 .479.117.892.351 1.241.235.348.567.618.996.81.43.189.938.283 1.524.283h.01c.579 0 1.085-.092 1.518-.278.43-.186.763-.453 1.001-.801.238-.348.356-.766.356-1.255zm.81-7.715c0 .674-.15 1.252-.45 1.734-.302.482-.73.853-1.283 1.113-.554.257-1.205.386-1.954.386h-.01c-.754 0-1.407-.13-1.957-.391a2.965 2.965 0 01-1.275-1.118c-.3-.485-.449-1.059-.449-1.724 0-.667.15-1.241.45-1.723.299-.485.725-.858 1.279-1.118.55-.261 1.2-.391 1.953-.391h.01c.748 0 1.4.13 1.953.391.55.257.976.628 1.279 1.113.303.482.454 1.058.454 1.728zm-.81 0c0-.481-.12-.896-.357-1.245a2.289 2.289 0 00-1.001-.805c-.433-.189-.94-.284-1.519-.284h-.01c-.585 0-1.093.095-1.523.284-.43.188-.761.457-.996.805-.234.349-.351.764-.351 1.245 0 .479.117.892.351 1.241.235.348.567.618.996.81.43.189.938.283 1.524.283h.01c.579 0 1.085-.092 1.518-.278.43-.185.763-.452 1.001-.801.238-.348.356-.766.356-1.255zm.644-4.755H2.954v-.879H9.21v-3.399H10v4.278zm.166-7.994c0 .515-.083.964-.249 1.348-.17.381-.4.684-.693.908-.297.222-.635.35-1.016.386l-.054.005v-.879l.054-.005c.234-.023.438-.112.61-.268a1.6 1.6 0 00.396-.635c.094-.267.141-.57.141-.908 0-.319-.05-.603-.15-.85a1.426 1.426 0 00-.43-.591.992.992 0 00-.63-.215H8.14a.964.964 0 00-.738.323c-.201.214-.356.564-.464 1.049l-.17.782c-.157.706-.398 1.22-.723 1.543-.329.319-.749.478-1.26.478H4.78a1.795 1.795 0 01-1.035-.317 2.122 2.122 0 01-.703-.874 3.1 3.1 0 01-.254-1.289c0-.469.085-.884.254-1.245.166-.362.39-.648.674-.86.283-.215.6-.333.952-.356l.068-.005v.879l-.063.01a1.09 1.09 0 00-.552.253 1.397 1.397 0 00-.386.547c-.094.228-.14.495-.136.801 0 .293.045.557.136.791.091.234.223.422.396.562.17.136.377.205.625.205h.005c.28 0 .516-.104.708-.313.192-.208.34-.552.444-1.03l.176-.781c.163-.736.399-1.262.708-1.577.31-.316.718-.474 1.225-.474h.005c.44 0 .819.107 1.138.322.32.215.566.518.742.908.173.391.259.848.259 1.372z" fill="#CDCDCD"/><defs><clipPath id="prefix__clip0_659_4641"><path d="M28 241h51v59c0 7.542 0 11.314-2.343 13.657S70.543 316 63 316H44c-7.542 0-11.314 0-13.657-2.343S28 307.542 28 300v-59z" fill="#fff"/></clipPath><clipPath id="prefix__clip1_659_4641"><path d="M117 241h51v59c0 7.542 0 11.314-2.343 13.657S159.542 316 152 316h-19c-7.542 0-11.314 0-13.657-2.343S117 307.542 117 300v-59z" fill="#fff"/></clipPath><clipPath id="prefix__clip2_659_4641"><path d="M206 241h51v59c0 7.542 0 11.314-2.343 13.657S248.542 316 241 316h-19c-7.542 0-11.314 0-13.657-2.343S206 307.542 206 300v-59z" fill="#fff"/></clipPath><clipPath id="prefix__clip3_659_4641"><path d="M295 241h51v59c0 7.542 0 11.314-2.343 13.657S337.542 316 330 316h-19c-7.542 0-11.314 0-13.657-2.343S295 307.542 295 300v-59z" fill="#fff"/></clipPath><clipPath id="prefix__clip4_659_4641"><path d="M384 241h51v59c0 7.542 0 11.314-2.343 13.657S426.542 316 419 316h-19c-7.542 0-11.314 0-13.657-2.343S384 307.542 384 300v-59z" fill="#fff"/></clipPath><clipPath id="prefix__clip5_659_4641"><path d="M473 241h51v59c0 7.542 0 11.314-2.343 13.657S515.542 316 508 316h-19c-7.542 0-11.314 0-13.657-2.343S473 307.542 473 300v-59z" fill="#fff"/></clipPath><linearGradient id="prefix__paint0_linear_659_4641" x1="53.5" y1="241" x2="53.539" y2="271.5" gradientUnits="userSpaceOnUse"><stop offset=".867" stop-opacity="0"/><stop offset="1" stop-color="#06B7D0" stop-opacity=".39"/></linearGradient><linearGradient id="prefix__paint1_linear_659_4641" x1="232" y1="283" x2="232.009" y2="290" gradientUnits="userSpaceOnUse"><stop stop-opacity="0"/><stop offset="1" stop-color="#06B7D0" stop-opacity=".39"/></linearGradient><linearGradient id="prefix__paint2_linear_659_4641" x1="409.5" y1="241" x2="409.54" y2="271.5" gradientUnits="userSpaceOnUse"><stop offset=".601" stop-opacity="0"/><stop offset=".686" stop-color="#06B7D0" stop-opacity=".39"/></linearGradient><linearGradient id="prefix__paint3_linear_659_4641" x1="498.5" y1="241" x2="498.51" y2="248.5" gradientUnits="userSpaceOnUse"><stop stop-opacity="0"/><stop offset="1" stop-color="#06B7D0" stop-opacity=".39"/></linearGradient></defs></svg>