<svg width="649" height="435" viewBox="0 0 649 435" fill="none" xmlns="http://www.w3.org/2000/svg">
<g filter="url(#filter0_bi_1110_2093)">
<rect x="0.85" y="0.85" width="647.624" height="433.3" rx="2.01237" stroke="#464646" stroke-width="0.3"/>
<path fill-rule="evenodd" clip-rule="evenodd" d="M59.7461 46.1494C59.7461 45.849 59.5026 45.6055 59.2022 45.6055C58.9017 45.6055 58.6582 45.849 58.6582 46.1494V261.562H59.7461L563.462 261.561H564.006V260.474H563.462H59.7461V46.1494Z" fill="white"/>
<path d="M36.4595 166.689H35.6096V164.522C35.6096 163.973 35.4679 163.548 35.1846 163.247C34.8977 162.946 34.5029 162.796 34 162.796H33.9894C33.4829 162.796 33.088 162.946 32.8047 163.247C32.5214 163.548 32.3798 163.973 32.3798 164.522V166.689H31.5298V164.278C31.5298 163.796 31.6325 163.371 31.8379 163.003C32.0433 162.634 32.3302 162.346 32.6985 162.137C33.0668 161.924 33.4935 161.818 33.9787 161.818H33.9894C34.4745 161.818 34.9031 161.924 35.2749 162.137C35.6468 162.346 35.9372 162.634 36.1461 163.003C36.3551 163.371 36.4595 163.796 36.4595 164.278V166.689ZM39.1953 167.167H31.5298V166.211H39.1953V167.167ZM39.1953 160.251H31.5298V157.324C31.5298 156.832 31.6254 156.403 31.8167 156.038C32.0044 155.67 32.2682 155.385 32.6082 155.183C32.9482 154.981 33.3483 154.88 33.8087 154.88H33.8194C34.3506 154.88 34.811 155.017 35.2005 155.289C35.5901 155.562 35.861 155.939 36.0133 156.421L39.1953 154.647V155.767L36.162 157.409C36.162 157.416 36.162 157.425 36.162 157.436C36.162 157.446 36.162 157.455 36.162 157.462V159.295H39.1953V160.251ZM35.3121 159.295V157.409C35.3121 156.917 35.1864 156.538 34.9349 156.272C34.6799 156.003 34.3187 155.868 33.8512 155.868H33.8406C33.3838 155.868 33.0261 156.008 32.7675 156.288C32.509 156.568 32.3798 156.956 32.3798 157.451V159.295H35.3121ZM39.1953 153.143H31.5298V152.187H39.1953V153.143ZM39.3759 147.146C39.3759 147.84 39.213 148.44 38.8872 148.947C38.5614 149.453 38.0992 149.844 37.5007 150.121C36.9022 150.393 36.1921 150.53 35.3705 150.53H35.3599C34.5347 150.53 33.8229 150.393 33.2244 150.121C32.6259 149.844 32.1637 149.455 31.8379 148.952C31.5121 148.445 31.3492 147.845 31.3492 147.151C31.3492 146.613 31.4554 146.124 31.6679 145.685C31.8769 145.242 32.169 144.877 32.5444 144.591C32.9163 144.304 33.3466 144.123 33.8353 144.049L33.8459 144.054V145.016L33.8353 145.021C33.5059 145.106 33.2226 145.249 32.9853 145.451C32.7445 145.653 32.5586 145.899 32.4276 146.19C32.2965 146.476 32.231 146.797 32.231 147.151C32.231 147.64 32.3585 148.065 32.6135 148.426C32.8685 148.784 33.2297 149.06 33.6972 149.255C34.1647 149.449 34.7189 149.547 35.3599 149.547H35.3705C36.008 149.547 36.5605 149.449 37.0279 149.255C37.4954 149.06 37.8566 148.784 38.1116 148.426C38.3666 148.065 38.4941 147.638 38.4941 147.146C38.4941 146.788 38.4374 146.464 38.3241 146.174C38.2072 145.883 38.0426 145.639 37.8301 145.441C37.614 145.242 37.3591 145.104 37.0651 145.026L37.0545 145.016V144.049H37.0651C37.5326 144.134 37.9399 144.318 38.2869 144.601C38.6304 144.885 38.8978 145.244 39.0891 145.68C39.2803 146.112 39.3759 146.6 39.3759 147.146ZM39.1953 142.444H31.5298V137.695H32.3904V141.488H34.8499V137.892H35.6999V141.488H38.3347V137.695H39.1953V142.444Z" fill="#CDCDCD"/>
<path d="M265.611 288.336V280.67H266.721L269.345 287.066H269.43L272.055 280.67H273.165V288.336H272.272V282.482H271.805L272.878 280.883L269.792 288.336H268.984L265.903 280.883L266.971 282.482H266.503V288.336H265.611ZM274.509 288.336L277.335 280.67H278.068V281.908H277.765L275.513 288.336H274.509ZM275.789 286.142L276.087 285.329H279.55L279.848 286.142H275.789ZM280.103 288.336L277.85 281.908V280.67H278.281L281.107 288.336H280.103ZM283.54 288.336V281.531H281.069V280.67H286.966V281.531H284.496V288.336H283.54ZM291.481 288.517C290.847 288.517 290.302 288.398 289.845 288.161C289.392 287.923 289.043 287.594 288.799 287.173C288.554 286.748 288.432 286.257 288.432 285.701V280.67H289.388V285.637C289.388 286.225 289.571 286.705 289.936 287.077C290.304 287.449 290.819 287.635 291.481 287.635C292.147 287.635 292.661 287.449 293.022 287.077C293.383 286.705 293.564 286.225 293.564 285.637V280.67H294.52V285.701C294.52 286.257 294.398 286.748 294.153 287.173C293.913 287.594 293.566 287.923 293.112 288.161C292.659 288.398 292.115 288.517 291.481 288.517ZM296.464 288.336V280.67H299.391C299.884 280.67 300.312 280.766 300.677 280.957C301.045 281.145 301.33 281.409 301.532 281.749C301.734 282.089 301.835 282.489 301.835 282.949V282.96C301.835 283.491 301.699 283.952 301.426 284.341C301.153 284.731 300.776 285.002 300.294 285.154L302.069 288.336H300.948L299.306 285.303C299.299 285.303 299.29 285.303 299.28 285.303C299.269 285.303 299.26 285.303 299.253 285.303H297.42V288.336H296.464ZM297.42 284.453H299.306C299.799 284.453 300.177 284.327 300.443 284.076C300.712 283.821 300.847 283.459 300.847 282.992V282.981C300.847 282.524 300.707 282.167 300.427 281.908C300.147 281.65 299.76 281.52 299.264 281.52H297.42V284.453ZM303.572 288.336V280.67H304.528V288.336H303.572ZM308.475 288.336V281.531H306.005V280.67H311.901V281.531H309.431V288.336H308.475ZM315.487 288.336V285.037L312.767 280.67H313.856L315.923 284.076H316.008L318.074 280.67H319.163L316.443 285.037V288.336H315.487ZM325.384 290.248C325.04 289.791 324.757 289.306 324.534 288.793C324.311 288.279 324.144 287.732 324.035 287.151C323.928 286.571 323.875 285.951 323.875 285.292C323.875 284.633 323.928 284.015 324.035 283.438C324.141 282.857 324.305 282.31 324.529 281.797C324.752 281.28 325.037 280.793 325.384 280.336H326.159C325.968 280.58 325.789 280.888 325.623 281.26C325.46 281.632 325.318 282.043 325.198 282.493C325.078 282.939 324.984 283.403 324.916 283.884C324.849 284.362 324.815 284.832 324.815 285.292C324.815 285.756 324.849 286.229 324.916 286.71C324.984 287.189 325.078 287.652 325.198 288.102C325.318 288.548 325.46 288.956 325.623 289.324C325.789 289.696 325.968 290.004 326.159 290.248H325.384ZM327.721 288.336V280.67H330.351C331.109 280.67 331.757 280.823 332.295 281.127C332.837 281.428 333.251 281.864 333.538 282.434C333.825 283.004 333.968 283.691 333.968 284.495V284.506C333.968 285.31 333.825 285.999 333.538 286.572C333.251 287.142 332.839 287.58 332.3 287.884C331.762 288.185 331.112 288.336 330.351 288.336H327.721ZM328.677 287.475H330.287C330.857 287.475 331.344 287.358 331.748 287.125C332.152 286.891 332.46 286.553 332.672 286.11C332.885 285.667 332.991 285.136 332.991 284.516V284.506C332.991 283.883 332.883 283.35 332.667 282.907C332.454 282.461 332.146 282.121 331.743 281.887C331.339 281.65 330.854 281.531 330.287 281.531H328.677V287.475ZM334.643 288.336L337.469 280.67H338.202V281.908H337.899L335.647 288.336H334.643ZM335.923 286.142L336.221 285.329H339.684L339.982 286.142H335.923ZM340.237 288.336L337.984 281.908V280.67H338.415L341.241 288.336H340.237ZM343.897 288.336V285.037L341.177 280.67H342.266L344.332 284.076H344.417L346.484 280.67H347.573L344.853 285.037V288.336H343.897ZM351.323 288.517C350.764 288.517 350.275 288.426 349.857 288.246C349.443 288.061 349.113 287.81 348.869 287.491C348.628 287.169 348.488 286.801 348.449 286.386L348.444 286.328H349.4L349.406 286.386C349.43 286.641 349.528 286.863 349.698 287.05C349.871 287.235 350.102 287.378 350.388 287.481C350.679 287.583 351.008 287.635 351.376 287.635C351.724 287.635 352.032 287.58 352.301 287.47C352.573 287.357 352.788 287.201 352.944 287.003C353.099 286.804 353.177 286.576 353.177 286.317V286.312C353.177 285.993 353.06 285.726 352.827 285.51C352.593 285.29 352.212 285.122 351.685 285.005L350.835 284.819C350.066 284.649 349.507 284.387 349.156 284.033C348.809 283.675 348.635 283.219 348.635 282.663V282.657C348.639 282.232 348.754 281.857 348.981 281.531C349.211 281.205 349.528 280.95 349.932 280.766C350.339 280.582 350.806 280.49 351.334 280.49C351.844 280.49 352.295 280.582 352.689 280.766C353.082 280.947 353.393 281.191 353.624 281.499C353.857 281.807 353.987 282.153 354.011 282.535L354.017 282.609H353.06L353.05 282.54C353.014 282.314 352.922 282.114 352.774 281.94C352.625 281.763 352.427 281.623 352.179 281.52C351.931 281.418 351.64 281.368 351.307 281.372C350.989 281.372 350.702 281.421 350.447 281.52C350.192 281.62 349.988 281.763 349.836 281.951C349.687 282.135 349.613 282.361 349.613 282.631V282.636C349.613 282.941 349.726 283.197 349.953 283.406C350.179 283.615 350.553 283.776 351.074 283.89L351.924 284.081C352.724 284.258 353.296 284.515 353.639 284.851C353.983 285.188 354.155 285.632 354.155 286.184V286.19C354.155 286.668 354.038 287.08 353.804 287.428C353.57 287.775 353.241 288.044 352.816 288.235C352.391 288.423 351.894 288.517 351.323 288.517ZM356.131 290.248H355.355C355.547 290.004 355.724 289.696 355.887 289.324C356.053 288.956 356.196 288.548 356.317 288.102C356.437 287.652 356.531 287.189 356.598 286.71C356.666 286.229 356.699 285.756 356.699 285.292C356.699 284.832 356.666 284.362 356.598 283.884C356.531 283.403 356.437 282.939 356.317 282.493C356.196 282.043 356.053 281.632 355.887 281.26C355.724 280.888 355.547 280.58 355.355 280.336H356.131C356.478 280.793 356.763 281.28 356.986 281.797C357.209 282.31 357.374 282.857 357.48 283.438C357.586 284.015 357.64 284.633 357.64 285.292C357.64 285.951 357.585 286.571 357.475 287.151C357.369 287.732 357.204 288.279 356.981 288.793C356.761 289.306 356.478 289.791 356.131 290.248Z" fill="#CDCDCD"/>
<path d="M102.688 142.377V134.211H99.7235V133.178H106.799V134.211H103.835V142.377H102.688ZM108.705 139.19V138.157H115.449V139.19H108.705ZM111.561 142.109V135.237H112.593V142.109H111.561ZM119.121 142.377L123.251 134.294V134.205H118.33V133.178H124.418V134.243L120.326 142.377H119.121ZM130.582 142.594C129.902 142.594 129.32 142.398 128.835 142.007C128.355 141.616 127.985 141.062 127.726 140.343C127.467 139.621 127.337 138.767 127.337 137.781V137.768C127.337 136.782 127.467 135.93 127.726 135.212C127.985 134.494 128.355 133.939 128.835 133.548C129.32 133.157 129.902 132.962 130.582 132.962C131.262 132.962 131.844 133.157 132.329 133.548C132.813 133.939 133.185 134.494 133.444 135.212C133.708 135.93 133.839 136.782 133.839 137.768V137.781C133.839 138.767 133.708 139.621 133.444 140.343C133.185 141.062 132.813 141.616 132.329 142.007C131.844 142.398 131.262 142.594 130.582 142.594ZM130.582 141.593C131.024 141.593 131.4 141.438 131.71 141.128C132.025 140.817 132.265 140.377 132.431 139.808C132.601 139.239 132.686 138.563 132.686 137.781V137.768C132.686 136.986 132.601 136.313 132.431 135.747C132.265 135.178 132.025 134.74 131.71 134.434C131.4 134.124 131.024 133.969 130.582 133.969C130.144 133.969 129.768 134.124 129.454 134.434C129.143 134.74 128.905 135.178 128.74 135.747C128.574 136.313 128.491 136.986 128.491 137.768V137.781C128.491 138.563 128.574 139.239 128.74 139.808C128.905 140.377 129.143 140.817 129.454 141.128C129.768 141.438 130.144 141.593 130.582 141.593Z" fill="white"/>
<path d="M295.217 153.256V145.09H292.252V144.057H299.328V145.09H296.364V153.256H295.217ZM301.234 150.069V149.036H307.978V150.069H301.234ZM304.09 152.988V146.116H305.122V152.988H304.09ZM314.276 143.841C314.697 143.841 315.111 143.921 315.519 144.083C315.931 144.244 316.303 144.506 316.635 144.867C316.97 145.228 317.238 145.706 317.438 146.301C317.638 146.892 317.737 147.621 317.737 148.488V148.5C317.737 149.546 317.597 150.44 317.317 151.184C317.036 151.924 316.633 152.491 316.106 152.886C315.579 153.277 314.943 153.473 314.2 153.473C313.685 153.473 313.22 153.379 312.804 153.192C312.391 153.001 312.047 152.735 311.771 152.395C311.495 152.055 311.303 151.66 311.197 151.21L311.178 151.127H312.332L312.357 151.197C312.451 151.452 312.583 151.673 312.753 151.86C312.927 152.047 313.135 152.191 313.377 152.293C313.624 152.395 313.902 152.446 314.212 152.446C314.769 152.446 315.222 152.285 315.57 151.962C315.919 151.635 316.178 151.201 316.348 150.661C316.518 150.122 316.613 149.533 316.635 148.896C316.639 148.836 316.641 148.779 316.641 148.723C316.641 148.664 316.641 148.607 316.641 148.551L316.367 147.021C316.367 146.618 316.273 146.252 316.086 145.925C315.904 145.598 315.655 145.339 315.341 145.147C315.03 144.952 314.68 144.854 314.289 144.854C313.906 144.854 313.558 144.95 313.243 145.141C312.929 145.328 312.678 145.583 312.491 145.906C312.304 146.225 312.211 146.584 312.211 146.983V146.996C312.211 147.404 312.3 147.767 312.478 148.086C312.657 148.401 312.901 148.649 313.211 148.832C313.522 149.01 313.874 149.1 314.27 149.1C314.669 149.1 315.026 149.01 315.341 148.832C315.655 148.653 315.904 148.409 316.086 148.099C316.273 147.784 316.367 147.427 316.367 147.028V147.021H316.743V148.679H316.52C316.409 148.93 316.239 149.163 316.01 149.38C315.785 149.597 315.508 149.771 315.181 149.903C314.858 150.035 314.489 150.1 314.072 150.1C313.498 150.1 312.984 149.967 312.529 149.699C312.075 149.431 311.716 149.066 311.452 148.602C311.189 148.135 311.057 147.608 311.057 147.021V147.009C311.057 146.397 311.195 145.853 311.471 145.377C311.752 144.897 312.134 144.52 312.619 144.248C313.107 143.976 313.66 143.841 314.276 143.841ZM324.182 153.473C323.502 153.473 322.92 153.277 322.435 152.886C321.955 152.495 321.585 151.941 321.326 151.222C321.067 150.5 320.937 149.646 320.937 148.66V148.647C320.937 147.661 321.067 146.809 321.326 146.091C321.585 145.373 321.955 144.818 322.435 144.427C322.92 144.036 323.502 143.841 324.182 143.841C324.862 143.841 325.444 144.036 325.928 144.427C326.413 144.818 326.785 145.373 327.044 146.091C327.308 146.809 327.439 147.661 327.439 148.647V148.66C327.439 149.646 327.308 150.5 327.044 151.222C326.785 151.941 326.413 152.495 325.928 152.886C325.444 153.277 324.862 153.473 324.182 153.473ZM324.182 152.472C324.624 152.472 325 152.317 325.31 152.006C325.625 151.696 325.865 151.256 326.03 150.687C326.2 150.117 326.285 149.442 326.285 148.66V148.647C326.285 147.865 326.2 147.191 326.03 146.626C325.865 146.057 325.625 145.619 325.31 145.313C325 145.003 324.624 144.848 324.182 144.848C323.744 144.848 323.368 145.003 323.054 145.313C322.743 145.619 322.505 146.057 322.34 146.626C322.174 147.191 322.091 147.865 322.091 148.647V148.66C322.091 149.442 322.174 150.117 322.34 150.687C322.505 151.256 322.743 151.696 323.054 152.006C323.368 152.317 323.744 152.472 324.182 152.472Z" fill="white"/>
<path d="M494.521 107.562V99.3966H491.557V98.3639H498.633V99.3966H495.668V107.562H494.521ZM500.538 104.375V103.342H507.283V104.375H500.538ZM503.394 107.295V100.423H504.427V107.295H503.394ZM512.822 107.562V99.6388H512.72L510.38 101.334V100.123L512.828 98.3639H513.969V107.562H512.822ZM521.402 107.779C520.981 107.779 520.564 107.698 520.152 107.537C519.744 107.376 519.372 107.114 519.037 106.753C518.705 106.392 518.439 105.916 518.24 105.325C518.04 104.73 517.94 103.999 517.94 103.132V103.119C517.94 102.074 518.08 101.181 518.361 100.442C518.641 99.6983 519.045 99.131 519.572 98.74C520.099 98.3448 520.734 98.1471 521.478 98.1471C521.992 98.1471 522.455 98.2428 522.868 98.434C523.284 98.621 523.631 98.8845 523.907 99.2245C524.187 99.5602 524.379 99.9554 524.481 100.41L524.5 100.493H523.346L523.32 100.423C523.227 100.164 523.093 99.9427 522.919 99.7599C522.749 99.5729 522.54 99.4285 522.294 99.3265C522.052 99.2245 521.776 99.1735 521.465 99.1735C520.909 99.1735 520.456 99.3371 520.107 99.6643C519.759 99.9873 519.5 100.419 519.33 100.958C519.164 101.494 519.068 102.082 519.043 102.724C519.039 102.779 519.037 102.837 519.037 102.896C519.037 102.952 519.037 103.009 519.037 103.068L519.311 104.598C519.311 105.002 519.402 105.367 519.585 105.695C519.772 106.022 520.023 106.283 520.337 106.479C520.651 106.67 521.002 106.766 521.389 106.766C521.776 106.766 522.126 106.672 522.441 106.485C522.755 106.294 523.004 106.037 523.186 105.714C523.373 105.391 523.467 105.032 523.467 104.637V104.624C523.467 104.216 523.378 103.855 523.199 103.54C523.025 103.221 522.783 102.973 522.472 102.794C522.162 102.612 521.807 102.52 521.408 102.52C521.013 102.52 520.656 102.609 520.337 102.788C520.023 102.966 519.772 103.213 519.585 103.527C519.402 103.838 519.311 104.192 519.311 104.592V104.598H518.935V102.941H519.158C519.272 102.69 519.442 102.456 519.668 102.24C519.893 102.023 520.169 101.849 520.496 101.717C520.824 101.585 521.193 101.519 521.606 101.519C522.184 101.519 522.7 101.653 523.155 101.921C523.609 102.189 523.966 102.554 524.226 103.017C524.489 103.481 524.621 104.008 524.621 104.598V104.611C524.621 105.223 524.481 105.767 524.2 106.243C523.924 106.719 523.543 107.095 523.059 107.371C522.574 107.643 522.022 107.779 521.402 107.779ZM531.065 107.779C530.385 107.779 529.803 107.584 529.318 107.193C528.838 106.802 528.468 106.247 528.209 105.529C527.95 104.807 527.82 103.952 527.82 102.966V102.954C527.82 101.968 527.95 101.116 528.209 100.397C528.468 99.6792 528.838 99.1246 529.318 98.7336C529.803 98.3426 530.385 98.1471 531.065 98.1471C531.745 98.1471 532.327 98.3426 532.812 98.7336C533.296 99.1246 533.668 99.6792 533.927 100.397C534.191 101.116 534.323 101.968 534.323 102.954V102.966C534.323 103.952 534.191 104.807 533.927 105.529C533.668 106.247 533.296 106.802 532.812 107.193C532.327 107.584 531.745 107.779 531.065 107.779ZM531.065 106.778C531.507 106.778 531.883 106.623 532.193 106.313C532.508 106.003 532.748 105.563 532.914 104.994C533.084 104.424 533.169 103.748 533.169 102.966V102.954C533.169 102.172 533.084 101.498 532.914 100.933C532.748 100.363 532.508 99.9257 532.193 99.6197C531.883 99.3095 531.507 99.1543 531.065 99.1543C530.627 99.1543 530.251 99.3095 529.937 99.6197C529.627 99.9257 529.389 100.363 529.223 100.933C529.057 101.498 528.974 102.172 528.974 102.954V102.966C528.974 103.748 529.057 104.424 529.223 104.994C529.389 105.563 529.627 106.003 529.937 106.313C530.251 106.623 530.627 106.778 531.065 106.778Z" fill="white"/>
<path d="M579.271 66.2207V58.0548H576.307V57.0221H583.383V58.0548H580.419V66.2207H579.271ZM585.288 63.0334V62.0007H592.033V63.0334H585.288ZM588.144 65.953V59.0811H589.177V65.953H588.144ZM598.452 66.3737C597.818 66.3737 597.266 66.2653 596.794 66.0486C596.322 65.8318 595.948 65.5344 595.672 65.1561C595.4 64.7779 595.243 64.3466 595.201 63.8621L595.194 63.7856H596.297L596.303 63.8493C596.35 64.2998 596.567 64.6674 596.954 64.9521C597.34 65.2369 597.84 65.3792 598.452 65.3792C598.855 65.3792 599.208 65.3091 599.51 65.1689C599.816 65.0286 600.054 64.8353 600.224 64.5888C600.394 64.3381 600.479 64.0512 600.479 63.7282V63.7155C600.479 63.1502 600.29 62.7168 599.911 62.415C599.537 62.1091 599.027 61.9561 598.381 61.9561H597.228V60.9871H598.33C598.696 60.9871 599.019 60.9191 599.299 60.7831C599.58 60.6429 599.799 60.4538 599.956 60.2158C600.113 59.9735 600.192 59.6994 600.192 59.3935V59.3807C600.192 59.0577 600.124 58.7836 599.988 58.5584C599.852 58.3331 599.652 58.161 599.389 58.042C599.129 57.923 598.813 57.8635 598.439 57.8635C598.078 57.8635 597.755 57.9252 597.47 58.0484C597.189 58.1674 596.964 58.3395 596.794 58.5648C596.624 58.79 596.522 59.0577 596.488 59.368L596.482 59.4317H595.379L595.385 59.368C595.436 58.8665 595.594 58.4288 595.857 58.0548C596.125 57.6808 596.478 57.3897 596.915 57.1815C597.357 56.9732 597.865 56.8691 598.439 56.8691C599.025 56.8691 599.535 56.9711 599.969 57.1751C600.406 57.3748 600.744 57.6532 600.982 58.0102C601.225 58.3629 601.346 58.773 601.346 59.2405V59.2532C601.346 59.6314 601.263 59.9672 601.097 60.2604C600.931 60.5536 600.702 60.798 600.409 60.9935C600.115 61.189 599.778 61.3271 599.395 61.4078V61.4333C600.067 61.4886 600.608 61.716 601.021 62.1154C601.437 62.5107 601.645 63.0355 601.645 63.69V63.7027C601.645 64.2127 601.507 64.6695 601.231 65.0733C600.955 65.477 600.576 65.7957 600.096 66.0295C599.616 66.259 599.068 66.3737 598.452 66.3737ZM609.231 66.2207V64.3147H604.749V63.2692C605 62.8528 605.255 62.432 605.514 62.0071C605.774 61.5778 606.035 61.1507 606.298 60.7258C606.566 60.2965 606.834 59.8716 607.102 59.4508C607.369 59.0301 607.635 58.6157 607.898 58.2078C608.166 57.7998 608.43 57.4046 608.689 57.0221H610.353V63.2884H611.659V64.3147H610.353V66.2207H609.231ZM605.922 63.2947H609.237V58.0867H609.161C608.952 58.3969 608.74 58.7199 608.523 59.0556C608.306 59.3871 608.085 59.7271 607.86 60.0755C607.639 60.424 607.418 60.7746 607.197 61.1274C606.976 61.4801 606.757 61.8328 606.541 62.1856C606.328 62.534 606.122 62.8783 605.922 63.2182V63.2947ZM618.034 66.4374C617.354 66.4374 616.771 66.242 616.287 65.851C615.807 65.46 615.437 64.9054 615.178 64.1872C614.919 63.4647 614.789 62.6105 614.789 61.6246V61.6118C614.789 60.6259 614.919 59.7738 615.178 59.0556C615.437 58.3374 615.807 57.7828 616.287 57.3918C616.771 57.0008 617.354 56.8054 618.034 56.8054C618.714 56.8054 619.296 57.0008 619.78 57.3918C620.265 57.7828 620.637 58.3374 620.896 59.0556C621.159 59.7738 621.291 60.6259 621.291 61.6118V61.6246C621.291 62.6105 621.159 63.4647 620.896 64.1872C620.637 64.9054 620.265 65.46 619.78 65.851C619.296 66.242 618.714 66.4374 618.034 66.4374ZM618.034 65.4366C618.476 65.4366 618.852 65.2815 619.162 64.9713C619.476 64.661 619.717 64.2212 619.882 63.6517C620.052 63.0823 620.137 62.4065 620.137 61.6246V61.6118C620.137 60.8299 620.052 60.1563 619.882 59.5911C619.717 59.0216 619.476 58.5839 619.162 58.2779C618.852 57.9677 618.476 57.8125 618.034 57.8125C617.596 57.8125 617.22 57.9677 616.905 58.2779C616.595 58.5839 616.357 59.0216 616.191 59.5911C616.026 60.1563 615.943 60.8299 615.943 61.6118V61.6246C615.943 62.4065 616.026 63.0823 616.191 63.6517C616.357 64.2212 616.595 64.661 616.905 64.9713C617.22 65.2815 617.596 65.4366 618.034 65.4366Z" fill="white"/>
<path d="M86.4014 259.927L86.3985 260.471L87.4864 260.477L87.4893 259.933L86.4014 259.927ZM88.6175 46.6966C88.6191 46.3962 88.3768 46.1513 88.0764 46.1498C87.776 46.1482 87.5312 46.3904 87.5296 46.6908L88.6175 46.6966ZM87.4978 258.317C87.4994 258.017 87.2572 257.772 86.9567 257.77C86.6563 257.769 86.4115 258.011 86.4099 258.311L87.4978 258.317ZM86.427 255.081C86.4254 255.381 86.6677 255.626 86.9681 255.627C87.2685 255.629 87.5133 255.387 87.5149 255.086L86.427 255.081ZM87.532 251.855C87.5336 251.555 87.2913 251.31 86.9909 251.309C86.6905 251.307 86.4457 251.549 86.4441 251.85L87.532 251.855ZM86.4612 248.619C86.4596 248.919 86.7018 249.164 87.0023 249.166C87.3027 249.167 87.5475 248.925 87.5491 248.625L86.4612 248.619ZM87.5662 245.394C87.5678 245.093 87.3255 244.848 87.0251 244.847C86.7247 244.845 86.4799 245.088 86.4783 245.388L87.5662 245.394ZM86.4954 242.157C86.4938 242.458 86.736 242.702 87.0365 242.704C87.3369 242.706 87.5817 242.463 87.5833 242.163L86.4954 242.157ZM87.6004 238.932C87.602 238.632 87.3597 238.387 87.0593 238.385C86.7589 238.384 86.5141 238.626 86.5125 238.926L87.6004 238.932ZM86.5296 235.695C86.528 235.996 86.7702 236.241 87.0706 236.242C87.3711 236.244 87.6159 236.002 87.6175 235.701L86.5296 235.695ZM87.6346 232.47C87.6362 232.17 87.3939 231.925 87.0935 231.924C86.7931 231.922 86.5482 232.164 86.5467 232.465L87.6346 232.47ZM86.5637 229.234C86.5622 229.534 86.8044 229.779 87.1048 229.781C87.4053 229.782 87.6501 229.54 87.6517 229.24L86.5637 229.234ZM87.6688 226.009C87.6704 225.708 87.4281 225.463 87.1277 225.462C86.8273 225.46 86.5824 225.702 86.5808 226.003L87.6688 226.009ZM86.5979 222.772C86.5963 223.072 86.8386 223.317 87.139 223.319C87.4394 223.32 87.6843 223.078 87.6859 222.778L86.5979 222.772ZM87.703 219.547C87.7045 219.247 87.4623 219.002 87.1619 219C86.8614 218.999 86.6166 219.241 86.615 219.541L87.703 219.547ZM86.6321 216.31C86.6305 216.611 86.8728 216.856 87.1732 216.857C87.4736 216.859 87.7185 216.617 87.72 216.316L86.6321 216.31ZM87.7371 213.085C87.7387 212.785 87.4965 212.54 87.1961 212.538C86.8956 212.537 86.6508 212.779 86.6492 213.08L87.7371 213.085ZM86.6663 209.849C86.6647 210.149 86.907 210.394 87.2074 210.396C87.5078 210.397 87.7526 210.155 87.7542 209.854L86.6663 209.849ZM87.7713 206.624C87.7729 206.323 87.5307 206.078 87.2302 206.077C86.9298 206.075 86.685 206.317 86.6834 206.618L87.7713 206.624ZM86.7005 203.387C86.6989 203.687 86.9412 203.932 87.2416 203.934C87.542 203.935 87.7868 203.693 87.7884 203.393L86.7005 203.387ZM87.8055 200.162C87.8071 199.861 87.5649 199.617 87.2644 199.615C86.964 199.613 86.7192 199.856 86.7176 200.156L87.8055 200.162ZM86.7347 196.925C86.7331 197.226 86.9754 197.471 87.2758 197.472C87.5762 197.474 87.821 197.231 87.8226 196.931L86.7347 196.925ZM87.8397 193.7C87.8413 193.4 87.599 193.155 87.2986 193.153C86.9982 193.152 86.7534 193.394 86.7518 193.694L87.8397 193.7ZM86.7689 190.464C86.7673 190.764 87.0095 191.009 87.31 191.01C87.6104 191.012 87.8552 190.77 87.8568 190.469L86.7689 190.464ZM87.8739 187.238C87.8755 186.938 87.6332 186.693 87.3328 186.692C87.0324 186.69 86.7876 186.932 86.786 187.233L87.8739 187.238ZM86.8031 184.002C86.8015 184.302 87.0437 184.547 87.3442 184.549C87.6446 184.55 87.8894 184.308 87.891 184.008L86.8031 184.002ZM87.9081 180.777C87.9097 180.476 87.6674 180.232 87.367 180.23C87.0666 180.228 86.8218 180.471 86.8202 180.771L87.9081 180.777ZM86.8373 177.54C86.8357 177.841 87.0779 178.085 87.3783 178.087C87.6788 178.089 87.9236 177.846 87.9252 177.546L86.8373 177.54ZM87.9423 174.315C87.9439 174.015 87.7016 173.77 87.4012 173.768C87.1008 173.767 86.8559 174.009 86.8544 174.309L87.9423 174.315ZM86.8714 171.078C86.8699 171.379 87.1121 171.624 87.4125 171.625C87.713 171.627 87.9578 171.385 87.9594 171.084L86.8714 171.078ZM87.9765 167.853C87.9781 167.553 87.7358 167.308 87.4354 167.307C87.135 167.305 86.8901 167.547 86.8885 167.848L87.9765 167.853ZM86.9056 164.617C86.904 164.917 87.1463 165.162 87.4467 165.164C87.7471 165.165 87.992 164.923 87.9936 164.623L86.9056 164.617ZM88.0107 161.392C88.0122 161.091 87.77 160.846 87.4696 160.845C87.1691 160.843 86.9243 161.086 86.9227 161.386L88.0107 161.392ZM86.9398 158.155C86.9382 158.455 87.1805 158.7 87.4809 158.702C87.7813 158.704 88.0262 158.461 88.0277 158.161L86.9398 158.155ZM88.0448 154.93C88.0464 154.63 87.8042 154.385 87.5038 154.383C87.2033 154.382 86.9585 154.624 86.9569 154.924L88.0448 154.93ZM86.974 151.693C86.9724 151.994 87.2147 152.239 87.5151 152.24C87.8155 152.242 88.0603 152 88.0619 151.699L86.974 151.693ZM88.079 148.468C88.0806 148.168 87.8384 147.923 87.5379 147.921C87.2375 147.92 86.9927 148.162 86.9911 148.463L88.079 148.468ZM87.0082 145.232C87.0066 145.532 87.2489 145.777 87.5493 145.779C87.8497 145.78 88.0945 145.538 88.0961 145.237L87.0082 145.232ZM88.1132 142.007C88.1148 141.706 87.8726 141.461 87.5721 141.46C87.2717 141.458 87.0269 141.7 87.0253 142.001L88.1132 142.007ZM87.0424 138.77C87.0408 139.07 87.2831 139.315 87.5835 139.317C87.8839 139.318 88.1287 139.076 88.1303 138.776L87.0424 138.77ZM88.1474 135.545C88.149 135.244 87.9067 135 87.6063 134.998C87.3059 134.996 87.0611 135.239 87.0595 135.539L88.1474 135.545ZM87.0766 132.308C87.075 132.609 87.3172 132.854 87.6177 132.855C87.9181 132.857 88.1629 132.614 88.1645 132.314L87.0766 132.308ZM88.1816 129.083C88.1832 128.783 87.9409 128.538 87.6405 128.536C87.3401 128.535 87.0953 128.777 87.0937 129.077L88.1816 129.083ZM87.1108 125.847C87.1092 126.147 87.3514 126.392 87.6519 126.393C87.9523 126.395 88.1971 126.153 88.1987 125.852L87.1108 125.847ZM88.2158 122.621C88.2174 122.321 87.9751 122.076 87.6747 122.075C87.3743 122.073 87.1295 122.315 87.1279 122.616L88.2158 122.621ZM87.145 119.385C87.1434 119.685 87.3856 119.93 87.686 119.932C87.9865 119.933 88.2313 119.691 88.2329 119.391L87.145 119.385ZM88.25 116.16C88.2516 115.859 88.0093 115.615 87.7089 115.613C87.4085 115.611 87.1636 115.854 87.1621 116.154L88.25 116.16ZM87.1791 112.923C87.1776 113.224 87.4198 113.468 87.7202 113.47C88.0207 113.472 88.2655 113.229 88.2671 112.929L87.1791 112.923ZM88.2842 109.698C88.2858 109.398 88.0435 109.153 87.7431 109.151C87.4427 109.15 87.1978 109.392 87.1962 109.692L88.2842 109.698ZM87.2133 106.461C87.2117 106.762 87.454 107.007 87.7544 107.008C88.0548 107.01 88.2997 106.768 88.3013 106.467L87.2133 106.461ZM88.3184 103.236C88.3199 102.936 88.0777 102.691 87.7773 102.69C87.4768 102.688 87.232 102.93 87.2304 103.231L88.3184 103.236ZM87.2475 99.9998C87.2459 100.3 87.4882 100.545 87.7886 100.547C88.089 100.548 88.3339 100.306 88.3354 100.006L87.2475 99.9998ZM88.3525 96.7747C88.3541 96.4742 88.1119 96.2294 87.8115 96.2278C87.511 96.2262 87.2662 96.4685 87.2646 96.7689L88.3525 96.7747ZM87.2817 93.5381C87.2801 93.8385 87.5224 94.0833 87.8228 94.0849C88.1232 94.0865 88.368 93.8442 88.3696 93.5438L87.2817 93.5381ZM88.3867 90.313C88.3883 90.0126 88.1461 89.7677 87.8456 89.7661C87.5452 89.7645 87.3004 90.0068 87.2988 90.3072L88.3867 90.313ZM87.3159 87.0764C87.3143 87.3768 87.5566 87.6216 87.857 87.6232C88.1574 87.6248 88.4022 87.3825 88.4038 87.0821L87.3159 87.0764ZM88.4209 83.8513C88.4225 83.5508 88.1803 83.306 87.8798 83.3044C87.5794 83.3028 87.3346 83.5451 87.333 83.8455L88.4209 83.8513ZM87.3501 80.6147C87.3485 80.9151 87.5908 81.1599 87.8912 81.1615C88.1916 81.1631 88.4364 80.9208 88.438 80.6204L87.3501 80.6147ZM88.4551 77.3896C88.4567 77.0891 88.2144 76.8443 87.914 76.8427C87.6136 76.8411 87.3688 77.0834 87.3672 77.3838L88.4551 77.3896ZM87.3843 74.153C87.3827 74.4534 87.6249 74.6982 87.9254 74.6998C88.2258 74.7014 88.4706 74.4591 88.4722 74.1587L87.3843 74.153ZM88.4893 70.9279C88.4909 70.6274 88.2486 70.3826 87.9482 70.381C87.6478 70.3794 87.403 70.6217 87.4014 70.9221L88.4893 70.9279ZM87.4185 67.6913C87.4169 67.9917 87.6591 68.2365 87.9596 68.2381C88.26 68.2397 88.5048 67.9974 88.5064 67.697L87.4185 67.6913ZM88.5235 64.4662C88.5251 64.1657 88.2828 63.9209 87.9824 63.9193C87.682 63.9177 87.4372 64.16 87.4356 64.4604L88.5235 64.4662ZM87.4527 61.2296C87.4511 61.53 87.6933 61.7748 87.9937 61.7764C88.2942 61.778 88.539 61.5357 88.5406 61.2353L87.4527 61.2296ZM88.5577 58.0045C88.5593 57.704 88.317 57.4592 88.0166 57.4576C87.7162 57.456 87.4713 57.6983 87.4698 57.9987L88.5577 58.0045ZM87.4868 54.7679C87.4853 55.0683 87.7275 55.3131 88.0279 55.3147C88.3284 55.3163 88.5732 55.074 88.5748 54.7736L87.4868 54.7679ZM88.5919 51.5428C88.5935 51.2423 88.3512 50.9975 88.0508 50.9959C87.7504 50.9943 87.5055 51.2366 87.5039 51.537L88.5919 51.5428ZM87.521 48.3062C87.5194 48.6066 87.7617 48.8514 88.0621 48.853C88.3625 48.8546 88.6074 48.6123 88.609 48.3119L87.521 48.3062ZM87.4893 259.933L87.4978 258.317L86.4099 258.311L86.4014 259.927L87.4893 259.933ZM87.5149 255.086L87.532 251.855L86.4441 251.85L86.427 255.081L87.5149 255.086ZM87.5491 248.625L87.5662 245.394L86.4783 245.388L86.4612 248.619L87.5491 248.625ZM87.5833 242.163L87.6004 238.932L86.5125 238.926L86.4954 242.157L87.5833 242.163ZM87.6175 235.701L87.6346 232.47L86.5467 232.465L86.5296 235.695L87.6175 235.701ZM87.6517 229.24L87.6688 226.009L86.5808 226.003L86.5637 229.234L87.6517 229.24ZM87.6859 222.778L87.703 219.547L86.615 219.541L86.5979 222.772L87.6859 222.778ZM87.72 216.316L87.7371 213.085L86.6492 213.08L86.6321 216.31L87.72 216.316ZM87.7542 209.854L87.7713 206.624L86.6834 206.618L86.6663 209.849L87.7542 209.854ZM87.7884 203.393L87.8055 200.162L86.7176 200.156L86.7005 203.387L87.7884 203.393ZM87.8226 196.931L87.8397 193.7L86.7518 193.694L86.7347 196.925L87.8226 196.931ZM87.8568 190.469L87.8739 187.238L86.786 187.233L86.7689 190.464L87.8568 190.469ZM87.891 184.008L87.9081 180.777L86.8202 180.771L86.8031 184.002L87.891 184.008ZM87.9252 177.546L87.9423 174.315L86.8544 174.309L86.8373 177.54L87.9252 177.546ZM87.9594 171.084L87.9765 167.853L86.8885 167.848L86.8714 171.078L87.9594 171.084ZM87.9936 164.623L88.0107 161.392L86.9227 161.386L86.9056 164.617L87.9936 164.623ZM88.0277 158.161L88.0448 154.93L86.9569 154.924L86.9398 158.155L88.0277 158.161ZM88.0619 151.699L88.079 148.468L86.9911 148.463L86.974 151.693L88.0619 151.699ZM88.0961 145.237L88.1132 142.007L87.0253 142.001L87.0082 145.232L88.0961 145.237ZM88.1303 138.776L88.1474 135.545L87.0595 135.539L87.0424 138.77L88.1303 138.776ZM88.1645 132.314L88.1816 129.083L87.0937 129.077L87.0766 132.308L88.1645 132.314ZM88.1987 125.852L88.2158 122.621L87.1279 122.616L87.1108 125.847L88.1987 125.852ZM88.2329 119.391L88.25 116.16L87.1621 116.154L87.145 119.385L88.2329 119.391ZM88.2671 112.929L88.2842 109.698L87.1962 109.692L87.1791 112.923L88.2671 112.929ZM88.3013 106.467L88.3184 103.236L87.2304 103.231L87.2133 106.461L88.3013 106.467ZM88.3354 100.006L88.3525 96.7747L87.2646 96.7689L87.2475 99.9998L88.3354 100.006ZM88.3696 93.5438L88.3867 90.313L87.2988 90.3072L87.2817 93.5381L88.3696 93.5438ZM88.4038 87.0821L88.4209 83.8513L87.333 83.8455L87.3159 87.0764L88.4038 87.0821ZM88.438 80.6204L88.4551 77.3896L87.3672 77.3838L87.3501 80.6147L88.438 80.6204ZM88.4722 74.1587L88.4893 70.9279L87.4014 70.9221L87.3843 74.153L88.4722 74.1587ZM88.5064 67.697L88.5235 64.4662L87.4356 64.4604L87.4185 67.6913L88.5064 67.697ZM88.5406 61.2353L88.5577 58.0045L87.4698 57.9987L87.4527 61.2296L88.5406 61.2353ZM88.5748 54.7736L88.5919 51.5428L87.5039 51.537L87.4868 54.7679L88.5748 54.7736ZM88.609 48.3119L88.6175 46.6966L87.5296 46.6908L87.521 48.3062L88.609 48.3119Z" fill="white" fill-opacity="0.15"/>
<path d="M280.054 259.927L280.051 260.471L281.139 260.477L281.142 259.933L280.054 259.927ZM282.27 46.6966C282.271 46.3962 282.029 46.1513 281.729 46.1498C281.428 46.1482 281.184 46.3904 281.182 46.6908L282.27 46.6966ZM281.15 258.317C281.152 258.017 280.91 257.772 280.609 257.77C280.309 257.769 280.064 258.011 280.062 258.311L281.15 258.317ZM280.079 255.081C280.078 255.381 280.32 255.626 280.62 255.627C280.921 255.629 281.166 255.387 281.167 255.086L280.079 255.081ZM281.184 251.855C281.186 251.555 280.944 251.31 280.643 251.309C280.343 251.307 280.098 251.549 280.096 251.85L281.184 251.855ZM280.114 248.619C280.112 248.919 280.354 249.164 280.655 249.166C280.955 249.167 281.2 248.925 281.201 248.625L280.114 248.619ZM281.219 245.394C281.22 245.093 280.978 244.848 280.677 244.847C280.377 244.845 280.132 245.088 280.131 245.388L281.219 245.394ZM280.148 242.157C280.146 242.458 280.388 242.702 280.689 242.704C280.989 242.706 281.234 242.463 281.236 242.163L280.148 242.157ZM281.253 238.932C281.254 238.632 281.012 238.387 280.712 238.385C280.411 238.384 280.166 238.626 280.165 238.926L281.253 238.932ZM280.182 235.695C280.18 235.996 280.423 236.241 280.723 236.242C281.023 236.244 281.268 236.002 281.27 235.701L280.182 235.695ZM281.287 232.47C281.289 232.17 281.046 231.925 280.746 231.924C280.445 231.922 280.201 232.164 280.199 232.465L281.287 232.47ZM280.216 229.234C280.215 229.534 280.457 229.779 280.757 229.781C281.058 229.782 281.302 229.54 281.304 229.24L280.216 229.234ZM281.321 226.009C281.323 225.708 281.08 225.463 280.78 225.462C280.48 225.46 280.235 225.702 280.233 226.003L281.321 226.009ZM280.25 222.772C280.249 223.072 280.491 223.317 280.791 223.319C281.092 223.32 281.337 223.078 281.338 222.778L280.25 222.772ZM281.355 219.547C281.357 219.247 281.115 219.002 280.814 219C280.514 218.999 280.269 219.241 280.267 219.541L281.355 219.547ZM280.284 216.31C280.283 216.611 280.525 216.856 280.826 216.857C281.126 216.859 281.371 216.617 281.372 216.316L280.284 216.31ZM281.389 213.085C281.391 212.785 281.149 212.54 280.848 212.538C280.548 212.537 280.303 212.779 280.302 213.08L281.389 213.085ZM280.319 209.849C280.317 210.149 280.559 210.394 280.86 210.396C281.16 210.397 281.405 210.155 281.407 209.854L280.319 209.849ZM281.424 206.624C281.425 206.323 281.183 206.078 280.883 206.077C280.582 206.075 280.337 206.317 280.336 206.618L281.424 206.624ZM280.353 203.387C280.351 203.687 280.594 203.932 280.894 203.934C281.194 203.935 281.439 203.693 281.441 203.393L280.353 203.387ZM281.458 200.162C281.459 199.861 281.217 199.617 280.917 199.615C280.616 199.613 280.372 199.856 280.37 200.156L281.458 200.162ZM280.387 196.925C280.385 197.226 280.628 197.471 280.928 197.472C281.229 197.474 281.473 197.231 281.475 196.931L280.387 196.925ZM281.492 193.7C281.494 193.4 281.251 193.155 280.951 193.153C280.651 193.152 280.406 193.394 280.404 193.694L281.492 193.7ZM280.421 190.464C280.42 190.764 280.662 191.009 280.962 191.01C281.263 191.012 281.508 190.77 281.509 190.469L280.421 190.464ZM281.526 187.238C281.528 186.938 281.286 186.693 280.985 186.692C280.685 186.69 280.44 186.932 280.438 187.233L281.526 187.238ZM280.455 184.002C280.454 184.302 280.696 184.547 280.996 184.549C281.297 184.55 281.542 184.308 281.543 184.008L280.455 184.002ZM281.56 180.777C281.562 180.476 281.32 180.232 281.019 180.23C280.719 180.228 280.474 180.471 280.473 180.771L281.56 180.777ZM280.49 177.54C280.488 177.841 280.73 178.085 281.031 178.087C281.331 178.089 281.576 177.846 281.578 177.546L280.49 177.54ZM281.595 174.315C281.596 174.015 281.354 173.77 281.054 173.768C280.753 173.767 280.508 174.009 280.507 174.309L281.595 174.315ZM280.524 171.078C280.522 171.379 280.764 171.624 281.065 171.625C281.365 171.627 281.61 171.385 281.612 171.084L280.524 171.078ZM281.629 167.853C281.63 167.553 281.388 167.308 281.088 167.307C280.787 167.305 280.542 167.547 280.541 167.848L281.629 167.853ZM280.558 164.617C280.556 164.917 280.799 165.162 281.099 165.164C281.399 165.165 281.644 164.923 281.646 164.623L280.558 164.617ZM281.663 161.392C281.665 161.091 281.422 160.846 281.122 160.845C280.821 160.843 280.577 161.086 280.575 161.386L281.663 161.392ZM280.592 158.155C280.591 158.455 280.833 158.7 281.133 158.702C281.434 158.704 281.679 158.461 281.68 158.161L280.592 158.155ZM281.697 154.93C281.699 154.63 281.457 154.385 281.156 154.383C280.856 154.382 280.611 154.624 280.609 154.924L281.697 154.93ZM280.626 151.693C280.625 151.994 280.867 152.239 281.167 152.24C281.468 152.242 281.713 152 281.714 151.699L280.626 151.693ZM281.731 148.468C281.733 148.168 281.491 147.923 281.19 147.921C280.89 147.92 280.645 148.162 280.643 148.463L281.731 148.468ZM280.661 145.232C280.659 145.532 280.901 145.777 281.202 145.779C281.502 145.78 281.747 145.538 281.748 145.237L280.661 145.232ZM281.766 142.007C281.767 141.706 281.525 141.461 281.224 141.46C280.924 141.458 280.679 141.7 280.678 142.001L281.766 142.007ZM280.695 138.77C280.693 139.07 280.935 139.315 281.236 139.317C281.536 139.318 281.781 139.076 281.783 138.776L280.695 138.77ZM281.8 135.545C281.801 135.244 281.559 135 281.259 134.998C280.958 134.996 280.713 135.239 280.712 135.539L281.8 135.545ZM280.729 132.308C280.727 132.609 280.97 132.854 281.27 132.855C281.57 132.857 281.815 132.614 281.817 132.314L280.729 132.308ZM281.834 129.083C281.836 128.783 281.593 128.538 281.293 128.536C280.992 128.535 280.748 128.777 280.746 129.077L281.834 129.083ZM280.763 125.847C280.762 126.147 281.004 126.392 281.304 126.393C281.605 126.395 281.849 126.153 281.851 125.852L280.763 125.847ZM281.868 122.621C281.87 122.321 281.627 122.076 281.327 122.075C281.027 122.073 280.782 122.315 280.78 122.616L281.868 122.621ZM280.797 119.385C280.796 119.685 281.038 119.93 281.338 119.932C281.639 119.933 281.884 119.691 281.885 119.391L280.797 119.385ZM281.902 116.16C281.904 115.859 281.662 115.615 281.361 115.613C281.061 115.611 280.816 115.854 280.814 116.154L281.902 116.16ZM280.831 112.923C280.83 113.224 281.072 113.468 281.373 113.47C281.673 113.472 281.918 113.229 281.919 112.929L280.831 112.923ZM281.937 109.698C281.938 109.398 281.696 109.153 281.395 109.151C281.095 109.15 280.85 109.392 280.849 109.692L281.937 109.698ZM280.866 106.461C280.864 106.762 281.106 107.007 281.407 107.008C281.707 107.01 281.952 106.768 281.954 106.467L280.866 106.461ZM281.971 103.236C281.972 102.936 281.73 102.691 281.43 102.69C281.129 102.688 280.884 102.93 280.883 103.231L281.971 103.236ZM280.9 99.9998C280.898 100.3 281.141 100.545 281.441 100.547C281.741 100.548 281.986 100.306 281.988 100.006L280.9 99.9998ZM282.005 96.7747C282.006 96.4742 281.764 96.2294 281.464 96.2278C281.163 96.2262 280.919 96.4685 280.917 96.7689L282.005 96.7747ZM280.934 93.5381C280.932 93.8385 281.175 94.0833 281.475 94.0849C281.776 94.0865 282.02 93.8442 282.022 93.5438L280.934 93.5381ZM282.039 90.313C282.041 90.0126 281.798 89.7677 281.498 89.7661C281.198 89.7645 280.953 90.0068 280.951 90.3072L282.039 90.313ZM280.968 87.0764C280.967 87.3768 281.209 87.6216 281.509 87.6232C281.81 87.6248 282.055 87.3825 282.056 87.0821L280.968 87.0764ZM282.073 83.8513C282.075 83.5508 281.833 83.306 281.532 83.3044C281.232 83.3028 280.987 83.5451 280.985 83.8455L282.073 83.8513ZM281.002 80.6147C281.001 80.9151 281.243 81.1599 281.544 81.1615C281.844 81.1631 282.089 80.9208 282.09 80.6204L281.002 80.6147ZM282.107 77.3896C282.109 77.0891 281.867 76.8443 281.566 76.8427C281.266 76.8411 281.021 77.0834 281.02 77.3838L282.107 77.3896ZM281.037 74.153C281.035 74.4534 281.277 74.6982 281.578 74.6998C281.878 74.7014 282.123 74.4591 282.125 74.1587L281.037 74.153ZM282.142 70.9279C282.143 70.6274 281.901 70.3826 281.601 70.381C281.3 70.3794 281.055 70.6217 281.054 70.9221L282.142 70.9279ZM281.071 67.6913C281.069 67.9917 281.311 68.2365 281.612 68.2381C281.912 68.2397 282.157 67.9974 282.159 67.697L281.071 67.6913ZM282.176 64.4662C282.177 64.1657 281.935 63.9209 281.635 63.9193C281.334 63.9177 281.089 64.16 281.088 64.4604L282.176 64.4662ZM281.105 61.2296C281.103 61.53 281.346 61.7748 281.646 61.7764C281.947 61.778 282.191 61.5357 282.193 61.2353L281.105 61.2296ZM282.21 58.0045C282.212 57.704 281.969 57.4592 281.669 57.4576C281.369 57.456 281.124 57.6983 281.122 57.9987L282.21 58.0045ZM281.139 54.7679C281.138 55.0683 281.38 55.3131 281.68 55.3147C281.981 55.3163 282.226 55.074 282.227 54.7736L281.139 54.7679ZM282.244 51.5428C282.246 51.2423 282.004 50.9975 281.703 50.9959C281.403 50.9943 281.158 51.2366 281.156 51.537L282.244 51.5428ZM281.173 48.3062C281.172 48.6066 281.414 48.8514 281.714 48.853C282.015 48.8546 282.26 48.6123 282.261 48.3119L281.173 48.3062ZM281.142 259.933L281.15 258.317L280.062 258.311L280.054 259.927L281.142 259.933ZM281.167 255.086L281.184 251.855L280.096 251.85L280.079 255.081L281.167 255.086ZM281.201 248.625L281.219 245.394L280.131 245.388L280.114 248.619L281.201 248.625ZM281.236 242.163L281.253 238.932L280.165 238.926L280.148 242.157L281.236 242.163ZM281.27 235.701L281.287 232.47L280.199 232.465L280.182 235.695L281.27 235.701ZM281.304 229.24L281.321 226.009L280.233 226.003L280.216 229.234L281.304 229.24ZM281.338 222.778L281.355 219.547L280.267 219.541L280.25 222.772L281.338 222.778ZM281.372 216.316L281.389 213.085L280.302 213.08L280.284 216.31L281.372 216.316ZM281.407 209.854L281.424 206.624L280.336 206.618L280.319 209.849L281.407 209.854ZM281.441 203.393L281.458 200.162L280.37 200.156L280.353 203.387L281.441 203.393ZM281.475 196.931L281.492 193.7L280.404 193.694L280.387 196.925L281.475 196.931ZM281.509 190.469L281.526 187.238L280.438 187.233L280.421 190.464L281.509 190.469ZM281.543 184.008L281.56 180.777L280.473 180.771L280.455 184.002L281.543 184.008ZM281.578 177.546L281.595 174.315L280.507 174.309L280.49 177.54L281.578 177.546ZM281.612 171.084L281.629 167.853L280.541 167.848L280.524 171.078L281.612 171.084ZM281.646 164.623L281.663 161.392L280.575 161.386L280.558 164.617L281.646 164.623ZM281.68 158.161L281.697 154.93L280.609 154.924L280.592 158.155L281.68 158.161ZM281.714 151.699L281.731 148.468L280.643 148.463L280.626 151.693L281.714 151.699ZM281.748 145.237L281.766 142.007L280.678 142.001L280.661 145.232L281.748 145.237ZM281.783 138.776L281.8 135.545L280.712 135.539L280.695 138.77L281.783 138.776ZM281.817 132.314L281.834 129.083L280.746 129.077L280.729 132.308L281.817 132.314ZM281.851 125.852L281.868 122.621L280.78 122.616L280.763 125.847L281.851 125.852ZM281.885 119.391L281.902 116.16L280.814 116.154L280.797 119.385L281.885 119.391ZM281.919 112.929L281.937 109.698L280.849 109.692L280.831 112.923L281.919 112.929ZM281.954 106.467L281.971 103.236L280.883 103.231L280.866 106.461L281.954 106.467ZM281.988 100.006L282.005 96.7747L280.917 96.7689L280.9 99.9998L281.988 100.006ZM282.022 93.5438L282.039 90.313L280.951 90.3072L280.934 93.5381L282.022 93.5438ZM282.056 87.0821L282.073 83.8513L280.985 83.8455L280.968 87.0764L282.056 87.0821ZM282.09 80.6204L282.107 77.3896L281.02 77.3838L281.002 80.6147L282.09 80.6204ZM282.125 74.1587L282.142 70.9279L281.054 70.9221L281.037 74.153L282.125 74.1587ZM282.159 67.697L282.176 64.4662L281.088 64.4604L281.071 67.6913L282.159 67.697ZM282.193 61.2353L282.21 58.0045L281.122 57.9987L281.105 61.2296L282.193 61.2353ZM282.227 54.7736L282.244 51.5428L281.156 51.537L281.139 54.7679L282.227 54.7736ZM282.261 48.3119L282.27 46.6966L281.182 46.6908L281.173 48.3062L282.261 48.3119Z" fill="white" fill-opacity="0.15"/>
<path d="M478.06 259.927L478.057 260.471L479.145 260.477L479.147 259.933L478.06 259.927ZM480.276 46.6966C480.277 46.3962 480.035 46.1513 479.735 46.1498C479.434 46.1482 479.189 46.3904 479.188 46.6908L480.276 46.6966ZM479.156 258.317C479.158 258.017 478.915 257.772 478.615 257.77C478.315 257.769 478.07 258.011 478.068 258.311L479.156 258.317ZM478.085 255.081C478.084 255.381 478.326 255.626 478.626 255.627C478.927 255.629 479.172 255.387 479.173 255.086L478.085 255.081ZM479.19 251.855C479.192 251.555 478.95 251.31 478.649 251.309C478.349 251.307 478.104 251.549 478.102 251.85L479.19 251.855ZM478.119 248.619C478.118 248.919 478.36 249.164 478.66 249.166C478.961 249.167 479.206 248.925 479.207 248.625L478.119 248.619ZM479.224 245.394C479.226 245.093 478.984 244.848 478.683 244.847C478.383 244.845 478.138 245.088 478.136 245.388L479.224 245.394ZM478.154 242.157C478.152 242.458 478.394 242.702 478.695 242.704C478.995 242.706 479.24 242.463 479.241 242.163L478.154 242.157ZM479.259 238.932C479.26 238.632 479.018 238.387 478.718 238.385C478.417 238.384 478.172 238.626 478.171 238.926L479.259 238.932ZM478.188 235.695C478.186 235.996 478.428 236.241 478.729 236.242C479.029 236.244 479.274 236.002 479.276 235.701L478.188 235.695ZM479.293 232.47C479.294 232.17 479.052 231.925 478.752 231.924C478.451 231.922 478.206 232.164 478.205 232.465L479.293 232.47ZM478.222 229.234C478.22 229.534 478.463 229.779 478.763 229.781C479.063 229.782 479.308 229.54 479.31 229.24L478.222 229.234ZM479.327 226.009C479.329 225.708 479.086 225.463 478.786 225.462C478.485 225.46 478.241 225.702 478.239 226.003L479.327 226.009ZM478.256 222.772C478.255 223.072 478.497 223.317 478.797 223.319C479.098 223.32 479.342 223.078 479.344 222.778L478.256 222.772ZM479.361 219.547C479.363 219.247 479.12 219.002 478.82 219C478.52 218.999 478.275 219.241 478.273 219.541L479.361 219.547ZM478.29 216.31C478.289 216.611 478.531 216.856 478.831 216.857C479.132 216.859 479.377 216.617 479.378 216.316L478.29 216.31ZM479.395 213.085C479.397 212.785 479.155 212.54 478.854 212.538C478.554 212.537 478.309 212.779 478.307 213.08L479.395 213.085ZM478.325 209.849C478.323 210.149 478.565 210.394 478.866 210.396C479.166 210.397 479.411 210.155 479.412 209.854L478.325 209.849ZM479.43 206.624C479.431 206.323 479.189 206.078 478.888 206.077C478.588 206.075 478.343 206.317 478.342 206.618L479.43 206.624ZM478.359 203.387C478.357 203.687 478.599 203.932 478.9 203.934C479.2 203.935 479.445 203.693 479.447 203.393L478.359 203.387ZM479.464 200.162C479.465 199.861 479.223 199.617 478.923 199.615C478.622 199.613 478.377 199.856 478.376 200.156L479.464 200.162ZM478.393 196.925C478.391 197.226 478.634 197.471 478.934 197.472C479.234 197.474 479.479 197.231 479.481 196.931L478.393 196.925ZM479.498 193.7C479.5 193.4 479.257 193.155 478.957 193.153C478.656 193.152 478.412 193.394 478.41 193.694L479.498 193.7ZM478.427 190.464C478.425 190.764 478.668 191.009 478.968 191.01C479.269 191.012 479.513 190.77 479.515 190.469L478.427 190.464ZM479.532 187.238C479.534 186.938 479.291 186.693 478.991 186.692C478.691 186.69 478.446 186.932 478.444 187.233L479.532 187.238ZM478.461 184.002C478.46 184.302 478.702 184.547 479.002 184.549C479.303 184.55 479.548 184.308 479.549 184.008L478.461 184.002ZM479.566 180.777C479.568 180.476 479.326 180.232 479.025 180.23C478.725 180.228 478.48 180.471 478.478 180.771L479.566 180.777ZM478.495 177.54C478.494 177.841 478.736 178.085 479.037 178.087C479.337 178.089 479.582 177.846 479.583 177.546L478.495 177.54ZM479.6 174.315C479.602 174.015 479.36 173.77 479.059 173.768C478.759 173.767 478.514 174.009 478.513 174.309L479.6 174.315ZM478.53 171.078C478.528 171.379 478.77 171.624 479.071 171.625C479.371 171.627 479.616 171.385 479.618 171.084L478.53 171.078ZM479.635 167.853C479.636 167.553 479.394 167.308 479.094 167.307C478.793 167.305 478.548 167.547 478.547 167.848L479.635 167.853ZM478.564 164.617C478.562 164.917 478.805 165.162 479.105 165.164C479.405 165.165 479.65 164.923 479.652 164.623L478.564 164.617ZM479.669 161.392C479.67 161.091 479.428 160.846 479.128 160.845C478.827 160.843 478.583 161.086 478.581 161.386L479.669 161.392ZM478.598 158.155C478.596 158.455 478.839 158.7 479.139 158.702C479.44 158.704 479.684 158.461 479.686 158.161L478.598 158.155ZM479.703 154.93C479.705 154.63 479.462 154.385 479.162 154.383C478.862 154.382 478.617 154.624 478.615 154.924L479.703 154.93ZM478.632 151.693C478.631 151.994 478.873 152.239 479.173 152.24C479.474 152.242 479.719 152 479.72 151.699L478.632 151.693ZM479.737 148.468C479.739 148.168 479.497 147.923 479.196 147.921C478.896 147.92 478.651 148.162 478.649 148.463L479.737 148.468ZM478.666 145.232C478.665 145.532 478.907 145.777 479.207 145.779C479.508 145.78 479.753 145.538 479.754 145.237L478.666 145.232ZM479.771 142.007C479.773 141.706 479.531 141.461 479.23 141.46C478.93 141.458 478.685 141.7 478.684 142.001L479.771 142.007ZM478.701 138.77C478.699 139.07 478.941 139.315 479.242 139.317C479.542 139.318 479.787 139.076 479.789 138.776L478.701 138.77ZM479.806 135.545C479.807 135.244 479.565 135 479.265 134.998C478.964 134.996 478.719 135.239 478.718 135.539L479.806 135.545ZM478.735 132.308C478.733 132.609 478.975 132.854 479.276 132.855C479.576 132.857 479.821 132.614 479.823 132.314L478.735 132.308ZM479.84 129.083C479.841 128.783 479.599 128.538 479.299 128.536C478.998 128.535 478.753 128.777 478.752 129.077L479.84 129.083ZM478.769 125.847C478.767 126.147 479.01 126.392 479.31 126.393C479.61 126.395 479.855 126.153 479.857 125.852L478.769 125.847ZM479.874 122.621C479.876 122.321 479.633 122.076 479.333 122.075C479.032 122.073 478.788 122.315 478.786 122.616L479.874 122.621ZM478.803 119.385C478.802 119.685 479.044 119.93 479.344 119.932C479.645 119.933 479.889 119.691 479.891 119.391L478.803 119.385ZM479.908 116.16C479.91 115.859 479.668 115.615 479.367 115.613C479.067 115.611 478.822 115.854 478.82 116.154L479.908 116.16ZM478.837 112.923C478.836 113.224 479.078 113.468 479.378 113.47C479.679 113.472 479.924 113.229 479.925 112.929L478.837 112.923ZM479.942 109.698C479.944 109.398 479.702 109.153 479.401 109.151C479.101 109.15 478.856 109.392 478.854 109.692L479.942 109.698ZM478.872 106.461C478.87 106.762 479.112 107.007 479.413 107.008C479.713 107.01 479.958 106.768 479.959 106.467L478.872 106.461ZM479.977 103.236C479.978 102.936 479.736 102.691 479.435 102.69C479.135 102.688 478.89 102.93 478.889 103.231L479.977 103.236ZM478.906 99.9998C478.904 100.3 479.146 100.545 479.447 100.547C479.747 100.548 479.992 100.306 479.994 100.006L478.906 99.9998ZM480.011 96.7747C480.012 96.4742 479.77 96.2294 479.47 96.2278C479.169 96.2262 478.924 96.4685 478.923 96.7689L480.011 96.7747ZM478.94 93.5381C478.938 93.8385 479.181 94.0833 479.481 94.0849C479.781 94.0865 480.026 93.8442 480.028 93.5438L478.94 93.5381ZM480.045 90.313C480.047 90.0126 479.804 89.7677 479.504 89.7661C479.203 89.7645 478.959 90.0068 478.957 90.3072L480.045 90.313ZM478.974 87.0764C478.973 87.3768 479.215 87.6216 479.515 87.6232C479.816 87.6248 480.06 87.3825 480.062 87.0821L478.974 87.0764ZM480.079 83.8513C480.081 83.5508 479.838 83.306 479.538 83.3044C479.238 83.3028 478.993 83.5451 478.991 83.8455L480.079 83.8513ZM479.008 80.6147C479.007 80.9151 479.249 81.1599 479.549 81.1615C479.85 81.1631 480.095 80.9208 480.096 80.6204L479.008 80.6147ZM480.113 77.3896C480.115 77.0891 479.873 76.8443 479.572 76.8427C479.272 76.8411 479.027 77.0834 479.025 77.3838L480.113 77.3896ZM479.042 74.153C479.041 74.4534 479.283 74.6982 479.584 74.6998C479.884 74.7014 480.129 74.4591 480.13 74.1587L479.042 74.153ZM480.148 70.9279C480.149 70.6274 479.907 70.3826 479.606 70.381C479.306 70.3794 479.061 70.6217 479.06 70.9221L480.148 70.9279ZM479.077 67.6913C479.075 67.9917 479.317 68.2365 479.618 68.2381C479.918 68.2397 480.163 67.9974 480.165 67.697L479.077 67.6913ZM480.182 64.4662C480.183 64.1657 479.941 63.9209 479.641 63.9193C479.34 63.9177 479.095 64.16 479.094 64.4604L480.182 64.4662ZM479.111 61.2296C479.109 61.53 479.352 61.7748 479.652 61.7764C479.952 61.778 480.197 61.5357 480.199 61.2353L479.111 61.2296ZM480.216 58.0045C480.217 57.704 479.975 57.4592 479.675 57.4576C479.374 57.456 479.13 57.6983 479.128 57.9987L480.216 58.0045ZM479.145 54.7679C479.143 55.0683 479.386 55.3131 479.686 55.3147C479.987 55.3163 480.231 55.074 480.233 54.7736L479.145 54.7679ZM480.25 51.5428C480.252 51.2423 480.009 50.9975 479.709 50.9959C479.409 50.9943 479.164 51.2366 479.162 51.537L480.25 51.5428ZM479.179 48.3062C479.178 48.6066 479.42 48.8514 479.72 48.853C480.021 48.8546 480.266 48.6123 480.267 48.3119L479.179 48.3062ZM479.147 259.933L479.156 258.317L478.068 258.311L478.06 259.927L479.147 259.933ZM479.173 255.086L479.19 251.855L478.102 251.85L478.085 255.081L479.173 255.086ZM479.207 248.625L479.224 245.394L478.136 245.388L478.119 248.619L479.207 248.625ZM479.241 242.163L479.259 238.932L478.171 238.926L478.154 242.157L479.241 242.163ZM479.276 235.701L479.293 232.47L478.205 232.465L478.188 235.695L479.276 235.701ZM479.31 229.24L479.327 226.009L478.239 226.003L478.222 229.234L479.31 229.24ZM479.344 222.778L479.361 219.547L478.273 219.541L478.256 222.772L479.344 222.778ZM479.378 216.316L479.395 213.085L478.307 213.08L478.29 216.31L479.378 216.316ZM479.412 209.854L479.43 206.624L478.342 206.618L478.325 209.849L479.412 209.854ZM479.447 203.393L479.464 200.162L478.376 200.156L478.359 203.387L479.447 203.393ZM479.481 196.931L479.498 193.7L478.41 193.694L478.393 196.925L479.481 196.931ZM479.515 190.469L479.532 187.238L478.444 187.233L478.427 190.464L479.515 190.469ZM479.549 184.008L479.566 180.777L478.478 180.771L478.461 184.002L479.549 184.008ZM479.583 177.546L479.6 174.315L478.513 174.309L478.495 177.54L479.583 177.546ZM479.618 171.084L479.635 167.853L478.547 167.848L478.53 171.078L479.618 171.084ZM479.652 164.623L479.669 161.392L478.581 161.386L478.564 164.617L479.652 164.623ZM479.686 158.161L479.703 154.93L478.615 154.924L478.598 158.155L479.686 158.161ZM479.72 151.699L479.737 148.468L478.649 148.463L478.632 151.693L479.72 151.699ZM479.754 145.237L479.771 142.007L478.684 142.001L478.666 145.232L479.754 145.237ZM479.789 138.776L479.806 135.545L478.718 135.539L478.701 138.77L479.789 138.776ZM479.823 132.314L479.84 129.083L478.752 129.077L478.735 132.308L479.823 132.314ZM479.857 125.852L479.874 122.621L478.786 122.616L478.769 125.847L479.857 125.852ZM479.891 119.391L479.908 116.16L478.82 116.154L478.803 119.385L479.891 119.391ZM479.925 112.929L479.942 109.698L478.854 109.692L478.837 112.923L479.925 112.929ZM479.959 106.467L479.977 103.236L478.889 103.231L478.872 106.461L479.959 106.467ZM479.994 100.006L480.011 96.7747L478.923 96.7689L478.906 99.9998L479.994 100.006ZM480.028 93.5438L480.045 90.313L478.957 90.3072L478.94 93.5381L480.028 93.5438ZM480.062 87.0821L480.079 83.8513L478.991 83.8455L478.974 87.0764L480.062 87.0821ZM480.096 80.6204L480.113 77.3896L479.025 77.3838L479.008 80.6147L480.096 80.6204ZM480.13 74.1587L480.148 70.9279L479.06 70.9221L479.042 74.153L480.13 74.1587ZM480.165 67.697L480.182 64.4662L479.094 64.4604L479.077 67.6913L480.165 67.697ZM480.199 61.2353L480.216 58.0045L479.128 57.9987L479.111 61.2296L480.199 61.2353ZM480.233 54.7736L480.25 51.5428L479.162 51.537L479.145 54.7679L480.233 54.7736ZM480.267 48.3119L480.276 46.6966L479.188 46.6908L479.179 48.3062L480.267 48.3119Z" fill="white" fill-opacity="0.15"/>
<path d="M562.919 259.927L562.916 260.471L564.004 260.477L564.007 259.933L562.919 259.927ZM565.135 46.6966C565.137 46.3962 564.894 46.1513 564.594 46.1498C564.294 46.1482 564.049 46.3904 564.047 46.6908L565.135 46.6966ZM564.015 258.317C564.017 258.017 563.775 257.772 563.474 257.77C563.174 257.769 562.929 258.011 562.927 258.311L564.015 258.317ZM562.945 255.081C562.943 255.381 563.185 255.626 563.486 255.627C563.786 255.629 564.031 255.387 564.032 255.086L562.945 255.081ZM564.05 251.855C564.051 251.555 563.809 251.31 563.509 251.309C563.208 251.307 562.963 251.549 562.962 251.85L564.05 251.855ZM562.979 248.619C562.977 248.919 563.219 249.164 563.52 249.166C563.82 249.167 564.065 248.925 564.067 248.625L562.979 248.619ZM564.084 245.394C564.085 245.093 563.843 244.848 563.543 244.847C563.242 244.845 562.997 245.088 562.996 245.388L564.084 245.394ZM563.013 242.157C563.011 242.458 563.254 242.702 563.554 242.704C563.854 242.706 564.099 242.463 564.101 242.163L563.013 242.157ZM564.118 238.932C564.12 238.632 563.877 238.387 563.577 238.385C563.276 238.384 563.032 238.626 563.03 238.926L564.118 238.932ZM563.047 235.695C563.046 235.996 563.288 236.241 563.588 236.242C563.889 236.244 564.133 236.002 564.135 235.701L563.047 235.695ZM564.152 232.47C564.154 232.17 563.911 231.925 563.611 231.924C563.311 231.922 563.066 232.164 563.064 232.465L564.152 232.47ZM563.081 229.234C563.08 229.534 563.322 229.779 563.622 229.781C563.923 229.782 564.168 229.54 564.169 229.24L563.081 229.234ZM564.186 226.009C564.188 225.708 563.946 225.463 563.645 225.462C563.345 225.46 563.1 225.702 563.098 226.003L564.186 226.009ZM563.116 222.772C563.114 223.072 563.356 223.317 563.657 223.319C563.957 223.32 564.202 223.078 564.203 222.778L563.116 222.772ZM564.221 219.547C564.222 219.247 563.98 219.002 563.679 219C563.379 218.999 563.134 219.241 563.133 219.541L564.221 219.547ZM563.15 216.31C563.148 216.611 563.39 216.856 563.691 216.857C563.991 216.859 564.236 216.617 564.238 216.316L563.15 216.31ZM564.255 213.085C564.256 212.785 564.014 212.54 563.714 212.538C563.413 212.537 563.168 212.779 563.167 213.08L564.255 213.085ZM563.184 209.849C563.182 210.149 563.425 210.394 563.725 210.396C564.025 210.397 564.27 210.155 564.272 209.854L563.184 209.849ZM564.289 206.624C564.291 206.323 564.048 206.078 563.748 206.077C563.447 206.075 563.203 206.317 563.201 206.618L564.289 206.624ZM563.218 203.387C563.216 203.687 563.459 203.932 563.759 203.934C564.06 203.935 564.304 203.693 564.306 203.393L563.218 203.387ZM564.323 200.162C564.325 199.861 564.082 199.617 563.782 199.615C563.482 199.613 563.237 199.856 563.235 200.156L564.323 200.162ZM563.252 196.925C563.251 197.226 563.493 197.471 563.793 197.472C564.094 197.474 564.339 197.231 564.34 196.931L563.252 196.925ZM564.357 193.7C564.359 193.4 564.117 193.155 563.816 193.153C563.516 193.152 563.271 193.394 563.269 193.694L564.357 193.7ZM563.286 190.464C563.285 190.764 563.527 191.009 563.828 191.01C564.128 191.012 564.373 190.77 564.374 190.469L563.286 190.464ZM564.391 187.238C564.393 186.938 564.151 186.693 563.85 186.692C563.55 186.69 563.305 186.932 563.304 187.233L564.391 187.238ZM563.321 184.002C563.319 184.302 563.561 184.547 563.862 184.549C564.162 184.55 564.407 184.308 564.409 184.008L563.321 184.002ZM564.426 180.777C564.427 180.476 564.185 180.232 563.885 180.23C563.584 180.228 563.339 180.471 563.338 180.771L564.426 180.777ZM563.355 177.54C563.353 177.841 563.595 178.085 563.896 178.087C564.196 178.089 564.441 177.846 564.443 177.546L563.355 177.54ZM564.46 174.315C564.461 174.015 564.219 173.77 563.919 173.768C563.618 173.767 563.374 174.009 563.372 174.309L564.46 174.315ZM563.389 171.078C563.387 171.379 563.63 171.624 563.93 171.625C564.231 171.627 564.475 171.385 564.477 171.084L563.389 171.078ZM564.494 167.853C564.496 167.553 564.253 167.308 563.953 167.307C563.653 167.305 563.408 167.547 563.406 167.848L564.494 167.853ZM563.423 164.617C563.422 164.917 563.664 165.162 563.964 165.164C564.265 165.165 564.51 164.923 564.511 164.623L563.423 164.617ZM564.528 161.392C564.53 161.091 564.288 160.846 563.987 160.845C563.687 160.843 563.442 161.086 563.44 161.386L564.528 161.392ZM563.457 158.155C563.456 158.455 563.698 158.7 563.998 158.702C564.299 158.704 564.544 158.461 564.545 158.161L563.457 158.155ZM564.562 154.93C564.564 154.63 564.322 154.385 564.021 154.383C563.721 154.382 563.476 154.624 563.474 154.924L564.562 154.93ZM563.492 151.693C563.49 151.994 563.732 152.239 564.033 152.24C564.333 152.242 564.578 152 564.58 151.699L563.492 151.693ZM564.597 148.468C564.598 148.168 564.356 147.923 564.056 147.921C563.755 147.92 563.51 148.162 563.509 148.463L564.597 148.468ZM563.526 145.232C563.524 145.532 563.766 145.777 564.067 145.779C564.367 145.78 564.612 145.538 564.614 145.237L563.526 145.232ZM564.631 142.007C564.632 141.706 564.39 141.461 564.09 141.46C563.789 141.458 563.544 141.7 563.543 142.001L564.631 142.007ZM563.56 138.77C563.558 139.07 563.801 139.315 564.101 139.317C564.401 139.318 564.646 139.076 564.648 138.776L563.56 138.77ZM564.665 135.545C564.667 135.244 564.424 135 564.124 134.998C563.823 134.996 563.579 135.239 563.577 135.539L564.665 135.545ZM563.594 132.308C563.593 132.609 563.835 132.854 564.135 132.855C564.436 132.857 564.68 132.614 564.682 132.314L563.594 132.308ZM564.699 129.083C564.701 128.783 564.459 128.538 564.158 128.536C563.858 128.535 563.613 128.777 563.611 129.077L564.699 129.083ZM563.628 125.847C563.627 126.147 563.869 126.392 564.169 126.393C564.47 126.395 564.715 126.153 564.716 125.852L563.628 125.847ZM564.733 122.621C564.735 122.321 564.493 122.076 564.192 122.075C563.892 122.073 563.647 122.315 563.645 122.616L564.733 122.621ZM563.663 119.385C563.661 119.685 563.903 119.93 564.204 119.932C564.504 119.933 564.749 119.691 564.75 119.391L563.663 119.385ZM564.768 116.16C564.769 115.859 564.527 115.615 564.226 115.613C563.926 115.611 563.681 115.854 563.68 116.154L564.768 116.16ZM563.697 112.923C563.695 113.224 563.937 113.468 564.238 113.47C564.538 113.472 564.783 113.229 564.785 112.929L563.697 112.923ZM564.802 109.698C564.803 109.398 564.561 109.153 564.261 109.151C563.96 109.15 563.715 109.392 563.714 109.692L564.802 109.698ZM563.731 106.461C563.729 106.762 563.972 107.007 564.272 107.008C564.572 107.01 564.817 106.768 564.819 106.467L563.731 106.461ZM564.836 103.236C564.838 102.936 564.595 102.691 564.295 102.69C563.994 102.688 563.75 102.93 563.748 103.231L564.836 103.236ZM563.765 99.9998C563.764 100.3 564.006 100.545 564.306 100.547C564.607 100.548 564.851 100.306 564.853 100.006L563.765 99.9998ZM564.87 96.7747C564.872 96.4742 564.629 96.2294 564.329 96.2278C564.029 96.2262 563.784 96.4685 563.782 96.7689L564.87 96.7747ZM563.799 93.5381C563.798 93.8385 564.04 94.0833 564.34 94.0849C564.641 94.0865 564.886 93.8442 564.887 93.5438L563.799 93.5381ZM564.904 90.313C564.906 90.0126 564.664 89.7677 564.363 89.7661C564.063 89.7645 563.818 90.0068 563.816 90.3072L564.904 90.313ZM563.833 87.0764C563.832 87.3768 564.074 87.6216 564.375 87.6232C564.675 87.6248 564.92 87.3825 564.921 87.0821L563.833 87.0764ZM564.938 83.8513C564.94 83.5508 564.698 83.306 564.397 83.3044C564.097 83.3028 563.852 83.5451 563.851 83.8455L564.938 83.8513ZM563.868 80.6147C563.866 80.9151 564.108 81.1599 564.409 81.1615C564.709 81.1631 564.954 80.9208 564.956 80.6204L563.868 80.6147ZM564.973 77.3896C564.974 77.0891 564.732 76.8443 564.432 76.8427C564.131 76.8411 563.886 77.0834 563.885 77.3838L564.973 77.3896ZM563.902 74.153C563.9 74.4534 564.143 74.6982 564.443 74.6998C564.743 74.7014 564.988 74.4591 564.99 74.1587L563.902 74.153ZM565.007 70.9279C565.008 70.6274 564.766 70.3826 564.466 70.381C564.165 70.3794 563.921 70.6217 563.919 70.9221L565.007 70.9279ZM563.936 67.6913C563.934 67.9917 564.177 68.2365 564.477 68.2381C564.778 68.2397 565.022 67.9974 565.024 67.697L563.936 67.6913ZM565.041 64.4662C565.043 64.1657 564.8 63.9209 564.5 63.9193C564.2 63.9177 563.955 64.16 563.953 64.4604L565.041 64.4662ZM563.97 61.2296C563.969 61.53 564.211 61.7748 564.511 61.7764C564.812 61.778 565.057 61.5357 565.058 61.2353L563.97 61.2296ZM565.075 58.0045C565.077 57.704 564.835 57.4592 564.534 57.4576C564.234 57.456 563.989 57.6983 563.987 57.9987L565.075 58.0045ZM564.004 54.7679C564.003 55.0683 564.245 55.3131 564.546 55.3147C564.846 55.3163 565.091 55.074 565.092 54.7736L564.004 54.7679ZM565.109 51.5428C565.111 51.2423 564.869 50.9975 564.568 50.9959C564.268 50.9943 564.023 51.2366 564.022 51.537L565.109 51.5428ZM564.039 48.3062C564.037 48.6066 564.279 48.8514 564.58 48.853C564.88 48.8546 565.125 48.6123 565.127 48.3119L564.039 48.3062ZM564.007 259.933L564.015 258.317L562.927 258.311L562.919 259.927L564.007 259.933ZM564.032 255.086L564.05 251.855L562.962 251.85L562.945 255.081L564.032 255.086ZM564.067 248.625L564.084 245.394L562.996 245.388L562.979 248.619L564.067 248.625ZM564.101 242.163L564.118 238.932L563.03 238.926L563.013 242.157L564.101 242.163ZM564.135 235.701L564.152 232.47L563.064 232.465L563.047 235.695L564.135 235.701ZM564.169 229.24L564.186 226.009L563.098 226.003L563.081 229.234L564.169 229.24ZM564.203 222.778L564.221 219.547L563.133 219.541L563.116 222.772L564.203 222.778ZM564.238 216.316L564.255 213.085L563.167 213.08L563.15 216.31L564.238 216.316ZM564.272 209.854L564.289 206.624L563.201 206.618L563.184 209.849L564.272 209.854ZM564.306 203.393L564.323 200.162L563.235 200.156L563.218 203.387L564.306 203.393ZM564.34 196.931L564.357 193.7L563.269 193.694L563.252 196.925L564.34 196.931ZM564.374 190.469L564.391 187.238L563.304 187.233L563.286 190.464L564.374 190.469ZM564.409 184.008L564.426 180.777L563.338 180.771L563.321 184.002L564.409 184.008ZM564.443 177.546L564.46 174.315L563.372 174.309L563.355 177.54L564.443 177.546ZM564.477 171.084L564.494 167.853L563.406 167.848L563.389 171.078L564.477 171.084ZM564.511 164.623L564.528 161.392L563.44 161.386L563.423 164.617L564.511 164.623ZM564.545 158.161L564.562 154.93L563.474 154.924L563.457 158.155L564.545 158.161ZM564.58 151.699L564.597 148.468L563.509 148.463L563.492 151.693L564.58 151.699ZM564.614 145.237L564.631 142.007L563.543 142.001L563.526 145.232L564.614 145.237ZM564.648 138.776L564.665 135.545L563.577 135.539L563.56 138.77L564.648 138.776ZM564.682 132.314L564.699 129.083L563.611 129.077L563.594 132.308L564.682 132.314ZM564.716 125.852L564.733 122.621L563.645 122.616L563.628 125.847L564.716 125.852ZM564.75 119.391L564.768 116.16L563.68 116.154L563.663 119.385L564.75 119.391ZM564.785 112.929L564.802 109.698L563.714 109.692L563.697 112.923L564.785 112.929ZM564.819 106.467L564.836 103.236L563.748 103.231L563.731 106.461L564.819 106.467ZM564.853 100.006L564.87 96.7747L563.782 96.7689L563.765 99.9998L564.853 100.006ZM564.887 93.5438L564.904 90.313L563.816 90.3072L563.799 93.5381L564.887 93.5438ZM564.921 87.0821L564.938 83.8513L563.851 83.8455L563.833 87.0764L564.921 87.0821ZM564.956 80.6204L564.973 77.3896L563.885 77.3838L563.868 80.6147L564.956 80.6204ZM564.99 74.1587L565.007 70.9279L563.919 70.9221L563.902 74.153L564.99 74.1587ZM565.024 67.697L565.041 64.4662L563.953 64.4604L563.936 67.6913L565.024 67.697ZM565.058 61.2353L565.075 58.0045L563.987 57.9987L563.97 61.2296L565.058 61.2353ZM565.092 54.7736L565.109 51.5428L564.022 51.537L564.004 54.7679L565.092 54.7736ZM565.127 48.3119L565.135 46.6966L564.047 46.6908L564.039 48.3062L565.127 48.3119Z" fill="white" fill-opacity="0.15"/>
<rect x="83.1377" y="136.448" width="8.70352" height="4.35176" rx="2.17588" fill="#0ABAB5"/>
<rect x="83.1377" y="136.448" width="8.70352" height="4.35176" rx="2.17588" stroke="#035A58" stroke-width="1.08794"/>
<rect x="276.79" y="147.327" width="8.70352" height="4.35176" rx="2.17588" fill="#0ABAB5"/>
<rect x="276.79" y="147.327" width="8.70352" height="4.35176" rx="2.17588" stroke="#035A58" stroke-width="1.08794"/>
<rect x="474.794" y="101.634" width="8.70352" height="4.35176" rx="2.17588" fill="#0ABAB5"/>
<rect x="474.794" y="101.634" width="8.70352" height="4.35176" rx="2.17588" stroke="#035A58" stroke-width="1.08794"/>
<rect x="559.653" y="60.292" width="8.70352" height="4.35176" rx="2.17588" fill="#0ABAB5"/>
<rect x="559.653" y="60.292" width="8.70352" height="4.35176" rx="2.17588" stroke="#035A58" stroke-width="1.08794"/>
<path d="M38.288 384.505C38.288 385.064 38.1977 385.553 38.0171 385.971C37.833 386.385 37.5815 386.715 37.2628 386.959C36.9405 387.2 36.5722 387.34 36.1578 387.379L36.0994 387.384V386.428L36.1578 386.422C36.4128 386.398 36.6342 386.3 36.8219 386.13C37.006 385.957 37.1495 385.726 37.2522 385.44C37.3549 385.149 37.4062 384.82 37.4062 384.452C37.4062 384.104 37.3513 383.796 37.2415 383.527C37.1282 383.255 36.9724 383.04 36.7741 382.884C36.5757 382.729 36.3473 382.651 36.0888 382.651H36.0835C35.7647 382.651 35.4974 382.768 35.2813 383.001C35.0618 383.235 34.8935 383.616 34.7767 384.143L34.5907 384.993C34.4208 385.762 34.1587 386.321 33.8045 386.672C33.4468 387.019 32.99 387.193 32.434 387.193H32.4287C32.0037 387.189 31.6283 387.074 31.3025 386.847C30.9767 386.617 30.7217 386.3 30.5375 385.896C30.3534 385.489 30.2613 385.022 30.2613 384.494C30.2613 383.984 30.3534 383.533 30.5375 383.139C30.7181 382.746 30.9625 382.435 31.2706 382.204C31.5787 381.971 31.924 381.841 32.3065 381.817L32.3809 381.811V382.768L32.3118 382.778C32.0852 382.814 31.8851 382.906 31.7115 383.054C31.5345 383.203 31.3946 383.401 31.2919 383.649C31.1892 383.897 31.1396 384.188 31.1431 384.521C31.1431 384.839 31.1927 385.126 31.2919 385.381C31.391 385.636 31.5345 385.84 31.7222 385.992C31.9063 386.141 32.133 386.215 32.4021 386.215H32.4074C32.712 386.215 32.9687 386.102 33.1777 385.875C33.3866 385.649 33.5478 385.275 33.6611 384.754L33.8523 383.904C34.0294 383.104 34.2862 382.532 34.6226 382.189C34.9591 381.845 35.4035 381.673 35.956 381.673H35.9613C36.4394 381.673 36.852 381.79 37.199 382.024C37.5461 382.258 37.8153 382.587 38.0065 383.012C38.1942 383.437 38.288 383.934 38.288 384.505ZM38.1074 380.08H30.4419V379.123H38.1074V380.08ZM38.1074 377.169H30.4419V376.212H37.2468V372.515H38.1074V377.169ZM38.288 368.085C38.288 368.818 38.1251 369.446 37.7993 369.97C37.47 370.495 37.0043 370.898 36.4022 371.182C35.8002 371.461 35.0919 371.601 34.2773 371.601H34.2667C33.4451 371.601 32.735 371.46 32.1365 371.176C31.538 370.889 31.0758 370.484 30.75 369.96C30.4242 369.432 30.2613 368.807 30.2613 368.085C30.2613 367.359 30.4242 366.734 30.75 366.209C31.0758 365.682 31.5398 365.276 32.1418 364.993C32.7403 364.71 33.4486 364.568 34.2667 364.568H34.2773C35.0919 364.568 35.8002 364.71 36.4022 364.993C37.0007 365.273 37.4646 365.676 37.794 366.204C38.1234 366.728 38.288 367.355 38.288 368.085ZM37.4062 368.085C37.4062 367.56 37.2769 367.109 37.0184 366.73C36.7599 366.351 36.3969 366.059 35.9294 365.854C35.4584 365.648 34.9077 365.545 34.2773 365.545H34.2667C33.6292 365.545 33.0768 365.648 32.6093 365.854C32.1418 366.059 31.7806 366.351 31.5256 366.73C31.2706 367.109 31.1431 367.56 31.1431 368.085C31.1431 368.605 31.2706 369.055 31.5256 369.434C31.7806 369.813 32.1418 370.107 32.6093 370.316C33.0768 370.521 33.6292 370.624 34.2667 370.624H34.2773C34.9077 370.624 35.4584 370.523 35.9294 370.321C36.3969 370.119 36.7599 369.829 37.0184 369.45C37.2769 369.071 37.4062 368.616 37.4062 368.085ZM38.1074 362.911H30.4419V358.161H31.3025V361.954H33.762V358.358H34.612V361.954H37.2468V358.161H38.1074V362.911ZM38.1074 356.43H30.4419L30.4419 353.8C30.4419 353.042 30.5942 352.394 30.8988 351.856C31.1998 351.314 31.6354 350.9 32.2056 350.613C32.7757 350.326 33.4628 350.183 34.2667 350.183H34.2773C35.0812 350.183 35.7701 350.326 36.3438 350.613C36.9139 350.9 37.3513 351.312 37.6559 351.851C37.9569 352.389 38.1074 353.039 38.1074 353.8V356.43ZM37.2468 355.473V353.864C37.2468 353.294 37.13 352.807 36.8962 352.403C36.6625 351.999 36.3243 351.691 35.8816 351.479C35.4389 351.266 34.9077 351.16 34.2879 351.16H34.2773C33.654 351.16 33.121 351.268 32.6783 351.484C32.2321 351.696 31.8921 352.005 31.6584 352.408C31.4211 352.812 31.3025 353.297 31.3025 353.864V355.473H37.2468ZM35.3716 344.987H34.5217V342.82C34.5217 342.271 34.38 341.846 34.0967 341.545C33.8098 341.244 33.415 341.093 32.9121 341.093H32.9015C32.395 341.093 32.0002 341.244 31.7168 341.545C31.4335 341.846 31.2919 342.271 31.2919 342.82V344.987H30.4419V342.575C30.4419 342.094 30.5446 341.669 30.75 341.3C30.9554 340.932 31.2423 340.644 31.6106 340.435C31.9789 340.222 32.4057 340.116 32.8908 340.116H32.9015C33.3866 340.116 33.8152 340.222 34.187 340.435C34.5589 340.644 34.8493 340.932 35.0582 341.3C35.2672 341.669 35.3716 342.094 35.3716 342.575V344.987ZM38.1074 345.465H30.4419V344.509H38.1074V345.465ZM38.288 335.33C38.288 336.063 38.1251 336.691 37.7993 337.215C37.47 337.74 37.0043 338.143 36.4022 338.427C35.8002 338.706 35.0919 338.846 34.2773 338.846H34.2667C33.4451 338.846 32.735 338.705 32.1365 338.421C31.538 338.134 31.0758 337.729 30.75 337.205C30.4242 336.677 30.2613 336.052 30.2613 335.33C30.2613 334.604 30.4242 333.979 30.75 333.454C31.0758 332.927 31.5398 332.521 32.1418 332.238C32.7403 331.955 33.4486 331.813 34.2667 331.813H34.2773C35.0919 331.813 35.8002 331.955 36.4022 332.238C37.0007 332.518 37.4646 332.921 37.794 333.449C38.1234 333.973 38.288 334.6 38.288 335.33ZM37.4062 335.33C37.4062 334.805 37.2769 334.354 37.0184 333.975C36.7599 333.596 36.3969 333.304 35.9294 333.098C35.4584 332.893 34.9077 332.79 34.2773 332.79H34.2667C33.6292 332.79 33.0768 332.893 32.6093 333.098C32.1418 333.304 31.7806 333.596 31.5256 333.975C31.2706 334.354 31.1431 334.805 31.1431 335.33C31.1431 335.85 31.2706 336.3 31.5256 336.679C31.7806 337.058 32.1418 337.352 32.6093 337.561C33.0768 337.766 33.6292 337.869 34.2667 337.869H34.2773C34.9077 337.869 35.4584 337.768 35.9294 337.566C36.3969 337.364 36.7599 337.074 37.0184 336.695C37.2769 336.316 37.4062 335.861 37.4062 335.33ZM38.288 326.936C38.288 327.669 38.1251 328.298 37.7993 328.822C37.47 329.346 37.0043 329.75 36.4022 330.033C35.8002 330.313 35.0919 330.453 34.2773 330.453H34.2667C33.4451 330.453 32.735 330.311 32.1365 330.028C31.538 329.741 31.0758 329.336 30.75 328.812C30.4242 328.284 30.2613 327.659 30.2613 326.936C30.2613 326.21 30.4242 325.585 30.75 325.061C31.0758 324.533 31.5398 324.128 32.1418 323.845C32.7403 323.561 33.4486 323.42 34.2667 323.42H34.2773C35.0919 323.42 35.8002 323.561 36.4022 323.845C37.0007 324.124 37.4646 324.528 37.794 325.056C38.1234 325.58 38.288 326.207 38.288 326.936ZM37.4062 326.936C37.4062 326.412 37.2769 325.961 37.0184 325.582C36.7599 325.203 36.3969 324.911 35.9294 324.705C35.4584 324.5 34.9077 324.397 34.2773 324.397H34.2667C33.6292 324.397 33.0768 324.5 32.6093 324.705C32.1418 324.911 31.7806 325.203 31.5256 325.582C31.2706 325.961 31.1431 326.412 31.1431 326.936C31.1431 327.457 31.2706 327.907 31.5256 328.286C31.7806 328.665 32.1418 328.958 32.6093 329.167C33.0768 329.373 33.6292 329.476 34.2667 329.476H34.2773C34.9077 329.476 35.4584 329.375 35.9294 329.173C36.3969 328.971 36.7599 328.68 37.0184 328.302C37.2769 327.923 37.4062 327.468 37.4062 326.936ZM38.1074 321.762H30.4419V320.806H37.2468V317.109H38.1074V321.762ZM38.288 313.066C38.288 313.626 38.1977 314.114 38.0171 314.532C37.833 314.947 37.5815 315.276 37.2628 315.52C36.9405 315.761 36.5722 315.901 36.1578 315.94L36.0994 315.945L36.0994 314.989L36.1578 314.984C36.4128 314.959 36.6342 314.862 36.8219 314.692C37.006 314.518 37.1495 314.288 37.2522 314.001C37.3549 313.711 37.4062 313.381 37.4062 313.013C37.4062 312.666 37.3513 312.358 37.2415 312.089C37.1282 311.816 36.9724 311.602 36.7741 311.446C36.5757 311.29 36.3473 311.212 36.0888 311.212H36.0835C35.7647 311.212 35.4974 311.329 35.2813 311.563C35.0618 311.797 34.8935 312.177 34.7767 312.705L34.5907 313.555C34.4208 314.323 34.1587 314.883 33.8045 315.234C33.4468 315.581 32.99 315.754 32.434 315.754H32.4287C32.0037 315.751 31.6283 315.635 31.3025 315.409C30.9767 315.179 30.7217 314.862 30.5375 314.458C30.3534 314.051 30.2613 313.583 30.2613 313.056C30.2613 312.546 30.3534 312.094 30.5375 311.701C30.7181 311.308 30.9625 310.996 31.2706 310.766C31.5787 310.532 31.924 310.403 32.3065 310.378L32.3809 310.373V311.329L32.3118 311.34C32.0852 311.375 31.8851 311.467 31.7115 311.616C31.5345 311.765 31.3946 311.963 31.2919 312.211C31.1892 312.459 31.1396 312.749 31.1431 313.082C31.1431 313.401 31.1927 313.688 31.2919 313.943C31.391 314.198 31.5345 314.401 31.7222 314.554C31.9063 314.702 32.133 314.777 32.4021 314.777H32.4074C32.712 314.777 32.9687 314.663 33.1777 314.437C33.3866 314.21 33.5478 313.836 33.6611 313.316L33.8523 312.466C34.0294 311.665 34.2862 311.094 34.6226 310.75C34.9591 310.406 35.4035 310.235 35.956 310.235H35.9613C36.4394 310.235 36.852 310.352 37.199 310.585C37.5461 310.819 37.8153 311.148 38.0065 311.573C38.1942 311.998 38.288 312.496 38.288 313.066Z" fill="#CDCDCD"/>
<path d="M64.6996 309C64.6996 309 58.6602 311.132 59.015 313.263C59.3704 315.395 63.2782 318.237 64.3443 322.856C64.4632 323.371 64.5821 323.856 64.6996 324.318V381.416C64.6996 384.784 67.4303 387.515 70.7985 387.515H112.957C116.325 387.515 119.056 384.784 119.056 381.416V314.014L120.501 310.198C120.72 309.619 120.292 309 119.674 309L64.6996 309Z" stroke="white" stroke-width="0.457326" stroke-miterlimit="10" stroke-linecap="round" stroke-linejoin="round"/>
<path d="M66.3164 323.178V376.579C66.3164 381.184 68.8663 384.917 72.0122 384.917H111.384C114.53 384.917 117.08 381.184 117.08 376.579V323.178H66.3164Z" fill="#035A58" stroke="white" stroke-width="0.457326" stroke-miterlimit="10" stroke-linecap="round" stroke-linejoin="round"/>
<path d="M110.516 332.947V376.85C110.516 376.85 110.516 380.027 107.627 382.338" stroke="white" stroke-width="0.457326" stroke-miterlimit="10"/>
<path d="M110.516 325.15V329.483" stroke="white" stroke-width="0.457326" stroke-miterlimit="10"/>
<path d="M116.552 313.275H69.8105" stroke="white" stroke-width="0.457326" stroke-miterlimit="10" stroke-linecap="round" stroke-linejoin="round"/>
<path d="M76.739 372.203H69.3262" stroke="white" stroke-width="0.457326" stroke-miterlimit="10" stroke-linecap="round" stroke-linejoin="round"/>
<path d="M76.739 362.93H69.3262" stroke="white" stroke-width="0.457326" stroke-miterlimit="10" stroke-linecap="round" stroke-linejoin="round"/>
<path d="M76.739 353.658H69.3262" stroke="white" stroke-width="0.457326" stroke-miterlimit="10" stroke-linecap="round" stroke-linejoin="round"/>
<path d="M76.739 344.387H69.3262V381.474H76.739" stroke="white" stroke-width="0.457326" stroke-miterlimit="10" stroke-linecap="round" stroke-linejoin="round"/>
<path d="M76.737 353.705H69.3242" stroke="white" stroke-width="0.457326" stroke-miterlimit="10" stroke-linecap="round" stroke-linejoin="round"/>
<path d="M76.737 344.432H69.3242" stroke="white" stroke-width="0.457326" stroke-miterlimit="10" stroke-linecap="round" stroke-linejoin="round"/>
<path d="M76.737 335.16H69.3242" stroke="white" stroke-width="0.457326" stroke-miterlimit="10" stroke-linecap="round" stroke-linejoin="round"/>
<path d="M76.737 325.889H69.3242V362.976H76.737" stroke="white" stroke-width="0.457326" stroke-miterlimit="10" stroke-linecap="round" stroke-linejoin="round"/>
<path d="M160.258 309C160.258 309 154.219 311.132 154.574 313.263C154.929 315.395 158.837 318.237 159.903 322.856C160.022 323.371 160.141 323.856 160.258 324.318V381.416C160.258 384.784 162.989 387.515 166.357 387.515H208.515C211.883 387.515 214.614 384.784 214.614 381.416V314.014L216.059 310.198C216.278 309.619 215.851 309 215.232 309L160.258 309Z" stroke="white" stroke-width="0.457326" stroke-miterlimit="10" stroke-linecap="round" stroke-linejoin="round"/>
<path d="M206.074 332.947V376.85C206.074 376.85 206.074 380.027 203.186 382.338" stroke="white" stroke-width="0.457326" stroke-miterlimit="10"/>
<path d="M206.074 325.15V329.483" stroke="white" stroke-width="0.457326" stroke-miterlimit="10"/>
<path d="M212.111 313.275H165.369" stroke="white" stroke-width="0.457326" stroke-miterlimit="10" stroke-linecap="round" stroke-linejoin="round"/>
<path d="M172.296 372.203H164.883" stroke="white" stroke-width="0.457326" stroke-miterlimit="10" stroke-linecap="round" stroke-linejoin="round"/>
<path d="M172.296 362.93H164.883" stroke="white" stroke-width="0.457326" stroke-miterlimit="10" stroke-linecap="round" stroke-linejoin="round"/>
<path d="M172.296 353.658H164.883" stroke="white" stroke-width="0.457326" stroke-miterlimit="10" stroke-linecap="round" stroke-linejoin="round"/>
<path d="M172.296 344.387H164.883V381.474H172.296" stroke="white" stroke-width="0.457326" stroke-miterlimit="10" stroke-linecap="round" stroke-linejoin="round"/>
<path d="M172.294 353.705H164.881" stroke="white" stroke-width="0.457326" stroke-miterlimit="10" stroke-linecap="round" stroke-linejoin="round"/>
<path d="M172.294 344.432H164.881" stroke="white" stroke-width="0.457326" stroke-miterlimit="10" stroke-linecap="round" stroke-linejoin="round"/>
<path d="M172.294 335.16H164.881" stroke="white" stroke-width="0.457326" stroke-miterlimit="10" stroke-linecap="round" stroke-linejoin="round"/>
<path d="M172.294 325.889H164.881V362.976H172.294" stroke="white" stroke-width="0.457326" stroke-miterlimit="10" stroke-linecap="round" stroke-linejoin="round"/>
<path d="M255.817 309C255.817 309 249.777 311.132 250.132 313.263C250.488 315.395 254.395 318.237 255.461 322.856C255.58 323.371 255.699 323.856 255.817 324.318V381.416C255.817 384.784 258.547 387.515 261.916 387.515H304.074C307.442 387.515 310.173 384.784 310.173 381.416V314.014L311.618 310.198C311.837 309.619 311.409 309 310.791 309L255.817 309Z" stroke="white" stroke-width="0.457326" stroke-miterlimit="10" stroke-linecap="round" stroke-linejoin="round"/>
<path d="M257.623 347.469V379.931C257.623 382.73 260.168 384.999 263.308 384.999H302.604C305.744 384.999 308.289 382.73 308.289 379.931V347.469H257.623Z" fill="#035A58" stroke="white" stroke-width="0.457326" stroke-miterlimit="10" stroke-linecap="round" stroke-linejoin="round"/>
<path d="M301.633 332.947V376.85C301.633 376.85 301.633 380.027 298.744 382.338" stroke="white" stroke-width="0.457326" stroke-miterlimit="10"/>
<path d="M301.633 325.15V329.483" stroke="white" stroke-width="0.457326" stroke-miterlimit="10"/>
<path d="M307.669 313.275H260.928" stroke="white" stroke-width="0.457326" stroke-miterlimit="10" stroke-linecap="round" stroke-linejoin="round"/>
<path d="M267.854 372.203H260.441" stroke="white" stroke-width="0.457326" stroke-miterlimit="10" stroke-linecap="round" stroke-linejoin="round"/>
<path d="M267.854 362.93H260.441" stroke="white" stroke-width="0.457326" stroke-miterlimit="10" stroke-linecap="round" stroke-linejoin="round"/>
<path d="M267.854 353.658H260.441" stroke="white" stroke-width="0.457326" stroke-miterlimit="10" stroke-linecap="round" stroke-linejoin="round"/>
<path d="M267.854 344.387H260.441V381.474H267.854" stroke="white" stroke-width="0.457326" stroke-miterlimit="10" stroke-linecap="round" stroke-linejoin="round"/>
<path d="M267.852 353.705H260.439" stroke="white" stroke-width="0.457326" stroke-miterlimit="10" stroke-linecap="round" stroke-linejoin="round"/>
<path d="M267.852 344.432H260.439" stroke="white" stroke-width="0.457326" stroke-miterlimit="10" stroke-linecap="round" stroke-linejoin="round"/>
<path d="M267.852 335.16H260.439" stroke="white" stroke-width="0.457326" stroke-miterlimit="10" stroke-linecap="round" stroke-linejoin="round"/>
<path d="M267.852 325.889H260.439V362.976H267.852" stroke="white" stroke-width="0.457326" stroke-miterlimit="10" stroke-linecap="round" stroke-linejoin="round"/>
<path d="M351.375 309C351.375 309 345.336 311.132 345.691 313.263C346.046 315.395 349.954 318.237 351.02 322.856C351.139 323.371 351.258 323.856 351.375 324.318V381.416C351.375 384.784 354.106 387.515 357.474 387.515H399.632C403.001 387.515 405.731 384.784 405.731 381.416V314.014L407.176 310.198C407.396 309.619 406.968 309 406.35 309L351.375 309Z" stroke="white" stroke-width="0.457326" stroke-miterlimit="10" stroke-linecap="round" stroke-linejoin="round"/>
<path d="M397.191 332.947V376.85C397.191 376.85 397.191 380.027 394.303 382.338" stroke="white" stroke-width="0.457326" stroke-miterlimit="10"/>
<path d="M397.191 325.15V329.483" stroke="white" stroke-width="0.457326" stroke-miterlimit="10"/>
<path d="M403.228 313.275H356.486" stroke="white" stroke-width="0.457326" stroke-miterlimit="10" stroke-linecap="round" stroke-linejoin="round"/>
<path d="M363.419 372.203H356.006" stroke="white" stroke-width="0.457326" stroke-miterlimit="10" stroke-linecap="round" stroke-linejoin="round"/>
<path d="M363.419 362.93H356.006" stroke="white" stroke-width="0.457326" stroke-miterlimit="10" stroke-linecap="round" stroke-linejoin="round"/>
<path d="M363.419 353.658H356.006" stroke="white" stroke-width="0.457326" stroke-miterlimit="10" stroke-linecap="round" stroke-linejoin="round"/>
<path d="M363.419 344.387H356.006V381.474H363.419" stroke="white" stroke-width="0.457326" stroke-miterlimit="10" stroke-linecap="round" stroke-linejoin="round"/>
<path d="M363.417 353.705H356.004" stroke="white" stroke-width="0.457326" stroke-miterlimit="10" stroke-linecap="round" stroke-linejoin="round"/>
<path d="M363.417 344.432H356.004" stroke="white" stroke-width="0.457326" stroke-miterlimit="10" stroke-linecap="round" stroke-linejoin="round"/>
<path d="M363.417 335.16H356.004" stroke="white" stroke-width="0.457326" stroke-miterlimit="10" stroke-linecap="round" stroke-linejoin="round"/>
<path d="M363.417 325.889H356.004V362.976H363.417" stroke="white" stroke-width="0.457326" stroke-miterlimit="10" stroke-linecap="round" stroke-linejoin="round"/>
<path d="M446.934 309C446.934 309 440.895 311.132 441.249 313.263C441.605 315.395 445.513 318.237 446.579 322.856C446.698 323.371 446.816 323.856 446.934 324.318V381.416C446.934 384.784 449.665 387.515 453.033 387.515H495.191C498.559 387.515 501.29 384.784 501.29 381.416V314.014L502.735 310.198C502.954 309.619 502.527 309 501.908 309L446.934 309Z" stroke="white" stroke-width="0.457326" stroke-miterlimit="10" stroke-linecap="round" stroke-linejoin="round"/>
<path d="M449 341V379.058C449 382.34 451.512 385 454.61 385H493.39C496.488 385 499 382.34 499 379.058V341H449Z" fill="#035A58" stroke="white" stroke-width="0.457326" stroke-miterlimit="10" stroke-linecap="round" stroke-linejoin="round"/>
<path d="M492.75 332.947V376.85C492.75 376.85 492.75 380.027 489.862 382.338" stroke="white" stroke-width="0.457326" stroke-miterlimit="10"/>
<path d="M492.75 325.15V329.483" stroke="white" stroke-width="0.457326" stroke-miterlimit="10"/>
<path d="M498.786 313.275H452.045" stroke="white" stroke-width="0.457326" stroke-miterlimit="10" stroke-linecap="round" stroke-linejoin="round"/>
<path d="M458.975 372.203H451.562" stroke="white" stroke-width="0.457326" stroke-miterlimit="10" stroke-linecap="round" stroke-linejoin="round"/>
<path d="M458.975 362.93H451.562" stroke="white" stroke-width="0.457326" stroke-miterlimit="10" stroke-linecap="round" stroke-linejoin="round"/>
<path d="M458.975 353.658H451.562" stroke="white" stroke-width="0.457326" stroke-miterlimit="10" stroke-linecap="round" stroke-linejoin="round"/>
<path d="M458.975 344.387H451.562V381.474H458.975" stroke="white" stroke-width="0.457326" stroke-miterlimit="10" stroke-linecap="round" stroke-linejoin="round"/>
<path d="M458.973 353.705H451.561" stroke="white" stroke-width="0.457326" stroke-miterlimit="10" stroke-linecap="round" stroke-linejoin="round"/>
<path d="M458.973 344.432H451.561" stroke="white" stroke-width="0.457326" stroke-miterlimit="10" stroke-linecap="round" stroke-linejoin="round"/>
<path d="M458.973 335.16H451.561" stroke="white" stroke-width="0.457326" stroke-miterlimit="10" stroke-linecap="round" stroke-linejoin="round"/>
<path d="M458.973 325.889H451.561V362.976H458.973" stroke="white" stroke-width="0.457326" stroke-miterlimit="10" stroke-linecap="round" stroke-linejoin="round"/>
<path d="M542.493 309C542.493 309 536.453 311.132 536.808 313.263C537.163 315.395 541.071 318.237 542.137 322.856C542.256 323.371 542.375 323.856 542.493 324.318V381.416C542.493 384.784 545.223 387.515 548.591 387.515H590.75C594.118 387.515 596.849 384.784 596.849 381.416V314.014L598.294 310.198C598.513 309.619 598.085 309 597.467 309L542.493 309Z" stroke="white" stroke-width="0.457326" stroke-miterlimit="10" stroke-linecap="round" stroke-linejoin="round"/>
<path d="M544.109 323.178V376.579C544.109 381.184 546.659 384.917 549.805 384.917H589.177C592.323 384.917 594.873 381.184 594.873 376.579V323.178H544.109Z" fill="#035A58" stroke="white" stroke-width="0.457326" stroke-miterlimit="10" stroke-linecap="round" stroke-linejoin="round"/>
<path d="M588.309 332.947V376.85C588.309 376.85 588.309 380.027 585.42 382.338" stroke="white" stroke-width="0.457326" stroke-miterlimit="10"/>
<path d="M588.309 325.15V329.483" stroke="white" stroke-width="0.457326" stroke-miterlimit="10"/>
<path d="M594.345 313.275H547.604" stroke="white" stroke-width="0.457326" stroke-miterlimit="10" stroke-linecap="round" stroke-linejoin="round"/>
<path d="M554.534 372.203H547.121" stroke="white" stroke-width="0.457326" stroke-miterlimit="10" stroke-linecap="round" stroke-linejoin="round"/>
<path d="M554.534 362.93H547.121" stroke="white" stroke-width="0.457326" stroke-miterlimit="10" stroke-linecap="round" stroke-linejoin="round"/>
<path d="M554.534 353.658H547.121" stroke="white" stroke-width="0.457326" stroke-miterlimit="10" stroke-linecap="round" stroke-linejoin="round"/>
<path d="M554.534 344.387H547.121V381.474H554.534" stroke="white" stroke-width="0.457326" stroke-miterlimit="10" stroke-linecap="round" stroke-linejoin="round"/>
<path d="M554.532 353.705H547.119" stroke="white" stroke-width="0.457326" stroke-miterlimit="10" stroke-linecap="round" stroke-linejoin="round"/>
<path d="M554.532 344.432H547.119" stroke="white" stroke-width="0.457326" stroke-miterlimit="10" stroke-linecap="round" stroke-linejoin="round"/>
<path d="M554.532 335.16H547.119" stroke="white" stroke-width="0.457326" stroke-miterlimit="10" stroke-linecap="round" stroke-linejoin="round"/>
<path d="M554.532 325.889H547.119V362.976H554.532" stroke="white" stroke-width="0.457326" stroke-miterlimit="10" stroke-linecap="round" stroke-linejoin="round"/>
</g>
<defs>
<filter id="filter0_bi_1110_2093" x="-20.7184" y="-20.7184" width="690.761" height="476.437" filterUnits="userSpaceOnUse" color-interpolation-filters="sRGB">
<feFlood flood-opacity="0" result="BackgroundImageFix"/>
<feGaussianBlur in="BackgroundImageFix" stdDeviation="10.7088"/>
<feComposite in2="SourceAlpha" operator="in" result="effect1_backgroundBlur_1110_2093"/>
<feBlend mode="normal" in="SourceGraphic" in2="effect1_backgroundBlur_1110_2093" result="shape"/>
<feColorMatrix in="SourceAlpha" type="matrix" values="0 0 0 0 0 0 0 0 0 0 0 0 0 0 0 0 0 0 127 0" result="hardAlpha"/>
<feOffset dx="2.80336" dy="2.80336"/>
<feGaussianBlur stdDeviation="13.8206"/>
<feComposite in2="hardAlpha" operator="arithmetic" k2="-1" k3="1"/>
<feColorMatrix type="matrix" values="0 0 0 0 0.273161 0 0 0 0 0.273161 0 0 0 0 0.273161 0 0 0 0.1 0"/>
<feBlend mode="normal" in2="shape" result="effect2_innerShadow_1110_2093"/>
</filter>
</defs>
</svg>
