<svg width="518" height="316" viewBox="0 0 518 316" fill="none" xmlns="http://www.w3.org/2000/svg">
<path fill-rule="evenodd" clip-rule="evenodd" d="M32 1C32 0.723858 31.7761 0.5 31.5 0.5C31.2239 0.5 31 0.723858 31 1V198V199H32H495H495.5V198H495H32V1Z" fill="white"/>
<path d="M6.072 109.589C7.788 109.589 8.688 110.717 8.688 112.469V115.001H12V116.033H3.456L3.456 112.469C3.456 110.717 4.344 109.589 6.072 109.589ZM6.072 110.621C4.86 110.621 4.248 111.317 4.248 112.601V115.001H7.896V112.601C7.896 111.317 7.272 110.621 6.072 110.621ZM12 106.163V107.159H5.808V106.211H7.272C6.192 105.875 5.748 105.311 5.748 104.387C5.748 104.219 5.772 104.003 5.808 103.823H6.672L6.648 104.423C6.648 105.479 7.488 106.163 9.012 106.163H12ZM12 100.555V101.551H5.808V100.555H12ZM4.572 101.059C4.572 101.455 4.332 101.671 4.02 101.671C3.708 101.671 3.468 101.455 3.468 101.059C3.468 100.663 3.708 100.435 4.02 100.435C4.332 100.435 4.572 100.663 4.572 101.059ZM12.12 95.2261C12.12 97.0621 10.896 98.1181 8.904 98.1181C6.924 98.1181 5.688 97.0621 5.688 95.2261C5.688 93.3301 6.924 92.5261 8.016 92.5261V93.4261C7.2 93.5461 6.456 94.0501 6.456 95.2261C6.456 96.4021 7.284 97.1221 8.904 97.1221C10.524 97.1221 11.352 96.4021 11.352 95.2261C11.352 94.1941 10.788 93.5701 9.744 93.4261V92.5261C10.956 92.5261 12.12 93.4021 12.12 95.2261ZM12.12 87.4845C12.12 89.3925 10.896 90.4485 8.904 90.4485C6.996 90.4485 5.688 89.4645 5.688 87.5565C5.688 85.6365 7.032 84.6525 8.76 84.6525C8.856 84.6525 8.964 84.6525 9.06 84.6765V89.4525C10.74 89.4285 11.424 88.6365 11.424 87.4845C11.424 86.4885 10.896 85.8885 10.116 85.6725V84.7845C11.352 85.0725 12.12 85.9245 12.12 87.4845ZM6.384 87.5565C6.384 88.6245 7.044 89.3205 8.388 89.4525V85.6485C7.044 85.7805 6.384 86.4885 6.384 87.5565Z" fill="white"/>
<path d="M224.924 226H223.928V218.428L220.832 226H219.932L216.836 218.428V226H215.84V217.456H217.448L220.388 224.5L223.316 217.456H224.924V226ZM229.624 226.12C228.22 226.12 227.428 225.4 227.428 224.248C227.428 223.336 228.004 222.628 229.516 222.496L230.656 222.4C231.496 222.328 231.736 222.148 231.736 221.692C231.736 220.9 231.292 220.408 230.26 220.408C229.3 220.408 228.796 220.816 228.724 221.692H227.764C227.764 220.468 228.52 219.688 230.248 219.688C231.976 219.688 232.732 220.468 232.732 221.692V224.416C232.732 225.256 232.804 225.796 232.924 226H232.048C231.856 225.736 231.784 225.484 231.784 224.824C231.448 225.688 230.716 226.12 229.624 226.12ZM229.888 225.424C231.112 225.424 231.736 224.452 231.736 223.3V222.688C231.592 222.88 231.208 223 230.656 223.048L229.804 223.12C228.82 223.192 228.424 223.612 228.424 224.188C228.424 224.896 228.856 225.424 229.888 225.424ZM237.462 226.06C236.274 226.06 235.83 225.712 235.83 224.56V220.528H234.774V219.808H235.83V217.936H236.826V219.808H238.314V220.528H236.826V224.584C236.826 225.184 237.03 225.328 237.666 225.328L238.314 225.304V226C238.074 226.024 237.678 226.06 237.462 226.06ZM242.739 226.12C241.323 226.12 240.663 225.4 240.663 223.9V219.808H241.659V223.744C241.659 224.776 242.031 225.316 243.027 225.316C244.059 225.316 244.731 224.512 244.731 223.264V219.808H245.727V226H244.779V224.86C244.431 225.628 243.795 226.12 242.739 226.12ZM249.399 226H248.403V219.808H249.351V221.272C249.687 220.192 250.251 219.748 251.175 219.748C251.343 219.748 251.559 219.772 251.739 219.808V220.672L251.139 220.648C250.083 220.648 249.399 221.488 249.399 223.012V226ZM255.006 226H254.01V219.808H255.006V226ZM254.502 218.572C254.106 218.572 253.89 218.332 253.89 218.02C253.89 217.708 254.106 217.468 254.502 217.468C254.898 217.468 255.126 217.708 255.126 218.02C255.126 218.332 254.898 218.572 254.502 218.572ZM259.855 226.06C258.667 226.06 258.223 225.712 258.223 224.56V220.528H257.167V219.808H258.223V217.936H259.219V219.808H260.707V220.528H259.219V224.584C259.219 225.184 259.423 225.328 260.059 225.328L260.707 225.304V226C260.467 226.024 260.071 226.06 259.855 226.06ZM263.14 228.352V227.632H263.62C264.34 227.632 264.784 227.236 265.132 226.336L262.576 219.808H263.608L265.576 225.172L267.568 219.808H268.6L266.068 226.216C265.408 227.872 264.784 228.352 263.62 228.352H263.14ZM275.076 222.484C275.076 220.528 275.496 218.572 276.696 216.616H277.452C276.384 218.572 275.988 220.528 275.988 222.484C275.988 224.44 276.384 226.396 277.452 228.352H276.696C275.496 226.396 275.076 224.44 275.076 222.484ZM286.928 221.728C286.928 224.38 285.62 226 282.872 226H279.644V217.456H282.872C285.62 217.456 286.928 219.088 286.928 221.728ZM285.896 221.728C285.896 219.46 284.9 218.284 282.908 218.284H280.676V225.172H282.908C284.9 225.172 285.896 223.996 285.896 221.728ZM291.319 226.12C289.915 226.12 289.123 225.4 289.123 224.248C289.123 223.336 289.699 222.628 291.211 222.496L292.351 222.4C293.191 222.328 293.431 222.148 293.431 221.692C293.431 220.9 292.987 220.408 291.955 220.408C290.995 220.408 290.491 220.816 290.419 221.692H289.459C289.459 220.468 290.215 219.688 291.943 219.688C293.671 219.688 294.427 220.468 294.427 221.692V224.416C294.427 225.256 294.499 225.796 294.619 226H293.743C293.551 225.736 293.479 225.484 293.479 224.824C293.143 225.688 292.411 226.12 291.319 226.12ZM291.583 225.424C292.807 225.424 293.431 224.452 293.431 223.3V222.688C293.287 222.88 292.903 223 292.351 223.048L291.499 223.12C290.515 223.192 290.119 223.612 290.119 224.188C290.119 224.896 290.551 225.424 291.583 225.424ZM296.894 228.352V227.632H297.374C298.094 227.632 298.538 227.236 298.886 226.336L296.33 219.808H297.362L299.33 225.172L301.322 219.808H302.354L299.822 226.216C299.162 227.872 298.538 228.352 297.374 228.352H296.894ZM306.526 226.12C304.642 226.12 303.97 225.268 303.97 224.116H304.918C304.978 224.884 305.29 225.436 306.538 225.436C307.774 225.436 308.098 224.884 308.098 224.284C308.098 223.72 307.714 223.444 307.078 223.348L305.866 223.168C304.702 223 304.138 222.568 304.138 221.572C304.138 220.54 304.726 219.688 306.526 219.688C308.338 219.688 308.926 220.54 308.926 221.596H307.978C307.918 220.96 307.726 220.372 306.526 220.372C305.506 220.372 305.134 220.792 305.134 221.5C305.134 222.1 305.47 222.292 305.998 222.364L307.222 222.544C308.374 222.712 309.094 223.156 309.094 224.236C309.094 225.268 308.422 226.12 306.526 226.12ZM313.352 222.484C313.352 224.44 312.932 226.396 311.732 228.352H310.964C312.044 226.396 312.44 224.44 312.44 222.484C312.44 220.528 312.044 218.572 310.964 216.616H311.732C312.932 218.572 313.352 220.528 313.352 222.484Z" fill="white"/>
<path d="M31.4958 121L78.194 102.945C161.014 70.9242 249.042 54.4995 337.836 54.4995L497 54.4995" stroke="white"/>
<g clip-path="url(#clip0_374_2368)">
<path d="M13 240H517V299C517 306.542 517 310.314 514.657 312.657C512.314 315 508.542 315 501 315H29C21.4575 315 17.6863 315 15.3431 312.657C13 310.314 13 306.542 13 299V240Z" fill="url(#paint0_linear_374_2368)"/>
<path d="M13 304.5H12.5V305.5H13V304.5ZM23 305.5C23.2761 305.5 23.5 305.276 23.5 305C23.5 304.724 23.2761 304.5 23 304.5V305.5ZM13 305.5H23V304.5H13V305.5Z" fill="#CCCDCD"/>
<path d="M13 299.5H12.5V300.5H13V299.5ZM18 300.5C18.2761 300.5 18.5 300.276 18.5 300C18.5 299.724 18.2761 299.5 18 299.5V300.5ZM13 300.5H18V299.5H13V300.5Z" fill="#CCCDCD"/>
<path d="M13 284.5H12.5V285.5H13V284.5ZM18 285.5C18.2761 285.5 18.5 285.276 18.5 285C18.5 284.724 18.2761 284.5 18 284.5V285.5ZM13 285.5H18V284.5H13V285.5Z" fill="#CCCDCD"/>
<path d="M13 269.5H12.5V270.5H13V269.5ZM18 270.5C18.2761 270.5 18.5 270.276 18.5 270C18.5 269.724 18.2761 269.5 18 269.5V270.5ZM13 270.5H18V269.5H13V270.5Z" fill="#CCCDCD"/>
<path d="M13 254.5H12.5V255.5H13V254.5ZM18 255.5C18.2761 255.5 18.5 255.276 18.5 255C18.5 254.724 18.2761 254.5 18 254.5V255.5ZM13 255.5H18V254.5H13V255.5Z" fill="#CCCDCD"/>
<path d="M13 294.5H12.5V295.5H13V294.5ZM18 295.5C18.2761 295.5 18.5 295.276 18.5 295C18.5 294.724 18.2761 294.5 18 294.5V295.5ZM13 295.5H18V294.5H13V295.5Z" fill="#CCCDCD"/>
<path d="M13 279.5H12.5V280.5H13V279.5ZM18 280.5C18.2761 280.5 18.5 280.276 18.5 280C18.5 279.724 18.2761 279.5 18 279.5V280.5ZM13 280.5H18V279.5H13V280.5Z" fill="#CCCDCD"/>
<path d="M13 264.5H12.5V265.5H13V264.5ZM18 265.5C18.2761 265.5 18.5 265.276 18.5 265C18.5 264.724 18.2761 264.5 18 264.5V265.5ZM13 265.5H18V264.5H13V265.5Z" fill="#CCCDCD"/>
<path d="M13 249.5H12.5V250.5H13V249.5ZM18 250.5C18.2761 250.5 18.5 250.276 18.5 250C18.5 249.724 18.2761 249.5 18 249.5V250.5ZM13 250.5H18V249.5H13V250.5Z" fill="#CCCDCD"/>
<path d="M13 289.5H12.5V290.5H13V289.5ZM23 290.5C23.2761 290.5 23.5 290.276 23.5 290C23.5 289.724 23.2761 289.5 23 289.5V290.5ZM13 290.5H23V289.5H13V290.5Z" fill="#CCCDCD"/>
<path d="M13 274.5H12.5V275.5H13V274.5ZM23 275.5C23.2761 275.5 23.5 275.276 23.5 275C23.5 274.724 23.2761 274.5 23 274.5V275.5ZM13 275.5H23V274.5H13V275.5Z" fill="#CCCDCD"/>
<path d="M13 259.5H12.5V260.5H13V259.5ZM23 260.5C23.2761 260.5 23.5 260.276 23.5 260C23.5 259.724 23.2761 259.5 23 259.5V260.5ZM13 260.5H23V259.5H13V260.5Z" fill="#CCCDCD"/>
<path d="M13 244.5H12.5V245.5H13V244.5ZM23 245.5C23.2761 245.5 23.5 245.276 23.5 245C23.5 244.724 23.2761 244.5 23 244.5V245.5ZM13 245.5H23V244.5H13V245.5Z" fill="#CCCDCD"/>
</g>
<path d="M13 240H517H13ZM517.5 307C517.5 311.694 513.694 315.5 509 315.5H21C16.3056 315.5 12.5 311.694 12.5 307H13.5C13.5 311.142 16.8579 314.5 21 314.5H509C513.142 314.5 516.5 311.142 516.5 307H517.5ZM21 315.5C16.3056 315.5 12.5 311.694 12.5 307V240H13.5V307C13.5 311.142 16.8579 314.5 21 314.5V315.5ZM517.5 240V307C517.5 311.694 513.694 315.5 509 315.5V314.5C513.142 314.5 516.5 311.142 516.5 307V240H517.5Z" fill="#CCCDCD"/>
<defs>
<linearGradient id="paint0_linear_374_2368" x1="265" y1="240" x2="265.001" y2="246" gradientUnits="userSpaceOnUse">
<stop stop-opacity="0"/>
<stop offset="1" stop-color="#06B7D0" stop-opacity="0.39"/>
</linearGradient>
<clipPath id="clip0_374_2368">
<path d="M13 240H517V299C517 306.542 517 310.314 514.657 312.657C512.314 315 508.542 315 501 315H29C21.4575 315 17.6863 315 15.3431 312.657C13 310.314 13 306.542 13 299V240Z" fill="white"/>
</clipPath>
</defs>
</svg>
