<svg width="548" height="316" viewBox="0 0 548 316" fill="none" xmlns="http://www.w3.org/2000/svg">
<g clip-path="url(#clip0_374_2367)">
<path d="M65 240H116V299C116 306.542 116 310.314 113.657 312.657C111.314 315 107.542 315 100 315H81C73.4575 315 69.6863 315 67.3431 312.657C65 310.314 65 306.542 65 299V240Z" fill="url(#paint0_linear_374_2367)"/>
<path d="M65 304.5H64.5V305.5H65V304.5ZM75 305.5C75.2761 305.5 75.5 305.276 75.5 305C75.5 304.724 75.2761 304.5 75 304.5V305.5ZM65 305.5H75V304.5H65V305.5Z" fill="#CCCDCD"/>
<path d="M65 299.5H64.5V300.5H65V299.5ZM70 300.5C70.2761 300.5 70.5 300.276 70.5 300C70.5 299.724 70.2761 299.5 70 299.5V300.5ZM65 300.5H70V299.5H65V300.5Z" fill="#CCCDCD"/>
<path d="M65 284.5H64.5V285.5H65V284.5ZM70 285.5C70.2761 285.5 70.5 285.276 70.5 285C70.5 284.724 70.2761 284.5 70 284.5V285.5ZM65 285.5H70V284.5H65V285.5Z" fill="#CCCDCD"/>
<path d="M65 269.5H64.5V270.5H65V269.5ZM70 270.5C70.2761 270.5 70.5 270.276 70.5 270C70.5 269.724 70.2761 269.5 70 269.5V270.5ZM65 270.5H70V269.5H65V270.5Z" fill="#CCCDCD"/>
<path d="M65 254.5H64.5V255.5H65V254.5ZM70 255.5C70.2761 255.5 70.5 255.276 70.5 255C70.5 254.724 70.2761 254.5 70 254.5V255.5ZM65 255.5H70V254.5H65V255.5Z" fill="#CCCDCD"/>
<path d="M65 294.5H64.5V295.5H65V294.5ZM70 295.5C70.2761 295.5 70.5 295.276 70.5 295C70.5 294.724 70.2761 294.5 70 294.5V295.5ZM65 295.5H70V294.5H65V295.5Z" fill="#CCCDCD"/>
<path d="M65 279.5H64.5V280.5H65V279.5ZM70 280.5C70.2761 280.5 70.5 280.276 70.5 280C70.5 279.724 70.2761 279.5 70 279.5V280.5ZM65 280.5H70V279.5H65V280.5Z" fill="#CCCDCD"/>
<path d="M65 264.5H64.5V265.5H65V264.5ZM70 265.5C70.2761 265.5 70.5 265.276 70.5 265C70.5 264.724 70.2761 264.5 70 264.5V265.5ZM65 265.5H70V264.5H65V265.5Z" fill="#CCCDCD"/>
<path d="M65 249.5H64.5V250.5H65V249.5ZM70 250.5C70.2761 250.5 70.5 250.276 70.5 250C70.5 249.724 70.2761 249.5 70 249.5V250.5ZM65 250.5H70V249.5H65V250.5Z" fill="#CCCDCD"/>
<path d="M65 289.5H64.5V290.5H65V289.5ZM75 290.5C75.2761 290.5 75.5 290.276 75.5 290C75.5 289.724 75.2761 289.5 75 289.5V290.5ZM65 290.5H75V289.5H65V290.5Z" fill="#CCCDCD"/>
<path d="M65 274.5H64.5V275.5H65V274.5ZM75 275.5C75.2761 275.5 75.5 275.276 75.5 275C75.5 274.724 75.2761 274.5 75 274.5V275.5ZM65 275.5H75V274.5H65V275.5Z" fill="#CCCDCD"/>
<path d="M65 259.5H64.5V260.5H65V259.5ZM75 260.5C75.2761 260.5 75.5 260.276 75.5 260C75.5 259.724 75.2761 259.5 75 259.5V260.5ZM65 260.5H75V259.5H65V260.5Z" fill="#CCCDCD"/>
<path d="M65 244.5H64.5V245.5H65V244.5ZM75 245.5C75.2761 245.5 75.5 245.276 75.5 245C75.5 244.724 75.2761 244.5 75 244.5V245.5ZM65 245.5H75V244.5H65V245.5Z" fill="#CCCDCD"/>
</g>
<path d="M65 240H116H65ZM116.5 307C116.5 311.694 112.694 315.5 108 315.5H73C68.3056 315.5 64.5 311.694 64.5 307H65.5C65.5 311.142 68.8579 314.5 73 314.5H108C112.142 314.5 115.5 311.142 115.5 307H116.5ZM73 315.5C68.3056 315.5 64.5 311.694 64.5 307V240H65.5V307C65.5 311.142 68.8579 314.5 73 314.5V315.5ZM116.5 240V307C116.5 311.694 112.694 315.5 108 315.5V314.5C112.142 314.5 115.5 311.142 115.5 307V240H116.5Z" fill="#CCCDCD"/>
<g clip-path="url(#clip1_374_2367)">
<path d="M146 304.5H145.5V305.5H146V304.5ZM156 305.5C156.276 305.5 156.5 305.276 156.5 305C156.5 304.724 156.276 304.5 156 304.5V305.5ZM146 305.5H156V304.5H146V305.5Z" fill="#CCCDCD"/>
<path d="M146 299.5H145.5V300.5H146V299.5ZM151 300.5C151.276 300.5 151.5 300.276 151.5 300C151.5 299.724 151.276 299.5 151 299.5V300.5ZM146 300.5H151V299.5H146V300.5Z" fill="#CCCDCD"/>
<path d="M146 284.5H145.5V285.5H146V284.5ZM151 285.5C151.276 285.5 151.5 285.276 151.5 285C151.5 284.724 151.276 284.5 151 284.5V285.5ZM146 285.5H151V284.5H146V285.5Z" fill="#CCCDCD"/>
<path d="M146 269.5H145.5V270.5H146V269.5ZM151 270.5C151.276 270.5 151.5 270.276 151.5 270C151.5 269.724 151.276 269.5 151 269.5V270.5ZM146 270.5H151V269.5H146V270.5Z" fill="#CCCDCD"/>
<path d="M146 254.5H145.5V255.5H146V254.5ZM151 255.5C151.276 255.5 151.5 255.276 151.5 255C151.5 254.724 151.276 254.5 151 254.5V255.5ZM146 255.5H151V254.5H146V255.5Z" fill="#CCCDCD"/>
<path d="M146 294.5H145.5V295.5H146V294.5ZM151 295.5C151.276 295.5 151.5 295.276 151.5 295C151.5 294.724 151.276 294.5 151 294.5V295.5ZM146 295.5H151V294.5H146V295.5Z" fill="#CCCDCD"/>
<path d="M146 279.5H145.5V280.5H146V279.5ZM151 280.5C151.276 280.5 151.5 280.276 151.5 280C151.5 279.724 151.276 279.5 151 279.5V280.5ZM146 280.5H151V279.5H146V280.5Z" fill="#CCCDCD"/>
<path d="M146 264.5H145.5V265.5H146V264.5ZM151 265.5C151.276 265.5 151.5 265.276 151.5 265C151.5 264.724 151.276 264.5 151 264.5V265.5ZM146 265.5H151V264.5H146V265.5Z" fill="#CCCDCD"/>
<path d="M146 249.5H145.5V250.5H146V249.5ZM151 250.5C151.276 250.5 151.5 250.276 151.5 250C151.5 249.724 151.276 249.5 151 249.5V250.5ZM146 250.5H151V249.5H146V250.5Z" fill="#CCCDCD"/>
<path d="M146 289.5H145.5V290.5H146V289.5ZM156 290.5C156.276 290.5 156.5 290.276 156.5 290C156.5 289.724 156.276 289.5 156 289.5V290.5ZM146 290.5H156V289.5H146V290.5Z" fill="#CCCDCD"/>
<path d="M146 274.5H145.5V275.5H146V274.5ZM156 275.5C156.276 275.5 156.5 275.276 156.5 275C156.5 274.724 156.276 274.5 156 274.5V275.5ZM146 275.5H156V274.5H146V275.5Z" fill="#CCCDCD"/>
<path d="M146 259.5H145.5V260.5H146V259.5ZM156 260.5C156.276 260.5 156.5 260.276 156.5 260C156.5 259.724 156.276 259.5 156 259.5V260.5ZM146 260.5H156V259.5H146V260.5Z" fill="#CCCDCD"/>
<path d="M146 244.5H145.5V245.5H146V244.5ZM156 245.5C156.276 245.5 156.5 245.276 156.5 245C156.5 244.724 156.276 244.5 156 244.5V245.5ZM146 245.5H156V244.5H146V245.5Z" fill="#CCCDCD"/>
</g>
<path d="M146 240H197H146ZM197.5 307C197.5 311.694 193.694 315.5 189 315.5H154C149.306 315.5 145.5 311.694 145.5 307H146.5C146.5 311.142 149.858 314.5 154 314.5H189C193.142 314.5 196.5 311.142 196.5 307H197.5ZM154 315.5C149.306 315.5 145.5 311.694 145.5 307V240H146.5V307C146.5 311.142 149.858 314.5 154 314.5V315.5ZM197.5 240V307C197.5 311.694 193.694 315.5 189 315.5V314.5C193.142 314.5 196.5 311.142 196.5 307V240H197.5Z" fill="#CCCDCD"/>
<g clip-path="url(#clip2_374_2367)">
<path d="M227 240H278V299C278 306.542 278 310.314 275.657 312.657C273.314 315 269.542 315 262 315H243C235.458 315 231.686 315 229.343 312.657C227 310.314 227 306.542 227 299V240Z" fill="url(#paint1_linear_374_2367)"/>
<path d="M227 304.5H226.5V305.5H227V304.5ZM237 305.5C237.276 305.5 237.5 305.276 237.5 305C237.5 304.724 237.276 304.5 237 304.5V305.5ZM227 305.5H237V304.5H227V305.5Z" fill="#CCCDCD"/>
<path d="M227 299.5H226.5V300.5H227V299.5ZM232 300.5C232.276 300.5 232.5 300.276 232.5 300C232.5 299.724 232.276 299.5 232 299.5V300.5ZM227 300.5H232V299.5H227V300.5Z" fill="#CCCDCD"/>
<path d="M227 284.5H226.5V285.5H227V284.5ZM232 285.5C232.276 285.5 232.5 285.276 232.5 285C232.5 284.724 232.276 284.5 232 284.5V285.5ZM227 285.5H232V284.5H227V285.5Z" fill="#CCCDCD"/>
<path d="M227 269.5H226.5V270.5H227V269.5ZM232 270.5C232.276 270.5 232.5 270.276 232.5 270C232.5 269.724 232.276 269.5 232 269.5V270.5ZM227 270.5H232V269.5H227V270.5Z" fill="#CCCDCD"/>
<path d="M227 254.5H226.5V255.5H227V254.5ZM232 255.5C232.276 255.5 232.5 255.276 232.5 255C232.5 254.724 232.276 254.5 232 254.5V255.5ZM227 255.5H232V254.5H227V255.5Z" fill="#CCCDCD"/>
<path d="M227 294.5H226.5V295.5H227V294.5ZM232 295.5C232.276 295.5 232.5 295.276 232.5 295C232.5 294.724 232.276 294.5 232 294.5V295.5ZM227 295.5H232V294.5H227V295.5Z" fill="#CCCDCD"/>
<path d="M227 279.5H226.5V280.5H227V279.5ZM232 280.5C232.276 280.5 232.5 280.276 232.5 280C232.5 279.724 232.276 279.5 232 279.5V280.5ZM227 280.5H232V279.5H227V280.5Z" fill="#CCCDCD"/>
<path d="M227 264.5H226.5V265.5H227V264.5ZM232 265.5C232.276 265.5 232.5 265.276 232.5 265C232.5 264.724 232.276 264.5 232 264.5V265.5ZM227 265.5H232V264.5H227V265.5Z" fill="#CCCDCD"/>
<path d="M227 249.5H226.5V250.5H227V249.5ZM232 250.5C232.276 250.5 232.5 250.276 232.5 250C232.5 249.724 232.276 249.5 232 249.5V250.5ZM227 250.5H232V249.5H227V250.5Z" fill="#CCCDCD"/>
<path d="M227 289.5H226.5V290.5H227V289.5ZM237 290.5C237.276 290.5 237.5 290.276 237.5 290C237.5 289.724 237.276 289.5 237 289.5V290.5ZM227 290.5H237V289.5H227V290.5Z" fill="#CCCDCD"/>
<path d="M227 274.5H226.5V275.5H227V274.5ZM237 275.5C237.276 275.5 237.5 275.276 237.5 275C237.5 274.724 237.276 274.5 237 274.5V275.5ZM227 275.5H237V274.5H227V275.5Z" fill="#CCCDCD"/>
<path d="M227 259.5H226.5V260.5H227V259.5ZM237 260.5C237.276 260.5 237.5 260.276 237.5 260C237.5 259.724 237.276 259.5 237 259.5V260.5ZM227 260.5H237V259.5H227V260.5Z" fill="#CCCDCD"/>
<path d="M227 244.5H226.5V245.5H227V244.5ZM237 245.5C237.276 245.5 237.5 245.276 237.5 245C237.5 244.724 237.276 244.5 237 244.5V245.5ZM227 245.5H237V244.5H227V245.5Z" fill="#CCCDCD"/>
</g>
<path d="M227 240H278H227ZM278.5 307C278.5 311.694 274.694 315.5 270 315.5H235C230.306 315.5 226.5 311.694 226.5 307H227.5C227.5 311.142 230.858 314.5 235 314.5H270C274.142 314.5 277.5 311.142 277.5 307H278.5ZM235 315.5C230.306 315.5 226.5 311.694 226.5 307V240H227.5V307C227.5 311.142 230.858 314.5 235 314.5V315.5ZM278.5 240V307C278.5 311.694 274.694 315.5 270 315.5V314.5C274.142 314.5 277.5 311.142 277.5 307V240H278.5Z" fill="#CCCDCD"/>
<g clip-path="url(#clip3_374_2367)">
<path d="M308 304.5H307.5V305.5H308V304.5ZM318 305.5C318.276 305.5 318.5 305.276 318.5 305C318.5 304.724 318.276 304.5 318 304.5V305.5ZM308 305.5H318V304.5H308V305.5Z" fill="#CCCDCD"/>
<path d="M308 299.5H307.5V300.5H308V299.5ZM313 300.5C313.276 300.5 313.5 300.276 313.5 300C313.5 299.724 313.276 299.5 313 299.5V300.5ZM308 300.5H313V299.5H308V300.5Z" fill="#CCCDCD"/>
<path d="M308 284.5H307.5V285.5H308V284.5ZM313 285.5C313.276 285.5 313.5 285.276 313.5 285C313.5 284.724 313.276 284.5 313 284.5V285.5ZM308 285.5H313V284.5H308V285.5Z" fill="#CCCDCD"/>
<path d="M308 269.5H307.5V270.5H308V269.5ZM313 270.5C313.276 270.5 313.5 270.276 313.5 270C313.5 269.724 313.276 269.5 313 269.5V270.5ZM308 270.5H313V269.5H308V270.5Z" fill="#CCCDCD"/>
<path d="M308 254.5H307.5V255.5H308V254.5ZM313 255.5C313.276 255.5 313.5 255.276 313.5 255C313.5 254.724 313.276 254.5 313 254.5V255.5ZM308 255.5H313V254.5H308V255.5Z" fill="#CCCDCD"/>
<path d="M308 294.5H307.5V295.5H308V294.5ZM313 295.5C313.276 295.5 313.5 295.276 313.5 295C313.5 294.724 313.276 294.5 313 294.5V295.5ZM308 295.5H313V294.5H308V295.5Z" fill="#CCCDCD"/>
<path d="M308 279.5H307.5V280.5H308V279.5ZM313 280.5C313.276 280.5 313.5 280.276 313.5 280C313.5 279.724 313.276 279.5 313 279.5V280.5ZM308 280.5H313V279.5H308V280.5Z" fill="#CCCDCD"/>
<path d="M308 264.5H307.5V265.5H308V264.5ZM313 265.5C313.276 265.5 313.5 265.276 313.5 265C313.5 264.724 313.276 264.5 313 264.5V265.5ZM308 265.5H313V264.5H308V265.5Z" fill="#CCCDCD"/>
<path d="M308 249.5H307.5V250.5H308V249.5ZM313 250.5C313.276 250.5 313.5 250.276 313.5 250C313.5 249.724 313.276 249.5 313 249.5V250.5ZM308 250.5H313V249.5H308V250.5Z" fill="#CCCDCD"/>
<path d="M308 289.5H307.5V290.5H308V289.5ZM318 290.5C318.276 290.5 318.5 290.276 318.5 290C318.5 289.724 318.276 289.5 318 289.5V290.5ZM308 290.5H318V289.5H308V290.5Z" fill="#CCCDCD"/>
<path d="M308 274.5H307.5V275.5H308V274.5ZM318 275.5C318.276 275.5 318.5 275.276 318.5 275C318.5 274.724 318.276 274.5 318 274.5V275.5ZM308 275.5H318V274.5H308V275.5Z" fill="#CCCDCD"/>
<path d="M308 259.5H307.5V260.5H308V259.5ZM318 260.5C318.276 260.5 318.5 260.276 318.5 260C318.5 259.724 318.276 259.5 318 259.5V260.5ZM308 260.5H318V259.5H308V260.5Z" fill="#CCCDCD"/>
<path d="M308 244.5H307.5V245.5H308V244.5ZM318 245.5C318.276 245.5 318.5 245.276 318.5 245C318.5 244.724 318.276 244.5 318 244.5V245.5ZM308 245.5H318V244.5H308V245.5Z" fill="#CCCDCD"/>
</g>
<path d="M308 240H359H308ZM359.5 307C359.5 311.694 355.694 315.5 351 315.5H316C311.306 315.5 307.5 311.694 307.5 307H308.5C308.5 311.142 311.858 314.5 316 314.5H351C355.142 314.5 358.5 311.142 358.5 307H359.5ZM316 315.5C311.306 315.5 307.5 311.694 307.5 307V240H308.5V307C308.5 311.142 311.858 314.5 316 314.5V315.5ZM359.5 240V307C359.5 311.694 355.694 315.5 351 315.5V314.5C355.142 314.5 358.5 311.142 358.5 307V240H359.5Z" fill="#CCCDCD"/>
<g clip-path="url(#clip4_374_2367)">
<path d="M389 240H440V299C440 306.542 440 310.314 437.657 312.657C435.314 315 431.542 315 424 315H405C397.458 315 393.686 315 391.343 312.657C389 310.314 389 306.542 389 299V240Z" fill="url(#paint2_linear_374_2367)"/>
<path d="M389 304.5H388.5V305.5H389V304.5ZM399 305.5C399.276 305.5 399.5 305.276 399.5 305C399.5 304.724 399.276 304.5 399 304.5V305.5ZM389 305.5H399V304.5H389V305.5Z" fill="#CCCDCD"/>
<path d="M389 299.5H388.5V300.5H389V299.5ZM394 300.5C394.276 300.5 394.5 300.276 394.5 300C394.5 299.724 394.276 299.5 394 299.5V300.5ZM389 300.5H394V299.5H389V300.5Z" fill="#CCCDCD"/>
<path d="M389 284.5H388.5V285.5H389V284.5ZM394 285.5C394.276 285.5 394.5 285.276 394.5 285C394.5 284.724 394.276 284.5 394 284.5V285.5ZM389 285.5H394V284.5H389V285.5Z" fill="#CCCDCD"/>
<path d="M389 269.5H388.5V270.5H389V269.5ZM394 270.5C394.276 270.5 394.5 270.276 394.5 270C394.5 269.724 394.276 269.5 394 269.5V270.5ZM389 270.5H394V269.5H389V270.5Z" fill="#CCCDCD"/>
<path d="M389 254.5H388.5V255.5H389V254.5ZM394 255.5C394.276 255.5 394.5 255.276 394.5 255C394.5 254.724 394.276 254.5 394 254.5V255.5ZM389 255.5H394V254.5H389V255.5Z" fill="#CCCDCD"/>
<path d="M389 294.5H388.5V295.5H389V294.5ZM394 295.5C394.276 295.5 394.5 295.276 394.5 295C394.5 294.724 394.276 294.5 394 294.5V295.5ZM389 295.5H394V294.5H389V295.5Z" fill="#CCCDCD"/>
<path d="M389 279.5H388.5V280.5H389V279.5ZM394 280.5C394.276 280.5 394.5 280.276 394.5 280C394.5 279.724 394.276 279.5 394 279.5V280.5ZM389 280.5H394V279.5H389V280.5Z" fill="#CCCDCD"/>
<path d="M389 264.5H388.5V265.5H389V264.5ZM394 265.5C394.276 265.5 394.5 265.276 394.5 265C394.5 264.724 394.276 264.5 394 264.5V265.5ZM389 265.5H394V264.5H389V265.5Z" fill="#CCCDCD"/>
<path d="M389 249.5H388.5V250.5H389V249.5ZM394 250.5C394.276 250.5 394.5 250.276 394.5 250C394.5 249.724 394.276 249.5 394 249.5V250.5ZM389 250.5H394V249.5H389V250.5Z" fill="#CCCDCD"/>
<path d="M389 289.5H388.5V290.5H389V289.5ZM399 290.5C399.276 290.5 399.5 290.276 399.5 290C399.5 289.724 399.276 289.5 399 289.5V290.5ZM389 290.5H399V289.5H389V290.5Z" fill="#CCCDCD"/>
<path d="M389 274.5H388.5V275.5H389V274.5ZM399 275.5C399.276 275.5 399.5 275.276 399.5 275C399.5 274.724 399.276 274.5 399 274.5V275.5ZM389 275.5H399V274.5H389V275.5Z" fill="#CCCDCD"/>
<path d="M389 259.5H388.5V260.5H389V259.5ZM399 260.5C399.276 260.5 399.5 260.276 399.5 260C399.5 259.724 399.276 259.5 399 259.5V260.5ZM389 260.5H399V259.5H389V260.5Z" fill="#CCCDCD"/>
<path d="M389 244.5H388.5V245.5H389V244.5ZM399 245.5C399.276 245.5 399.5 245.276 399.5 245C399.5 244.724 399.276 244.5 399 244.5V245.5ZM389 245.5H399V244.5H389V245.5Z" fill="#CCCDCD"/>
</g>
<path d="M389 240H440H389ZM440.5 307C440.5 311.694 436.694 315.5 432 315.5H397C392.306 315.5 388.5 311.694 388.5 307H389.5C389.5 311.142 392.858 314.5 397 314.5H432C436.142 314.5 439.5 311.142 439.5 307H440.5ZM397 315.5C392.306 315.5 388.5 311.694 388.5 307V240H389.5V307C389.5 311.142 392.858 314.5 397 314.5V315.5ZM440.5 240V307C440.5 311.694 436.694 315.5 432 315.5V314.5C436.142 314.5 439.5 311.142 439.5 307V240H440.5Z" fill="#CCCDCD"/>
<g clip-path="url(#clip5_374_2367)">
<path d="M470 240H521V299C521 306.542 521 310.314 518.657 312.657C516.314 315 512.542 315 505 315H486C478.458 315 474.686 315 472.343 312.657C470 310.314 470 306.542 470 299V240Z" fill="url(#paint3_linear_374_2367)"/>
<path d="M470 304.5H469.5V305.5H470V304.5ZM480 305.5C480.276 305.5 480.5 305.276 480.5 305C480.5 304.724 480.276 304.5 480 304.5V305.5ZM470 305.5H480V304.5H470V305.5Z" fill="#CCCDCD"/>
<path d="M470 299.5H469.5V300.5H470V299.5ZM475 300.5C475.276 300.5 475.5 300.276 475.5 300C475.5 299.724 475.276 299.5 475 299.5V300.5ZM470 300.5H475V299.5H470V300.5Z" fill="#CCCDCD"/>
<path d="M470 284.5H469.5V285.5H470V284.5ZM475 285.5C475.276 285.5 475.5 285.276 475.5 285C475.5 284.724 475.276 284.5 475 284.5V285.5ZM470 285.5H475V284.5H470V285.5Z" fill="#CCCDCD"/>
<path d="M470 269.5H469.5V270.5H470V269.5ZM475 270.5C475.276 270.5 475.5 270.276 475.5 270C475.5 269.724 475.276 269.5 475 269.5V270.5ZM470 270.5H475V269.5H470V270.5Z" fill="#CCCDCD"/>
<path d="M470 254.5H469.5V255.5H470V254.5ZM475 255.5C475.276 255.5 475.5 255.276 475.5 255C475.5 254.724 475.276 254.5 475 254.5V255.5ZM470 255.5H475V254.5H470V255.5Z" fill="#CCCDCD"/>
<path d="M470 294.5H469.5V295.5H470V294.5ZM475 295.5C475.276 295.5 475.5 295.276 475.5 295C475.5 294.724 475.276 294.5 475 294.5V295.5ZM470 295.5H475V294.5H470V295.5Z" fill="#CCCDCD"/>
<path d="M470 279.5H469.5V280.5H470V279.5ZM475 280.5C475.276 280.5 475.5 280.276 475.5 280C475.5 279.724 475.276 279.5 475 279.5V280.5ZM470 280.5H475V279.5H470V280.5Z" fill="#CCCDCD"/>
<path d="M470 264.5H469.5V265.5H470V264.5ZM475 265.5C475.276 265.5 475.5 265.276 475.5 265C475.5 264.724 475.276 264.5 475 264.5V265.5ZM470 265.5H475V264.5H470V265.5Z" fill="#CCCDCD"/>
<path d="M470 249.5H469.5V250.5H470V249.5ZM475 250.5C475.276 250.5 475.5 250.276 475.5 250C475.5 249.724 475.276 249.5 475 249.5V250.5ZM470 250.5H475V249.5H470V250.5Z" fill="#CCCDCD"/>
<path d="M470 289.5H469.5V290.5H470V289.5ZM480 290.5C480.276 290.5 480.5 290.276 480.5 290C480.5 289.724 480.276 289.5 480 289.5V290.5ZM470 290.5H480V289.5H470V290.5Z" fill="#CCCDCD"/>
<path d="M470 274.5H469.5V275.5H470V274.5ZM480 275.5C480.276 275.5 480.5 275.276 480.5 275C480.5 274.724 480.276 274.5 480 274.5V275.5ZM470 275.5H480V274.5H470V275.5Z" fill="#CCCDCD"/>
<path d="M470 259.5H469.5V260.5H470V259.5ZM480 260.5C480.276 260.5 480.5 260.276 480.5 260C480.5 259.724 480.276 259.5 480 259.5V260.5ZM470 260.5H480V259.5H470V260.5Z" fill="#CCCDCD"/>
<path d="M470 244.5H469.5V245.5H470V244.5ZM480 245.5C480.276 245.5 480.5 245.276 480.5 245C480.5 244.724 480.276 244.5 480 244.5V245.5ZM470 245.5H480V244.5H470V245.5Z" fill="#CCCDCD"/>
</g>
<path d="M470 240H521H470ZM521.5 307C521.5 311.694 517.694 315.5 513 315.5H478C473.306 315.5 469.5 311.694 469.5 307H470.5C470.5 311.142 473.858 314.5 478 314.5H513C517.142 314.5 520.5 311.142 520.5 307H521.5ZM478 315.5C473.306 315.5 469.5 311.694 469.5 307V240H470.5V307C470.5 311.142 473.858 314.5 478 314.5V315.5ZM521.5 240V307C521.5 311.694 517.694 315.5 513 315.5V314.5C517.142 314.5 520.5 311.142 520.5 307V240H521.5Z" fill="#CCCDCD"/>
<path d="M224.924 226H223.928V218.428L220.832 226H219.932L216.836 218.428V226H215.84V217.456H217.448L220.388 224.5L223.316 217.456H224.924V226ZM229.624 226.12C228.22 226.12 227.428 225.4 227.428 224.248C227.428 223.336 228.004 222.628 229.516 222.496L230.656 222.4C231.496 222.328 231.736 222.148 231.736 221.692C231.736 220.9 231.292 220.408 230.26 220.408C229.3 220.408 228.796 220.816 228.724 221.692H227.764C227.764 220.468 228.52 219.688 230.248 219.688C231.976 219.688 232.732 220.468 232.732 221.692V224.416C232.732 225.256 232.804 225.796 232.924 226H232.048C231.856 225.736 231.784 225.484 231.784 224.824C231.448 225.688 230.716 226.12 229.624 226.12ZM229.888 225.424C231.112 225.424 231.736 224.452 231.736 223.3V222.688C231.592 222.88 231.208 223 230.656 223.048L229.804 223.12C228.82 223.192 228.424 223.612 228.424 224.188C228.424 224.896 228.856 225.424 229.888 225.424ZM237.462 226.06C236.274 226.06 235.83 225.712 235.83 224.56V220.528H234.774V219.808H235.83V217.936H236.826V219.808H238.314V220.528H236.826V224.584C236.826 225.184 237.03 225.328 237.666 225.328L238.314 225.304V226C238.074 226.024 237.678 226.06 237.462 226.06ZM242.739 226.12C241.323 226.12 240.663 225.4 240.663 223.9V219.808H241.659V223.744C241.659 224.776 242.031 225.316 243.027 225.316C244.059 225.316 244.731 224.512 244.731 223.264V219.808H245.727V226H244.779V224.86C244.431 225.628 243.795 226.12 242.739 226.12ZM249.399 226H248.403V219.808H249.351V221.272C249.687 220.192 250.251 219.748 251.175 219.748C251.343 219.748 251.559 219.772 251.739 219.808V220.672L251.139 220.648C250.083 220.648 249.399 221.488 249.399 223.012V226ZM255.006 226H254.01V219.808H255.006V226ZM254.502 218.572C254.106 218.572 253.89 218.332 253.89 218.02C253.89 217.708 254.106 217.468 254.502 217.468C254.898 217.468 255.126 217.708 255.126 218.02C255.126 218.332 254.898 218.572 254.502 218.572ZM259.855 226.06C258.667 226.06 258.223 225.712 258.223 224.56V220.528H257.167V219.808H258.223V217.936H259.219V219.808H260.707V220.528H259.219V224.584C259.219 225.184 259.423 225.328 260.059 225.328L260.707 225.304V226C260.467 226.024 260.071 226.06 259.855 226.06ZM263.14 228.352V227.632H263.62C264.34 227.632 264.784 227.236 265.132 226.336L262.576 219.808H263.608L265.576 225.172L267.568 219.808H268.6L266.068 226.216C265.408 227.872 264.784 228.352 263.62 228.352H263.14ZM275.076 222.484C275.076 220.528 275.496 218.572 276.696 216.616H277.452C276.384 218.572 275.988 220.528 275.988 222.484C275.988 224.44 276.384 226.396 277.452 228.352H276.696C275.496 226.396 275.076 224.44 275.076 222.484ZM286.928 221.728C286.928 224.38 285.62 226 282.872 226H279.644V217.456H282.872C285.62 217.456 286.928 219.088 286.928 221.728ZM285.896 221.728C285.896 219.46 284.9 218.284 282.908 218.284H280.676V225.172H282.908C284.9 225.172 285.896 223.996 285.896 221.728ZM291.319 226.12C289.915 226.12 289.123 225.4 289.123 224.248C289.123 223.336 289.699 222.628 291.211 222.496L292.351 222.4C293.191 222.328 293.431 222.148 293.431 221.692C293.431 220.9 292.987 220.408 291.955 220.408C290.995 220.408 290.491 220.816 290.419 221.692H289.459C289.459 220.468 290.215 219.688 291.943 219.688C293.671 219.688 294.427 220.468 294.427 221.692V224.416C294.427 225.256 294.499 225.796 294.619 226H293.743C293.551 225.736 293.479 225.484 293.479 224.824C293.143 225.688 292.411 226.12 291.319 226.12ZM291.583 225.424C292.807 225.424 293.431 224.452 293.431 223.3V222.688C293.287 222.88 292.903 223 292.351 223.048L291.499 223.12C290.515 223.192 290.119 223.612 290.119 224.188C290.119 224.896 290.551 225.424 291.583 225.424ZM296.894 228.352V227.632H297.374C298.094 227.632 298.538 227.236 298.886 226.336L296.33 219.808H297.362L299.33 225.172L301.322 219.808H302.354L299.822 226.216C299.162 227.872 298.538 228.352 297.374 228.352H296.894ZM306.526 226.12C304.642 226.12 303.97 225.268 303.97 224.116H304.918C304.978 224.884 305.29 225.436 306.538 225.436C307.774 225.436 308.098 224.884 308.098 224.284C308.098 223.72 307.714 223.444 307.078 223.348L305.866 223.168C304.702 223 304.138 222.568 304.138 221.572C304.138 220.54 304.726 219.688 306.526 219.688C308.338 219.688 308.926 220.54 308.926 221.596H307.978C307.918 220.96 307.726 220.372 306.526 220.372C305.506 220.372 305.134 220.792 305.134 221.5C305.134 222.1 305.47 222.292 305.998 222.364L307.222 222.544C308.374 222.712 309.094 223.156 309.094 224.236C309.094 225.268 308.422 226.12 306.526 226.12ZM313.352 222.484C313.352 224.44 312.932 226.396 311.732 228.352H310.964C312.044 226.396 312.44 224.44 312.44 222.484C312.44 220.528 312.044 218.572 310.964 216.616H311.732C312.932 218.572 313.352 220.528 313.352 222.484Z" fill="white"/>
<path fill-rule="evenodd" clip-rule="evenodd" d="M32 1C32 0.723858 31.7761 0.5 31.5 0.5C31.2239 0.5 31 0.723858 31 1V198V199H32H495H495.5V198H495H32V1Z" fill="white"/>
<path d="M6.072 109.589C7.788 109.589 8.688 110.717 8.688 112.469V115.001H12V116.033H3.456L3.456 112.469C3.456 110.717 4.344 109.589 6.072 109.589ZM6.072 110.621C4.86 110.621 4.248 111.317 4.248 112.601V115.001H7.896V112.601C7.896 111.317 7.272 110.621 6.072 110.621ZM12 106.163V107.159H5.808V106.211H7.272C6.192 105.875 5.748 105.311 5.748 104.387C5.748 104.219 5.772 104.003 5.808 103.823H6.672L6.648 104.423C6.648 105.479 7.488 106.163 9.012 106.163H12ZM12 100.555V101.551H5.808V100.555H12ZM4.572 101.059C4.572 101.455 4.332 101.671 4.02 101.671C3.708 101.671 3.468 101.455 3.468 101.059C3.468 100.663 3.708 100.435 4.02 100.435C4.332 100.435 4.572 100.663 4.572 101.059ZM12.12 95.2261C12.12 97.0621 10.896 98.1181 8.904 98.1181C6.924 98.1181 5.688 97.0621 5.688 95.2261C5.688 93.3301 6.924 92.5261 8.016 92.5261V93.4261C7.2 93.5461 6.456 94.0501 6.456 95.2261C6.456 96.4021 7.284 97.1221 8.904 97.1221C10.524 97.1221 11.352 96.4021 11.352 95.2261C11.352 94.1941 10.788 93.5701 9.744 93.4261V92.5261C10.956 92.5261 12.12 93.4021 12.12 95.2261ZM12.12 87.4845C12.12 89.3925 10.896 90.4485 8.904 90.4485C6.996 90.4485 5.688 89.4645 5.688 87.5565C5.688 85.6365 7.032 84.6525 8.76 84.6525C8.856 84.6525 8.964 84.6525 9.06 84.6765V89.4525C10.74 89.4285 11.424 88.6365 11.424 87.4845C11.424 86.4885 10.896 85.8885 10.116 85.6725V84.7845C11.352 85.0725 12.12 85.9245 12.12 87.4845ZM6.384 87.5565C6.384 88.6245 7.044 89.3205 8.388 89.4525V85.6485C7.044 85.7805 6.384 86.4885 6.384 87.5565Z" fill="white"/>
<path d="M110.294 90H109.262V82.308H106.538V81.456H113.006V82.308H110.294V90ZM117.336 88.272V86.112H115.212V85.344H117.336V83.184H118.176V85.344H120.3V86.112H118.176V88.272H117.336ZM125.114 90H124.094C124.094 87.012 125.066 84.24 126.974 82.26H122.498V81.456H127.838V82.26C125.894 84.3 125.114 86.796 125.114 90ZM132.957 90.12C130.593 90.12 129.633 88.452 129.633 85.728C129.633 83.004 130.593 81.336 132.957 81.336C135.321 81.336 136.293 83.004 136.293 85.728C136.293 88.452 135.321 90.12 132.957 90.12ZM132.957 89.316C134.445 89.316 135.297 88.248 135.297 85.728C135.297 83.22 134.445 82.14 132.957 82.14C131.469 82.14 130.629 83.22 130.629 85.728C130.629 88.248 131.469 89.316 132.957 89.316Z" fill="white"/>
<path d="M269.073 100H268.041V92.308H265.317V91.456H271.785V92.308H269.073V100ZM276.115 98.272V96.112H273.991V95.344H276.115V93.184H276.955V95.344H279.079V96.112H276.955V98.272H276.115ZM284.482 91.336C286.522 91.336 287.662 92.524 287.662 95.068C287.662 98.356 286.57 100.12 284.482 100.12C282.886 100.12 281.926 99.4 281.722 97.936H282.61C282.742 98.74 283.282 99.352 284.434 99.352C285.814 99.352 286.606 98.116 286.678 95.524C286.282 96.508 285.454 96.952 284.362 96.952C282.634 96.952 281.446 95.992 281.446 94.18C281.446 92.392 282.634 91.336 284.482 91.336ZM284.506 92.104C283.306 92.104 282.442 92.836 282.442 94.168C282.442 95.488 283.306 96.22 284.506 96.22C285.718 96.22 286.582 95.488 286.582 94.168C286.582 92.836 285.718 92.104 284.506 92.104ZM293.177 100.12C290.813 100.12 289.853 98.452 289.853 95.728C289.853 93.004 290.813 91.336 293.177 91.336C295.541 91.336 296.513 93.004 296.513 95.728C296.513 98.452 295.541 100.12 293.177 100.12ZM293.177 99.316C294.665 99.316 295.517 98.248 295.517 95.728C295.517 93.22 294.665 92.14 293.177 92.14C291.689 92.14 290.849 93.22 290.849 95.728C290.849 98.248 291.689 99.316 293.177 99.316Z" fill="white"/>
<path d="M433.305 58H432.273V50.308H429.549V49.456H436.017V50.308H433.305V58ZM440.347 56.272V54.112H438.223V53.344H440.347V51.184H441.187V53.344H443.311V54.112H441.187V56.272H440.347ZM448.713 58H447.717V51.028C447.369 51.532 446.517 51.76 445.881 51.76H445.677V51.004C446.841 50.956 447.585 50.488 447.909 49.456H448.713V58ZM454.406 58.12C452.354 58.12 451.214 56.932 451.214 54.388C451.214 51.1 452.318 49.336 454.406 49.336C456.002 49.336 456.95 50.056 457.166 51.532H456.266C456.134 50.716 455.594 50.104 454.442 50.104C453.062 50.104 452.27 51.34 452.21 53.932C452.594 52.948 453.434 52.504 454.514 52.504C456.254 52.504 457.43 53.464 457.43 55.276C457.43 57.064 456.254 58.12 454.406 58.12ZM454.37 57.352C455.582 57.352 456.446 56.62 456.446 55.288C456.446 53.968 455.582 53.236 454.37 53.236C453.17 53.236 452.294 53.968 452.294 55.288C452.294 56.62 453.17 57.352 454.37 57.352ZM462.946 58.12C460.582 58.12 459.622 56.452 459.622 53.728C459.622 51.004 460.582 49.336 462.946 49.336C465.31 49.336 466.282 51.004 466.282 53.728C466.282 56.452 465.31 58.12 462.946 58.12ZM462.946 57.316C464.434 57.316 465.286 56.248 465.286 53.728C465.286 51.22 464.434 50.14 462.946 50.14C461.458 50.14 460.618 51.22 460.618 53.728C460.618 56.248 461.458 57.316 462.946 57.316Z" fill="white"/>
<path d="M511.264 20H510.232V12.308H507.508V11.456H513.976V12.308H511.264V20ZM518.306 18.272V16.112H516.182V15.344H518.306V13.184H519.146V15.344H521.27V16.112H519.146V18.272H518.306ZM526.744 20.12C524.884 20.12 523.636 19.352 523.636 17.204H524.524C524.656 18.752 525.4 19.316 526.756 19.316C528.124 19.316 528.868 18.596 528.868 17.6C528.868 16.532 528.292 16.028 527.08 16.028H525.928V15.26H526.96C528.112 15.26 528.748 14.804 528.748 13.808C528.748 12.848 528.004 12.14 526.744 12.14C525.412 12.14 524.752 12.824 524.644 14.012H523.756C523.756 12.344 524.836 11.336 526.744 11.336C528.532 11.336 529.744 12.272 529.744 13.736C529.744 14.816 529.168 15.428 528.316 15.62C529.264 15.86 529.864 16.436 529.864 17.732C529.864 19.208 528.604 20.12 526.744 20.12ZM537.264 20H536.292V17.672H532.056V16.724L536.136 11.456H537.264V16.856H538.476V17.672H537.264V20ZM536.292 16.856V12.524L532.944 16.856H536.292ZM543.987 20.12C541.623 20.12 540.663 18.452 540.663 15.728C540.663 13.004 541.623 11.336 543.987 11.336C546.351 11.336 547.323 13.004 547.323 15.728C547.323 18.452 546.351 20.12 543.987 20.12ZM543.987 19.316C545.475 19.316 546.327 18.248 546.327 15.728C546.327 13.22 545.475 12.14 543.987 12.14C542.499 12.14 541.659 13.22 541.659 15.728C541.659 18.248 542.499 19.316 543.987 19.316Z" fill="white"/>
<path d="M93.5 197.997L93.4974 198.497L94.4973 198.503L94.5 198.003L93.5 197.997ZM95.537 2.00284C95.5385 1.7267 95.3158 1.50167 95.0397 1.5002C94.7635 1.49874 94.5385 1.72141 94.537 1.99755L95.537 2.00284ZM94.5078 196.518C94.5093 196.242 94.2866 196.017 94.0105 196.015C93.7344 196.014 93.5093 196.236 93.5079 196.513L94.5078 196.518ZM93.5236 193.543C93.5221 193.819 93.7448 194.044 94.0209 194.045C94.2971 194.047 94.5221 193.824 94.5236 193.548L93.5236 193.543ZM94.5393 190.578C94.5407 190.302 94.3181 190.077 94.0419 190.076C93.7658 190.074 93.5407 190.297 93.5393 190.573L94.5393 190.578ZM93.555 187.603C93.5535 187.88 93.7762 188.105 94.0523 188.106C94.3285 188.108 94.5535 187.885 94.555 187.609L93.555 187.603ZM94.5707 184.639C94.5722 184.363 94.3495 184.138 94.0734 184.136C93.7972 184.135 93.5722 184.358 93.5707 184.634L94.5707 184.639ZM93.5864 181.664C93.585 181.94 93.8076 182.165 94.0838 182.167C94.3599 182.168 94.585 181.945 94.5864 181.669L93.5864 181.664ZM94.6021 178.7C94.6036 178.423 94.3809 178.198 94.1048 178.197C93.8286 178.196 93.6036 178.418 93.6021 178.694L94.6021 178.7ZM93.6179 175.725C93.6164 176.001 93.8391 176.226 94.1152 176.227C94.3913 176.229 94.6164 176.006 94.6178 175.73L93.6179 175.725ZM94.6336 172.76C94.635 172.484 94.4123 172.259 94.1362 172.258C93.8601 172.256 93.635 172.479 93.6336 172.755L94.6336 172.76ZM93.6493 169.785C93.6478 170.061 93.8705 170.286 94.1466 170.288C94.4228 170.289 94.6478 170.067 94.6493 169.791L93.6493 169.785ZM94.665 166.821C94.6664 166.545 94.4438 166.32 94.1676 166.318C93.8915 166.317 93.6665 166.539 93.665 166.816L94.665 166.821ZM93.6807 163.846C93.6792 164.122 93.9019 164.347 94.1781 164.349C94.4542 164.35 94.6792 164.127 94.6807 163.851L93.6807 163.846ZM94.6964 160.881C94.6979 160.605 94.4752 160.38 94.1991 160.379C93.9229 160.377 93.6979 160.6 93.6964 160.876L94.6964 160.881ZM93.7121 157.906C93.7107 158.183 93.9333 158.408 94.2095 158.409C94.4856 158.411 94.7107 158.188 94.7121 157.912L93.7121 157.906ZM94.7278 154.942C94.7293 154.666 94.5066 154.441 94.2305 154.439C93.9543 154.438 93.7293 154.661 93.7278 154.937L94.7278 154.942ZM93.7436 151.967C93.7421 152.243 93.9648 152.468 94.2409 152.47C94.517 152.471 94.7421 152.249 94.7435 151.972L93.7436 151.967ZM94.7593 149.003C94.7607 148.727 94.538 148.502 94.2619 148.5C93.9858 148.499 93.7607 148.721 93.7593 148.997L94.7593 149.003ZM93.775 146.028C93.7735 146.304 93.9962 146.529 94.2723 146.53C94.5485 146.532 94.7735 146.309 94.775 146.033L93.775 146.028ZM94.7907 143.063C94.7921 142.787 94.5695 142.562 94.2933 142.561C94.0172 142.559 93.7922 142.782 93.7907 143.058L94.7907 143.063ZM93.8064 140.088C93.8049 140.364 94.0276 140.59 94.3038 140.591C94.5799 140.592 94.8049 140.37 94.8064 140.094L93.8064 140.088ZM94.8221 137.124C94.8236 136.848 94.6009 136.623 94.3248 136.621C94.0486 136.62 93.8236 136.843 93.8221 137.119L94.8221 137.124ZM93.8378 134.149C93.8364 134.425 94.059 134.65 94.3352 134.652C94.6113 134.653 94.8364 134.43 94.8378 134.154L93.8378 134.149ZM94.8535 131.185C94.855 130.908 94.6323 130.683 94.3562 130.682C94.08 130.68 93.855 130.903 93.8535 131.179L94.8535 131.185ZM93.8693 128.21C93.8678 128.486 94.0905 128.711 94.3666 128.712C94.6427 128.714 94.8678 128.491 94.8692 128.215L93.8693 128.21ZM94.885 125.245C94.8864 124.969 94.6637 124.744 94.3876 124.743C94.1115 124.741 93.8864 124.964 93.885 125.24L94.885 125.245ZM93.9007 122.27C93.8992 122.546 94.1219 122.771 94.398 122.773C94.6742 122.774 94.8992 122.552 94.9007 122.275L93.9007 122.27ZM94.9164 119.306C94.9178 119.03 94.6952 118.805 94.419 118.803C94.1429 118.802 93.9179 119.024 93.9164 119.3L94.9164 119.306ZM93.9321 116.331C93.9306 116.607 94.1533 116.832 94.4295 116.833C94.7056 116.835 94.9306 116.612 94.9321 116.336L93.9321 116.331ZM94.9478 113.366C94.9493 113.09 94.7266 112.865 94.4505 112.864C94.1743 112.862 93.9493 113.085 93.9478 113.361L94.9478 113.366ZM93.9635 110.391C93.9621 110.668 94.1847 110.893 94.4609 110.894C94.737 110.896 94.9621 110.673 94.9635 110.397L93.9635 110.391ZM94.9792 107.427C94.9807 107.151 94.758 106.926 94.4819 106.924C94.2057 106.923 93.9807 107.146 93.9792 107.422L94.9792 107.427ZM93.995 104.452C93.9935 104.728 94.2162 104.953 94.4923 104.955C94.7684 104.956 94.9935 104.733 94.9949 104.457L93.995 104.452ZM95.0107 101.488C95.0121 101.211 94.7894 100.986 94.5133 100.985C94.2372 100.984 94.0121 101.206 94.0107 101.482L95.0107 101.488ZM94.0264 98.5126C94.0249 98.7888 94.2476 99.0138 94.5237 99.0153C94.7999 99.0167 95.0249 98.7941 95.0264 98.5179L94.0264 98.5126ZM95.0421 95.5482C95.0435 95.2721 94.8209 95.0471 94.5447 95.0456C94.2686 95.0441 94.0436 95.2668 94.0421 95.5429L95.0421 95.5482ZM94.0578 92.5732C94.0563 92.8494 94.279 93.0744 94.5552 93.0759C94.8313 93.0773 95.0563 92.8547 95.0578 92.5785L94.0578 92.5732ZM95.0735 89.6088C95.075 89.3327 94.8523 89.1077 94.5762 89.1062C94.3 89.1047 94.075 89.3274 94.0735 89.6036L95.0735 89.6088ZM94.0892 86.6339C94.0878 86.91 94.3104 87.135 94.5866 87.1365C94.8627 87.138 95.0878 86.9153 95.0892 86.6392L94.0892 86.6339ZM95.1049 83.6695C95.1064 83.3933 94.8837 83.1683 94.6076 83.1668C94.3314 83.1654 94.1064 83.388 94.1049 83.6642L95.1049 83.6695ZM94.1207 80.6945C94.1192 80.9706 94.3419 81.1956 94.618 81.1971C94.8941 81.1986 95.1192 80.9759 95.1206 80.6998L94.1207 80.6945ZM95.1364 77.7301C95.1378 77.4539 94.9151 77.2289 94.639 77.2274C94.3629 77.226 94.1378 77.4486 94.1364 77.7248L95.1364 77.7301ZM94.1521 74.7551C94.1506 75.0312 94.3733 75.2563 94.6494 75.2577C94.9256 75.2592 95.1506 75.0365 95.1521 74.7604L94.1521 74.7551ZM95.1678 71.7907C95.1692 71.5146 94.9466 71.2895 94.6704 71.2881C94.3943 71.2866 94.1693 71.5093 94.1678 71.7854L95.1678 71.7907ZM94.1835 68.8157C94.182 69.0918 94.4047 69.3169 94.6809 69.3183C94.957 69.3198 95.182 69.0971 95.1835 68.821L94.1835 68.8157ZM95.1992 65.8513C95.2007 65.5752 94.978 65.3501 94.7019 65.3487C94.4257 65.3472 94.2007 65.5699 94.1992 65.846L95.1992 65.8513ZM94.2149 62.8763C94.2135 63.1524 94.4361 63.3775 94.7123 63.3789C94.9884 63.3804 95.2135 63.1577 95.2149 62.8816L94.2149 62.8763ZM95.2306 59.9119C95.2321 59.6358 95.0094 59.4107 94.7333 59.4093C94.4571 59.4078 94.2321 59.6305 94.2306 59.9066L95.2306 59.9119ZM94.2464 56.9369C94.2449 57.213 94.4676 57.4381 94.7437 57.4395C95.0198 57.441 95.2449 57.2183 95.2463 56.9422L94.2464 56.9369ZM95.2621 53.9725C95.2635 53.6964 95.0408 53.4713 94.7647 53.4699C94.4886 53.4684 94.2635 53.6911 94.2621 53.9672L95.2621 53.9725ZM94.2778 50.9975C94.2763 51.2736 94.499 51.4987 94.7751 51.5001C95.0513 51.5016 95.2763 51.2789 95.2778 51.0028L94.2778 50.9975ZM95.2935 48.0331C95.2949 47.757 95.0723 47.5319 94.7961 47.5305C94.52 47.529 94.295 47.7517 94.2935 48.0278L95.2935 48.0331ZM94.3092 45.0581C94.3077 45.3342 94.5304 45.5593 94.8066 45.5607C95.0827 45.5622 95.3077 45.3395 95.3092 45.0634L94.3092 45.0581ZM95.3249 42.0937C95.3264 41.8176 95.1037 41.5925 94.8276 41.5911C94.5514 41.5896 94.3264 41.8123 94.3249 42.0884L95.3249 42.0937ZM94.3406 39.1187C94.3392 39.3948 94.5618 39.6199 94.838 39.6213C95.1141 39.6228 95.3392 39.4001 95.3406 39.124L94.3406 39.1187ZM95.3563 36.1543C95.3578 35.8782 95.1351 35.6531 94.859 35.6517C94.5828 35.6502 94.3578 35.8729 94.3563 36.149L95.3563 36.1543ZM94.3721 33.1793C94.3706 33.4554 94.5933 33.6805 94.8694 33.6819C95.1455 33.6834 95.3706 33.4607 95.372 33.1846L94.3721 33.1793ZM95.3878 30.2149C95.3892 29.9388 95.1665 29.7137 94.8904 29.7123C94.6143 29.7108 94.3892 29.9335 94.3878 30.2096L95.3878 30.2149ZM94.4035 27.2399C94.402 27.516 94.6247 27.7411 94.9008 27.7425C95.177 27.744 95.402 27.5213 95.4035 27.2452L94.4035 27.2399ZM95.4192 24.2755C95.4206 23.9994 95.198 23.7743 94.9218 23.7729C94.6457 23.7714 94.4207 23.9941 94.4192 24.2702L95.4192 24.2755ZM94.4349 21.3005C94.4334 21.5766 94.6561 21.8017 94.9323 21.8031C95.2084 21.8046 95.4334 21.5819 95.4349 21.3058L94.4349 21.3005ZM95.4506 18.3361C95.4521 18.06 95.2294 17.8349 94.9533 17.8335C94.6771 17.832 94.4521 18.0547 94.4506 18.3308L95.4506 18.3361ZM94.4663 15.3611C94.4649 15.6372 94.6875 15.8623 94.9637 15.8637C95.2398 15.8652 95.4649 15.6425 95.4663 15.3664L94.4663 15.3611ZM95.482 12.3967C95.4835 12.1206 95.2608 11.8955 94.9847 11.8941C94.7085 11.8926 94.4835 12.1153 94.482 12.3914L95.482 12.3967ZM94.4978 9.4217C94.4963 9.69784 94.719 9.92288 94.9951 9.92434C95.2712 9.9258 95.4963 9.70313 95.4977 9.42699L94.4978 9.4217ZM95.5135 6.4573C95.5149 6.18116 95.2923 5.95612 95.0161 5.95466C94.74 5.9532 94.5149 6.17587 94.5135 6.45201L95.5135 6.4573ZM94.5292 3.4823C94.5277 3.75844 94.7504 3.98348 95.0265 3.98494C95.3027 3.9864 95.5277 3.76373 95.5292 3.48759L94.5292 3.4823ZM94.5 198.003L94.5078 196.518L93.5079 196.513L93.5 197.997L94.5 198.003ZM94.5236 193.548L94.5393 190.578L93.5393 190.573L93.5236 193.543L94.5236 193.548ZM94.555 187.609L94.5707 184.639L93.5707 184.634L93.555 187.603L94.555 187.609ZM94.5864 181.669L94.6021 178.7L93.6021 178.694L93.5864 181.664L94.5864 181.669ZM94.6178 175.73L94.6336 172.76L93.6336 172.755L93.6179 175.725L94.6178 175.73ZM94.6493 169.791L94.665 166.821L93.665 166.816L93.6493 169.785L94.6493 169.791ZM94.6807 163.851L94.6964 160.881L93.6964 160.876L93.6807 163.846L94.6807 163.851ZM94.7121 157.912L94.7278 154.942L93.7278 154.937L93.7121 157.906L94.7121 157.912ZM94.7435 151.972L94.7593 149.003L93.7593 148.997L93.7436 151.967L94.7435 151.972ZM94.775 146.033L94.7907 143.063L93.7907 143.058L93.775 146.028L94.775 146.033ZM94.8064 140.094L94.8221 137.124L93.8221 137.119L93.8064 140.088L94.8064 140.094ZM94.8378 134.154L94.8535 131.185L93.8535 131.179L93.8378 134.149L94.8378 134.154ZM94.8692 128.215L94.885 125.245L93.885 125.24L93.8693 128.21L94.8692 128.215ZM94.9007 122.275L94.9164 119.306L93.9164 119.3L93.9007 122.27L94.9007 122.275ZM94.9321 116.336L94.9478 113.366L93.9478 113.361L93.9321 116.331L94.9321 116.336ZM94.9635 110.397L94.9792 107.427L93.9792 107.422L93.9635 110.391L94.9635 110.397ZM94.9949 104.457L95.0107 101.488L94.0107 101.482L93.995 104.452L94.9949 104.457ZM95.0264 98.5179L95.0421 95.5482L94.0421 95.5429L94.0264 98.5126L95.0264 98.5179ZM95.0578 92.5785L95.0735 89.6088L94.0735 89.6036L94.0578 92.5732L95.0578 92.5785ZM95.0892 86.6392L95.1049 83.6695L94.1049 83.6642L94.0892 86.6339L95.0892 86.6392ZM95.1206 80.6998L95.1364 77.7301L94.1364 77.7248L94.1207 80.6945L95.1206 80.6998ZM95.1521 74.7604L95.1678 71.7907L94.1678 71.7854L94.1521 74.7551L95.1521 74.7604ZM95.1835 68.821L95.1992 65.8513L94.1992 65.846L94.1835 68.8157L95.1835 68.821ZM95.2149 62.8816L95.2306 59.9119L94.2306 59.9066L94.2149 62.8763L95.2149 62.8816ZM95.2463 56.9422L95.2621 53.9725L94.2621 53.9672L94.2464 56.9369L95.2463 56.9422ZM95.2778 51.0028L95.2935 48.0331L94.2935 48.0278L94.2778 50.9975L95.2778 51.0028ZM95.3092 45.0634L95.3249 42.0937L94.3249 42.0884L94.3092 45.0581L95.3092 45.0634ZM95.3406 39.124L95.3563 36.1543L94.3563 36.149L94.3406 39.1187L95.3406 39.124ZM95.372 33.1846L95.3878 30.2149L94.3878 30.2096L94.3721 33.1793L95.372 33.1846ZM95.4035 27.2452L95.4192 24.2755L94.4192 24.2702L94.4035 27.2399L95.4035 27.2452ZM95.4349 21.3058L95.4506 18.3361L94.4506 18.3308L94.4349 21.3005L95.4349 21.3058ZM95.4663 15.3664L95.482 12.3967L94.482 12.3914L94.4663 15.3611L95.4663 15.3664ZM95.4977 9.42699L95.5135 6.4573L94.5135 6.45201L94.4978 9.4217L95.4977 9.42699ZM95.5292 3.48759L95.537 2.00284L94.537 1.99755L94.5292 3.4823L95.5292 3.48759Z" fill="white"/>
<path d="M253.5 197.997L253.497 198.497L254.497 198.503L254.5 198.003L253.5 197.997ZM255.537 2.00284C255.538 1.7267 255.316 1.50167 255.04 1.5002C254.764 1.49874 254.539 1.72141 254.537 1.99755L255.537 2.00284ZM254.508 196.518C254.509 196.242 254.287 196.017 254.011 196.015C253.734 196.014 253.509 196.236 253.508 196.513L254.508 196.518ZM253.524 193.543C253.522 193.819 253.745 194.044 254.021 194.045C254.297 194.047 254.522 193.824 254.524 193.548L253.524 193.543ZM254.539 190.578C254.541 190.302 254.318 190.077 254.042 190.076C253.766 190.074 253.541 190.297 253.539 190.573L254.539 190.578ZM253.555 187.603C253.554 187.88 253.776 188.105 254.052 188.106C254.328 188.108 254.554 187.885 254.555 187.609L253.555 187.603ZM254.571 184.639C254.572 184.363 254.349 184.138 254.073 184.136C253.797 184.135 253.572 184.358 253.571 184.634L254.571 184.639ZM253.586 181.664C253.585 181.94 253.808 182.165 254.084 182.167C254.36 182.168 254.585 181.945 254.586 181.669L253.586 181.664ZM254.602 178.7C254.604 178.423 254.381 178.198 254.105 178.197C253.829 178.196 253.604 178.418 253.602 178.694L254.602 178.7ZM253.618 175.725C253.616 176.001 253.839 176.226 254.115 176.227C254.391 176.229 254.616 176.006 254.618 175.73L253.618 175.725ZM254.634 172.76C254.635 172.484 254.412 172.259 254.136 172.258C253.86 172.256 253.635 172.479 253.634 172.755L254.634 172.76ZM253.649 169.785C253.648 170.061 253.87 170.286 254.147 170.288C254.423 170.289 254.648 170.067 254.649 169.791L253.649 169.785ZM254.665 166.821C254.666 166.545 254.444 166.32 254.168 166.318C253.891 166.317 253.666 166.539 253.665 166.816L254.665 166.821ZM253.681 163.846C253.679 164.122 253.902 164.347 254.178 164.349C254.454 164.35 254.679 164.127 254.681 163.851L253.681 163.846ZM254.696 160.881C254.698 160.605 254.475 160.38 254.199 160.379C253.923 160.377 253.698 160.6 253.696 160.876L254.696 160.881ZM253.712 157.906C253.711 158.183 253.933 158.408 254.209 158.409C254.486 158.411 254.711 158.188 254.712 157.912L253.712 157.906ZM254.728 154.942C254.729 154.666 254.507 154.441 254.23 154.439C253.954 154.438 253.729 154.661 253.728 154.937L254.728 154.942ZM253.744 151.967C253.742 152.243 253.965 152.468 254.241 152.47C254.517 152.471 254.742 152.249 254.744 151.972L253.744 151.967ZM254.759 149.003C254.761 148.727 254.538 148.502 254.262 148.5C253.986 148.499 253.761 148.721 253.759 148.997L254.759 149.003ZM253.775 146.028C253.774 146.304 253.996 146.529 254.272 146.53C254.548 146.532 254.774 146.309 254.775 146.033L253.775 146.028ZM254.791 143.063C254.792 142.787 254.569 142.562 254.293 142.561C254.017 142.559 253.792 142.782 253.791 143.058L254.791 143.063ZM253.806 140.088C253.805 140.364 254.028 140.59 254.304 140.591C254.58 140.592 254.805 140.37 254.806 140.094L253.806 140.088ZM254.822 137.124C254.824 136.848 254.601 136.623 254.325 136.621C254.049 136.62 253.824 136.843 253.822 137.119L254.822 137.124ZM253.838 134.149C253.836 134.425 254.059 134.65 254.335 134.652C254.611 134.653 254.836 134.43 254.838 134.154L253.838 134.149ZM254.854 131.185C254.855 130.908 254.632 130.683 254.356 130.682C254.08 130.68 253.855 130.903 253.854 131.179L254.854 131.185ZM253.869 128.21C253.868 128.486 254.09 128.711 254.367 128.712C254.643 128.714 254.868 128.491 254.869 128.215L253.869 128.21ZM254.885 125.245C254.886 124.969 254.664 124.744 254.388 124.743C254.111 124.741 253.886 124.964 253.885 125.24L254.885 125.245ZM253.901 122.27C253.899 122.546 254.122 122.771 254.398 122.773C254.674 122.774 254.899 122.552 254.901 122.275L253.901 122.27ZM254.916 119.306C254.918 119.03 254.695 118.805 254.419 118.803C254.143 118.802 253.918 119.024 253.916 119.3L254.916 119.306ZM253.932 116.331C253.931 116.607 254.153 116.832 254.429 116.833C254.706 116.835 254.931 116.612 254.932 116.336L253.932 116.331ZM254.948 113.366C254.949 113.09 254.727 112.865 254.45 112.864C254.174 112.862 253.949 113.085 253.948 113.361L254.948 113.366ZM253.964 110.391C253.962 110.668 254.185 110.893 254.461 110.894C254.737 110.896 254.962 110.673 254.964 110.397L253.964 110.391ZM254.979 107.427C254.981 107.151 254.758 106.926 254.482 106.924C254.206 106.923 253.981 107.146 253.979 107.422L254.979 107.427ZM253.995 104.452C253.993 104.728 254.216 104.953 254.492 104.955C254.768 104.956 254.993 104.733 254.995 104.457L253.995 104.452ZM255.011 101.488C255.012 101.211 254.789 100.986 254.513 100.985C254.237 100.984 254.012 101.206 254.011 101.482L255.011 101.488ZM254.026 98.5126C254.025 98.7888 254.248 99.0138 254.524 99.0153C254.8 99.0167 255.025 98.7941 255.026 98.5179L254.026 98.5126ZM255.042 95.5482C255.044 95.2721 254.821 95.0471 254.545 95.0456C254.269 95.0441 254.044 95.2668 254.042 95.5429L255.042 95.5482ZM254.058 92.5732C254.056 92.8494 254.279 93.0744 254.555 93.0759C254.831 93.0773 255.056 92.8547 255.058 92.5785L254.058 92.5732ZM255.074 89.6088C255.075 89.3327 254.852 89.1077 254.576 89.1062C254.3 89.1047 254.075 89.3274 254.074 89.6036L255.074 89.6088ZM254.089 86.6339C254.088 86.91 254.31 87.135 254.587 87.1365C254.863 87.138 255.088 86.9153 255.089 86.6392L254.089 86.6339ZM255.105 83.6695C255.106 83.3933 254.884 83.1683 254.608 83.1668C254.331 83.1654 254.106 83.388 254.105 83.6642L255.105 83.6695ZM254.121 80.6945C254.119 80.9706 254.342 81.1956 254.618 81.1971C254.894 81.1986 255.119 80.9759 255.121 80.6998L254.121 80.6945ZM255.136 77.7301C255.138 77.4539 254.915 77.2289 254.639 77.2274C254.363 77.226 254.138 77.4486 254.136 77.7248L255.136 77.7301ZM254.152 74.7551C254.151 75.0312 254.373 75.2563 254.649 75.2577C254.926 75.2592 255.151 75.0365 255.152 74.7604L254.152 74.7551ZM255.168 71.7907C255.169 71.5146 254.947 71.2895 254.67 71.2881C254.394 71.2866 254.169 71.5093 254.168 71.7854L255.168 71.7907ZM254.184 68.8157C254.182 69.0918 254.405 69.3169 254.681 69.3183C254.957 69.3198 255.182 69.0971 255.183 68.821L254.184 68.8157ZM255.199 65.8513C255.201 65.5752 254.978 65.3501 254.702 65.3487C254.426 65.3472 254.201 65.5699 254.199 65.846L255.199 65.8513ZM254.215 62.8763C254.213 63.1524 254.436 63.3775 254.712 63.3789C254.988 63.3804 255.213 63.1577 255.215 62.8816L254.215 62.8763ZM255.231 59.9119C255.232 59.6358 255.009 59.4107 254.733 59.4093C254.457 59.4078 254.232 59.6305 254.231 59.9066L255.231 59.9119ZM254.246 56.9369C254.245 57.213 254.468 57.4381 254.744 57.4395C255.02 57.441 255.245 57.2183 255.246 56.9422L254.246 56.9369ZM255.262 53.9725C255.264 53.6964 255.041 53.4713 254.765 53.4699C254.489 53.4684 254.264 53.6911 254.262 53.9672L255.262 53.9725ZM254.278 50.9975C254.276 51.2736 254.499 51.4987 254.775 51.5001C255.051 51.5016 255.276 51.2789 255.278 51.0028L254.278 50.9975ZM255.293 48.0331C255.295 47.757 255.072 47.5319 254.796 47.5305C254.52 47.529 254.295 47.7517 254.293 48.0278L255.293 48.0331ZM254.309 45.0581C254.308 45.3342 254.53 45.5593 254.807 45.5607C255.083 45.5622 255.308 45.3395 255.309 45.0634L254.309 45.0581ZM255.325 42.0937C255.326 41.8176 255.104 41.5925 254.828 41.5911C254.551 41.5896 254.326 41.8123 254.325 42.0884L255.325 42.0937ZM254.341 39.1187C254.339 39.3948 254.562 39.6199 254.838 39.6213C255.114 39.6228 255.339 39.4001 255.341 39.124L254.341 39.1187ZM255.356 36.1543C255.358 35.8782 255.135 35.6531 254.859 35.6517C254.583 35.6502 254.358 35.8729 254.356 36.149L255.356 36.1543ZM254.372 33.1793C254.371 33.4554 254.593 33.6805 254.869 33.6819C255.146 33.6834 255.371 33.4607 255.372 33.1846L254.372 33.1793ZM255.388 30.2149C255.389 29.9388 255.167 29.7137 254.89 29.7123C254.614 29.7108 254.389 29.9335 254.388 30.2096L255.388 30.2149ZM254.403 27.2399C254.402 27.516 254.625 27.7411 254.901 27.7425C255.177 27.744 255.402 27.5213 255.403 27.2452L254.403 27.2399ZM255.419 24.2755C255.421 23.9994 255.198 23.7743 254.922 23.7729C254.646 23.7714 254.421 23.9941 254.419 24.2702L255.419 24.2755ZM254.435 21.3005C254.433 21.5766 254.656 21.8017 254.932 21.8031C255.208 21.8046 255.433 21.5819 255.435 21.3058L254.435 21.3005ZM255.451 18.3361C255.452 18.06 255.229 17.8349 254.953 17.8335C254.677 17.832 254.452 18.0547 254.451 18.3308L255.451 18.3361ZM254.466 15.3611C254.465 15.6372 254.688 15.8623 254.964 15.8637C255.24 15.8652 255.465 15.6425 255.466 15.3664L254.466 15.3611ZM255.482 12.3967C255.483 12.1206 255.261 11.8955 254.985 11.8941C254.709 11.8926 254.484 12.1153 254.482 12.3914L255.482 12.3967ZM254.498 9.4217C254.496 9.69784 254.719 9.92288 254.995 9.92434C255.271 9.9258 255.496 9.70313 255.498 9.42699L254.498 9.4217ZM255.513 6.4573C255.515 6.18116 255.292 5.95612 255.016 5.95466C254.74 5.9532 254.515 6.17587 254.513 6.45201L255.513 6.4573ZM254.529 3.4823C254.528 3.75844 254.75 3.98348 255.027 3.98494C255.303 3.9864 255.528 3.76373 255.529 3.48759L254.529 3.4823ZM254.5 198.003L254.508 196.518L253.508 196.513L253.5 197.997L254.5 198.003ZM254.524 193.548L254.539 190.578L253.539 190.573L253.524 193.543L254.524 193.548ZM254.555 187.609L254.571 184.639L253.571 184.634L253.555 187.603L254.555 187.609ZM254.586 181.669L254.602 178.7L253.602 178.694L253.586 181.664L254.586 181.669ZM254.618 175.73L254.634 172.76L253.634 172.755L253.618 175.725L254.618 175.73ZM254.649 169.791L254.665 166.821L253.665 166.816L253.649 169.785L254.649 169.791ZM254.681 163.851L254.696 160.881L253.696 160.876L253.681 163.846L254.681 163.851ZM254.712 157.912L254.728 154.942L253.728 154.937L253.712 157.906L254.712 157.912ZM254.744 151.972L254.759 149.003L253.759 148.997L253.744 151.967L254.744 151.972ZM254.775 146.033L254.791 143.063L253.791 143.058L253.775 146.028L254.775 146.033ZM254.806 140.094L254.822 137.124L253.822 137.119L253.806 140.088L254.806 140.094ZM254.838 134.154L254.854 131.185L253.854 131.179L253.838 134.149L254.838 134.154ZM254.869 128.215L254.885 125.245L253.885 125.24L253.869 128.21L254.869 128.215ZM254.901 122.275L254.916 119.306L253.916 119.3L253.901 122.27L254.901 122.275ZM254.932 116.336L254.948 113.366L253.948 113.361L253.932 116.331L254.932 116.336ZM254.964 110.397L254.979 107.427L253.979 107.422L253.964 110.391L254.964 110.397ZM254.995 104.457L255.011 101.488L254.011 101.482L253.995 104.452L254.995 104.457ZM255.026 98.5179L255.042 95.5482L254.042 95.5429L254.026 98.5126L255.026 98.5179ZM255.058 92.5785L255.074 89.6088L254.074 89.6036L254.058 92.5732L255.058 92.5785ZM255.089 86.6392L255.105 83.6695L254.105 83.6642L254.089 86.6339L255.089 86.6392ZM255.121 80.6998L255.136 77.7301L254.136 77.7248L254.121 80.6945L255.121 80.6998ZM255.152 74.7604L255.168 71.7907L254.168 71.7854L254.152 74.7551L255.152 74.7604ZM255.183 68.821L255.199 65.8513L254.199 65.846L254.184 68.8157L255.183 68.821ZM255.215 62.8816L255.231 59.9119L254.231 59.9066L254.215 62.8763L255.215 62.8816ZM255.246 56.9422L255.262 53.9725L254.262 53.9672L254.246 56.9369L255.246 56.9422ZM255.278 51.0028L255.293 48.0331L254.293 48.0278L254.278 50.9975L255.278 51.0028ZM255.309 45.0634L255.325 42.0937L254.325 42.0884L254.309 45.0581L255.309 45.0634ZM255.341 39.124L255.356 36.1543L254.356 36.149L254.341 39.1187L255.341 39.124ZM255.372 33.1846L255.388 30.2149L254.388 30.2096L254.372 33.1793L255.372 33.1846ZM255.403 27.2452L255.419 24.2755L254.419 24.2702L254.403 27.2399L255.403 27.2452ZM255.435 21.3058L255.451 18.3361L254.451 18.3308L254.435 21.3005L255.435 21.3058ZM255.466 15.3664L255.482 12.3967L254.482 12.3914L254.466 15.3611L255.466 15.3664ZM255.498 9.42699L255.513 6.4573L254.513 6.45201L254.498 9.4217L255.498 9.42699ZM255.529 3.48759L255.537 2.00284L254.537 1.99755L254.529 3.4823L255.529 3.48759Z" fill="white"/>
<path d="M416.5 197.997L416.497 198.497L417.497 198.503L417.5 198.003L416.5 197.997ZM418.537 2.00284C418.538 1.7267 418.316 1.50167 418.04 1.5002C417.764 1.49874 417.539 1.72141 417.537 1.99755L418.537 2.00284ZM417.508 196.518C417.509 196.242 417.287 196.017 417.011 196.015C416.734 196.014 416.509 196.236 416.508 196.513L417.508 196.518ZM416.524 193.543C416.522 193.819 416.745 194.044 417.021 194.045C417.297 194.047 417.522 193.824 417.524 193.548L416.524 193.543ZM417.539 190.578C417.541 190.302 417.318 190.077 417.042 190.076C416.766 190.074 416.541 190.297 416.539 190.573L417.539 190.578ZM416.555 187.603C416.554 187.88 416.776 188.105 417.052 188.106C417.328 188.108 417.554 187.885 417.555 187.609L416.555 187.603ZM417.571 184.639C417.572 184.363 417.349 184.138 417.073 184.136C416.797 184.135 416.572 184.358 416.571 184.634L417.571 184.639ZM416.586 181.664C416.585 181.94 416.808 182.165 417.084 182.167C417.36 182.168 417.585 181.945 417.586 181.669L416.586 181.664ZM417.602 178.7C417.604 178.423 417.381 178.198 417.105 178.197C416.829 178.196 416.604 178.418 416.602 178.694L417.602 178.7ZM416.618 175.725C416.616 176.001 416.839 176.226 417.115 176.227C417.391 176.229 417.616 176.006 417.618 175.73L416.618 175.725ZM417.634 172.76C417.635 172.484 417.412 172.259 417.136 172.258C416.86 172.256 416.635 172.479 416.634 172.755L417.634 172.76ZM416.649 169.785C416.648 170.061 416.87 170.286 417.147 170.288C417.423 170.289 417.648 170.067 417.649 169.791L416.649 169.785ZM417.665 166.821C417.666 166.545 417.444 166.32 417.168 166.318C416.891 166.317 416.666 166.539 416.665 166.816L417.665 166.821ZM416.681 163.846C416.679 164.122 416.902 164.347 417.178 164.349C417.454 164.35 417.679 164.127 417.681 163.851L416.681 163.846ZM417.696 160.881C417.698 160.605 417.475 160.38 417.199 160.379C416.923 160.377 416.698 160.6 416.696 160.876L417.696 160.881ZM416.712 157.906C416.711 158.183 416.933 158.408 417.209 158.409C417.486 158.411 417.711 158.188 417.712 157.912L416.712 157.906ZM417.728 154.942C417.729 154.666 417.507 154.441 417.23 154.439C416.954 154.438 416.729 154.661 416.728 154.937L417.728 154.942ZM416.744 151.967C416.742 152.243 416.965 152.468 417.241 152.47C417.517 152.471 417.742 152.249 417.744 151.972L416.744 151.967ZM417.759 149.003C417.761 148.727 417.538 148.502 417.262 148.5C416.986 148.499 416.761 148.721 416.759 148.997L417.759 149.003ZM416.775 146.028C416.774 146.304 416.996 146.529 417.272 146.53C417.548 146.532 417.774 146.309 417.775 146.033L416.775 146.028ZM417.791 143.063C417.792 142.787 417.569 142.562 417.293 142.561C417.017 142.559 416.792 142.782 416.791 143.058L417.791 143.063ZM416.806 140.088C416.805 140.364 417.028 140.59 417.304 140.591C417.58 140.592 417.805 140.37 417.806 140.094L416.806 140.088ZM417.822 137.124C417.824 136.848 417.601 136.623 417.325 136.621C417.049 136.62 416.824 136.843 416.822 137.119L417.822 137.124ZM416.838 134.149C416.836 134.425 417.059 134.65 417.335 134.652C417.611 134.653 417.836 134.43 417.838 134.154L416.838 134.149ZM417.854 131.185C417.855 130.908 417.632 130.683 417.356 130.682C417.08 130.68 416.855 130.903 416.854 131.179L417.854 131.185ZM416.869 128.21C416.868 128.486 417.09 128.711 417.367 128.712C417.643 128.714 417.868 128.491 417.869 128.215L416.869 128.21ZM417.885 125.245C417.886 124.969 417.664 124.744 417.388 124.743C417.111 124.741 416.886 124.964 416.885 125.24L417.885 125.245ZM416.901 122.27C416.899 122.546 417.122 122.771 417.398 122.773C417.674 122.774 417.899 122.552 417.901 122.275L416.901 122.27ZM417.916 119.306C417.918 119.03 417.695 118.805 417.419 118.803C417.143 118.802 416.918 119.024 416.916 119.3L417.916 119.306ZM416.932 116.331C416.931 116.607 417.153 116.832 417.429 116.833C417.706 116.835 417.931 116.612 417.932 116.336L416.932 116.331ZM417.948 113.366C417.949 113.09 417.727 112.865 417.45 112.864C417.174 112.862 416.949 113.085 416.948 113.361L417.948 113.366ZM416.964 110.391C416.962 110.668 417.185 110.893 417.461 110.894C417.737 110.896 417.962 110.673 417.964 110.397L416.964 110.391ZM417.979 107.427C417.981 107.151 417.758 106.926 417.482 106.924C417.206 106.923 416.981 107.146 416.979 107.422L417.979 107.427ZM416.995 104.452C416.993 104.728 417.216 104.953 417.492 104.955C417.768 104.956 417.993 104.733 417.995 104.457L416.995 104.452ZM418.011 101.488C418.012 101.211 417.789 100.986 417.513 100.985C417.237 100.984 417.012 101.206 417.011 101.482L418.011 101.488ZM417.026 98.5126C417.025 98.7888 417.248 99.0138 417.524 99.0153C417.8 99.0167 418.025 98.7941 418.026 98.5179L417.026 98.5126ZM418.042 95.5482C418.044 95.2721 417.821 95.0471 417.545 95.0456C417.269 95.0441 417.044 95.2668 417.042 95.5429L418.042 95.5482ZM417.058 92.5732C417.056 92.8494 417.279 93.0744 417.555 93.0759C417.831 93.0773 418.056 92.8547 418.058 92.5785L417.058 92.5732ZM418.074 89.6088C418.075 89.3327 417.852 89.1077 417.576 89.1062C417.3 89.1047 417.075 89.3274 417.074 89.6036L418.074 89.6088ZM417.089 86.6339C417.088 86.91 417.31 87.135 417.587 87.1365C417.863 87.138 418.088 86.9153 418.089 86.6392L417.089 86.6339ZM418.105 83.6695C418.106 83.3933 417.884 83.1683 417.608 83.1668C417.331 83.1654 417.106 83.388 417.105 83.6642L418.105 83.6695ZM417.121 80.6945C417.119 80.9706 417.342 81.1956 417.618 81.1971C417.894 81.1986 418.119 80.9759 418.121 80.6998L417.121 80.6945ZM418.136 77.7301C418.138 77.4539 417.915 77.2289 417.639 77.2274C417.363 77.226 417.138 77.4486 417.136 77.7248L418.136 77.7301ZM417.152 74.7551C417.151 75.0312 417.373 75.2563 417.649 75.2577C417.926 75.2592 418.151 75.0365 418.152 74.7604L417.152 74.7551ZM418.168 71.7907C418.169 71.5146 417.947 71.2895 417.67 71.2881C417.394 71.2866 417.169 71.5093 417.168 71.7854L418.168 71.7907ZM417.184 68.8157C417.182 69.0918 417.405 69.3169 417.681 69.3183C417.957 69.3198 418.182 69.0971 418.183 68.821L417.184 68.8157ZM418.199 65.8513C418.201 65.5752 417.978 65.3501 417.702 65.3487C417.426 65.3472 417.201 65.5699 417.199 65.846L418.199 65.8513ZM417.215 62.8763C417.213 63.1524 417.436 63.3775 417.712 63.3789C417.988 63.3804 418.213 63.1577 418.215 62.8816L417.215 62.8763ZM418.231 59.9119C418.232 59.6358 418.009 59.4107 417.733 59.4093C417.457 59.4078 417.232 59.6305 417.231 59.9066L418.231 59.9119ZM417.246 56.9369C417.245 57.213 417.468 57.4381 417.744 57.4395C418.02 57.441 418.245 57.2183 418.246 56.9422L417.246 56.9369ZM418.262 53.9725C418.264 53.6964 418.041 53.4713 417.765 53.4699C417.489 53.4684 417.264 53.6911 417.262 53.9672L418.262 53.9725ZM417.278 50.9975C417.276 51.2736 417.499 51.4987 417.775 51.5001C418.051 51.5016 418.276 51.2789 418.278 51.0028L417.278 50.9975ZM418.293 48.0331C418.295 47.757 418.072 47.5319 417.796 47.5305C417.52 47.529 417.295 47.7517 417.293 48.0278L418.293 48.0331ZM417.309 45.0581C417.308 45.3342 417.53 45.5593 417.807 45.5607C418.083 45.5622 418.308 45.3395 418.309 45.0634L417.309 45.0581ZM418.325 42.0937C418.326 41.8176 418.104 41.5925 417.828 41.5911C417.551 41.5896 417.326 41.8123 417.325 42.0884L418.325 42.0937ZM417.341 39.1187C417.339 39.3948 417.562 39.6199 417.838 39.6213C418.114 39.6228 418.339 39.4001 418.341 39.124L417.341 39.1187ZM418.356 36.1543C418.358 35.8782 418.135 35.6531 417.859 35.6517C417.583 35.6502 417.358 35.8729 417.356 36.149L418.356 36.1543ZM417.372 33.1793C417.371 33.4554 417.593 33.6805 417.869 33.6819C418.146 33.6834 418.371 33.4607 418.372 33.1846L417.372 33.1793ZM418.388 30.2149C418.389 29.9388 418.167 29.7137 417.89 29.7123C417.614 29.7108 417.389 29.9335 417.388 30.2096L418.388 30.2149ZM417.403 27.2399C417.402 27.516 417.625 27.7411 417.901 27.7425C418.177 27.744 418.402 27.5213 418.403 27.2452L417.403 27.2399ZM418.419 24.2755C418.421 23.9994 418.198 23.7743 417.922 23.7729C417.646 23.7714 417.421 23.9941 417.419 24.2702L418.419 24.2755ZM417.435 21.3005C417.433 21.5766 417.656 21.8017 417.932 21.8031C418.208 21.8046 418.433 21.5819 418.435 21.3058L417.435 21.3005ZM418.451 18.3361C418.452 18.06 418.229 17.8349 417.953 17.8335C417.677 17.832 417.452 18.0547 417.451 18.3308L418.451 18.3361ZM417.466 15.3611C417.465 15.6372 417.688 15.8623 417.964 15.8637C418.24 15.8652 418.465 15.6425 418.466 15.3664L417.466 15.3611ZM418.482 12.3967C418.483 12.1206 418.261 11.8955 417.985 11.8941C417.709 11.8926 417.484 12.1153 417.482 12.3914L418.482 12.3967ZM417.498 9.4217C417.496 9.69784 417.719 9.92288 417.995 9.92434C418.271 9.9258 418.496 9.70313 418.498 9.42699L417.498 9.4217ZM418.513 6.4573C418.515 6.18116 418.292 5.95612 418.016 5.95466C417.74 5.9532 417.515 6.17587 417.513 6.45201L418.513 6.4573ZM417.529 3.4823C417.528 3.75844 417.75 3.98348 418.027 3.98494C418.303 3.9864 418.528 3.76373 418.529 3.48759L417.529 3.4823ZM417.5 198.003L417.508 196.518L416.508 196.513L416.5 197.997L417.5 198.003ZM417.524 193.548L417.539 190.578L416.539 190.573L416.524 193.543L417.524 193.548ZM417.555 187.609L417.571 184.639L416.571 184.634L416.555 187.603L417.555 187.609ZM417.586 181.669L417.602 178.7L416.602 178.694L416.586 181.664L417.586 181.669ZM417.618 175.73L417.634 172.76L416.634 172.755L416.618 175.725L417.618 175.73ZM417.649 169.791L417.665 166.821L416.665 166.816L416.649 169.785L417.649 169.791ZM417.681 163.851L417.696 160.881L416.696 160.876L416.681 163.846L417.681 163.851ZM417.712 157.912L417.728 154.942L416.728 154.937L416.712 157.906L417.712 157.912ZM417.744 151.972L417.759 149.003L416.759 148.997L416.744 151.967L417.744 151.972ZM417.775 146.033L417.791 143.063L416.791 143.058L416.775 146.028L417.775 146.033ZM417.806 140.094L417.822 137.124L416.822 137.119L416.806 140.088L417.806 140.094ZM417.838 134.154L417.854 131.185L416.854 131.179L416.838 134.149L417.838 134.154ZM417.869 128.215L417.885 125.245L416.885 125.24L416.869 128.21L417.869 128.215ZM417.901 122.275L417.916 119.306L416.916 119.3L416.901 122.27L417.901 122.275ZM417.932 116.336L417.948 113.366L416.948 113.361L416.932 116.331L417.932 116.336ZM417.964 110.397L417.979 107.427L416.979 107.422L416.964 110.391L417.964 110.397ZM417.995 104.457L418.011 101.488L417.011 101.482L416.995 104.452L417.995 104.457ZM418.026 98.5179L418.042 95.5482L417.042 95.5429L417.026 98.5126L418.026 98.5179ZM418.058 92.5785L418.074 89.6088L417.074 89.6036L417.058 92.5732L418.058 92.5785ZM418.089 86.6392L418.105 83.6695L417.105 83.6642L417.089 86.6339L418.089 86.6392ZM418.121 80.6998L418.136 77.7301L417.136 77.7248L417.121 80.6945L418.121 80.6998ZM418.152 74.7604L418.168 71.7907L417.168 71.7854L417.152 74.7551L418.152 74.7604ZM418.183 68.821L418.199 65.8513L417.199 65.846L417.184 68.8157L418.183 68.821ZM418.215 62.8816L418.231 59.9119L417.231 59.9066L417.215 62.8763L418.215 62.8816ZM418.246 56.9422L418.262 53.9725L417.262 53.9672L417.246 56.9369L418.246 56.9422ZM418.278 51.0028L418.293 48.0331L417.293 48.0278L417.278 50.9975L418.278 51.0028ZM418.309 45.0634L418.325 42.0937L417.325 42.0884L417.309 45.0581L418.309 45.0634ZM418.341 39.124L418.356 36.1543L417.356 36.149L417.341 39.1187L418.341 39.124ZM418.372 33.1846L418.388 30.2149L417.388 30.2096L417.372 33.1793L418.372 33.1846ZM418.403 27.2452L418.419 24.2755L417.419 24.2702L417.403 27.2399L418.403 27.2452ZM418.435 21.3058L418.451 18.3361L417.451 18.3308L417.435 21.3005L418.435 21.3058ZM418.466 15.3664L418.482 12.3967L417.482 12.3914L417.466 15.3611L418.466 15.3664ZM418.498 9.42699L418.513 6.4573L417.513 6.45201L417.498 9.4217L418.498 9.42699ZM418.529 3.48759L418.537 2.00284L417.537 1.99755L417.529 3.4823L418.529 3.48759Z" fill="white"/>
<rect x="90.5" y="84.5" width="8" height="4" rx="2" fill="#0ABAB5"/>
<rect x="90.5" y="84.5" width="8" height="4" rx="2" stroke="#035A58"/>
<rect x="250.5" y="94.5" width="8" height="4" rx="2" fill="#0ABAB5"/>
<rect x="250.5" y="94.5" width="8" height="4" rx="2" stroke="#035A58"/>
<rect x="413.5" y="52.5" width="8" height="4" rx="2" fill="#0ABAB5"/>
<rect x="413.5" y="52.5" width="8" height="4" rx="2" stroke="#035A58"/>
<defs>
<linearGradient id="paint0_linear_374_2367" x1="90.5" y1="240" x2="90.5395" y2="270.5" gradientUnits="userSpaceOnUse">
<stop offset="0.867288" stop-opacity="0"/>
<stop offset="1" stop-color="#06B7D0" stop-opacity="0.39"/>
</linearGradient>
<linearGradient id="paint1_linear_374_2367" x1="253" y1="282" x2="253.009" y2="289" gradientUnits="userSpaceOnUse">
<stop stop-opacity="0"/>
<stop offset="1" stop-color="#06B7D0" stop-opacity="0.39"/>
</linearGradient>
<linearGradient id="paint2_linear_374_2367" x1="414.5" y1="240" x2="414.54" y2="270.5" gradientUnits="userSpaceOnUse">
<stop offset="0.600951" stop-opacity="0"/>
<stop offset="0.686203" stop-color="#06B7D0" stop-opacity="0.39"/>
</linearGradient>
<linearGradient id="paint3_linear_374_2367" x1="495.5" y1="240" x2="495.51" y2="247.5" gradientUnits="userSpaceOnUse">
<stop stop-opacity="0"/>
<stop offset="1" stop-color="#06B7D0" stop-opacity="0.39"/>
</linearGradient>
<clipPath id="clip0_374_2367">
<path d="M65 240H116V299C116 306.542 116 310.314 113.657 312.657C111.314 315 107.542 315 100 315H81C73.4575 315 69.6863 315 67.3431 312.657C65 310.314 65 306.542 65 299V240Z" fill="white"/>
</clipPath>
<clipPath id="clip1_374_2367">
<path d="M146 240H197V299C197 306.542 197 310.314 194.657 312.657C192.314 315 188.542 315 181 315H162C154.458 315 150.686 315 148.343 312.657C146 310.314 146 306.542 146 299V240Z" fill="white"/>
</clipPath>
<clipPath id="clip2_374_2367">
<path d="M227 240H278V299C278 306.542 278 310.314 275.657 312.657C273.314 315 269.542 315 262 315H243C235.458 315 231.686 315 229.343 312.657C227 310.314 227 306.542 227 299V240Z" fill="white"/>
</clipPath>
<clipPath id="clip3_374_2367">
<path d="M308 240H359V299C359 306.542 359 310.314 356.657 312.657C354.314 315 350.542 315 343 315H324C316.458 315 312.686 315 310.343 312.657C308 310.314 308 306.542 308 299V240Z" fill="white"/>
</clipPath>
<clipPath id="clip4_374_2367">
<path d="M389 240H440V299C440 306.542 440 310.314 437.657 312.657C435.314 315 431.542 315 424 315H405C397.458 315 393.686 315 391.343 312.657C389 310.314 389 306.542 389 299V240Z" fill="white"/>
</clipPath>
<clipPath id="clip5_374_2367">
<path d="M470 240H521V299C521 306.542 521 310.314 518.657 312.657C516.314 315 512.542 315 505 315H486C478.458 315 474.686 315 472.343 312.657C470 310.314 470 306.542 470 299V240Z" fill="white"/>
</clipPath>
</defs>
</svg>
