<svg width="167" height="166" viewBox="0 0 167 166" fill="none" xmlns="http://www.w3.org/2000/svg">
<path d="M137.433 53.6605C137.433 83.2963 113.235 107.321 83.386 107.321C53.537 107.321 29.3395 83.2963 29.3395 53.6605C29.3395 24.0246 53.537 0 83.386 0C113.235 0 137.433 24.0246 137.433 53.6605ZM30.9609 53.6605C30.9609 82.4072 54.4325 105.711 83.386 105.711C112.34 105.711 135.811 82.4072 135.811 53.6605C135.811 24.9137 112.34 1.60981 83.386 1.60981C54.4325 1.60981 30.9609 24.9137 30.9609 53.6605Z" fill="#3CC0A3"/>
<path d="M141.088 98.2883C119.988 119.388 85.7786 119.388 64.6787 98.2883C43.5788 77.1883 43.5787 42.9786 64.6787 21.8787C85.7786 0.778757 119.988 0.778757 141.088 21.8787C162.188 42.9786 162.188 77.1883 141.088 98.2883ZM65.8248 23.0248C45.3579 43.4917 45.3579 76.6752 65.8248 97.1421C86.2917 117.609 119.475 117.609 139.942 97.1421C160.409 76.6752 160.409 43.4917 139.942 23.0248C119.475 2.55789 86.2917 2.55789 65.8248 23.0248Z" fill="#3CC0A3"/>
<path d="M112.34 133.572C82.2773 133.572 57.907 109.375 57.907 79.5256C57.907 49.6765 82.2773 25.4791 112.34 25.4791C142.402 25.4791 166.772 49.6765 166.772 79.5256C166.772 109.375 142.402 133.572 112.34 133.572ZM112.34 27.1005C83.1791 27.1005 59.5399 50.572 59.5399 79.5256C59.5399 108.479 83.1791 131.951 112.34 131.951C141.5 131.951 165.139 108.479 165.139 79.5256C165.139 50.572 141.5 27.1005 112.34 27.1005Z" fill="#3CC0A3"/>
<path d="M66.8829 137.228C45.783 116.128 45.783 81.9181 66.8829 60.8182C87.9828 39.7183 122.193 39.7183 143.292 60.8182C164.392 81.9181 164.392 116.128 143.292 137.228C122.193 158.328 87.9828 158.328 66.8829 137.228ZM142.146 61.9643C121.679 41.4974 88.496 41.4974 68.029 61.9643C47.5621 82.4313 47.5621 115.615 68.029 136.082C88.496 156.549 121.679 156.549 142.146 136.082C162.613 115.615 162.613 82.4313 142.146 61.9643Z" fill="#3CC0A3"/>
<path d="M29.3395 111.567C29.3395 81.5052 53.537 57.1349 83.386 57.1349C113.235 57.1349 137.433 81.5052 137.433 111.567C137.433 141.63 113.235 166 83.386 166C53.537 166 29.3395 141.63 29.3395 111.567ZM135.811 111.567C135.811 82.407 112.34 58.7679 83.386 58.7679C54.4324 58.7679 30.9609 82.407 30.9609 111.567C30.9609 140.728 54.4324 164.367 83.386 164.367C112.34 164.367 135.811 140.728 135.811 111.567Z" fill="#3CC0A3"/>
<path d="M23.535 63.0223C44.635 41.9224 78.8447 41.9224 99.9446 63.0223C121.045 84.1223 121.045 118.332 99.9446 139.432C78.8447 160.532 44.635 160.532 23.535 139.432C2.43511 118.332 2.43511 84.1223 23.535 63.0223ZM98.7985 138.286C119.265 117.819 119.265 84.6354 98.7985 64.1685C78.3316 43.7016 45.1481 43.7016 24.6812 64.1685C4.21424 84.6354 4.21425 117.819 24.6812 138.286C45.1481 158.753 78.3315 158.753 98.7985 138.286Z" fill="#3CC0A3"/>
<path d="M54.4326 25.4791C84.4948 25.4791 108.865 49.6765 108.865 79.5256C108.865 109.375 84.4948 133.572 54.4325 133.572C24.3703 133.572 -3.91423e-06 109.375 0 79.5256C3.91423e-06 49.6765 24.3703 25.4791 54.4326 25.4791ZM54.4325 131.951C83.5929 131.951 107.232 108.479 107.232 79.5256C107.232 50.572 83.593 27.1005 54.4326 27.1005C25.2722 27.1004 1.63298 50.572 1.63298 79.5256C1.63297 108.479 25.2721 131.951 54.4325 131.951Z" fill="#3CC0A3"/>
<path d="M102.149 19.6746C123.249 40.7745 123.249 74.9842 102.149 96.0842C81.0488 117.184 46.8391 117.184 25.7391 96.0842C4.63921 74.9842 4.63922 40.7745 25.7391 19.6746C46.8391 -1.42534 81.0488 -1.42534 102.149 19.6746ZM26.8853 94.938C47.3522 115.405 80.5356 115.405 101.003 94.938C121.47 74.4711 121.47 41.2877 101.003 20.8207C80.5357 0.353794 47.3522 0.353794 26.8853 20.8207C6.41835 41.2876 6.41835 74.4711 26.8853 94.938Z" fill="#3CC0A3"/>
<path d="M39.3617 101.579V105.708H36.1195C32.5315 105.708 30.1251 105.174 28.9003 104.108C27.6898 103.042 27.0846 100.916 27.0846 97.7318V93.0846C27.0846 90.9088 26.6956 89.4102 25.9174 88.5888C25.1537 87.753 23.7632 87.3352 21.7458 87.3352H20.4057V83.2068H21.7458C23.7632 83.2068 25.1537 82.7961 25.9174 81.9747C26.6956 81.1534 27.0846 79.6476 27.0846 77.4573V72.8102C27.0846 69.6256 27.6898 67.5074 28.9003 66.4555C30.1251 65.3891 32.5315 64.856 36.1195 64.856H39.3617V68.9628H36.7031C35.2045 68.9628 34.203 69.2654 33.6987 69.8706C33.1944 70.4758 32.9422 71.8087 32.9422 73.8693V78.3867C32.9422 80.7643 32.5892 82.4358 31.8831 83.4013C31.177 84.3668 29.9161 84.9864 28.1005 85.2602C29.9161 85.5628 31.177 86.204 31.8831 87.1839C32.5892 88.1637 32.9422 89.8352 32.9422 92.1984V96.6294C32.9422 98.7044 33.1944 100.045 33.6987 100.65C34.203 101.269 35.2045 101.579 36.7031 101.579H39.3617ZM86.4599 98.4883H80.0836V71.7943H71.8917V66.2177H94.6518V71.7943H86.4599V98.4883ZM127.182 101.579H129.797C131.296 101.579 132.304 101.269 132.823 100.65C133.342 100.03 133.601 98.69 133.601 96.6294V92.1984C133.601 89.8352 133.954 88.1637 134.66 87.1839C135.367 86.204 136.62 85.5628 138.421 85.2602C136.606 84.9864 135.345 84.3668 134.639 83.4013C133.947 82.4358 133.601 80.7643 133.601 78.3867V73.8693C133.601 71.8375 133.342 70.5118 132.823 69.8922C132.319 69.2726 131.31 68.9628 129.797 68.9628H127.182V64.856H130.424C133.998 64.856 136.382 65.3891 137.578 66.4555C138.789 67.5074 139.394 69.6256 139.394 72.8102V77.4573C139.394 79.6332 139.783 81.139 140.561 81.9747C141.354 82.7961 142.766 83.2068 144.798 83.2068H146.138V87.3352H144.798C142.766 87.3352 141.354 87.753 140.561 88.5888C139.783 89.4246 139.394 90.9232 139.394 93.0846V97.7318C139.394 100.916 138.789 103.042 137.578 104.108C136.382 105.174 133.998 105.708 130.424 105.708H127.182V101.579Z" fill="#F3F4F6"/>
</svg>
