<svg width="234" height="74" viewBox="0 0 234 74" fill="none" xmlns="http://www.w3.org/2000/svg">
<path d="M61.1063 23.6637C61.1063 36.7328 50.4355 47.3274 37.2724 47.3274C24.1092 47.3274 13.4384 36.7328 13.4384 23.6637C13.4384 10.5946 24.1092 0 37.2724 0C50.4355 0 61.1063 10.5946 61.1063 23.6637ZM14.1534 23.6637C14.1534 36.3407 24.5041 46.6175 37.2724 46.6175C50.0406 46.6175 60.3913 36.3407 60.3913 23.6637C60.3913 10.9867 50.0406 0.70991 37.2724 0.70991C24.5041 0.70991 14.1534 10.9867 14.1534 23.6637Z" fill="#0ABAB5"/>
<path d="M62.7184 43.3441C53.4136 52.6489 38.3274 52.6489 29.0226 43.3441C19.7178 34.0392 19.7178 18.9531 29.0226 9.64826C38.3274 0.343423 53.4136 0.343423 62.7184 9.64826C72.0233 18.9531 72.0233 34.0392 62.7184 43.3441ZM29.528 10.1537C20.5023 19.1794 20.5023 33.8129 29.528 42.8386C38.5537 51.8643 53.1873 51.8643 62.213 42.8386C71.2387 33.8129 71.2387 19.1794 62.213 10.1537C53.1873 1.128 38.5537 1.128 29.528 10.1537Z" fill="#0ABAB5"/>
<path d="M50.0405 58.9039C36.7834 58.9039 26.0364 48.233 26.0364 35.0699C26.0364 21.9068 36.7834 11.236 50.0405 11.236C63.2977 11.236 74.0447 21.9068 74.0447 35.0699C74.0447 48.2331 63.2977 58.9039 50.0405 58.9039ZM50.0405 11.951C37.1811 11.951 26.7565 22.3017 26.7565 35.0699C26.7565 47.8382 37.1811 58.1888 50.0405 58.1888C62.9 58.1888 73.3246 47.8382 73.3246 35.0699C73.3246 22.3017 62.9 11.951 50.0405 11.951Z" fill="#0ABAB5"/>
<path d="M29.9946 60.516C20.6898 51.2111 20.6898 36.125 29.9946 26.8202C39.2995 17.5153 54.3856 17.5153 63.6905 26.8202C72.9953 36.125 72.9953 51.2111 63.6905 60.516C54.3856 69.8208 39.2995 69.8208 29.9946 60.516ZM63.185 27.3256C54.1593 18.2999 39.5258 18.2999 30.5001 27.3256C21.4744 36.3513 21.4744 50.9849 30.5001 60.0106C39.5258 69.0363 54.1593 69.0362 63.185 60.0106C72.2107 50.9849 72.2107 36.3513 63.185 27.3256Z" fill="#0ABAB5"/>
<path d="M13.4384 49.2C13.4384 35.9429 24.1092 25.1959 37.2724 25.1959C50.4355 25.1959 61.1063 35.9429 61.1063 49.2C61.1063 62.4572 50.4355 73.2042 37.2724 73.2042C24.1092 73.2042 13.4384 62.4572 13.4384 49.2ZM60.3913 49.2C60.3913 36.3406 50.0406 25.916 37.2724 25.916C24.5041 25.916 14.1534 36.3406 14.1534 49.2C14.1534 62.0595 24.5041 72.4841 37.2724 72.4841C50.0406 72.4841 60.3913 62.0595 60.3913 49.2Z" fill="#0ABAB5"/>
<path d="M10.8787 27.7922C20.1835 18.4873 35.2697 18.4873 44.5745 27.7922C53.8794 37.097 53.8794 52.1832 44.5745 61.488C35.2697 70.7928 20.1835 70.7928 10.8787 61.488C1.57386 52.1831 1.57386 37.097 10.8787 27.7922ZM44.0691 60.9826C53.0948 51.9569 53.0948 37.3233 44.0691 28.2976C35.0434 19.2719 20.4098 19.2719 11.3841 28.2976C2.35844 37.3233 2.35844 51.9569 11.3841 60.9826C20.4098 70.0083 35.0434 70.0083 44.0691 60.9826Z" fill="#0ABAB5"/>
<path d="M24.5042 11.236C37.7613 11.236 48.5084 21.9068 48.5084 35.0699C48.5083 48.2331 37.7613 58.9039 24.5042 58.9039C11.247 58.9039 0.499998 48.233 0.5 35.0699C0.500002 21.9068 11.247 11.236 24.5042 11.236ZM24.5042 58.1888C37.3636 58.1889 47.7882 47.8382 47.7882 35.0699C47.7882 22.3017 37.3636 11.951 24.5042 11.951C11.6448 11.951 1.22013 22.3017 1.22012 35.0699C1.22012 47.8382 11.6447 58.1888 24.5042 58.1888Z" fill="#0ABAB5"/>
<path d="M45.5465 8.67628C54.8513 17.9811 54.8513 33.0673 45.5465 42.3721C36.2417 51.6769 21.1555 51.6769 11.8507 42.3721C2.54584 33.0672 2.54585 17.9811 11.8507 8.67628C21.1555 -0.628562 36.2417 -0.628558 45.5465 8.67628ZM12.3561 41.8667C21.3818 50.8923 36.0154 50.8924 45.0411 41.8667C54.0668 32.841 54.0668 18.2074 45.0411 9.18172C36.0154 0.156019 21.3818 0.156019 12.3561 9.18171C3.33043 18.2074 3.33042 32.841 12.3561 41.8667Z" fill="#0ABAB5"/>
<path d="M19.4185 45.965C18.4164 45.965 17.6095 45.6918 16.9978 45.1452C16.3862 44.5986 16.0803 43.7917 16.0803 42.7245C16.0803 42.2951 16.1129 41.8981 16.1779 41.5337C16.243 41.1694 16.3081 40.805 16.3732 40.4406C16.4512 40.0632 16.4903 39.6467 16.4903 39.1912C16.4903 38.7487 16.3471 38.3583 16.0608 38.0199C15.7875 37.6686 15.2865 37.4473 14.5577 37.3562V35.3456C15.2865 35.2545 15.7875 35.0462 16.0608 34.7209C16.3471 34.3825 16.4903 33.9791 16.4903 33.5106C16.4903 33.0681 16.4512 32.6647 16.3732 32.3003C16.3081 31.9228 16.243 31.5519 16.1779 31.1876C16.1129 30.8232 16.0803 30.4197 16.0803 29.9772C16.0803 28.9231 16.3862 28.1227 16.9978 27.5761C17.6095 27.0296 18.4164 26.7563 19.4185 26.7563H20.6483V28.8255H19.887C18.9499 28.8255 18.4814 29.2875 18.4814 30.2115C18.4814 30.719 18.54 31.2331 18.6571 31.7537C18.7873 32.2612 18.8523 32.8794 18.8523 33.6082C18.8523 34.2979 18.6832 34.8901 18.3448 35.3846C18.0064 35.8661 17.4663 36.185 16.7245 36.3411V36.3802C17.4663 36.5363 18.0064 36.8617 18.3448 37.3562C18.6832 37.8377 18.8523 38.4234 18.8523 39.1131C18.8523 39.8419 18.7873 40.4666 18.6571 40.9872C18.54 41.4947 18.4814 42.0023 18.4814 42.5098C18.4814 43.4338 18.9499 43.8958 19.887 43.8958H20.6483V45.965H19.4185ZM35.2929 42.5879V30.9338H31.3106V28.9231H41.7935V30.9338H37.7916V42.5879H35.2929ZM52.4735 45.965V43.8958H53.2153C54.1653 43.8958 54.6404 43.4338 54.6404 42.5098C54.6404 42.0023 54.5753 41.4947 54.4452 40.9872C54.315 40.4666 54.2499 39.8419 54.2499 39.1131C54.2499 38.4234 54.4191 37.8377 54.7575 37.3562C55.0959 36.8617 55.6424 36.5363 56.3973 36.3802V36.3411C55.6424 36.185 55.0959 35.8661 54.7575 35.3846C54.4191 34.8901 54.2499 34.2979 54.2499 33.6082C54.2499 32.8794 54.315 32.2612 54.4452 31.7537C54.5753 31.2331 54.6404 30.719 54.6404 30.2115C54.6404 29.2875 54.1653 28.8255 53.2153 28.8255H52.4735V26.7563H53.6838C54.6859 26.7563 55.4928 27.0296 56.1044 27.5761C56.7291 28.1227 57.0415 28.9231 57.0415 29.9772C57.0415 30.4197 57.0024 30.8232 56.9243 31.1876C56.8593 31.5519 56.7877 31.9228 56.7096 32.3003C56.6445 32.6647 56.612 33.0681 56.612 33.5106C56.612 33.9791 56.7552 34.3825 57.0415 34.7209C57.3278 35.0462 57.8353 35.2545 58.5641 35.3456V37.3562C57.8353 37.4473 57.3278 37.6686 57.0415 38.0199C56.7552 38.3583 56.612 38.7487 56.612 39.1912C56.612 39.6467 56.6445 40.0632 56.7096 40.4406C56.7877 40.805 56.8593 41.1694 56.9243 41.5337C57.0024 41.8981 57.0415 42.2951 57.0415 42.7245C57.0415 43.7917 56.7291 44.5986 56.1044 45.1452C55.4928 45.6918 54.6859 45.965 53.6838 45.965H52.4735ZM77.3527 42.5879V28.9231H86.2739V30.9338H79.8514V34.6818H85.6883V36.6339H79.8514V40.5772H86.2739V42.5879H77.3527ZM97.5846 42.5879V28.9231H100.552L104.905 37.5905L109.2 28.9231H112.167V42.5879H109.668V33.1592L105.862 40.6358H103.89L100.083 33.1592V42.5879H97.5846ZM123.764 42.5879V28.9231H128.82C129.913 28.9231 130.818 29.1053 131.534 29.4697C132.249 29.8341 132.783 30.3351 133.134 30.9728C133.486 31.6105 133.661 32.3263 133.661 33.1201C133.661 33.875 133.492 34.5712 133.154 35.2089C132.816 35.8336 132.288 36.3411 131.573 36.7316C130.857 37.109 129.939 37.2977 128.82 37.2977H126.263V42.5879H123.764ZM126.263 35.2675H128.664C129.536 35.2675 130.161 35.0788 130.538 34.7014C130.928 34.3109 131.124 33.7839 131.124 33.1201C131.124 32.4434 130.928 31.9163 130.538 31.5389C130.161 31.1485 129.536 30.9533 128.664 30.9533H126.263V35.2675ZM150.971 42.8221C149.604 42.8221 148.407 42.5228 147.379 41.9242C146.364 41.3255 145.564 40.4991 144.978 39.445C144.405 38.3778 144.119 37.148 144.119 35.7555C144.119 34.363 144.405 33.1397 144.978 32.0855C145.564 31.0184 146.364 30.1855 147.379 29.5868C148.407 28.9882 149.604 28.6888 150.971 28.6888C152.324 28.6888 153.515 28.9882 154.543 29.5868C155.571 30.1855 156.372 31.0184 156.944 32.0855C157.517 33.1397 157.803 34.363 157.803 35.7555C157.803 37.148 157.517 38.3778 156.944 39.445C156.372 40.4991 155.571 41.3255 154.543 41.9242C153.515 42.5228 152.324 42.8221 150.971 42.8221ZM150.971 40.5772C152.272 40.5772 153.307 40.1477 154.075 39.2888C154.856 38.4299 155.246 37.2521 155.246 35.7555C155.246 34.2589 154.856 33.0811 154.075 32.2222C153.307 31.3632 152.272 30.9338 150.971 30.9338C149.669 30.9338 148.628 31.3632 147.847 32.2222C147.067 33.0811 146.676 34.2589 146.676 35.7555C146.676 37.2521 147.067 38.4299 147.847 39.2888C148.628 40.1477 149.669 40.5772 150.971 40.5772ZM168.956 42.5879V28.9231H173.973C175.066 28.9231 175.964 29.1118 176.666 29.4892C177.382 29.8536 177.916 30.3547 178.267 30.9923C178.619 31.617 178.794 32.3133 178.794 33.0811C178.794 33.914 178.573 34.6753 178.131 35.3651C177.701 36.0548 177.024 36.5559 176.1 36.8682L178.931 42.5879H176.061L173.524 37.2001H171.454V42.5879H168.956ZM171.454 35.3651H173.816C174.649 35.3651 175.261 35.1634 175.651 34.7599C176.042 34.3565 176.237 33.8229 176.237 33.1592C176.237 32.5085 176.042 31.9879 175.651 31.5975C175.274 31.2071 174.656 31.0119 173.797 31.0119H171.454V35.3651ZM189.186 42.5879L194.183 28.9231H196.994L201.992 42.5879H199.337L198.244 39.4255H192.914L191.802 42.5879H189.186ZM193.598 37.4734H197.56L195.569 31.7927L193.598 37.4734ZM212.698 42.5879V28.9231H215.197V40.6358H221.248V42.5879H212.698Z" fill="white"/>
</svg>
