<svg width="597" height="382" viewBox="0 0 597 382" fill="none" xmlns="http://www.w3.org/2000/svg">
<g filter="url(#filter0_bi_364_2264)">
<rect x="1" y="1" width="595" height="380" fill="url(#paint0_radial_364_2264)" fill-opacity="0.35"/>
<rect x="0.698946" y="0.698946" width="595.602" height="380.602" stroke="url(#paint1_linear_364_2264)" stroke-width="0.602107"/>
<path fill-rule="evenodd" clip-rule="evenodd" d="M66 49C66 48.7239 65.7761 48.5 65.5 48.5C65.2239 48.5 65 48.7239 65 49V246V247H66H529H529.5V246H529H66V49Z" fill="white"/>
<path d="M40.072 157.589C41.788 157.589 42.688 158.717 42.688 160.469V163.001H46V164.033H37.456V160.469C37.456 158.717 38.344 157.589 40.072 157.589ZM40.072 158.621C38.86 158.621 38.248 159.317 38.248 160.601V163.001H41.896V160.601C41.896 159.317 41.272 158.621 40.072 158.621ZM46 154.163V155.159H39.808V154.211H41.272C40.192 153.875 39.748 153.311 39.748 152.387C39.748 152.219 39.772 152.003 39.808 151.823H40.672L40.648 152.423C40.648 153.479 41.488 154.163 43.012 154.163H46ZM46 148.555V149.551H39.808V148.555H46ZM38.572 149.059C38.572 149.455 38.332 149.671 38.02 149.671C37.708 149.671 37.468 149.455 37.468 149.059C37.468 148.663 37.708 148.435 38.02 148.435C38.332 148.435 38.572 148.663 38.572 149.059ZM46.12 143.226C46.12 145.062 44.896 146.118 42.904 146.118C40.924 146.118 39.688 145.062 39.688 143.226C39.688 141.33 40.924 140.526 42.016 140.526V141.426C41.2 141.546 40.456 142.05 40.456 143.226C40.456 144.402 41.284 145.122 42.904 145.122C44.524 145.122 45.352 144.402 45.352 143.226C45.352 142.194 44.788 141.57 43.744 141.426V140.526C44.956 140.526 46.12 141.402 46.12 143.226ZM46.12 135.485C46.12 137.393 44.896 138.449 42.904 138.449C40.996 138.449 39.688 137.465 39.688 135.557C39.688 133.637 41.032 132.653 42.76 132.653C42.856 132.653 42.964 132.653 43.06 132.677V137.453C44.74 137.429 45.424 136.637 45.424 135.485C45.424 134.489 44.896 133.889 44.116 133.673V132.785C45.352 133.073 46.12 133.925 46.12 135.485ZM40.384 135.557C40.384 136.625 41.044 137.321 42.388 137.453V133.649C41.044 133.781 40.384 134.489 40.384 135.557Z" fill="white"/>
<path d="M258.924 274H257.928V266.428L254.832 274H253.932L250.836 266.428V274H249.84V265.456H251.448L254.388 272.5L257.316 265.456H258.924V274ZM263.624 274.12C262.22 274.12 261.428 273.4 261.428 272.248C261.428 271.336 262.004 270.628 263.516 270.496L264.656 270.4C265.496 270.328 265.736 270.148 265.736 269.692C265.736 268.9 265.292 268.408 264.26 268.408C263.3 268.408 262.796 268.816 262.724 269.692H261.764C261.764 268.468 262.52 267.688 264.248 267.688C265.976 267.688 266.732 268.468 266.732 269.692V272.416C266.732 273.256 266.804 273.796 266.924 274H266.048C265.856 273.736 265.784 273.484 265.784 272.824C265.448 273.688 264.716 274.12 263.624 274.12ZM263.888 273.424C265.112 273.424 265.736 272.452 265.736 271.3V270.688C265.592 270.88 265.208 271 264.656 271.048L263.804 271.12C262.82 271.192 262.424 271.612 262.424 272.188C262.424 272.896 262.856 273.424 263.888 273.424ZM271.462 274.06C270.274 274.06 269.83 273.712 269.83 272.56V268.528H268.774V267.808H269.83V265.936H270.826V267.808H272.314V268.528H270.826V272.584C270.826 273.184 271.03 273.328 271.666 273.328L272.314 273.304V274C272.074 274.024 271.678 274.06 271.462 274.06ZM276.739 274.12C275.323 274.12 274.663 273.4 274.663 271.9V267.808H275.659V271.744C275.659 272.776 276.031 273.316 277.027 273.316C278.059 273.316 278.731 272.512 278.731 271.264V267.808H279.727V274H278.779V272.86C278.431 273.628 277.795 274.12 276.739 274.12ZM283.399 274H282.403V267.808H283.351V269.272C283.687 268.192 284.251 267.748 285.175 267.748C285.343 267.748 285.559 267.772 285.739 267.808V268.672L285.139 268.648C284.083 268.648 283.399 269.488 283.399 271.012V274ZM289.006 274H288.01V267.808H289.006V274ZM288.502 266.572C288.106 266.572 287.89 266.332 287.89 266.02C287.89 265.708 288.106 265.468 288.502 265.468C288.898 265.468 289.126 265.708 289.126 266.02C289.126 266.332 288.898 266.572 288.502 266.572ZM293.855 274.06C292.667 274.06 292.223 273.712 292.223 272.56V268.528H291.167V267.808H292.223V265.936H293.219V267.808H294.707V268.528H293.219V272.584C293.219 273.184 293.423 273.328 294.059 273.328L294.707 273.304V274C294.467 274.024 294.071 274.06 293.855 274.06ZM297.14 276.352V275.632H297.62C298.34 275.632 298.784 275.236 299.132 274.336L296.576 267.808H297.608L299.576 273.172L301.568 267.808H302.6L300.068 274.216C299.408 275.872 298.784 276.352 297.62 276.352H297.14ZM309.076 270.484C309.076 268.528 309.496 266.572 310.696 264.616H311.452C310.384 266.572 309.988 268.528 309.988 270.484C309.988 272.44 310.384 274.396 311.452 276.352H310.696C309.496 274.396 309.076 272.44 309.076 270.484ZM320.928 269.728C320.928 272.38 319.62 274 316.872 274H313.644V265.456H316.872C319.62 265.456 320.928 267.088 320.928 269.728ZM319.896 269.728C319.896 267.46 318.9 266.284 316.908 266.284H314.676V273.172H316.908C318.9 273.172 319.896 271.996 319.896 269.728ZM325.319 274.12C323.915 274.12 323.123 273.4 323.123 272.248C323.123 271.336 323.699 270.628 325.211 270.496L326.351 270.4C327.191 270.328 327.431 270.148 327.431 269.692C327.431 268.9 326.987 268.408 325.955 268.408C324.995 268.408 324.491 268.816 324.419 269.692H323.459C323.459 268.468 324.215 267.688 325.943 267.688C327.671 267.688 328.427 268.468 328.427 269.692V272.416C328.427 273.256 328.499 273.796 328.619 274H327.743C327.551 273.736 327.479 273.484 327.479 272.824C327.143 273.688 326.411 274.12 325.319 274.12ZM325.583 273.424C326.807 273.424 327.431 272.452 327.431 271.3V270.688C327.287 270.88 326.903 271 326.351 271.048L325.499 271.12C324.515 271.192 324.119 271.612 324.119 272.188C324.119 272.896 324.551 273.424 325.583 273.424ZM330.894 276.352V275.632H331.374C332.094 275.632 332.538 275.236 332.886 274.336L330.33 267.808H331.362L333.33 273.172L335.322 267.808H336.354L333.822 274.216C333.162 275.872 332.538 276.352 331.374 276.352H330.894ZM340.526 274.12C338.642 274.12 337.97 273.268 337.97 272.116H338.918C338.978 272.884 339.29 273.436 340.538 273.436C341.774 273.436 342.098 272.884 342.098 272.284C342.098 271.72 341.714 271.444 341.078 271.348L339.866 271.168C338.702 271 338.138 270.568 338.138 269.572C338.138 268.54 338.726 267.688 340.526 267.688C342.338 267.688 342.926 268.54 342.926 269.596H341.978C341.918 268.96 341.726 268.372 340.526 268.372C339.506 268.372 339.134 268.792 339.134 269.5C339.134 270.1 339.47 270.292 339.998 270.364L341.222 270.544C342.374 270.712 343.094 271.156 343.094 272.236C343.094 273.268 342.422 274.12 340.526 274.12ZM347.352 270.484C347.352 272.44 346.932 274.396 345.732 276.352H344.964C346.044 274.396 346.44 272.44 346.44 270.484C346.44 268.528 346.044 266.572 344.964 264.616H345.732C346.932 266.572 347.352 268.528 347.352 270.484Z" fill="white"/>
<mask id="path-6-inside-1_364_2264" fill="white">
<path d="M1 1H596V35H1V1Z"/>
</mask>
<path d="M596 34H1V36H596V34Z" fill="#036B68" mask="url(#path-6-inside-1_364_2264)"/>
<path d="M26.708 17.8C26.708 16.976 26.888 16.24 27.248 15.592C27.608 14.936 28.1 14.428 28.724 14.068C29.348 13.7 30.044 13.516 30.812 13.516C31.748 13.516 32.548 13.74 33.212 14.188C33.884 14.628 34.372 15.252 34.676 16.06H33.692C33.452 15.492 33.084 15.048 32.588 14.728C32.1 14.408 31.508 14.248 30.812 14.248C30.196 14.248 29.64 14.392 29.144 14.68C28.656 14.968 28.272 15.384 27.992 15.928C27.712 16.464 27.572 17.088 27.572 17.8C27.572 18.512 27.712 19.136 27.992 19.672C28.272 20.208 28.656 20.62 29.144 20.908C29.64 21.196 30.196 21.34 30.812 21.34C31.508 21.34 32.1 21.184 32.588 20.872C33.084 20.552 33.452 20.112 33.692 19.552H34.676C34.372 20.352 33.884 20.972 33.212 21.412C32.54 21.852 31.74 22.072 30.812 22.072C30.044 22.072 29.348 21.892 28.724 21.532C28.1 21.164 27.608 20.656 27.248 20.008C26.888 19.36 26.708 18.624 26.708 17.8ZM40.6178 22.096C40.0018 22.096 39.4458 21.96 38.9498 21.688C38.4618 21.408 38.0738 21.016 37.7858 20.512C37.5058 20 37.3658 19.404 37.3658 18.724C37.3658 18.044 37.5098 17.452 37.7978 16.948C38.0858 16.436 38.4778 16.044 38.9738 15.772C39.4698 15.492 40.0258 15.352 40.6418 15.352C41.2578 15.352 41.8138 15.492 42.3098 15.772C42.8138 16.044 43.2058 16.436 43.4858 16.948C43.7738 17.452 43.9178 18.044 43.9178 18.724C43.9178 19.396 43.7738 19.988 43.4858 20.5C43.1978 21.012 42.8018 21.408 42.2978 21.688C41.7938 21.96 41.2338 22.096 40.6178 22.096ZM40.6178 21.364C41.0498 21.364 41.4498 21.268 41.8178 21.076C42.1858 20.876 42.4818 20.58 42.7058 20.188C42.9378 19.788 43.0538 19.3 43.0538 18.724C43.0538 18.148 42.9418 17.664 42.7178 17.272C42.4938 16.872 42.1978 16.576 41.8298 16.384C41.4618 16.184 41.0618 16.084 40.6298 16.084C40.1978 16.084 39.7978 16.184 39.4298 16.384C39.0618 16.576 38.7658 16.872 38.5418 17.272C38.3258 17.664 38.2178 18.148 38.2178 18.724C38.2178 19.3 38.3258 19.788 38.5418 20.188C38.7658 20.58 39.0578 20.876 39.4178 21.076C39.7858 21.268 40.1858 21.364 40.6178 21.364ZM49.9211 15.328C50.7051 15.328 51.3451 15.572 51.8411 16.06C52.3371 16.54 52.5851 17.24 52.5851 18.16V22H51.7571V18.256C51.7571 17.544 51.5771 17 51.2171 16.624C50.8651 16.248 50.3811 16.06 49.7651 16.06C49.1331 16.06 48.6291 16.26 48.2531 16.66C47.8771 17.06 47.6891 17.648 47.6891 18.424V22H46.8491V15.448H47.6891V16.564C47.8971 16.164 48.1971 15.86 48.5891 15.652C48.9811 15.436 49.4251 15.328 49.9211 15.328ZM56.9348 16.156V20.224C56.9348 20.624 57.0108 20.9 57.1628 21.052C57.3148 21.204 57.5828 21.28 57.9668 21.28H58.7348V22H57.8348C57.2428 22 56.8028 21.864 56.5148 21.592C56.2268 21.312 56.0828 20.856 56.0828 20.224V16.156H55.1708V15.448H56.0828V13.804H56.9348V15.448H58.7348V16.156H56.9348ZM61.9402 14.212C61.7722 14.212 61.6282 14.152 61.5082 14.032C61.3882 13.912 61.3282 13.764 61.3282 13.588C61.3282 13.412 61.3882 13.268 61.5082 13.156C61.6282 13.036 61.7722 12.976 61.9402 12.976C62.1082 12.976 62.2522 13.036 62.3722 13.156C62.4922 13.268 62.5522 13.412 62.5522 13.588C62.5522 13.764 62.4922 13.912 62.3722 14.032C62.2522 14.152 62.1082 14.212 61.9402 14.212ZM62.3602 15.448V22H61.5202V15.448H62.3602ZM68.7343 15.328C69.5183 15.328 70.1583 15.572 70.6543 16.06C71.1503 16.54 71.3983 17.24 71.3983 18.16V22H70.5703V18.256C70.5703 17.544 70.3903 17 70.0303 16.624C69.6783 16.248 69.1943 16.06 68.5783 16.06C67.9463 16.06 67.4423 16.26 67.0663 16.66C66.6903 17.06 66.5023 17.648 66.5023 18.424V22H65.6623V15.448H66.5023V16.564C66.7103 16.164 67.0103 15.86 67.4023 15.652C67.7943 15.436 68.2383 15.328 68.7343 15.328ZM80.3321 15.448V22H79.4921V20.848C79.3001 21.256 79.0041 21.568 78.6041 21.784C78.2041 22 77.7561 22.108 77.2601 22.108C76.4761 22.108 75.8361 21.868 75.3401 21.388C74.8441 20.9 74.5961 20.196 74.5961 19.276V15.448H75.4241V19.18C75.4241 19.892 75.6001 20.436 75.9521 20.812C76.3121 21.188 76.8001 21.376 77.4161 21.376C78.0481 21.376 78.5521 21.176 78.9281 20.776C79.3041 20.376 79.4921 19.788 79.4921 19.012V15.448H80.3321ZM86.5178 22.096C85.9018 22.096 85.3458 21.96 84.8498 21.688C84.3618 21.408 83.9738 21.016 83.6858 20.512C83.4058 20 83.2658 19.404 83.2658 18.724C83.2658 18.044 83.4098 17.452 83.6978 16.948C83.9858 16.436 84.3778 16.044 84.8738 15.772C85.3698 15.492 85.9258 15.352 86.5418 15.352C87.1578 15.352 87.7138 15.492 88.2098 15.772C88.7138 16.044 89.1058 16.436 89.3858 16.948C89.6738 17.452 89.8178 18.044 89.8178 18.724C89.8178 19.396 89.6738 19.988 89.3858 20.5C89.0978 21.012 88.7018 21.408 88.1978 21.688C87.6938 21.96 87.1338 22.096 86.5178 22.096ZM86.5178 21.364C86.9498 21.364 87.3498 21.268 87.7178 21.076C88.0858 20.876 88.3818 20.58 88.6058 20.188C88.8378 19.788 88.9538 19.3 88.9538 18.724C88.9538 18.148 88.8418 17.664 88.6178 17.272C88.3938 16.872 88.0978 16.576 87.7298 16.384C87.3618 16.184 86.9618 16.084 86.5298 16.084C86.0978 16.084 85.6978 16.184 85.3298 16.384C84.9618 16.576 84.6658 16.872 84.4418 17.272C84.2258 17.664 84.1178 18.148 84.1178 18.724C84.1178 19.3 84.2258 19.788 84.4418 20.188C84.6658 20.58 84.9578 20.876 85.3178 21.076C85.6858 21.268 86.0858 21.364 86.5178 21.364ZM98.4251 15.448V22H97.5851V20.848C97.3931 21.256 97.0971 21.568 96.6971 21.784C96.2971 22 95.8491 22.108 95.3531 22.108C94.5691 22.108 93.9291 21.868 93.4331 21.388C92.9371 20.9 92.6891 20.196 92.6891 19.276V15.448H93.5171V19.18C93.5171 19.892 93.6931 20.436 94.0451 20.812C94.4051 21.188 94.8931 21.376 95.5091 21.376C96.1411 21.376 96.6451 21.176 97.0211 20.776C97.3971 20.376 97.5851 19.788 97.5851 19.012V15.448H98.4251ZM103.999 22.096C103.247 22.096 102.631 21.924 102.151 21.58C101.679 21.228 101.415 20.752 101.359 20.152H102.223C102.263 20.52 102.435 20.82 102.739 21.052C103.051 21.276 103.467 21.388 103.987 21.388C104.443 21.388 104.799 21.28 105.055 21.064C105.319 20.848 105.451 20.58 105.451 20.26C105.451 20.036 105.379 19.852 105.235 19.708C105.091 19.564 104.907 19.452 104.683 19.372C104.467 19.284 104.171 19.192 103.795 19.096C103.307 18.968 102.911 18.84 102.607 18.712C102.303 18.584 102.043 18.396 101.827 18.148C101.619 17.892 101.515 17.552 101.515 17.128C101.515 16.808 101.611 16.512 101.803 16.24C101.995 15.968 102.267 15.752 102.619 15.592C102.971 15.432 103.371 15.352 103.819 15.352C104.523 15.352 105.091 15.532 105.523 15.892C105.955 16.244 106.187 16.732 106.219 17.356H105.379C105.355 16.972 105.203 16.664 104.923 16.432C104.651 16.192 104.275 16.072 103.795 16.072C103.371 16.072 103.027 16.172 102.763 16.372C102.499 16.572 102.367 16.82 102.367 17.116C102.367 17.372 102.443 17.584 102.595 17.752C102.755 17.912 102.951 18.04 103.183 18.136C103.415 18.224 103.727 18.324 104.119 18.436C104.591 18.564 104.967 18.688 105.247 18.808C105.527 18.928 105.767 19.104 105.967 19.336C106.167 19.568 106.271 19.876 106.279 20.26C106.279 20.612 106.183 20.928 105.991 21.208C105.799 21.48 105.531 21.696 105.187 21.856C104.843 22.016 104.447 22.096 103.999 22.096ZM122.149 13.72V22H121.309V15.388L118.357 22H117.745L114.793 15.412V22H113.953V13.72H114.841L118.045 20.896L121.249 13.72H122.149ZM125.071 18.712C125.071 18.04 125.203 17.452 125.467 16.948C125.739 16.436 126.111 16.044 126.583 15.772C127.063 15.492 127.603 15.352 128.203 15.352C128.827 15.352 129.363 15.496 129.811 15.784C130.267 16.072 130.595 16.44 130.795 16.888V15.448H131.635V22H130.795V20.548C130.587 20.996 130.255 21.368 129.799 21.664C129.351 21.952 128.815 22.096 128.191 22.096C127.599 22.096 127.063 21.956 126.583 21.676C126.111 21.396 125.739 21 125.467 20.488C125.203 19.976 125.071 19.384 125.071 18.712ZM130.795 18.724C130.795 18.196 130.687 17.732 130.471 17.332C130.255 16.932 129.959 16.624 129.583 16.408C129.215 16.192 128.807 16.084 128.359 16.084C127.895 16.084 127.479 16.188 127.111 16.396C126.743 16.604 126.451 16.908 126.235 17.308C126.027 17.7 125.923 18.168 125.923 18.712C125.923 19.248 126.027 19.72 126.235 20.128C126.451 20.528 126.743 20.836 127.111 21.052C127.479 21.26 127.895 21.364 128.359 21.364C128.807 21.364 129.215 21.256 129.583 21.04C129.959 20.824 130.255 20.516 130.471 20.116C130.687 19.716 130.795 19.252 130.795 18.724ZM135.792 16.612C135.976 16.204 136.256 15.888 136.632 15.664C137.016 15.44 137.484 15.328 138.036 15.328V16.204H137.808C137.2 16.204 136.712 16.368 136.344 16.696C135.976 17.024 135.792 17.572 135.792 18.34V22H134.952V15.448H135.792V16.612ZM144.24 22L141.54 19.06V22H140.7V13.12H141.54V18.376L144.18 15.448H145.356L142.248 18.712L145.38 22H144.24ZM153.793 18.388C153.793 18.676 153.785 18.896 153.769 19.048H148.333C148.357 19.544 148.477 19.968 148.693 20.32C148.909 20.672 149.193 20.94 149.545 21.124C149.897 21.3 150.281 21.388 150.697 21.388C151.241 21.388 151.697 21.256 152.065 20.992C152.441 20.728 152.689 20.372 152.809 19.924H153.697C153.537 20.564 153.193 21.088 152.665 21.496C152.145 21.896 151.489 22.096 150.697 22.096C150.081 22.096 149.529 21.96 149.041 21.688C148.553 21.408 148.169 21.016 147.889 20.512C147.617 20 147.481 19.404 147.481 18.724C147.481 18.044 147.617 17.448 147.889 16.936C148.161 16.424 148.541 16.032 149.029 15.76C149.517 15.488 150.073 15.352 150.697 15.352C151.321 15.352 151.865 15.488 152.329 15.76C152.801 16.032 153.161 16.4 153.409 16.864C153.665 17.32 153.793 17.828 153.793 18.388ZM152.941 18.364C152.949 17.876 152.849 17.46 152.641 17.116C152.441 16.772 152.165 16.512 151.813 16.336C151.461 16.16 151.077 16.072 150.661 16.072C150.037 16.072 149.505 16.272 149.065 16.672C148.625 17.072 148.381 17.636 148.333 18.364H152.941ZM157.822 16.156V20.224C157.822 20.624 157.898 20.9 158.05 21.052C158.202 21.204 158.47 21.28 158.854 21.28H159.622V22H158.722C158.13 22 157.69 21.864 157.402 21.592C157.114 21.312 156.97 20.856 156.97 20.224V16.156H156.058V15.448H156.97V13.804H157.822V15.448H159.622V16.156H157.822ZM166.476 17.2V17.908H161.808V17.2H166.476ZM172.514 13.612C173.442 13.612 174.238 13.78 174.902 14.116C175.566 14.452 176.074 14.936 176.426 15.568C176.778 16.2 176.954 16.952 176.954 17.824C176.954 18.688 176.778 19.436 176.426 20.068C176.074 20.692 175.566 21.172 174.902 21.508C174.238 21.836 173.442 22 172.514 22H170.03V13.612H172.514ZM172.514 21.304C173.682 21.304 174.57 21 175.178 20.392C175.794 19.776 176.102 18.92 176.102 17.824C176.102 16.72 175.794 15.86 175.178 15.244C174.57 14.62 173.682 14.308 172.514 14.308H170.87V21.304H172.514ZM185.831 18.388C185.831 18.676 185.823 18.896 185.807 19.048H180.371C180.395 19.544 180.515 19.968 180.731 20.32C180.947 20.672 181.231 20.94 181.583 21.124C181.935 21.3 182.319 21.388 182.735 21.388C183.279 21.388 183.735 21.256 184.103 20.992C184.479 20.728 184.727 20.372 184.847 19.924H185.735C185.575 20.564 185.231 21.088 184.703 21.496C184.183 21.896 183.527 22.096 182.735 22.096C182.119 22.096 181.567 21.96 181.079 21.688C180.591 21.408 180.207 21.016 179.927 20.512C179.655 20 179.519 19.404 179.519 18.724C179.519 18.044 179.655 17.448 179.927 16.936C180.199 16.424 180.579 16.032 181.067 15.76C181.555 15.488 182.111 15.352 182.735 15.352C183.359 15.352 183.903 15.488 184.367 15.76C184.839 16.032 185.199 16.4 185.447 16.864C185.703 17.32 185.831 17.828 185.831 18.388ZM184.979 18.364C184.987 17.876 184.887 17.46 184.679 17.116C184.479 16.772 184.203 16.512 183.851 16.336C183.499 16.16 183.115 16.072 182.699 16.072C182.075 16.072 181.543 16.272 181.103 16.672C180.663 17.072 180.419 17.636 180.371 18.364H184.979ZM189.86 16.156V20.224C189.86 20.624 189.936 20.9 190.088 21.052C190.24 21.204 190.508 21.28 190.892 21.28H191.66V22H190.76C190.168 22 189.728 21.864 189.44 21.592C189.152 21.312 189.008 20.856 189.008 20.224V16.156H188.096V15.448H189.008V13.804H189.86V15.448H191.66V16.156H189.86ZM200.373 18.388C200.373 18.676 200.365 18.896 200.349 19.048H194.913C194.937 19.544 195.057 19.968 195.273 20.32C195.489 20.672 195.773 20.94 196.125 21.124C196.477 21.3 196.861 21.388 197.277 21.388C197.821 21.388 198.277 21.256 198.645 20.992C199.021 20.728 199.269 20.372 199.389 19.924H200.277C200.117 20.564 199.773 21.088 199.245 21.496C198.725 21.896 198.069 22.096 197.277 22.096C196.661 22.096 196.109 21.96 195.621 21.688C195.133 21.408 194.749 21.016 194.469 20.512C194.197 20 194.061 19.404 194.061 18.724C194.061 18.044 194.197 17.448 194.469 16.936C194.741 16.424 195.121 16.032 195.609 15.76C196.097 15.488 196.653 15.352 197.277 15.352C197.901 15.352 198.445 15.488 198.909 15.76C199.381 16.032 199.741 16.4 199.989 16.864C200.245 17.32 200.373 17.828 200.373 18.388ZM199.521 18.364C199.529 17.876 199.429 17.46 199.221 17.116C199.021 16.772 198.745 16.512 198.393 16.336C198.041 16.16 197.657 16.072 197.241 16.072C196.617 16.072 196.085 16.272 195.645 16.672C195.205 17.072 194.961 17.636 194.913 18.364H199.521ZM204.15 16.612C204.334 16.204 204.614 15.888 204.99 15.664C205.374 15.44 205.842 15.328 206.394 15.328V16.204H206.166C205.558 16.204 205.07 16.368 204.702 16.696C204.334 17.024 204.15 17.572 204.15 18.34V22H203.31V15.448H204.15V16.612ZM216.858 15.328C217.626 15.328 218.25 15.572 218.73 16.06C219.218 16.54 219.462 17.24 219.462 18.16V22H218.634V18.256C218.634 17.544 218.462 17 218.118 16.624C217.774 16.248 217.306 16.06 216.714 16.06C216.098 16.06 215.606 16.264 215.238 16.672C214.87 17.08 214.686 17.672 214.686 18.448V22H213.858V18.256C213.858 17.544 213.686 17 213.342 16.624C212.998 16.248 212.526 16.06 211.926 16.06C211.31 16.06 210.818 16.264 210.45 16.672C210.082 17.08 209.898 17.672 209.898 18.448V22H209.058V15.448H209.898V16.576C210.106 16.168 210.402 15.86 210.786 15.652C211.17 15.436 211.598 15.328 212.07 15.328C212.638 15.328 213.134 15.464 213.558 15.736C213.99 16.008 214.302 16.408 214.494 16.936C214.67 16.416 214.97 16.02 215.394 15.748C215.826 15.468 216.314 15.328 216.858 15.328ZM223.147 14.212C222.979 14.212 222.835 14.152 222.715 14.032C222.595 13.912 222.535 13.764 222.535 13.588C222.535 13.412 222.595 13.268 222.715 13.156C222.835 13.036 222.979 12.976 223.147 12.976C223.315 12.976 223.459 13.036 223.579 13.156C223.699 13.268 223.759 13.412 223.759 13.588C223.759 13.764 223.699 13.912 223.579 14.032C223.459 14.152 223.315 14.212 223.147 14.212ZM223.567 15.448V22H222.727V15.448H223.567ZM229.941 15.328C230.725 15.328 231.365 15.572 231.861 16.06C232.357 16.54 232.605 17.24 232.605 18.16V22H231.777V18.256C231.777 17.544 231.597 17 231.237 16.624C230.885 16.248 230.401 16.06 229.785 16.06C229.153 16.06 228.649 16.26 228.273 16.66C227.897 17.06 227.709 17.648 227.709 18.424V22H226.869V15.448H227.709V16.564C227.917 16.164 228.217 15.86 228.609 15.652C229.001 15.436 229.445 15.328 229.941 15.328ZM241.791 18.388C241.791 18.676 241.783 18.896 241.767 19.048H236.331C236.355 19.544 236.475 19.968 236.691 20.32C236.907 20.672 237.191 20.94 237.543 21.124C237.895 21.3 238.279 21.388 238.695 21.388C239.239 21.388 239.695 21.256 240.063 20.992C240.439 20.728 240.687 20.372 240.807 19.924H241.695C241.535 20.564 241.191 21.088 240.663 21.496C240.143 21.896 239.487 22.096 238.695 22.096C238.079 22.096 237.527 21.96 237.039 21.688C236.551 21.408 236.167 21.016 235.887 20.512C235.615 20 235.479 19.404 235.479 18.724C235.479 18.044 235.615 17.448 235.887 16.936C236.159 16.424 236.539 16.032 237.027 15.76C237.515 15.488 238.071 15.352 238.695 15.352C239.319 15.352 239.863 15.488 240.327 15.76C240.799 16.032 241.159 16.4 241.407 16.864C241.663 17.32 241.791 17.828 241.791 18.388ZM240.939 18.364C240.947 17.876 240.847 17.46 240.639 17.116C240.439 16.772 240.163 16.512 239.811 16.336C239.459 16.16 239.075 16.072 238.659 16.072C238.035 16.072 237.503 16.272 237.063 16.672C236.623 17.072 236.379 17.636 236.331 18.364H240.939ZM244.344 18.712C244.344 18.04 244.48 17.452 244.752 16.948C245.024 16.436 245.396 16.044 245.868 15.772C246.348 15.492 246.888 15.352 247.488 15.352C248.064 15.352 248.584 15.492 249.048 15.772C249.512 16.052 249.852 16.416 250.068 16.864V13.12H250.908V22H250.068V20.536C249.868 20.992 249.54 21.368 249.084 21.664C248.628 21.952 248.092 22.096 247.476 22.096C246.876 22.096 246.336 21.956 245.856 21.676C245.384 21.396 245.012 21 244.74 20.488C244.476 19.976 244.344 19.384 244.344 18.712ZM250.068 18.724C250.068 18.196 249.96 17.732 249.744 17.332C249.528 16.932 249.232 16.624 248.856 16.408C248.488 16.192 248.08 16.084 247.632 16.084C247.168 16.084 246.752 16.188 246.384 16.396C246.016 16.604 245.724 16.908 245.508 17.308C245.3 17.7 245.196 18.168 245.196 18.712C245.196 19.248 245.3 19.72 245.508 20.128C245.724 20.528 246.016 20.836 246.384 21.052C246.752 21.26 247.168 21.364 247.632 21.364C248.08 21.364 248.488 21.256 248.856 21.04C249.232 20.824 249.528 20.516 249.744 20.116C249.96 19.716 250.068 19.252 250.068 18.724ZM263.455 13.612V14.308H259.759V17.44H262.879V18.136H259.759V22H258.919V13.612H263.455ZM269.105 22.096C268.489 22.096 267.933 21.96 267.437 21.688C266.949 21.408 266.561 21.016 266.273 20.512C265.993 20 265.853 19.404 265.853 18.724C265.853 18.044 265.997 17.452 266.285 16.948C266.573 16.436 266.965 16.044 267.461 15.772C267.957 15.492 268.513 15.352 269.129 15.352C269.745 15.352 270.301 15.492 270.797 15.772C271.301 16.044 271.693 16.436 271.973 16.948C272.261 17.452 272.405 18.044 272.405 18.724C272.405 19.396 272.261 19.988 271.973 20.5C271.685 21.012 271.289 21.408 270.785 21.688C270.281 21.96 269.721 22.096 269.105 22.096ZM269.105 21.364C269.537 21.364 269.937 21.268 270.305 21.076C270.673 20.876 270.969 20.58 271.193 20.188C271.425 19.788 271.541 19.3 271.541 18.724C271.541 18.148 271.429 17.664 271.205 17.272C270.981 16.872 270.685 16.576 270.317 16.384C269.949 16.184 269.549 16.084 269.117 16.084C268.685 16.084 268.285 16.184 267.917 16.384C267.549 16.576 267.253 16.872 267.029 17.272C266.813 17.664 266.705 18.148 266.705 18.724C266.705 19.3 266.813 19.788 267.029 20.188C267.253 20.58 267.545 20.876 267.905 21.076C268.273 21.268 268.673 21.364 269.105 21.364ZM276.176 16.612C276.36 16.204 276.64 15.888 277.016 15.664C277.4 15.44 277.868 15.328 278.42 15.328V16.204H278.192C277.584 16.204 277.096 16.368 276.728 16.696C276.36 17.024 276.176 17.572 276.176 18.34V22H275.336V15.448H276.176V16.612ZM289.723 15.448L287.671 22H286.831L285.019 16.504L283.207 22H282.355L280.303 15.448H281.155L282.787 21.148L284.623 15.448H285.463L287.275 21.16L288.895 15.448H289.723ZM291.885 18.712C291.885 18.04 292.017 17.452 292.281 16.948C292.553 16.436 292.925 16.044 293.397 15.772C293.877 15.492 294.417 15.352 295.017 15.352C295.641 15.352 296.177 15.496 296.625 15.784C297.081 16.072 297.409 16.44 297.609 16.888V15.448H298.449V22H297.609V20.548C297.401 20.996 297.069 21.368 296.613 21.664C296.165 21.952 295.629 22.096 295.005 22.096C294.413 22.096 293.877 21.956 293.397 21.676C292.925 21.396 292.553 21 292.281 20.488C292.017 19.976 291.885 19.384 291.885 18.712ZM297.609 18.724C297.609 18.196 297.501 17.732 297.285 17.332C297.069 16.932 296.773 16.624 296.397 16.408C296.029 16.192 295.621 16.084 295.173 16.084C294.709 16.084 294.293 16.188 293.925 16.396C293.557 16.604 293.265 16.908 293.049 17.308C292.841 17.7 292.737 18.168 292.737 18.712C292.737 19.248 292.841 19.72 293.049 20.128C293.265 20.528 293.557 20.836 293.925 21.052C294.293 21.26 294.709 21.364 295.173 21.364C295.621 21.364 296.029 21.256 296.397 21.04C296.773 20.824 297.069 20.516 297.285 20.116C297.501 19.716 297.609 19.252 297.609 18.724ZM302.606 16.612C302.79 16.204 303.07 15.888 303.446 15.664C303.83 15.44 304.298 15.328 304.85 15.328V16.204H304.622C304.014 16.204 303.526 16.368 303.158 16.696C302.79 17.024 302.606 17.572 302.606 18.34V22H301.766V15.448H302.606V16.612ZM307.13 18.712C307.13 18.04 307.266 17.452 307.538 16.948C307.81 16.436 308.182 16.044 308.654 15.772C309.134 15.492 309.674 15.352 310.274 15.352C310.85 15.352 311.37 15.492 311.834 15.772C312.298 16.052 312.638 16.416 312.854 16.864V13.12H313.694V22H312.854V20.536C312.654 20.992 312.326 21.368 311.87 21.664C311.414 21.952 310.878 22.096 310.262 22.096C309.662 22.096 309.122 21.956 308.642 21.676C308.17 21.396 307.798 21 307.526 20.488C307.262 19.976 307.13 19.384 307.13 18.712ZM312.854 18.724C312.854 18.196 312.746 17.732 312.53 17.332C312.314 16.932 312.018 16.624 311.642 16.408C311.274 16.192 310.866 16.084 310.418 16.084C309.954 16.084 309.538 16.188 309.17 16.396C308.802 16.604 308.51 16.908 308.294 17.308C308.086 17.7 307.982 18.168 307.982 18.712C307.982 19.248 308.086 19.72 308.294 20.128C308.51 20.528 308.802 20.836 309.17 21.052C309.538 21.26 309.954 21.364 310.418 21.364C310.866 21.364 311.274 21.256 311.642 21.04C312.018 20.824 312.314 20.516 312.53 20.116C312.746 19.716 312.854 19.252 312.854 18.724ZM321.321 17.8C321.321 16.976 321.501 16.24 321.861 15.592C322.221 14.936 322.713 14.428 323.337 14.068C323.961 13.7 324.657 13.516 325.425 13.516C326.361 13.516 327.161 13.74 327.825 14.188C328.497 14.628 328.985 15.252 329.289 16.06H328.305C328.065 15.492 327.697 15.048 327.201 14.728C326.713 14.408 326.121 14.248 325.425 14.248C324.809 14.248 324.253 14.392 323.757 14.68C323.269 14.968 322.885 15.384 322.605 15.928C322.325 16.464 322.185 17.088 322.185 17.8C322.185 18.512 322.325 19.136 322.605 19.672C322.885 20.208 323.269 20.62 323.757 20.908C324.253 21.196 324.809 21.34 325.425 21.34C326.121 21.34 326.713 21.184 327.201 20.872C327.697 20.552 328.065 20.112 328.305 19.552H329.289C328.985 20.352 328.497 20.972 327.825 21.412C327.153 21.852 326.353 22.072 325.425 22.072C324.657 22.072 323.961 21.892 323.337 21.532C322.713 21.164 322.221 20.656 321.861 20.008C321.501 19.36 321.321 18.624 321.321 17.8ZM338.038 15.448V22H337.198V20.848C337.006 21.256 336.71 21.568 336.31 21.784C335.91 22 335.462 22.108 334.966 22.108C334.182 22.108 333.542 21.868 333.046 21.388C332.55 20.9 332.302 20.196 332.302 19.276V15.448H333.13V19.18C333.13 19.892 333.306 20.436 333.658 20.812C334.018 21.188 334.506 21.376 335.122 21.376C335.754 21.376 336.258 21.176 336.634 20.776C337.01 20.376 337.198 19.788 337.198 19.012V15.448H338.038ZM342.196 16.612C342.38 16.204 342.66 15.888 343.036 15.664C343.42 15.44 343.888 15.328 344.44 15.328V16.204H344.212C343.604 16.204 343.116 16.368 342.748 16.696C342.38 17.024 342.196 17.572 342.196 18.34V22H341.356V15.448H342.196V16.612ZM349.432 21.184L351.64 15.448H352.528L349.9 22H348.952L346.324 15.448H347.224L349.432 21.184ZM360.994 18.388C360.994 18.676 360.986 18.896 360.97 19.048H355.534C355.558 19.544 355.678 19.968 355.894 20.32C356.11 20.672 356.394 20.94 356.746 21.124C357.098 21.3 357.482 21.388 357.898 21.388C358.442 21.388 358.898 21.256 359.266 20.992C359.642 20.728 359.89 20.372 360.01 19.924H360.898C360.738 20.564 360.394 21.088 359.866 21.496C359.346 21.896 358.69 22.096 357.898 22.096C357.282 22.096 356.73 21.96 356.242 21.688C355.754 21.408 355.37 21.016 355.09 20.512C354.818 20 354.682 19.404 354.682 18.724C354.682 18.044 354.818 17.448 355.09 16.936C355.362 16.424 355.742 16.032 356.23 15.76C356.718 15.488 357.274 15.352 357.898 15.352C358.522 15.352 359.066 15.488 359.53 15.76C360.002 16.032 360.362 16.4 360.61 16.864C360.866 17.32 360.994 17.828 360.994 18.388ZM360.142 18.364C360.15 17.876 360.05 17.46 359.842 17.116C359.642 16.772 359.366 16.512 359.014 16.336C358.662 16.16 358.278 16.072 357.862 16.072C357.238 16.072 356.706 16.272 356.266 16.672C355.826 17.072 355.582 17.636 355.534 18.364H360.142ZM371.216 24.232C370.464 23.488 369.872 22.536 369.44 21.376C369.008 20.208 368.792 18.94 368.792 17.572C368.792 16.188 369.016 14.904 369.464 13.72C369.912 12.536 370.54 11.56 371.348 10.792H372.224V10.876C371.368 11.716 370.716 12.72 370.268 13.888C369.828 15.056 369.608 16.284 369.608 17.572C369.608 18.844 369.82 20.048 370.244 21.184C370.668 22.32 371.288 23.308 372.104 24.148V24.232H371.216ZM379.923 20.008H376.107L375.375 22H374.487L377.547 13.72H378.495L381.543 22H380.655L379.923 20.008ZM379.671 19.312L378.015 14.776L376.359 19.312H379.671ZM386.547 22.096C385.795 22.096 385.179 21.924 384.699 21.58C384.227 21.228 383.963 20.752 383.907 20.152H384.771C384.811 20.52 384.983 20.82 385.287 21.052C385.599 21.276 386.015 21.388 386.535 21.388C386.991 21.388 387.347 21.28 387.603 21.064C387.867 20.848 387.999 20.58 387.999 20.26C387.999 20.036 387.927 19.852 387.783 19.708C387.639 19.564 387.455 19.452 387.231 19.372C387.015 19.284 386.719 19.192 386.343 19.096C385.855 18.968 385.459 18.84 385.155 18.712C384.851 18.584 384.591 18.396 384.375 18.148C384.167 17.892 384.063 17.552 384.063 17.128C384.063 16.808 384.159 16.512 384.351 16.24C384.543 15.968 384.815 15.752 385.167 15.592C385.519 15.432 385.919 15.352 386.367 15.352C387.071 15.352 387.639 15.532 388.071 15.892C388.503 16.244 388.735 16.732 388.767 17.356H387.927C387.903 16.972 387.751 16.664 387.471 16.432C387.199 16.192 386.823 16.072 386.343 16.072C385.919 16.072 385.575 16.172 385.311 16.372C385.047 16.572 384.915 16.82 384.915 17.116C384.915 17.372 384.991 17.584 385.143 17.752C385.303 17.912 385.499 18.04 385.731 18.136C385.963 18.224 386.275 18.324 386.667 18.436C387.139 18.564 387.515 18.688 387.795 18.808C388.075 18.928 388.315 19.104 388.515 19.336C388.715 19.568 388.819 19.876 388.827 20.26C388.827 20.612 388.731 20.928 388.539 21.208C388.347 21.48 388.079 21.696 387.735 21.856C387.391 22.016 386.995 22.096 386.547 22.096ZM394.064 22.096C393.312 22.096 392.696 21.924 392.216 21.58C391.744 21.228 391.48 20.752 391.424 20.152H392.288C392.328 20.52 392.5 20.82 392.804 21.052C393.116 21.276 393.532 21.388 394.052 21.388C394.508 21.388 394.864 21.28 395.12 21.064C395.384 20.848 395.516 20.58 395.516 20.26C395.516 20.036 395.444 19.852 395.3 19.708C395.156 19.564 394.972 19.452 394.748 19.372C394.532 19.284 394.236 19.192 393.86 19.096C393.372 18.968 392.976 18.84 392.672 18.712C392.368 18.584 392.108 18.396 391.892 18.148C391.684 17.892 391.58 17.552 391.58 17.128C391.58 16.808 391.676 16.512 391.868 16.24C392.06 15.968 392.332 15.752 392.684 15.592C393.036 15.432 393.436 15.352 393.884 15.352C394.588 15.352 395.156 15.532 395.588 15.892C396.02 16.244 396.252 16.732 396.284 17.356H395.444C395.42 16.972 395.268 16.664 394.988 16.432C394.716 16.192 394.34 16.072 393.86 16.072C393.436 16.072 393.092 16.172 392.828 16.372C392.564 16.572 392.432 16.82 392.432 17.116C392.432 17.372 392.508 17.584 392.66 17.752C392.82 17.912 393.016 18.04 393.248 18.136C393.48 18.224 393.792 18.324 394.184 18.436C394.656 18.564 395.032 18.688 395.312 18.808C395.592 18.928 395.832 19.104 396.032 19.336C396.232 19.568 396.336 19.876 396.344 20.26C396.344 20.612 396.248 20.928 396.056 21.208C395.864 21.48 395.596 21.696 395.252 21.856C394.908 22.016 394.512 22.096 394.064 22.096ZM405.254 18.388C405.254 18.676 405.246 18.896 405.23 19.048H399.794C399.818 19.544 399.938 19.968 400.154 20.32C400.37 20.672 400.654 20.94 401.006 21.124C401.358 21.3 401.742 21.388 402.158 21.388C402.702 21.388 403.158 21.256 403.526 20.992C403.902 20.728 404.15 20.372 404.27 19.924H405.158C404.998 20.564 404.654 21.088 404.126 21.496C403.606 21.896 402.95 22.096 402.158 22.096C401.542 22.096 400.99 21.96 400.502 21.688C400.014 21.408 399.63 21.016 399.35 20.512C399.078 20 398.942 19.404 398.942 18.724C398.942 18.044 399.078 17.448 399.35 16.936C399.622 16.424 400.002 16.032 400.49 15.76C400.978 15.488 401.534 15.352 402.158 15.352C402.782 15.352 403.326 15.488 403.79 15.76C404.262 16.032 404.622 16.4 404.87 16.864C405.126 17.32 405.254 17.828 405.254 18.388ZM404.402 18.364C404.41 17.876 404.31 17.46 404.102 17.116C403.902 16.772 403.626 16.512 403.274 16.336C402.922 16.16 402.538 16.072 402.122 16.072C401.498 16.072 400.966 16.272 400.526 16.672C400.086 17.072 399.842 17.636 399.794 18.364H404.402ZM409.282 16.156V20.224C409.282 20.624 409.358 20.9 409.51 21.052C409.662 21.204 409.93 21.28 410.314 21.28H411.082V22H410.182C409.59 22 409.15 21.864 408.862 21.592C408.574 21.312 408.43 20.856 408.43 20.224V16.156H407.518V15.448H408.43V13.804H409.282V15.448H411.082V16.156H409.282ZM423.421 20.008H419.605L418.873 22H417.985L421.045 13.72H421.993L425.041 22H424.153L423.421 20.008ZM423.169 19.312L421.513 14.776L419.857 19.312H423.169ZM427.429 24.232V24.148C428.245 23.308 428.865 22.32 429.289 21.184C429.713 20.048 429.925 18.844 429.925 17.572C429.925 16.284 429.701 15.056 429.253 13.888C428.813 12.72 428.165 11.716 427.309 10.876V10.792H428.185C428.993 11.56 429.621 12.536 430.069 13.72C430.517 14.904 430.741 16.188 430.741 17.572C430.741 18.94 430.525 20.208 430.093 21.376C429.661 22.536 429.069 23.488 428.317 24.232H427.429Z" fill="white"/>
<path d="M65.4958 169L112.194 150.945C195.014 118.924 283.042 102.499 371.836 102.499L531 102.499" stroke="white"/>
<g clip-path="url(#clip0_364_2264)">
<path d="M47 288H551V347C551 354.542 551 358.314 548.657 360.657C546.314 363 542.542 363 535 363H63C55.4575 363 51.6863 363 49.3431 360.657C47 358.314 47 354.542 47 347V288Z" fill="url(#paint2_linear_364_2264)"/>
<path d="M47 352.5H46.5V353.5H47V352.5ZM57 353.5C57.2761 353.5 57.5 353.276 57.5 353C57.5 352.724 57.2761 352.5 57 352.5V353.5ZM47 353.5H57V352.5H47V353.5Z" fill="#CCCDCD"/>
<path d="M47 347.5H46.5V348.5H47V347.5ZM52 348.5C52.2761 348.5 52.5 348.276 52.5 348C52.5 347.724 52.2761 347.5 52 347.5V348.5ZM47 348.5H52V347.5H47V348.5Z" fill="#CCCDCD"/>
<path d="M47 332.5H46.5V333.5H47V332.5ZM52 333.5C52.2761 333.5 52.5 333.276 52.5 333C52.5 332.724 52.2761 332.5 52 332.5V333.5ZM47 333.5H52V332.5H47V333.5Z" fill="#CCCDCD"/>
<path d="M47 317.5H46.5V318.5H47V317.5ZM52 318.5C52.2761 318.5 52.5 318.276 52.5 318C52.5 317.724 52.2761 317.5 52 317.5V318.5ZM47 318.5H52V317.5H47V318.5Z" fill="#CCCDCD"/>
<path d="M47 302.5H46.5V303.5H47V302.5ZM52 303.5C52.2761 303.5 52.5 303.276 52.5 303C52.5 302.724 52.2761 302.5 52 302.5V303.5ZM47 303.5H52V302.5H47V303.5Z" fill="#CCCDCD"/>
<path d="M47 342.5H46.5V343.5H47V342.5ZM52 343.5C52.2761 343.5 52.5 343.276 52.5 343C52.5 342.724 52.2761 342.5 52 342.5V343.5ZM47 343.5H52V342.5H47V343.5Z" fill="#CCCDCD"/>
<path d="M47 327.5H46.5V328.5H47V327.5ZM52 328.5C52.2761 328.5 52.5 328.276 52.5 328C52.5 327.724 52.2761 327.5 52 327.5V328.5ZM47 328.5H52V327.5H47V328.5Z" fill="#CCCDCD"/>
<path d="M47 312.5H46.5V313.5H47V312.5ZM52 313.5C52.2761 313.5 52.5 313.276 52.5 313C52.5 312.724 52.2761 312.5 52 312.5V313.5ZM47 313.5H52V312.5H47V313.5Z" fill="#CCCDCD"/>
<path d="M47 297.5H46.5V298.5H47V297.5ZM52 298.5C52.2761 298.5 52.5 298.276 52.5 298C52.5 297.724 52.2761 297.5 52 297.5V298.5ZM47 298.5H52V297.5H47V298.5Z" fill="#CCCDCD"/>
<path d="M47 337.5H46.5V338.5H47V337.5ZM57 338.5C57.2761 338.5 57.5 338.276 57.5 338C57.5 337.724 57.2761 337.5 57 337.5V338.5ZM47 338.5H57V337.5H47V338.5Z" fill="#CCCDCD"/>
<path d="M47 322.5H46.5V323.5H47V322.5ZM57 323.5C57.2761 323.5 57.5 323.276 57.5 323C57.5 322.724 57.2761 322.5 57 322.5V323.5ZM47 323.5H57V322.5H47V323.5Z" fill="#CCCDCD"/>
<path d="M47 307.5H46.5V308.5H47V307.5ZM57 308.5C57.2761 308.5 57.5 308.276 57.5 308C57.5 307.724 57.2761 307.5 57 307.5V308.5ZM47 308.5H57V307.5H47V308.5Z" fill="#CCCDCD"/>
<path d="M47 292.5H46.5V293.5H47V292.5ZM57 293.5C57.2761 293.5 57.5 293.276 57.5 293C57.5 292.724 57.2761 292.5 57 292.5V293.5ZM47 293.5H57V292.5H47V293.5Z" fill="#CCCDCD"/>
</g>
<path d="M47 288H551H47ZM551.5 355C551.5 359.694 547.694 363.5 543 363.5H55C50.3056 363.5 46.5 359.694 46.5 355H47.5C47.5 359.142 50.8579 362.5 55 362.5H543C547.142 362.5 550.5 359.142 550.5 355H551.5ZM55 363.5C50.3056 363.5 46.5 359.694 46.5 355V288H47.5V355C47.5 359.142 50.8579 362.5 55 362.5V363.5ZM551.5 288V355C551.5 359.694 547.694 363.5 543 363.5V362.5C547.142 362.5 550.5 359.142 550.5 355V288H551.5Z" fill="#CCCDCD"/>
</g>
<defs>
<filter id="filter0_bi_364_2264" x="-22.6021" y="-22.6021" width="642.204" height="427.204" filterUnits="userSpaceOnUse" color-interpolation-filters="sRGB">
<feFlood flood-opacity="0" result="BackgroundImageFix"/>
<feGaussianBlur in="BackgroundImageFix" stdDeviation="11.5002"/>
<feComposite in2="SourceAlpha" operator="in" result="effect1_backgroundBlur_364_2264"/>
<feBlend mode="normal" in="SourceGraphic" in2="effect1_backgroundBlur_364_2264" result="shape"/>
<feColorMatrix in="SourceAlpha" type="matrix" values="0 0 0 0 0 0 0 0 0 0 0 0 0 0 0 0 0 0 127 0" result="hardAlpha"/>
<feOffset dx="3.01054" dy="3.01054"/>
<feGaussianBlur stdDeviation="14.8419"/>
<feComposite in2="hardAlpha" operator="arithmetic" k2="-1" k3="1"/>
<feColorMatrix type="matrix" values="0 0 0 0 0.273161 0 0 0 0 0.273161 0 0 0 0 0.273161 0 0 0 0.1 0"/>
<feBlend mode="normal" in2="shape" result="effect2_innerShadow_364_2264"/>
</filter>
<radialGradient id="paint0_radial_364_2264" cx="0" cy="0" r="1" gradientUnits="userSpaceOnUse" gradientTransform="translate(298.5 6.67165) rotate(90) scale(374.328 586.118)">
<stop stop-color="#3C696C"/>
<stop offset="0.807299" stop-color="#041420" stop-opacity="0"/>
</radialGradient>
<linearGradient id="paint1_linear_364_2264" x1="298.5" y1="1" x2="293.045" y2="418.586" gradientUnits="userSpaceOnUse">
<stop stop-color="#07908B"/>
<stop offset="1" stop-color="#ABABAB"/>
</linearGradient>
<linearGradient id="paint2_linear_364_2264" x1="299" y1="288" x2="299.001" y2="294" gradientUnits="userSpaceOnUse">
<stop stop-opacity="0"/>
<stop offset="1" stop-color="#06B7D0" stop-opacity="0.39"/>
</linearGradient>
<clipPath id="clip0_364_2264">
<path d="M47 288H551V347C551 354.542 551 358.314 548.657 360.657C546.314 363 542.542 363 535 363H63C55.4575 363 51.6863 363 49.3431 360.657C47 358.314 47 354.542 47 347V288Z" fill="white"/>
</clipPath>
</defs>
</svg>
