<svg width="258" height="66" viewBox="0 0 258 66" fill="none" xmlns="http://www.w3.org/2000/svg">
<path d="M19.5005 52.4705C14.3523 52.4671 9.41574 50.4217 5.77383 46.7831C2.13191 43.1445 0.0821328 38.2098 0.0742188 33.0617C0.0821317 27.9133 2.13181 22.9783 5.77365 19.3393C9.41549 15.7003 14.3521 13.6543 19.5005 13.6504C24.6488 13.6543 29.5853 15.7003 33.2271 19.3393C36.869 22.9783 38.9186 27.9133 38.9266 33.0617C38.9186 38.2098 36.869 43.1445 33.2271 46.7831C29.5851 50.4217 24.6486 52.4671 19.5005 52.4705ZM19.5005 15.1447C14.7482 15.148 10.1913 17.0363 6.82956 20.3952C3.46783 23.7542 1.5758 28.3095 1.56854 33.0617C1.57316 37.8145 3.46446 42.3711 6.82683 45.7302C10.1892 49.0893 14.7476 50.9762 19.5005 50.9762C24.2532 50.9762 28.8117 49.0893 32.174 45.7302C35.5365 42.3711 37.4277 37.8145 37.4323 33.0617C37.425 28.3095 35.5329 23.7542 32.1713 20.3952C28.8095 17.0363 24.2526 15.148 19.5005 15.1447Z" fill="white"/>
<path d="M21.9561 49.3992C17.691 49.3958 13.6012 47.7009 10.5841 44.6862C7.567 41.6713 5.8689 37.583 5.8623 33.3177C5.8689 29.0526 7.567 24.9641 10.5841 21.9494C13.6012 18.9346 17.691 17.2396 21.9561 17.2363C26.2213 17.2396 30.311 18.9346 33.3282 21.9494C36.3452 24.9641 38.0434 29.0526 38.05 33.3177C38.0434 37.583 36.3452 41.6713 33.3282 44.6862C30.311 47.7009 26.2213 49.3958 21.9561 49.3992ZM21.9561 18.3969C17.999 18.4002 14.2047 19.973 11.4056 22.7702C8.60657 25.5674 7.03131 29.3606 7.02538 33.3177C7.03197 37.2745 8.60755 41.0671 11.4066 43.8637C14.2055 46.6605 17.9994 48.2329 21.9561 48.2361C25.9129 48.2329 29.7067 46.6605 32.5057 43.8637C35.3048 41.0671 36.8804 37.2745 36.887 33.3177C36.8804 29.3611 35.3048 25.5684 32.5057 22.7718C29.7067 19.9751 25.9129 18.4027 21.9561 18.3994V18.3969Z" fill="white"/>
<path d="M24.412 46.3313C21.0298 46.3286 17.787 44.9847 15.3946 42.5941C13.0022 40.2036 11.6557 36.9617 11.6504 33.5796C11.6557 30.1977 13.0022 26.9558 15.3946 24.5653C17.787 22.1748 21.0298 20.8308 24.412 20.8281C27.7941 20.8301 31.0374 22.1739 33.4299 24.5645C35.8224 26.9552 37.1689 30.1975 37.1733 33.5796C37.1681 36.9617 35.8215 40.2036 33.4291 42.5941C31.0367 44.9847 27.7939 46.3286 24.412 46.3313ZM24.412 21.6575C21.2497 21.6594 18.2173 22.9158 15.9803 25.151C13.7433 27.3861 12.4843 30.4174 12.4797 33.5796C12.485 36.7415 13.7442 39.7721 15.9812 42.0068C18.218 44.2413 21.2501 45.4975 24.412 45.4995C27.5737 45.4975 30.6057 44.2413 32.8427 42.0068C35.0796 39.7721 36.3388 36.7415 36.3442 33.5796C36.3395 30.4174 35.0805 27.3861 32.8435 25.151C30.6064 22.9158 27.5742 21.6594 24.412 21.6575Z" fill="white"/>
<path d="M26.8686 43.26C24.3697 43.258 21.9736 42.2649 20.206 40.4987C18.4384 38.7324 17.4434 36.3371 17.4395 33.8383C17.4427 31.339 18.4373 28.943 20.2051 27.1762C21.9729 25.4094 24.3694 24.416 26.8686 24.4141C29.368 24.416 31.7643 25.4094 33.5321 27.1762C35.2999 28.943 36.2944 31.339 36.2978 33.8383C36.2937 36.3371 35.299 38.7324 33.5312 40.4987C31.7636 42.2649 29.3675 43.258 26.8686 43.26ZM26.8686 24.9122C24.5014 24.9142 22.2317 25.855 20.5573 27.5284C18.883 29.2018 17.9409 31.471 17.9375 33.8383C17.9415 36.2049 18.884 38.4736 20.5582 40.1465C22.2324 41.8193 24.5019 42.7599 26.8686 42.7618C29.2353 42.7599 31.5048 41.8193 33.179 40.1465C34.8532 38.4736 35.7957 36.2049 35.7997 33.8383C35.7963 31.471 34.8542 29.2018 33.1799 27.5284C31.5057 25.855 29.2358 24.9142 26.8686 24.9122Z" fill="white"/>
<g filter="url(#filter0_d_378_1339)">
<line x1="52.3018" y1="2.06055" x2="52.3018" y2="64.0605" stroke="white" stroke-width="0.75"/>
</g>
<path d="M84.9231 2.59433L79.826 16.8968C79.8026 16.9659 79.7567 17.0252 79.6955 17.0654C79.6342 17.1056 79.5611 17.1241 79.4879 17.1184H79.1017C79.0283 17.1213 78.9556 17.1016 78.894 17.0618C78.8324 17.0222 78.7845 16.9645 78.7572 16.8968L74.936 6.8659L71.1213 16.8968C71.0959 16.9646 71.0495 17.0225 70.9885 17.0625C70.9278 17.1023 70.8558 17.1218 70.783 17.1184H70.3905C70.3177 17.1225 70.2453 17.1031 70.1844 17.0632C70.1235 17.0232 70.0772 16.965 70.0524 16.8968L64.9554 2.59935C64.8771 2.37768 64.9618 2.23993 65.1788 2.23993H66.7562C66.8305 2.23248 66.9052 2.25038 66.9677 2.29068C67.0304 2.33097 67.0774 2.39127 67.1008 2.4616L70.7338 13.2901L74.4275 3.37326C74.4541 3.30498 74.5016 3.24677 74.5636 3.20695C74.6254 3.16714 74.6984 3.14778 74.772 3.15162H75.1039C75.1768 3.14795 75.2488 3.16748 75.3097 3.20736C75.3706 3.24723 75.4168 3.30537 75.442 3.37326L79.2455 13.2901L82.7941 2.4616C82.8175 2.39127 82.8645 2.33097 82.9272 2.29068C82.9897 2.25038 83.0644 2.23248 83.1387 2.23993H84.6921C84.9154 2.23993 85 2.37768 84.9218 2.59433" fill="white"/>
<path d="M107.106 9.55726C107.092 11.0303 106.639 12.4662 105.804 13.6842C104.969 14.9022 103.789 15.8476 102.414 16.4017C101.038 16.9556 99.5285 17.0933 98.0743 16.7974C96.6202 16.5014 95.2868 15.785 94.2421 14.7383C93.1975 13.6917 92.4882 12.3617 92.2039 10.9158C91.9193 9.47009 92.0724 7.97306 92.6438 6.61341C93.215 5.25375 94.179 4.09228 95.4144 3.27527C96.6495 2.45827 98.1008 2.02228 99.5853 2.02221C100.583 2.0083 101.573 2.19422 102.497 2.56887C103.42 2.94352 104.258 3.4992 104.96 4.20265C105.663 4.90612 106.214 5.74291 106.583 6.66295C106.952 7.583 107.13 8.56736 107.106 9.55726ZM105.02 9.55726C105.02 6.08966 102.741 3.70152 99.5853 3.70152C96.4291 3.70152 94.1501 6.08966 94.1501 9.55726C94.1501 13.0248 96.4291 15.4131 99.5853 15.4131C102.741 15.4131 105.02 13.0248 105.02 9.55726Z" fill="white"/>
<path d="M127.022 16.284C127.07 16.3392 127.1 16.4076 127.108 16.4801C127.116 16.5526 127.102 16.6259 127.067 16.6902C127.032 16.7545 126.979 16.8068 126.913 16.8402C126.848 16.8736 126.774 16.8866 126.701 16.8775H125.28C125.234 16.8761 125.189 16.8634 125.149 16.8406C125.109 16.8175 125.075 16.7852 125.051 16.7461L121.484 11.4063H117.652V16.5783C117.651 16.6577 117.619 16.7336 117.562 16.7897C117.506 16.8459 117.429 16.8779 117.349 16.8788H115.961C115.881 16.8775 115.805 16.8454 115.749 16.7893C115.692 16.7332 115.66 16.6575 115.659 16.5783V2.53882C115.661 2.45973 115.693 2.38421 115.749 2.32816C115.805 2.27211 115.881 2.23989 115.961 2.23828H121.42C125.241 2.23828 127.128 4.23067 127.128 6.82167C127.151 7.85122 126.802 8.85509 126.145 9.65172C125.487 10.4485 124.564 10.9856 123.543 11.1659L127.022 16.284ZM121.03 9.72692C124.035 9.72692 125.044 8.49089 125.044 6.82292C125.044 5.15486 124.035 3.91886 121.03 3.91886H117.651V9.72692H121.03Z" fill="white"/>
<path d="M150.501 2.00183H150.954C150.994 1.99926 151.035 2.00528 151.073 2.01946C151.11 2.03366 151.145 2.05572 151.174 2.08415C151.202 2.11259 151.224 2.14676 151.239 2.1844C151.253 2.22203 151.259 2.26225 151.257 2.30239V16.5785C151.259 16.6187 151.253 16.6589 151.239 16.6965C151.224 16.7342 151.202 16.7683 151.174 16.7967C151.145 16.8251 151.11 16.8473 151.073 16.8614C151.035 16.8757 150.994 16.8816 150.954 16.8791H149.566C149.525 16.8816 149.485 16.8757 149.447 16.8614C149.409 16.8473 149.374 16.8251 149.346 16.7967C149.317 16.7683 149.295 16.7342 149.281 16.6965C149.266 16.6589 149.26 16.6187 149.263 16.5785V6.44372L143.67 14.4772C143.652 14.5169 143.622 14.5506 143.585 14.5742C143.548 14.5978 143.505 14.6103 143.461 14.6103C143.417 14.6103 143.374 14.5978 143.337 14.5742C143.3 14.5506 143.27 14.5169 143.252 14.4772L137.66 6.44372V16.5772C137.663 16.6174 137.657 16.6576 137.643 16.6953C137.628 16.733 137.606 16.7671 137.577 16.7955C137.549 16.8239 137.514 16.846 137.477 16.8602C137.439 16.8744 137.398 16.8803 137.358 16.8778H135.969C135.929 16.8803 135.888 16.8744 135.851 16.8602C135.813 16.846 135.778 16.8239 135.75 16.7955C135.721 16.7671 135.699 16.733 135.684 16.6953C135.67 16.6576 135.664 16.6174 135.667 16.5772V2.30114C135.664 2.261 135.67 2.22078 135.684 2.18314C135.699 2.14551 135.721 2.11134 135.75 2.0829C135.778 2.05445 135.813 2.03241 135.851 2.01821C135.888 2.00403 135.929 1.99801 135.969 2.00058H136.418C136.493 2.00086 136.567 2.01966 136.633 2.05527C136.699 2.09091 136.755 2.14224 136.796 2.2047L143.459 11.4379L150.127 2.2047C150.166 2.14255 150.22 2.09123 150.285 2.05554C150.349 2.01983 150.422 2.00094 150.496 2.00058" fill="white"/>
<path d="M173.69 2.53882V16.5771C173.689 16.6564 173.657 16.732 173.6 16.788C173.544 16.8441 173.467 16.8763 173.388 16.8775H171.999C171.919 16.8763 171.843 16.8441 171.787 16.788C171.73 16.732 171.698 16.6564 171.697 16.5771V10.1815H162.513V16.5771C162.512 16.6564 162.48 16.732 162.423 16.788C162.367 16.8441 162.291 16.8763 162.211 16.8775H160.822C160.742 16.8763 160.666 16.8441 160.61 16.788C160.553 16.732 160.521 16.6564 160.52 16.5771V2.53882C160.521 2.45952 160.553 2.38382 160.61 2.32773C160.666 2.27165 160.742 2.23957 160.822 2.23828H162.211C162.291 2.23957 162.367 2.27165 162.423 2.32773C162.48 2.38382 162.512 2.45952 162.513 2.53882V8.50232H171.697V2.53882C171.698 2.45952 171.73 2.38382 171.787 2.32773C171.843 2.27165 171.919 2.23957 171.999 2.23828H173.388C173.467 2.23957 173.544 2.27165 173.6 2.32773C173.657 2.38382 173.689 2.45952 173.69 2.53882Z" fill="white"/>
<path d="M197.29 9.55726C197.275 11.0303 196.822 12.4662 195.988 13.6842C195.153 14.9022 193.973 15.8476 192.597 16.4017C191.222 16.9556 189.712 17.0933 188.258 16.7974C186.804 16.5014 185.47 15.785 184.426 14.7383C183.381 13.6917 182.672 12.3617 182.387 10.9158C182.103 9.47009 182.256 7.97306 182.827 6.61341C183.399 5.25375 184.363 4.09228 185.598 3.27527C186.833 2.45827 188.284 2.02228 189.769 2.02221C190.766 2.0083 191.756 2.19422 192.68 2.56887C193.603 2.94352 194.443 3.4992 195.145 4.20265C195.847 4.90612 196.398 5.74291 196.766 6.66295C197.136 7.583 197.313 8.56736 197.29 9.55726ZM195.203 9.55726C195.203 6.08966 192.924 3.70152 189.769 3.70152C186.613 3.70152 184.334 6.08966 184.334 9.55726C184.334 13.0248 186.613 15.4131 189.769 15.4131C192.924 15.4131 195.203 13.0248 195.203 9.55726Z" fill="white"/>
<path d="M216.287 15.4975V16.5771C216.29 16.6171 216.283 16.6575 216.269 16.695C216.255 16.7327 216.233 16.7668 216.205 16.7952C216.176 16.8238 216.14 16.8457 216.103 16.86C216.065 16.8741 216.024 16.8802 215.985 16.8775H206.149C206.068 16.8763 205.993 16.8441 205.936 16.788C205.879 16.732 205.847 16.6564 205.847 16.5771V2.53882C205.847 2.45952 205.879 2.38382 205.936 2.32773C205.993 2.27165 206.068 2.23957 206.149 2.23828H207.536C207.617 2.23989 207.692 2.27211 207.749 2.32816C207.804 2.38421 207.836 2.45973 207.838 2.53882V15.1971H215.989C216.028 15.1944 216.069 15.2005 216.106 15.2146C216.146 15.2289 216.18 15.2509 216.208 15.2793C216.237 15.3078 216.258 15.342 216.273 15.3796C216.287 15.4172 216.294 15.4573 216.29 15.4975" fill="white"/>
<path d="M235.449 15.4982V16.5776C235.452 16.6178 235.445 16.6579 235.431 16.6956C235.416 16.7333 235.395 16.7674 235.366 16.7958C235.338 16.8242 235.302 16.8464 235.265 16.8605C235.227 16.8748 235.186 16.8807 235.147 16.8782H224.524C224.444 16.8769 224.369 16.8448 224.312 16.7887C224.255 16.7326 224.222 16.6569 224.221 16.5776V2.53942C224.222 2.4601 224.255 2.3844 224.312 2.32831C224.369 2.27222 224.444 2.24015 224.524 2.23886H234.906C234.945 2.23629 234.986 2.24231 235.024 2.25649C235.061 2.27069 235.097 2.29273 235.125 2.32119C235.154 2.34962 235.175 2.38379 235.19 2.42142C235.204 2.45906 235.211 2.49928 235.207 2.53942V3.6189C235.211 3.65903 235.204 3.69926 235.19 3.73689C235.175 3.77451 235.154 3.8087 235.125 3.83713C235.097 3.86557 235.061 3.88761 235.024 3.90181C234.986 3.91601 234.945 3.92201 234.906 3.91944H226.212V8.50279H233.938C233.979 8.50029 234.018 8.50619 234.055 8.51994C234.093 8.53387 234.127 8.55531 234.155 8.58317C234.184 8.61086 234.205 8.64426 234.222 8.68123C234.236 8.71803 234.241 8.7575 234.239 8.79715V9.88279C234.243 9.9228 234.236 9.96281 234.222 10.0001C234.207 10.0375 234.186 10.0714 234.157 10.0998C234.129 10.128 234.095 10.15 234.057 10.1643C234.02 10.1784 233.979 10.1845 233.938 10.1822H226.212V15.1976H235.147C235.188 15.1951 235.229 15.201 235.266 15.2153C235.304 15.2294 235.338 15.2515 235.366 15.2799C235.395 15.3083 235.418 15.3426 235.433 15.3801C235.447 15.4178 235.452 15.458 235.45 15.4982" fill="white"/>
<path d="M71.9868 39.6791C71.7601 39.8525 71.4068 39.9991 70.9268 40.1191C70.4468 40.2525 69.9734 40.3191 69.5068 40.3191C68.7334 40.3191 68.0401 40.1391 67.4268 39.7791C66.8134 39.4191 66.3268 38.9191 65.9668 38.2791C65.6068 37.6391 65.4268 36.9058 65.4268 36.0791C65.4268 35.2658 65.6001 34.5458 65.9468 33.9191C66.2934 33.2925 66.7801 32.8058 67.4068 32.4591C68.0468 32.0991 68.7868 31.9191 69.6268 31.9191C69.9601 31.9191 70.2868 31.9458 70.6068 31.9991C70.9401 32.0525 71.2734 32.1458 71.6068 32.2791C71.7401 32.3458 71.8334 32.4391 71.8868 32.5591C71.9534 32.6658 71.9868 32.7725 71.9868 32.8791C71.9868 33.0525 71.9268 33.2058 71.8068 33.3391C71.7001 33.4725 71.5534 33.5391 71.3668 33.5391C71.2868 33.5391 71.1934 33.5191 71.0868 33.4791C70.8734 33.3991 70.6201 33.3258 70.3268 33.2591C70.0468 33.1925 69.7668 33.1591 69.4868 33.1591C68.9534 33.1591 68.4868 33.2991 68.0868 33.5791C67.6868 33.8458 67.3734 34.2058 67.1468 34.6591C66.9334 35.1125 66.8268 35.6125 66.8268 36.1591C66.8268 36.9725 67.0734 37.6658 67.5668 38.2391C68.0601 38.8125 68.7134 39.0991 69.5268 39.0991C69.8868 39.0991 70.2401 39.0458 70.5868 38.9391C70.9334 38.8191 71.1934 38.6925 71.3668 38.5591C71.5134 38.4791 71.6401 38.4391 71.7468 38.4391C71.9201 38.4391 72.0601 38.5058 72.1668 38.6391C72.2734 38.7591 72.3268 38.8991 72.3268 39.0591C72.3268 39.2991 72.2134 39.5058 71.9868 39.6791ZM77.2997 40.3191C77.1264 40.3191 76.9664 40.2525 76.8197 40.1191C76.6864 39.9991 76.6197 39.8525 76.6197 39.6791V33.2191C76.6197 32.8591 76.7397 32.5858 76.9797 32.3991C77.2331 32.2125 77.4997 32.1191 77.7797 32.1191H79.7397C80.1931 32.1191 80.6131 32.2191 80.9997 32.4191C81.3997 32.6058 81.7197 32.8791 81.9597 33.2391C82.1997 33.5858 82.3197 34.0058 82.3197 34.4991C82.3197 34.9658 82.1797 35.4125 81.8997 35.8391C81.6331 36.2525 81.2864 36.5325 80.8597 36.6791C81.0464 36.7591 81.2197 36.8925 81.3797 37.0791C81.5531 37.2525 81.7064 37.4858 81.8397 37.7791L82.5597 39.3991C82.5997 39.4791 82.6197 39.5658 82.6197 39.6591C82.6197 39.8991 82.5397 40.0725 82.3797 40.1791C82.2331 40.2858 82.0797 40.3391 81.9197 40.3391C81.6531 40.3391 81.4664 40.2125 81.3597 39.9591L80.5397 38.0391C80.3664 37.6525 80.1464 37.3858 79.8797 37.2391C79.6131 37.0925 79.3197 37.0191 78.9997 37.0191H78.4997C78.1531 37.0191 77.9797 37.2191 77.9797 37.6191V39.6791C77.9797 39.8525 77.9131 39.9991 77.7797 40.1191C77.6464 40.2525 77.4864 40.3191 77.2997 40.3191ZM78.4197 35.8191H79.5397C79.8731 35.8191 80.1931 35.7125 80.4997 35.4991C80.8197 35.2725 80.9797 34.9525 80.9797 34.5391C80.9797 34.1391 80.8331 33.8391 80.5397 33.6391C80.2597 33.4391 79.9531 33.3391 79.6197 33.3391H78.4797C78.1464 33.3391 77.9797 33.5058 77.9797 33.8391V35.3591C77.9797 35.6658 78.1264 35.8191 78.4197 35.8191ZM90.7044 40.3191C89.9311 40.3191 89.2244 40.1391 88.5844 39.7791C87.9577 39.4058 87.4577 38.9058 87.0844 38.2791C86.7111 37.6391 86.5244 36.9191 86.5244 36.1191C86.5244 35.2791 86.7111 34.5458 87.0844 33.9191C87.4577 33.2925 87.9577 32.8058 88.5844 32.4591C89.2244 32.0991 89.9311 31.9191 90.7044 31.9191C91.4777 31.9191 92.1711 32.0991 92.7844 32.4591C93.4111 32.8058 93.9044 33.2925 94.2644 33.9191C94.6377 34.5458 94.8244 35.2791 94.8244 36.1191C94.8244 36.9191 94.6377 37.6391 94.2644 38.2791C93.9044 38.9058 93.4111 39.4058 92.7844 39.7791C92.1711 40.1391 91.4777 40.3191 90.7044 40.3191ZM90.7044 39.0991C91.2377 39.0991 91.7044 38.9658 92.1044 38.6991C92.5177 38.4191 92.8377 38.0525 93.0644 37.5991C93.2911 37.1458 93.4044 36.6525 93.4044 36.1191C93.4044 35.2658 93.1511 34.5591 92.6444 33.9991C92.1377 33.4391 91.4911 33.1591 90.7044 33.1591C89.9044 33.1591 89.2511 33.4391 88.7444 33.9991C88.2377 34.5591 87.9844 35.2658 87.9844 36.1191C87.9844 36.6525 88.0977 37.1458 88.3244 37.5991C88.5511 38.0525 88.8711 38.4191 89.2844 38.6991C89.6977 38.9658 90.1711 39.0991 90.7044 39.0991ZM101.821 40.3191C101.235 40.3191 100.668 40.2191 100.121 40.0191C99.588 39.8191 99.1746 39.5325 98.8813 39.1591C98.7746 39.0125 98.7213 38.8658 98.7213 38.7191C98.7213 38.5458 98.788 38.3991 98.9213 38.2791C99.068 38.1458 99.228 38.0791 99.4013 38.0791C99.4946 38.0791 99.588 38.0991 99.6813 38.1391C99.7746 38.1658 99.848 38.2191 99.9013 38.2991C100.115 38.5525 100.401 38.7525 100.761 38.8991C101.135 39.0458 101.521 39.1191 101.921 39.1191C102.388 39.1191 102.768 39.0058 103.061 38.7791C103.368 38.5525 103.521 38.2525 103.521 37.8791C103.521 37.4525 103.341 37.1525 102.981 36.9791C102.635 36.7925 102.228 36.6591 101.761 36.5791C101.335 36.4991 100.901 36.3858 100.461 36.2391C100.021 36.0791 99.6546 35.8525 99.3613 35.5591C99.068 35.2525 98.9213 34.8391 98.9213 34.3191C98.9213 33.6125 99.188 33.0525 99.7213 32.6391C100.268 32.2258 100.995 32.0191 101.901 32.0191C102.381 32.0191 102.821 32.0925 103.221 32.2391C103.621 32.3725 103.955 32.5591 104.221 32.7991C104.381 32.9325 104.461 33.0991 104.461 33.2991C104.461 33.4591 104.401 33.5991 104.281 33.7191C104.161 33.8391 104.021 33.8991 103.861 33.8991C103.701 33.8991 103.548 33.8458 103.401 33.7391C102.975 33.3925 102.448 33.2191 101.821 33.2191C100.755 33.2191 100.221 33.5791 100.221 34.2991C100.221 34.6458 100.381 34.8858 100.701 35.0191C101.035 35.1391 101.481 35.2658 102.041 35.3991C102.308 35.4525 102.595 35.5325 102.901 35.6391C103.221 35.7325 103.528 35.8725 103.821 36.0591C104.115 36.2325 104.355 36.4725 104.541 36.7791C104.728 37.0725 104.821 37.4458 104.821 37.8991C104.821 38.6191 104.541 39.2058 103.981 39.6591C103.435 40.0991 102.715 40.3191 101.821 40.3191ZM111.813 40.3191C111.227 40.3191 110.66 40.2191 110.113 40.0191C109.58 39.8191 109.167 39.5325 108.873 39.1591C108.767 39.0125 108.713 38.8658 108.713 38.7191C108.713 38.5458 108.78 38.3991 108.913 38.2791C109.06 38.1458 109.22 38.0791 109.393 38.0791C109.487 38.0791 109.58 38.0991 109.673 38.1391C109.767 38.1658 109.84 38.2191 109.893 38.2991C110.107 38.5525 110.393 38.7525 110.753 38.8991C111.127 39.0458 111.513 39.1191 111.913 39.1191C112.38 39.1191 112.76 39.0058 113.053 38.7791C113.36 38.5525 113.513 38.2525 113.513 37.8791C113.513 37.4525 113.333 37.1525 112.973 36.9791C112.627 36.7925 112.22 36.6591 111.753 36.5791C111.327 36.4991 110.893 36.3858 110.453 36.2391C110.013 36.0791 109.647 35.8525 109.353 35.5591C109.06 35.2525 108.913 34.8391 108.913 34.3191C108.913 33.6125 109.18 33.0525 109.713 32.6391C110.26 32.2258 110.987 32.0191 111.893 32.0191C112.373 32.0191 112.813 32.0925 113.213 32.2391C113.613 32.3725 113.947 32.5591 114.213 32.7991C114.373 32.9325 114.453 33.0991 114.453 33.2991C114.453 33.4591 114.393 33.5991 114.273 33.7191C114.153 33.8391 114.013 33.8991 113.853 33.8991C113.693 33.8991 113.54 33.8458 113.393 33.7391C112.967 33.3925 112.44 33.2191 111.813 33.2191C110.747 33.2191 110.213 33.5791 110.213 34.2991C110.213 34.6458 110.373 34.8858 110.693 35.0191C111.027 35.1391 111.473 35.2658 112.033 35.3991C112.3 35.4525 112.587 35.5325 112.893 35.6391C113.213 35.7325 113.52 35.8725 113.813 36.0591C114.107 36.2325 114.347 36.4725 114.533 36.7791C114.72 37.0725 114.813 37.4458 114.813 37.8991C114.813 38.6191 114.533 39.2058 113.973 39.6591C113.427 40.0991 112.707 40.3191 111.813 40.3191ZM122.846 36.1191C123.006 36.1191 123.139 36.1658 123.246 36.2591C123.352 36.3525 123.406 36.4725 123.406 36.6191C123.406 36.7525 123.352 36.8725 123.246 36.9791C123.139 37.0725 123.006 37.1191 122.846 37.1191H119.746C119.386 37.1191 119.206 36.9525 119.206 36.6191C119.206 36.2858 119.386 36.1191 119.746 36.1191H122.846ZM134.362 39.6791C134.135 39.8525 133.782 39.9991 133.302 40.1191C132.822 40.2525 132.348 40.3191 131.882 40.3191C131.108 40.3191 130.415 40.1391 129.802 39.7791C129.188 39.4191 128.702 38.9191 128.342 38.2791C127.982 37.6391 127.802 36.9058 127.802 36.0791C127.802 35.2658 127.975 34.5458 128.322 33.9191C128.668 33.2925 129.155 32.8058 129.782 32.4591C130.422 32.0991 131.162 31.9191 132.002 31.9191C132.335 31.9191 132.662 31.9458 132.982 31.9991C133.315 32.0525 133.648 32.1458 133.982 32.2791C134.115 32.3458 134.208 32.4391 134.262 32.5591C134.328 32.6658 134.362 32.7725 134.362 32.8791C134.362 33.0525 134.302 33.2058 134.182 33.3391C134.075 33.4725 133.928 33.5391 133.742 33.5391C133.662 33.5391 133.568 33.5191 133.462 33.4791C133.248 33.3991 132.995 33.3258 132.702 33.2591C132.422 33.1925 132.142 33.1591 131.862 33.1591C131.328 33.1591 130.862 33.2991 130.462 33.5791C130.062 33.8458 129.748 34.2058 129.522 34.6591C129.308 35.1125 129.202 35.6125 129.202 36.1591C129.202 36.9725 129.448 37.6658 129.942 38.2391C130.435 38.8125 131.088 39.0991 131.902 39.0991C132.262 39.0991 132.615 39.0458 132.962 38.9391C133.308 38.8191 133.568 38.6925 133.742 38.5591C133.888 38.4791 134.015 38.4391 134.122 38.4391C134.295 38.4391 134.435 38.5058 134.542 38.6391C134.648 38.7591 134.702 38.8991 134.702 39.0591C134.702 39.2991 134.588 39.5058 134.362 39.6791ZM139.695 40.3191C139.495 40.3191 139.328 40.2591 139.195 40.1391C139.061 40.0191 138.995 39.8658 138.995 39.6791V32.6791C138.995 32.4791 139.061 32.3191 139.195 32.1991C139.328 32.0791 139.495 32.0191 139.695 32.0191C139.908 32.0191 140.075 32.0791 140.195 32.1991C140.328 32.3191 140.395 32.4791 140.395 32.6791V34.6991C140.395 35.0991 140.581 35.2991 140.955 35.2991H143.835C144.208 35.2991 144.395 35.0991 144.395 34.6991V32.6791C144.395 32.4791 144.455 32.3191 144.575 32.1991C144.708 32.0791 144.881 32.0191 145.095 32.0191C145.308 32.0191 145.475 32.0791 145.595 32.1991C145.728 32.3191 145.795 32.4791 145.795 32.6791V39.6791C145.795 39.8658 145.728 40.0191 145.595 40.1391C145.475 40.2591 145.308 40.3191 145.095 40.3191C144.881 40.3191 144.708 40.2591 144.575 40.1391C144.455 40.0191 144.395 39.8658 144.395 39.6791V37.1391C144.395 36.7391 144.208 36.5391 143.835 36.5391H140.955C140.581 36.5391 140.395 36.7391 140.395 37.1391V39.6791C140.395 39.8658 140.328 40.0191 140.195 40.1391C140.075 40.2591 139.908 40.3191 139.695 40.3191ZM150.748 40.3191C150.575 40.3191 150.422 40.2591 150.288 40.1391C150.155 40.0191 150.088 39.8591 150.088 39.6591C150.088 39.5925 150.102 39.5058 150.128 39.3991L152.628 32.6191C152.722 32.3925 152.862 32.2191 153.048 32.0991C153.235 31.9791 153.435 31.9191 153.648 31.9191C153.862 31.9191 154.062 31.9791 154.248 32.0991C154.448 32.2191 154.595 32.3925 154.688 32.6191L157.348 39.3991C157.375 39.5058 157.388 39.5925 157.388 39.6591C157.388 39.8591 157.322 40.0191 157.188 40.1391C157.055 40.2591 156.902 40.3191 156.728 40.3191C156.608 40.3191 156.482 40.2858 156.348 40.2191C156.228 40.1658 156.135 40.0725 156.068 39.9391L155.408 38.1791C155.395 38.0991 155.342 38.0591 155.248 38.0591H152.188C152.095 38.0591 152.035 38.0991 152.008 38.1791L151.408 39.9391C151.342 40.0725 151.242 40.1658 151.108 40.2191C150.988 40.2858 150.868 40.3191 150.748 40.3191ZM152.788 36.8591H154.588C154.668 36.8591 154.728 36.8325 154.768 36.7791C154.822 36.7125 154.835 36.6325 154.808 36.5391L153.848 33.7991C153.808 33.6658 153.748 33.5991 153.668 33.5991C153.575 33.5991 153.508 33.6658 153.468 33.7991L152.568 36.5591C152.542 36.6391 152.548 36.7125 152.588 36.7791C152.642 36.8325 152.708 36.8591 152.788 36.8591ZM162.494 40.3191C162.321 40.3191 162.161 40.2591 162.014 40.1391C161.867 40.0325 161.794 39.8725 161.794 39.6591V32.6791C161.794 32.4525 161.867 32.2858 162.014 32.1791C162.161 32.0725 162.321 32.0191 162.494 32.0191C162.681 32.0191 162.841 32.0725 162.974 32.1791C163.121 32.2858 163.194 32.4525 163.194 32.6791V39.6591C163.194 39.8725 163.121 40.0325 162.974 40.1391C162.841 40.2591 162.681 40.3191 162.494 40.3191ZM168.792 40.3191C168.619 40.3191 168.459 40.2658 168.312 40.1591C168.166 40.0525 168.092 39.8925 168.092 39.6791V32.9391C168.092 32.6325 168.186 32.4058 168.372 32.2591C168.572 32.0991 168.786 32.0191 169.012 32.0191C169.359 32.0191 169.612 32.1525 169.772 32.4191L173.072 37.5991C173.139 37.7058 173.212 37.7591 173.292 37.7591C173.412 37.7591 173.472 37.6658 173.472 37.4791L173.392 32.6591C173.392 32.4458 173.466 32.2858 173.612 32.1791C173.759 32.0725 173.919 32.0191 174.092 32.0191C174.266 32.0191 174.426 32.0725 174.572 32.1791C174.719 32.2858 174.792 32.4458 174.792 32.6591V39.4391C174.792 39.7325 174.706 39.9525 174.532 40.0991C174.359 40.2458 174.159 40.3191 173.932 40.3191C173.772 40.3191 173.612 40.2791 173.452 40.1991C173.306 40.1325 173.179 40.0191 173.072 39.8591L169.832 34.8191C169.766 34.7125 169.692 34.6591 169.612 34.6591C169.492 34.6591 169.432 34.7525 169.432 34.9391L169.492 39.6791C169.492 39.8925 169.419 40.0525 169.272 40.1591C169.139 40.2658 168.979 40.3191 168.792 40.3191ZM66.9268 58.1191C66.5934 58.1191 66.3268 58.0191 66.1268 57.8191C65.9268 57.6191 65.8268 57.3525 65.8268 57.0191V51.1591C65.8268 50.8525 65.9268 50.6058 66.1268 50.4191C66.3401 50.2191 66.5868 50.1191 66.8668 50.1191H69.8868C70.1134 50.1191 70.2734 50.1791 70.3668 50.2991C70.4734 50.4058 70.5268 50.5458 70.5268 50.7191C70.5268 50.8791 70.4668 51.0191 70.3468 51.1391C70.2401 51.2591 70.0868 51.3191 69.8868 51.3191H67.7468C67.4001 51.3191 67.2268 51.4925 67.2268 51.8391V52.9391C67.2268 53.2858 67.3868 53.4591 67.7068 53.4591H69.6868C69.9134 53.4591 70.0734 53.5191 70.1668 53.6391C70.2734 53.7591 70.3268 53.8991 70.3268 54.0591C70.3268 54.2058 70.2668 54.3458 70.1468 54.4791C70.0401 54.5991 69.8868 54.6591 69.6868 54.6591H67.7068C67.3868 54.6591 67.2268 54.8258 67.2268 55.1591V56.3791C67.2268 56.7258 67.3934 56.8991 67.7268 56.8991H70.0868C70.3134 56.8991 70.4734 56.9658 70.5668 57.0991C70.6734 57.2191 70.7268 57.3591 70.7268 57.5191C70.7268 57.6791 70.6668 57.8191 70.5468 57.9391C70.4401 58.0591 70.2868 58.1191 70.0868 58.1191H66.9268ZM81.393 57.6791C81.1663 57.8525 80.813 57.9991 80.333 58.1191C79.853 58.2525 79.3797 58.3191 78.913 58.3191C78.1397 58.3191 77.4463 58.1391 76.833 57.7791C76.2197 57.4191 75.733 56.9191 75.373 56.2791C75.013 55.6391 74.833 54.9058 74.833 54.0791C74.833 53.2658 75.0063 52.5458 75.353 51.9191C75.6997 51.2925 76.1863 50.8058 76.813 50.4591C77.453 50.0991 78.193 49.9191 79.033 49.9191C79.3663 49.9191 79.693 49.9458 80.013 49.9991C80.3463 50.0525 80.6797 50.1458 81.013 50.2791C81.1463 50.3458 81.2397 50.4391 81.293 50.5591C81.3597 50.6658 81.393 50.7725 81.393 50.8791C81.393 51.0525 81.333 51.2058 81.213 51.3391C81.1063 51.4725 80.9597 51.5391 80.773 51.5391C80.693 51.5391 80.5997 51.5191 80.493 51.4791C80.2797 51.3991 80.0263 51.3258 79.733 51.2591C79.453 51.1925 79.173 51.1591 78.893 51.1591C78.3597 51.1591 77.893 51.2991 77.493 51.5791C77.093 51.8458 76.7797 52.2058 76.553 52.6591C76.3397 53.1125 76.233 53.6125 76.233 54.1591C76.233 54.9725 76.4797 55.6658 76.973 56.2391C77.4663 56.8125 78.1197 57.0991 78.933 57.0991C79.293 57.0991 79.6463 57.0458 79.993 56.9391C80.3397 56.8191 80.5997 56.6925 80.773 56.5591C80.9197 56.4791 81.0463 56.4391 81.153 56.4391C81.3263 56.4391 81.4663 56.5058 81.573 56.6391C81.6797 56.7591 81.733 56.8991 81.733 57.0591C81.733 57.2991 81.6197 57.5058 81.393 57.6791ZM89.806 58.3191C89.0326 58.3191 88.326 58.1391 87.686 57.7791C87.0593 57.4058 86.5593 56.9058 86.186 56.2791C85.8126 55.6391 85.626 54.9191 85.626 54.1191C85.626 53.2791 85.8126 52.5458 86.186 51.9191C86.5593 51.2925 87.0593 50.8058 87.686 50.4591C88.326 50.0991 89.0326 49.9191 89.806 49.9191C90.5793 49.9191 91.2726 50.0991 91.886 50.4591C92.5126 50.8058 93.006 51.2925 93.366 51.9191C93.7393 52.5458 93.926 53.2791 93.926 54.1191C93.926 54.9191 93.7393 55.6391 93.366 56.2791C93.006 56.9058 92.5126 57.4058 91.886 57.7791C91.2726 58.1391 90.5793 58.3191 89.806 58.3191ZM89.806 57.0991C90.3393 57.0991 90.806 56.9658 91.206 56.6991C91.6193 56.4191 91.9393 56.0525 92.166 55.5991C92.3926 55.1458 92.506 54.6525 92.506 54.1191C92.506 53.2658 92.2526 52.5591 91.746 51.9991C91.2393 51.4391 90.5926 51.1591 89.806 51.1591C89.006 51.1591 88.3526 51.4391 87.846 51.9991C87.3393 52.5591 87.086 53.2658 87.086 54.1191C87.086 54.6525 87.1993 55.1458 87.426 55.5991C87.6526 56.0525 87.9726 56.4191 88.386 56.6991C88.7993 56.9658 89.2726 57.0991 89.806 57.0991ZM100.923 58.3191C100.336 58.3191 99.7695 58.2191 99.2229 58.0191C98.6895 57.8191 98.2762 57.5325 97.9829 57.1591C97.8762 57.0125 97.8229 56.8658 97.8229 56.7191C97.8229 56.5458 97.8895 56.3991 98.0229 56.2791C98.1695 56.1458 98.3295 56.0791 98.5029 56.0791C98.5962 56.0791 98.6895 56.0991 98.7829 56.1391C98.8762 56.1658 98.9495 56.2191 99.0029 56.2991C99.2162 56.5525 99.5029 56.7525 99.8629 56.8991C100.236 57.0458 100.623 57.1191 101.023 57.1191C101.49 57.1191 101.87 57.0058 102.163 56.7791C102.47 56.5525 102.623 56.2525 102.623 55.8791C102.623 55.4525 102.443 55.1525 102.083 54.9791C101.736 54.7925 101.33 54.6591 100.863 54.5791C100.436 54.4991 100.003 54.3858 99.5629 54.2391C99.1229 54.0791 98.7562 53.8525 98.4629 53.5591C98.1695 53.2525 98.0229 52.8391 98.0229 52.3191C98.0229 51.6125 98.2895 51.0525 98.8229 50.6391C99.3695 50.2258 100.096 50.0191 101.003 50.0191C101.483 50.0191 101.923 50.0925 102.323 50.2391C102.723 50.3725 103.056 50.5591 103.323 50.7991C103.483 50.9325 103.563 51.0991 103.563 51.2991C103.563 51.4591 103.503 51.5991 103.383 51.7191C103.263 51.8391 103.123 51.8991 102.963 51.8991C102.803 51.8991 102.65 51.8458 102.503 51.7391C102.076 51.3925 101.55 51.2191 100.923 51.2191C99.8562 51.2191 99.3229 51.5791 99.3229 52.2991C99.3229 52.6458 99.4829 52.8858 99.8029 53.0191C100.136 53.1391 100.583 53.2658 101.143 53.3991C101.41 53.4525 101.696 53.5325 102.003 53.6391C102.323 53.7325 102.63 53.8725 102.923 54.0591C103.216 54.2325 103.456 54.4725 103.643 54.7791C103.83 55.0725 103.923 55.4458 103.923 55.8991C103.923 56.6191 103.643 57.2058 103.083 57.6591C102.536 58.0991 101.816 58.3191 100.923 58.3191ZM111.12 58.3191C110.906 58.3191 110.733 58.2591 110.6 58.1391C110.48 58.0191 110.42 57.8658 110.42 57.6791V55.4791C110.42 55.1591 110.333 54.8658 110.16 54.5991L107.84 51.0991C107.76 50.9791 107.72 50.8591 107.72 50.7391C107.72 50.5391 107.8 50.3725 107.96 50.2391C108.12 50.0925 108.293 50.0191 108.48 50.0191C108.586 50.0191 108.686 50.0391 108.78 50.0791C108.873 50.1191 108.953 50.1991 109.02 50.3191L110.92 53.3591C110.973 53.4525 111.04 53.4991 111.12 53.4991C111.2 53.4991 111.266 53.4525 111.32 53.3591L113.22 50.3191C113.286 50.1991 113.366 50.1191 113.46 50.0791C113.566 50.0391 113.666 50.0191 113.76 50.0191C113.946 50.0191 114.12 50.0925 114.28 50.2391C114.44 50.3725 114.52 50.5391 114.52 50.7391C114.52 50.8591 114.48 50.9791 114.4 51.0991L112.08 54.5991C111.906 54.8658 111.82 55.1591 111.82 55.4791V57.6791C111.82 57.8658 111.753 58.0191 111.62 58.1391C111.5 58.2591 111.333 58.3191 111.12 58.3191ZM121.317 58.3191C120.731 58.3191 120.164 58.2191 119.617 58.0191C119.084 57.8191 118.671 57.5325 118.377 57.1591C118.271 57.0125 118.217 56.8658 118.217 56.7191C118.217 56.5458 118.284 56.3991 118.417 56.2791C118.564 56.1458 118.724 56.0791 118.897 56.0791C118.991 56.0791 119.084 56.0991 119.177 56.1391C119.271 56.1658 119.344 56.2191 119.397 56.2991C119.611 56.5525 119.897 56.7525 120.257 56.8991C120.631 57.0458 121.017 57.1191 121.417 57.1191C121.884 57.1191 122.264 57.0058 122.557 56.7791C122.864 56.5525 123.017 56.2525 123.017 55.8791C123.017 55.4525 122.837 55.1525 122.477 54.9791C122.131 54.7925 121.724 54.6591 121.257 54.5791C120.831 54.4991 120.397 54.3858 119.957 54.2391C119.517 54.0791 119.151 53.8525 118.857 53.5591C118.564 53.2525 118.417 52.8391 118.417 52.3191C118.417 51.6125 118.684 51.0525 119.217 50.6391C119.764 50.2258 120.491 50.0191 121.397 50.0191C121.877 50.0191 122.317 50.0925 122.717 50.2391C123.117 50.3725 123.451 50.5591 123.717 50.7991C123.877 50.9325 123.957 51.0991 123.957 51.2991C123.957 51.4591 123.897 51.5991 123.777 51.7191C123.657 51.8391 123.517 51.8991 123.357 51.8991C123.197 51.8991 123.044 51.8458 122.897 51.7391C122.471 51.3925 121.944 51.2191 121.317 51.2191C120.251 51.2191 119.717 51.5791 119.717 52.2991C119.717 52.6458 119.877 52.8858 120.197 53.0191C120.531 53.1391 120.977 53.2658 121.537 53.3991C121.804 53.4525 122.091 53.5325 122.397 53.6391C122.717 53.7325 123.024 53.8725 123.317 54.0591C123.611 54.2325 123.851 54.4725 124.037 54.7791C124.224 55.0725 124.317 55.4458 124.317 55.8991C124.317 56.6191 124.037 57.2058 123.477 57.6591C122.931 58.0991 122.211 58.3191 121.317 58.3191ZM131.11 58.3191C130.896 58.3191 130.723 58.2591 130.59 58.1391C130.47 58.0191 130.41 57.8658 130.41 57.6791V51.8591C130.41 51.5258 130.236 51.3591 129.89 51.3591H128.63C128.216 51.3591 128.01 51.1525 128.01 50.7391C128.01 50.3258 128.216 50.1191 128.63 50.1191H133.57C133.756 50.1191 133.91 50.1791 134.03 50.2991C134.15 50.4058 134.21 50.5525 134.21 50.7391C134.21 50.9258 134.15 51.0791 134.03 51.1991C133.91 51.3058 133.756 51.3591 133.57 51.3591H132.33C131.983 51.3591 131.81 51.5258 131.81 51.8591V57.6791C131.81 57.8658 131.743 58.0191 131.61 58.1391C131.49 58.2591 131.323 58.3191 131.11 58.3191ZM139.411 58.1191C139.078 58.1191 138.811 58.0191 138.611 57.8191C138.411 57.6191 138.311 57.3525 138.311 57.0191V51.1591C138.311 50.8525 138.411 50.6058 138.611 50.4191C138.824 50.2191 139.071 50.1191 139.351 50.1191H142.371C142.598 50.1191 142.758 50.1791 142.851 50.2991C142.958 50.4058 143.011 50.5458 143.011 50.7191C143.011 50.8791 142.951 51.0191 142.831 51.1391C142.724 51.2591 142.571 51.3191 142.371 51.3191H140.231C139.884 51.3191 139.711 51.4925 139.711 51.8391V52.9391C139.711 53.2858 139.871 53.4591 140.191 53.4591H142.171C142.398 53.4591 142.558 53.5191 142.651 53.6391C142.758 53.7591 142.811 53.8991 142.811 54.0591C142.811 54.2058 142.751 54.3458 142.631 54.4791C142.524 54.5991 142.371 54.6591 142.171 54.6591H140.191C139.871 54.6591 139.711 54.8258 139.711 55.1591V56.3791C139.711 56.7258 139.878 56.8991 140.211 56.8991H142.571C142.798 56.8991 142.958 56.9658 143.051 57.0991C143.158 57.2191 143.211 57.3591 143.211 57.5191C143.211 57.6791 143.151 57.8191 143.031 57.9391C142.924 58.0591 142.771 58.1191 142.571 58.1191H139.411ZM148.117 58.3191C147.904 58.3191 147.724 58.2458 147.577 58.0991C147.444 57.9391 147.391 57.7525 147.417 57.5391L148.277 50.8191C148.304 50.5525 148.404 50.3525 148.577 50.2191C148.764 50.0858 148.964 50.0191 149.177 50.0191C149.391 50.0191 149.584 50.0725 149.757 50.1791C149.944 50.2725 150.071 50.4191 150.137 50.6191L151.717 55.0991C151.784 55.2591 151.851 55.3391 151.917 55.3391C151.997 55.3391 152.064 55.2591 152.117 55.0991L153.697 50.6191C153.764 50.4191 153.884 50.2725 154.057 50.1791C154.244 50.0725 154.437 50.0191 154.637 50.0191C154.851 50.0191 155.051 50.0858 155.237 50.2191C155.424 50.3525 155.531 50.5525 155.557 50.8191L156.417 57.5391C156.444 57.7525 156.391 57.9391 156.257 58.0991C156.124 58.2458 155.944 58.3191 155.717 58.3191C155.544 58.3191 155.384 58.2591 155.237 58.1391C155.104 58.0191 155.024 57.8658 154.997 57.6791L154.557 52.7391C154.544 52.5791 154.491 52.4991 154.397 52.4991C154.304 52.4991 154.237 52.5658 154.197 52.6991L152.757 56.6791C152.677 56.8925 152.564 57.0458 152.417 57.1391C152.271 57.2325 152.104 57.2791 151.917 57.2791C151.557 57.2791 151.284 57.0791 151.097 56.6791L149.637 52.6991C149.584 52.5658 149.517 52.4991 149.437 52.4991C149.384 52.4991 149.344 52.5791 149.317 52.7391L148.837 57.6791C148.824 57.8658 148.744 58.0191 148.597 58.1391C148.464 58.2591 148.304 58.3191 148.117 58.3191ZM168.617 58.3191C168.443 58.3191 168.283 58.2525 168.137 58.1191C167.99 57.9991 167.917 57.8525 167.917 57.6791V51.1591C167.917 50.8525 168.017 50.6058 168.217 50.4191C168.43 50.2191 168.677 50.1191 168.957 50.1191H172.077C172.303 50.1191 172.463 50.1791 172.557 50.2991C172.663 50.4191 172.717 50.5658 172.717 50.7391C172.717 50.9125 172.657 51.0591 172.537 51.1791C172.417 51.2991 172.263 51.3591 172.077 51.3591H169.837C169.49 51.3591 169.317 51.5325 169.317 51.8791V53.0191C169.317 53.3658 169.477 53.5391 169.797 53.5391H171.897C172.123 53.5391 172.283 53.6058 172.377 53.7391C172.483 53.8591 172.537 53.9991 172.537 54.1591C172.537 54.3191 172.477 54.4658 172.357 54.5991C172.237 54.7191 172.083 54.7791 171.897 54.7791H169.797C169.477 54.7791 169.317 54.9458 169.317 55.2791V57.6791C169.317 57.8525 169.243 57.9991 169.097 58.1191C168.963 58.2525 168.803 58.3191 168.617 58.3191ZM182.528 50.6791C182.528 50.4658 182.601 50.3058 182.748 50.1991C182.895 50.0791 183.055 50.0191 183.228 50.0191C183.401 50.0191 183.555 50.0725 183.688 50.1791C183.835 50.2858 183.908 50.4525 183.908 50.6791V55.0591C183.908 55.8458 183.741 56.4791 183.408 56.9591C183.075 57.4391 182.648 57.7858 182.128 57.9991C181.608 58.2125 181.061 58.3191 180.488 58.3191C179.848 58.3191 179.268 58.2125 178.748 57.9991C178.241 57.7858 177.841 57.4391 177.548 56.9591C177.255 56.4658 177.108 55.8258 177.108 55.0391V50.6791C177.108 50.4525 177.181 50.2925 177.328 50.1991C177.475 50.0925 177.635 50.0391 177.808 50.0391C177.981 50.0391 178.135 50.0925 178.268 50.1991C178.415 50.2925 178.488 50.4525 178.488 50.6791V55.0391C178.488 55.7458 178.661 56.2658 179.008 56.5991C179.368 56.9191 179.861 57.0791 180.488 57.0791C181.048 57.0791 181.528 56.9191 181.928 56.5991C182.328 56.2658 182.528 55.7525 182.528 55.0591V50.6791ZM189.402 58.3191C189.228 58.3191 189.068 58.2658 188.922 58.1591C188.775 58.0525 188.702 57.8925 188.702 57.6791V50.9391C188.702 50.6325 188.795 50.4058 188.982 50.2591C189.182 50.0991 189.395 50.0191 189.622 50.0191C189.968 50.0191 190.222 50.1525 190.382 50.4191L193.682 55.5991C193.748 55.7058 193.822 55.7591 193.902 55.7591C194.022 55.7591 194.082 55.6658 194.082 55.4791L194.002 50.6591C194.002 50.4458 194.075 50.2858 194.222 50.1791C194.368 50.0725 194.528 50.0191 194.702 50.0191C194.875 50.0191 195.035 50.0725 195.182 50.1791C195.328 50.2858 195.402 50.4458 195.402 50.6591V57.4391C195.402 57.7325 195.315 57.9525 195.142 58.0991C194.968 58.2458 194.768 58.3191 194.542 58.3191C194.382 58.3191 194.222 58.2791 194.062 58.1991C193.915 58.1325 193.788 58.0191 193.682 57.8591L190.442 52.8191C190.375 52.7125 190.302 52.6591 190.222 52.6591C190.102 52.6591 190.042 52.7525 190.042 52.9391L190.102 57.6791C190.102 57.8925 190.028 58.0525 189.882 58.1591C189.748 58.2658 189.588 58.3191 189.402 58.3191ZM201.358 58.1191C201.078 58.1191 200.811 58.0258 200.558 57.8391C200.318 57.6525 200.198 57.3858 200.198 57.0391V51.1591C200.198 50.8525 200.298 50.6058 200.498 50.4191C200.711 50.2191 200.958 50.1191 201.238 50.1191H203.038C203.838 50.1191 204.538 50.2858 205.138 50.6191C205.751 50.9391 206.225 51.3991 206.558 51.9991C206.905 52.5991 207.078 53.3191 207.078 54.1591C207.078 54.8925 206.918 55.5591 206.598 56.1591C206.291 56.7591 205.858 57.2391 205.298 57.5991C204.751 57.9458 204.118 58.1191 203.398 58.1191H201.358ZM202.178 56.8791H203.058C203.925 56.8791 204.585 56.6525 205.038 56.1991C205.491 55.7325 205.711 55.0525 205.698 54.1591C205.685 53.2525 205.451 52.5591 204.998 52.0791C204.545 51.5991 203.891 51.3591 203.038 51.3591H202.198C201.798 51.3591 201.598 51.5591 201.598 51.9591V56.2791C201.598 56.6791 201.791 56.8791 202.178 56.8791Z" fill="#D7D7D7"/>
<defs>
<filter id="filter0_d_378_1339" x="50.8268" y="0.960547" width="2.95" height="64.2" filterUnits="userSpaceOnUse" color-interpolation-filters="sRGB">
<feFlood flood-opacity="0" result="BackgroundImageFix"/>
<feColorMatrix in="SourceAlpha" type="matrix" values="0 0 0 0 0 0 0 0 0 0 0 0 0 0 0 0 0 0 127 0" result="hardAlpha"/>
<feOffset/>
<feGaussianBlur stdDeviation="0.55"/>
<feComposite in2="hardAlpha" operator="out"/>
<feColorMatrix type="matrix" values="0 0 0 0 1 0 0 0 0 1 0 0 0 0 1 0 0 0 1 0"/>
<feBlend mode="normal" in2="BackgroundImageFix" result="effect1_dropShadow_378_1339"/>
<feBlend mode="normal" in="SourceGraphic" in2="effect1_dropShadow_378_1339" result="shape"/>
</filter>
</defs>
</svg>
