<svg width="224" height="40" viewBox="0 0 224 40" fill="none" xmlns="http://www.w3.org/2000/svg">
<g id="Wordmark White 1" clip-path="url(#clip0_370_1042)">
<path id="Vector" d="M72.717 12.565L67.62 26.8675C67.5966 26.9366 67.5507 26.9959 67.4894 27.0361C67.4281 27.0763 67.3551 27.0948 67.2818 27.0891H66.8957C66.8223 27.092 66.7496 27.0723 66.6879 27.0325C66.6263 26.9929 66.5785 26.9352 66.5511 26.8675L62.7299 16.8366L58.9152 26.8675C58.8898 26.9353 58.8434 26.9932 58.7825 27.0332C58.7218 27.0731 58.6498 27.0925 58.5769 27.0891H58.1845C58.1116 27.0932 58.0393 27.0738 57.9784 27.0339C57.9174 26.9939 57.8712 26.9357 57.8464 26.8675L52.7493 12.5701C52.6711 12.3484 52.7557 12.2106 52.9728 12.2106H54.5501C54.6245 12.2032 54.6991 12.2211 54.7616 12.2614C54.8243 12.3017 54.8713 12.362 54.8947 12.4323L58.5278 23.2608L62.2214 13.344C62.248 13.2757 62.2956 13.2175 62.3575 13.1777C62.4193 13.1378 62.4924 13.1185 62.566 13.1223H62.8979C62.9707 13.1187 63.0427 13.1382 63.1036 13.1781C63.1645 13.2179 63.2108 13.2761 63.236 13.344L67.0395 23.2608L70.5881 12.4323C70.6115 12.362 70.6584 12.3017 70.7211 12.2614C70.7837 12.2211 70.8583 12.2032 70.9326 12.2106H72.4861C72.7093 12.2106 72.794 12.3484 72.7158 12.565" fill="white"/>
<path id="Vector_2" d="M94.9003 19.5299C94.8862 21.003 94.433 22.4389 93.598 23.6569C92.7629 24.8749 91.5833 25.8203 90.208 26.3744C88.8324 26.9283 87.3224 27.066 85.8683 26.77C84.4141 26.474 83.0808 25.7576 82.036 24.7109C80.9915 23.6644 80.2822 22.3344 79.9978 20.8885C79.7133 19.4427 79.8664 17.9457 80.4378 16.5861C81.009 15.2264 81.973 14.0649 83.2083 13.2479C84.4434 12.4309 85.8947 11.9949 87.3792 11.9949C88.3768 11.981 89.367 12.1669 90.2907 12.5415C91.2143 12.9162 92.0522 13.4719 92.7543 14.1753C93.4565 14.8788 94.0084 15.7156 94.3771 16.6356C94.7459 17.5557 94.9238 18.54 94.9003 19.5299ZM92.8144 19.5299C92.8144 16.0623 90.5352 13.6742 87.3792 13.6742C84.223 13.6742 81.944 16.0623 81.944 19.5299C81.944 22.9974 84.223 25.3857 87.3792 25.3857C90.5352 25.3857 92.8144 22.9974 92.8144 19.5299Z" fill="white"/>
<path id="Vector_3" d="M114.816 26.2566C114.864 26.3118 114.894 26.3802 114.902 26.4528C114.91 26.5253 114.896 26.5985 114.861 26.6628C114.826 26.7271 114.773 26.7795 114.707 26.8129C114.642 26.8463 114.568 26.8593 114.495 26.8502H113.074C113.028 26.8488 112.983 26.8361 112.943 26.8132C112.903 26.7902 112.869 26.7578 112.844 26.7187L109.278 21.3789H105.446V26.551C105.445 26.6303 105.413 26.7062 105.356 26.7623C105.3 26.8186 105.223 26.8505 105.143 26.8514H103.755C103.675 26.8502 103.599 26.818 103.543 26.762C103.486 26.7059 103.454 26.6301 103.453 26.551V12.5115C103.455 12.4324 103.487 12.3569 103.543 12.3008C103.599 12.2448 103.675 12.2125 103.755 12.2109H109.214C113.035 12.2109 114.922 14.2033 114.922 16.7943C114.945 17.8239 114.596 18.8277 113.939 19.6244C113.281 20.4212 112.358 20.9583 111.337 21.1385L114.816 26.2566ZM108.824 19.6996C111.829 19.6996 112.838 18.4635 112.838 16.7956C112.838 15.1275 111.829 13.8915 108.824 13.8915H105.445V19.6996H108.824Z" fill="white"/>
<path id="Vector_4" d="M138.295 11.9745H138.748C138.788 11.9719 138.829 11.9779 138.867 11.9921C138.904 12.0063 138.939 12.0284 138.967 12.0568C138.996 12.0852 139.018 12.1194 139.033 12.1571C139.047 12.1947 139.053 12.2349 139.051 12.275V26.5511C139.053 26.5913 139.047 26.6315 139.033 26.6692C139.018 26.7069 138.996 26.741 138.967 26.7694C138.939 26.7978 138.904 26.82 138.867 26.8341C138.829 26.8484 138.788 26.8542 138.748 26.8517H137.36C137.319 26.8542 137.278 26.8484 137.241 26.8341C137.203 26.82 137.168 26.7978 137.139 26.7694C137.111 26.741 137.089 26.7069 137.074 26.6692C137.06 26.6315 137.054 26.5913 137.057 26.5511V16.4164L131.464 24.4499C131.446 24.4895 131.416 24.5233 131.379 24.5469C131.342 24.5704 131.299 24.5829 131.255 24.5829C131.211 24.5829 131.168 24.5704 131.131 24.5469C131.094 24.5233 131.064 24.4895 131.046 24.4499L125.454 16.4164V26.5499C125.457 26.5901 125.451 26.6303 125.437 26.6679C125.422 26.7056 125.4 26.7398 125.371 26.7682C125.343 26.7966 125.308 26.8187 125.271 26.8328C125.232 26.8471 125.192 26.853 125.152 26.8505H123.763C123.723 26.853 123.682 26.8471 123.645 26.8328C123.607 26.8187 123.572 26.7966 123.543 26.7682C123.515 26.7398 123.493 26.7056 123.478 26.6679C123.464 26.6303 123.458 26.5901 123.461 26.5499V12.2738C123.458 12.2337 123.464 12.1934 123.478 12.1558C123.493 12.1182 123.515 12.084 123.543 12.0556C123.572 12.0271 123.607 12.0051 123.645 11.9909C123.682 11.9767 123.723 11.9707 123.763 11.9732H124.211C124.287 11.9735 124.361 11.9923 124.427 12.0279C124.493 12.0636 124.549 12.1149 124.59 12.1774L131.253 21.4105L137.921 12.1774C137.96 12.1152 138.014 12.0639 138.079 12.0282C138.143 11.9925 138.216 11.9736 138.29 11.9732" fill="white"/>
<path id="Vector_5" d="M161.484 12.5115V26.5498C161.483 26.6291 161.451 26.7046 161.394 26.7607C161.338 26.8168 161.261 26.8489 161.181 26.8502H159.793C159.713 26.8489 159.637 26.8168 159.581 26.7607C159.524 26.7046 159.492 26.6291 159.49 26.5498V20.1542H150.307V26.5498C150.306 26.6291 150.274 26.7046 150.217 26.7607C150.161 26.8168 150.084 26.8489 150.004 26.8502H148.616C148.536 26.8489 148.46 26.8168 148.404 26.7607C148.347 26.7046 148.315 26.6291 148.313 26.5498V12.5115C148.315 12.4322 148.347 12.3565 148.404 12.3004C148.46 12.2443 148.536 12.2122 148.616 12.2109H150.004C150.084 12.2122 150.161 12.2443 150.217 12.3004C150.274 12.3565 150.306 12.4322 150.307 12.5115V18.475H159.49V12.5115C159.492 12.4322 159.524 12.3565 159.581 12.3004C159.637 12.2443 159.713 12.2122 159.793 12.2109H161.181C161.261 12.2122 161.338 12.2443 161.394 12.3004C161.451 12.3565 161.483 12.4322 161.484 12.5115Z" fill="white"/>
<path id="Vector_6" d="M185.084 19.5299C185.069 21.003 184.616 22.4389 183.782 23.6569C182.947 24.8749 181.767 25.8203 180.391 26.3744C179.016 26.9283 177.506 27.066 176.052 26.77C174.598 26.474 173.264 25.7576 172.22 24.7109C171.175 23.6644 170.466 22.3344 170.181 20.8885C169.897 19.4427 170.05 17.9457 170.621 16.5861C171.193 15.2264 172.157 14.0649 173.392 13.2479C174.627 12.4309 176.078 11.9949 177.563 11.9949C178.56 11.981 179.55 12.1669 180.474 12.5415C181.397 12.9162 182.237 13.4719 182.938 14.1753C183.64 14.8788 184.192 15.7156 184.56 16.6356C184.93 17.5557 185.107 18.54 185.084 19.5299ZM182.997 19.5299C182.997 16.0623 180.718 13.6742 177.563 13.6742C174.407 13.6742 172.128 16.0623 172.128 19.5299C172.128 22.9974 174.407 25.3857 177.563 25.3857C180.718 25.3857 182.997 22.9974 182.997 19.5299Z" fill="white"/>
<path id="Vector_7" d="M204.082 25.4702V26.5498C204.085 26.5898 204.078 26.6301 204.064 26.6676C204.05 26.7053 204.028 26.7394 204 26.7678C203.971 26.7964 203.935 26.8184 203.898 26.8327C203.86 26.8468 203.819 26.8529 203.78 26.8502H193.943C193.863 26.8489 193.788 26.8168 193.731 26.7607C193.674 26.7046 193.642 26.6291 193.642 26.5498V12.5115C193.642 12.4322 193.674 12.3565 193.731 12.3004C193.788 12.2443 193.863 12.2122 193.943 12.2109H195.331C195.412 12.2125 195.487 12.2448 195.544 12.3008C195.599 12.3569 195.631 12.4324 195.633 12.5115V25.1698H203.784C203.823 25.1671 203.864 25.1731 203.901 25.1873C203.941 25.2015 203.975 25.2235 204.003 25.2519C204.032 25.2805 204.053 25.3146 204.068 25.3523C204.082 25.3898 204.089 25.43 204.085 25.4702" fill="white"/>
<path id="Vector_8" d="M223.244 25.4689V26.5483C223.247 26.5885 223.24 26.6286 223.226 26.6663C223.211 26.704 223.19 26.7381 223.161 26.7665C223.133 26.7949 223.097 26.8171 223.06 26.8312C223.022 26.8455 222.981 26.8514 222.942 26.8489H212.319C212.239 26.8476 212.164 26.8155 212.107 26.7594C212.05 26.7033 212.017 26.6276 212.016 26.5483V12.5101C212.017 12.4308 212.05 12.3551 212.107 12.299C212.164 12.2429 212.239 12.2108 212.319 12.2096H222.701C222.74 12.207 222.781 12.213 222.818 12.2272C222.856 12.2414 222.892 12.2634 222.92 12.2919C222.949 12.3203 222.97 12.3545 222.985 12.3921C222.999 12.4298 223.006 12.47 223.002 12.5101V13.5896C223.006 13.6297 222.999 13.67 222.985 13.7076C222.97 13.7452 222.949 13.7794 222.92 13.8078C222.892 13.8363 222.856 13.8583 222.818 13.8725C222.781 13.8867 222.74 13.8927 222.701 13.8901H214.007V18.4735H221.732C221.774 18.471 221.813 18.4769 221.85 18.4906C221.888 18.5046 221.922 18.526 221.95 18.5539C221.979 18.5816 222 18.615 222.016 18.6519C222.031 18.6887 222.036 18.7282 222.034 18.7679V19.8535C222.038 19.8935 222.031 19.9335 222.016 19.9708C222.002 20.0082 221.981 20.0421 221.952 20.0705C221.924 20.0987 221.89 20.1207 221.852 20.135C221.815 20.1491 221.774 20.1552 221.732 20.1529H214.007V25.1683H222.942C222.983 25.1658 223.024 25.1717 223.061 25.186C223.099 25.2001 223.133 25.2222 223.161 25.2506C223.19 25.279 223.213 25.3133 223.227 25.3508C223.242 25.3885 223.247 25.4287 223.245 25.4689" fill="white"/>
<path id="Vector_9" d="M19.8404 39.533C14.6922 39.5296 9.75558 37.4842 6.11367 33.8456C2.47176 30.207 0.421977 25.2723 0.414062 20.1242C0.421975 14.9758 2.47165 10.0408 6.11349 6.40179C9.75533 2.76275 14.6919 0.716842 19.8404 0.712891C24.9887 0.716842 29.9251 2.76275 33.567 6.40179C37.2088 10.0408 39.2584 14.9758 39.2665 20.1242C39.2584 25.2723 37.2088 30.207 33.567 33.8456C29.9249 37.4842 24.9885 39.5296 19.8404 39.533ZM19.8404 2.20721C15.088 2.21051 10.5312 4.09878 7.16941 7.45772C3.80768 10.8167 1.91564 15.372 1.90839 20.1242C1.91301 24.877 3.8043 29.4336 7.16667 32.7927C10.529 36.1518 15.0875 38.0387 19.8404 38.0387C24.593 38.0387 29.1515 36.1518 32.5138 32.7927C35.8763 29.4336 37.7675 24.877 37.7722 20.1242C37.7648 15.372 35.8727 10.8167 32.5112 7.45772C29.1494 4.09878 24.5925 2.21051 19.8404 2.20721Z" fill="white"/>
<path id="Vector_10" d="M22.296 36.4637C18.0308 36.4603 13.9411 34.7654 10.924 31.7507C7.90684 28.7358 6.20874 24.6474 6.20215 20.3822C6.20874 16.117 7.90684 12.0286 10.924 9.01381C13.9411 5.99903 18.0308 4.30409 22.296 4.30078C26.5612 4.30409 30.6508 5.99903 33.668 9.01381C36.6851 12.0286 38.3832 16.117 38.3898 20.3822C38.3832 24.6474 36.6851 28.7358 33.668 31.7507C30.6508 34.7654 26.5612 36.4603 22.296 36.4637ZM22.296 5.46139C18.3389 5.46467 14.5445 7.03744 11.7455 9.83465C8.94642 12.6318 7.37115 16.4251 7.36522 20.3822C7.37181 24.3389 8.9474 28.1315 11.7464 30.9282C14.5454 33.7249 18.3392 35.2973 22.296 35.3005C26.2527 35.2973 30.0466 33.7249 32.8455 30.9282C35.6446 28.1315 37.2202 24.3389 37.2268 20.3822C37.2202 16.4255 35.6446 12.6329 32.8455 9.83622C30.0466 7.03956 26.2527 5.46717 22.296 5.46389V5.46139Z" fill="white"/>
<path id="Vector_11" d="M24.7518 33.3938C21.3697 33.3911 18.1268 32.0472 15.7344 29.6566C13.3421 27.2661 11.9955 24.0242 11.9902 20.6421C11.9955 17.2602 13.3421 14.0183 15.7344 11.6278C18.1268 9.23726 21.3697 7.89327 24.7518 7.89062C28.1339 7.89261 31.3773 9.23639 33.7697 11.627C36.1623 14.0177 37.5087 17.26 37.5132 20.6421C37.508 24.0242 36.1614 27.2661 33.769 29.6566C31.3766 32.0472 28.1338 33.3911 24.7518 33.3938ZM24.7518 8.71997C21.5896 8.72195 18.5572 9.97835 16.3201 12.2135C14.0831 14.4486 12.8242 17.4799 12.8196 20.6421C12.8248 23.804 14.0841 26.8346 16.321 29.0693C18.5579 31.3038 21.5899 32.56 24.7518 32.562C27.9135 32.56 30.9456 31.3038 33.1826 29.0693C35.4194 26.8346 36.6787 23.804 36.684 20.6421C36.6794 17.4799 35.4203 14.4486 33.1833 12.2135C30.9463 9.97835 27.9141 8.72195 24.7518 8.71997Z" fill="white"/>
<path id="Vector_12" d="M27.2084 30.3225C24.7096 30.3205 22.3134 29.3274 20.5458 27.5612C18.7782 25.7949 17.7832 23.3996 17.7793 20.9008C17.7826 18.4015 18.7771 16.0055 20.5449 14.2387C22.3127 12.4719 24.7092 11.4785 27.2084 11.4766C29.7078 11.4785 32.1042 12.4719 33.872 14.2387C35.6397 16.0055 36.6343 18.4015 36.6377 20.9008C36.6336 23.3996 35.6389 25.7949 33.8711 27.5612C32.1035 29.3274 29.7073 30.3205 27.2084 30.3225ZM27.2084 11.9747C24.8412 11.9767 22.5715 12.9175 20.8972 14.5909C19.2228 16.2643 18.2808 18.5335 18.2774 20.9008C18.2813 23.2674 19.2239 25.5361 20.8981 27.209C22.5722 28.8818 24.8418 29.8224 27.2084 29.8243C29.5751 29.8224 31.8447 28.8818 33.5188 27.209C35.193 25.5361 36.1356 23.2674 36.1395 20.9008C36.1361 18.5335 35.1941 16.2643 33.5197 14.5909C31.8455 12.9175 29.5757 11.9767 27.2084 11.9747Z" fill="white"/>
</g>
<defs>
<clipPath id="clip0_370_1042">
<rect width="222.915" height="39.1173" fill="white" transform="translate(0.414062 0.554688)"/>
</clipPath>
</defs>
</svg>
